<?xml version="1.0" standalone="no"?>
<!DOCTYPE svg PUBLIC "-//W3C//DTD SVG 20010904//EN"
 "http://www.w3.org/TR/2001/REC-SVG-20010904/DTD/svg10.dtd">
<svg version="1.0" xmlns="http://www.w3.org/2000/svg"
 width="300.000000pt" height="300.000000pt" viewBox="0 0 300.000000 300.000000"
 preserveAspectRatio="xMidYMid meet">
<metadata>
Created by potrace 1.11, written by Peter Selinger 2001-2013
</metadata>
<g transform="translate(0.000000,300.000000) scale(0.100000,-0.100000)"
fill="#000000" stroke="none">
<path d="M2055 2908 c-47 -25 -80 -70 -138 -182 -58 -115 -173 -281 -234 -338
-51 -48 -144 -97 -246 -129 -296 -91 -564 -235 -694 -372 -185 -195 -231 -447
-133 -737 58 -173 143 -305 287 -445 l103 -101 -93 -46 c-194 -97 -356 -152
-572 -195 -150 -29 -159 -33 -185 -76 -44 -72 -11 -165 67 -186 87 -24 454 72
702 184 84 38 137 66 281 148 l35 20 95 -36 c239 -89 496 -98 777 -27 269 68
486 232 626 473 26 45 60 118 74 162 26 75 27 91 27 260 0 186 -8 258 -49 425
-69 275 -229 650 -432 1010 -69 122 -101 163 -145 186 -32 17 -125 18 -153 2z
m193 -528 c125 -248 181 -377 242 -559 71 -213 94 -342 94 -531 0 -138 -2
-161 -22 -212 -58 -145 -206 -311 -340 -381 -183 -97 -508 -132 -705 -76 l-39
10 84 82 c239 232 460 600 583 972 65 198 81 275 66 325 -24 81 -129 108 -195
50 -27 -24 -37 -44 -51 -103 -64 -262 -191 -548 -346 -778 -109 -162 -195
-261 -317 -361 -58 -47 -77 -58 -94 -52 -41 13 -242 224 -285 299 -146 255
-148 479 -6 644 81 95 310 217 575 306 188 64 264 104 355 189 72 66 178 204
243 314 24 40 46 69 51 65 4 -4 52 -96 107 -203z"/>
</g>
</svg>
