<svg xmlns="http://www.w3.org/2000/svg" style="isolation:isolate" width="96" height="96"><path d="M55.137 62.497L41.63 72.043c-.92.92-1.556 2.122-1.768 3.324l-1.626 12.091-.778 2.05a4.22 4.22 0 0 1-1.343 1.769c-1.132.848-2.405 1.13-3.748.919-1.344-.212-2.546-.849-3.394-1.98l-7.425-10.96q-1.25-1.675-2.192-2.617-.942-.941-2.616-2.192L5.78 67.023c-1.132-.849-1.768-2.05-1.98-3.394a5.017 5.017 0 0 1 .919-3.748 4.22 4.22 0 0 1 1.768-1.344l1.98-.848L20.7 56.063c1.272-.283 2.475-.92 3.394-1.839l9.404-13.364-18.172-10.112q-1.485-1.06-1.556-1.273a6.66 6.66 0 0 1-1.91-4.879c.072-1.909.85-3.535 2.193-4.879l5.586-5.586c2.828-2.828 7.212-3.677 10.89-2.121l20.293 8.839a1.975 1.975 0 0 0 2.122-.425l12.02-12.02c2.97-2.97 7.072-4.667 11.314-4.667 4.243 0 8.344 1.697 11.314 4.667 2.97 2.97 4.667 7.07 4.667 11.313s-1.697 8.344-4.667 11.314l-12.02 12.02a1.975 1.975 0 0 0-.425 2.122l8.839 20.294c1.555 3.677.707 8.061-2.122 10.89l-5.586 5.586c-1.343 1.343-2.97 2.121-4.879 2.192a6.66 6.66 0 0 1-4.879-1.91q-.212-.07-1.273-1.555l-10.11-18.173zM16.529 64.62l5.374-.707c3.04-.495 5.869-1.91 7.99-4.172q.07-.071.849-.99l9.475-13.577c2.192-2.899 1.98-7.07-.495-9.687q-.142-.142-1.627-1.202L20.56 24.526l4.738-4.738a1.975 1.975 0 0 1 2.121-.424l20.294 8.839a9.922 9.922 0 0 0 10.89-2.122l12.02-12.02c1.485-1.485 3.536-2.405 5.657-2.405 2.122 0 4.172.92 5.657 2.404 1.485 1.485 2.404 3.536 2.404 5.657 0 2.122-.919 4.172-2.404 5.657l-12.02 12.021a9.922 9.922 0 0 0-2.122 10.89l8.839 20.293a1.975 1.975 0 0 1-.424 2.122l-4.738 4.737-9.758-17.536q-1.06-1.485-1.202-1.626c-2.617-2.475-6.788-2.687-9.688-.495l-13.717 9.616q-.92.778-.99.849c-2.192 2.05-3.677 4.95-4.172 7.99l-.637 5.162-3.323-5.02q-1.725-2.15-2.97-3.394-1.245-1.245-3.394-2.97l-5.091-3.394z" fill-rule="evenodd"/></svg>