<svg xmlns="http://www.w3.org/2000/svg" style="isolation:isolate" width="96" height="96"><path d="M29.918 16.866A36.226 36.226 0 0 1 48 12a36.226 36.226 0 0 1 18.082 4.866C59.232 25.744 55.636 36.756 55.9 48c-.263 11.322 3.325 22.336 10.165 31.143A36.217 36.217 0 0 1 48 84a36.217 36.217 0 0 1-18.065-4.857C36.775 70.336 40.363 59.323 40.1 48c.264-11.244-3.331-22.256-10.182-31.134zm-6.408 4.67c-.34.317-.678.637-1.01.964C15.8 29.3 12 38.5 12 48s3.8 18.7 10.5 25.5c.332.327.67.647 1.01.963C29.343 66.956 32.365 57.556 32.1 48c.265-9.556-2.757-18.956-8.59-26.463zm48.98 0c.34.317.678.637 1.01.964C80.2 29.3 84 38.5 84 48s-3.8 18.7-10.5 25.5c-.332.327-.67.647-1.01.963C66.657 66.956 63.635 57.556 63.9 48c-.265-9.556 2.757-18.956 8.59-26.463zM4 48c0-11.7 4.6-22.9 12.9-31.1C25.1 8.6 36.3 4 48 4c11.7 0 22.9 4.6 31.1 12.9C87.4 25.1 92 36.3 92 48c0 11.7-4.6 22.9-12.9 31.1C70.9 87.4 59.7 92 48 92c-11.7 0-22.9-4.6-31.1-12.9C8.6 70.9 4 59.7 4 48z" fill-rule="evenodd"/></svg>