<svg xmlns="http://www.w3.org/2000/svg" style="isolation:isolate" width="96" height="96"><path d="M32 36c0-2.208 1.792-4 4-4s4 1.792 4 4-1.792 4-4 4-4-1.792-4-4zM8.8 40l-3.4-2.3c-2-1-3.3-3-3.3-5.2.2-1.4 1-2.8 2.2-3.6 1.2-.9 2.8-1.2 4.2-.9H15c1 0 1.8-.6 2.2-1.4 2.4-4.3 6-7.9 10.5-10.1 5.1-2.8 10.14-4.313 17-4.5 7.57-.206 13.4 1.4 18.9 4.4 5.4 3.3 9.7 8.2 12.1 14.1 1.5 4 2.2 8.3 2 12.5l-.1 2.8q1.9-.3 6.8-1.1c2.7-.4 5.2 1.4 5.7 4.1.2.8.1 1.7-.3 2.5q-1.1 2.1-1.3 2.3C82.4 61.1 74.9 67.3 66.4 72c-6.6 3.7-12.767 5.627-21.4 5.6-10.207-.032-18-2.2-24.9-8-4.4-4.7-7-10.8-7.5-17.2 0-.2-.2-.4-.4-.4H8.5c-1.4.3-3 0-4.2-.9-1.2-.8-2-2.2-2.2-3.6 0-2.2 1.3-4.2 3.3-5.2L8.8 40zm7.7-4.1c3.4-.5 6.3-2.6 7.8-5.6 1.6-2.9 4-5.2 6.9-6.6 4.3-2.4 8.164-3.549 13.7-3.7 5.84-.16 10.5 1 14.6 3.3 3.9 2.4 7 6 8.8 10.2 1.1 2.9 1.5 6 1.4 9.2l-.2 4.7q0 4.4 1 5.4c.9 1 2.2 1.5 3.6 1.4 1.1-.1 2.2-.2 3.4-.3C73 58.2 68 62 62.5 65c-5.4 3-10.75 4.71-18 4.6-7.715-.116-13.6-1.5-18.9-5.8-3-3.4-4.7-7.6-5-12.1-.3-3-2.1-5.6-4.8-6.9 1.4-1.2 2.2-3 2.3-4.8-.1-1.5-.6-2.9-1.6-4.1z" fill-rule="evenodd"/></svg>