<svg xmlns="http://www.w3.org/2000/svg" style="isolation:isolate" width="96" height="96"><path d="M72.825 28.818l2.835 2.835c1.485 1.485 2.405 3.536 2.405 5.657s-.92 4.172-2.405 5.657l-4.454 4.455c-.566.565-.778 1.485-.354 2.192 2.121 5.657 2.334 11.808.707 17.677-1.626 6.86-5.091 13.153-10.04 18.102C54.8 92.111 45.608 95.93 36.061 96c-9.545-.07-18.738-3.89-25.455-10.607C3.889 78.676.07 69.483 0 59.938c.07-9.546 3.89-18.739 10.607-25.456 4.95-4.95 11.243-8.415 18.102-10.041 5.727-1.627 12.02-1.414 17.677.707.707.424 1.627.212 2.192-.354l4.455-4.454c1.485-1.485 3.536-2.405 5.657-2.405s4.172.92 5.657 2.405l2.82 2.82c1.63-2.067 3.432-3.959 5.233-5.76 1.3-1.3 2.7-2.5 4.2-3.6 1.2-.9 2.5-1.7 3.8-2.5 2-1 3.9-2 5.9-2.9 1-.5 2.1-.5 3.1-.1 1 .3 1.8 1.1 2.2 2 .5 1 .5 2.1.1 3.1-.3 1-1.1 1.8-2 2.2-1.9.9-3.6 1.8-5.4 2.7-1 .6-2 1.2-2.9 1.9-1.2.9-2.3 1.8-3.3 2.8-1.8 1.8-5.18 5.718-5.275 5.818zm-29.409 3.825c3.677 1.556 7.99.637 10.82-2.192l4.454-4.455L70.004 37.31l-4.455 4.455c-2.829 2.828-3.748 7.142-2.192 10.819 1.485 4.03 1.697 8.485.495 12.657-1.273 5.515-4.03 10.536-7.99 14.496-5.233 5.232-12.446 8.202-19.8 8.202-7.424-.07-14.566-2.97-19.799-8.202-5.232-5.233-8.131-12.375-8.202-19.8 0-7.353 2.97-14.566 8.202-19.798 3.96-3.96 8.98-6.718 14.496-7.99 4.172-1.203 8.627-.99 12.657.494z" fill-rule="evenodd"/></svg>