<svg xmlns="http://www.w3.org/2000/svg" style="isolation:isolate" width="96" height="96"><path d="M80 64H22c-2.085 0-4.14.477-6 1.358V12h64v52zm8 20c0 2.1-.8 4.2-2.3 5.7-1.5 1.5-3.6 2.3-5.7 2.3H22c-3.7 0-6.916-1.17-9.9-4.1q-2.479-2.433-3.531-5.983C8.255 80.86 8 79.104 8 78V12c0-2.1.8-4.2 2.3-5.7C11.8 4.8 13.9 4 16 4h64c2.1 0 4.2.8 5.7 2.3C87.2 7.8 88 9.9 88 12v72zM22 72h58v12H22c-1.6 0-3.1-.6-4.2-1.8-1.2-1.1-1.8-2.6-1.8-4.2s.6-3.1 1.8-4.2c1.1-1.2 2.6-1.8 4.2-1.8zm10-48v24c0 1.1-.4 2.1-1.2 2.9-.7.7-1.7 1.1-2.8 1.1-1.1 0-2.1-.4-2.8-1.1-.8-.8-1.2-1.8-1.2-2.9V28c-1.1 0-2.1-.4-2.8-1.2-.8-.7-1.2-1.7-1.2-2.8 0-1.1.4-2.1 1.2-2.8.7-.8 1.7-1.2 2.8-1.2h4c1.1 0 2.1.4 2.8 1.2.8.7 1.2 1.7 1.2 2.8zm40 0v24c0 1.1-.4 2.1-1.2 2.9-.7.7-1.7 1.1-2.8 1.1-1.1 0-2.1-.4-2.8-1.1-.8-.8-1.2-1.8-1.2-2.9V28c-1.1 0-2.1-.4-2.8-1.2-.8-.7-1.2-1.7-1.2-2.8 0-1.1.4-2.1 1.2-2.8.7-.8 1.7-1.2 2.8-1.2h4c1.1 0 2.1.4 2.8 1.2.8.7 1.2 1.7 1.2 2.8zm-28 9h-4c-1.1 0-2.1.4-2.8 1.2-.8.7-1.2 1.7-1.2 2.8 0 1.1.4 2.1 1.2 2.8.7.8 1.7 1.2 2.8 1.2h4v4c0 1.1.4 2.1 1.2 2.8.7.8 1.7 1.2 2.8 1.2 1.1 0 2.1-.4 2.8-1.2.8-.7 1.2-1.7 1.2-2.8v-4h4c1.1 0 2.1-.4 2.8-1.2.8-.7 1.2-1.7 1.2-2.8 0-1.1-.4-2.1-1.2-2.8-.7-.8-1.7-1.2-2.8-1.2h-4v-4c0-1.1-.4-2.1-1.2-2.8-.7-.8-1.7-1.2-2.8-1.2-1.1 0-2.1.4-2.8 1.2-.8.7-1.2 1.7-1.2 2.8v4z" fill-rule="evenodd"/></svg>