<svg xmlns="http://www.w3.org/2000/svg" style="isolation:isolate" width="96" height="96"><path d="M40 44c-1.1 0-2.1-.4-2.8-1.2-.8-.7-1.2-1.7-1.2-2.8 0-1.1.4-2.1 1.2-2.8.7-.8 1.7-1.2 2.8-1.2h16c1.1 0 2.1.4 2.8 1.2.8.7 1.2 1.7 1.2 2.8 0 1.1-.4 2.1-1.2 2.8-.7.8-1.7 1.2-2.8 1.2H40zm-8.1-16c-1.1 0-2.1-.4-2.9-1.2-.7-.7-1.1-1.7-1.1-2.8 0-1.1.4-2.1 1.1-2.8.8-.8 1.8-1.2 2.9-1.2h32c1 0 2.1.4 2.8 1.2.8.7 1.2 1.7 1.2 2.8 0 1.1-.4 2.1-1.2 2.8-.7.8-1.8 1.2-2.8 1.2h-32zM80 64H22c-2.085 0-4.14.477-6 1.358V12h64v52zm8 20c0 2.1-.8 4.2-2.3 5.7-1.5 1.5-3.6 2.3-5.7 2.3H22c-3.7 0-6.916-1.17-9.9-4.1q-2.479-2.433-3.531-5.983C8.255 80.86 8 79.104 8 78V12c0-2.1.8-4.2 2.3-5.7C11.8 4.8 13.9 4 16 4h64c2.1 0 4.2.8 5.7 2.3C87.2 7.8 88 9.9 88 12v72zM22 72h58v12H22c-1.6 0-3.1-.6-4.2-1.8-1.2-1.1-1.8-2.6-1.8-4.2s.6-3.1 1.8-4.2c1.1-1.2 2.6-1.8 4.2-1.8z" fill-rule="evenodd"/></svg>