<svg xmlns="http://www.w3.org/2000/svg" style="isolation:isolate" width="96" height="96"><path d="M44 12H16v53.358A14.043 14.043 0 0 1 22 64h58V12H68v23.5c.3 1.4 0 3-.9 4.2-.8 1.2-2.2 2-3.6 2.2-2.2 0-4.2-1.3-5.2-3.3L56 35.2l-2.3 3.4c-1 2-3 3.3-5.2 3.3-1.4-.2-2.8-1-3.6-2.2-.9-1.2-1.2-2.8-.9-4.2V12zm8 0h8v15.4c-1.1-.9-2.5-1.4-4-1.5-1.5.1-2.9.6-4 1.5V12zm36 72c0 2.1-.8 4.2-2.3 5.7-1.5 1.5-3.6 2.3-5.7 2.3H22c-3.7 0-6.916-1.17-9.9-4.1q-2.479-2.433-3.531-5.983C8.255 80.86 8 79.104 8 78V12c0-2.1.8-4.2 2.3-5.7C11.8 4.8 13.9 4 16 4h64c2.1 0 4.2.8 5.7 2.3C87.2 7.8 88 9.9 88 12v72zM22 72h58v12H22c-1.6 0-3.1-.6-4.2-1.8-1.2-1.1-1.8-2.6-1.8-4.2s.6-3.1 1.8-4.2c1.1-1.2 2.6-1.8 4.2-1.8z" fill-rule="evenodd"/></svg>