<svg xmlns="http://www.w3.org/2000/svg" style="isolation:isolate" width="96" height="96"><path d="M22.5 73.5c.8.7 1.2 1.7 1.2 2.8 0 1-.4 2.1-1.2 2.8-.7.8-1.7 1.2-2.8 1.2-1 0-2.1-.4-2.8-1.2C8.6 70.9 4 59.7 4 48c0-11.7 4.6-22.9 12.9-31.1C25.1 8.6 36.3 4 48 4c11.7 0 22.9 4.6 31.1 12.9C87.4 25.1 92 36.3 92 48c0 11.7-4.6 22.9-12.9 31.1-.7.8-1.8 1.2-2.8 1.2-1.1 0-2.1-.4-2.8-1.2-.8-.7-1.2-1.8-1.2-2.8 0-1.1.4-2.1 1.2-2.8C80.2 66.7 84 57.5 84 48s-3.8-18.7-10.5-25.5C66.7 15.8 57.5 12 48 12s-18.7 3.8-25.5 10.5C15.8 29.3 12 38.5 12 48s3.8 18.7 10.5 25.5zm11.4-11.4c.7.8 1.1 1.8 1.1 2.9 0 1-.4 2-1.1 2.8-.8.7-1.8 1.2-2.9 1.2-1 0-2-.5-2.8-1.2C23 62.5 20 55.4 20 48s3-14.5 8.2-19.8C33.5 23 40.6 20 48 20s14.5 3 19.8 8.2C73 33.5 76 40.6 76 48s-3 14.5-8.2 19.8C67 68.5 66 69 65 69c-1.1 0-2.1-.5-2.9-1.2C61.4 67 61 66 61 65c0-1.1.4-2.1 1.1-2.9C65.9 58.4 68 53.3 68 48c0-5.3-2.1-10.4-5.9-14.1C58.4 30.1 53.3 28 48 28c-5.3 0-10.4 2.1-14.1 5.9C30.1 37.6 28 42.7 28 48c0 5.3 2.1 10.4 5.9 14.1zM52 59.303a12.731 12.731 0 0 0 4.5-2.803c2.2-2.3 3.5-5.3 3.5-8.5s-1.3-6.2-3.5-8.5C54.2 37.3 51.2 36 48 36s-6.2 1.3-8.5 3.5C37.3 41.8 36 44.8 36 48s1.3 6.2 3.5 8.5a12.731 12.731 0 0 0 4.5 2.803V88c0 1.1.4 2.1 1.2 2.8.7.8 1.7 1.2 2.8 1.2 1.1 0 2.1-.4 2.8-1.2.8-.7 1.2-1.7 1.2-2.8V59.303zM44 48c0 1.1.4 2.1 1.2 2.8.7.8 1.7 1.2 2.8 1.2 1.1 0 2.1-.4 2.8-1.2.8-.7 1.2-1.7 1.2-2.8 0-1.1-.4-2.1-1.2-2.8-.7-.8-1.7-1.2-2.8-1.2-1.1 0-2.1.4-2.8 1.2-.8.7-1.2 1.7-1.2 2.8z" fill-rule="evenodd"/></svg>