<svg xmlns="http://www.w3.org/2000/svg" style="isolation:isolate" width="96" height="96"><path d="M44 78.479a18.374 18.374 0 0 1-9.9-6.279c-4-4.8-6.2-10.9-6.1-17.2-.1-6.3 2.1-12.4 6.1-17.2a18.374 18.374 0 0 1 9.9-6.279V78.48zm8 0a18.374 18.374 0 0 0 9.9-6.279c4-4.8 6.2-10.9 6.1-17.2.1-6.3-2.1-12.4-6.1-17.2a18.374 18.374 0 0 0-9.9-6.28v46.96zM40.253 24.297c.205-1.443.52-2.857.947-4.197.3-.8.8-1.5 1.4-2.1 1.5-1.3 3.4-2 5.4-2 2 0 3.9.7 5.4 2 .6.6 1.1 1.3 1.4 2.1a25.93 25.93 0 0 1 .947 4.201 25.513 25.513 0 0 0-7.755-1.3 25.636 25.636 0 0 0-7.739 1.296zM25.572 35.86L14.299 30.6c-1-.4-1.7-1.2-2.1-2.2-.3-1-.3-2.1.2-3.1.4-1 1.2-1.7 2.2-2.1 1-.3 2.1-.3 3.1.2l13.243 6.18c.331-.29.669-.571 1.013-.844L32 26.9c.1-3.2.7-6.4 1.7-9.4.7-2.1 2-4 3.7-5.5 2.9-2.6 6.7-4 10.6-4 3.9 0 7.7 1.4 10.6 4 1.7 1.5 3 3.4 3.7 5.5 1 3 1.6 6.2 1.7 9.4l.047 1.88c.33.265.653.538.97.818L78.301 23.4c1-.5 2.1-.5 3.1-.2 1 .4 1.8 1.1 2.2 2.1.5 1 .5 2.1.2 3.1-.4 1-1.1 1.8-2.1 2.2L70.4 35.874A33.529 33.529 0 0 1 75.818 51h12.183c1.1 0 2.1.4 2.8 1.2.8.7 1.2 1.7 1.2 2.8 0 1.1-.4 2.1-1.2 2.8-.7.8-1.7 1.2-2.8 1.2H75.818A33.529 33.529 0 0 1 70.4 74.126L81.7 79.4c1 .4 1.7 1.2 2.1 2.2.3 1 .3 2.1-.2 3.1-.4 1-1.2 1.7-2.2 2.1-1 .3-2.1.3-3.1-.2l-13.282-6.198c-4.66 4.12-10.673 6.517-17.017 6.598h-.017c-6.338-.085-12.345-2.482-17.002-6.599L17.7 86.6c-1 .5-2.1.5-3.1.2-1-.4-1.8-1.1-2.2-2.1-.5-1-.5-2.1-.2-3.1.4-1 1.1-1.8 2.1-2.2l11.302-5.274A33.529 33.529 0 0 1 20.183 59H8c-1.1 0-2.1-.4-2.8-1.2C4.4 57.1 4 56.1 4 55c0-1.1.4-2.1 1.2-2.8.7-.8 1.7-1.2 2.8-1.2h12.184a33.947 33.947 0 0 1 5.389-15.14z" fill-rule="evenodd"/></svg>