<svg xmlns="http://www.w3.org/2000/svg" style="isolation:isolate" width="96" height="96"><path d="M12 32V20h8v4c0 1.1.4 2.1 1.2 2.8.7.8 1.7 1.2 2.8 1.2 1.1 0 2.1-.4 2.8-1.2.8-.7 1.2-1.7 1.2-2.8v-4h40v4c0 1.1.4 2.1 1.2 2.8.7.8 1.7 1.2 2.8 1.2 1.1 0 2.1-.4 2.8-1.2.8-.7 1.2-1.7 1.2-2.8v-4h8v12H12zm0 8v44h72V40H12zm16-28V8c0-1.1-.4-2.1-1.2-2.8C26.1 4.4 25.1 4 24 4c-1.1 0-2.1.4-2.8 1.2-.8.7-1.2 1.7-1.2 2.8v4h-8c-2.1 0-4.2.8-5.7 2.3C4.8 15.8 4 17.9 4 20v64c0 2.1.8 4.2 2.3 5.7C7.8 91.2 9.9 92 12 92h72c2.1 0 4.2-.8 5.7-2.3 1.5-1.5 2.3-3.6 2.3-5.7V20c0-2.1-.8-4.2-2.3-5.7-1.5-1.5-3.6-2.3-5.7-2.3h-8V8c0-1.1-.4-2.1-1.2-2.8C74.1 4.4 73.1 4 72 4c-1.1 0-2.1.4-2.8 1.2-.8.7-1.2 1.7-1.2 2.8v4H28z" fill-rule="evenodd"/></svg>