<svg xmlns="http://www.w3.org/2000/svg" width="96" height="96"><path d="M77.797 26.132l7.283 7.283c1.343 1.343 2.192 3.182 2.192 5.162.07 1.909-.707 3.818-2.05 5.162q-.142.141-53.953 38.678a35.69 35.69 0 0 1-7.92 4.243c-2.05.778-4.172.92-6.364.566-2.05-.354-3.96-1.415-5.444-2.9-1.627-1.626-2.617-3.747-2.758-6.01-.212-2.616.141-5.232 1.131-7.637.071-.212.142-.424.212-.495l2.051-3.747q39.81-55.65 39.952-55.791c1.343-1.344 3.252-2.121 5.161-2.05 1.98 0 3.819.848 5.162 2.191l7.284 7.284q-.538-6.92 2.545-8.486 2.635-1.337 7.425 1.485l5.09 5.091q2.824 4.79 1.486 7.425-1.565 3.083-8.485 2.546zm-31.882 36l-3.262-3.261c-.777-.778-1.767-1.202-2.828-1.132-1.06-.07-2.05.354-2.828 1.132-.778.777-1.203 1.767-1.132 2.828-.07 1.06.354 2.05 1.132 2.829l2.315 2.315-12.71 9.069c-1.91 1.343-3.889 2.475-6.081 3.253-.636.212-1.344.353-2.05.212-.425-.142-.92-.354-1.273-.707a1.433 1.433 0 0 1-.425-.99c-.07-1.344.142-2.687.566-3.96l1.626-3.04 19.487-27.325 2.08 2.08c.778.778 1.768 1.203 2.828 1.132 1.061.07 2.051-.354 2.829-1.131.778-.778 1.202-1.768 1.131-2.829.071-1.06-.353-2.05-1.131-2.828L43.16 36.75l14.13-19.812 21.637 21.638-6.603 4.71-4.216-4.215c-.778-.778-1.768-1.202-2.828-1.132-1.06-.07-2.05.354-2.829 1.132-.777.777-1.202 1.767-1.131 2.828-.07 1.06.354 2.05 1.131 2.829l3.27 3.27-19.807 14.133z" fill-rule="evenodd"/></svg>