<svg xmlns="http://www.w3.org/2000/svg" style="isolation:isolate" width="96" height="96"><path d="M56 84c0-3.2 1.3-6.2 3.5-8.5 2.3-2.2 5.3-3.5 8.5-3.5s6.2 1.3 8.5 3.5c2.2 2.3 3.5 5.3 3.5 8.5s-1.3 6.2-3.5 8.5C74.2 94.7 71.2 96 68 96s-6.2-1.3-8.5-3.5C57.3 90.2 56 87.2 56 84zm8 0c0-1.1.4-2.1 1.2-2.8.7-.8 1.7-1.2 2.8-1.2 1.1 0 2.1.4 2.8 1.2.8.7 1.2 1.7 1.2 2.8 0 1.1-.4 2.1-1.2 2.8-.7.8-1.7 1.2-2.8 1.2-1.1 0-2.1-.4-2.8-1.2-.8-.7-1.2-1.7-1.2-2.8zm-40 0c0-3.2 1.3-6.2 3.5-8.5 2.3-2.2 5.3-3.5 8.5-3.5s6.2 1.3 8.5 3.5c2.2 2.3 3.5 5.3 3.5 8.5s-1.3 6.2-3.5 8.5C42.2 94.7 39.2 96 36 96s-6.2-1.3-8.5-3.5C25.3 90.2 24 87.2 24 84zm8 0c0-1.1.4-2.1 1.2-2.8.7-.8 1.7-1.2 2.8-1.2 1.1 0 2.1.4 2.8 1.2.8.7 1.2 1.7 1.2 2.8 0 1.1-.4 2.1-1.2 2.8-.7.8-1.7 1.2-2.8 1.2-1.1 0-2.1-.4-2.8-1.2-.8-.7-1.2-1.7-1.2-2.8zM8.9 20.5l8.4 40.4C18.1 65 21.8 68 26 68h52c4.2 0 7.9-3 8.7-7.1l8.4-40.4q.2-1.3.2-1.5c-.1-1.9-.9-3.7-2.2-5-1.4-1.3-3.2-2-5.1-2H16.326l-.026-.3c-.2-2.1-1.1-4.1-2.6-5.5C12.1 4.8 10.1 4 8 4H4c-1.1 0-2.1.4-2.8 1.2C.4 5.9 0 6.9 0 8c0 1.1.4 2.1 1.2 2.8.7.8 1.7 1.2 2.8 1.2h4c.2 0 .3.1.3.3l.6 8.2zm16.2 38.8c.1.4.5.7.9.7h52c.4 0 .8-.3.9-.7L87.1 20H17.015q0 .143 8.085 39.3zM44 44c-1.1 0-2.1-.4-2.8-1.2-.8-.7-1.2-1.7-1.2-2.8 0-1.1.4-2.1 1.2-2.8.7-.8 1.7-1.2 2.8-1.2h16c1.1 0 2.1.4 2.8 1.2.8.7 1.2 1.7 1.2 2.8 0 1.1-.4 2.1-1.2 2.8-.7.8-1.7 1.2-2.8 1.2H44z" fill-rule="evenodd"/></svg>