<svg xmlns="http://www.w3.org/2000/svg" style="isolation:isolate" width="96" height="96"><path d="M25.025 16a7.609 7.609 0 0 1 1.275-1.7c1.5-1.5 3.6-2.3 5.7-2.3 0-2.1.8-4.2 2.3-5.7C35.8 4.8 37.9 4 40 4h16c2.1 0 4.2.8 5.7 2.3C63.2 7.8 64 9.9 64 12c2.1 0 4.2.8 5.7 2.3.506.506.932 1.08 1.275 1.7H76c2.1 0 4.2.8 5.7 2.3 1.5 1.5 2.3 3.6 2.3 5.7v60c0 2.1-.8 4.2-2.3 5.7-1.5 1.5-3.6 2.3-5.7 2.3H20c-2.1 0-4.2-.8-5.7-2.3-1.5-1.5-2.3-3.6-2.3-5.7V24c0-2.1.8-4.2 2.3-5.7 1.5-1.5 3.6-2.3 5.7-2.3h5.025zM24 24v4c0 2.1.8 4.2 2.3 5.7 1.5 1.5 3.6 2.3 5.7 2.3h32c2.1 0 4.2-.8 5.7-2.3 1.5-1.5 2.3-3.6 2.3-5.7v-4h4v60H20V24h4zm32-12H40c0 2.1-.8 4.2-2.3 5.7-1.5 1.5-3.6 2.3-5.7 2.3v8h32v-8c-2.1 0-4.2-.8-5.7-2.3-1.5-1.5-2.3-3.6-2.3-5.7z" fill-rule="evenodd"/></svg>