<svg xmlns="http://www.w3.org/2000/svg" style="isolation:isolate" width="96" height="96"><path d="M29.4 79.7c-7.1-1.2-13.4-5-17.8-10.6C6.7 63.2 4 55.8 4 48.1c0-8.4 3.4-16.6 9.4-22.6s14.1-9.4 22.6-9.4c11.7 0 22.4 6.4 28 16.6q3.8-.6 4-.6c6.4 0 12.5 2.6 17 7.1s7 10.6 7 17c0 5.4-1.8 10.7-5.1 15.1-2.9 4.1-7.1 7-12 8.2-.2 0-.4.1-.5.1l-4.2.4H33.9l-4.2-.3h-.3zm1.1-8c-5-.8-9.5-3.6-12.7-7.6-3.7-4.5-5.8-10.1-5.8-16 0-6.3 2.5-12.4 7-16.9 4.5-4.5 10.6-7.1 17-7.1 9.6 0 18.3 5.8 22.1 14.6.7 1.7 2.5 2.7 4.3 2.4l5.9-1c4.2.1 8.2 1.8 11.1 4.8 3 3 4.6 7 4.6 11.2 0 3.8-1.3 7.5-3.6 10.5-1.7 2.5-4.2 4.3-7.1 5.1l-3.5.3H34.1l-3.6-.3zM52 52v-4c0-1.1-.4-2.1-1.2-2.8-.7-.8-1.7-1.2-2.8-1.2-1.1 0-2.1.4-2.8 1.2-.8.7-1.2 1.7-1.2 2.8v4h-4c-1.1 0-2.1.4-2.8 1.2-.8.7-1.2 1.7-1.2 2.8 0 1.1.4 2.1 1.2 2.8.7.8 1.7 1.2 2.8 1.2h4v4c0 1.1.4 2.1 1.2 2.8.7.8 1.7 1.2 2.8 1.2 1.1 0 2.1-.4 2.8-1.2.8-.7 1.2-1.7 1.2-2.8v-4h4c1.1 0 2.1-.4 2.8-1.2.8-.7 1.2-1.7 1.2-2.8 0-1.1-.4-2.1-1.2-2.8-.7-.8-1.7-1.2-2.8-1.2h-4z" fill-rule="evenodd"/></svg>