<svg xmlns="http://www.w3.org/2000/svg" width="96" height="96"><path d="M32.5 15.5l3.5-1.4V12c0-2.1.8-4.2 2.3-5.7C39.8 4.8 41.9 4 44 4h8c2.1 0 4.2.8 5.7 2.3C59.2 7.8 60 9.9 60 12v2.1l3.5 1.4 1.5-1.4c1.5-1.5 3.5-2.4 5.6-2.4 2.1 0 4.2.9 5.7 2.4l5.6 5.6c1.5 1.5 2.4 3.6 2.4 5.7s-.9 4.1-2.4 5.6l-1.4 1.5 1.4 3.5H84c2.1 0 4.2.8 5.7 2.3 1.5 1.5 2.3 3.6 2.3 5.7v8c0 2.1-.8 4.2-2.3 5.7-1.5 1.5-3.6 2.3-5.7 2.3h-2.1l-1.4 3.5 1.4 1.5c1.5 1.5 2.4 3.5 2.4 5.6 0 2.1-.9 4.2-2.4 5.7l-5.6 5.6c-1.5 1.5-3.6 2.4-5.7 2.4s-4.1-.9-5.6-2.4l-1.5-1.4-3.5 1.4V84c0 2.1-.8 4.2-2.3 5.7-1.5 1.5-3.6 2.3-5.7 2.3h-8c-2.1 0-4.2-.8-5.7-2.3-1.5-1.5-2.3-3.6-2.3-5.7v-2.1l-3.5-1.4-1.5 1.4c-1.5 1.5-3.5 2.4-5.6 2.4-2.1 0-4.2-.9-5.7-2.4l-5.6-5.6c-1.5-1.5-2.4-3.6-2.4-5.7s.9-4.1 2.4-5.6l1.4-1.5-1.4-3.5h-1.7c-2.2 0-4.4-.9-5.9-2.5C4.9 56 4 53.8 4 51.6v-7.2c0-2.2.9-4.4 2.5-5.9C8 36.9 10.2 36 12.4 36h1.7l1.4-3.5-1.2-1.2c-1.5-1.6-2.4-3.7-2.4-5.9 0-2.3.9-4.4 2.4-6l5.1-5.1c1.6-1.5 3.7-2.4 6-2.4 2.2 0 4.3.9 5.9 2.4l1.2 1.2zm1.3 8.4c2.2-1.4 4.7-2.4 7.2-3 1.8-.5 3-2.1 3-3.9v-5h8v5c0 1.8 1.2 3.4 3 3.9 2.5.6 5 1.6 7.2 3 1.6.9 3.6.6 4.9-.6l3.5-3.6 5.7 5.7-3.6 3.5c-1.2 1.3-1.5 3.3-.6 4.9 1.4 2.2 2.4 4.7 3 7.2.5 1.8 2.1 3 3.9 3h5v8h-5c-1.8 0-3.4 1.2-3.9 3-.6 2.5-1.6 5-3 7.2-.9 1.6-.6 3.6.6 4.9l3.6 3.5-5.7 5.7-3.5-3.6c-1.3-1.2-3.3-1.5-4.9-.6-2.2 1.4-4.7 2.4-7.2 3-1.8.5-3 2.1-3 3.9v5h-8v-5c0-1.8-1.2-3.4-3-3.9-2.5-.6-5-1.6-7.2-3-1.6-.9-3.6-.6-4.9.6l-3.5 3.6-5.7-5.7 3.6-3.5c1.2-1.3 1.5-3.3.6-4.9-1.4-2.2-2.4-4.7-3-7.2-.5-1.8-2.1-3-3.9-3h-4.6c-.2 0-.4-.2-.4-.4v-7.2c0-.1 0-.2.1-.3.1-.1.2-.1.3-.1H17c1.8 0 3.4-1.2 3.9-3 .6-2.5 1.6-5 3-7.2.9-1.6.6-3.6-.6-4.9L20 25.7c-.1-.1-.1-.2-.1-.3 0-.1 0-.2.1-.3l5.1-5.1c.1-.1.2-.1.3-.1.1 0 .2 0 .3.1l3.2 3.3c1.3 1.2 3.3 1.5 4.9.6zM33 48c0-4 1.6-7.8 4.4-10.6C40.2 34.6 44 33 48 33s7.8 1.6 10.6 4.4C61.4 40.2 63 44 63 48s-1.6 7.8-4.4 10.6C55.8 61.4 52 63 48 63s-7.8-1.6-10.6-4.4C34.6 55.8 33 52 33 48zm8 0c0-1.9.7-3.6 2.1-4.9 1.3-1.4 3-2.1 4.9-2.1 1.9 0 3.6.7 4.9 2.1 1.4 1.3 2.1 3 2.1 4.9 0 1.9-.7 3.6-2.1 4.9-1.3 1.4-3 2.1-4.9 2.1-1.9 0-3.6-.7-4.9-2.1-1.4-1.3-2.1-3-2.1-4.9z" fill-rule="evenodd"/></svg>