<svg xmlns="http://www.w3.org/2000/svg" style="isolation:isolate" width="96" height="96"><path d="M66.276 46.695c1.34 1.441 3.22 2.333 5.306 2.472 1.98.141 4.03-.637 5.586-2.05 1.98-2.264 3.04-5.163 2.829-8.203-.142-2.97-1.556-5.799-3.819-7.778l4.243-4.243c1.485-1.485 2.404-3.536 2.404-5.657s-.92-4.172-2.404-5.657c-1.485-1.485-3.536-2.404-5.657-2.404s-4.172.92-5.657 2.404l-4.243 4.243c-1.98-2.263-4.808-3.677-7.778-3.819-3.04-.212-5.94.849-8.202 2.829-1.414 1.555-2.192 3.606-2.05 5.586.138 2.086 1.03 3.967 2.471 5.306L19.398 59.632c-1.627 1.626-2.546 3.818-2.475 6.152 0 1.414-.566 2.828-1.485 3.889-1.344 1.485-2.192 3.465-2.263 5.515 0 1.98.778 4.03 2.192 5.445 1.414 1.414 3.465 2.192 5.445 2.192 2.05-.07 3.96-.849 5.515-2.263a6.55 6.55 0 0 1 4.314-1.626c2.262-.141 4.454-1.06 6.08-2.687l29.555-29.554zm-5.654-5.66l-5.657-5.657-29.91 29.91s-.213.213-.213.354c.071 2.758-.707 5.516-2.262 7.778 2.333-1.626 4.879-2.333 7.707-2.333.212-.07.354-.07.424-.141l29.91-29.911zm-5.516-16.83q2.447.59 3.96 1.132c2.637.946 4.243 3.111 6.435 3.182 2.121 0 8.461-8.085 9.263-7.283.802.802-7.283 7.142-7.283 9.263.07 2.192 2.236 3.798 3.182 6.435q.542 1.513 1.131 3.96L55.106 24.206zM22.58 73.42" fill-rule="evenodd"/></svg>