<svg xmlns="http://www.w3.org/2000/svg" style="isolation:isolate" width="96" height="96"><path d="M32 56V40h-8c-4.2 0-8.3-1.7-11.3-4.7S8 28.2 8 24c0-4.2 1.7-8.3 4.7-11.3S19.8 8 24 8c4.2 0 8.3 1.7 11.3 4.7S40 19.8 40 24v8h16v-8c0-4.2 1.7-8.3 4.7-11.3S67.8 8 72 8c4.2 0 8.3 1.7 11.3 4.7S88 19.8 88 24c0 4.2-1.7 8.3-4.7 11.3S76.2 40 72 40h-8v16h8c4.2 0 8.3 1.7 11.3 4.7S88 67.8 88 72c0 4.2-1.7 8.3-4.7 11.3S76.2 88 72 88c-4.2 0-8.3-1.7-11.3-4.7S56 76.2 56 72v-8H40v8c0 4.2-1.7 8.3-4.7 11.3S28.2 88 24 88c-4.2 0-8.3-1.7-11.3-4.7S8 76.2 8 72c0-4.2 1.7-8.3 4.7-11.3S19.8 56 24 56h8zm-8 24c-2.1 0-4.2-.8-5.7-2.3-1.5-1.5-2.3-3.6-2.3-5.7s.8-4.2 2.3-5.7c1.5-1.5 3.6-2.3 5.7-2.3h8v8c0 2.1-.8 4.2-2.3 5.7-1.5 1.5-3.6 2.3-5.7 2.3zm48 0c2.1 0 4.2-.8 5.7-2.3 1.5-1.5 2.3-3.6 2.3-5.7s-.8-4.2-2.3-5.7C76.2 64.8 74.1 64 72 64h-8v8c0 2.1.8 4.2 2.3 5.7 1.5 1.5 3.6 2.3 5.7 2.3zM24 16c2.1 0 4.2.8 5.7 2.3 1.5 1.5 2.3 3.6 2.3 5.7v8h-8c-2.1 0-4.2-.8-5.7-2.3-1.5-1.5-2.3-3.6-2.3-5.7s.8-4.2 2.3-5.7c1.5-1.5 3.6-2.3 5.7-2.3zm16 24v16h16V40H40zm32-24c-2.1 0-4.2.8-5.7 2.3-1.5 1.5-2.3 3.6-2.3 5.7v8h8c2.1 0 4.2-.8 5.7-2.3 1.5-1.5 2.3-3.6 2.3-5.7s-.8-4.2-2.3-5.7C76.2 16.8 74.1 16 72 16z" fill-rule="evenodd"/></svg>