<svg xmlns="http://www.w3.org/2000/svg" width="96" height="96"><path d="M4 48c0-11.7 4.6-22.9 12.9-31.1C25.1 8.6 36.3 4 48 4c11.7 0 22.9 4.6 31.1 12.9C87.4 25.1 92 36.3 92 48c0 11.7-4.6 22.9-12.9 31.1C70.9 87.4 59.7 92 48 92c-11.7 0-22.9-4.6-31.1-12.9C8.6 70.9 4 59.7 4 48zm8 0c0-9.5 3.8-18.7 10.5-25.5C29.3 15.8 38.5 12 48 12s18.7 3.8 25.5 10.5C80.2 29.3 84 38.5 84 48s-3.8 18.7-10.5 25.5C66.7 80.2 57.5 84 48 84s-18.7-3.8-25.5-10.5C15.8 66.7 12 57.5 12 48zm44-8l-8.3 4.1c-1.5.8-2.8 2.1-3.6 3.6L40 56l8.3-4.1c1.5-.8 2.8-2.1 3.6-3.6L56 40zm3.9-10.9L44.1 37c-3.1 1.5-5.6 4-7.1 7.1l-7.9 15.8-.05.169c-.635 2.114-.209 4.772.95 5.931 1.159 1.159 3.817 1.585 5.931.95l.169-.05L51.9 59c3.1-1.5 5.6-4 7.1-7.1l7.9-15.8.05-.169c.635-2.114.209-4.772-.95-5.931-1.159-1.159-3.817-1.585-5.931-.95l-.169.05z" fill-rule="evenodd"/></svg>