<svg xmlns="http://www.w3.org/2000/svg" style="isolation:isolate" width="96" height="96"><path d="M36.6 36.6l.4 1c.1.3.1.7.1 1 .1 1.4-.4 2.8-1.4 3.8-.9 1-2.3 1.6-3.7 1.6-3.1 0-6.2 1.2-8.5 3.5-2.2 2.2-3.5 5.3-3.5 8.5s1.3 6.2 3.5 8.5c2.3 2.2 5.3 3.5 8.5 3.5 1.1 0 2.2 0 3.3-.1l1.6-.8c.8-.3 1.7-.4 2.6-.3 2.9.7 4.9 3.5 4.5 6.4V76c0 2.9-.9 5.7-2.6 8h13.2c-1.7-2.3-2.6-5.1-2.6-8v-2.8c-.4-2.9 1.6-5.7 4.5-6.4.9-.1 1.8 0 2.6.3l1.6.8q2.2.1 3.3.1c3.2 0 6.2-1.3 8.5-3.5 2.2-2.3 3.5-5.3 3.5-8.5s-1.3-6.3-3.5-8.5C70.2 45.2 67.1 44 64 44c-1.4 0-2.8-.6-3.7-1.6-1-1-1.5-2.4-1.4-3.8 0-.3 0-.7.1-1l.4-1q.6-3 .6-4.6c0-3.2-1.3-6.2-3.5-8.5-2.3-2.2-5.3-3.5-8.5-3.5s-6.2 1.3-8.5 3.5C37.3 25.8 36 28.8 36 32q0 1.6.6 4.6zm-8.2-.3C18.9 38.1 12 46.4 12 56c0 5.3 2.1 10.4 5.9 14.1C21.6 73.9 26.7 76 32 76c1.3 0 2.7-.1 4-.2v.2c0 1.5-.6 2.9-1.7 4l-2.7 2.7-1.2 2.2c-.5.9-.6 1.9-.3 2.9q.7 2.8 6.3 4.2h23.2q5.6-1.4 6.3-4.2c.3-1 .2-2-.3-2.9l-1.2-2.2-2.7-2.7c-1.1-1.1-1.7-2.5-1.7-4v-.2c1.3.1 2.7.2 4 .2 5.3 0 10.4-2.1 14.1-5.9C81.9 66.4 84 61.3 84 56c0-9.6-6.9-17.9-16.4-19.7.3-1.4.4-2.9.4-4.3 0-5.3-2.1-10.4-5.9-14.1C58.4 14.1 53.3 12 48 12c-5.3 0-10.4 2.1-14.1 5.9C30.1 21.6 28 26.7 28 32c0 1.4.1 2.9.4 4.3" fill-rule="evenodd"/></svg>