<svg xmlns="http://www.w3.org/2000/svg" style="isolation:isolate" width="96" height="96"><path d="M12 68h8v-8h-8v8zm8 8h-8v8h8v-8zm64-56v-8h-8v8h8zm0 16v-8h-8v8h8zm0 16v-8h-8v8h8zm0 16v-8h-8v8h8zm0 8v8h-8v-8h8zM12 4h72c2.1 0 4.2.8 5.7 2.3C91.2 7.8 92 9.9 92 12v72c0 2.1-.8 4.2-2.3 5.7-1.5 1.5-3.6 2.3-5.7 2.3H12c-2.1 0-4.2-.8-5.7-2.3C4.8 88.2 4 86.1 4 84V12c0-2.1.8-4.2 2.3-5.7C7.8 4.8 9.9 4 12 4zm16 40h40V12H28v32zm40 8H28v32h40V52zM12 20h8v-8h-8v8zm0 16h8v-8h-8v8zm0 16h8v-8h-8v8z" fill-rule="evenodd"/></svg>