<svg xmlns="http://www.w3.org/2000/svg" style="isolation:isolate" width="96" height="96"><path d="M68.622 68L55.7 53.585c-2.4-2.6-3.7-6-3.7-9.6V12h-8v31.985c0 3.6-1.3 7-3.7 9.6L27.378 68h41.244zm7.193 8l.085.085c1.5 1.4 2.5 3.3 2.8 5.4-.1.5-.4 1-.8 1.2-1.7 1-3.7 1.4-5.7 1.3H23.8c-2 .1-4-.3-5.7-1.3-.4-.2-.7-.7-.8-1.2.3-2.1 1.3-4 2.8-5.4l.085-.085h55.63zM60 12v31.985c0 1.6.6 3.1 1.6 4.3l19.9 22c3 2.9 4.9 6.8 5.2 10.9 0 3.5-1.8 6.7-4.7 8.4-3.1 1.8-6.6 2.6-10.1 2.4H24.1c-3.5.2-7-.6-10.1-2.4-2.9-1.7-4.7-4.9-4.7-8.4.3-4.1 2.2-8 5.2-10.9l19.9-22c1-1.2 1.6-2.7 1.6-4.3V12c-1.1 0-2.1-.4-2.8-1.2-.8-.7-1.2-1.7-1.2-2.8 0-1.1.4-2.1 1.2-2.8.7-.8 1.7-1.2 2.8-1.2h24c1.1 0 2.1.4 2.8 1.2.8.7 1.2 1.7 1.2 2.8 0 1.1-.4 2.1-1.2 2.8-.7.8-1.7 1.2-2.8 1.2z" fill-rule="evenodd"/></svg>