<svg xmlns="http://www.w3.org/2000/svg" width="96" height="96"><path d="M5 39.988a12.45 12.45 0 0 0-.3 2.712q0 .1.2 1.8L11.2 73c.9 4.1 4.6 7 8.8 7h56c4.2 0 7.9-2.9 8.8-7l6.3-28.5q.2-1.7.2-1.8c0-3-1.1-6-3.2-8.3 0 0-.1 0-.1-.1l-4.2-4.2c-.9-3.6-4.1-6.1-7.8-6.1H44c-.9 0-1.8-.5-2.2-1.4l-.4-.8C39.6 18.2 36 16 32 16H20c-2.1 0-4.2.8-5.7 2.3-1.5 1.5-2.3 3.6-2.3 5.7v6.3l-4 4c0 .1-.1.1-.1.1-.9.986-1.616 2.1-2.142 3.287-.506.636-.756 1.437-.758 2.3zM12.956 44L19 71.2c.1.5.5.8 1 .8h56c.5 0 .9-.3 1-.8L83.044 44H12.956zm4.744-8l2.3-2.3V24h12c.9 0 1.8.5 2.2 1.4l.4.8C36.4 29.8 40 32 44 32h32l1.2 2.8 1.177 1.2H17.7z" fill-rule="evenodd"/></svg>