<svg xmlns="http://www.w3.org/2000/svg" width="96" height="96"><path d="M72 24c6.4 0 12.5 2.5 17 7s7 10.6 7 17-2.5 12.5-7 17-10.6 7-17 7c-6.8 0-13.3-2.9-17.9-8H41.9c-4.6 5.1-11.1 8-17.9 8-6.4 0-12.5-2.5-17-7S0 54.4 0 48s2.5-12.5 7-17 10.6-7 17-7h48zm0 8c4.2 0 8.3 1.7 11.3 4.7S88 43.8 88 48c0 4.2-1.7 8.3-4.7 11.3S76.2 64 72 64c-5 0-9.8-2.4-12.8-6.4-.8-1-1.9-1.6-3.2-1.6H40c-1.3 0-2.4.6-3.2 1.6-3 4-7.8 6.4-12.8 6.4-4.2 0-8.3-1.7-11.3-4.7S8 52.2 8 48c0-4.2 1.7-8.3 4.7-11.3S19.8 32 24 32h48zM28 44v-4c0-1.1-.4-2.1-1.2-2.8-.7-.8-1.7-1.2-2.8-1.2-1.1 0-2.1.4-2.8 1.2-.8.7-1.2 1.7-1.2 2.8v4h-4c-1.1 0-2.1.4-2.8 1.2-.8.7-1.2 1.7-1.2 2.8 0 1.1.4 2.1 1.2 2.8.7.8 1.7 1.2 2.8 1.2h4v4c0 1.1.4 2.1 1.2 2.8.7.8 1.7 1.2 2.8 1.2 1.1 0 2.1-.4 2.8-1.2.8-.7 1.2-1.7 1.2-2.8v-4h4c1.1 0 2.1-.4 2.8-1.2.8-.7 1.2-1.7 1.2-2.8 0-1.1-.4-2.1-1.2-2.8-.7-.8-1.7-1.2-2.8-1.2h-4zm44-4c0-2.208 1.792-4 4-4s4 1.792 4 4-1.792 4-4 4-4-1.792-4-4zm-12 0c0-2.208 1.792-4 4-4s4 1.792 4 4-1.792 4-4 4-4-1.792-4-4zm0 12c0-2.208 1.792-4 4-4s4 1.792 4 4-1.792 4-4 4-4-1.792-4-4zm12 0c0-2.208 1.792-4 4-4s4 1.792 4 4-1.792 4-4 4-4-1.792-4-4z" fill-rule="evenodd"/></svg>