<svg xmlns="http://www.w3.org/2000/svg" style="isolation:isolate" width="96" height="96"><path d="M52 36h32v-8H52v8zm-8 0H12v-8h32v8zm0 48H20V44h24v40zm8 0h24V44H52v40zm17.233-64H84c2.1 0 4.2.8 5.7 2.3 1.5 1.5 2.3 3.6 2.3 5.7v8c0 2.1-.8 4.2-2.3 5.7-1.5 1.5-3.6 2.3-5.7 2.3v40c0 2.1-.8 4.2-2.3 5.7-1.5 1.5-3.6 2.3-5.7 2.3H20c-2.1 0-4.2-.8-5.7-2.3-1.5-1.5-2.3-3.6-2.3-5.7V44c-2.1 0-4.2-.8-5.7-2.3C4.8 40.2 4 38.1 4 36v-8c0-2.1.8-4.2 2.3-5.7C7.8 20.8 9.9 20 12 20h16.595a11.94 11.94 0 0 1-1.495-5.8c0-3.2 1.2-6.3 3.5-8.5 2.2-2.3 5.3-3.5 8.5-3.5s6.2 1.2 8.5 3.5c.483.483.936.99 1.347 1.527A16.02 16.02 0 0 1 50.3 5.7c2.2-2.3 5.3-3.5 8.5-3.5 3.1 0 6.2 1.2 8.4 3.5 2.3 2.2 3.6 5.3 3.6 8.5 0 2.016-.55 4.032-1.567 5.8zm-14.43 0q-1.403 0-1.703-.2-.099-.296-.2-1.6c.015-2.78 1.113-4.914 3-6.9.8-.7 1.8-1.1 2.9-1.1 1 0 2 .4 2.8 1.1.7.8 1.2 1.8 1.2 2.9 0 1-.5 2-1.2 2.8-1.832 1.832-4.252 2.909-6.798 3zm-11.707 0a10.343 10.343 0 0 1-6.896-3c-.7-.8-1.1-1.8-1.1-2.8 0-1.1.4-2.1 1.1-2.9.8-.7 1.8-1.1 2.9-1.1 1 0 2.1.4 2.8 1.1 1.864 1.864 2.947 4.337 3.006 6.932q-.105 1.416-.206 1.568-.3.2-1.604.2z" fill-rule="evenodd"/></svg>