<svg xmlns="http://www.w3.org/2000/svg" width="96" height="96"><path d="M4.247 40.99L.3 31.12c-.4-1-.4-2.1 0-3.1s1.2-1.7 2.2-2.1c1-.4 2.1-.4 3.1 0s1.7 1.2 2.1 2.2l2.521 6.305a8.425 8.425 0 0 1 2.24-.304h24.171c2.115 0 4.13.806 5.64 2.316a7.585 7.585 0 0 1 1.93 2.625l.698-.341q1.86-.7 3.1-.7t3.1.7l1.09.534c.416-1.273 1.145-2.43 2.131-3.417 1.613-1.41 3.629-2.217 5.745-2.217h24.192c.599 0 1.19.064 1.766.19l2.276-5.69c.4-1 1.1-1.8 2.1-2.2 1-.4 2.1-.4 3.1 0s1.8 1.1 2.2 2.1c.4 1 .4 2.1 0 3.1l-3.434 8.584a8.03 8.03 0 0 1 .257 1.677c.303 4.032.101 7.963-.504 11.894a26.782 26.782 0 0 1-2.721 7.66c-1.613 2.722-4.032 5.04-6.854 6.452-3.226 1.714-6.754 2.52-10.282 2.52-3.528 0-7.056-.806-10.281-2.42a16.888 16.888 0 0 1-6.754-6.551c-1.41-2.318-2.318-4.94-2.822-7.66a55.185 55.185 0 0 1-.568-5.43Q49.637 46.22 48 46.22q-1.348 0-3.009 1.102a46.84 46.84 0 0 1-.704 6.438c-.403 2.72-1.31 5.338-2.72 7.654a16.875 16.875 0 0 1-6.748 6.547 22.975 22.975 0 0 1-10.273 2.417 22.67 22.67 0 0 1-10.273-2.417c-2.82-1.51-5.237-3.727-6.849-6.446-1.31-2.417-2.316-5.036-2.72-7.755a57.824 57.824 0 0 1-.603-11.784c.031-.333.08-.662.146-.988zm55.517.896H84.56c.202 3.427 0 6.754-.504 10.08-.302 1.714-.907 3.427-1.814 4.939-.806 1.411-2.016 2.62-3.528 3.326-2.016 1.11-4.233 1.613-6.552 1.613-2.318 0-4.536-.504-6.552-1.613-1.512-.705-2.721-1.915-3.528-3.326a13.858 13.858 0 0 1-1.814-4.939c-.504-3.326-.706-6.653-.504-10.08zm-47.606.594h24.676c.201 3.324.1 6.648-.504 9.971-.201 1.713-.806 3.425-1.712 4.936-.806 1.41-2.014 2.618-3.525 3.323-2.015 1.108-4.331 1.612-6.547 1.612-2.316 0-4.532-.504-6.647-1.511a10.112 10.112 0 0 1-3.525-3.324c-.806-1.611-1.41-3.223-1.712-4.935-.504-3.324-.706-6.748-.504-10.072z" fill-rule="evenodd"/></svg>