<svg xmlns="http://www.w3.org/2000/svg" style="isolation:isolate" width="96" height="96"><path d="M28.008 18.066c0 .045-.004.09-.008.134-.5 7.8-.3 15.5.5 23.2.5 4.5 1.6 8.9 3.2 13.1a44.449 44.449 0 0 0 2.907 6.172c1.901-.063 3.8-.196 5.693-.372 4.9-.5 9.6-1.8 14-3.9 4.1-2 7.8-4.7 11.1-7.9.308-.308.615-.619.918-.933A87.172 87.172 0 0 0 64.3 41.5c-1.6-4.2-3.6-8.2-6-12-3.683-6.009-7.741-11.924-12.086-17.47a36.259 36.259 0 0 0-18.206 6.036zm11.784 50.339c3.98 5.233 8.38 10.166 13.008 14.795.145.127.277.264.389.413a36.213 36.213 0 0 0 17.704-7.817c-.481-6.478-1.324-12.888-2.464-19.292-3.193 2.839-6.807 5.213-10.729 7.096-5.2 2.5-10.8 4.1-16.6 4.7a82.26 82.26 0 0 1-1.308.105zm2.214 15.076A132.402 132.402 0 0 1 31.6 70.8a53.166 53.166 0 0 1-1.392-1.993c-3.949.055-7.897-.076-11.845-.376A34.389 34.389 0 0 0 22.5 73.5a36.45 36.45 0 0 0 19.506 9.98zm-16.3-22.703A42.385 42.385 0 0 1 24.3 57.5c-1.9-4.9-3.2-10.1-3.7-15.3a139.91 139.91 0 0 1-.855-16.526C14.761 32.022 12 39.902 12 48c0 4.105.71 8.153 2.049 11.979.149.001.299.007.451.021 3.705.436 7.448.7 11.206.778zm52.43 6.898A36.08 36.08 0 0 0 84 48c0-2.654-.297-5.284-.889-7.841a114.346 114.346 0 0 1-7.928 9.603c.276 1.139.51 2.286.717 3.438a202.768 202.768 0 0 1 2.235 14.476zM4 48c0-11.7 4.6-22.9 12.9-31.1C25.1 8.6 36.3 4 48 4c11.7 0 22.9 4.6 31.1 12.9C87.4 25.1 92 36.3 92 48c0 11.7-4.6 22.9-12.9 31.1C70.9 87.4 59.7 92 48 92c-11.7 0-22.9-4.6-31.1-12.9C8.6 70.9 4 59.7 4 48zm53.115-34.82A36.57 36.57 0 0 1 73.5 22.5a35.61 35.61 0 0 1 6.283 8.643 122.143 122.143 0 0 1-7.26 9.533A76.335 76.335 0 0 0 71.7 38.5c-1.8-4.6-4-9-6.5-13.2-2.55-4.144-5.263-8.166-8.085-12.12z" fill-rule="evenodd"/></svg>