<svg xmlns="http://www.w3.org/2000/svg" style="isolation:isolate" width="96" height="96"><path d="M23.727 74.654A36.47 36.47 0 0 1 22.5 73.5C15.8 66.7 12 57.5 12 48c0-7.132 2.142-14.095 6.044-20H25.5L22 35l-.5 2.3c-.1.3-.1.6-.1.9 0 3 1.7 5.8 4.4 7.2L43 54l1.9.5c.4.1.9.1 1.4.1 1.6-.2 3.1-1 4.2-2.2 1.1-1.3 1.6-2.9 1.5-4.6V44h8c4.1 0 7.8-2.6 9.1-6.5l4.829-14.558C80.362 29.696 84 38.704 84 48c0 9.5-3.8 18.7-10.5 25.5a36.593 36.593 0 0 1-16.273 9.292L53.6 79.6c-1-.9-1.6-2.2-1.6-3.6 0-1.5.6-2.9 1.7-4l2.3-2.3c2.5-2.6 4-6 4-9.5.1-1.7-.4-3.3-1.5-4.6-1.1-1.2-2.6-2-4.2-2.2-.5 0-1 0-1.4.1L51 54l-9.2 4.6C39 60 36.5 61.8 34.3 64L23.727 74.654zm6.553 4.692a36.31 36.31 0 0 0 16.547 4.634A12.622 12.622 0 0 1 44 76c0-3.6 1.4-7.1 4-9.7l2.3-2.3c.4-.3.7-.7.9-1.1l-5.8 2.9c-2 1-3.8 2.3-5.4 3.9l-9.72 9.646zM25.314 20c6.42-5.137 14.44-8 22.686-8 6.833 0 13.51 1.966 19.25 5.562L61.5 34.9c-.2.7-.8 1.1-1.5 1.1h-8c-2.1 0-4.2.8-5.7 2.3-1.5 1.5-2.3 3.6-2.3 5.7v1.5l-14.5-7.2.1-.5L34 29l.5-1.9c.1-.4.1-.9.1-1.4-.2-1.6-1-3.1-2.2-4.2-1.3-1.1-2.9-1.6-4.6-1.5h-2.486zm48.837-7.389C66.657 7.028 57.493 4 48 4 36.3 4 25.1 8.6 16.9 16.9 8.6 25.1 4 36.3 4 48c0 11.7 4.6 22.9 12.9 31.1C25.1 87.4 36.3 92 48 92c11.7 0 22.9-4.6 31.1-12.9C87.4 70.9 92 59.7 92 48c0-11.7-4.6-22.9-12.9-31.1-1.436-1.453-4.813-4.212-4.949-4.289z" fill-rule="evenodd"/></svg>