<svg xmlns="http://www.w3.org/2000/svg" style="isolation:isolate" width="96" height="96"><path d="M58.177 32.167A21.76 21.76 0 0 0 40.4 28.163a12.662 12.662 0 0 0-5.657 3.253q-.14.141-3.04 4.03l-2.687 3.536-1.202 1.06c-1.91.92-3.89 1.485-5.94 1.556-4.03-.07-7.92 1.414-11.03 3.96l-.85.848c-4.171 5.02-5.585 11.809-3.747 18.032 1.768 6.01 5.091 11.455 9.617 15.697 4.242 4.526 9.687 7.85 15.697 9.617 6.223 1.838 13.011.424 18.032-3.748l.848-.848c2.546-3.112 4.03-7 3.96-11.031.07-2.05.636-4.03 1.556-5.94l1.06-1.202 3.536-2.687q3.889-2.9 4.03-3.04a12.662 12.662 0 0 0 3.253-5.657 21.76 21.76 0 0 0-4.004-17.776l25.57-25.57c.779-.778 1.203-1.768 1.132-2.828.07-1.061-.353-2.051-1.131-2.829s-1.768-1.202-2.829-1.131c-1.06-.07-2.05.353-2.828 1.131l-25.57 25.57zm-3.042 8.003a13.755 13.755 0 0 0-12.895-4.23c-.637.212-1.202.495-1.697.99l-2.404 3.253-3.324 4.455q-2.687 2.12-2.899 2.192c-3.04 1.767-6.435 2.616-9.97 2.757a8.757 8.757 0 0 0-5.798 1.98l-.142.142c-2.404 2.828-3.182 6.859-2.121 10.465 1.414 4.667 4.03 8.98 7.637 12.303 3.323 3.607 7.636 6.223 12.303 7.637 3.606 1.06 7.637.283 10.465-2.121l.142-.142a8.757 8.757 0 0 0 1.98-5.798c.141-3.535.99-6.93 2.757-9.97q.071-.212 2.192-2.9l4.455-3.323 3.253-2.404c.495-.495.778-1.06.99-1.697a13.755 13.755 0 0 0-4.229-12.895 8.416 8.416 0 0 1-.695-.695zm-13.814 6.024a6.003 6.003 0 0 1 8.485 0 6.003 6.003 0 0 1 0 8.485 6.003 6.003 0 0 1-8.485 0 6.003 6.003 0 0 1 0-8.485zm-16.971 19.8c-.778-.779-1.202-1.769-1.131-2.83-.071-1.06.353-2.05 1.131-2.828s1.768-1.202 2.828-1.131c1.061-.07 2.051.353 2.829 1.131l5.657 5.657c.778.778 1.202 1.768 1.131 2.829.07 1.06-.353 2.05-1.131 2.828s-1.768 1.202-2.829 1.131c-1.06.071-2.05-.353-2.828-1.131l-5.657-5.657z" fill-rule="evenodd"/></svg>