<svg xmlns="http://www.w3.org/2000/svg" style="isolation:isolate" width="96" height="96"><path d="M4.247 63.368L.3 53.5c-.4-1-.4-2.1 0-3.1s1.2-1.7 2.2-2.1c1-.4 2.1-.4 3.1 0s1.7 1.2 2.1 2.2l2.521 6.304a8.425 8.425 0 0 1 2.24-.304h24.171c2.115 0 4.13.806 5.64 2.317a7.585 7.585 0 0 1 1.93 2.624l.698-.341q1.86-.7 3.1-.7t3.1.7l1.09.534c.416-1.273 1.145-2.43 2.131-3.416C55.934 56.806 57.95 56 60.066 56h24.192c.599 0 1.19.065 1.766.19L88.3 50.5c.4-1 1.1-1.8 2.1-2.2 1-.4 2.1-.4 3.1 0s1.8 1.1 2.2 2.1c.4 1 .4 2.1 0 3.1l-3.434 8.584a8.04 8.04 0 0 1 .257 1.677c.303 4.032.101 7.963-.504 11.894a26.782 26.782 0 0 1-2.721 7.661c-1.613 2.722-4.032 5.04-6.854 6.451-3.226 1.714-6.754 2.52-10.282 2.52-3.528 0-7.056-.806-10.281-2.42a16.888 16.888 0 0 1-6.754-6.55c-1.41-2.32-2.318-4.94-2.822-7.662a55.185 55.185 0 0 1-.568-5.429Q49.637 68.6 48 68.6q-1.348 0-3.009 1.102a46.84 46.84 0 0 1-.704 6.438c-.403 2.72-1.31 5.338-2.72 7.654a16.875 16.875 0 0 1-6.748 6.547 22.975 22.975 0 0 1-10.273 2.417c-3.626 0-7.05-.805-10.273-2.417-2.82-1.51-5.237-3.726-6.849-6.446-1.31-2.417-2.316-5.036-2.72-7.755a57.824 57.824 0 0 1-.603-11.784c.031-.332.08-.662.146-.988zm55.517.897H84.56c.202 3.427 0 6.754-.504 10.08-.302 1.714-.907 3.427-1.814 4.94-.806 1.41-2.016 2.62-3.528 3.326-2.016 1.108-4.233 1.612-6.552 1.612-2.318 0-4.536-.504-6.552-1.612-1.512-.706-2.721-1.916-3.528-3.327a13.858 13.858 0 0 1-1.814-4.939c-.504-3.326-.706-6.653-.504-10.08zm-47.606.595h24.676c.201 3.323.1 6.647-.504 9.97-.201 1.713-.806 3.425-1.712 4.936-.806 1.41-2.014 2.618-3.525 3.323-2.015 1.108-4.331 1.612-6.547 1.612-2.316 0-4.532-.504-6.647-1.51a10.112 10.112 0 0 1-3.525-3.325c-.806-1.611-1.41-3.222-1.712-4.935-.504-3.323-.706-6.748-.504-10.071zM80.25 44H84c1.1 0 2.1-.4 2.8-1.2.8-.7 1.2-1.7 1.2-2.8 0-1.1-.4-2.1-1.2-2.8-.7-.8-1.7-1.2-2.8-1.2h-1.5L69.4 9.8c-1.2-2.4-3.434-4.033-6.4-4.1-1.888-.042-4.3 1.2-4.6 1.5-2.2 1.6-4.6 3-7.1 4.1-1 .5-2.2.7-3.3.7-1.1 0-2.3-.2-3.3-.7q-2.5-1.1-7.1-4.1-2.712-1.542-4.6-1.5c-2.966.067-5.2 1.7-6.4 4.1L13.5 36H12c-1.1 0-2.1.4-2.8 1.2-.8.7-1.2 1.7-1.2 2.8 0 1.1.4 2.1 1.2 2.8.7.8 1.7 1.2 2.8 1.2h3.75c.134.006.268.006.402 0h63.696c.134.006.268.006.402 0zm-57.76-8h51.02L62.6 14.1c-2.5 1.8-5.2 3.3-8.1 4.5a15.802 15.802 0 0 1-13 0c-2.9-1.2-5.6-2.7-8.1-4.5L22.49 36z" fill-rule="evenodd"/></svg>