<svg xmlns="http://www.w3.org/2000/svg" style="isolation:isolate" width="96" height="96"><path d="M21.127 40.685l-7.778 7.778-2.687 2.687s-.778 1.768-.849 3.677q-.07 1.768.87 3.312c.573.943 1.719 2.293 2.555 3.013q9.05 7.787 16.798 12.06c7.822 4.314 14.001 5.94 21.284 8.415 7.142 2.333 14.637 3.747 22.133 4.313 4.03.212 7.824.024 11.596-2.687.7-.503 1.126-.769 1.697-1.414 1.366-1.543 1.91-3.04 1.839-4.95 0-1.838-.849-3.536-2.121-4.808L26.784 12.4c-1.485-1.485-3.536-2.404-5.657-2.404s-4.172.919-5.657 2.404l-5.657 5.657c-1.485 1.485-2.404 3.535-2.404 5.657 0 2.12.92 4.172 2.404 5.656l11.314 11.314zm5.657-5.657l5.657-5.657-11.314-11.313-5.657 5.657 11.314 11.313zM73.948 77.95a84.237 84.237 0 0 1-20.082-3.96c-7-2.334-13.037-3.8-20.506-8.061q-6.338-3.616-14.99-11.172l19.727-19.729 41.79 41.79q-3.889 1.202-5.94 1.132z" fill-rule="evenodd"/></svg>