<svg xmlns="http://www.w3.org/2000/svg" width="96" height="96"><path d="M16.5 24h63c2.3 0 4.4.9 6 2.5 1.6 1.6 2.5 3.7 2.5 6v39c0 2.3-.9 4.4-2.5 6-1.6 1.6-3.7 2.5-6 2.5h-63c-2.3 0-4.4-.9-6-2.5-1.6-1.6-2.5-3.7-2.5-6v-39c0-2.3.9-4.4 2.5-6 1.6-1.6 3.7-2.5 6-2.5zm0 8h63c.3 0 .5.2.5.5v39c0 .3-.2.5-.5.5h-63c-.2 0-.3 0-.4-.1-.1-.1-.1-.2-.1-.4v-39c0-.3.2-.5.5-.5zM4 96c-1.1 0-2.1-.4-2.8-1.2C.4 94.1 0 93.1 0 92c0-1.1.4-2.1 1.2-2.8.7-.8 1.7-1.2 2.8-1.2h88c1.1 0 2.1.4 2.8 1.2.8.7 1.2 1.7 1.2 2.8 0 1.1-.4 2.1-1.2 2.8-.7.8-1.7 1.2-2.8 1.2H4z" fill-rule="evenodd"/></svg>