<svg xmlns="http://www.w3.org/2000/svg" width="96" height="96"><path d="M44 64c0-3.8-1.7-7.3-4.7-9.6-3.7-2.9-6.9-6.5-9.3-10.6-1.4-2.3-2.1-5-2-7.7.1-5.3 2.2-10.4 5.9-14.1 3.8-3.7 8.8-5.9 14.1-6 5.3.1 10.3 2.3 14.1 6 3.7 3.8 5.8 8.8 5.9 14.1.1 2.7-.6 5.4-2 7.7-2.4 4.1-5.6 7.7-9.3 10.6-3 2.3-4.7 5.8-4.7 9.6h-8zm0 8v8h8v-8h-8zm4-64c-7.4.1-14.4 3.1-19.7 8.3-5.2 5.2-8.2 12.3-8.3 19.6-.1 4.2 1 8.4 3.1 12 2.9 4.9 6.8 9.3 11.3 12.8 1 .8 1.6 2 1.6 3.3v16c0 2.1.8 4.2 2.3 5.7 1.5 1.5 3.6 2.3 5.7 2.3h8c2.1 0 4.2-.8 5.7-2.3 1.5-1.5 2.3-3.6 2.3-5.7V64c0-1.3.6-2.5 1.6-3.3 4.5-3.5 8.4-7.9 11.3-12.8 2.1-3.6 3.2-7.8 3.1-12-.1-7.4-3.1-14.4-8.3-19.6C62.4 11.1 55.4 8.1 48 8z" fill-rule="evenodd"/></svg>