<svg xmlns="http://www.w3.org/2000/svg" style="isolation:isolate" width="96" height="96"><path d="M12 68h16V52.1c-.3-6.1 1.5-12 5.1-17 3.6-4.5 9.1-7.2 14.9-7.1 5.8-.1 11.3 2.6 14.9 7.1 3.6 5 5.4 10.9 5.1 17V68h16V48c0-9.5-3.8-18.7-10.5-25.5C66.7 15.8 57.5 12 48 12s-18.7 3.8-25.5 10.5C15.8 29.3 12 38.5 12 48v20zm16 8H12v8h16v-8zm56 0v8H68v-8h16zM36 51.8V84c0 2.1-.8 4.2-2.3 5.7-1.5 1.5-3.6 2.3-5.7 2.3H12c-2.1 0-4.2-.8-5.7-2.3C4.8 88.2 4 86.1 4 84V48c0-11.7 4.6-22.9 12.9-31.1C25.1 8.6 36.3 4 48 4c11.7 0 22.9 4.6 31.1 12.9C87.4 25.1 92 36.3 92 48v36c0 2.1-.8 4.2-2.3 5.7-1.5 1.5-3.6 2.3-5.7 2.3H68c-2.1 0-4.2-.8-5.7-2.3-1.5-1.5-2.3-3.6-2.3-5.7V51.8c.2-4.2-1-8.4-3.4-11.8-2.1-2.6-5.3-4.1-8.6-4-3.3-.1-6.5 1.4-8.6 4-2.4 3.4-3.6 7.6-3.4 11.8z" fill-rule="evenodd"/></svg>