<svg xmlns="http://www.w3.org/2000/svg" width="96" height="96"><path d="M9 41c0-10.3 4.1-20.3 11.4-27.6C27.7 6.1 37.7 2 48 2s20.3 4.1 27.6 11.4C82.9 20.7 87 30.7 87 41c0 4-.8 8-2.4 11.6-2.5 5.6-5.6 10.8-9.3 15.6-3 3.8-6.2 7.4-9.6 10.9-5.6 5.6-11.5 11-17.7 16.1-5.9-4.9-11.6-10-17-15.4-3.3-3.3-6.5-6.8-9.4-10.5-4-5-7.4-10.4-10-16.3C9.9 49.3 9 45.2 9 41zm8 0c0-8.2 3.3-16.1 9.1-21.9C31.9 13.3 39.8 10 48 10s16.1 3.3 21.9 9.1C75.7 24.9 79 32.8 79 41c0 2.9-.6 5.8-1.8 8.4-2.1 5-4.9 9.6-8.2 13.9-2.8 3.5-5.8 6.9-8.9 10.1-3.9 3.9-7.9 7.7-12.1 11.3-3.9-3.4-7.7-6.9-11.4-10.6-3.1-3.1-6-6.3-8.8-9.8-3.5-4.4-6.5-9.3-8.9-14.6C17.6 47 17 44 17 41zm15-3c0-4.2 1.7-8.3 4.7-11.3S43.8 22 48 22c4.2 0 8.3 1.7 11.3 4.7S64 33.8 64 38c0 4.2-1.7 8.3-4.7 11.3S52.2 54 48 54c-4.2 0-8.3-1.7-11.3-4.7S32 42.2 32 38zm8 0c0-2.1.8-4.2 2.3-5.7 1.5-1.5 3.6-2.3 5.7-2.3s4.2.8 5.7 2.3c1.5 1.5 2.3 3.6 2.3 5.7s-.8 4.2-2.3 5.7C52.2 45.2 50.1 46 48 46s-4.2-.8-5.7-2.3C40.8 42.2 40 40.1 40 38z" fill-rule="evenodd"/></svg>