<svg xmlns="http://www.w3.org/2000/svg" style="isolation:isolate" width="96" height="96"><path d="M40 8h16c2.1 0 4.2.8 5.7 2.3 1.5 1.5 2.3 3.6 2.3 5.7v16h16c2.1 0 4.2.8 5.7 2.3 1.5 1.5 2.3 3.6 2.3 5.7v16c0 2.1-.8 4.2-2.3 5.7-1.5 1.5-3.6 2.3-5.7 2.3H64v16c0 2.1-.8 4.2-2.3 5.7-1.5 1.5-3.6 2.3-5.7 2.3H40c-2.1 0-4.2-.8-5.7-2.3-1.5-1.5-2.3-3.6-2.3-5.7V64H16c-2.1 0-4.2-.8-5.7-2.3C8.8 60.2 8 58.1 8 56V40c0-2.1.8-4.2 2.3-5.7 1.5-1.5 3.6-2.3 5.7-2.3h16V16c0-2.1.8-4.2 2.3-5.7C35.8 8.8 37.9 8 40 8zm0 8h16v24h24v16H56v24H40V56H16V40h24V16z" fill-rule="evenodd"/></svg>