<svg xmlns="http://www.w3.org/2000/svg" style="isolation:isolate" width="96" height="96"><path d="M28 69.74l-1.7-.64c-2-.7-4.1-1.1-6.3-1.1h-8c-2.1 0-4.2-.8-5.7-2.3C4.8 64.2 4 62.1 4 60V36c0-2.1.8-4.2 2.3-5.7C7.8 28.8 9.9 28 12 28h8c2.2 0 4.3-.4 6.3-1.1L83.2 5.5q1.52-.364 2.5-.3c1.986.13 3.4.9 4.6 2.2 1.2 1.3 1.8 3 1.7 4.7v71.8c.1 1.7-.5 3.4-1.7 4.7-1.2 1.3-2.614 2.07-4.6 2.2q-.98.064-2.5-.3L60 81.775V83.9c.1 1.8-.6 3.5-1.8 4.8-1.2 1.4-2.9 2.1-4.7 2.2q-.2 0-2.3-.3l-16.7-5.5c-3.9-1.3-6.5-5-6.5-9.1v-6.26zm8 3.008l16 6.018V82.5l-14.9-5c-.7-.2-1.1-.8-1.1-1.5v-3.252zM84 13.8L29.1 34.3c-2.9 1.1-6 1.7-9.1 1.7h-8v24h8c3.1 0 6.2.6 9.1 1.7L84 82.2V13.8z" fill-rule="evenodd"/></svg>