<svg xmlns="http://www.w3.org/2000/svg" style="isolation:isolate" width="96" height="96"><path d="M13.4 6.2c6.4 3.2 13.2 5.9 20.2 7.8 4.7 1.3 9.5 2 14.4 2 5.6 0 11.2.8 16.6 2.3 7.4 2.1 14.7 4.9 21.6 8.3C89.8 28.4 92 32 92 36v47.8c.1 1.7-.4 3.3-1.5 4.6-1.1 1.2-2.358 2.026-4.2 2.2-1.47.139-3.4-.7-3.7-.8-6.4-3.2-13.2-5.9-20.2-7.8-4.7-1.3-9.5-2-14.4-2-5.6 0-11.2-.8-16.6-2.3-7.4-2.1-14.7-4.9-21.6-8.3C6.2 67.6 4 64 4 60V12.2c-.1-1.7.4-3.3 1.5-4.6 1.1-1.2 2.358-2.026 4.2-2.2 1.47-.139 3.4.7 3.7.8zM12 14.4c6.3 3 12.8 5.5 19.4 7.3 5.4 1.5 11 2.3 16.6 2.3 4.9 0 9.7.7 14.4 2 7 1.9 13.8 4.6 20.2 7.8.9.4 1.4 1.3 1.4 2.2v45.6c-6.3-3-12.8-5.5-19.4-7.3-5.4-1.5-11-2.3-16.6-2.3-4.9 0-9.7-.7-14.4-2-7-1.9-13.8-4.6-20.2-7.8-.9-.4-1.4-1.3-1.4-2.2V14.4zM36 48c.1-3.5 1.1-6.9 3-9.8 1.5-3.4 5-5.9 9-6.2 4 .3 7.5 2.8 9.2 6.5 1.8 2.8 2.7 6.1 2.8 9.5-.1 3.4-1 6.7-2.8 9.5-1.7 3.7-5.2 6.2-9.2 6.5-4-.3-7.5-2.8-9.2-6.5-1.8-2.8-2.7-6.1-2.8-9.5zm8 0c.1-2 .7-3.9 1.7-5.5.5-1.3 1.3-2.1 2.3-2.4 1 .3 1.8 1.1 2.1 2.1 1.1 1.7 1.8 3.7 1.9 5.8-.1 2.1-.8 4.1-1.9 5.8-.3 1-1.1 1.8-2.1 2.1-1-.3-1.8-1.1-2.1-2.1-1.1-1.7-1.8-3.7-1.9-5.8z" fill-rule="evenodd"/></svg>