<svg xmlns="http://www.w3.org/2000/svg" style="isolation:isolate" width="96" height="96"><path d="M40 4h16c5.3 0 10.4 2.1 14.1 5.9C73.9 13.6 76 18.7 76 24v48c0 5.3-2.1 10.4-5.9 14.1C66.4 89.9 61.3 92 56 92H40c-5.3 0-10.4-2.1-14.1-5.9C22.1 82.4 20 77.3 20 72V24c0-5.3 2.1-10.4 5.9-14.1C29.6 6.1 34.7 4 40 4zm0 8h16c3.2 0 6.2 1.3 8.5 3.5 2.2 2.3 3.5 5.3 3.5 8.5v48c0 3.2-1.3 6.2-3.5 8.5-2.3 2.2-5.3 3.5-8.5 3.5H40c-3.2 0-6.2-1.3-8.5-3.5-2.2-2.3-3.5-5.3-3.5-8.5V24c0-3.2 1.3-6.2 3.5-8.5 2.3-2.2 5.3-3.5 8.5-3.5zm4 12c0-1.1.4-2.1 1.2-2.8.7-.8 1.7-1.2 2.8-1.2 1.1 0 2.1.4 2.8 1.2.8.7 1.2 1.7 1.2 2.8v8c0 1.1-.4 2.1-1.2 2.8-.7.8-1.7 1.2-2.8 1.2-1.1 0-2.1-.4-2.8-1.2-.8-.7-1.2-1.7-1.2-2.8v-8z" fill-rule="evenodd"/></svg>