<svg xmlns="http://www.w3.org/2000/svg" style="isolation:isolate" width="96" height="96"><path d="M68 76H12V20h56v56zm8-7.194C83.28 64.599 88 56.704 88 48s-4.72-16.599-12-20.806v41.612zM75.8 18.3C75 14.6 71.7 12 68 12H12c-2.1 0-4.2.8-5.7 2.3C4.8 15.8 4 17.9 4 20v56c0 2.1.8 4.2 2.3 5.7C7.8 83.2 9.9 84 12 84h56c3.7 0 7-2.6 7.8-6.3C88 72.9 96 61.1 96 48c0-13.1-8-24.9-20.2-29.7zM48 32v30c0 .42-.058.825-.17 1.206-.457 2.33-1.765 4.427-3.73 5.794-2.3 1.9-5.1 3-8.1 3s-5.8-1.1-8.1-3c-2.3-1.6-3.7-4.2-3.9-7 .2-2.9 1.7-5.5 4.1-7.2C30.2 53.1 33 52 36 52c1.386 0 2.73.235 4 .675V28c0-1.1.4-2.1 1.2-2.8.7-.8 1.7-1.2 2.8-1.2h8c1.1 0 2.1.4 2.8 1.2.8.7 1.2 1.7 1.2 2.8 0 1.1-.4 2.1-1.2 2.8-.7.8-1.7 1.2-2.8 1.2h-4zM36 64c1.2 0 3.9-.29 3.9-2s-2.7-2-3.9-2c-1.2 0-3.9.29-3.9 2s2.7 2 3.9 2z" fill-rule="evenodd"/></svg>