<svg xmlns="http://www.w3.org/2000/svg" style="isolation:isolate" width="96" height="96"><path d="M44 52c-2.1 0-4.2.8-5.7 2.3-1.5 1.5-2.3 3.6-2.3 5.7v24c0 2.1.8 4.2 2.3 5.7 1.5 1.5 3.6 2.3 5.7 2.3h8c2.1 0 4.2-.8 5.7-2.3 1.5-1.5 2.3-3.6 2.3-5.7V60c0-2.1-.8-4.2-2.3-5.7-1.5-1.5-3.6-2.3-5.7-2.3 0-.9.5-1.8 1.4-2.2l24.8-12.4C81.8 35.6 84 32 84 28v-8c0-2.1-.8-4.2-2.3-5.7-1.5-1.5-3.6-2.3-5.7-2.3V8c0-2.1-.8-4.2-2.3-5.7C72.2.8 70.1 0 68 0H20c-2.1 0-4.2.8-5.7 2.3C12.8 3.8 12 5.9 12 8v12c0 2.1.8 4.2 2.3 5.7 1.5 1.5 3.6 2.3 5.7 2.3h48c2.1 0 4.2-.8 5.7-2.3 1.5-1.5 2.3-3.6 2.3-5.7v8c0 .9-.5 1.8-1.4 2.2L49.8 42.6C46.2 44.4 44 48 44 52zm0 32h8V60h-8v24zM68 8H20v12h48V8z" fill-rule="evenodd"/></svg>