<svg xmlns="http://www.w3.org/2000/svg" width="96" height="96"><path d="M71.547 92.194c-6.576-.07-13.082-1.768-18.95-4.95-9.193-5.09-17.608-11.384-25.032-18.809-7.425-7.424-13.718-15.839-18.81-25.031-3.181-5.87-4.878-12.375-4.95-18.95 0-3.678 1.415-7.213 3.96-9.759l8.486-8.485c1.485-1.485 3.535-2.404 5.657-2.404 2.121 0 4.172.92 5.657 2.404l11.313 11.314c1.485 1.485 2.404 3.535 2.404 5.657 0 2.12-.919 4.171-2.404 5.656l-5.657 5.657a2.332 2.332 0 0 0-.565 2.404c.565 1.273 1.202 2.475 2.05 3.607 3.112 3.818 6.364 7.495 9.83 10.96 3.464 3.465 7.141 6.717 10.96 9.829 1.13.848 2.333 1.485 3.606 2.05.848.283 1.767.07 2.404-.565l5.657-5.657c1.485-1.485 3.535-2.404 5.656-2.404 2.122 0 4.172.919 5.657 2.404L89.79 68.435c1.485 1.485 2.404 3.536 2.404 5.657 0 2.122-.92 4.172-2.404 5.657l-8.485 8.485c-2.546 2.546-6.081 3.96-9.758 3.96zm.141-8.06a31.57 31.57 0 0 1-15.203-3.89C47.93 75.506 40.08 69.637 33.221 62.78c-6.858-6.86-12.727-14.708-17.465-23.264a31.57 31.57 0 0 1-3.89-15.203c-.07-1.485.496-2.9 1.556-3.96l8.486-8.485L33.22 23.18l-5.656 5.656a10.266 10.266 0 0 0-2.405 10.748c.778 2.192 1.839 4.102 3.324 5.87a135.988 135.988 0 0 0 10.394 11.667 135.988 135.988 0 0 0 11.668 10.394c1.767 1.485 3.677 2.546 5.869 3.324a10.266 10.266 0 0 0 10.748-2.405l5.656-5.656 11.314 11.313-8.485 8.486c-1.06 1.06-2.475 1.626-3.96 1.555z" fill-rule="evenodd"/></svg>