<svg xmlns="http://www.w3.org/2000/svg" style="isolation:isolate" width="96" height="96"><path d="M29.227 72.43l16.688 16.687c1.768 2.334 4.95 2.97 7.425 1.485.919-.495 1.555-1.273 1.838-2.263l.707-2.404V70.803c0-1.556.566-2.97 1.627-4.03l22.627-22.628c1.06-1.06 2.475-1.626 4.03-1.626q6.92.537 8.486-2.546c1.338-2.635.763-5.507-1.485-7.424L63.451 4.83c-1.917-2.248-4.79-2.823-7.424-1.485Q52.944 4.91 53.48 11.83c0 1.556-.565 2.97-1.626 4.03L29.227 38.489c-1.06 1.06-2.474 1.627-4.03 1.627H10.065l-2.404.707c-.99.283-1.768.919-2.263 1.838-1.485 2.475-.849 5.657 1.485 7.425L23.57 66.773 3.77 86.572c-.777.777-1.201 1.767-1.13 2.828-.071 1.06.353 2.05 1.13 2.828.778.778 1.768 1.202 2.83 1.132 1.06.07 2.05-.354 2.827-1.132l19.8-19.799zm-12.94-24.254l31.537 31.537v-8.91c0-3.677 1.485-7.142 4.03-9.687l22.628-22.628c2.05-2.05 4.667-3.394 7.496-3.818L61.33 14.022c-.424 2.829-1.768 5.445-3.818 7.496L34.884 44.145a13.699 13.699 0 0 1-9.687 4.03h-8.91z" fill-rule="evenodd"/></svg>