<svg xmlns="http://www.w3.org/2000/svg" style="isolation:isolate" width="96" height="96"><path d="M71.499 44q.395-3.535.501-8c0-6.4-2.5-12.5-7-17s-10.6-7-17-7-12.5 2.5-17 7-7 10.6-7 17c0 0 .038 1.582.501 8H71.5zm-1.645 8q-.349.99-.754 1.8c-1.6 2-3.7 3.4-6.2 4.2-4.8 1.5-9.8 2.2-14.9 2-5.1.2-10.1-.5-14.9-2-2.5-.8-4.6-2.2-6.2-4.2-.405-.81-.754-1.8-.754-1.8h43.708zM60 66.993a50.687 50.687 0 0 0 5.3-1.393c4.3-1.3 7.9-4 10.5-7.5Q79.5 51.4 80 36c0-8.5-3.4-16.6-9.4-22.6S56.5 4 48 4c-8.5 0-16.6 3.4-22.6 9.4S16 27.5 16 36q.5 15.4 4.2 22.1c2.6 3.5 6.2 6.2 10.5 7.5a50.687 50.687 0 0 0 5.3 1.393V84c0 2.1.8 4.2 2.3 5.7 1.5 1.5 3.6 2.3 5.7 2.3h8c2.1 0 4.2-.8 5.7-2.3 1.5-1.5 2.3-3.6 2.3-5.7V66.993zm-8 .989c-1.327.057-6.673.057-8 0V84h8V67.982z" fill-rule="evenodd"/></svg>