<svg xmlns="http://www.w3.org/2000/svg" width="96" height="96"><path d="M20 67.7c-1.4.3-2.8.4-4.2.3-3.1-.1-6.1-1.5-8.3-3.7C5.3 62.1 4.1 59.1 4 56c.1-3.1 1.3-6.1 3.5-8.3 2.2-2.2 5.2-3.6 8.3-3.7 1.4-.1 2.8 0 4.2.3V28c0-2.1.8-4.2 2.3-5.7 1.5-1.5 3.6-2.3 5.7-2.3h16.3c-.3-1.4-.4-2.8-.3-4.2.1-3.1 1.5-6.1 3.7-8.3C49.9 5.3 52.9 4.1 56 4c3.1.1 6.1 1.3 8.3 3.5 2.2 2.2 3.6 5.2 3.7 8.3.1 1.4 0 2.8-.3 4.2H84c2.1 0 4.2.8 5.7 2.3 1.5 1.5 2.3 3.6 2.3 5.7v19.7q-1.5 3.6-4.3 4.3c-.9.2-1.9.1-2.8-.3q-3.744-.765-5.7.3c-1.756.956-3.2 2-3.2 4s1.444 3.044 3.2 4q1.956 1.065 5.7.3c.9-.4 1.9-.5 2.8-.3q2.8.7 4.3 4.3V84c0 2.1-.8 4.2-2.3 5.7-1.5 1.5-3.6 2.3-5.7 2.3H64.3q-3.6-1.5-4.3-4.3c-.2-.9-.1-1.9.3-2.8q.765-3.744-.3-5.7c-.956-1.756-2-3.2-4-3.2s-3.044 1.444-4 3.2q-1.065 1.956-.3 5.7c.4.9.5 1.9.3 2.8q-.7 2.8-4.3 4.3H28c-2.1 0-4.2-.8-5.7-2.3-1.5-1.5-2.3-3.6-2.3-5.7V67.7zM67.7 84c.3-1.4.4-2.8.3-4.2-.1-3.1-1.5-6.1-3.7-8.3-2.2-2.2-5.2-3.4-8.3-3.5-3.1.1-6.1 1.3-8.3 3.5-2.2 2.2-3.6 5.2-3.7 8.3-.1 1.4 0 2.8.3 4.2H28V64.3q-1.5-3.6-4.3-4.3c-.9-.2-1.9-.1-2.8.3q-3.744.765-5.7-.3c-1.756-.956-3.2-2-3.2-4s1.444-3.044 3.2-4q1.956-1.065 5.7-.3c.9.4 1.9.5 2.8.3q2.8-.7 4.3-4.3V28h19.7q3.6-1.5 4.3-4.3c.2-.9.1-1.9-.3-2.8q-.72-3.663.3-5.6c.942-1.79 1.976-3.295 4-3.3 2-.005 3.044 1.444 4 3.2q1.065 1.956.3 5.7c-.4.9-.5 1.9-.3 2.8q.7 2.8 4.3 4.3H84v16.3c-1.4-.3-2.8-.4-4.2-.3-3.1.1-6.1 1.5-8.3 3.7-2.2 2.2-3.4 5.2-3.5 8.3.1 3.1 1.3 6.1 3.5 8.3 2.2 2.2 5.2 3.6 8.3 3.7 1.4.1 2.8 0 4.2-.3V84H67.7z" fill-rule="evenodd"/></svg>