<svg xmlns="http://www.w3.org/2000/svg" style="isolation:isolate" width="96" height="96"><path d="M69.1 28H12c-2.1 0-4.2.8-5.7 2.3C4.8 31.8 4 33.9 4 36v48c0 2.1.8 4.2 2.3 5.7C7.8 91.2 9.9 92 12 92h72c2.1 0 4.2-.8 5.7-2.3 1.5-1.5 2.3-3.6 2.3-5.7V36c0-2.1-.8-4.2-2.3-5.7-1.5-1.5-3.6-2.3-5.7-2.3h-6.433L83.8 9.3c.3-1 .3-2.1-.2-3.1-.5-.9-1.3-1.7-2.3-2-1-.3-2.1-.3-3.1.2-.9.5-1.7 1.3-2 2.3L69.1 28zM12 36v48h72V36H12zm28 24c0-5.3 2.1-10.4 5.9-14.1C49.6 42.1 54.7 40 60 40c5.3 0 10.4 2.1 14.1 5.9C77.9 49.6 80 54.7 80 60c0 5.3-2.1 10.4-5.9 14.1C70.4 77.9 65.3 80 60 80c-5.3 0-10.4-2.1-14.1-5.9C42.1 70.4 40 65.3 40 60zm8 0c0-3.2 1.3-6.2 3.5-8.5 2.3-2.2 5.3-3.5 8.5-3.5s6.2 1.3 8.5 3.5c2.2 2.3 3.5 5.3 3.5 8.5s-1.3 6.2-3.5 8.5C66.2 70.7 63.2 72 60 72s-6.2-1.3-8.5-3.5C49.3 66.2 48 63.2 48 60zM20 72c0-2.208 1.792-4 4-4s4 1.792 4 4-1.792 4-4 4-4-1.792-4-4z" fill-rule="evenodd"/></svg>