<svg xmlns="http://www.w3.org/2000/svg" style="isolation:isolate" width="96" height="96"><path d="M62.663 23.585L65.8 17.4C67.2 14.5 68 11.3 68 8c0-2.1-.8-4.2-2.3-5.7C64.2.8 62.1 0 60 0H36c-2.1 0-4.2.8-5.7 2.3C28.8 3.8 28 5.9 28 8c0 3.3.8 6.5 2.2 9.4l3.137 6.185A35.723 35.723 0 0 0 22.5 31C15.8 37.8 12 46.9 12 56.5c0 9.5 3.8 18.7 10.5 25.4 6.8 6.8 16 10.6 25.5 10.6s18.7-3.8 25.5-10.6C80.2 75.2 84 66 84 56.5c0-9.6-3.8-18.7-10.5-25.5a35.723 35.723 0 0 0-10.837-7.415zm-5.255 7.062L53.7 33.7c-1.5 1.6-3.5 2.6-5.7 2.6s-4.2-1-5.7-2.6l-3.708-3.053q-.915-.178-1.492.053c-3.3 1.4-6.3 3.4-8.9 6C23 41.9 20 49.1 20 56.5s3 14.5 8.2 19.8c5.3 5.2 12.4 8.2 19.8 8.2s14.5-3 19.8-8.2C73 71 76 63.9 76 56.5s-3-14.6-8.2-19.8c-2.6-2.6-5.6-4.6-8.9-6q-.577-.23-1.492-.053zM40.3 19.7l-2.9-5.9C36.5 12 36 10 36 8h24c0 2-.5 4-1.4 5.8l-2.9 5.9-7.7 8.4-7.7-8.4z" fill-rule="evenodd"/></svg>