<svg xmlns="http://www.w3.org/2000/svg" width="96" height="96"><path d="M24 16h-8v64h4V64c0-2.1.8-4.2 2.3-5.7 1.5-1.5 3.6-2.3 5.7-2.3h40c2.1 0 4.2.8 5.7 2.3 1.5 1.5 2.3 3.6 2.3 5.7v16h4V32.5c0-1.3-.6-2.6-1.6-3.5L64.8 17.6a8.062 8.062 0 0 0-.8-.542V32c0 2.1-.8 4.2-2.3 5.7-1.5 1.5-3.6 2.3-5.7 2.3H32c-2.1 0-4.2-.8-5.7-2.3-1.5-1.5-2.3-3.6-2.3-5.7V16zm8 0h24v16H32V16zm36 64H28V64h40v16zM16 8h44.3c3.5 0 6.9 1.2 9.6 3.5l13.6 11.4c2.8 2.3 4.5 5.9 4.5 9.6V80c0 2.1-.8 4.2-2.3 5.7-1.5 1.5-3.6 2.3-5.7 2.3H16c-2.1 0-4.2-.8-5.7-2.3C8.8 84.2 8 82.1 8 80V16c0-2.1.8-4.2 2.3-5.7C11.8 8.8 13.9 8 16 8z" fill-rule="evenodd"/></svg>