<svg xmlns="http://www.w3.org/2000/svg" style="isolation:isolate" width="96" height="96"><path d="M33.567 36L39.8 17.3c.3-1 .3-2.1-.2-3.1-.5-.9-1.3-1.7-2.3-2-1-.3-2.1-.3-3.1.2-.9.5-1.7 1.3-2 2.3L25.1 36H12c-2.1 0-4.2.8-5.7 2.3C4.8 39.8 4 41.9 4 44c0 2.9.3 5.8.9 8.7l6.4 32.2C12.1 89 15.8 92 20 92h56c4.2 0 7.9-3 8.7-7.1l6.4-32.2c.6-2.9.9-5.8.9-8.7 0-2.1-.8-4.2-2.3-5.7-1.5-1.5-3.6-2.3-5.7-2.3H70.9l-7.1-21.3c-.3-1-1.1-1.8-2-2.3-1-.5-2.1-.5-3.1-.2s-1.8 1.1-2.3 2c-.5 1-.5 2.1-.2 3.1L62.433 36H33.567zM12 44c0 1.34.062 2.678.204 4h71.592A37.49 37.49 0 0 0 84 44H68.152q-.134.006-56.152 0zm1.674 12h68.652L76.9 83.3c-.1.4-.5.7-.9.7H20c-.4 0-.8-.3-.9-.7L13.674 56z" fill-rule="evenodd"/></svg>