<svg xmlns="http://www.w3.org/2000/svg" style="isolation:isolate" width="96" height="96"><path d="M78.627 64H72.25c-1.5 0-2.9-.6-4-1.7L53.95 48l14.3-14.3c1.1-1.1 2.5-1.7 4-1.7h6.377l-1.177 1.2c-.8.7-1.2 1.7-1.2 2.8 0 1.1.4 2.1 1.2 2.8.7.8 1.7 1.2 2.8 1.2 1.1 0 2.1-.4 2.8-1.2l7.2-7.1q1.5-2.142 1.5-3.7 0-1.558-1.5-3.7l-7.2-7.1c-.7-.8-1.7-1.2-2.8-1.2-1.1 0-2.1.4-2.8 1.2-.8.7-1.2 1.7-1.2 2.8 0 1.1.4 2.1 1.2 2.8l1.177 1.2H72.25c-3.6 0-7.1 1.4-9.7 4l-14.3 14.3L33.95 28c-2.6-2.6-6.1-4-9.7-4h-12c-1.1 0-2.1.4-2.8 1.2-.8.7-1.2 1.7-1.2 2.8 0 1.1.4 2.1 1.2 2.8.7.8 1.7 1.2 2.8 1.2h12c1.5 0 2.9.6 4 1.7L42.55 48l-14.3 14.3c-1.1 1.1-2.5 1.7-4 1.7h-12c-1.1 0-2.1.4-2.8 1.2-.8.7-1.2 1.7-1.2 2.8 0 1.1.4 2.1 1.2 2.8.7.8 1.7 1.2 2.8 1.2h12c3.6 0 7.1-1.4 9.7-4l14.3-14.3L62.55 68c2.6 2.6 6.1 4 9.7 4h6.377l-1.177 1.2c-.8.7-1.2 1.7-1.2 2.8 0 1.1.4 2.1 1.2 2.8.7.8 1.7 1.2 2.8 1.2 1.1 0 2.1-.4 2.8-1.2l7.2-7.1q1.5-2.142 1.5-3.7 0-1.558-1.5-3.7l-7.2-7.1c-.7-.8-1.7-1.2-2.8-1.2-1.1 0-2.1.4-2.8 1.2-.8.7-1.2 1.7-1.2 2.8 0 1.1.4 2.1 1.2 2.8l1.177 1.2z"/></svg>