<svg xmlns="http://www.w3.org/2000/svg" style="isolation:isolate" width="96" height="96"><path d="M44 72v12h8V72h-8zm16 0v12c0 2.1-.8 4.2-2.3 5.7-1.5 1.5-3.6 2.3-5.7 2.3h-8c-2.1 0-4.2-.8-5.7-2.3-1.5-1.5-2.3-3.6-2.3-5.7V72h-7.9c-3.4 0-6.8-1.1-9.6-3.2L9 61.6c-1.9-1.3-3-3.4-3-5.6 0-2.2 1.1-4.3 3-5.6l5.705-4.324a7.406 7.406 0 0 1-.405-.376C12.8 44.2 12 42.1 12 40V24c0-2.1.8-4.2 2.3-5.7 1.5-1.5 3.6-2.3 5.7-2.3h16.001c0-.033.299-3.5.899-5.1.5-1.4 1.3-2.7 2.4-3.7 1-1.1 2.3-1.9 3.8-2.4 1.6-.5 3.2-.8 4.9-.8 1.7 0 3.3.3 4.9.8 1.5.5 2.8 1.3 3.8 2.4 1.1 1 1.9 2.3 2.4 3.7.6 1.6.9 5.067.899 5.1H68c3.5 0 6.8 1.1 9.6 3.2l9.5 7.2c1.9 1.3 3 3.4 3 5.6 0 2.2-1.1 4.3-3 5.6l-5.705 4.324c.14.12.274.245.405.376 1.5 1.5 2.3 3.6 2.3 5.7v16c0 2.1-.8 4.2-2.3 5.7-1.5 1.5-3.6 2.3-5.7 2.3H60zm8-32H20V24h48c1.7 0 3.4.6 4.8 1.6l8.5 6.4-8.5 6.4c-1.4 1-3.1 1.6-4.8 1.6zM14.8 56l8.5 6.4c1.4 1 3.1 1.6 4.8 1.6h48V48h-48c-1.7 0-3.4.6-4.8 1.6L14.8 56zM44 16h8c-.015-.86-.211-1.63-.5-2.4-.1-.3-.9-1.1-1.1-1.2-.8-.3-1.6-.4-2.4-.4-.8 0-1.6.1-2.4.4-.2.1-1 .9-1.1 1.2-.289.77-.485 1.54-.5 2.4z" fill-rule="evenodd"/></svg>