<svg xmlns="http://www.w3.org/2000/svg" style="isolation:isolate" width="96" height="96"><path d="M44 48v36h8V48h-8zm16 0v36c0 2.1-.8 4.2-2.3 5.7-1.5 1.5-3.6 2.3-5.7 2.3h-8c-2.1 0-4.2-.8-5.7-2.3-1.5-1.5-2.3-3.6-2.3-5.7V48H20c-2.1 0-4.2-.8-5.7-2.3-1.5-1.5-2.3-3.6-2.3-5.7V24c0-2.1.8-4.2 2.3-5.7 1.5-1.5 3.6-2.3 5.7-2.3h16.001L36 15.9c0-1.7.3-3.4.9-5 .5-1.4 1.3-2.7 2.4-3.7 1-1.1 2.3-1.9 3.8-2.4 1.6-.5 3.2-.8 4.9-.8 1.7 0 3.3.3 4.9.8 1.5.5 2.8 1.3 3.8 2.4 1.1 1 1.9 2.3 2.4 3.7a14.259 14.259 0 0 1 .899 5.1H68c3.5 0 6.8 1.1 9.6 3.2l9.5 7.2c1.9 1.3 3 3.4 3 5.6 0 2.2-1.1 4.3-3 5.6l-9.5 7.2C74.8 46.9 71.5 48 68 48h-8zm21.3-16l-8.5-6.4c-1.4-1-3.1-1.6-4.8-1.6H20v16h48c1.7 0 3.4-.6 4.8-1.6l8.5-6.4zM44 16c.015-.86.211-1.63.5-2.4.1-.3.9-1.1 1.1-1.2.8-.3 1.6-.4 2.4-.4.8 0 1.6.1 2.4.4.2.1 1 .9 1.1 1.2.289.77.485 1.54.5 2.4h-8z" fill-rule="evenodd"/></svg>