<svg xmlns="http://www.w3.org/2000/svg" width="96" height="96"><path d="M53.5 11.7L63 31l21.3 3.1c2.8.1 5.1 2.2 5.6 4.9.2.9 0 1.8-.4 2.6l-1.2 2.3-16 15.7L76 81.2l.1.9c.1 1.4-.4 2.9-1.3 4.1-1 1.1-2.4 1.8-3.8 2-.5 0-1 0-1.5-.2l-1.9-.5-19.2-10.1-.4-.1-.4.1-19.2 10.1-1.9.5c-.5.2-1 .2-1.5.2-1.4-.2-2.8-.9-3.8-2-.9-1.2-1.4-2.7-1.3-4.1l.1-.9 3.7-21.6-16-15.7-1.2-2.3c-.4-.8-.6-1.7-.4-2.6.5-2.7 2.8-4.8 5.6-4.9L33 31l9.5-19.3c.9-2.3 3.1-3.8 5.5-3.9 2.4.1 4.6 1.6 5.5 3.9zm13.9 66.6l-16.2-8.5-3.2-.7-3.2.7-16.2 8.5 3.1-17.7v-.9c.1-2.1-.7-4.2-2.2-5.7-.1 0-.1-.1-.1-.1L16.7 41.5l17.6-2.6c2.5-.3 4.7-1.9 5.8-4.2l7.9-16 7.9 16c1.1 2.3 3.3 3.9 5.8 4.2l17.6 2.6-12.7 12.4s0 .1-.1.1c-1.5 1.5-2.3 3.6-2.2 5.7v.9l3.1 17.7z" fill-rule="evenodd"/></svg>