<svg xmlns="http://www.w3.org/2000/svg" style="isolation:isolate" width="96" height="96"><path d="M48 64c4.2 0 8.3 1.7 11.3 4.7S64 75.8 64 80c0 4.2-1.7 8.3-4.7 11.3S52.2 96 48 96c-4.2 0-8.3-1.7-11.3-4.7S32 84.2 32 80c0-4.2 1.7-8.3 4.7-11.3S43.8 64 48 64zm0 8c2.1 0 4.2.8 5.7 2.3 1.5 1.5 2.3 3.6 2.3 5.7s-.8 4.2-2.3 5.7C52.2 87.2 50.1 88 48 88s-4.2-.8-5.7-2.3C40.8 84.2 40 82.1 40 80s.8-4.2 2.3-5.7c1.5-1.5 3.6-2.3 5.7-2.3zm-4-24.8q.01-15.542.031-15.707A16.134 16.134 0 0 1 36.7 27.3c-3-3-4.7-7.1-4.7-11.3 0-4.2 1.7-8.3 4.7-11.3S43.8 0 48 0c4.2 0 8.3 1.7 11.3 4.7S64 11.8 64 16c0 4.2-1.7 8.3-4.7 11.3a16.046 16.046 0 0 1-7.3 4.2v15.7l1.2-1.2c.7-.7 1.7-1.2 2.8-1.2 1.1 0 2.1.5 2.8 1.2.8.8 1.2 1.8 1.2 2.8 0 1.1-.4 2.1-1.2 2.9l-7.1 7.1q-2.142 1.5-3.7 1.5-1.558 0-3.7-1.5l-7.1-7.1c-.8-.8-1.2-1.8-1.2-2.9 0-1 .4-2 1.2-2.8.7-.7 1.7-1.2 2.8-1.2 1.1 0 2.1.5 2.8 1.2l1.2 1.2zM48 8c2.1 0 4.2.8 5.7 2.3 1.5 1.5 2.3 3.6 2.3 5.7s-.8 4.2-2.3 5.7C52.2 23.2 50.1 24 48 24s-4.2-.8-5.7-2.3C40.8 20.2 40 18.1 40 16s.8-4.2 2.3-5.7C43.8 8.8 45.9 8 48 8z" fill-rule="evenodd"/></svg>