<svg xmlns="http://www.w3.org/2000/svg" style="isolation:isolate" width="96" height="96"><path d="M64 48c0-4.2 1.7-8.3 4.7-11.3S75.8 32 80 32c4.2 0 8.3 1.7 11.3 4.7S96 43.8 96 48c0 4.2-1.7 8.3-4.7 11.3S84.2 64 80 64c-4.2 0-8.3-1.7-11.3-4.7S64 52.2 64 48zm8 0c0-2.1.8-4.2 2.3-5.7 1.5-1.5 3.6-2.3 5.7-2.3s4.2.8 5.7 2.3c1.5 1.5 2.3 3.6 2.3 5.7s-.8 4.2-2.3 5.7C84.2 55.2 82.1 56 80 56s-4.2-.8-5.7-2.3C72.8 52.2 72 50.1 72 48zm-24.8 4q-15.542-.01-15.707-.031A16.134 16.134 0 0 1 27.3 59.3c-3 3-7.1 4.7-11.3 4.7-4.2 0-8.3-1.7-11.3-4.7S0 52.2 0 48c0-4.2 1.7-8.3 4.7-11.3S11.8 32 16 32c4.2 0 8.3 1.7 11.3 4.7a16.046 16.046 0 0 1 4.2 7.3h15.7L46 42.8c-.7-.7-1.2-1.7-1.2-2.8 0-1.1.5-2.1 1.2-2.8.8-.8 1.8-1.2 2.8-1.2 1.1 0 2.1.4 2.9 1.2l7.1 7.1q1.5 2.142 1.5 3.7 0 1.558-1.5 3.7l-7.1 7.1c-.8.8-1.8 1.2-2.9 1.2-1 0-2-.4-2.8-1.2-.7-.7-1.2-1.7-1.2-2.8 0-1.1.5-2.1 1.2-2.8l1.2-1.2zM8 48c0-2.1.8-4.2 2.3-5.7 1.5-1.5 3.6-2.3 5.7-2.3s4.2.8 5.7 2.3c1.5 1.5 2.3 3.6 2.3 5.7s-.8 4.2-2.3 5.7C20.2 55.2 18.1 56 16 56s-4.2-.8-5.7-2.3C8.8 52.2 8 50.1 8 48z" fill-rule="evenodd"/></svg>