<svg xmlns="http://www.w3.org/2000/svg" style="isolation:isolate" width="96" height="96"><path d="M16 80c0-3.2 1.3-6.2 3.5-8.5 2.3-2.2 5.3-3.5 8.5-3.5s6.2 1.3 8.5 3.5c2.2 2.3 3.5 5.3 3.5 8.5s-1.3 6.2-3.5 8.5C34.2 90.7 31.2 92 28 92s-6.2-1.3-8.5-3.5C17.3 86.2 16 83.2 16 80zm8 0c0-1.1.4-2.1 1.2-2.8.7-.8 1.7-1.2 2.8-1.2 1.1 0 2.1.4 2.8 1.2.8.7 1.2 1.7 1.2 2.8 0 1.1-.4 2.1-1.2 2.8-.7.8-1.7 1.2-2.8 1.2-1.1 0-2.1-.4-2.8-1.2-.8-.7-1.2-1.7-1.2-2.8zm32 0c0-3.2 1.3-6.2 3.5-8.5 2.3-2.2 5.3-3.5 8.5-3.5s6.2 1.3 8.5 3.5c2.2 2.3 3.5 5.3 3.5 8.5s-1.3 6.2-3.5 8.5C74.2 90.7 71.2 92 68 92s-6.2-1.3-8.5-3.5C57.3 86.2 56 83.2 56 80zm8 0c0-1.1.4-2.1 1.2-2.8.7-.8 1.7-1.2 2.8-1.2 1.1 0 2.1.4 2.8 1.2.8.7 1.2 1.7 1.2 2.8 0 1.1-.4 2.1-1.2 2.8-.7.8-1.7 1.2-2.8 1.2-1.1 0-2.1-.4-2.8-1.2-.8-.7-1.2-1.7-1.2-2.8zM12 36v16.3c.2 2.9 1.7 5.7 4 7.5 2.4 2 5.1 3.5 8.1 4.5 7.7 2.6 15.8 3.9 23.9 3.7 8.1.2 16.2-1.1 23.9-3.7 3-1 5.7-2.5 8.1-4.5 2.3-1.8 3.8-4.6 4-7.5V51c0-6.2-.6-12.4-1.6-18.5-.8-4.2-2.1-8.2-3.9-11.9-2.2-4.3-5.3-8.1-9.2-10.9-3.8-2.8-8.2-4.6-12.8-5.2h-1.1c-2 0-3.9.8-5.2 2.2C48.8 8.1 48 10 48 12v16H20c0-3.6-1.4-7.1-4-9.7l-5.2-5.1C10.1 12.4 9.1 12 8 12c-1.1 0-2.1.4-2.8 1.2-.8.7-1.2 1.7-1.2 2.8 0 1.1.4 2.1 1.2 2.8l5.1 5.2c1.1 1.1 1.7 2.5 1.7 4v8zm63.9 11c-.2-4.4-.6-8.8-1.4-13.1-.6-3.4-1.7-6.7-3.2-9.8-1.6-3.1-3.9-5.9-6.7-8-2.6-1.8-5.5-3.1-8.6-3.5V28c0 2.1-.8 4.2-2.3 5.7-1.5 1.5-3.6 2.3-5.7 2.3H20v15.8c.1.7.4 1.3 1 1.7 1.7 1.4 3.6 2.5 5.7 3.2 6.8 2.4 14 3.5 21.3 3.3 7.3.2 14.5-.9 21.3-3.3 2.1-.7 4-1.8 5.7-3.2.5-.3.9-.9 1-1.5l-.1-5z" fill-rule="evenodd"/></svg>