<svg xmlns="http://www.w3.org/2000/svg" style="isolation:isolate" width="96" height="96"><path d="M4.18 44c.923-10.228 5.371-19.84 12.72-27.1C24.16 9.551 33.772 5.103 44 4.18V4c0-1.1.4-2.1 1.2-2.8C45.9.4 46.9 0 48 0c1.1 0 2.1.4 2.8 1.2.8.7 1.2 1.7 1.2 2.8v.18c10.228.923 19.84 5.371 27.1 12.72 7.349 7.26 11.797 16.872 12.72 27.1H92c1.1 0 2.1.4 2.8 1.2.8.7 1.2 1.7 1.2 2.8 0 1.1-.4 2.1-1.2 2.8-.7.8-1.7 1.2-2.8 1.2h-.18c-.923 10.228-5.371 19.84-12.72 27.1-7.26 7.349-16.872 11.797-27.1 12.72V92c0 1.1-.4 2.1-1.2 2.8-.7.8-1.7 1.2-2.8 1.2-1.1 0-2.1-.4-2.8-1.2-.8-.7-1.2-1.7-1.2-2.8v-.18c-10.228-.923-19.84-5.371-27.1-12.72C9.551 71.84 5.103 62.228 4.18 52H4c-1.1 0-2.1-.4-2.8-1.2C.4 50.1 0 49.1 0 48c0-1.1.4-2.1 1.2-2.8.7-.8 1.7-1.2 2.8-1.2h.18zm8.045 0c.906-8.05 4.521-15.66 10.275-21.5 5.84-5.754 13.45-9.37 21.5-10.275V16c0 1.1.4 2.1 1.2 2.8.7.8 1.7 1.2 2.8 1.2 1.1 0 2.1-.4 2.8-1.2.8-.7 1.2-1.7 1.2-2.8v-3.775c8.05.906 15.66 4.521 21.5 10.275 5.754 5.84 9.37 13.45 10.275 21.5H80c-1.1 0-2.1.4-2.8 1.2-.8.7-1.2 1.7-1.2 2.8 0 1.1.4 2.1 1.2 2.8.7.8 1.7 1.2 2.8 1.2h3.775c-.906 8.05-4.521 15.66-10.275 21.5-5.84 5.754-13.45 9.37-21.5 10.275V80c0-1.1-.4-2.1-1.2-2.8-.7-.8-1.7-1.2-2.8-1.2-1.1 0-2.1.4-2.8 1.2-.8.7-1.2 1.7-1.2 2.8v3.775c-8.05-.906-15.66-4.521-21.5-10.275-5.754-5.84-9.37-13.45-10.275-21.5H16c1.1 0 2.1-.4 2.8-1.2.8-.7 1.2-1.7 1.2-2.8 0-1.1-.4-2.1-1.2-2.8-.7-.8-1.7-1.2-2.8-1.2h-3.775zM28 48c0-5.3 2.1-10.4 5.9-14.1C37.6 30.1 42.7 28 48 28c5.3 0 10.4 2.1 14.1 5.9C65.9 37.6 68 42.7 68 48c0 5.3-2.1 10.4-5.9 14.1C58.4 65.9 53.3 68 48 68c-5.3 0-10.4-2.1-14.1-5.9C30.1 58.4 28 53.3 28 48zm8 0c0-3.2 1.3-6.2 3.5-8.5 2.3-2.2 5.3-3.5 8.5-3.5s6.2 1.3 8.5 3.5c2.2 2.3 3.5 5.3 3.5 8.5s-1.3 6.2-3.5 8.5C54.2 58.7 51.2 60 48 60s-6.2-1.3-8.5-3.5C37.3 54.2 36 51.2 36 48z" fill-rule="evenodd"/></svg>