<svg xmlns="http://www.w3.org/2000/svg" style="isolation:isolate" width="96" height="96"><path d="M78.674 60l5.628 13.5c.4 1 1.2 1.8 2.2 2.2 1 .4 2.1.4 3 0 1-.4 1.8-1.2 2.2-2.2.4-1 .4-2.1 0-3l-18.4-44.1c-.7-2.4-2.8-4.1-5.3-4.3-2.5.2-4.6 1.9-5.3 4.3l-18.4 44.1c-.4.9-.4 2 0 3s1.2 1.8 2.2 2.2c.9.4 2 .4 3 0s1.8-1.2 2.2-2.2L57.33 60h21.344zm-3.335-8l-7.337-17.6L60.665 52H75.34zm-56.877 8l1.54-3.1 1.541 3.1h-3.081zm-3.977 8l-2.883 5.8c-.5.9-1.3 1.7-2.3 2-1 .3-2.1.3-3.1-.2-.9-.5-1.7-1.3-2-2.3-.3-1-.3-2.1.2-3.1l10.1-20.2c.9-2.3 3.1-3.8 5.5-3.9 2.4.1 4.6 1.6 5.5 3.9l10.1 20.2c.5 1 .5 2.1.2 3.1s-1.1 1.8-2 2.3c-1 .5-2.1.5-3.1.2s-1.8-1.1-2.3-2L25.52 68H14.485z" fill-rule="evenodd"/></svg>