<svg xmlns="http://www.w3.org/2000/svg" width="96" height="96"><path d="M28 20h40c7.4 0 14.5 3 19.8 8.2C93 33.5 96 40.6 96 48s-3 14.5-8.2 19.8C82.5 73 75.4 76 68 76H28c-7.4 0-14.5-3-19.8-8.2C3 62.5 0 55.4 0 48s3-14.5 8.2-19.8C13.5 23 20.6 20 28 20zm0 8h40c5.3 0 10.4 2.1 14.1 5.9C85.9 37.6 88 42.7 88 48c0 5.3-2.1 10.4-5.9 14.1C78.4 65.9 73.3 68 68 68H28c-5.3 0-10.4-2.1-14.1-5.9C10.1 58.4 8 53.3 8 48c0-5.3 2.1-10.4 5.9-14.1C17.6 30.1 22.7 28 28 28zM12 48c0-4.2 1.7-8.3 4.7-11.3S23.8 32 28 32c4.2 0 8.3 1.7 11.3 4.7S44 43.8 44 48c0 4.2-1.7 8.3-4.7 11.3S32.2 64 28 64c-4.2 0-8.3-1.7-11.3-4.7S12 52.2 12 48zm8 0c0-2.1.8-4.2 2.3-5.7 1.5-1.5 3.6-2.3 5.7-2.3s4.2.8 5.7 2.3c1.5 1.5 2.3 3.6 2.3 5.7s-.8 4.2-2.3 5.7C32.2 55.2 30.1 56 28 56s-4.2-.8-5.7-2.3C20.8 52.2 20 50.1 20 48z" fill-rule="evenodd"/></svg>