<svg xmlns="http://www.w3.org/2000/svg" width="96" height="96"><path d="M20.6 36l6.8 47.5c0 .3.3.5.6.5h40c.3 0 .6-.2.6-.5L75.4 36H20.6zm-8 .4l6.9 48.2c.6 4.2 4.2 7.4 8.5 7.4h40c4.3 0 7.9-3.2 8.5-7.4l6.9-48.2.1-.7v-.3c0-2-.8-3.9-2.3-5.3C79.8 28.8 78 28 76 28H20c-2 0-3.8.8-5.2 2.1-1.5 1.4-2.3 3.3-2.3 5.3v.3l.1.7zM36 48c0-1.1.4-2.1 1.2-2.8.7-.8 1.7-1.2 2.8-1.2 1.1 0 2.1.4 2.8 1.2.8.7 1.2 1.7 1.2 2.8v24c0 1.1-.4 2.1-1.2 2.8-.7.8-1.7 1.2-2.8 1.2-1.1 0-2.1-.4-2.8-1.2-.8-.7-1.2-1.7-1.2-2.8V48zm16 0c0-1.1.4-2.1 1.2-2.8.7-.8 1.7-1.2 2.8-1.2 1.1 0 2.1.4 2.8 1.2.8.7 1.2 1.7 1.2 2.8v24c0 1.1-.4 2.1-1.2 2.8-.7.8-1.7 1.2-2.8 1.2-1.1 0-2.1-.4-2.8-1.2-.8-.7-1.2-1.7-1.2-2.8V48zM36 16H16c-1.1 0-2.1.4-2.8 1.2-.8.7-1.2 1.7-1.2 2.8 0 1.1.4 2.1 1.2 2.8.7.8 1.7 1.2 2.8 1.2h64c1.1 0 2.1-.4 2.8-1.2.8-.7 1.2-1.7 1.2-2.8 0-1.1-.4-2.1-1.2-2.8-.7-.8-1.7-1.2-2.8-1.2H60v-4c0-2.1-.8-4.2-2.3-5.7C56.2 4.8 54.1 4 52 4h-8c-2.1 0-4.2.8-5.7 2.3C36.8 7.8 36 9.9 36 12v4zm8 0h8v-4h-8v4z" fill-rule="evenodd"/></svg>