<svg xmlns="http://www.w3.org/2000/svg" style="isolation:isolate" width="96" height="96"><path d="M68 24h12c4.1 0 7.8 2.6 9.1 6.5l5.4 16.4c1 3 1.5 6 1.5 9.1v15.5c0 3.396-1.3 7.1-4.7 8.3q-.4.1-3.975.136A12.718 12.718 0 0 1 84.5 84.5C82.2 86.7 79.2 88 76 88s-6.2-1.3-8.5-3.5a12.718 12.718 0 0 1-2.825-4.564c-.217.046-33.133.046-33.35 0A12.718 12.718 0 0 1 28.5 84.5C26.2 86.7 23.2 88 20 88s-6.2-1.3-8.5-3.5a12.718 12.718 0 0 1-2.825-4.564C8.458 79.982 5.1 79.9 4.7 79.8 1.3 78.6 0 74.997 0 71.5V20c0-2.1.8-4.2 2.3-5.7C3.8 12.8 5.9 12 8 12h52c2.1 0 4.2.8 5.7 2.3 1.5 1.5 2.3 3.6 2.3 5.7v4zm-8 8v20H8V20h52v12zM24 76c0-1.1-.4-2.1-1.2-2.8-.7-.8-1.7-1.2-2.8-1.2-1.1 0-2.1.4-2.8 1.2-.8.7-1.2 1.7-1.2 2.8 0 1.1.4 2.1 1.2 2.8.7.8 1.7 1.2 2.8 1.2 1.1 0 2.1-.4 2.8-1.2.8-.7 1.2-1.7 1.2-2.8zm56 0c0-1.1-.4-2.1-1.2-2.8-.7-.8-1.7-1.2-2.8-1.2-1.1 0-2.1.4-2.8 1.2-.8.7-1.2 1.7-1.2 2.8 0 1.1.4 2.1 1.2 2.8.7.8 1.7 1.2 2.8 1.2 1.1 0 2.1-.4 2.8-1.2.8-.7 1.2-1.7 1.2-2.8zm7.325-3.936L88 72V56c0-2.2-.4-4.4-1.1-6.5l-5.4-16.4c-.2-.7-.8-1.1-1.5-1.1H68v20c0 2.1-.8 4.2-2.3 5.7-1.5 1.5-3.6 2.3-5.7 2.3H8v12q.458.018.675.064A12.718 12.718 0 0 1 11.5 67.5c2.3-2.2 5.3-3.5 8.5-3.5s6.2 1.3 8.5 3.5a12.718 12.718 0 0 1 2.825 4.564c.217-.046 33.133-.046 33.35 0A12.718 12.718 0 0 1 67.5 67.5c2.3-2.2 5.3-3.5 8.5-3.5s6.2 1.3 8.5 3.5a12.718 12.718 0 0 1 2.825 4.564z" fill-rule="evenodd"/></svg>