<svg xmlns="http://www.w3.org/2000/svg" style="isolation:isolate" width="96" height="96"><path d="M42.9 23.4c-1.5 1-2.9 2-4.3 3.2-2.5 2-4.9 4.3-7.1 6.8-1.5 1.5-2.6 3.3-3.2 5.4q-.4 2.1-.3 3.1c.1 1 1.544 3.146 1.2 5.2-.454 2.705-1.9 4.9-4.5 5.4-1.2.3-2.1 1-2.8 2-1.2 1.7-1.9 3.6-1.9 5.5 0 .8.1 1.5.2 2.3q.2 1.2.1 1.6c-.2 2.4-1.9 4.3-4.2 4.9-2.8 1.1-4.5 4-4.1 7 0 2.2.8 4.2 2.3 5.8 1.5 1.5 3.5 2.4 5.7 2.4h56c2.2 0 4.2-.9 5.7-2.4C83.2 80 84 78 84 75.8c.4-3-1.3-5.9-4.1-7-2.3-.6-4-2.5-4.2-4.9q-.1-.4.1-1.6c.1-.8.2-1.5.2-2.3 0-1.9-.7-3.8-1.8-5.4-.7-1-1.7-1.8-2.9-2.1-2.6-.5-4.35-2.66-4.5-5.4-.073-1.323.8-3.2.8-3.3.3-.6.61-1.185.6-2-.013-1.066-.6-2.1-1.1-2.5-2.4-1.5-13.7-4.5-16.3-6-4.1-1.8-7-5.5-7.9-9.9zm41 38.4c.1-.6.1-1.2.1-1.8 0-3.6-1.2-7.1-3.3-9.9-1.3-2-3.1-3.5-5.2-4.5.4-1.2.68-2.23.7-3.7.015-1.06-.3-2.6-.3-2.7-.5-2.7-2.1-5-4.4-6.5-3.3-2.2-15.2-5.4-17.1-6.5-2.1-.8-3.5-2.7-3.8-5 .1-1.2.4-2.3.9-3.3.2-.3 1.553-2.224 1.2-3.7-.55-2.298-4.5-2.5-5.6-2.3-2.1.4-4.2 1.4-5.8 2.9-2.7 1.7-5.2 3.5-7.6 5.5-3 2.3-5.6 4.8-8.1 7.6-2.4 2.6-4.2 5.7-5.1 9.1 0 .2-.572 2.857-.5 4.7.058 1.5.3 2.8.6 3.8-2.2 1-4 2.6-5.3 4.6-2.1 2.8-3.3 6.3-3.3 9.9 0 .6 0 1.2.1 1.8-5.4 2.7-8.6 8.4-8.1 14.4.1 4.2 1.8 8.2 4.8 11.2 2.9 2.9 7 4.6 11.2 4.6h56c4.2 0 8.3-1.7 11.2-4.6 3-3 4.7-7 4.8-11.2.5-6-2.7-11.7-8.1-14.4z" fill-rule="evenodd"/></svg>