<svg xmlns="http://www.w3.org/2000/svg" style="isolation:isolate" width="96" height="96"><path d="M52 44h28c1.1 0 2.1-.4 2.8-1.2.8-.7 1.2-1.8 1.2-2.8 0-5.6-1-11-2.7-16.3-1.4-4-3.6-7.6-6.6-10.5-3-3-6.6-5.2-10.6-6.6C58.9 4.9 53.5 4 48 4c-5.5 0-10.9.9-16.1 2.6-4 1.4-7.6 3.6-10.6 6.6-3 2.9-5.2 6.5-6.6 10.5C13 29 12 34.4 12 40c0 1 .4 2.1 1.2 2.8.7.8 1.7 1.2 2.8 1.2h28v32c0 3.2 1.3 6.2 3.5 8.5 2.3 2.2 5.3 3.5 8.5 3.5s6.2-1.3 8.5-3.5c2.2-2.3 3.5-5.3 3.5-8.5 0-1.1-.4-2.1-1.2-2.8-.7-.8-1.7-1.2-2.8-1.2-1.1 0-2.1.4-2.8 1.2-.8.7-1.2 1.7-1.2 2.8 0 1.1-.4 2.1-1.2 2.8-.7.8-1.7 1.2-2.8 1.2-1.1 0-2.1-.4-2.8-1.2-.8-.7-1.2-1.7-1.2-2.8V44zm23.8-8c-.3-3.3-1.1-6.6-2.1-9.7-1-2.8-2.6-5.4-4.7-7.5-2.1-2.1-4.6-3.6-7.4-4.6-4.4-1.5-9-2.2-13.6-2.2s-9.2.7-13.6 2.2c-2.8 1-5.3 2.5-7.4 4.6-2.1 2.1-3.7 4.7-4.7 7.5-1 3.1-1.8 6.4-2.1 9.7h55.6z" fill-rule="evenodd"/></svg>