<svg xmlns="http://www.w3.org/2000/svg" width="96" height="96"><path d="M88 12c1.1 0 2.1.4 2.8 1.2.8.7 1.2 1.7 1.2 2.8 0 1.1-.4 2.1-1.2 2.8-.7.8-1.7 1.2-2.8 1.2H72c-1.1 0-2.1-.4-2.8-1.2-.8-.7-1.2-1.7-1.2-2.8 0-1.1.4-2.1 1.2-2.8.7-.8 1.7-1.2 2.8-1.2h16zM62 79.4q-1.3-3.4-2.2-4.7c-.9-1.3-2-2.5-3.2-3.5q-1.8-1.3-7-3.5h-.1c-4.6-1.9-9.5-2.9-14.5-3-5 .1-9.9 1.1-14.5 3h-.1q-5.2 2.2-7 3.5c-1.2 1-2.3 2.2-3.2 3.5Q9.3 76 8 79.4c5 1.5 10 2.7 15.1 3.6 4 .7 7.9 1 11.9 1s7.9-.3 11.9-1C52 82.1 57 80.9 62 79.4zm-9.5-19.1C46.9 58 41 56.8 35 56.7c-6 .1-11.9 1.3-17.5 3.6Q11 63 8.6 64.8c-2 1.6-3.7 3.4-5 5.4C2.2 72.3 1.1 74.6.3 77c0 .2-.3 2.1-.3 2.3C0 82.8 2.3 86 5.6 87c5.3 1.7 10.7 2.9 16.2 3.9 4.3.7 8.8 1.1 13.2 1.1 4.4 0 8.9-.4 13.2-1.1 5.5-1 10.9-2.2 16.2-3.9 3.3-1 5.6-4.2 5.6-7.7 0-.2-.3-2.1-.3-2.3-.8-2.4-1.9-4.7-3.3-6.8-1.3-2-3-3.8-5-5.4Q59 63 52.5 60.3zM15 28.1c-.464-7.544-.024-13.336 5.4-18.6C24.77 5.26 28.911 4.004 35 4c5.988-.004 10.042 1.193 14.4 5.3 5.57 5.251 6.061 11.158 5.6 18.8-.417 6.908-2.9 11.7-6.5 16.5-3.4 4.5-7.8 7.3-13.5 7.4-5.7-.1-10.1-2.9-13.5-7.4-3.6-4.8-6.075-9.592-6.5-16.5zm8-.2c-.428-5.543-.577-10.405 3.9-13.7 2.638-1.941 4.824-2.23 8.1-2.2 3.383.03 5.648.4 8.3 2.5 4.254 3.368 4.115 7.99 3.7 13.4-.382 4.972-2.3 8.4-4.9 11.8-1.9 2.6-3.9 4.2-7.1 4.3-3.2-.1-5.2-1.7-7.1-4.3-2.6-3.4-4.516-6.828-4.9-11.8z" fill-rule="evenodd"/></svg>