<svg xmlns="http://www.w3.org/2000/svg" style="isolation:isolate" width="96" height="96"><path d="M79.987 64.5v-33l-14.9 9.9q-2.414 1.111-4 .9c-3.196-.426-5.4-3.4-5.1-6.5V28h-40v40h40v-7.8c-.3-3.1 1.904-6.074 5.1-6.5q1.586-.211 4 .9l14.9 9.9zm-16-1l16.9 10.6c.7.2 1.3.3 2 .2 3.1-.5 5.4-3.4 5.1-6.5V28.2c.3-3.1-2-6-5.1-6.5-.7-.1-1.3 0-2 .2l-16.9 10.6V28c0-2.1-.8-4.2-2.3-5.7-1.5-1.5-3.6-2.3-5.7-2.3h-40c-2.1 0-4.2.8-5.7 2.3-1.5 1.5-2.3 3.6-2.3 5.7v40c0 2.1.8 4.2 2.3 5.7 1.5 1.5 3.6 2.3 5.7 2.3h40c2.1 0 4.2-.8 5.7-2.3 1.5-1.5 2.3-3.6 2.3-5.7v-4.5z" fill-rule="evenodd"/></svg>