<svg xmlns="http://www.w3.org/2000/svg" style="isolation:isolate" width="96" height="96"><path d="M29.4 95.7c-7.1-1.2-13.4-5-17.8-10.6C6.7 79.2 4 71.8 4 64.1c0-8.4 3.4-16.6 9.4-22.6s14.1-9.4 22.6-9.4c11.7 0 22.4 6.4 28 16.6q3.8-.6 4-.6c6.4 0 12.5 2.6 17 7.1s7 10.6 7 17c0 5.4-1.8 10.7-5.1 15.1-2.9 4.1-7.1 7-12 8.2-.2 0-.4.1-.5.1l-4.2.4H33.9l-4.2-.3h-.3zm1.1-8c-5-.8-9.5-3.6-12.7-7.6-3.7-4.5-5.8-10.1-5.8-16 0-6.3 2.5-12.4 7-16.9 4.5-4.5 10.6-7.1 17-7.1 9.6 0 18.3 5.8 22.1 14.6.7 1.7 2.5 2.7 4.3 2.4l5.9-1c4.2.1 8.2 1.8 11.1 4.8 3 3 4.6 7 4.6 11.2 0 3.8-1.3 7.5-3.6 10.5-1.7 2.5-4.2 4.3-7.1 5.1l-3.5.3H34.1l-3.6-.3zm18.7-59.3c-.6.9-1.5 1.5-2.5 1.7-1.1.2-2.2 0-3-.6-.9-.6-1.5-1.5-1.7-2.5-.3-1.1 0-2.2.5-3 3-4.5 8-7.2 13.4-7.2 3.1 0 6.2 1 8.8 2.7 4.5 3 7.2 8 7.2 13.3 0 3.2-1 6.3-2.7 8.9-.6.9-1.5 1.5-2.6 1.7-1 .2-2.1 0-3-.6-.8-.6-1.5-1.5-1.7-2.5-.2-1.1 0-2.2.6-3 .9-1.4 1.4-2.9 1.4-4.5 0-2.6-1.4-5.1-3.6-6.6-1.3-.9-2.9-1.4-4.4-1.4-2.7 0-5.2 1.4-6.7 3.6zM80 36c-1.1 0-2.1-.4-2.8-1.2-.8-.7-1.2-1.7-1.2-2.8 0-1.1.4-2.1 1.2-2.8.7-.8 1.7-1.2 2.8-1.2h4c1.1 0 2.1.4 2.8 1.2.8.7 1.2 1.7 1.2 2.8 0 1.1-.4 2.1-1.2 2.8-.7.8-1.7 1.2-2.8 1.2h-4zm-1.2-21.2l-4 4c-.7.8-1.7 1.2-2.8 1.2-1.1 0-2.1-.4-2.8-1.2-.8-.7-1.2-1.7-1.2-2.8 0-1.1.4-2.1 1.2-2.8l4-4C73.9 8.4 74.9 8 76 8c1.1 0 2.1.4 2.8 1.2.8.7 1.2 1.7 1.2 2.8 0 1.1-.4 2.1-1.2 2.8zM60 8c0 1.1-.4 2.1-1.2 2.8-.7.8-1.7 1.2-2.8 1.2-1.1 0-2.1-.4-2.8-1.2-.8-.7-1.2-1.7-1.2-2.8V4c0-1.1.4-2.1 1.2-2.8C53.9.4 54.9 0 56 0c1.1 0 2.1.4 2.8 1.2.8.7 1.2 1.7 1.2 2.8v4z" fill-rule="evenodd"/></svg>