<svg xmlns="http://www.w3.org/2000/svg" style="isolation:isolate" width="96" height="96"><path d="M44.003 27.409v24.697h24c4.2 0 7.8 2.9 8.9 6.9l7 28.1c.2 1.1.1 2.1-.5 3.1-.5.9-1.4 1.5-2.4 1.8-1.1.2-2.1.1-3.1-.5-.9-.5-1.5-1.4-1.8-2.4l-7-28.1c-.1-.5-.6-.9-1.1-.9h-24c-2.1 0-4.2-.8-5.7-2.3-1.5-1.5-2.3-3.6-2.3-5.7V27.41a12.731 12.731 0 0 1-4.5-2.803c-2.2-2.3-3.5-5.3-3.5-8.5s1.3-6.2 3.5-8.5c2.3-2.2 5.3-3.5 8.5-3.5s6.2 1.3 8.5 3.5c2.2 2.3 3.5 5.3 3.5 8.5s-1.3 6.2-3.5 8.5a12.731 12.731 0 0 1-4.5 2.803zm-8-11.303c0-1.1.4-2.1 1.2-2.8.7-.8 1.7-1.2 2.8-1.2 1.1 0 2.1.4 2.8 1.2.8.7 1.2 1.7 1.2 2.8 0 1.1-.4 2.1-1.2 2.8-.7.8-1.7 1.2-2.8 1.2-1.1 0-2.1-.4-2.8-1.2-.8-.7-1.2-1.7-1.2-2.8zM60.9 77.1c.7-.8 1.7-1.2 2.8-1.2 1.1 0 2.1.4 2.8 1.2.8.7 1.2 1.7 1.2 2.8 0 1.1-.4 2.1-1.2 2.8-6 6-14.1 9.4-22.6 9.4-8.5 0-16.6-3.4-22.6-9.4s-9.4-14.1-9.4-22.6c0-8.5 3.4-16.6 9.4-22.6.7-.8 1.7-1.2 2.8-1.2 1.1 0 2.1.4 2.8 1.2.8.7 1.2 1.7 1.2 2.8 0 1.1-.4 2.1-1.2 2.8-4.5 4.5-7 10.6-7 17s2.5 12.5 7 17 10.6 7 17 7 12.5-2.5 17-7z" fill-rule="evenodd"/></svg>