<svg xmlns="http://www.w3.org/2000/svg" style="isolation:isolate" width="96" height="96"><path d="M37.495 76l-5.1 10.2c-.5 1-.5 2.1-.2 3.1s1.1 1.8 2 2.3c1 .5 2.1.5 3.1.2s1.8-1.1 2.3-2l6.9-13.8h3.01l6.9 13.8c.5.9 1.3 1.7 2.3 2 1 .3 2.1.3 3.1-.2.9-.5 1.7-1.3 2-2.3.3-1 .3-2.1-.2-3.1l-5.1-10.2H84c2.1 0 4.2-.8 5.7-2.3 1.5-1.5 2.3-3.6 2.3-5.7V20c0-2.1-.8-4.2-2.3-5.7-1.5-1.5-3.6-2.3-5.7-2.3H52V8c0-1.1-.4-2.1-1.2-2.8C50.1 4.4 49.1 4 48 4c-1.1 0-2.1.4-2.8 1.2-.8.7-1.2 1.7-1.2 2.8v4H12c-2.1 0-4.2.8-5.7 2.3C4.8 15.8 4 17.9 4 20v48c0 2.1.8 4.2 2.3 5.7C7.8 75.2 9.9 76 12 76h25.495zm6.348-8c.134-.006.268-.006.402 0h7.51c.134-.006.268-.006.402 0H84V20H12v48h31.843z" fill-rule="evenodd"/></svg>