<svg xmlns="http://www.w3.org/2000/svg" width="96" height="96"><path d="M78 62c1.1 0 2.1-.4 2.8-1.2.8-.7 1.2-1.7 1.2-2.8 0-1.1-.4-2.1-1.2-2.8-.7-.8-1.7-1.2-2.8-1.2-6.4 0-12.5 2.5-17 7s-7 10.6-7 17c0 1.1.4 2.1 1.2 2.8.7.8 1.7 1.2 2.8 1.2 1.1 0 2.1-.4 2.8-1.2.8-.7 1.2-1.7 1.2-2.8 0-4.2 1.7-8.3 4.7-11.3S73.8 62 78 62zm0-20c1.1 0 2.1-.4 2.8-1.2.8-.7 1.2-1.7 1.2-2.8 0-1.1-.4-2.1-1.2-2.8-.7-.8-1.7-1.2-2.8-1.2-11.7 0-22.9 4.6-31.1 12.9C38.6 55.1 34 66.3 34 78c0 1.1.4 2.1 1.2 2.8.7.8 1.7 1.2 2.8 1.2 1.1 0 2.1-.4 2.8-1.2.8-.7 1.2-1.7 1.2-2.8 0-9.5 3.8-18.7 10.5-25.5C59.3 45.8 68.5 42 78 42zm0-20c1.1 0 2.1-.4 2.8-1.2.8-.7 1.2-1.7 1.2-2.8 0-1.1-.4-2.1-1.2-2.8-.7-.8-1.7-1.2-2.8-1.2-17 0-33.3 6.7-45.3 18.7S14 61 14 78c0 1.1.4 2.1 1.2 2.8.7.8 1.7 1.2 2.8 1.2 1.1 0 2.1-.4 2.8-1.2.8-.7 1.2-1.7 1.2-2.8 0-14.8 5.9-29.1 16.4-39.6C48.9 27.9 63.2 22 78 22z" fill-rule="evenodd"/></svg>