<svg xmlns="http://www.w3.org/2000/svg" style="isolation:isolate" width="96" height="96"><path d="M8 40c-1.1 0-2.1-.4-2.8-1.2C4.4 38.1 4 37.1 4 36c0-1.1.4-2.1 1.2-2.8.7-.8 1.7-1.2 2.8-1.2h40c1.1 0 2.1-.4 2.8-1.2.8-.7 1.2-1.7 1.2-2.8 0-1.1-.4-2.1-1.2-2.8-.7-.8-1.7-1.2-2.8-1.2h-8c-1.1 0-2.1-.4-2.8-1.2-.8-.7-1.2-1.7-1.2-2.8 0-1.1.4-2.1 1.2-2.8.7-.8 1.7-1.2 2.8-1.2h8c3.2 0 6.2 1.3 8.5 3.5 2.2 2.3 3.5 5.3 3.5 8.5s-1.3 6.2-3.5 8.5C54.2 38.7 51.2 40 48 40H8zm67.303 12H80c3.2 0 6.2-1.3 8.5-3.5 2.2-2.3 3.5-5.3 3.5-8.5s-1.3-6.2-3.5-8.5C86.2 29.3 83.2 28 80 28h-8c-1.1 0-2.1.4-2.8 1.2-.8.7-1.2 1.7-1.2 2.8 0 1.1.4 2.1 1.2 2.8.7.8 1.7 1.2 2.8 1.2h8c1.1 0 2.1.4 2.8 1.2.8.7 1.2 1.7 1.2 2.8 0 1.1-.4 2.1-1.2 2.8-.7.8-1.7 1.2-2.8 1.2H8c-1.1 0-2.1.4-2.8 1.2-.8.7-1.2 1.7-1.2 2.8 0 1.1.4 2.1 1.2 2.8.7.8 1.7 1.2 2.8 1.2h56c1.1 0 2.1.4 2.8 1.2.8.7 1.2 1.7 1.2 2.8 0 1.1-.4 2.1-1.2 2.8-.7.8-1.7 1.2-2.8 1.2h-8c-1.1 0-2.1.4-2.8 1.2-.8.7-1.2 1.7-1.2 2.8 0 1.1.4 2.1 1.2 2.8.7.8 1.7 1.2 2.8 1.2h8c3.2 0 6.2-1.3 8.5-3.5 2.2-2.3 3.5-5.3 3.5-8.5a11.85 11.85 0 0 0-.697-4zM8 64c-1.1 0-2.1-.4-2.8-1.2C4.4 62.1 4 61.1 4 60c0-1.1.4-2.1 1.2-2.8.7-.8 1.7-1.2 2.8-1.2h24c3.2 0 6.2 1.3 8.5 3.5 2.2 2.3 3.5 5.3 3.5 8.5s-1.3 6.2-3.5 8.5C38.2 78.7 35.2 80 32 80h-8c-1.1 0-2.1-.4-2.8-1.2-.8-.7-1.2-1.7-1.2-2.8 0-1.1.4-2.1 1.2-2.8.7-.8 1.7-1.2 2.8-1.2h8c1.1 0 2.1-.4 2.8-1.2.8-.7 1.2-1.7 1.2-2.8 0-1.1-.4-2.1-1.2-2.8-.7-.8-1.7-1.2-2.8-1.2H8z" fill-rule="evenodd"/></svg>