<svg xmlns="http://www.w3.org/2000/svg" style="isolation:isolate" width="96" height="96"><path d="M44 84V57.907c-5.424-.799-10.516-3.205-14.7-6.907-5.4-4.8-8.7-11.5-9.3-18.7V12c0-2.1.8-4.2 2.3-5.7C23.8 4.8 25.9 4 28 4h40c2.1 0 4.2.8 5.7 2.3C75.2 7.8 76 9.9 76 12v20.3c-.6 7.2-3.9 13.9-9.3 18.7-4.184 3.702-9.276 6.108-14.7 6.907V84h12c1.1 0 2.1.4 2.8 1.2.8.7 1.2 1.7 1.2 2.8 0 1.1-.4 2.1-1.2 2.8-.7.8-1.7 1.2-2.8 1.2H32c-1.1 0-2.1-.4-2.8-1.2-.8-.7-1.2-1.7-1.2-2.8 0-1.1.4-2.1 1.2-2.8.7-.8 1.7-1.2 2.8-1.2h12zM28 12h40v19.8c-.5 5.1-2.9 9.8-6.7 13.2-3.6 3.3-8.4 5.2-13.3 5.2s-9.7-1.9-13.3-5.2c-3.8-3.4-6.2-8.1-6.7-13.2V12z" fill-rule="evenodd"/></svg>