<svg xmlns="http://www.w3.org/2000/svg" style="isolation:isolate" width="96" height="96"><path d="M44 36c0-1.1.4-2.1 1.2-2.8.7-.8 1.7-1.2 2.8-1.2 1.1 0 2.1.4 2.8 1.2.8.7 1.2 1.7 1.2 2.8v16c0 1.5.6 2.9 1.7 4l5.1 5.2c.8.7 1.2 1.7 1.2 2.8 0 1.1-.4 2.1-1.2 2.8-.7.8-1.7 1.2-2.8 1.2-1.1 0-2.1-.4-2.8-1.2L48 61.7c-2.6-2.6-4-6.1-4-9.7V36zM18.911 79.489L13.2 85.2c-.8.7-1.2 1.7-1.2 2.8 0 1.1.4 2.1 1.2 2.8.7.8 1.7 1.2 2.8 1.2 1.1 0 2.1-.4 2.8-1.2l6.113-6.113A40.092 40.092 0 0 0 48 92a40.092 40.092 0 0 0 23.087-7.313L77.2 90.8c.7.8 1.7 1.2 2.8 1.2 1.1 0 2.1-.4 2.8-1.2.8-.7 1.2-1.7 1.2-2.8 0-1.1-.4-2.1-1.2-2.8l-5.711-5.711A40.05 40.05 0 0 0 88 52a40.1 40.1 0 0 0-4.15-17.767C86.504 31.3 88 27.533 88 23.5c0-4.2-1.7-8.3-4.7-11.3-2.9-2.8-6.8-4.3-10.8-4.2-4.8 0-9.4 1.8-12.8 5.2-.134.134-7.11-1.2-11.7-1.2-4.59 0-11.566 1.334-11.7 1.2-3.4-3.4-8-5.2-12.8-5.2-4-.1-7.9 1.4-10.8 4.2-3 3-4.7 7.1-4.7 11.3 0 4.033 1.495 7.801 4.15 10.733A40.1 40.1 0 0 0 8 52a40.05 40.05 0 0 0 10.911 27.489zm9.385-62.32c-1.504-.811-3.18-1.233-4.896-1.169-1.9-.1-3.7.6-5.1 1.9-1.5 1.5-2.3 3.5-2.3 5.6 0 1.198.26 2.395.774 3.477A38.405 38.405 0 0 1 19.7 23.7a40.003 40.003 0 0 1 8.596-6.532zM16 52c0 8.5 3.4 16.6 9.4 22.6S39.5 84 48 84c8.5 0 16.6-3.4 22.6-9.4S80 60.5 80 52c0-8.5-3.4-16.6-9.4-22.6S56.5 20 48 20c-8.5 0-16.6 3.4-22.6 9.4S16 43.5 16 52zm51.704-34.832c1.504-.81 3.18-1.232 4.896-1.168 1.9-.1 3.7.6 5.1 1.9 1.5 1.5 2.3 3.5 2.3 5.6 0 1.198-.26 2.395-.774 3.477A38.405 38.405 0 0 0 76.3 23.7a40.003 40.003 0 0 0-8.596-6.532z" fill-rule="evenodd"/></svg>