<svg xmlns="http://www.w3.org/2000/svg" style="isolation:isolate" width="96" height="96"><path d="M44 83.748c-7.012-.89-13.55-4.098-18.6-9.148-6-6-9.4-14.1-9.4-22.6 0-1.1-.4-2.1-1.2-2.8-.7-.8-1.7-1.2-2.8-1.2-1.1 0-2.1.4-2.8 1.2-.8.7-1.2 1.7-1.2 2.8 0 10.6 4.2 20.8 11.7 28.3C27.2 87.8 37.4 92 48 92c10.6 0 20.8-4.2 28.3-11.7C83.8 72.8 88 62.6 88 52c0-1.1-.4-2.1-1.2-2.8-.7-.8-1.7-1.2-2.8-1.2-1.1 0-2.1.4-2.8 1.2-.8.7-1.2 1.7-1.2 2.8 0 8.5-3.4 16.6-9.4 22.6-5.05 5.05-11.588 8.258-18.6 9.148V44h8c1.1 0 2.1-.4 2.8-1.2.8-.7 1.2-1.7 1.2-2.8 0-1.1-.4-2.1-1.2-2.8-.7-.8-1.7-1.2-2.8-1.2h-8v-8.697a12.731 12.731 0 0 0 4.5-2.803c2.2-2.3 3.5-5.3 3.5-8.5s-1.3-6.2-3.5-8.5C54.2 5.3 51.2 4 48 4s-6.2 1.3-8.5 3.5C37.3 9.8 36 12.8 36 16s1.3 6.2 3.5 8.5a12.731 12.731 0 0 0 4.5 2.803V36h-8c-1.1 0-2.1.4-2.8 1.2-.8.7-1.2 1.7-1.2 2.8 0 1.1.4 2.1 1.2 2.8.7.8 1.7 1.2 2.8 1.2h8v39.748zM44 16c0 1.1.4 2.1 1.2 2.8.7.8 1.7 1.2 2.8 1.2 1.1 0 2.1-.4 2.8-1.2.8-.7 1.2-1.7 1.2-2.8 0-1.1-.4-2.1-1.2-2.8-.7-.8-1.7-1.2-2.8-1.2-1.1 0-2.1.4-2.8 1.2-.8.7-1.2 1.7-1.2 2.8z" fill-rule="evenodd"/></svg>