<svg xmlns="http://www.w3.org/2000/svg" style="isolation:isolate" width="96" height="96"><path d="M43.3 18.633a47.88 47.88 0 0 0-7.6-.625c-9.4-.4-18.2 4.4-23.2 12.5-3.3 6.6-4.548 12.742-4.5 21.2.063 11.161 2.7 19.3 8.2 27.4 5.9 8.2 15.4 13.1 25.6 13.2.1 0 3.769-.591 6.2-.6 2.31-.009 5.8.5 5.9.5 10.3 0 19.9-4.9 25.9-13.1 5.5-8 8.124-16.239 8.2-27.4.057-8.496-1.2-14.7-4.5-21.3-4.9-8.1-13.7-12.8-23.1-12.5-3.005.071-5.958.347-8.896.917.112-.275 1.696-2.717 2.396-3.517 1.5-1.6 3.1-3.1 4.7-4.6.8-.7 1.3-1.6 1.4-2.7.1-1.1-.3-2.1-1-2.9-.7-.8-1.6-1.3-2.7-1.4-1.1-.1-2.1.3-2.9 1-1.9 1.6-3.7 3.3-5.4 5.2-1.1 1.2-2.1 2.6-3 4-.827 1.502-1.427 3.062-1.7 4.725zM80 51.708c.07-6.965-.9-12.1-3.5-17.5-3.4-5.4-9.5-8.6-15.9-8.3-4.2.1-8.5.7-12.6 2-4.1-1.2-8.3-1.9-12.5-1.9-6.4-.3-12.5 2.9-15.8 8.1-2.7 5.4-3.732 10.58-3.7 17.6.041 9.274 2.1 16.1 6.7 22.8 4.4 6 11.4 9.7 18.9 9.8q3.891-.591 6.4-.6 2.388-.01 6.1.5c7.6 0 14.7-3.7 19.2-9.8 4.5-6.6 6.606-13.464 6.7-22.7z" fill-rule="evenodd"/></svg>