<svg xmlns="http://www.w3.org/2000/svg" width="96" height="96"><path d="M79.999 51.95v-.1.1c.2 7.3-2.1 14.5-6.6 20.3-4.4 5.8-10.7 9.9-17.9 11.7h-.4l-3.2-.4-3.6-.5h-.6l-3.6.5-3.2.4h-.5c-7.1-1.7-13.4-5.8-17.8-11.7-4.5-5.8-6.8-12.9-6.6-20.3-.4-5.7.3-11.2 2.1-16.4 2-3.9 5.3-7 9.4-8.6l1.2-.2c2.3.2 4.5.7 6.7 1.6 4 1.5 8.3 2.4 12.6 2.6 4.3-.2 8.5-1.1 12.6-2.6 2.1-.9 4.3-1.4 6.6-1.6l1.3.2c4 1.7 7.4 4.8 9.3 8.7 1.8 5.1 2.6 10.5 2.2 16v.2m8-.1v.1-.1.2c.2 9.2-2.8 18.1-8.4 25.4-5.6 7.2-13.6 12.3-22.5 14.4-.2.1-.3.1-.5.1l-1.7.2-4-.6-2.9-.3-2.9.3-4.1.6-1.6-.2c-.1 0-.3 0-.5-.1-8.9-2-16.9-7.1-22.5-14.4-5.7-7.2-8.6-16.2-8.4-25.4-.4-6.6.5-13.2 2.7-19.5 2.9-6 8-10.7 14.3-13.1.2-.1.5-.2.7-.2l2.1-.4c.3 0 .7-.1 1 0 3.2.2 6.4.9 9.4 2.1 3.2 1.2 6.5 1.9 9.8 2.1 3.3-.2 6.6-.9 9.6-2.1 3.1-1.2 6.3-1.9 9.5-2.2.3 0 .7 0 1 .1l2.2.4c.3 0 .5.1.8.2 6.2 2.4 11.3 7.1 14.1 13.2 2.3 6.2 3.2 12.8 2.8 19.4M47.999 91.15l-.5-.1h1l-.5.1zM50.799 18.75c-.7.8-1.7 1.2-2.8 1.2-1.1 0-2.1-.4-2.8-1.2-.8-.7-1.2-1.7-1.2-2.8 0-1.1.4-2.1 1.2-2.8l8-8c.7-.8 1.7-1.2 2.8-1.2 1.1 0 2.1.4 2.8 1.2.8.7 1.2 1.7 1.2 2.8 0 1.1-.4 2.1-1.2 2.8l-8 8z" fill-rule="evenodd" fill="#454545"/></svg>