<svg xmlns="http://www.w3.org/2000/svg" width="96" height="96"><path d="M12.586 60L19.4 12.5c0-.3.3-.5.6-.5h56c.3 0 .6.2.6.5L83.414 60H60c-2.1 0-4.2.8-5.7 2.3-1.5 1.5-2.3 3.6-2.3 5.7h-8c0-2.1-.8-4.2-2.3-5.7-1.5-1.5-3.6-2.3-5.7-2.3H12.586zM12 68v16h72V68H60c0 2.1-.8 4.2-2.3 5.7-1.5 1.5-3.6 2.3-5.7 2.3h-8c-2.1 0-4.2-.8-5.7-2.3-1.5-1.5-2.3-3.6-2.3-5.7H12zm-7.745-5.406c.078-1.037.198-2.066.345-3.094l6.9-48.1C12.1 7.2 15.7 4 20 4h56c4.3 0 7.9 3.2 8.5 7.4l6.9 48.1c.147 1.028.267 2.057.345 3.094.173.432.255 4.34.255 5.406v16c0 2.1-.8 4.2-2.3 5.7-1.5 1.5-3.6 2.3-5.7 2.3H12c-2.1 0-4.2-.8-5.7-2.3C4.8 88.2 4 86.1 4 84V68c0-1.066.082-4.974.255-5.406z" fill-rule="evenodd" fill="#454545"/></svg>