<svg xmlns="http://www.w3.org/2000/svg" width="96" height="96"><path d="M23.973 66.787l49.723-49.723c.778-.778 1.767-1.202 2.828-1.131 1.06-.071 2.05.353 2.829 1.131.777.778 1.202 1.768 1.13 2.829.072 1.06-.353 2.05-1.13 2.828L29.63 72.444l24.267.057c1.06-.07 2.05.354 2.828 1.132.778.777 1.202 1.767 1.132 2.828.07 1.06-.354 2.05-1.132 2.828-.778.778-1.768 1.203-2.828 1.132l-32.74.07q-2.575-.453-3.676-1.555-1.102-1.102-1.556-3.677l.07-32.74c-.07-1.06.354-2.05 1.132-2.828.778-.777 1.768-1.202 2.829-1.13 1.06-.072 2.05.353 2.828 1.13.778.778 1.202 1.768 1.131 2.829l.058 24.267z" fill="#454545"/></svg>