<svg xmlns="http://www.w3.org/2000/svg" width="96" height="96"><path d="M72.444 29.63L22.72 79.353c-.778.777-1.768 1.202-2.828 1.13-1.061.072-2.051-.353-2.829-1.13-.778-.778-1.202-1.768-1.131-2.829-.071-1.06.353-2.05 1.131-2.828l49.723-49.723-24.267-.058c-1.06.071-2.05-.353-2.829-1.131-.777-.778-1.202-1.768-1.13-2.828-.072-1.061.353-2.051 1.13-2.829.778-.778 1.768-1.202 2.829-1.131l32.739-.07q2.575.453 3.677 1.555 1.102 1.101 1.556 3.677l-.071 32.739c.07 1.06-.354 2.05-1.132 2.828-.777.778-1.767 1.202-2.828 1.132-1.06.07-2.05-.354-2.828-1.132-.778-.778-1.202-1.768-1.132-2.828l-.057-24.267z" fill="#454545"/></svg>