<svg xmlns="http://www.w3.org/2000/svg" width="96" height="96"><path d="M72.444 66.787L22.72 17.064c-.778-.778-1.768-1.202-2.828-1.131-1.061-.071-2.051.353-2.829 1.131s-1.202 1.768-1.131 2.829c-.071 1.06.353 2.05 1.131 2.828l49.723 49.723-24.267.057c-1.06-.07-2.05.354-2.829 1.132-.777.777-1.202 1.767-1.13 2.828-.072 1.06.353 2.05 1.13 2.828.778.778 1.768 1.203 2.829 1.132l32.739.07q2.575-.453 3.677-1.555 1.102-1.102 1.556-3.677l-.071-32.74c.07-1.06-.354-2.05-1.132-2.828-.777-.777-1.767-1.202-2.828-1.13-1.06-.072-2.05.353-2.828 1.13-.778.778-1.202 1.768-1.132 2.829l-.057 24.267z" fill="#454545"/></svg>