<svg xmlns="http://www.w3.org/2000/svg" width="96" height="96"><path d="M56 60c1.1 0 2.1.4 2.8 1.2.8.7 1.2 1.7 1.2 2.8 0 1.1-.4 2.1-1.2 2.8-.7.8-1.7 1.2-2.8 1.2H40c-1.1 0-2.1-.4-2.8-1.2-.8-.7-1.2-1.7-1.2-2.8 0-1.1.4-2.1 1.2-2.8.7-.8 1.7-1.2 2.8-1.2h16zm7.953-36H70c4.3 0 8 3.3 8.4 7.6l5.2 56.1v.7c0 2-.8 4-2.2 5.4C80 95.2 78 96 76 96H20c-2 0-4-.8-5.4-2.2-1.4-1.4-2.2-3.4-2.2-5.4v-.7l5.2-56.1C18 27.3 21.7 24 26 24h6.047L32 22.1c-.1-5.3 1.3-10.4 4.1-14.9 2.5-4.3 7-7 11.9-7.2 4.9.2 9.4 2.9 11.9 7.2 2.8 4.5 4.2 9.6 4.1 14.9l-.047 1.9zm-8.006 0H40.052L40 21.9c-.1-3.7.9-7.4 2.9-10.6C44 9.5 45.9 8.2 48 8c2.1.2 4 1.5 5.1 3.3 2 3.2 3 6.9 2.9 10.6l-.053 2.1zM20.4 88H76v.6h-.4V88l-5.2-55.6c0-.2-.2-.4-.4-.4H26c-.2 0-.4.2-.4.4L20.4 88v.6H20V88h.4z" fill-rule="evenodd" fill="#454545"/></svg>