<?xml version="1.0" standalone="no"?><!-- Generator: Gravit.io --><svg xmlns="http://www.w3.org/2000/svg" xmlns:xlink="http://www.w3.org/1999/xlink" width="96" height="96"><path d=" M 12 32 L 12 64 L 76 64 L 76 60 C 76 57.9 76.8 55.8 78.3 54.3 C 79.8 52.8 81.9 52 84 52 L 84 44 C 81.9 44 79.8 43.2 78.3 41.7 C 76.8 40.2 76 38.1 76 36 L 76 32 L 12 32 Z  M 4 32 L 4 64 C 4 66.1 4.8 68.2 6.3 69.7 C 7.8 71.2 9.9 72 12 72 L 76 72 C 78.1 72 80.2 71.2 81.7 69.7 C 83.2 68.2 84 66.1 84 64 L 84 60 C 86.1 60 88.2 59.2 89.7 57.7 C 91.2 56.2 92 54.1 92 52 L 92 44 C 92 41.9 91.2 39.8 89.7 38.3 C 88.2 36.8 86.1 36 84 36 L 84 32 C 84 29.9 83.2 27.8 81.7 26.3 C 80.2 24.8 78.1 24 76 24 L 12 24 C 9.9 24 7.8 24.8 6.3 26.3 C 4.8 27.8 4 29.9 4 32 Z " fill-rule="evenodd" fill="#454545" stroke="none"/><mask id="_mask_qrbjxEWkt887CbvuN1qLoOYxRjWxEBQ9"><path d=" M 12 32 L 12 64 L 76 64 L 76 60 C 76 57.9 76.8 55.8 78.3 54.3 C 79.8 52.8 81.9 52 84 52 L 84 44 C 81.9 44 79.8 43.2 78.3 41.7 C 76.8 40.2 76 38.1 76 36 L 76 32 L 12 32 Z  M 4 32 L 4 64 C 4 66.1 4.8 68.2 6.3 69.7 C 7.8 71.2 9.9 72 12 72 L 76 72 C 78.1 72 80.2 71.2 81.7 69.7 C 83.2 68.2 84 66.1 84 64 L 84 60 C 86.1 60 88.2 59.2 89.7 57.7 C 91.2 56.2 92 54.1 92 52 L 92 44 C 92 41.9 91.2 39.8 89.7 38.3 C 88.2 36.8 86.1 36 84 36 L 84 32 C 84 29.9 83.2 27.8 81.7 26.3 C 80.2 24.8 78.1 24 76 24 L 12 24 C 9.9 24 7.8 24.8 6.3 26.3 C 4.8 27.8 4 29.9 4 32 Z " fill-rule="evenodd" fill="white" stroke="none"/></mask><path d=" M 12 32 L 12 64 L 76 64 L 76 60 C 76 57.9 76.8 55.8 78.3 54.3 C 79.8 52.8 81.9 52 84 52 L 84 44 C 81.9 44 79.8 43.2 78.3 41.7 C 76.8 40.2 76 38.1 76 36 L 76 32 L 12 32 Z  M 4 32 L 4 64 C 4 66.1 4.8 68.2 6.3 69.7 C 7.8 71.2 9.9 72 12 72 L 76 72 C 78.1 72 80.2 71.2 81.7 69.7 C 83.2 68.2 84 66.1 84 64 L 84 60 C 86.1 60 88.2 59.2 89.7 57.7 C 91.2 56.2 92 54.1 92 52 L 92 44 C 92 41.9 91.2 39.8 89.7 38.3 C 88.2 36.8 86.1 36 84 36 L 84 32 C 84 29.9 83.2 27.8 81.7 26.3 C 80.2 24.8 78.1 24 76 24 L 12 24 C 9.9 24 7.8 24.8 6.3 26.3 C 4.8 27.8 4 29.9 4 32 Z " fill-rule="evenodd" fill="none" stroke="none" stroke-width="16" mask="url(#_mask_qrbjxEWkt887CbvuN1qLoOYxRjWxEBQ9)"/></svg>