<svg xmlns="http://www.w3.org/2000/svg" width="96" height="96"><path d="M54.757 12.996C62.427 14.997 69.164 19.83 73.6 26.6 80.9 37.7 84.5 50.9 84 64.2l-.19 3.8H88c1.1 0 2.1.4 2.8 1.2.8.7 1.2 1.7 1.2 2.8 0 1.1-.4 2.1-1.2 2.8-.7.8-1.7 1.2-2.8 1.2H60c0 3.2-1.3 6.2-3.5 8.5-2.3 2.2-5.3 3.5-8.5 3.5s-6.2-1.3-8.5-3.5C37.3 82.2 36 79.2 36 76H8c-1.1 0-2.1-.4-2.8-1.2C4.4 74.1 4 73.1 4 72c0-1.1.4-2.1 1.2-2.8.7-.8 1.7-1.2 2.8-1.2h4.19L12 64.2c-.5-13.3 3.1-26.5 10.4-37.6 4.436-6.77 11.172-11.603 18.843-13.604C42.165 10.426 46.07 6 48 6c1.93 0 5.835 4.426 6.757 6.996zM20.168 68h55.664L76 63.8c.5-11.6-2.7-23.1-9.1-32.8-4.2-6.5-11.2-10.6-18.9-11-7.7.4-14.7 4.5-18.9 11-6.4 9.7-9.6 21.2-9.1 32.8l.168 4.2zM52 76c0 1.1-.4 2.1-1.2 2.8-.7.8-1.7 1.2-2.8 1.2-1.1 0-2.1-.4-2.8-1.2-.8-.7-1.2-1.7-1.2-2.8h8z" fill-rule="evenodd" fill="#454545"/></svg>