<svg xmlns="http://www.w3.org/2000/svg" style="isolation:isolate" width="96" height="96"><path d="M60 60c0-3.2 1.3-6.2 3.5-8.5 2.3-2.2 5.3-3.5 8.5-3.5s6.2 1.3 8.5 3.5c2.2 2.3 3.5 5.3 3.5 8.5s-1.3 6.2-3.5 8.5C78.2 70.7 75.2 72 72 72s-6.2-1.3-8.5-3.5C61.3 66.2 60 63.2 60 60zm8 0c0-1.1.4-2.1 1.2-2.8.7-.8 1.7-1.2 2.8-1.2 1.1 0 2.1.4 2.8 1.2.8.7 1.2 1.7 1.2 2.8 0 1.1-.4 2.1-1.2 2.8-.7.8-1.7 1.2-2.8 1.2-1.1 0-2.1-.4-2.8-1.2-.8-.7-1.2-1.7-1.2-2.8zm-56 0c0-3.2 1.3-6.2 3.5-8.5 2.3-2.2 5.3-3.5 8.5-3.5s6.2 1.3 8.5 3.5c2.2 2.3 3.5 5.3 3.5 8.5s-1.3 6.2-3.5 8.5C30.2 70.7 27.2 72 24 72s-6.2-1.3-8.5-3.5C13.3 66.2 12 63.2 12 60zm8 0c0-1.1.4-2.1 1.2-2.8.7-.8 1.7-1.2 2.8-1.2 1.1 0 2.1.4 2.8 1.2.8.7 1.2 1.7 1.2 2.8 0 1.1-.4 2.1-1.2 2.8-.7.8-1.7 1.2-2.8 1.2-1.1 0-2.1-.4-2.8-1.2-.8-.7-1.2-1.7-1.2-2.8zm19-3c0-2.4 1-4.7 2.7-6.4 1.6-1.7 3.9-2.6 6.3-2.6s4.7.9 6.3 2.6c1.7 1.7 2.7 4 2.7 6.4-.1 2.8-.1 5.5-.1 8.2 1.9 6.7 8.1 11.2 15 10.8 4.2 0 8.3-1.6 11.3-4.6 3.1-3 4.8-7 4.8-11.3-.2-2.5-.9-4.9-2.1-7.1q-.1-.1-1.4-3.1c-2.1-3.3-4.2-6.5-6.5-9.6-3.1-4.1-6.3-8.2-9.7-12.1-1.2-1.2-2-2.8-2.4-4.5 0-.1-.573-.443-1-.6-1.544-.568-2.9.5-3.9 1.6-1.3.9-2.7 1.8-4.1 2.6-.9.4-1.9.7-2.9.7H42c-1 0-2-.3-2.9-.7-1.4-.8-2.8-1.7-4.1-2.6-1-1.1-2.356-2.168-3.9-1.6-.427.157-1 .5-1 .6-.5 1.8-1.4 3.4-2.8 4.6-3.8 3.9-7.4 8-10.6 12.4-2 2.8-3.7 5.7-5 8.9 0 0-1.5 3.3-1.6 3.4-1.2 2.2-1.9 4.6-2.1 7.1 0 4.3 1.7 8.3 4.8 11.3 3 3 7.1 4.6 11.3 4.6 6.9.4 13.1-4.1 15-10.8 0-2.7 0-5.4-.1-8.2zm14.5-37h-11c-.8-.4-1.6-.9-2.3-1.4-2.4-2.2-5.5-3.5-8.7-3.5-2.3-.1-4.6.6-6.3 2.1-1.5 1.2-2.5 2.9-2.9 4.7-.1.2-.2.4-.4.5-4.2 4.2-8.1 8.8-11.6 13.6-2.4 3.2-4.4 6.7-6 10.4L3 49.2C1.3 52.5.2 56.1 0 59.9c0 6.3 2.5 12.5 7 17 4.4 4.5 10.5 7.1 16.9 7.1 10.7.5 20.4-6.7 23-17.1.1-.5.2-1 .2-1.4 0-2.9 0-5.7-.1-8.5 0-.6.5-1 1-1s1 .4 1 1c-.1 2.8-.1 5.6-.1 8.5 0 .4.1.9.2 1.4C51.7 77.3 61.4 84.5 72.2 84c6.3 0 12.4-2.6 16.8-7.1 4.5-4.5 7-10.7 7-17-.2-3.8-1.3-7.4-3-10.7l-1.4-2.9c0-.1-4.7-7.4-7.2-10.7-3.3-4.4-6.7-8.7-10.2-12.8-.2-.2-.4-.5-.5-.9-.4-1.8-1.4-3.5-2.9-4.7-1.7-1.5-4-2.2-6.3-2.1-3.2 0-6.3 1.3-8.7 3.5-.7.5-1.5 1-2.3 1.4zM44 40c0-2.208 1.792-4 4-4s4 1.792 4 4-1.792 4-4 4-4-1.792-4-4z" fill-rule="evenodd"/></svg>