<?xml version="1.0" standalone="no"?><!-- Generator: Gravit.io --><svg xmlns="http://www.w3.org/2000/svg" xmlns:xlink="http://www.w3.org/1999/xlink" width="96" height="96"><path d=" M 43.58333333333 20.00224906289046 L 43.5 16.00224906289046 C 42.9 11.702249062890463 39.8 12.00224906289046 35.5 12.00224906289046 L 20.5 12.00224906289046 C 16.200000000000003 12.00224906289046 12.600000000000001 15.102249062890461 12 19.40224906289046 Q 4.5 60.9425914243416 4.5 64.00224906289046 C 4.5 69.30224906289045 6.600000000000001 74.40224906289046 10.4 78.10224906289045 C 14.100000000000001 81.90224906289046 19.2 84.00224906289046 24.5 84.00224906289046 C 29.8 84.00224906289046 34.9 81.90224906289046 38.6 78.10224906289045 C 42.4 74.40224906289046 44.5 69.30224906289045 44.5 64.00224906289046 L 44.5 64.00224906289046 L 44.41666666667 60.002249062890456 L 51.5 60.002249062890456 L 51.5 60.002249062890456 L 51.5 64.00224906289046 C 51.5 69.30224906289045 53.6 74.40224906289046 57.4 78.10224906289045 C 61.1 81.90224906289046 66.2 84.00224906289046 71.5 84.00224906289046 C 76.8 84.00224906289046 81.9 81.90224906289046 85.6 78.10224906289045 C 89.4 74.40224906289046 91.5 69.30224906289045 91.5 64.00224906289046 Q 91.5 60.9425914243416 84 19.40224906289046 C 83.4 15.102249062890461 79.8 12.00224906289046 75.5 12.00224906289046 L 60.5 12.00224906289046 C 56.2 12.00224906289046 52.1 11.702249062890463 51.5 16.00224906289046 L 51.5 20.00224906289046 L 43.58333333333 20.00224906289046 Z  M 43.75 28.00224906289046 L 44.25 52.002249062890456 L 51.5 52.002249062890456 L 51.5 28.00224906289046 L 43.75 28.00224906289046 Z  M 34.89233257049 46.854694580450456 C 32.29039932032288 45.64215876193215 27.425671550591996 44.002249062890456 24.5 44.002249062890456 C 21.574328449408004 44.002249062890456 18.709600679677123 44.64215876193215 16.10766742951 45.854694580450456 L 19.9 20.50224906289046 C 19.9 20.20224906289046 20.2 20.00224906289046 20.5 20.00224906289046 L 35.5 20.00224906289046 C 35.8 20.00224906289046 36.1 20.20224906289046 36.1 20.50224906289046 L 34.89233257049 46.854694580450456 L 34.89233257049 46.854694580450456 Z  M 36.5 64.00224906289046 C 36.5 60.80224906289045 35.2 57.80224906289045 33 55.502249062890456 C 30.7 53.30224906289045 27.7 52.002249062890456 24.5 52.002249062890456 C 21.3 52.002249062890456 18.3 53.30224906289045 16 55.502249062890456 C 13.799999999999997 57.80224906289045 12.5 60.80224906289045 12.5 64.00224906289046 C 12.5 67.20224906289046 13.799999999999997 70.20224906289046 16 72.50224906289046 C 18.3 74.70224906289046 21.3 76.00224906289046 24.5 76.00224906289046 C 27.7 76.00224906289046 30.7 74.70224906289046 33 72.50224906289046 C 35.2 70.20224906289046 36.5 67.20224906289046 36.5 64.00224906289046 L 36.5 64.00224906289046 Z  M 59.5 64.00224906289046 C 59.5 67.20224906289046 60.8 70.20224906289046 63 72.50224906289046 C 65.3 74.70224906289046 68.3 76.00224906289046 71.5 76.00224906289046 C 74.7 76.00224906289046 77.7 74.70224906289046 80 72.50224906289046 C 82.2 70.20224906289046 83.5 67.20224906289046 83.5 64.00224906289046 C 83.5 60.80224906289045 82.2 57.80224906289045 80 55.502249062890456 C 77.7 53.30224906289045 74.7 52.002249062890456 71.5 52.002249062890456 C 68.3 52.002249062890456 65.3 53.30224906289045 63 55.502249062890456 C 60.8 57.80224906289045 59.5 60.80224906289045 59.5 64.00224906289046 L 59.5 64.00224906289046 Z  M 61.10766742951 46.854694580450456 L 59.9 20.50224906289046 C 59.9 20.20224906289046 60.2 20.00224906289046 60.5 20.00224906289046 L 75.5 20.00224906289046 C 75.8 20.00224906289046 76.1 20.20224906289046 76.1 20.50224906289046 L 79.89233257049 45.854694580450456 C 77.29039932032288 44.64215876193215 74.425671550592 44.002249062890456 71.5 44.002249062890456 C 68.574328449408 44.002249062890456 63.70960067967712 45.64215876193215 61.10766742951 46.854694580450456 L 61.10766742951 46.854694580450456 Z " fill-rule="evenodd" fill="#454545" stroke="none"/><mask id="_mask_J2GqNEvcSHDi6s3Rc24XGhwFNphy8Wgi"><path d=" M 43.58333333333 20.00224906289046 L 43.5 16.00224906289046 C 42.9 11.702249062890463 39.8 12.00224906289046 35.5 12.00224906289046 L 20.5 12.00224906289046 C 16.200000000000003 12.00224906289046 12.600000000000001 15.102249062890461 12 19.40224906289046 Q 4.5 60.9425914243416 4.5 64.00224906289046 C 4.5 69.30224906289045 6.600000000000001 74.40224906289046 10.4 78.10224906289045 C 14.100000000000001 81.90224906289046 19.2 84.00224906289046 24.5 84.00224906289046 C 29.8 84.00224906289046 34.9 81.90224906289046 38.6 78.10224906289045 C 42.4 74.40224906289046 44.5 69.30224906289045 44.5 64.00224906289046 L 44.5 64.00224906289046 L 44.41666666667 60.002249062890456 L 51.5 60.002249062890456 L 51.5 60.002249062890456 L 51.5 64.00224906289046 C 51.5 69.30224906289045 53.6 74.40224906289046 57.4 78.10224906289045 C 61.1 81.90224906289046 66.2 84.00224906289046 71.5 84.00224906289046 C 76.8 84.00224906289046 81.9 81.90224906289046 85.6 78.10224906289045 C 89.4 74.40224906289046 91.5 69.30224906289045 91.5 64.00224906289046 Q 91.5 60.9425914243416 84 19.40224906289046 C 83.4 15.102249062890461 79.8 12.00224906289046 75.5 12.00224906289046 L 60.5 12.00224906289046 C 56.2 12.00224906289046 52.1 11.702249062890463 51.5 16.00224906289046 L 51.5 20.00224906289046 L 43.58333333333 20.00224906289046 Z  M 43.75 28.00224906289046 L 44.25 52.002249062890456 L 51.5 52.002249062890456 L 51.5 28.00224906289046 L 43.75 28.00224906289046 Z  M 34.89233257049 46.854694580450456 C 32.29039932032288 45.64215876193215 27.425671550591996 44.002249062890456 24.5 44.002249062890456 C 21.574328449408004 44.002249062890456 18.709600679677123 44.64215876193215 16.10766742951 45.854694580450456 L 19.9 20.50224906289046 C 19.9 20.20224906289046 20.2 20.00224906289046 20.5 20.00224906289046 L 35.5 20.00224906289046 C 35.8 20.00224906289046 36.1 20.20224906289046 36.1 20.50224906289046 L 34.89233257049 46.854694580450456 L 34.89233257049 46.854694580450456 Z  M 36.5 64.00224906289046 C 36.5 60.80224906289045 35.2 57.80224906289045 33 55.502249062890456 C 30.7 53.30224906289045 27.7 52.002249062890456 24.5 52.002249062890456 C 21.3 52.002249062890456 18.3 53.30224906289045 16 55.502249062890456 C 13.799999999999997 57.80224906289045 12.5 60.80224906289045 12.5 64.00224906289046 C 12.5 67.20224906289046 13.799999999999997 70.20224906289046 16 72.50224906289046 C 18.3 74.70224906289046 21.3 76.00224906289046 24.5 76.00224906289046 C 27.7 76.00224906289046 30.7 74.70224906289046 33 72.50224906289046 C 35.2 70.20224906289046 36.5 67.20224906289046 36.5 64.00224906289046 L 36.5 64.00224906289046 Z  M 59.5 64.00224906289046 C 59.5 67.20224906289046 60.8 70.20224906289046 63 72.50224906289046 C 65.3 74.70224906289046 68.3 76.00224906289046 71.5 76.00224906289046 C 74.7 76.00224906289046 77.7 74.70224906289046 80 72.50224906289046 C 82.2 70.20224906289046 83.5 67.20224906289046 83.5 64.00224906289046 C 83.5 60.80224906289045 82.2 57.80224906289045 80 55.502249062890456 C 77.7 53.30224906289045 74.7 52.002249062890456 71.5 52.002249062890456 C 68.3 52.002249062890456 65.3 53.30224906289045 63 55.502249062890456 C 60.8 57.80224906289045 59.5 60.80224906289045 59.5 64.00224906289046 L 59.5 64.00224906289046 Z  M 61.10766742951 46.854694580450456 L 59.9 20.50224906289046 C 59.9 20.20224906289046 60.2 20.00224906289046 60.5 20.00224906289046 L 75.5 20.00224906289046 C 75.8 20.00224906289046 76.1 20.20224906289046 76.1 20.50224906289046 L 79.89233257049 45.854694580450456 C 77.29039932032288 44.64215876193215 74.425671550592 44.002249062890456 71.5 44.002249062890456 C 68.574328449408 44.002249062890456 63.70960067967712 45.64215876193215 61.10766742951 46.854694580450456 L 61.10766742951 46.854694580450456 Z " fill-rule="evenodd" fill="white" stroke="none"/></mask><path d=" M 43.58333333333 20.00224906289046 L 43.5 16.00224906289046 C 42.9 11.702249062890463 39.8 12.00224906289046 35.5 12.00224906289046 L 20.5 12.00224906289046 C 16.200000000000003 12.00224906289046 12.600000000000001 15.102249062890461 12 19.40224906289046 Q 4.5 60.9425914243416 4.5 64.00224906289046 C 4.5 69.30224906289045 6.600000000000001 74.40224906289046 10.4 78.10224906289045 C 14.100000000000001 81.90224906289046 19.2 84.00224906289046 24.5 84.00224906289046 C 29.8 84.00224906289046 34.9 81.90224906289046 38.6 78.10224906289045 C 42.4 74.40224906289046 44.5 69.30224906289045 44.5 64.00224906289046 L 44.5 64.00224906289046 L 44.41666666667 60.002249062890456 L 51.5 60.002249062890456 L 51.5 60.002249062890456 L 51.5 64.00224906289046 C 51.5 69.30224906289045 53.6 74.40224906289046 57.4 78.10224906289045 C 61.1 81.90224906289046 66.2 84.00224906289046 71.5 84.00224906289046 C 76.8 84.00224906289046 81.9 81.90224906289046 85.6 78.10224906289045 C 89.4 74.40224906289046 91.5 69.30224906289045 91.5 64.00224906289046 Q 91.5 60.9425914243416 84 19.40224906289046 C 83.4 15.102249062890461 79.8 12.00224906289046 75.5 12.00224906289046 L 60.5 12.00224906289046 C 56.2 12.00224906289046 52.1 11.702249062890463 51.5 16.00224906289046 L 51.5 20.00224906289046 L 43.58333333333 20.00224906289046 Z  M 43.75 28.00224906289046 L 44.25 52.002249062890456 L 51.5 52.002249062890456 L 51.5 28.00224906289046 L 43.75 28.00224906289046 Z  M 34.89233257049 46.854694580450456 C 32.29039932032288 45.64215876193215 27.425671550591996 44.002249062890456 24.5 44.002249062890456 C 21.574328449408004 44.002249062890456 18.709600679677123 44.64215876193215 16.10766742951 45.854694580450456 L 19.9 20.50224906289046 C 19.9 20.20224906289046 20.2 20.00224906289046 20.5 20.00224906289046 L 35.5 20.00224906289046 C 35.8 20.00224906289046 36.1 20.20224906289046 36.1 20.50224906289046 L 34.89233257049 46.854694580450456 L 34.89233257049 46.854694580450456 Z  M 36.5 64.00224906289046 C 36.5 60.80224906289045 35.2 57.80224906289045 33 55.502249062890456 C 30.7 53.30224906289045 27.7 52.002249062890456 24.5 52.002249062890456 C 21.3 52.002249062890456 18.3 53.30224906289045 16 55.502249062890456 C 13.799999999999997 57.80224906289045 12.5 60.80224906289045 12.5 64.00224906289046 C 12.5 67.20224906289046 13.799999999999997 70.20224906289046 16 72.50224906289046 C 18.3 74.70224906289046 21.3 76.00224906289046 24.5 76.00224906289046 C 27.7 76.00224906289046 30.7 74.70224906289046 33 72.50224906289046 C 35.2 70.20224906289046 36.5 67.20224906289046 36.5 64.00224906289046 L 36.5 64.00224906289046 Z  M 59.5 64.00224906289046 C 59.5 67.20224906289046 60.8 70.20224906289046 63 72.50224906289046 C 65.3 74.70224906289046 68.3 76.00224906289046 71.5 76.00224906289046 C 74.7 76.00224906289046 77.7 74.70224906289046 80 72.50224906289046 C 82.2 70.20224906289046 83.5 67.20224906289046 83.5 64.00224906289046 C 83.5 60.80224906289045 82.2 57.80224906289045 80 55.502249062890456 C 77.7 53.30224906289045 74.7 52.002249062890456 71.5 52.002249062890456 C 68.3 52.002249062890456 65.3 53.30224906289045 63 55.502249062890456 C 60.8 57.80224906289045 59.5 60.80224906289045 59.5 64.00224906289046 L 59.5 64.00224906289046 Z  M 61.10766742951 46.854694580450456 L 59.9 20.50224906289046 C 59.9 20.20224906289046 60.2 20.00224906289046 60.5 20.00224906289046 L 75.5 20.00224906289046 C 75.8 20.00224906289046 76.1 20.20224906289046 76.1 20.50224906289046 L 79.89233257049 45.854694580450456 C 77.29039932032288 44.64215876193215 74.425671550592 44.002249062890456 71.5 44.002249062890456 C 68.574328449408 44.002249062890456 63.70960067967712 45.64215876193215 61.10766742951 46.854694580450456 L 61.10766742951 46.854694580450456 Z " fill-rule="evenodd" fill="none" stroke="none" stroke-width="16" mask="url(#_mask_J2GqNEvcSHDi6s3Rc24XGhwFNphy8Wgi)"/></svg>