<svg xmlns="http://www.w3.org/2000/svg" width="96" height="96"><path d="M43.583 20.002l-.083-4c-.6-4.3-3.7-4-8-4h-15c-4.3 0-7.9 3.1-8.5 7.4q-7.5 41.54-7.5 44.6c0 5.3 2.1 10.4 5.9 14.1 3.7 3.8 8.8 5.9 14.1 5.9 5.3 0 10.4-2.1 14.1-5.9 3.8-3.7 5.9-8.8 5.9-14.1l-.083-4H51.5v4c0 5.3 2.1 10.4 5.9 14.1 3.7 3.8 8.8 5.9 14.1 5.9 5.3 0 10.4-2.1 14.1-5.9 3.8-3.7 5.9-8.8 5.9-14.1q0-3.06-7.5-44.6c-.6-4.3-4.2-7.4-8.5-7.4h-15c-4.3 0-8.4-.3-9 4v4h-7.917zm.167 8l.5 24h7.25v-24h-7.75zm-8.858 18.853c-2.602-1.213-7.466-2.853-10.392-2.853-2.926 0-5.79.64-8.392 1.853L19.9 20.502c0-.3.3-.5.6-.5h15c.3 0 .6.2.6.5l-1.208 26.353zM36.5 64.002c0-3.2-1.3-6.2-3.5-8.5-2.3-2.2-5.3-3.5-8.5-3.5s-6.2 1.3-8.5 3.5c-2.2 2.3-3.5 5.3-3.5 8.5s1.3 6.2 3.5 8.5c2.3 2.2 5.3 3.5 8.5 3.5s6.2-1.3 8.5-3.5c2.2-2.3 3.5-5.3 3.5-8.5zm23 0c0 3.2 1.3 6.2 3.5 8.5 2.3 2.2 5.3 3.5 8.5 3.5s6.2-1.3 8.5-3.5c2.2-2.3 3.5-5.3 3.5-8.5s-1.3-6.2-3.5-8.5c-2.3-2.2-5.3-3.5-8.5-3.5s-6.2 1.3-8.5 3.5c-2.2 2.3-3.5 5.3-3.5 8.5zm1.608-17.147L59.9 20.502c0-.3.3-.5.6-.5h15c.3 0 .6.2.6.5l3.792 25.353a19.871 19.871 0 0 0-8.392-1.853c-2.926 0-7.79 1.64-10.392 2.853z" fill-rule="evenodd" fill="#454545"/></svg>