<svg xmlns="http://www.w3.org/2000/svg" style="isolation:isolate" width="96" height="96"><path d="M66.47 48a24.793 24.793 0 0 1 1.78 1.7c1.3 1.3 2.4 2.8 3.3 4.5 1.6 3 2.4 6.4 2.5 9.8-.1 3.4-.9 6.8-2.5 9.8-.8 1.6-1.8 3-2.8 4.3-1 1.2-2 2.2-3.2 3-2.9 1.9-6.2 2.9-9.6 2.9h-28c-1.1 0-2.1-.4-2.8-1.2-.8-.7-1.2-1.7-1.2-2.8V16c0-1.1.4-2.1 1.2-2.8.7-.8 1.7-1.2 2.8-1.2h28c3.4 0 6.7 1 9.6 2.9 1.2.8 2.2 1.8 3.2 3 1 1.3 2 2.7 2.8 4.3 1.6 3 2.4 6.4 2.5 9.8-.1 3.4-.9 6.8-2.5 9.8-.9 1.7-2 3.2-3.3 4.5a24.793 24.793 0 0 1-1.78 1.7zM31.95 76h24c1.8 0 3.6-.5 5.1-1.6.5-.3 1-.8 1.5-1.3.7-.9 1.3-1.9 1.8-2.9 1.1-1.9 1.6-4 1.7-6.2-.1-2.2-.6-4.3-1.7-6.2-.4-.9-1-1.7-1.7-2.5-1.3-1.2-2.6-2.3-4-3.3h-26.7v24zm0-56v24h26.7c1.4-1 2.7-2.1 4-3.3.7-.8 1.3-1.6 1.7-2.5 1.1-1.9 1.6-4 1.7-6.2-.1-2.2-.6-4.3-1.7-6.2-.5-1-1.1-2-1.8-2.9-.5-.5-1-1-1.5-1.3-1.5-1.1-3.3-1.6-5.1-1.6h-24z" fill-rule="evenodd"/></svg>