<?xml version="1.0" standalone="no"?><!-- Generator: Gravit.io --><svg xmlns="http://www.w3.org/2000/svg" xmlns:xlink="http://www.w3.org/1999/xlink" width="96" height="96"><path d=" M 8.32015649639891 56.4455756665849 L 28.097631245172224 17.806250000000002 C 29.89763124517222 14.20625 33.49763124517222 12.006250000000001 37.49763124517222 12.006250000000001 L 77.29763124517223 12.006250000000001 L 77.29763124517223 12.006250000000001 C 78.99763124517222 11.906250000000002 80.59763124517221 12.406250000000002 81.89763124517222 13.506250000000001 C 83.09763124517221 14.606250000000001 83.89763124517222 16.106250000000003 84.09763124517221 17.70625 C 84.09763124517221 18.20625 84.09763124517221 18.70625 83.99763124517222 19.106250000000003 L 83.49763124517222 21.00625 L 62.89763124517222 62.206250000000004 C 61.097631245172224 65.80625 57.49763124517222 68.00625 53.49763124517222 68.00625 L 18.497631245172222 68.00625 C 16.289971165172222 68.00625 14.497631245172222 69.79858992 14.497631245172222 72.00625 L 14.497631245172222 72.00625 C 14.497631245172222 73.10624999999999 14.897631245172223 74.10624999999999 15.697631245172222 74.80625 C 16.39763124517222 75.60624999999999 17.39763124517222 76.00625 18.497631245172222 76.00625 L 57.49763124517222 76.00625 C 58.39763124517222 76.00625 59.29763124517222 75.50625 59.697631245172225 74.60624999999999 L 81.89763124517222 30.20625 C 82.39763124517222 29.306250000000002 83.19763124517223 28.50625 84.19763124517223 28.20625 C 85.19763124517223 27.90625 86.29763124517223 27.90625 87.29763124517223 28.40625 C 88.19763124517223 28.90625 88.99763124517222 29.70625 89.29763124517223 30.70625 C 89.59763124517221 31.70625 89.59763124517221 32.806250000000006 89.09763124517221 33.806250000000006 L 66.89763124517222 78.20625000000001 C 65.09763124517221 81.80625 61.49763124517222 84.00625 57.49763124517222 84.00625 L 18.497631245172222 84.00625 C 15.297631245172223 84.00625 12.297631245172223 82.70625000000001 9.997631245172222 80.50625 C 7.797631245172222 78.20625000000001 6.497631245172222 75.20625000000001 6.497631245172222 72.00625 L 6.497631245172222 68.00625 Q 6.497631245172222 67.07723036544445 6.497631245172222 64.00625 C 6.497631245172222 61.79858992 7.314277435917628 58.410765312525186 8.32015649639891 56.4455756665849 Z  M 74.99763124517222 20.00625 L 55.697631245172225 58.60625 C 55.29763124517222 59.50625 54.39763124517222 60.00625 53.49763124517222 60.00625 L 15.997631245172222 60.00625 L 35.29763124517222 21.40625 C 35.697631245172225 20.50625 36.597631245172224 20.00625 37.49763124517222 20.00625 L 74.99763124517222 20.00625 L 74.99763124517222 20.00625 Z " fill-rule="evenodd" fill="#454545" stroke="none"/><mask id="_mask_uVqrVAXtmlINPNj1xDoxnrEovNz6YkTB"><path d=" M 8.32015649639891 56.4455756665849 L 28.097631245172224 17.806250000000002 C 29.89763124517222 14.20625 33.49763124517222 12.006250000000001 37.49763124517222 12.006250000000001 L 77.29763124517223 12.006250000000001 L 77.29763124517223 12.006250000000001 C 78.99763124517222 11.906250000000002 80.59763124517221 12.406250000000002 81.89763124517222 13.506250000000001 C 83.09763124517221 14.606250000000001 83.89763124517222 16.106250000000003 84.09763124517221 17.70625 C 84.09763124517221 18.20625 84.09763124517221 18.70625 83.99763124517222 19.106250000000003 L 83.49763124517222 21.00625 L 62.89763124517222 62.206250000000004 C 61.097631245172224 65.80625 57.49763124517222 68.00625 53.49763124517222 68.00625 L 18.497631245172222 68.00625 C 16.289971165172222 68.00625 14.497631245172222 69.79858992 14.497631245172222 72.00625 L 14.497631245172222 72.00625 C 14.497631245172222 73.10624999999999 14.897631245172223 74.10624999999999 15.697631245172222 74.80625 C 16.39763124517222 75.60624999999999 17.39763124517222 76.00625 18.497631245172222 76.00625 L 57.49763124517222 76.00625 C 58.39763124517222 76.00625 59.29763124517222 75.50625 59.697631245172225 74.60624999999999 L 81.89763124517222 30.20625 C 82.39763124517222 29.306250000000002 83.19763124517223 28.50625 84.19763124517223 28.20625 C 85.19763124517223 27.90625 86.29763124517223 27.90625 87.29763124517223 28.40625 C 88.19763124517223 28.90625 88.99763124517222 29.70625 89.29763124517223 30.70625 C 89.59763124517221 31.70625 89.59763124517221 32.806250000000006 89.09763124517221 33.806250000000006 L 66.89763124517222 78.20625000000001 C 65.09763124517221 81.80625 61.49763124517222 84.00625 57.49763124517222 84.00625 L 18.497631245172222 84.00625 C 15.297631245172223 84.00625 12.297631245172223 82.70625000000001 9.997631245172222 80.50625 C 7.797631245172222 78.20625000000001 6.497631245172222 75.20625000000001 6.497631245172222 72.00625 L 6.497631245172222 68.00625 Q 6.497631245172222 67.07723036544445 6.497631245172222 64.00625 C 6.497631245172222 61.79858992 7.314277435917628 58.410765312525186 8.32015649639891 56.4455756665849 Z  M 74.99763124517222 20.00625 L 55.697631245172225 58.60625 C 55.29763124517222 59.50625 54.39763124517222 60.00625 53.49763124517222 60.00625 L 15.997631245172222 60.00625 L 35.29763124517222 21.40625 C 35.697631245172225 20.50625 36.597631245172224 20.00625 37.49763124517222 20.00625 L 74.99763124517222 20.00625 L 74.99763124517222 20.00625 Z " fill-rule="evenodd" fill="white" stroke="none"/></mask><path d=" M 8.32015649639891 56.4455756665849 L 28.097631245172224 17.806250000000002 C 29.89763124517222 14.20625 33.49763124517222 12.006250000000001 37.49763124517222 12.006250000000001 L 77.29763124517223 12.006250000000001 L 77.29763124517223 12.006250000000001 C 78.99763124517222 11.906250000000002 80.59763124517221 12.406250000000002 81.89763124517222 13.506250000000001 C 83.09763124517221 14.606250000000001 83.89763124517222 16.106250000000003 84.09763124517221 17.70625 C 84.09763124517221 18.20625 84.09763124517221 18.70625 83.99763124517222 19.106250000000003 L 83.49763124517222 21.00625 L 62.89763124517222 62.206250000000004 C 61.097631245172224 65.80625 57.49763124517222 68.00625 53.49763124517222 68.00625 L 18.497631245172222 68.00625 C 16.289971165172222 68.00625 14.497631245172222 69.79858992 14.497631245172222 72.00625 L 14.497631245172222 72.00625 C 14.497631245172222 73.10624999999999 14.897631245172223 74.10624999999999 15.697631245172222 74.80625 C 16.39763124517222 75.60624999999999 17.39763124517222 76.00625 18.497631245172222 76.00625 L 57.49763124517222 76.00625 C 58.39763124517222 76.00625 59.29763124517222 75.50625 59.697631245172225 74.60624999999999 L 81.89763124517222 30.20625 C 82.39763124517222 29.306250000000002 83.19763124517223 28.50625 84.19763124517223 28.20625 C 85.19763124517223 27.90625 86.29763124517223 27.90625 87.29763124517223 28.40625 C 88.19763124517223 28.90625 88.99763124517222 29.70625 89.29763124517223 30.70625 C 89.59763124517221 31.70625 89.59763124517221 32.806250000000006 89.09763124517221 33.806250000000006 L 66.89763124517222 78.20625000000001 C 65.09763124517221 81.80625 61.49763124517222 84.00625 57.49763124517222 84.00625 L 18.497631245172222 84.00625 C 15.297631245172223 84.00625 12.297631245172223 82.70625000000001 9.997631245172222 80.50625 C 7.797631245172222 78.20625000000001 6.497631245172222 75.20625000000001 6.497631245172222 72.00625 L 6.497631245172222 68.00625 Q 6.497631245172222 67.07723036544445 6.497631245172222 64.00625 C 6.497631245172222 61.79858992 7.314277435917628 58.410765312525186 8.32015649639891 56.4455756665849 Z  M 74.99763124517222 20.00625 L 55.697631245172225 58.60625 C 55.29763124517222 59.50625 54.39763124517222 60.00625 53.49763124517222 60.00625 L 15.997631245172222 60.00625 L 35.29763124517222 21.40625 C 35.697631245172225 20.50625 36.597631245172224 20.00625 37.49763124517222 20.00625 L 74.99763124517222 20.00625 L 74.99763124517222 20.00625 Z " fill-rule="evenodd" fill="none" stroke="none" stroke-width="16" mask="url(#_mask_uVqrVAXtmlINPNj1xDoxnrEovNz6YkTB)"/></svg>