<svg xmlns="http://www.w3.org/2000/svg" style="isolation:isolate" width="96" height="96"><path d="M84 75.729L54.102 81H84v-5.271zM41.898 81L12 75.729V81h29.898zM12 67.67l32 5.526V16.244L12 9.9v57.77zm40 5.526l32-5.526V9.9l-32 6.344v56.952zM11.1 1.7c-1.9 0-3.7.8-5.1 2.2C4.7 5.3 4 7.1 4 9v72c0 2.1.8 4.2 2.3 5.7C7.8 88.2 9.9 89 12 89h72c2.1 0 4.2-.8 5.7-2.3 1.5-1.5 2.3-3.6 2.3-5.7V9c0-1.9-.7-3.7-2-5.1-1.4-1.4-3.2-2.2-5.1-2.2q-.1 0-33.5 6.5-2.068.3-3.4.3-1.332 0-3.4-.3-33.4-6.5-33.5-6.5zM19 27.9c-1-.3-1.9-.9-2.4-1.8-.6-1-.7-2-.5-3.1.3-1 .9-1.9 1.8-2.4 1-.6 2-.7 3.1-.5l16 4c1 .3 1.9.9 2.4 1.8.6 1 .7 2 .5 3.1-.3 1-.9 1.9-1.8 2.4-1 .6-2 .7-3.1.5l-16-4zm56-7.8c1.1-.2 2.1-.1 3.1.5.9.5 1.5 1.4 1.8 2.4.2 1.1.1 2.1-.5 3.1-.5.9-1.4 1.5-2.4 1.8l-16 4c-1.1.2-2.1.1-3.1-.5-.9-.5-1.5-1.4-1.8-2.4-.2-1.1-.1-2.1.5-3.1.5-.9 1.4-1.5 2.4-1.8l16-4zM19 43.9c-1-.3-1.9-.9-2.4-1.8-.6-1-.7-2-.5-3.1.3-1 .9-1.9 1.8-2.4 1-.6 2-.7 3.1-.5l16 4c1 .3 1.9.9 2.4 1.8.6 1 .7 2 .5 3.1-.3 1-.9 1.9-1.8 2.4-1 .6-2 .7-3.1.5l-16-4zm56-7.8c1.1-.2 2.1-.1 3.1.5.9.5 1.5 1.4 1.8 2.4.2 1.1.1 2.1-.5 3.1-.5.9-1.4 1.5-2.4 1.8l-16 4c-1.1.2-2.1.1-3.1-.5-.9-.5-1.5-1.4-1.8-2.4-.2-1.1-.1-2.1.5-3.1.5-.9 1.4-1.5 2.4-1.8l16-4zM19 59.9c-1-.3-1.9-.9-2.4-1.8-.6-1-.7-2-.5-3.1.3-1 .9-1.9 1.8-2.4 1-.6 2-.7 3.1-.5l16 4c1 .3 1.9.9 2.4 1.8.6 1 .7 2 .5 3.1-.3 1-.9 1.9-1.8 2.4-1 .6-2 .7-3.1.5l-16-4zm56-7.8c1.1-.2 2.1-.1 3.1.5.9.5 1.5 1.4 1.8 2.4.2 1.1.1 2.1-.5 3.1-.5.9-1.4 1.5-2.4 1.8l-16 4c-1.1.2-2.1.1-3.1-.5-.9-.5-1.5-1.4-1.8-2.4-.2-1.1-.1-2.1.5-3.1.5-.9 1.4-1.5 2.4-1.8l16-4z" fill-rule="evenodd"/></svg>