<svg xmlns="http://www.w3.org/2000/svg" style="isolation:isolate" width="96" height="96"><path d="M39.2 67.9l-20-4c-1-.2-1.9-.8-2.5-1.7-.6-.9-.8-1.9-.6-3 .2-1 .8-1.9 1.7-2.5.9-.6 1.9-.8 3-.6l20 4c1 .2 1.9.8 2.5 1.7.6.9.8 1.9.6 3-.2 1-.8 1.9-1.7 2.5-.9.6-1.9.8-3 .6zm0-16l-20-4c-1-.2-1.9-.8-2.5-1.7-.6-.9-.8-1.9-.6-3 .2-1 .8-1.9 1.7-2.5.9-.6 1.9-.8 3-.6l20 4c1 .2 1.9.8 2.5 1.7.6.9.8 1.9.6 3-.2 1-.8 1.9-1.7 2.5-.9.6-1.9.8-3 .6zm16 8.2l20-4c1.1-.2 2.1 0 3 .6.9.6 1.5 1.5 1.7 2.5.2 1.1 0 2.1-.6 3-.6.9-1.5 1.5-2.5 1.7l-20 4c-1.1.2-2.1 0-3-.6-.9-.6-1.5-1.5-1.7-2.5-.2-1.1 0-2.1.6-3 .6-.9 1.5-1.5 2.5-1.7zm0-16l20-4c1.1-.2 2.1 0 3 .6.9.6 1.5 1.5 1.7 2.5.2 1.1 0 2.1-.6 3-.6.9-1.5 1.5-2.5 1.7l-20 4c-1.1.2-2.1 0-3-.6-.9-.6-1.5-1.5-1.7-2.5-.2-1.1 0-2.1.6-3 .6-.9 1.5-1.5 2.5-1.7zm0-16l20-4c1.1-.2 2.1 0 3 .6.9.6 1.5 1.5 1.7 2.5.2 1.1 0 2.1-.6 3-.6.9-1.5 1.5-2.5 1.7l-20 4c-1.1.2-2.1 0-3-.6-.9-.6-1.5-1.5-1.7-2.5-.2-1.1 0-2.1.6-3 .6-.9 1.5-1.5 2.5-1.7zm-16 7.8l-20-4c-1-.2-1.9-.8-2.5-1.7-.6-.9-.8-1.9-.6-3 .2-1 .8-1.9 1.7-2.5.9-.6 1.9-.8 3-.6l20 4c1 .2 1.9.8 2.5 1.7.6.9.8 1.9.6 3-.2 1-.8 1.9-1.7 2.5-.9.6-1.9.8-3 .6zM12.5 4.8l32.1 6.4q2.068.3 3.4.3 1.332 0 3.4-.3l32.1-6.4.9-.1h.5c1.9 0 3.7.8 5.1 2.2 1.3 1.4 2 3.2 2 5.1v60c0 4.2-3 7.9-7.1 8.7l-24.2 4.8c-2 .4-4 1.3-5.7 2.5l-2 1.4q-2.974 1.4-5 1.4t-5-1.4L41 88c-1.7-1.2-3.7-2.1-5.7-2.5l-24.2-4.8C7 79.9 4 76.2 4 72V12c0-1.9.7-3.7 2-5.1 1.4-1.4 3.2-2.2 5.1-2.2h.5l.9.1zm-.5 8.1l31.5 6.3q2.737.4 4.5.4t4.5-.4L84 12.9V72c0 .4-.3.8-.7.9l-24.2 4.8c-3.1.6-6.1 1.9-8.7 3.7q-1.37 1.1-2.4 1.1-1.03 0-2.4-1.1c-2.6-1.8-5.6-3.1-8.7-3.7l-24.2-4.8c-.4-.1-.7-.5-.7-.9V12.9z" fill-rule="evenodd"/></svg>