<svg xmlns="http://www.w3.org/2000/svg" width="96" height="96"><path d="M44 32.812l-24-5.965v46.9c0 .5.4 1 .9 1.1L44 80.646V32.812zm8 0l24-5.965v46.9c0 .5-.4 1-.9 1.1L52 80.646V32.812zM20.6 18.747l24.2 6.1q1.946.3 3.2.3 1.254 0 3.2-.3l24.2-6.1q1.5-.2 1.8-.1c1.8 0 3.6.8 4.9 2.1 1.2 1.4 1.9 3.2 1.9 5v48c0 4.2-2.9 7.8-6.9 8.9l-24.5 6.1q-2.794.5-4.6.5-1.806 0-4.6-.5l-24.5-6.1c-4-1.1-6.9-4.7-6.9-8.9v-48c0-1.8.7-3.6 1.9-5 1.3-1.3 3.1-2.1 4.9-2.1q.3-.1 1.8.1zm52.3-4.1l-24.9 6.1-24.9-6.1c-1.1-.3-2-.9-2.5-1.8-.6-.9-.7-2-.5-3 .3-1.1.9-2 1.8-2.5.9-.6 2-.7 3-.5l23.1 5.6 23.1-5.6c1-.2 2.1-.1 3 .5.9.5 1.5 1.4 1.8 2.5.2 1 .1 2.1-.5 3-.5.9-1.4 1.5-2.5 1.8z" fill-rule="evenodd" fill="#454545"/></svg>