<svg xmlns="http://www.w3.org/2000/svg" width="96" height="96"><path d="M8.32 56.446l19.778-38.64c1.8-3.6 5.4-5.8 9.4-5.8h39.8c1.7-.1 3.3.4 4.6 1.5 1.2 1.1 2 2.6 2.2 4.2 0 .5 0 1-.1 1.4l-.5 1.9-20.6 41.2c-1.8 3.6-5.4 5.8-9.4 5.8h-35c-2.208 0-4 1.793-4 4 0 1.1.4 2.1 1.2 2.8.7.8 1.7 1.2 2.8 1.2h39c.9 0 1.8-.5 2.2-1.4l22.2-44.4c.5-.9 1.3-1.7 2.3-2 1-.3 2.1-.3 3.1.2.9.5 1.7 1.3 2 2.3.3 1 .3 2.1-.2 3.1l-22.2 44.4c-1.8 3.6-5.4 5.8-9.4 5.8h-39c-3.2 0-6.2-1.3-8.5-3.5-2.2-2.3-3.5-5.3-3.5-8.5v-8c0-2.207.816-5.595 1.822-7.56zm66.678-36.44l-19.3 38.6c-.4.9-1.3 1.4-2.2 1.4h-37.5l19.3-38.6c.4-.9 1.3-1.4 2.2-1.4h37.5z" fill-rule="evenodd" fill="#454545"/></svg>