<svg xmlns="http://www.w3.org/2000/svg" style="isolation:isolate" width="96" height="96"><path d="M75.3 60.1c1-.2 2.1 0 3 .6.8.6 1.4 1.5 1.6 2.6.2 1 0 2.1-.6 3-.6.8-1.5 1.4-2.6 1.6l-16 3c-1 .2-2.1 0-3-.6-.8-.6-1.4-1.5-1.6-2.6-.2-1 0-2.1.6-3 .6-.8 1.5-1.4 2.6-1.6l16-3zm-56 7.8c-1.1-.2-2-.8-2.6-1.6-.6-.9-.8-2-.6-3 .2-1.1.8-2 1.6-2.6.9-.6 2-.8 3-.6l16 3c1.1.2 2 .8 2.6 1.6.6.9.8 2 .6 3-.2 1.1-.8 2-1.6 2.6-.9.6-2 .8-3 .6l-16-3zm56-19.8c1-.2 2.1 0 3 .6.8.6 1.4 1.5 1.6 2.6.2 1 0 2.1-.6 3-.6.8-1.5 1.4-2.6 1.6l-16 3c-1 .2-2.1 0-3-.6-.8-.6-1.4-1.5-1.6-2.6-.2-1 0-2.1.6-3 .6-.8 1.5-1.4 2.6-1.6l16-3zm-56 7.8c-1.1-.2-2-.8-2.6-1.6-.6-.9-.8-2-.6-3 .2-1.1.8-2 1.6-2.6.9-.6 2-.8 3-.6l16 3c1.1.2 2 .8 2.6 1.6.6.9.8 2 .6 3-.2 1.1-.8 2-1.6 2.6-.9.6-2 .8-3 .6l-16-3zm56-19.8c1-.2 2.1 0 3 .6.8.6 1.4 1.5 1.6 2.6.2 1 0 2.1-.6 3-.6.8-1.5 1.4-2.6 1.6l-16 3c-1 .2-2.1 0-3-.6-.8-.6-1.4-1.5-1.6-2.6-.2-1 0-2.1.6-3 .6-.8 1.5-1.4 2.6-1.6l16-3zm-56 7.8c-1.1-.2-2-.8-2.6-1.6-.6-.9-.8-2-.6-3 .2-1.1.8-2 1.6-2.6.9-.6 2-.8 3-.6l16 3c1.1.2 2 .8 2.6 1.6.6.9.8 2 .6 3-.2 1.1-.8 2-1.6 2.6-.9.6-2 .8-3 .6l-16-3zm56-19.8c1-.2 2.1 0 3 .6.8.6 1.4 1.5 1.6 2.6.2 1 0 2.1-.6 3-.6.8-1.5 1.4-2.6 1.6l-16 3c-1 .2-2.1 0-3-.6-.8-.6-1.4-1.5-1.6-2.6-.2-1 0-2.1.6-3 .6-.8 1.5-1.4 2.6-1.6l16-3zm-56 7.8c-1.1-.2-2-.8-2.6-1.6-.6-.9-.8-2-.6-3 .2-1.1.8-2 1.6-2.6.9-.6 2-.8 3-.6l16 3c1.1.2 2 .8 2.6 1.6.6.9.8 2 .6 3-.2 1.1-.8 2-1.6 2.6-.9.6-2 .8-3 .6l-16-3zM44 19.244L12 12.9V76c0 .4.3.8.7.9L44 83.082V19.244zm8 0L84 12.9V76c0 .4-.3.8-.7.9L52 83.082V19.244zM12.5 4.8l32.1 6.4q2.068.3 3.4.3 1.332 0 3.4-.3l32.1-6.4.9-.1h.5c1.9 0 3.7.8 5.1 2.2 1.3 1.4 2 3.2 2 5.1v64c0 4.2-3 7.9-7.1 8.7l-32.4 6.5q-2.737.4-4.5.4t-4.5-.4l-32.4-6.5C7 83.9 4 80.2 4 76V12c0-1.9.7-3.7 2-5.1 1.4-1.4 3.2-2.2 5.1-2.2h.5l.9.1z" fill-rule="evenodd"/></svg>