<svg xmlns="http://www.w3.org/2000/svg" style="isolation:isolate" width="96" height="96"><path d="M60 12v8c0 1.5.6 2.9 1.7 4L72 34.3c2.6 2.6 4 6.1 4 9.7v40c0 2.1-.8 4.2-2.3 5.7-1.5 1.5-3.6 2.3-5.7 2.3H28c-2.1 0-4.2-.8-5.7-2.3-1.5-1.5-2.3-3.6-2.3-5.7V44c0-3.6 1.4-7.1 4-9.7L34.3 24c1.1-1.1 1.7-2.5 1.7-4v-8c-1.1 0-2.1-.4-2.8-1.2-.8-.7-1.2-1.7-1.2-2.8 0-1.1.4-2.1 1.2-2.8.7-.8 1.7-1.2 2.8-1.2h24c1.1 0 2.1.4 2.8 1.2.8.7 1.2 1.7 1.2 2.8 0 1.1-.4 2.1-1.2 2.8-.7.8-1.7 1.2-2.8 1.2zm-8 0v8c0 3.6 1.4 7.1 4 9.7L66.3 40c1.1 1.1 1.7 2.5 1.7 4v40H28V44c0-1.5.6-2.9 1.7-4L40 29.7c2.6-2.6 4-6.1 4-9.7v-8h8z" fill-rule="evenodd"/></svg>