<?xml version="1.0" standalone="no"?><!-- Generator: Gravit.io --><svg xmlns="http://www.w3.org/2000/svg" xmlns:xlink="http://www.w3.org/1999/xlink" width="96" height="96"><path d=" M 84 44 L 84 44 L 60 44 C 58.9 44 57.9 44.4 57.2 45.2 C 56.4 45.9 56 46.9 56 48 C 56 49.1 56.4 50.1 57.2 50.8 C 57.9 51.6 58.9 52 60 52 L 84 52 L 84 76 L 12 76 L 12 52 L 12 52 L 36 52 C 37.1 52 38.1 51.6 38.8 50.8 C 39.6 50.1 40 49.1 40 48 C 40 46.9 39.6 45.9 38.8 45.2 C 38.1 44.4 37.1 44 36 44 L 12 44 L 12 36 L 12 36 L 32 36 L 64 36 L 84 36 L 84 44 Z  M 44 44 L 44 52 C 44 53.1 44.4 54.1 45.2 54.8 C 45.9 55.6 46.9 56 48 56 C 49.1 56 50.1 55.6 50.8 54.8 C 51.6 54.1 52 53.1 52 52 L 52 44 C 52 42.9 51.6 41.9 50.8 41.2 C 50.1 40.4 49.1 40 48 40 C 46.9 40 45.9 40.4 45.2 41.2 C 44.4 41.9 44 42.9 44 44 L 44 44 Z  M 28 28 L 12 28 C 9.9 28 7.8 28.8 6.3 30.3 C 4.8 31.8 4 33.9 4 36 L 4 48 L 4 76 C 4 78.1 4.8 80.2 6.3 81.7 C 7.8 83.2 9.9 84 12 84 L 84 84 C 86.1 84 88.2 83.2 89.7 81.7 C 91.2 80.2 92 78.1 92 76 L 92 48 L 92 36 C 92 33.9 91.2 31.8 89.7 30.3 C 88.2 28.8 86.1 28 84 28 L 68 28 L 68 20 C 68 17.9 67.2 15.8 65.7 14.3 C 64.2 12.8 62.1 12 60 12 L 36 12 C 33.9 12 31.8 12.8 30.3 14.3 C 28.8 15.8 28 17.9 28 20 L 28 28 L 28 28 Z  M 36 28 L 60 28 L 60 20 L 36 20 L 36 28 L 36 28 Z " fill-rule="evenodd" fill="#454545" stroke="none"/><mask id="_mask_faOU1KbDz6XqUfsPntxmU5VcDPhRh9Du"><path d=" M 84 44 L 84 44 L 60 44 C 58.9 44 57.9 44.4 57.2 45.2 C 56.4 45.9 56 46.9 56 48 C 56 49.1 56.4 50.1 57.2 50.8 C 57.9 51.6 58.9 52 60 52 L 84 52 L 84 76 L 12 76 L 12 52 L 12 52 L 36 52 C 37.1 52 38.1 51.6 38.8 50.8 C 39.6 50.1 40 49.1 40 48 C 40 46.9 39.6 45.9 38.8 45.2 C 38.1 44.4 37.1 44 36 44 L 12 44 L 12 36 L 12 36 L 32 36 L 64 36 L 84 36 L 84 44 Z  M 44 44 L 44 52 C 44 53.1 44.4 54.1 45.2 54.8 C 45.9 55.6 46.9 56 48 56 C 49.1 56 50.1 55.6 50.8 54.8 C 51.6 54.1 52 53.1 52 52 L 52 44 C 52 42.9 51.6 41.9 50.8 41.2 C 50.1 40.4 49.1 40 48 40 C 46.9 40 45.9 40.4 45.2 41.2 C 44.4 41.9 44 42.9 44 44 L 44 44 Z  M 28 28 L 12 28 C 9.9 28 7.8 28.8 6.3 30.3 C 4.8 31.8 4 33.9 4 36 L 4 48 L 4 76 C 4 78.1 4.8 80.2 6.3 81.7 C 7.8 83.2 9.9 84 12 84 L 84 84 C 86.1 84 88.2 83.2 89.7 81.7 C 91.2 80.2 92 78.1 92 76 L 92 48 L 92 36 C 92 33.9 91.2 31.8 89.7 30.3 C 88.2 28.8 86.1 28 84 28 L 68 28 L 68 20 C 68 17.9 67.2 15.8 65.7 14.3 C 64.2 12.8 62.1 12 60 12 L 36 12 C 33.9 12 31.8 12.8 30.3 14.3 C 28.8 15.8 28 17.9 28 20 L 28 28 L 28 28 Z  M 36 28 L 60 28 L 60 20 L 36 20 L 36 28 L 36 28 Z " fill-rule="evenodd" fill="white" stroke="none"/></mask><path d=" M 84 44 L 84 44 L 60 44 C 58.9 44 57.9 44.4 57.2 45.2 C 56.4 45.9 56 46.9 56 48 C 56 49.1 56.4 50.1 57.2 50.8 C 57.9 51.6 58.9 52 60 52 L 84 52 L 84 76 L 12 76 L 12 52 L 12 52 L 36 52 C 37.1 52 38.1 51.6 38.8 50.8 C 39.6 50.1 40 49.1 40 48 C 40 46.9 39.6 45.9 38.8 45.2 C 38.1 44.4 37.1 44 36 44 L 12 44 L 12 36 L 12 36 L 32 36 L 64 36 L 84 36 L 84 44 Z  M 44 44 L 44 52 C 44 53.1 44.4 54.1 45.2 54.8 C 45.9 55.6 46.9 56 48 56 C 49.1 56 50.1 55.6 50.8 54.8 C 51.6 54.1 52 53.1 52 52 L 52 44 C 52 42.9 51.6 41.9 50.8 41.2 C 50.1 40.4 49.1 40 48 40 C 46.9 40 45.9 40.4 45.2 41.2 C 44.4 41.9 44 42.9 44 44 L 44 44 Z  M 28 28 L 12 28 C 9.9 28 7.8 28.8 6.3 30.3 C 4.8 31.8 4 33.9 4 36 L 4 48 L 4 76 C 4 78.1 4.8 80.2 6.3 81.7 C 7.8 83.2 9.9 84 12 84 L 84 84 C 86.1 84 88.2 83.2 89.7 81.7 C 91.2 80.2 92 78.1 92 76 L 92 48 L 92 36 C 92 33.9 91.2 31.8 89.7 30.3 C 88.2 28.8 86.1 28 84 28 L 68 28 L 68 20 C 68 17.9 67.2 15.8 65.7 14.3 C 64.2 12.8 62.1 12 60 12 L 36 12 C 33.9 12 31.8 12.8 30.3 14.3 C 28.8 15.8 28 17.9 28 20 L 28 28 L 28 28 Z  M 36 28 L 60 28 L 60 20 L 36 20 L 36 28 L 36 28 Z " fill-rule="evenodd" fill="none" stroke="none" stroke-width="16" mask="url(#_mask_faOU1KbDz6XqUfsPntxmU5VcDPhRh9Du)"/></svg>