<svg xmlns="http://www.w3.org/2000/svg" style="isolation:isolate" width="96" height="96"><path d="M30 68h4a2 2 0 0 1 2 2v4a2 2 0 0 1-2 2h-4a2 2 0 0 1-2-2v-4a2 2 0 0 1 2-2zm32 0h4a2 2 0 0 1 2 2v4a2 2 0 0 1-2 2h-4a2 2 0 0 1-2-2v-4a2 2 0 0 1 2-2zm-16 0h4a2 2 0 0 1 2 2v4a2 2 0 0 1-2 2h-4a2 2 0 0 1-2-2v-4a2 2 0 0 1 2-2zm16-16h4a2 2 0 0 1 2 2v4a2 2 0 0 1-2 2h-4a2 2 0 0 1-2-2v-4a2 2 0 0 1 2-2zm-16 0h4a2 2 0 0 1 2 2v4a2 2 0 0 1-2 2h-4a2 2 0 0 1-2-2v-4a2 2 0 0 1 2-2zm-16 0h4a2 2 0 0 1 2 2v4a2 2 0 0 1-2 2h-4a2 2 0 0 1-2-2v-4a2 2 0 0 1 2-2zm2-36h32c2.1 0 4.2.8 5.7 2.3 1.5 1.5 2.3 3.6 2.3 5.7v12c0 2.1-.8 4.2-2.3 5.7-1.5 1.5-3.6 2.3-5.7 2.3H32c-2.1 0-4.2-.8-5.7-2.3-1.5-1.5-2.3-3.6-2.3-5.7V24c0-2.1.8-4.2 2.3-5.7 1.5-1.5 3.6-2.3 5.7-2.3zm0 8h32v12H32V24zM23.2 4h49.6c3 0 5.8 1.2 7.9 3.3 2.1 2.1 3.3 4.9 3.3 7.9v65.6c0 3-1.2 5.8-3.3 7.9-2.1 2.1-4.9 3.3-7.9 3.3H23.2c-3 0-5.8-1.2-7.9-3.3-2.1-2.1-3.3-4.9-3.3-7.9V15.2c0-3 1.2-5.8 3.3-7.9C17.4 5.2 20.2 4 23.2 4zm0 8h49.6c.9 0 1.7.3 2.3.9.6.6.9 1.4.9 2.3v65.6c0 .9-.3 1.7-.9 2.3-.6.6-1.4.9-2.3.9H23.2c-.9 0-1.7-.3-2.3-.9-.6-.6-.9-1.4-.9-2.3V15.2c0-1.8 1.4-3.2 3.2-3.2z" fill-rule="evenodd"/></svg>