<svg xmlns="http://www.w3.org/2000/svg" width="96" height="96"><path d="M12 24v52h72V32.1H36c-2.1 0-4.2-.8-5.7-2.3-1.5-1.5-2.3-3.6-2.3-5.8H12zm-8 0v52c0 2.1.8 4.2 2.3 5.7C7.8 83.2 9.9 84 12 84h72c2.1 0 4.2-.8 5.7-2.3 1.5-1.5 2.3-3.6 2.3-5.7V32.1c0-2.1-.8-4.1-2.3-5.6C88.2 25 86.1 24 84 24H36c0-2.1-.8-4.2-2.3-5.7-1.5-1.5-3.6-2.3-5.7-2.3H12c-2.1 0-4.2.8-5.7 2.3C4.8 19.8 4 21.9 4 24zm27 30c0-4.5 1.8-8.8 5-12 3.2-3.2 7.5-5 12-5s8.8 1.8 12 5c3.2 3.2 5 7.5 5 12s-1.8 8.8-5 12c-3.2 3.2-7.5 5-12 5s-8.8-1.8-12-5c-3.2-3.2-5-7.5-5-12zm8 0c0-2.4.9-4.7 2.6-6.4 1.7-1.7 4-2.6 6.4-2.6 2.4 0 4.7.9 6.4 2.6 1.7 1.7 2.6 4 2.6 6.4 0 2.4-.9 4.7-2.6 6.4-1.7 1.7-4 2.6-6.4 2.6-2.4 0-4.7-.9-6.4-2.6-1.7-1.7-2.6-4-2.6-6.4z" fill-rule="evenodd"/></svg>