<svg xmlns="http://www.w3.org/2000/svg" width="96" height="96"><path d="M60.697 60a12.731 12.731 0 0 1 2.803-4.5c2.3-2.2 5.3-3.5 8.5-3.5s6.2 1.3 8.5 3.5q1.248 1.305 2.803 4.5H84v-8c0-.9-.5-1.8-1.4-2.2l-8.8-4.4C71 44 68.5 42.2 66.3 40L56 29.7c-1.1-1.1-2.5-1.7-4-1.7H28c-1.5 0-2.9.6-4 1.7L13.7 40c-1.1 1.1-1.7 2.5-1.7 4v16h.697a12.731 12.731 0 0 1 2.803-4.5c2.3-2.2 5.3-3.5 8.5-3.5s6.2 1.3 8.5 3.5a12.731 12.731 0 0 1 2.803 4.5h25.394zm0 8a12.731 12.731 0 0 0 2.803 4.5c2.3 2.2 5.3 3.5 8.5 3.5s6.2-1.3 8.5-3.5a12.731 12.731 0 0 0 2.803-4.5H84c2.1 0 4.2-.8 5.7-2.3 1.5-1.5 2.3-3.6 2.3-5.7v-8c0-4-2.2-7.6-5.8-9.4l-8.8-4.4c-2-1-3.8-2.3-5.4-3.9L61.7 24c-2.6-2.6-6.1-4-9.7-4H28c-3.6 0-7.1 1.4-9.7 4L8 34.3c-2.6 2.6-4 6.1-4 9.7v16c0 2.1.8 4.2 2.3 5.7C7.8 67.2 9.9 68 12 68h.697a12.731 12.731 0 0 0 2.803 4.5c2.3 2.2 5.3 3.5 8.5 3.5s6.2-1.3 8.5-3.5a12.731 12.731 0 0 0 2.803-4.5h25.394zM20 64c0 1.1.4 2.1 1.2 2.8.7.8 1.7 1.2 2.8 1.2 1.1 0 2.1-.4 2.8-1.2.8-.7 1.2-1.7 1.2-2.8 0-1.1-.4-2.1-1.2-2.8-.7-.8-1.7-1.2-2.8-1.2-1.1 0-2.1.4-2.8 1.2-.8.7-1.2 1.7-1.2 2.8zm48 0c0-1.1.4-2.1 1.2-2.8.7-.8 1.7-1.2 2.8-1.2 1.1 0 2.1.4 2.8 1.2.8.7 1.2 1.7 1.2 2.8 0 1.1-.4 2.1-1.2 2.8-.7.8-1.7 1.2-2.8 1.2-1.1 0-2.1-.4-2.8-1.2-.8-.7-1.2-1.7-1.2-2.8z" fill-rule="evenodd"/></svg>