<svg xmlns="http://www.w3.org/2000/svg" width="96" height="96"><path d="M24.7 74c0-2.7 1.1-5.2 2.9-7.1 1.9-1.8 4.4-2.9 7.1-2.9 2.7 0 5.2 1.1 7.1 2.9 1.8 1.9 2.9 4.4 2.9 7.1 0 2.7-1.1 5.2-2.9 7.1-1.9 1.8-4.4 2.9-7.1 2.9-2.7 0-5.2-1.1-7.1-2.9-1.8-1.9-2.9-4.4-2.9-7.1zm8 0c0-1.1.9-2 2-2s2 .9 2 2c0 .5-.2 1-.6 1.4-.4.4-.9.6-1.4.6-1.1 0-2-.9-2-2zm20 0c0-2.7 1.1-5.2 2.9-7.1 1.9-1.8 4.4-2.9 7.1-2.9 2.7 0 5.2 1.1 7.1 2.9 1.8 1.9 2.9 4.4 2.9 7.1 0 2.7-1.1 5.2-2.9 7.1-1.9 1.8-4.4 2.9-7.1 2.9-2.7 0-5.2-1.1-7.1-2.9-1.8-1.9-2.9-4.4-2.9-7.1zm8 0c0-1.1.9-2 2-2s2 .9 2 2c0 .5-.2 1-.6 1.4-.4.4-.9.6-1.4.6-1.1 0-2-.9-2-2zm-36-54h59.8c1.7-.1 3.3.4 4.6 1.5 1.2 1.1 2 2.6 2.2 4.2 0 .5 0 1-.1 1.4l-.5 1.9-12.6 25.2c-1.8 3.6-5.4 5.8-9.4 5.8h-40c-4.2 0-7.8-2.9-8.9-6.9l-6.1-24.5-1-8.6h-4c-1.1 0-2.1-.4-2.8-1.2-.8-.7-1.2-1.7-1.2-2.8 0-1.1.4-2.1 1.2-2.8.7-.8 1.7-1.2 2.8-1.2h8c2.208 0 4 1.792 4 4s1.792 4 4 4zm-2.9 8h60.4L70.9 50.6c-.4.9-1.3 1.4-2.2 1.4h-40c-.5 0-1-.4-1.1-.9L21.8 28z" fill-rule="evenodd" fill="#454545"/></svg>