<?xml version="1.0" standalone="no"?><!-- Generator: Gravit.io --><svg xmlns="http://www.w3.org/2000/svg" xmlns:xlink="http://www.w3.org/1999/xlink" width="96" height="96"><path d=" M 24.700000000000003 74 C 24.700000000000003 71.3 25.800000000000004 68.8 27.6 66.9 C 29.500000000000004 65.1 32 64 34.7 64 C 37.400000000000006 64 39.900000000000006 65.1 41.800000000000004 66.9 C 43.6 68.8 44.7 71.3 44.7 74 C 44.7 76.7 43.6 79.2 41.800000000000004 81.1 C 39.900000000000006 82.9 37.400000000000006 84 34.7 84 C 32 84 29.500000000000004 82.9 27.6 81.1 C 25.800000000000004 79.2 24.700000000000003 76.7 24.700000000000003 74 Z  M 32.7 74 C 32.7 72.9 33.6 72 34.7 72 C 35.800000000000004 72 36.7 72.9 36.7 74 C 36.7 74.5 36.5 75 36.1 75.4 C 35.7 75.8 35.2 76 34.7 76 C 33.6 76 32.7 75.1 32.7 74 Z  M 52.7 74 C 52.7 71.3 53.800000000000004 68.8 55.6 66.9 C 57.5 65.1 60 64 62.7 64 C 65.4 64 67.9 65.1 69.8 66.9 C 71.60000000000001 68.8 72.7 71.3 72.7 74 C 72.7 76.7 71.60000000000001 79.2 69.8 81.1 C 67.9 82.9 65.4 84 62.7 84 C 60 84 57.5 82.9 55.6 81.1 C 53.800000000000004 79.2 52.7 76.7 52.7 74 Z  M 60.7 74 C 60.7 72.9 61.6 72 62.7 72 C 63.800000000000004 72 64.7 72.9 64.7 74 C 64.7 74.5 64.5 75 64.1 75.4 C 63.7 75.8 63.2 76 62.7 76 C 61.6 76 60.7 75.1 60.7 74 Z  M 24.700000000000003 20 L 84.5 20 C 86.2 19.9 87.8 20.4 89.10000000000001 21.5 C 90.3 22.6 91.10000000000001 24.1 91.3 25.7 C 91.3 26.2 91.3 26.7 91.2 27.1 L 90.7 29 L 78.10000000000001 54.2 C 76.3 57.8 72.7 60 68.7 60 L 28.700000000000003 60 C 24.500000000000004 60 20.900000000000002 57.1 19.800000000000004 53.1 L 13.700000000000003 28.6 L 13.700000000000003 28.6 L 12.700000000000003 20 L 8.700000000000003 20 C 7.600000000000003 20 6.600000000000003 19.6 5.900000000000003 18.8 C 5.100000000000003 18.1 4.700000000000003 17.1 4.700000000000003 16 C 4.700000000000003 14.9 5.100000000000003 13.9 5.900000000000003 13.2 C 6.600000000000003 12.4 7.600000000000003 12 8.700000000000003 12 L 16.700000000000003 12 C 18.907660080000003 12 20.700000000000003 13.79233992 20.700000000000003 16 L 20.700000000000003 16 C 20.700000000000003 18.20766008 22.492339920000003 20 24.700000000000003 20 Z  M 21.800000000000004 28 L 82.2 28 L 70.9 50.6 C 70.5 51.5 69.60000000000001 52 68.7 52 L 28.700000000000003 52 C 28.200000000000003 52 27.700000000000003 51.6 27.6 51.1 L 21.800000000000004 28 L 21.800000000000004 28 Z " fill-rule="evenodd" fill="#454545" stroke="none"/><mask id="_mask_ETGln5d8fmGNLrBGV8nVfhX7o3ePL63V"><path d=" M 24.700000000000003 74 C 24.700000000000003 71.3 25.800000000000004 68.8 27.6 66.9 C 29.500000000000004 65.1 32 64 34.7 64 C 37.400000000000006 64 39.900000000000006 65.1 41.800000000000004 66.9 C 43.6 68.8 44.7 71.3 44.7 74 C 44.7 76.7 43.6 79.2 41.800000000000004 81.1 C 39.900000000000006 82.9 37.400000000000006 84 34.7 84 C 32 84 29.500000000000004 82.9 27.6 81.1 C 25.800000000000004 79.2 24.700000000000003 76.7 24.700000000000003 74 Z  M 32.7 74 C 32.7 72.9 33.6 72 34.7 72 C 35.800000000000004 72 36.7 72.9 36.7 74 C 36.7 74.5 36.5 75 36.1 75.4 C 35.7 75.8 35.2 76 34.7 76 C 33.6 76 32.7 75.1 32.7 74 Z  M 52.7 74 C 52.7 71.3 53.800000000000004 68.8 55.6 66.9 C 57.5 65.1 60 64 62.7 64 C 65.4 64 67.9 65.1 69.8 66.9 C 71.60000000000001 68.8 72.7 71.3 72.7 74 C 72.7 76.7 71.60000000000001 79.2 69.8 81.1 C 67.9 82.9 65.4 84 62.7 84 C 60 84 57.5 82.9 55.6 81.1 C 53.800000000000004 79.2 52.7 76.7 52.7 74 Z  M 60.7 74 C 60.7 72.9 61.6 72 62.7 72 C 63.800000000000004 72 64.7 72.9 64.7 74 C 64.7 74.5 64.5 75 64.1 75.4 C 63.7 75.8 63.2 76 62.7 76 C 61.6 76 60.7 75.1 60.7 74 Z  M 24.700000000000003 20 L 84.5 20 C 86.2 19.9 87.8 20.4 89.10000000000001 21.5 C 90.3 22.6 91.10000000000001 24.1 91.3 25.7 C 91.3 26.2 91.3 26.7 91.2 27.1 L 90.7 29 L 78.10000000000001 54.2 C 76.3 57.8 72.7 60 68.7 60 L 28.700000000000003 60 C 24.500000000000004 60 20.900000000000002 57.1 19.800000000000004 53.1 L 13.700000000000003 28.6 L 13.700000000000003 28.6 L 12.700000000000003 20 L 8.700000000000003 20 C 7.600000000000003 20 6.600000000000003 19.6 5.900000000000003 18.8 C 5.100000000000003 18.1 4.700000000000003 17.1 4.700000000000003 16 C 4.700000000000003 14.9 5.100000000000003 13.9 5.900000000000003 13.2 C 6.600000000000003 12.4 7.600000000000003 12 8.700000000000003 12 L 16.700000000000003 12 C 18.907660080000003 12 20.700000000000003 13.79233992 20.700000000000003 16 L 20.700000000000003 16 C 20.700000000000003 18.20766008 22.492339920000003 20 24.700000000000003 20 Z  M 21.800000000000004 28 L 82.2 28 L 70.9 50.6 C 70.5 51.5 69.60000000000001 52 68.7 52 L 28.700000000000003 52 C 28.200000000000003 52 27.700000000000003 51.6 27.6 51.1 L 21.800000000000004 28 L 21.800000000000004 28 Z " fill-rule="evenodd" fill="white" stroke="none"/></mask><path d=" M 24.700000000000003 74 C 24.700000000000003 71.3 25.800000000000004 68.8 27.6 66.9 C 29.500000000000004 65.1 32 64 34.7 64 C 37.400000000000006 64 39.900000000000006 65.1 41.800000000000004 66.9 C 43.6 68.8 44.7 71.3 44.7 74 C 44.7 76.7 43.6 79.2 41.800000000000004 81.1 C 39.900000000000006 82.9 37.400000000000006 84 34.7 84 C 32 84 29.500000000000004 82.9 27.6 81.1 C 25.800000000000004 79.2 24.700000000000003 76.7 24.700000000000003 74 Z  M 32.7 74 C 32.7 72.9 33.6 72 34.7 72 C 35.800000000000004 72 36.7 72.9 36.7 74 C 36.7 74.5 36.5 75 36.1 75.4 C 35.7 75.8 35.2 76 34.7 76 C 33.6 76 32.7 75.1 32.7 74 Z  M 52.7 74 C 52.7 71.3 53.800000000000004 68.8 55.6 66.9 C 57.5 65.1 60 64 62.7 64 C 65.4 64 67.9 65.1 69.8 66.9 C 71.60000000000001 68.8 72.7 71.3 72.7 74 C 72.7 76.7 71.60000000000001 79.2 69.8 81.1 C 67.9 82.9 65.4 84 62.7 84 C 60 84 57.5 82.9 55.6 81.1 C 53.800000000000004 79.2 52.7 76.7 52.7 74 Z  M 60.7 74 C 60.7 72.9 61.6 72 62.7 72 C 63.800000000000004 72 64.7 72.9 64.7 74 C 64.7 74.5 64.5 75 64.1 75.4 C 63.7 75.8 63.2 76 62.7 76 C 61.6 76 60.7 75.1 60.7 74 Z  M 24.700000000000003 20 L 84.5 20 C 86.2 19.9 87.8 20.4 89.10000000000001 21.5 C 90.3 22.6 91.10000000000001 24.1 91.3 25.7 C 91.3 26.2 91.3 26.7 91.2 27.1 L 90.7 29 L 78.10000000000001 54.2 C 76.3 57.8 72.7 60 68.7 60 L 28.700000000000003 60 C 24.500000000000004 60 20.900000000000002 57.1 19.800000000000004 53.1 L 13.700000000000003 28.6 L 13.700000000000003 28.6 L 12.700000000000003 20 L 8.700000000000003 20 C 7.600000000000003 20 6.600000000000003 19.6 5.900000000000003 18.8 C 5.100000000000003 18.1 4.700000000000003 17.1 4.700000000000003 16 C 4.700000000000003 14.9 5.100000000000003 13.9 5.900000000000003 13.2 C 6.600000000000003 12.4 7.600000000000003 12 8.700000000000003 12 L 16.700000000000003 12 C 18.907660080000003 12 20.700000000000003 13.79233992 20.700000000000003 16 L 20.700000000000003 16 C 20.700000000000003 18.20766008 22.492339920000003 20 24.700000000000003 20 Z  M 21.800000000000004 28 L 82.2 28 L 70.9 50.6 C 70.5 51.5 69.60000000000001 52 68.7 52 L 28.700000000000003 52 C 28.200000000000003 52 27.700000000000003 51.6 27.6 51.1 L 21.800000000000004 28 L 21.800000000000004 28 Z " fill-rule="evenodd" fill="none" stroke="none" stroke-width="16" mask="url(#_mask_ETGln5d8fmGNLrBGV8nVfhX7o3ePL63V)"/></svg>