<?xml version="1.0" standalone="no"?><!-- Generator: Gravit.io --><svg xmlns="http://www.w3.org/2000/svg" xmlns:xlink="http://www.w3.org/1999/xlink" width="96" height="96"><path d=" M 87.65 20 C 88.75 20 89.75 20.4 90.44999999999999 21.2 C 91.25 21.9 91.65 22.9 91.65 24 C 91.65 25.1 91.25 26.1 90.44999999999999 26.8 C 89.75 27.6 88.75 28 87.65 28 L 71.65 28 C 70.55000000000001 28 69.55000000000001 27.6 68.85 26.8 C 68.05000000000001 26.1 67.65 25.1 67.65 24 C 67.65 22.9 68.05000000000001 21.9 68.85 21.2 C 69.55000000000001 20.4 70.55000000000001 20 71.65 20 L 87.65 20 Z  M 63.65 20 L 24.349999999999998 20 L 24.349999999999998 20 C 22.14233992 20 20.35 18.20766008 20.349999999999998 16 C 20.35 13.79233992 18.55766008 12 16.349999999999998 12 L 8.349999999999998 12 C 7.250000000000002 12 6.250000000000002 12.4 5.549999999999999 13.2 C 4.750000000000002 13.9 4.350000000000001 14.9 4.349999999999999 16 C 4.350000000000001 17.1 4.750000000000002 18.1 5.549999999999999 18.8 C 6.250000000000002 19.6 7.250000000000002 20 8.349999999999998 20 L 12.349999999999998 20 L 13.349999999999998 28.6 L 19.45 53.1 C 20.55 57.1 24.150000000000002 60 28.349999999999998 60 L 68.35 60 C 72.35 60 75.94999999999999 57.8 77.75 54.2 L 84.85 40 L 75.85 40 L 70.55000000000001 50.6 C 70.15 51.5 69.25 52 68.35 52 L 28.349999999999998 52 C 27.85 52 27.35 51.6 27.25 51.1 L 21.45 28 L 21.45 28 L 63.65 28 L 63.65 20 Z  M 60.35 74 C 60.35 75.1 61.25 76 62.35 76 C 62.85 76 63.35 75.8 63.74999999999999 75.4 C 64.15 75 64.35 74.5 64.35 74 C 64.35 72.9 63.45 72 62.35 72 C 61.25 72 60.35 72.9 60.35 74 L 60.35 74 Z  M 52.35 74 C 52.35 76.7 53.45 79.2 55.25 81.1 C 57.15 82.9 59.65 84 62.35 84 C 65.05000000000001 84 67.55000000000001 82.9 69.44999999999999 81.1 C 71.25 79.2 72.35 76.7 72.35 74 C 72.35 71.3 71.25 68.8 69.44999999999999 66.9 C 67.55000000000001 65.1 65.05000000000001 64 62.35 64 C 59.65 64 57.15 65.1 55.25 66.9 C 53.45 68.8 52.35 71.3 52.35 74 L 52.35 74 Z  M 32.35 74 C 32.35 75.1 33.25 76 34.35 76 C 34.85 76 35.35 75.8 35.75 75.4 C 36.15 75 36.35 74.5 36.35 74 C 36.35 72.9 35.45 72 34.35 72 C 33.25 72 32.35 72.9 32.35 74 L 32.35 74 Z  M 24.349999999999998 74 C 24.35 76.7 25.450000000000003 79.2 27.25 81.1 C 29.150000000000002 82.9 31.65 84 34.35 84 C 37.050000000000004 84 39.550000000000004 82.9 41.449999999999996 81.1 C 43.25 79.2 44.35 76.7 44.35 74 C 44.35 71.3 43.25 68.8 41.449999999999996 66.9 C 39.550000000000004 65.1 37.050000000000004 64 34.35 64 C 31.65 64 29.150000000000002 65.1 27.25 66.9 C 25.450000000000003 68.8 24.35 71.3 24.349999999999998 74 L 24.349999999999998 74 Z " fill-rule="evenodd" fill="#454545" stroke="none"/><mask id="_mask_HbkJVT18920MAyO1y6KJhzSB8CMjga1P"><path d=" M 87.65 20 C 88.75 20 89.75 20.4 90.44999999999999 21.2 C 91.25 21.9 91.65 22.9 91.65 24 C 91.65 25.1 91.25 26.1 90.44999999999999 26.8 C 89.75 27.6 88.75 28 87.65 28 L 71.65 28 C 70.55000000000001 28 69.55000000000001 27.6 68.85 26.8 C 68.05000000000001 26.1 67.65 25.1 67.65 24 C 67.65 22.9 68.05000000000001 21.9 68.85 21.2 C 69.55000000000001 20.4 70.55000000000001 20 71.65 20 L 87.65 20 Z  M 63.65 20 L 24.349999999999998 20 L 24.349999999999998 20 C 22.14233992 20 20.35 18.20766008 20.349999999999998 16 C 20.35 13.79233992 18.55766008 12 16.349999999999998 12 L 8.349999999999998 12 C 7.250000000000002 12 6.250000000000002 12.4 5.549999999999999 13.2 C 4.750000000000002 13.9 4.350000000000001 14.9 4.349999999999999 16 C 4.350000000000001 17.1 4.750000000000002 18.1 5.549999999999999 18.8 C 6.250000000000002 19.6 7.250000000000002 20 8.349999999999998 20 L 12.349999999999998 20 L 13.349999999999998 28.6 L 19.45 53.1 C 20.55 57.1 24.150000000000002 60 28.349999999999998 60 L 68.35 60 C 72.35 60 75.94999999999999 57.8 77.75 54.2 L 84.85 40 L 75.85 40 L 70.55000000000001 50.6 C 70.15 51.5 69.25 52 68.35 52 L 28.349999999999998 52 C 27.85 52 27.35 51.6 27.25 51.1 L 21.45 28 L 21.45 28 L 63.65 28 L 63.65 20 Z  M 60.35 74 C 60.35 75.1 61.25 76 62.35 76 C 62.85 76 63.35 75.8 63.74999999999999 75.4 C 64.15 75 64.35 74.5 64.35 74 C 64.35 72.9 63.45 72 62.35 72 C 61.25 72 60.35 72.9 60.35 74 L 60.35 74 Z  M 52.35 74 C 52.35 76.7 53.45 79.2 55.25 81.1 C 57.15 82.9 59.65 84 62.35 84 C 65.05000000000001 84 67.55000000000001 82.9 69.44999999999999 81.1 C 71.25 79.2 72.35 76.7 72.35 74 C 72.35 71.3 71.25 68.8 69.44999999999999 66.9 C 67.55000000000001 65.1 65.05000000000001 64 62.35 64 C 59.65 64 57.15 65.1 55.25 66.9 C 53.45 68.8 52.35 71.3 52.35 74 L 52.35 74 Z  M 32.35 74 C 32.35 75.1 33.25 76 34.35 76 C 34.85 76 35.35 75.8 35.75 75.4 C 36.15 75 36.35 74.5 36.35 74 C 36.35 72.9 35.45 72 34.35 72 C 33.25 72 32.35 72.9 32.35 74 L 32.35 74 Z  M 24.349999999999998 74 C 24.35 76.7 25.450000000000003 79.2 27.25 81.1 C 29.150000000000002 82.9 31.65 84 34.35 84 C 37.050000000000004 84 39.550000000000004 82.9 41.449999999999996 81.1 C 43.25 79.2 44.35 76.7 44.35 74 C 44.35 71.3 43.25 68.8 41.449999999999996 66.9 C 39.550000000000004 65.1 37.050000000000004 64 34.35 64 C 31.65 64 29.150000000000002 65.1 27.25 66.9 C 25.450000000000003 68.8 24.35 71.3 24.349999999999998 74 L 24.349999999999998 74 Z " fill-rule="evenodd" fill="white" stroke="none"/></mask><path d=" M 87.65 20 C 88.75 20 89.75 20.4 90.44999999999999 21.2 C 91.25 21.9 91.65 22.9 91.65 24 C 91.65 25.1 91.25 26.1 90.44999999999999 26.8 C 89.75 27.6 88.75 28 87.65 28 L 71.65 28 C 70.55000000000001 28 69.55000000000001 27.6 68.85 26.8 C 68.05000000000001 26.1 67.65 25.1 67.65 24 C 67.65 22.9 68.05000000000001 21.9 68.85 21.2 C 69.55000000000001 20.4 70.55000000000001 20 71.65 20 L 87.65 20 Z  M 63.65 20 L 24.349999999999998 20 L 24.349999999999998 20 C 22.14233992 20 20.35 18.20766008 20.349999999999998 16 C 20.35 13.79233992 18.55766008 12 16.349999999999998 12 L 8.349999999999998 12 C 7.250000000000002 12 6.250000000000002 12.4 5.549999999999999 13.2 C 4.750000000000002 13.9 4.350000000000001 14.9 4.349999999999999 16 C 4.350000000000001 17.1 4.750000000000002 18.1 5.549999999999999 18.8 C 6.250000000000002 19.6 7.250000000000002 20 8.349999999999998 20 L 12.349999999999998 20 L 13.349999999999998 28.6 L 19.45 53.1 C 20.55 57.1 24.150000000000002 60 28.349999999999998 60 L 68.35 60 C 72.35 60 75.94999999999999 57.8 77.75 54.2 L 84.85 40 L 75.85 40 L 70.55000000000001 50.6 C 70.15 51.5 69.25 52 68.35 52 L 28.349999999999998 52 C 27.85 52 27.35 51.6 27.25 51.1 L 21.45 28 L 21.45 28 L 63.65 28 L 63.65 20 Z  M 60.35 74 C 60.35 75.1 61.25 76 62.35 76 C 62.85 76 63.35 75.8 63.74999999999999 75.4 C 64.15 75 64.35 74.5 64.35 74 C 64.35 72.9 63.45 72 62.35 72 C 61.25 72 60.35 72.9 60.35 74 L 60.35 74 Z  M 52.35 74 C 52.35 76.7 53.45 79.2 55.25 81.1 C 57.15 82.9 59.65 84 62.35 84 C 65.05000000000001 84 67.55000000000001 82.9 69.44999999999999 81.1 C 71.25 79.2 72.35 76.7 72.35 74 C 72.35 71.3 71.25 68.8 69.44999999999999 66.9 C 67.55000000000001 65.1 65.05000000000001 64 62.35 64 C 59.65 64 57.15 65.1 55.25 66.9 C 53.45 68.8 52.35 71.3 52.35 74 L 52.35 74 Z  M 32.35 74 C 32.35 75.1 33.25 76 34.35 76 C 34.85 76 35.35 75.8 35.75 75.4 C 36.15 75 36.35 74.5 36.35 74 C 36.35 72.9 35.45 72 34.35 72 C 33.25 72 32.35 72.9 32.35 74 L 32.35 74 Z  M 24.349999999999998 74 C 24.35 76.7 25.450000000000003 79.2 27.25 81.1 C 29.150000000000002 82.9 31.65 84 34.35 84 C 37.050000000000004 84 39.550000000000004 82.9 41.449999999999996 81.1 C 43.25 79.2 44.35 76.7 44.35 74 C 44.35 71.3 43.25 68.8 41.449999999999996 66.9 C 39.550000000000004 65.1 37.050000000000004 64 34.35 64 C 31.65 64 29.150000000000002 65.1 27.25 66.9 C 25.450000000000003 68.8 24.35 71.3 24.349999999999998 74 L 24.349999999999998 74 Z " fill-rule="evenodd" fill="none" stroke="none" stroke-width="16" mask="url(#_mask_HbkJVT18920MAyO1y6KJhzSB8CMjga1P)"/></svg>