<svg xmlns="http://www.w3.org/2000/svg" width="96" height="96"><path d="M83.65 20v-4c0-1.1-.4-2.1-1.2-2.8-.7-.8-1.7-1.2-2.8-1.2-1.1 0-2.1.4-2.8 1.2-.8.7-1.2 1.7-1.2 2.8v4h-4c-1.1 0-2.1.4-2.8 1.2-.8.7-1.2 1.7-1.2 2.8 0 1.1.4 2.1 1.2 2.8.7.8 1.7 1.2 2.8 1.2h4v4c0 1.1.4 2.1 1.2 2.8.7.8 1.7 1.2 2.8 1.2 1.1 0 2.1-.4 2.8-1.2.8-.7 1.2-1.7 1.2-2.8v-4h4c1.1 0 2.1-.4 2.8-1.2.8-.7 1.2-1.7 1.2-2.8 0-1.1-.4-2.1-1.2-2.8-.7-.8-1.7-1.2-2.8-1.2h-4zm-20 0h-39.3c-2.208 0-4-1.792-4-4s-1.792-4-4-4h-8c-1.1 0-2.1.4-2.8 1.2-.8.7-1.2 1.7-1.2 2.8 0 1.1.4 2.1 1.2 2.8.7.8 1.7 1.2 2.8 1.2h4l1 8.6 6.1 24.5c1.1 4 4.7 6.9 8.9 6.9h40c4 0 7.6-2.2 9.4-5.8l7.1-14.2h-9l-5.3 10.6c-.4.9-1.3 1.4-2.2 1.4h-40c-.5 0-1-.4-1.1-.9L21.45 28h42.2v-8zm-3.3 54c0 1.1.9 2 2 2 .5 0 1-.2 1.4-.6.4-.4.6-.9.6-1.4 0-1.1-.9-2-2-2s-2 .9-2 2zm-8 0c0 2.7 1.1 5.2 2.9 7.1 1.9 1.8 4.4 2.9 7.1 2.9 2.7 0 5.2-1.1 7.1-2.9 1.8-1.9 2.9-4.4 2.9-7.1 0-2.7-1.1-5.2-2.9-7.1-1.9-1.8-4.4-2.9-7.1-2.9-2.7 0-5.2 1.1-7.1 2.9-1.8 1.9-2.9 4.4-2.9 7.1zm-20 0c0 1.1.9 2 2 2 .5 0 1-.2 1.4-.6.4-.4.6-.9.6-1.4 0-1.1-.9-2-2-2s-2 .9-2 2zm-8 0c0 2.7 1.1 5.2 2.9 7.1 1.9 1.8 4.4 2.9 7.1 2.9 2.7 0 5.2-1.1 7.1-2.9 1.8-1.9 2.9-4.4 2.9-7.1 0-2.7-1.1-5.2-2.9-7.1-1.9-1.8-4.4-2.9-7.1-2.9-2.7 0-5.2 1.1-7.1 2.9-1.8 1.9-2.9 4.4-2.9 7.1z" fill-rule="evenodd" fill="#454545"/></svg>