<svg xmlns="http://www.w3.org/2000/svg" width="96" height="96"><path d="M36 89.5l.1-11.7H16c-2.1 0-4.2-.8-5.7-2.3C8.8 74 8 71.9 8 69.8v-38c0-2.1.8-4.2 2.3-5.7 1.5-1.5 3.6-2.3 5.7-2.3h64c2.1 0 4.2.8 5.7 2.3 1.5 1.5 2.3 3.6 2.3 5.7v38c0 2.1-.8 4.2-2.3 5.7-1.5 1.5-3.6 2.3-5.7 2.3H68.3c-1.7 0-3.3.6-4.6 1.6L45.2 94.7l-2.1.9c-.8.4-1.7.5-2.5.3-2.9-.6-4.9-3.4-4.6-6.4 0-.1.1-.3.1-.5l-.1.8v-.3zm8.1-4.2v-7.5c0-2.1-.8-4.2-2.3-5.7-1.5-1.5-3.6-2.3-5.7-2.3H16v-38h64v38H68.2c-3.5 0-6.9 1.2-9.6 3.5l-14.5 12z" fill-rule="evenodd" fill="#454545"/></svg>