<?xml version="1.0" standalone="no"?><!-- Generator: Gravit.io --><svg xmlns="http://www.w3.org/2000/svg" xmlns:xlink="http://www.w3.org/1999/xlink" width="96" height="96"><path d=" M 12 4 L 84 4 C 86.1 4 88.2 4.8 89.7 6.3 C 91.2 7.8 92 9.9 92 12 L 92 84 C 92 86.1 91.2 88.2 89.7 89.7 C 88.2 91.2 86.1 92 84 92 L 12 92 C 9.9 92 7.8 91.2 6.3 89.7 C 4.8 88.2 4 86.1 4 84 L 4 12 C 4 9.9 4.8 7.8 6.3 6.3 C 7.8 4.8 9.9 4 12 4 Z  M 12 12 L 84 12 L 84 84 L 12 84 L 12 12 Z  M 74.8 34.8 L 43.7 66 Q 41.55812171935711 67.5 40 67.5 Q 38.44187828064289 67.5 36.3 66 L 21.2 50.8 C 20.4 50.1 20 49.1 20 48 C 20 46.9 20.4 45.9 21.2 45.2 C 21.9 44.4 22.9 44 24 44 C 25.1 44 26.1 44.4 26.8 45.2 L 40 58.3 L 69.2 29.2 C 69.9 28.4 70.9 28 72 28 C 73.1 28 74.1 28.4 74.8 29.2 C 75.6 29.9 76 30.9 76 32 C 76 33.1 75.6 34.1 74.8 34.8 Z " fill-rule="evenodd" fill="#454545" stroke="none"/><mask id="_mask_OBeLFjeQHLpp4b20LI012BHRwRkD4eaj"><path d=" M 12 4 L 84 4 C 86.1 4 88.2 4.8 89.7 6.3 C 91.2 7.8 92 9.9 92 12 L 92 84 C 92 86.1 91.2 88.2 89.7 89.7 C 88.2 91.2 86.1 92 84 92 L 12 92 C 9.9 92 7.8 91.2 6.3 89.7 C 4.8 88.2 4 86.1 4 84 L 4 12 C 4 9.9 4.8 7.8 6.3 6.3 C 7.8 4.8 9.9 4 12 4 Z  M 12 12 L 84 12 L 84 84 L 12 84 L 12 12 Z  M 74.8 34.8 L 43.7 66 Q 41.55812171935711 67.5 40 67.5 Q 38.44187828064289 67.5 36.3 66 L 21.2 50.8 C 20.4 50.1 20 49.1 20 48 C 20 46.9 20.4 45.9 21.2 45.2 C 21.9 44.4 22.9 44 24 44 C 25.1 44 26.1 44.4 26.8 45.2 L 40 58.3 L 69.2 29.2 C 69.9 28.4 70.9 28 72 28 C 73.1 28 74.1 28.4 74.8 29.2 C 75.6 29.9 76 30.9 76 32 C 76 33.1 75.6 34.1 74.8 34.8 Z " fill-rule="evenodd" fill="white" stroke="none"/></mask><path d=" M 12 4 L 84 4 C 86.1 4 88.2 4.8 89.7 6.3 C 91.2 7.8 92 9.9 92 12 L 92 84 C 92 86.1 91.2 88.2 89.7 89.7 C 88.2 91.2 86.1 92 84 92 L 12 92 C 9.9 92 7.8 91.2 6.3 89.7 C 4.8 88.2 4 86.1 4 84 L 4 12 C 4 9.9 4.8 7.8 6.3 6.3 C 7.8 4.8 9.9 4 12 4 Z  M 12 12 L 84 12 L 84 84 L 12 84 L 12 12 Z  M 74.8 34.8 L 43.7 66 Q 41.55812171935711 67.5 40 67.5 Q 38.44187828064289 67.5 36.3 66 L 21.2 50.8 C 20.4 50.1 20 49.1 20 48 C 20 46.9 20.4 45.9 21.2 45.2 C 21.9 44.4 22.9 44 24 44 C 25.1 44 26.1 44.4 26.8 45.2 L 40 58.3 L 69.2 29.2 C 69.9 28.4 70.9 28 72 28 C 73.1 28 74.1 28.4 74.8 29.2 C 75.6 29.9 76 30.9 76 32 C 76 33.1 75.6 34.1 74.8 34.8 Z " fill-rule="evenodd" fill="none" stroke="none" stroke-width="16" mask="url(#_mask_OBeLFjeQHLpp4b20LI012BHRwRkD4eaj)"/></svg>