<svg xmlns="http://www.w3.org/2000/svg" style="isolation:isolate" width="96" height="96"><path d="M43.5 57l17.2-24.8c.6-.9 1.5-1.5 2.6-1.7 1-.2 2.1.1 3 .7.8.6 1.4 1.5 1.6 2.5.2 1.1 0 2.2-.6 3L49.6 62.3c-1.3 2-3.5 3.2-5.8 3.2-.6.1-1.3-.1-1.8-.3l-3.1-1.5-9.8-10.5c-.8-.8-1.1-1.8-1.1-2.9 0-1 .5-2 1.3-2.8.8-.7 1.8-1.1 2.8-1 1.1 0 2.1.5 2.8 1.2l8.6 9.3zM4 48c0-11.7 4.6-22.9 12.9-31.1C25.1 8.6 36.3 4 48 4c11.7 0 22.9 4.6 31.1 12.9C87.4 25.1 92 36.3 92 48c0 11.7-4.6 22.9-12.9 31.1C70.9 87.4 59.7 92 48 92c-11.7 0-22.9-4.6-31.1-12.9C8.6 70.9 4 59.7 4 48zm8 0c0-9.5 3.8-18.7 10.5-25.5C29.3 15.8 38.5 12 48 12s18.7 3.8 25.5 10.5C80.2 29.3 84 38.5 84 48s-3.8 18.7-10.5 25.5C66.7 80.2 57.5 84 48 84s-18.7-3.8-25.5-10.5C15.8 66.7 12 57.5 12 48z" fill-rule="evenodd"/></svg>