<?xml version="1.0" standalone="no"?><!-- Generator: Gravit.io --><svg xmlns="http://www.w3.org/2000/svg" xmlns:xlink="http://www.w3.org/1999/xlink" width="96" height="96"><path d=" M 44.56225626619 37.20094858565 C 43.217955074199935 36.48226038681207 41.78394456043846 36.04132805337509 40.3 35.9 C 39.9 35.8 37.7 36.2 37.4 36.3 C 26.4 41 19.4 52.1 20 64.1 C 19.7 76.2 27.2 87.4 38.6 91.7 L 38.6 91.7 C 38.8 91.8 40.22066851410667 92.28667491992724 41.3 92.3 Q 43.0276356788177 92.32132883554095 45.5 90.9 Q 46.98681868686061 90.2 48 90.2 Q 49.01318131313939 90.2 50.5 90.9 Q 52.9723643211823 92.32132883554095 54.7 92.3 C 55.77933148589333 92.28667491992724 57.2 91.8 57.4 91.7 C 68.8 87.4 76.3 76.2 76 64.1 C 76.6 52.1 69.6 41 58.5 36.3 C 58.3 36.2 56.1 35.9 55.7 35.9 C 54.817138820711776 35.98408201707507 53.951952105412076 36.17421081808132 53.11375774415 36.4696409485 C 53.97517527383281 33.497083297281904 54.971486844015146 30.554474453373444 56.1 27.7 C 57.2 25 58.5 22.5 60 20.1 C 61.7 17.5 63.9 15.3 66.5 13.6 C 68.1 12.6 70 12 72 12 C 73.1 12 74.1 11.6 74.8 10.8 C 75.6 10.1 76 9.1 76 8 C 76 6.9 75.6 5.9 74.8 5.2 C 74.1 4.4 73.1 4 72 4 C 68.5 4 65.1 5 62.1 6.9 C 58.6 9.2 55.6 12.2 53.3 15.8 C 51.5 18.6 49.9 21.6 48.7 24.8 C 47.12488142679328 28.825303020417177 45.70291091035574 33.00375409760354 44.56225626619 37.20094858565 Z  M 40 43.9 C 39.8 43.9 40 43.9 40 43.9 L 40 43.9 Z  M 48 47 C 44.65169021694544 47 48.06302415499319 43.9 40 43.9 C 31.936975845006813 43.9 27.939159062903766 54.79778748196573 28 63.9 C 28.062160322616684 73.19960144683004 34.215 84 40.8 84 C 47.38499999999999 84 45.06186231396993 81.8 48 81.8 C 50.93813768603007 81.8 48.61500000000002 84 55.2 84 C 61.78499999999998 84 67.93783967738331 73.19960144683004 68 63.9 C 68.06084093709623 54.79778748196573 63.943835663416266 43.9 56 43.9 C 48.056164336583734 43.9 51.34830978305456 47 48 47 Z " fill-rule="evenodd" fill="#454545" stroke="none"/><mask id="_mask_0kvn8aQ81GNKKn1yZ4Cn38Y2HGmfrcX8"><path d=" M 44.56225626619 37.20094858565 C 43.217955074199935 36.48226038681207 41.78394456043846 36.04132805337509 40.3 35.9 C 39.9 35.8 37.7 36.2 37.4 36.3 C 26.4 41 19.4 52.1 20 64.1 C 19.7 76.2 27.2 87.4 38.6 91.7 L 38.6 91.7 C 38.8 91.8 40.22066851410667 92.28667491992724 41.3 92.3 Q 43.0276356788177 92.32132883554095 45.5 90.9 Q 46.98681868686061 90.2 48 90.2 Q 49.01318131313939 90.2 50.5 90.9 Q 52.9723643211823 92.32132883554095 54.7 92.3 C 55.77933148589333 92.28667491992724 57.2 91.8 57.4 91.7 C 68.8 87.4 76.3 76.2 76 64.1 C 76.6 52.1 69.6 41 58.5 36.3 C 58.3 36.2 56.1 35.9 55.7 35.9 C 54.817138820711776 35.98408201707507 53.951952105412076 36.17421081808132 53.11375774415 36.4696409485 C 53.97517527383281 33.497083297281904 54.971486844015146 30.554474453373444 56.1 27.7 C 57.2 25 58.5 22.5 60 20.1 C 61.7 17.5 63.9 15.3 66.5 13.6 C 68.1 12.6 70 12 72 12 C 73.1 12 74.1 11.6 74.8 10.8 C 75.6 10.1 76 9.1 76 8 C 76 6.9 75.6 5.9 74.8 5.2 C 74.1 4.4 73.1 4 72 4 C 68.5 4 65.1 5 62.1 6.9 C 58.6 9.2 55.6 12.2 53.3 15.8 C 51.5 18.6 49.9 21.6 48.7 24.8 C 47.12488142679328 28.825303020417177 45.70291091035574 33.00375409760354 44.56225626619 37.20094858565 Z  M 40 43.9 C 39.8 43.9 40 43.9 40 43.9 L 40 43.9 Z  M 48 47 C 44.65169021694544 47 48.06302415499319 43.9 40 43.9 C 31.936975845006813 43.9 27.939159062903766 54.79778748196573 28 63.9 C 28.062160322616684 73.19960144683004 34.215 84 40.8 84 C 47.38499999999999 84 45.06186231396993 81.8 48 81.8 C 50.93813768603007 81.8 48.61500000000002 84 55.2 84 C 61.78499999999998 84 67.93783967738331 73.19960144683004 68 63.9 C 68.06084093709623 54.79778748196573 63.943835663416266 43.9 56 43.9 C 48.056164336583734 43.9 51.34830978305456 47 48 47 Z " fill-rule="evenodd" fill="white" stroke="none"/></mask><path d=" M 44.56225626619 37.20094858565 C 43.217955074199935 36.48226038681207 41.78394456043846 36.04132805337509 40.3 35.9 C 39.9 35.8 37.7 36.2 37.4 36.3 C 26.4 41 19.4 52.1 20 64.1 C 19.7 76.2 27.2 87.4 38.6 91.7 L 38.6 91.7 C 38.8 91.8 40.22066851410667 92.28667491992724 41.3 92.3 Q 43.0276356788177 92.32132883554095 45.5 90.9 Q 46.98681868686061 90.2 48 90.2 Q 49.01318131313939 90.2 50.5 90.9 Q 52.9723643211823 92.32132883554095 54.7 92.3 C 55.77933148589333 92.28667491992724 57.2 91.8 57.4 91.7 C 68.8 87.4 76.3 76.2 76 64.1 C 76.6 52.1 69.6 41 58.5 36.3 C 58.3 36.2 56.1 35.9 55.7 35.9 C 54.817138820711776 35.98408201707507 53.951952105412076 36.17421081808132 53.11375774415 36.4696409485 C 53.97517527383281 33.497083297281904 54.971486844015146 30.554474453373444 56.1 27.7 C 57.2 25 58.5 22.5 60 20.1 C 61.7 17.5 63.9 15.3 66.5 13.6 C 68.1 12.6 70 12 72 12 C 73.1 12 74.1 11.6 74.8 10.8 C 75.6 10.1 76 9.1 76 8 C 76 6.9 75.6 5.9 74.8 5.2 C 74.1 4.4 73.1 4 72 4 C 68.5 4 65.1 5 62.1 6.9 C 58.6 9.2 55.6 12.2 53.3 15.8 C 51.5 18.6 49.9 21.6 48.7 24.8 C 47.12488142679328 28.825303020417177 45.70291091035574 33.00375409760354 44.56225626619 37.20094858565 Z  M 40 43.9 C 39.8 43.9 40 43.9 40 43.9 L 40 43.9 Z  M 48 47 C 44.65169021694544 47 48.06302415499319 43.9 40 43.9 C 31.936975845006813 43.9 27.939159062903766 54.79778748196573 28 63.9 C 28.062160322616684 73.19960144683004 34.215 84 40.8 84 C 47.38499999999999 84 45.06186231396993 81.8 48 81.8 C 50.93813768603007 81.8 48.61500000000002 84 55.2 84 C 61.78499999999998 84 67.93783967738331 73.19960144683004 68 63.9 C 68.06084093709623 54.79778748196573 63.943835663416266 43.9 56 43.9 C 48.056164336583734 43.9 51.34830978305456 47 48 47 Z " fill-rule="evenodd" fill="none" stroke="none" stroke-width="16" mask="url(#_mask_0kvn8aQ81GNKKn1yZ4Cn38Y2HGmfrcX8)"/></svg>