<svg xmlns="http://www.w3.org/2000/svg" width="96" height="96"><path d="M44.562 37.2a11.274 11.274 0 0 0-4.262-1.3c-.4-.1-2.6.3-2.9.4-11 4.7-18 15.8-17.4 27.8-.3 12.1 7.2 23.3 18.6 27.6.2.1 1.62.587 2.7.6q1.728.021 4.2-1.4 1.487-.7 2.5-.7t2.5.7q2.472 1.421 4.2 1.4c1.08-.013 2.5-.5 2.7-.6C68.8 87.4 76.3 76.2 76 64.1c.6-12-6.4-23.1-17.5-27.8-.2-.1-2.4-.4-2.8-.4-.883.084-1.748.274-2.586.57A98.397 98.397 0 0 1 56.1 27.7c1.1-2.7 2.4-5.2 3.9-7.6 1.7-2.6 3.9-4.8 6.5-6.5 1.6-1 3.5-1.6 5.5-1.6 1.1 0 2.1-.4 2.8-1.2.8-.7 1.2-1.7 1.2-2.8 0-1.1-.4-2.1-1.2-2.8C74.1 4.4 73.1 4 72 4c-3.5 0-6.9 1-9.9 2.9-3.5 2.3-6.5 5.3-8.8 8.9-1.8 2.8-3.4 5.8-4.6 9-1.575 4.025-2.997 8.204-4.138 12.4zM40 43.9c-.2 0 0 0 0 0zm8 3.1c-3.348 0 .063-3.1-8-3.1s-12.06 10.898-12 20c.062 9.3 6.215 20.1 12.8 20.1 6.585 0 4.262-2.2 7.2-2.2 2.938 0 .615 2.2 7.2 2.2S67.938 73.2 68 63.9c.06-9.102-4.056-20-12-20S51.348 47 48 47z" fill-rule="evenodd"/></svg>