<?xml version="1.0" standalone="no"?><!-- Generator: Gravit.io --><svg xmlns="http://www.w3.org/2000/svg" xmlns:xlink="http://www.w3.org/1999/xlink" width="96" height="96"><path d=" M 80.21252812695974 76.31581234260875 L 80.28323880507838 20.949351375702086 L 78.72760388646796 17.27239611353204 L 75.05064862429793 15.71676119492163 L 19.68418765739125 15.787471873040303 C 18.623527485611433 15.716761194921645 17.63357799195027 16.141025263633576 16.855760532645064 16.91884272293878 C 16.07794307333986 17.696660182243978 15.653679004627932 18.686609675905153 15.72438968274659 19.74726984768497 C 15.653679004627932 20.80793001946479 16.07794307333986 21.797879513125956 16.855760532645064 22.57569697243116 C 17.63357799195027 23.35351443173636 18.623527485611433 23.777778500448292 19.684187657391256 23.707067822329634 L 72.22222149955172 23.777778500448278 L 72.29293217767042 76.31581234260875 C 72.22222149955175 77.37647251438858 72.64648556826367 78.36642200804975 73.42430302756887 79.14423946735495 C 74.20212048687407 79.92205692666015 75.19206998053525 80.34632099537207 76.25273015231508 80.27561031725342 C 77.31339032409488 80.34632099537208 78.30333981775607 79.92205692666015 79.08115727706127 79.14423946735495 C 79.85897473636646 78.36642200804974 80.28323880507838 77.37647251438858 80.21252812695974 76.31581234260875 Z " fill="#454545" stroke="none"/><mask id="_mask_SA0B2JuYiKfDibE118pQZdUrfugBihWY"><path d=" M 80.21252812695974 76.31581234260875 L 80.28323880507838 20.949351375702086 L 78.72760388646796 17.27239611353204 L 75.05064862429793 15.71676119492163 L 19.68418765739125 15.787471873040303 C 18.623527485611433 15.716761194921645 17.63357799195027 16.141025263633576 16.855760532645064 16.91884272293878 C 16.07794307333986 17.696660182243978 15.653679004627932 18.686609675905153 15.72438968274659 19.74726984768497 C 15.653679004627932 20.80793001946479 16.07794307333986 21.797879513125956 16.855760532645064 22.57569697243116 C 17.63357799195027 23.35351443173636 18.623527485611433 23.777778500448292 19.684187657391256 23.707067822329634 L 72.22222149955172 23.777778500448278 L 72.29293217767042 76.31581234260875 C 72.22222149955175 77.37647251438858 72.64648556826367 78.36642200804975 73.42430302756887 79.14423946735495 C 74.20212048687407 79.92205692666015 75.19206998053525 80.34632099537207 76.25273015231508 80.27561031725342 C 77.31339032409488 80.34632099537208 78.30333981775607 79.92205692666015 79.08115727706127 79.14423946735495 C 79.85897473636646 78.36642200804974 80.28323880507838 77.37647251438858 80.21252812695974 76.31581234260875 Z " fill="white" stroke="none"/></mask><path d=" M 80.21252812695974 76.31581234260875 L 80.28323880507838 20.949351375702086 L 78.72760388646796 17.27239611353204 L 75.05064862429793 15.71676119492163 L 19.68418765739125 15.787471873040303 C 18.623527485611433 15.716761194921645 17.63357799195027 16.141025263633576 16.855760532645064 16.91884272293878 C 16.07794307333986 17.696660182243978 15.653679004627932 18.686609675905153 15.72438968274659 19.74726984768497 C 15.653679004627932 20.80793001946479 16.07794307333986 21.797879513125956 16.855760532645064 22.57569697243116 C 17.63357799195027 23.35351443173636 18.623527485611433 23.777778500448292 19.684187657391256 23.707067822329634 L 72.22222149955172 23.777778500448278 L 72.29293217767042 76.31581234260875 C 72.22222149955175 77.37647251438858 72.64648556826367 78.36642200804975 73.42430302756887 79.14423946735495 C 74.20212048687407 79.92205692666015 75.19206998053525 80.34632099537207 76.25273015231508 80.27561031725342 C 77.31339032409488 80.34632099537208 78.30333981775607 79.92205692666015 79.08115727706127 79.14423946735495 C 79.85897473636646 78.36642200804974 80.28323880507838 77.37647251438858 80.21252812695974 76.31581234260875 Z " fill="none" stroke="none" stroke-width="16" mask="url(#_mask_SA0B2JuYiKfDibE118pQZdUrfugBihWY)"/></svg>