<?xml version="1.0" standalone="no"?><!-- Generator: Gravit.io --><svg xmlns="http://www.w3.org/2000/svg" xmlns:xlink="http://www.w3.org/1999/xlink" width="96" height="96"><path d=" M 20 12 C 21.1 12 22.1 12.4 22.8 13.2 C 23.6 13.9 24 14.9 24 16 C 24 17.1 23.6 18.1 22.8 18.8 C 22.1 19.6 21.1 20 20 20 L 20 84 L 76 84 L 76 20 C 74.9 20 73.9 19.6 73.2 18.8 C 72.4 18.1 72 17.1 72 16 C 72 14.9 72.4 13.9 73.2 13.2 C 73.9 12.4 74.9 12 76 12 C 78.1 12 80.2 12.8 81.7 14.3 C 83.2 15.8 84 17.9 84 20 L 84 84 C 84 86.1 83.2 88.2 81.7 89.7 C 80.2 91.2 78.1 92 76 92 L 20 92 C 17.9 92 15.8 91.2 14.3 89.7 C 12.8 88.2 12 86.1 12 84 L 12 20 C 12 17.9 12.8 15.8 14.3 14.3 C 15.8 12.8 17.9 12 20 12 Z  M 36 20 L 36 24 L 60 24 L 60 20 C 57.9 20 55.8 19.2 54.3 17.7 C 52.8 16.2 52 14.1 52 12 L 44 12 C 44 14.1 43.2 16.2 41.7 17.7 C 40.2 19.2 38.1 20 36 20 Z  M 28 20 L 28 24 C 28 26.1 28.8 28.2 30.3 29.7 C 31.8 31.2 33.9 32 36 32 L 60 32 C 62.1 32 64.2 31.2 65.7 29.7 C 67.2 28.2 68 26.1 68 24 L 68 20 C 68 17.9 67.2 15.8 65.7 14.3 C 64.2 12.8 62.1 12 60 12 C 60 9.9 59.2 7.8 57.7 6.3 C 56.2 4.8 54.1 4 52 4 L 44 4 C 41.9 4 39.8 4.8 38.3 6.3 C 36.8 7.8 36 9.9 36 12 C 33.9 12 31.8 12.8 30.3 14.3 C 28.8 15.8 28 17.9 28 20 Z " fill-rule="evenodd" fill="#454545" stroke="none"/><mask id="_mask_tWbgI3F072OtRCByapMMOTlyTOIelGOU"><path d=" M 20 12 C 21.1 12 22.1 12.4 22.8 13.2 C 23.6 13.9 24 14.9 24 16 C 24 17.1 23.6 18.1 22.8 18.8 C 22.1 19.6 21.1 20 20 20 L 20 84 L 76 84 L 76 20 C 74.9 20 73.9 19.6 73.2 18.8 C 72.4 18.1 72 17.1 72 16 C 72 14.9 72.4 13.9 73.2 13.2 C 73.9 12.4 74.9 12 76 12 C 78.1 12 80.2 12.8 81.7 14.3 C 83.2 15.8 84 17.9 84 20 L 84 84 C 84 86.1 83.2 88.2 81.7 89.7 C 80.2 91.2 78.1 92 76 92 L 20 92 C 17.9 92 15.8 91.2 14.3 89.7 C 12.8 88.2 12 86.1 12 84 L 12 20 C 12 17.9 12.8 15.8 14.3 14.3 C 15.8 12.8 17.9 12 20 12 Z  M 36 20 L 36 24 L 60 24 L 60 20 C 57.9 20 55.8 19.2 54.3 17.7 C 52.8 16.2 52 14.1 52 12 L 44 12 C 44 14.1 43.2 16.2 41.7 17.7 C 40.2 19.2 38.1 20 36 20 Z  M 28 20 L 28 24 C 28 26.1 28.8 28.2 30.3 29.7 C 31.8 31.2 33.9 32 36 32 L 60 32 C 62.1 32 64.2 31.2 65.7 29.7 C 67.2 28.2 68 26.1 68 24 L 68 20 C 68 17.9 67.2 15.8 65.7 14.3 C 64.2 12.8 62.1 12 60 12 C 60 9.9 59.2 7.8 57.7 6.3 C 56.2 4.8 54.1 4 52 4 L 44 4 C 41.9 4 39.8 4.8 38.3 6.3 C 36.8 7.8 36 9.9 36 12 C 33.9 12 31.8 12.8 30.3 14.3 C 28.8 15.8 28 17.9 28 20 Z " fill-rule="evenodd" fill="white" stroke="none"/></mask><path d=" M 20 12 C 21.1 12 22.1 12.4 22.8 13.2 C 23.6 13.9 24 14.9 24 16 C 24 17.1 23.6 18.1 22.8 18.8 C 22.1 19.6 21.1 20 20 20 L 20 84 L 76 84 L 76 20 C 74.9 20 73.9 19.6 73.2 18.8 C 72.4 18.1 72 17.1 72 16 C 72 14.9 72.4 13.9 73.2 13.2 C 73.9 12.4 74.9 12 76 12 C 78.1 12 80.2 12.8 81.7 14.3 C 83.2 15.8 84 17.9 84 20 L 84 84 C 84 86.1 83.2 88.2 81.7 89.7 C 80.2 91.2 78.1 92 76 92 L 20 92 C 17.9 92 15.8 91.2 14.3 89.7 C 12.8 88.2 12 86.1 12 84 L 12 20 C 12 17.9 12.8 15.8 14.3 14.3 C 15.8 12.8 17.9 12 20 12 Z  M 36 20 L 36 24 L 60 24 L 60 20 C 57.9 20 55.8 19.2 54.3 17.7 C 52.8 16.2 52 14.1 52 12 L 44 12 C 44 14.1 43.2 16.2 41.7 17.7 C 40.2 19.2 38.1 20 36 20 Z  M 28 20 L 28 24 C 28 26.1 28.8 28.2 30.3 29.7 C 31.8 31.2 33.9 32 36 32 L 60 32 C 62.1 32 64.2 31.2 65.7 29.7 C 67.2 28.2 68 26.1 68 24 L 68 20 C 68 17.9 67.2 15.8 65.7 14.3 C 64.2 12.8 62.1 12 60 12 C 60 9.9 59.2 7.8 57.7 6.3 C 56.2 4.8 54.1 4 52 4 L 44 4 C 41.9 4 39.8 4.8 38.3 6.3 C 36.8 7.8 36 9.9 36 12 C 33.9 12 31.8 12.8 30.3 14.3 C 28.8 15.8 28 17.9 28 20 Z " fill-rule="evenodd" fill="none" stroke="none" stroke-width="16" mask="url(#_mask_tWbgI3F072OtRCByapMMOTlyTOIelGOU)"/></svg>