<?xml version="1.0" standalone="no"?><!-- Generator: Gravit.io --><svg xmlns="http://www.w3.org/2000/svg" xmlns:xlink="http://www.w3.org/1999/xlink" width="96" height="96"><path d=" M 48 50.4 L 48 28 C 48 26.9 47.6 25.9 46.8 25.2 C 46.1 24.4 45.1 24 44 24 C 42.9 24 41.9 24.4 41.2 25.2 C 40.4 25.9 40 26.9 40 28 L 40 52 C 40 53.1 40.4 54.1 41.2 54.8 C 41.30139887508415 54.915884428667596 41.40909268804678 55.023375606830356 41.52247353449 55.12247353449 L 53.2 66.8 C 53.9 67.6 54.9 68 56 68 C 57.1 68 58.1 67.6 58.8 66.8 C 59.6 66.1 60 65.1 60 64 C 60 62.9 59.6 61.9 58.8 61.2 L 48 50.4 Z  M 4 48 C 4 36.3 8.6 25.1 16.9 16.9 C 25.1 8.6 36.3 4 48 4 C 59.7 4 70.9 8.6 79.1 16.9 C 87.4 25.1 92 36.3 92 48 C 92 59.7 87.4 70.9 79.1 79.1 C 70.9 87.4 59.7 92 48 92 C 36.3 92 25.1 87.4 16.9 79.1 C 8.6 70.9 4 59.7 4 48 Z  M 12 48 C 12 38.5 15.8 29.3 22.5 22.5 C 29.3 15.8 38.5 12 48 12 C 57.5 12 66.7 15.8 73.5 22.5 C 80.2 29.3 84 38.5 84 48 C 84 57.5 80.2 66.7 73.5 73.5 C 66.7 80.2 57.5 84 48 84 C 38.5 84 29.3 80.2 22.5 73.5 C 15.8 66.7 12 57.5 12 48 Z " fill-rule="evenodd" fill="#454545" stroke="none"/><mask id="_mask_Bur0rrsJJcHwozAvwMjssTWfmCPFWEGd"><path d=" M 48 50.4 L 48 28 C 48 26.9 47.6 25.9 46.8 25.2 C 46.1 24.4 45.1 24 44 24 C 42.9 24 41.9 24.4 41.2 25.2 C 40.4 25.9 40 26.9 40 28 L 40 52 C 40 53.1 40.4 54.1 41.2 54.8 C 41.30139887508415 54.915884428667596 41.40909268804678 55.023375606830356 41.52247353449 55.12247353449 L 53.2 66.8 C 53.9 67.6 54.9 68 56 68 C 57.1 68 58.1 67.6 58.8 66.8 C 59.6 66.1 60 65.1 60 64 C 60 62.9 59.6 61.9 58.8 61.2 L 48 50.4 Z  M 4 48 C 4 36.3 8.6 25.1 16.9 16.9 C 25.1 8.6 36.3 4 48 4 C 59.7 4 70.9 8.6 79.1 16.9 C 87.4 25.1 92 36.3 92 48 C 92 59.7 87.4 70.9 79.1 79.1 C 70.9 87.4 59.7 92 48 92 C 36.3 92 25.1 87.4 16.9 79.1 C 8.6 70.9 4 59.7 4 48 Z  M 12 48 C 12 38.5 15.8 29.3 22.5 22.5 C 29.3 15.8 38.5 12 48 12 C 57.5 12 66.7 15.8 73.5 22.5 C 80.2 29.3 84 38.5 84 48 C 84 57.5 80.2 66.7 73.5 73.5 C 66.7 80.2 57.5 84 48 84 C 38.5 84 29.3 80.2 22.5 73.5 C 15.8 66.7 12 57.5 12 48 Z " fill-rule="evenodd" fill="white" stroke="none"/></mask><path d=" M 48 50.4 L 48 28 C 48 26.9 47.6 25.9 46.8 25.2 C 46.1 24.4 45.1 24 44 24 C 42.9 24 41.9 24.4 41.2 25.2 C 40.4 25.9 40 26.9 40 28 L 40 52 C 40 53.1 40.4 54.1 41.2 54.8 C 41.30139887508415 54.915884428667596 41.40909268804678 55.023375606830356 41.52247353449 55.12247353449 L 53.2 66.8 C 53.9 67.6 54.9 68 56 68 C 57.1 68 58.1 67.6 58.8 66.8 C 59.6 66.1 60 65.1 60 64 C 60 62.9 59.6 61.9 58.8 61.2 L 48 50.4 Z  M 4 48 C 4 36.3 8.6 25.1 16.9 16.9 C 25.1 8.6 36.3 4 48 4 C 59.7 4 70.9 8.6 79.1 16.9 C 87.4 25.1 92 36.3 92 48 C 92 59.7 87.4 70.9 79.1 79.1 C 70.9 87.4 59.7 92 48 92 C 36.3 92 25.1 87.4 16.9 79.1 C 8.6 70.9 4 59.7 4 48 Z  M 12 48 C 12 38.5 15.8 29.3 22.5 22.5 C 29.3 15.8 38.5 12 48 12 C 57.5 12 66.7 15.8 73.5 22.5 C 80.2 29.3 84 38.5 84 48 C 84 57.5 80.2 66.7 73.5 73.5 C 66.7 80.2 57.5 84 48 84 C 38.5 84 29.3 80.2 22.5 73.5 C 15.8 66.7 12 57.5 12 48 Z " fill-rule="evenodd" fill="none" stroke="none" stroke-width="16" mask="url(#_mask_Bur0rrsJJcHwozAvwMjssTWfmCPFWEGd)"/></svg>