<svg xmlns="http://www.w3.org/2000/svg" width="96" height="96"><path d="M48 24.038A29.895 29.895 0 0 0 30 18c-7.969 0-15.563 3.187-21.188 8.813C3.188 32.438 0 40.03 0 48c0 7.969 3.187 15.563 8.813 21.188C14.436 74.811 22.03 78 30 78a29.895 29.895 0 0 0 18-6.038A29.895 29.895 0 0 0 66 78c7.969 0 15.563-3.188 21.188-8.813C92.811 63.563 96 55.97 96 48c0-7.969-3.188-15.563-8.813-21.188C81.564 21.188 73.97 18 66 18a29.895 29.895 0 0 0-18 6.038zm5.412 5.292a29.744 29.744 0 0 1 0 37.34C57.09 69.16 61.465 70.5 66 70.5c6 0 11.719-2.344 15.938-6.563C86.156 59.72 88.5 54 88.5 48s-2.344-11.719-6.563-15.938C77.72 27.845 72 25.5 66 25.5c-4.535 0-8.91 1.339-12.588 3.83zm-10.824 0C38.91 26.84 34.535 25.5 30 25.5c-6 0-11.719 2.344-15.938 6.563C9.845 36.28 7.5 42 7.5 48s2.344 11.719 6.563 15.938C18.28 68.156 24 70.5 30 70.5c4.535 0 8.91-1.339 12.588-3.83a29.744 29.744 0 0 1 0-37.34zM48 34.437c2.913 3.878 4.5 8.625 4.5 13.563 0 4.938-1.587 9.685-4.5 13.563-2.913-3.878-4.5-8.625-4.5-13.563 0-4.938 1.587-9.685 4.5-13.563z" fill-rule="evenodd" fill="#454545"/></svg>