<?xml version="1.0" standalone="no"?><!-- Generator: Gravit.io --><svg xmlns="http://www.w3.org/2000/svg" xmlns:xlink="http://www.w3.org/1999/xlink" width="96" height="96"><path d=" M 48 24.03770026693 C 42.841832538223045 20.151892449358748 36.54749817789733 17.999999999999996 30 18 C 22.031249999999996 17.999999999999996 14.437499999999996 21.187499999999996 8.8125 26.8125 C 3.1874999999999964 32.4375 -3.552713678800501e-15 40.03125 0 48 L 0 48 C -3.552713678800501e-15 55.96875 3.1874999999999964 63.5625 8.8125 69.1875 C 14.437499999999996 74.8125 22.031249999999996 78 30 78 C 36.54749817789733 78 42.841832538223045 75.84810755064126 48 71.96229973307 C 53.158167461776955 75.84810755064126 59.452501822102676 78 66 78 C 73.96875 78 81.5625 74.8125 87.1875 69.1875 C 92.8125 63.5625 96 55.96875 96 48 C 96 40.03125 92.8125 32.4375 87.1875 26.8125 C 81.5625 21.1875 73.96875 18 66 18 C 59.452501822102676 18 53.15816746177697 20.15189244935875 48 24.03770026693 Z  M 53.41206095702 29.33008106861 C 57.6518317738374 34.597086414699035 60 41.16041566463407 60 48 C 60 54.83958433536593 57.65183177383741 61.40291358530096 53.41206095702 66.66991893139 C 57.090337030729614 69.16095002658746 61.46482551696006 70.5 66 70.5 C 72 70.5 77.71875 68.15625 81.9375 63.9375 C 86.15625 59.71875 88.5 54 88.5 48 C 88.5 42 86.15625 36.28125 81.9375 32.0625 C 77.71875 27.84375 72 25.5 66 25.5 C 61.464825516960055 25.5 57.090337030729614 26.839049973412543 53.41206095702 29.33008106861 Z  M 42.58793904298 29.33008106861 C 38.90966296927039 26.83904997341254 34.53517448303995 25.499999999999996 30 25.5 C 23.999999999999996 25.499999999999996 18.281249999999996 27.843749999999996 14.0625 32.0625 C 9.843749999999996 36.28125 7.4999999999999964 42 7.5 48 L 7.5 48 C 7.4999999999999964 54 9.843749999999996 59.71875 14.0625 63.9375 C 18.281249999999996 68.15625 23.999999999999996 70.5 30 70.5 C 34.535174483039945 70.5 38.90966296927039 69.16095002658746 42.58793904298 66.66991893139 C 38.348168226162606 61.40291358530096 36.00000000000001 54.83958433536593 36 48 L 36 48 C 36.00000000000001 41.16041566463407 38.348168226162606 34.597086414699035 42.58793904298 29.33008106861 Z  M 48 34.43728634112 C 50.91269008174107 38.31503687707953 52.5 43.06227984344423 52.5 48 C 52.5 52.93772015655577 50.91269008174107 57.68496312292047 48 61.56271365888 C 45.08730991825894 57.68496312292047 43.50000000000001 52.93772015655577 43.5 48 L 43.5 48 C 43.50000000000001 43.06227984344423 45.08730991825894 38.31503687707953 48 34.43728634112 Z " fill-rule="evenodd" fill="#454545" stroke="none"/><mask id="_mask_Ns3KKUUZ6vFPIxTemiPZd0J7AHYaryyZ"><path d=" M 48 24.03770026693 C 42.841832538223045 20.151892449358748 36.54749817789733 17.999999999999996 30 18 C 22.031249999999996 17.999999999999996 14.437499999999996 21.187499999999996 8.8125 26.8125 C 3.1874999999999964 32.4375 -3.552713678800501e-15 40.03125 0 48 L 0 48 C -3.552713678800501e-15 55.96875 3.1874999999999964 63.5625 8.8125 69.1875 C 14.437499999999996 74.8125 22.031249999999996 78 30 78 C 36.54749817789733 78 42.841832538223045 75.84810755064126 48 71.96229973307 C 53.158167461776955 75.84810755064126 59.452501822102676 78 66 78 C 73.96875 78 81.5625 74.8125 87.1875 69.1875 C 92.8125 63.5625 96 55.96875 96 48 C 96 40.03125 92.8125 32.4375 87.1875 26.8125 C 81.5625 21.1875 73.96875 18 66 18 C 59.452501822102676 18 53.15816746177697 20.15189244935875 48 24.03770026693 Z  M 53.41206095702 29.33008106861 C 57.6518317738374 34.597086414699035 60 41.16041566463407 60 48 C 60 54.83958433536593 57.65183177383741 61.40291358530096 53.41206095702 66.66991893139 C 57.090337030729614 69.16095002658746 61.46482551696006 70.5 66 70.5 C 72 70.5 77.71875 68.15625 81.9375 63.9375 C 86.15625 59.71875 88.5 54 88.5 48 C 88.5 42 86.15625 36.28125 81.9375 32.0625 C 77.71875 27.84375 72 25.5 66 25.5 C 61.464825516960055 25.5 57.090337030729614 26.839049973412543 53.41206095702 29.33008106861 Z  M 42.58793904298 29.33008106861 C 38.90966296927039 26.83904997341254 34.53517448303995 25.499999999999996 30 25.5 C 23.999999999999996 25.499999999999996 18.281249999999996 27.843749999999996 14.0625 32.0625 C 9.843749999999996 36.28125 7.4999999999999964 42 7.5 48 L 7.5 48 C 7.4999999999999964 54 9.843749999999996 59.71875 14.0625 63.9375 C 18.281249999999996 68.15625 23.999999999999996 70.5 30 70.5 C 34.535174483039945 70.5 38.90966296927039 69.16095002658746 42.58793904298 66.66991893139 C 38.348168226162606 61.40291358530096 36.00000000000001 54.83958433536593 36 48 L 36 48 C 36.00000000000001 41.16041566463407 38.348168226162606 34.597086414699035 42.58793904298 29.33008106861 Z  M 48 34.43728634112 C 50.91269008174107 38.31503687707953 52.5 43.06227984344423 52.5 48 C 52.5 52.93772015655577 50.91269008174107 57.68496312292047 48 61.56271365888 C 45.08730991825894 57.68496312292047 43.50000000000001 52.93772015655577 43.5 48 L 43.5 48 C 43.50000000000001 43.06227984344423 45.08730991825894 38.31503687707953 48 34.43728634112 Z " fill-rule="evenodd" fill="white" stroke="none"/></mask><path d=" M 48 24.03770026693 C 42.841832538223045 20.151892449358748 36.54749817789733 17.999999999999996 30 18 C 22.031249999999996 17.999999999999996 14.437499999999996 21.187499999999996 8.8125 26.8125 C 3.1874999999999964 32.4375 -3.552713678800501e-15 40.03125 0 48 L 0 48 C -3.552713678800501e-15 55.96875 3.1874999999999964 63.5625 8.8125 69.1875 C 14.437499999999996 74.8125 22.031249999999996 78 30 78 C 36.54749817789733 78 42.841832538223045 75.84810755064126 48 71.96229973307 C 53.158167461776955 75.84810755064126 59.452501822102676 78 66 78 C 73.96875 78 81.5625 74.8125 87.1875 69.1875 C 92.8125 63.5625 96 55.96875 96 48 C 96 40.03125 92.8125 32.4375 87.1875 26.8125 C 81.5625 21.1875 73.96875 18 66 18 C 59.452501822102676 18 53.15816746177697 20.15189244935875 48 24.03770026693 Z  M 53.41206095702 29.33008106861 C 57.6518317738374 34.597086414699035 60 41.16041566463407 60 48 C 60 54.83958433536593 57.65183177383741 61.40291358530096 53.41206095702 66.66991893139 C 57.090337030729614 69.16095002658746 61.46482551696006 70.5 66 70.5 C 72 70.5 77.71875 68.15625 81.9375 63.9375 C 86.15625 59.71875 88.5 54 88.5 48 C 88.5 42 86.15625 36.28125 81.9375 32.0625 C 77.71875 27.84375 72 25.5 66 25.5 C 61.464825516960055 25.5 57.090337030729614 26.839049973412543 53.41206095702 29.33008106861 Z  M 42.58793904298 29.33008106861 C 38.90966296927039 26.83904997341254 34.53517448303995 25.499999999999996 30 25.5 C 23.999999999999996 25.499999999999996 18.281249999999996 27.843749999999996 14.0625 32.0625 C 9.843749999999996 36.28125 7.4999999999999964 42 7.5 48 L 7.5 48 C 7.4999999999999964 54 9.843749999999996 59.71875 14.0625 63.9375 C 18.281249999999996 68.15625 23.999999999999996 70.5 30 70.5 C 34.535174483039945 70.5 38.90966296927039 69.16095002658746 42.58793904298 66.66991893139 C 38.348168226162606 61.40291358530096 36.00000000000001 54.83958433536593 36 48 L 36 48 C 36.00000000000001 41.16041566463407 38.348168226162606 34.597086414699035 42.58793904298 29.33008106861 Z  M 48 34.43728634112 C 50.91269008174107 38.31503687707953 52.5 43.06227984344423 52.5 48 C 52.5 52.93772015655577 50.91269008174107 57.68496312292047 48 61.56271365888 C 45.08730991825894 57.68496312292047 43.50000000000001 52.93772015655577 43.5 48 L 43.5 48 C 43.50000000000001 43.06227984344423 45.08730991825894 38.31503687707953 48 34.43728634112 Z " fill-rule="evenodd" fill="none" stroke="none" stroke-width="16" mask="url(#_mask_Ns3KKUUZ6vFPIxTemiPZd0J7AHYaryyZ)"/></svg>