<svg xmlns="http://www.w3.org/2000/svg" width="96" height="96"><path d="M42.355 48l-28.09-28.091c-1.631-1.63-1.69-4.219-.133-5.777 1.558-1.557 4.146-1.498 5.777.132L48 42.355l28.091-28.09c1.63-1.631 4.219-1.69 5.777-.133 1.557 1.558 1.498 4.146-.132 5.777L53.645 48l28.09 28.091c1.631 1.63 1.69 4.219.133 5.777-1.558 1.557-4.146 1.498-5.777-.132L48 53.645l-28.091 28.09c-1.63 1.631-4.219 1.69-5.777.133-1.557-1.558-1.498-4.146.132-5.777L42.355 48z" fill="#454545" stroke="rgba(0,0,0,0)" stroke-linecap="square"/></svg>