<?xml version="1.0" standalone="no"?><!-- Generator: Gravit.io --><svg xmlns="http://www.w3.org/2000/svg" xmlns:xlink="http://www.w3.org/1999/xlink" width="96" height="96"><path d=" M 42.35540806824 48 L 14.26434822708 19.90894015883 C 12.633883202138495 18.27847513389681 12.574780874996067 15.690115943904301 14.13244840945 14.13244840945 C 15.690115943904287 12.574780874996081 18.278475133896794 12.63388320213851 19.90894015883 14.26434822708 L 48 42.35540806824 L 76.09105984117 14.26434822708 C 77.7215248661032 12.633883202138495 80.3098840560957 12.574780874996067 81.86755159055 14.13244840945 C 83.42521912500392 15.690115943904287 83.3661167978615 18.278475133896794 81.73565177292 19.90894015883 L 53.64459193176 48 L 81.73565177292 76.09105984117 C 83.3661167978615 77.72152486610321 83.42521912500392 80.30988405609571 81.86755159055 81.86755159055 C 80.3098840560957 83.42521912500393 77.7215248661032 83.36611679786151 76.09105984117 81.73565177292 L 48 53.64459193176 L 19.90894015883 81.73565177292 C 18.278475133896794 83.3661167978615 15.690115943904287 83.42521912500392 14.13244840945 81.86755159055 C 12.574780874996067 80.3098840560957 12.633883202138495 77.7215248661032 14.26434822708 76.09105984117 L 42.35540806824 48 Z " fill="#454545" stroke-width="1" stroke="rgba(0,0,0,0)" stroke-linejoin="miter" stroke-linecap="square"/></svg>