<svg xmlns="http://www.w3.org/2000/svg" style="isolation:isolate" width="96" height="96"><path d="M25.7 61.35c.9.4 1.7 1.2 2.1 2.2.3 1 .3 2.1-.2 3.1-.4.9-1.2 1.7-2.2 2.1-1 .3-2.1.3-3.1-.2-11.1-5.1-18.2-16.2-18.3-28.4 0-8.5 3.4-16.7 9.4-22.7s14.1-9.4 22.6-9.4c11.7 0 22.4 6.4 28 16.6l3.4-.5c.2 0 .4-.1.6-.1 6.4 0 12.5 2.6 17 7.1s7 10.6 7 16.9c.1 11.5-8 21.5-19.2 23.8-1 .2-2.1 0-3-.5-.9-.6-1.5-1.5-1.7-2.6-.2-1 0-2.1.5-3 .6-.9 1.5-1.5 2.6-1.7 7.5-1.6 12.9-8.3 12.8-15.9 0-4.2-1.6-8.3-4.6-11.3-2.9-2.9-6.9-4.7-11.1-4.8l-5.9 1c-1.8.3-3.6-.7-4.3-2.4-3.8-8.8-12.5-14.6-22.1-14.6-6.4 0-12.5 2.6-17 7.1s-7 10.6-7 16.9c.1 9.1 5.4 17.4 13.7 21.3zM44 75.266l-1.2-1.176c-.7-.8-1.7-1.2-2.8-1.2-1.1 0-2.1.4-2.8 1.2-.8.7-1.2 1.7-1.2 2.8 0 1.1.4 2.1 1.2 2.8l5.695 5.775c.775.786 2.233 1.76 3.255 2.175 1.02.413 2.678.413 3.7 0 1.02-.414 2.479-1.389 3.254-2.175L58.8 79.69c.8-.7 1.2-1.7 1.2-2.8 0-1.1-.4-2.1-1.2-2.8-.7-.8-1.7-1.2-2.8-1.2-1.1 0-2.1.4-2.8 1.2L52 75.266V44.89c0-1.1-.4-2.1-1.2-2.8-.7-.8-1.7-1.2-2.8-1.2-1.1 0-2.1.4-2.8 1.2-.8.7-1.2 1.7-1.2 2.8v30.376z" fill-rule="evenodd"/></svg>