<?xml version="1.0" standalone="no"?><!-- Generator: Gravit.io --><svg xmlns="http://www.w3.org/2000/svg" xmlns:xlink="http://www.w3.org/1999/xlink" width="96" height="96"><path d=" M 32 80 C 23.5 80 15.4 76.6 9.4 70.6 C 3.4 64.6 0 56.5 0 48 C 0 39.5 3.4 31.4 9.4 25.4 C 15.4 19.4 23.5 16 32 16 C 44.5 16 55.9 23.3 61.1 34.6 C 64.5 32.9 68.2 32 72 32 C 78.4 32 84.5 34.5 89 39 C 93.5 43.5 96 49.6 96 56 C 96 62.400000000000006 93.5 68.5 89 73 C 84.5 77.5 78.4 80 72 80 L 72 80 L 32 80 Z  M 32 72 C 25.6 72 19.5 69.5 15 65 C 10.5 60.5 8 54.4 8 48 C 8 41.6 10.5 35.5 15 31 C 19.5 26.5 25.6 24 32 24 C 42.8 24 52.4 31.299999999999997 55.2 41.8 C 55.5 43.1 56.6 44.2 57.9 44.6 C 59.2 45 60.6 44.7 61.7 43.8 C 64.5 41.4 68.2 40 72 40 C 76.2 40 80.3 41.7 83.3 44.7 C 86.3 47.7 88 51.8 88 56 C 88 60.2 86.3 64.3 83.3 67.3 C 80.3 70.3 76.2 72 72 72 L 72 72 L 32 72 Z " fill-rule="evenodd" fill="#454545"/></svg>
