<svg xmlns="http://www.w3.org/2000/svg" width="96" height="96"><path d="M16 65.682A32.25 32.25 0 0 1 9.4 60.6C3.4 54.6 0 46.5 0 38c0-8.5 3.4-16.6 9.4-22.6S23.5 6 32 6c12.5 0 23.9 7.3 29.1 18.6C64.5 22.9 68.2 22 72 22c6.4 0 12.5 2.5 17 7s7 10.6 7 17-2.5 12.5-7 17a23.827 23.827 0 0 1-9 5.648v-8.813a16.042 16.042 0 0 0 3.3-2.535c3-3 4.7-7.1 4.7-11.3 0-4.2-1.7-8.3-4.7-11.3S76.2 30 72 30c-3.8 0-7.5 1.4-10.3 3.8-1.1.9-2.5 1.2-3.8.8-1.3-.4-2.4-1.5-2.7-2.8C52.4 21.3 42.8 14 32 14c-6.4 0-12.5 2.5-17 7S8 31.6 8 38s2.5 12.5 7 17c.325.325.659.64 1 .944v9.738zm36-10.059V86c0 1.1-.4 2.1-1.2 2.8-.7.8-1.7 1.2-2.8 1.2-1.1 0-2.1-.4-2.8-1.2-.8-.7-1.2-1.7-1.2-2.8V55.623L42.8 56.8c-.7.8-1.7 1.2-2.8 1.2-1.1 0-2.1-.4-2.8-1.2-.8-.7-1.2-1.7-1.2-2.8 0-1.1.4-2.1 1.2-2.8l7.1-7.2q2.142-1.5 3.7-1.5 1.558 0 3.7 1.5l7.1 7.2c.8.7 1.2 1.7 1.2 2.8 0 1.1-.4 2.1-1.2 2.8-.7.8-1.7 1.2-2.8 1.2-1.1 0-2.1-.4-2.8-1.2L52 55.623z" fill-rule="evenodd" fill="#454545"/></svg>