<svg xmlns="http://www.w3.org/2000/svg" width="96" height="96"><path d="M32 80c-8.5 0-16.6-3.4-22.6-9.4S0 56.5 0 48c0-8.5 3.4-16.6 9.4-22.6S23.5 16 32 16c12.5 0 23.9 7.3 29.1 18.6C64.5 32.9 68.2 32 72 32c6.4 0 12.5 2.5 17 7s7 10.6 7 17-2.5 12.5-7 17-10.6 7-17 7H32zm0-8c-6.4 0-12.5-2.5-17-7S8 54.4 8 48s2.5-12.5 7-17 10.6-7 17-7c10.8 0 20.4 7.3 23.2 17.8.3 1.3 1.4 2.4 2.7 2.8 1.3.4 2.7.1 3.8-.8C64.5 41.4 68.2 40 72 40c4.2 0 8.3 1.7 11.3 4.7S88 51.8 88 56c0 4.2-1.7 8.3-4.7 11.3S76.2 72 72 72H32z" fill-rule="evenodd" fill="#454545"/></svg>