<?xml version="1.0" standalone="no"?><!-- Generator: Gravit.io --><svg xmlns="http://www.w3.org/2000/svg" xmlns:xlink="http://www.w3.org/1999/xlink" width="96" height="96"><path d=" M 16 65.68221314719 C 13.610389852996272 64.29352017846496 11.38972404176242 62.58972404176241 9.4 60.599999999999994 C 3.4 54.599999999999994 0 46.5 0 38 C 0 29.5 3.4 21.4 9.4 15.399999999999999 C 15.4 9.399999999999999 23.5 6 32 6 C 44.5 6 55.9 13.3 61.1 24.6 C 64.5 22.9 68.2 22 72 22 C 78.4 22 84.5 24.5 89 29 C 93.5 33.5 96 39.6 96 46 C 96 52.400000000000006 93.5 58.5 89 63 C 86.43850004818513 65.56149995181487 83.35857781464009 67.47497205146702 80 68.64819833717 L 80 59.83472294408 C 81.1961396743136 59.141540963741335 82.30818469093587 58.29181530906412 83.3 57.3 C 86.3 54.3 88 50.2 88 46 C 88 41.8 86.3 37.7 83.3 34.7 C 80.3 31.700000000000003 76.2 30 72 30 C 68.2 30 64.5 31.4 61.7 33.8 C 60.6 34.7 59.2 35 57.9 34.6 C 56.6 34.2 55.5 33.1 55.2 31.799999999999997 C 52.4 21.299999999999997 42.8 14 32 14 C 25.6 14 19.5 16.5 15 21 C 10.5 25.5 8 31.6 8 38 C 8 44.4 10.5 50.5 15 55 C 15.325143730669947 55.32514373066995 15.658640523707813 55.639846133380004 16 55.943918600779995 L 16 65.68221314719 Z  M 52 55.62307692308 L 52 86 C 52 87.1 51.6 88.1 50.8 88.8 C 50.1 89.6 49.1 90 48 90 C 46.9 90 45.9 89.6 45.2 88.8 C 44.4 88.1 44 87.1 44 86 L 44 55.62307692308 L 42.8 56.8 C 42.1 57.6 41.1 58 40 58 C 38.9 58 37.9 57.6 37.2 56.8 C 36.4 56.1 36 55.1 36 54 C 36 52.9 36.4 51.9 37.2 51.2 L 44.3 44 Q 46.44187828064289 42.5 48 42.5 Q 49.55812171935711 42.5 51.7 44 L 58.8 51.2 C 59.6 51.9 60 52.9 60 54 C 60 55.1 59.6 56.1 58.8 56.8 C 58.1 57.6 57.1 58 56 58 C 54.9 58 53.9 57.6 53.2 56.8 L 52 55.62307692308 Z " fill-rule="evenodd" fill="#454545" stroke="none"/><mask id="_mask_SpkAQmiIgTrZSWpYept8N4MFYn0ZSMwE"><path d=" M 16 65.68221314719 C 13.610389852996272 64.29352017846496 11.38972404176242 62.58972404176241 9.4 60.599999999999994 C 3.4 54.599999999999994 0 46.5 0 38 C 0 29.5 3.4 21.4 9.4 15.399999999999999 C 15.4 9.399999999999999 23.5 6 32 6 C 44.5 6 55.9 13.3 61.1 24.6 C 64.5 22.9 68.2 22 72 22 C 78.4 22 84.5 24.5 89 29 C 93.5 33.5 96 39.6 96 46 C 96 52.400000000000006 93.5 58.5 89 63 C 86.43850004818513 65.56149995181487 83.35857781464009 67.47497205146702 80 68.64819833717 L 80 59.83472294408 C 81.1961396743136 59.141540963741335 82.30818469093587 58.29181530906412 83.3 57.3 C 86.3 54.3 88 50.2 88 46 C 88 41.8 86.3 37.7 83.3 34.7 C 80.3 31.700000000000003 76.2 30 72 30 C 68.2 30 64.5 31.4 61.7 33.8 C 60.6 34.7 59.2 35 57.9 34.6 C 56.6 34.2 55.5 33.1 55.2 31.799999999999997 C 52.4 21.299999999999997 42.8 14 32 14 C 25.6 14 19.5 16.5 15 21 C 10.5 25.5 8 31.6 8 38 C 8 44.4 10.5 50.5 15 55 C 15.325143730669947 55.32514373066995 15.658640523707813 55.639846133380004 16 55.943918600779995 L 16 65.68221314719 Z  M 52 55.62307692308 L 52 86 C 52 87.1 51.6 88.1 50.8 88.8 C 50.1 89.6 49.1 90 48 90 C 46.9 90 45.9 89.6 45.2 88.8 C 44.4 88.1 44 87.1 44 86 L 44 55.62307692308 L 42.8 56.8 C 42.1 57.6 41.1 58 40 58 C 38.9 58 37.9 57.6 37.2 56.8 C 36.4 56.1 36 55.1 36 54 C 36 52.9 36.4 51.9 37.2 51.2 L 44.3 44 Q 46.44187828064289 42.5 48 42.5 Q 49.55812171935711 42.5 51.7 44 L 58.8 51.2 C 59.6 51.9 60 52.9 60 54 C 60 55.1 59.6 56.1 58.8 56.8 C 58.1 57.6 57.1 58 56 58 C 54.9 58 53.9 57.6 53.2 56.8 L 52 55.62307692308 Z " fill-rule="evenodd" fill="white" stroke="none"/></mask><path d=" M 16 65.68221314719 C 13.610389852996272 64.29352017846496 11.38972404176242 62.58972404176241 9.4 60.599999999999994 C 3.4 54.599999999999994 0 46.5 0 38 C 0 29.5 3.4 21.4 9.4 15.399999999999999 C 15.4 9.399999999999999 23.5 6 32 6 C 44.5 6 55.9 13.3 61.1 24.6 C 64.5 22.9 68.2 22 72 22 C 78.4 22 84.5 24.5 89 29 C 93.5 33.5 96 39.6 96 46 C 96 52.400000000000006 93.5 58.5 89 63 C 86.43850004818513 65.56149995181487 83.35857781464009 67.47497205146702 80 68.64819833717 L 80 59.83472294408 C 81.1961396743136 59.141540963741335 82.30818469093587 58.29181530906412 83.3 57.3 C 86.3 54.3 88 50.2 88 46 C 88 41.8 86.3 37.7 83.3 34.7 C 80.3 31.700000000000003 76.2 30 72 30 C 68.2 30 64.5 31.4 61.7 33.8 C 60.6 34.7 59.2 35 57.9 34.6 C 56.6 34.2 55.5 33.1 55.2 31.799999999999997 C 52.4 21.299999999999997 42.8 14 32 14 C 25.6 14 19.5 16.5 15 21 C 10.5 25.5 8 31.6 8 38 C 8 44.4 10.5 50.5 15 55 C 15.325143730669947 55.32514373066995 15.658640523707813 55.639846133380004 16 55.943918600779995 L 16 65.68221314719 Z  M 52 55.62307692308 L 52 86 C 52 87.1 51.6 88.1 50.8 88.8 C 50.1 89.6 49.1 90 48 90 C 46.9 90 45.9 89.6 45.2 88.8 C 44.4 88.1 44 87.1 44 86 L 44 55.62307692308 L 42.8 56.8 C 42.1 57.6 41.1 58 40 58 C 38.9 58 37.9 57.6 37.2 56.8 C 36.4 56.1 36 55.1 36 54 C 36 52.9 36.4 51.9 37.2 51.2 L 44.3 44 Q 46.44187828064289 42.5 48 42.5 Q 49.55812171935711 42.5 51.7 44 L 58.8 51.2 C 59.6 51.9 60 52.9 60 54 C 60 55.1 59.6 56.1 58.8 56.8 C 58.1 57.6 57.1 58 56 58 C 54.9 58 53.9 57.6 53.2 56.8 L 52 55.62307692308 Z " fill-rule="evenodd" fill="none" stroke="none" stroke-width="16" mask="url(#_mask_SpkAQmiIgTrZSWpYept8N4MFYn0ZSMwE)"/></svg>