<svg xmlns="http://www.w3.org/2000/svg" width="96" height="96"><path d="M44 80.03V45.522a8.413 8.413 0 0 1-1.6-1.092v-.1l-30.5-27-1.3-2.1c-.6-1-.8-2.2-.4-3.3.8-2.7 3.5-4.3 6.2-3.9h63.2c2.7-.4 5.4 1.2 6.2 3.9.4 1.1.2 2.3-.4 3.3l-1.3 2.1-30.5 27v.1a8.358 8.358 0 0 1-1.6 1.092V80.03h12c1.1 0 2.1.4 2.8 1.2.8.7 1.2 1.7 1.2 2.8 0 1.1-.4 2.1-1.2 2.8-.7.8-1.7 1.2-2.8 1.2H32c-1.1 0-2.1-.4-2.8-1.2-.8-.7-1.2-1.7-1.2-2.8 0-1.1.4-2.1 1.2-2.8.7-.8 1.7-1.2 2.8-1.2h12zm29.5-64h-51l25.1 22.3c.1.1.3.2.4.1.1.1.3 0 .4-.1l25.1-22.3zm-31.5 13c0-2.207 1.792-4 4-4s4 1.793 4 4c0 2.208-1.792 4-4 4s-4-1.792-4-4z" fill-rule="evenodd" fill="#454545" stroke="rgba(0,0,0,0)" stroke-linecap="square"/></svg>