<?xml version="1.0" standalone="no"?><!-- Generator: Gravit.io --><svg xmlns="http://www.w3.org/2000/svg" xmlns:xlink="http://www.w3.org/1999/xlink" width="96" height="96"><path d=" M 44 80.0304659090313 L 44 45.52202229989131 C 43.423332037938934 45.21958630003172 42.88547832918018 44.851213794320806 42.4 44.43046590903131 C 42.4 44.43046590903131 42.4 44.33046590903131 42.4 44.33046590903131 L 11.9 17.330465909031314 L 10.6 15.230465909031313 C 10 14.230465909031313 9.8 13.030465909031314 10.2 11.930465909031314 C 11 9.230465909031313 13.7 7.630465909031313 16.4 8.030465909031314 L 79.6 8.030465909031314 C 82.3 7.630465909031313 85 9.230465909031313 85.8 11.930465909031314 C 86.2 13.030465909031314 86 14.230465909031313 85.4 15.230465909031313 L 84.1 17.330465909031314 L 53.6 44.33046590903131 C 53.6 44.33046590903131 53.6 44.43046590903131 53.6 44.43046590903131 C 53.11452167081982 44.851213794320806 52.576667962061066 45.21958630003172 52 45.52202229989131 L 52 80.0304659090313 L 64 80.0304659090313 C 65.1 80.0304659090313 66.1 80.43046590903131 66.8 81.23046590903132 C 67.6 81.93046590903131 68 82.93046590903131 68 84.0304659090313 C 68 85.1304659090313 67.6 86.1304659090313 66.8 86.83046590903132 C 66.1 87.6304659090313 65.1 88.0304659090313 64 88.0304659090313 L 52 88.0304659090313 L 44 88.0304659090313 L 32 88.0304659090313 C 30.9 88.0304659090313 29.9 87.6304659090313 29.2 86.83046590903132 C 28.4 86.1304659090313 28 85.1304659090313 28 84.0304659090313 C 28 82.93046590903131 28.4 81.93046590903131 29.2 81.23046590903132 C 29.9 80.43046590903131 30.9 80.0304659090313 32 80.0304659090313 L 44 80.0304659090313 Z  M 73.5 16.030465909031314 L 22.5 16.030465909031314 L 47.6 38.33046590903131 C 47.7 38.43046590903131 47.9 38.530465909031314 48 38.43046590903131 C 48.1 38.530465909031314 48.3 38.43046590903131 48.4 38.33046590903131 L 73.5 16.030465909031314 L 73.5 16.030465909031314 Z  M 42 29.030465909031314 C 42 26.822805791021263 43.792339881989946 25.030465909031314 46 25.030465909031314 C 48.20766011801005 25.030465909031314 50 26.822805791021263 50 29.030465909031314 C 50 31.23812602704136 48.207660118010054 33.030465909031314 46 33.030465909031314 C 43.79233988198995 33.030465909031314 42 31.238126027041364 42 29.030465909031314 Z " fill-rule="evenodd" fill="#454545" stroke-width="1" stroke="rgba(0,0,0,0)" stroke-linejoin="miter" stroke-linecap="square"/></svg>