<?xml version="1.0" standalone="no"?><!-- Generator: Gravit.io --><svg xmlns="http://www.w3.org/2000/svg" xmlns:xlink="http://www.w3.org/1999/xlink" width="96" height="96"><path d=" M 23.5 21.2 C 24.2 20.4 25.2 20 26.3 20 C 27.400000000000002 20 28.400000000000002 20.4 29.1 21.2 C 29.900000000000002 21.9 30.3 22.9 30.3 24 C 30.3 25.1 29.900000000000002 26.1 29.1 26.8 L 8 48 L 29.1 69.2 C 29.900000000000002 69.9 30.3 70.9 30.3 72 C 30.3 73.1 29.900000000000002 74.1 29.1 74.8 C 28.400000000000002 75.6 27.400000000000002 76 26.3 76 C 25.2 76 24.2 75.6 23.5 74.8 L 2.3 53.7 C 2.3 53.7 2.3 53.7 2.3 53.7 C 0.7999999999999998 52.2 0 50.1 0 48 C 0 45.9 0.7999999999999998 43.8 2.3 42.3 C 2.3 42.3 2.3 42.3 2.3 42.3 L 23.5 21.2 Z  M 66.8 69.2 L 88 48 L 66.8 26.8 C 66.1 26.1 65.7 25.1 65.7 24 C 65.7 22.9 66.1 21.9 66.8 21.2 C 67.6 20.4 68.6 20 69.7 20 C 70.7 20 71.7 20.4 72.5 21.2 L 93.7 42.3 C 93.7 42.3 93.7 42.3 93.7 42.3 C 95.2 43.8 96 45.9 96 48 C 96 50.1 95.2 52.2 93.7 53.7 C 93.7 53.7 93.7 53.7 93.7 53.7 L 72.5 74.8 C 71.7 75.6 70.7 76 69.7 76 C 68.6 76 67.6 75.6 66.8 74.8 C 66.1 74.1 65.7 73.1 65.7 72 C 65.7 70.9 66.1 69.9 66.8 69.2 Z  M 52.1 15 C 52.4 14 53 13.1 53.9 12.6 C 54.9 12 55.9 11.9 57 12.1 C 58 12.4 58.9 13 59.4 13.9 C 60 14.9 60.1 15.9 59.9 17 L 43.9 81 C 43.6 82 43 82.9 42.1 83.4 C 41.1 84 40.1 84.1 39 83.9 C 38 83.6 37.1 83 36.6 82.1 C 36 81.1 35.9 80.1 36.1 79 L 52.1 15 Z " fill-rule="evenodd" fill="#454545" stroke="none"/><mask id="_mask_nMwZkz3VXlV844hqFr7U0vjot4cZPeF8"><path d=" M 23.5 21.2 C 24.2 20.4 25.2 20 26.3 20 C 27.400000000000002 20 28.400000000000002 20.4 29.1 21.2 C 29.900000000000002 21.9 30.3 22.9 30.3 24 C 30.3 25.1 29.900000000000002 26.1 29.1 26.8 L 8 48 L 29.1 69.2 C 29.900000000000002 69.9 30.3 70.9 30.3 72 C 30.3 73.1 29.900000000000002 74.1 29.1 74.8 C 28.400000000000002 75.6 27.400000000000002 76 26.3 76 C 25.2 76 24.2 75.6 23.5 74.8 L 2.3 53.7 C 2.3 53.7 2.3 53.7 2.3 53.7 C 0.7999999999999998 52.2 0 50.1 0 48 C 0 45.9 0.7999999999999998 43.8 2.3 42.3 C 2.3 42.3 2.3 42.3 2.3 42.3 L 23.5 21.2 Z  M 66.8 69.2 L 88 48 L 66.8 26.8 C 66.1 26.1 65.7 25.1 65.7 24 C 65.7 22.9 66.1 21.9 66.8 21.2 C 67.6 20.4 68.6 20 69.7 20 C 70.7 20 71.7 20.4 72.5 21.2 L 93.7 42.3 C 93.7 42.3 93.7 42.3 93.7 42.3 C 95.2 43.8 96 45.9 96 48 C 96 50.1 95.2 52.2 93.7 53.7 C 93.7 53.7 93.7 53.7 93.7 53.7 L 72.5 74.8 C 71.7 75.6 70.7 76 69.7 76 C 68.6 76 67.6 75.6 66.8 74.8 C 66.1 74.1 65.7 73.1 65.7 72 C 65.7 70.9 66.1 69.9 66.8 69.2 Z  M 52.1 15 C 52.4 14 53 13.1 53.9 12.6 C 54.9 12 55.9 11.9 57 12.1 C 58 12.4 58.9 13 59.4 13.9 C 60 14.9 60.1 15.9 59.9 17 L 43.9 81 C 43.6 82 43 82.9 42.1 83.4 C 41.1 84 40.1 84.1 39 83.9 C 38 83.6 37.1 83 36.6 82.1 C 36 81.1 35.9 80.1 36.1 79 L 52.1 15 Z " fill-rule="evenodd" fill="white" stroke="none"/></mask><path d=" M 23.5 21.2 C 24.2 20.4 25.2 20 26.3 20 C 27.400000000000002 20 28.400000000000002 20.4 29.1 21.2 C 29.900000000000002 21.9 30.3 22.9 30.3 24 C 30.3 25.1 29.900000000000002 26.1 29.1 26.8 L 8 48 L 29.1 69.2 C 29.900000000000002 69.9 30.3 70.9 30.3 72 C 30.3 73.1 29.900000000000002 74.1 29.1 74.8 C 28.400000000000002 75.6 27.400000000000002 76 26.3 76 C 25.2 76 24.2 75.6 23.5 74.8 L 2.3 53.7 C 2.3 53.7 2.3 53.7 2.3 53.7 C 0.7999999999999998 52.2 0 50.1 0 48 C 0 45.9 0.7999999999999998 43.8 2.3 42.3 C 2.3 42.3 2.3 42.3 2.3 42.3 L 23.5 21.2 Z  M 66.8 69.2 L 88 48 L 66.8 26.8 C 66.1 26.1 65.7 25.1 65.7 24 C 65.7 22.9 66.1 21.9 66.8 21.2 C 67.6 20.4 68.6 20 69.7 20 C 70.7 20 71.7 20.4 72.5 21.2 L 93.7 42.3 C 93.7 42.3 93.7 42.3 93.7 42.3 C 95.2 43.8 96 45.9 96 48 C 96 50.1 95.2 52.2 93.7 53.7 C 93.7 53.7 93.7 53.7 93.7 53.7 L 72.5 74.8 C 71.7 75.6 70.7 76 69.7 76 C 68.6 76 67.6 75.6 66.8 74.8 C 66.1 74.1 65.7 73.1 65.7 72 C 65.7 70.9 66.1 69.9 66.8 69.2 Z  M 52.1 15 C 52.4 14 53 13.1 53.9 12.6 C 54.9 12 55.9 11.9 57 12.1 C 58 12.4 58.9 13 59.4 13.9 C 60 14.9 60.1 15.9 59.9 17 L 43.9 81 C 43.6 82 43 82.9 42.1 83.4 C 41.1 84 40.1 84.1 39 83.9 C 38 83.6 37.1 83 36.6 82.1 C 36 81.1 35.9 80.1 36.1 79 L 52.1 15 Z " fill-rule="evenodd" fill="none" stroke="none" stroke-width="16" mask="url(#_mask_nMwZkz3VXlV844hqFr7U0vjot4cZPeF8)"/></svg>