<svg xmlns="http://www.w3.org/2000/svg" width="96" height="96"><path d="M23.5 21.2c.7-.8 1.7-1.2 2.8-1.2 1.1 0 2.1.4 2.8 1.2.8.7 1.2 1.7 1.2 2.8 0 1.1-.4 2.1-1.2 2.8L8 48l21.1 21.2c.8.7 1.2 1.7 1.2 2.8 0 1.1-.4 2.1-1.2 2.8-.7.8-1.7 1.2-2.8 1.2-1.1 0-2.1-.4-2.8-1.2L2.3 53.7C.8 52.2 0 50.1 0 48s.8-4.2 2.3-5.7l21.2-21.1zm43.3 48L88 48 66.8 26.8c-.7-.7-1.1-1.7-1.1-2.8 0-1.1.4-2.1 1.1-2.8.8-.8 1.8-1.2 2.9-1.2 1 0 2 .4 2.8 1.2l21.2 21.1c1.5 1.5 2.3 3.6 2.3 5.7s-.8 4.2-2.3 5.7L72.5 74.8c-.8.8-1.8 1.2-2.8 1.2-1.1 0-2.1-.4-2.9-1.2-.7-.7-1.1-1.7-1.1-2.8 0-1.1.4-2.1 1.1-2.8zM52.1 15c.3-1 .9-1.9 1.8-2.4 1-.6 2-.7 3.1-.5 1 .3 1.9.9 2.4 1.8.6 1 .7 2 .5 3.1l-16 64c-.3 1-.9 1.9-1.8 2.4-1 .6-2 .7-3.1.5-1-.3-1.9-.9-2.4-1.8-.6-1-.7-2-.5-3.1l16-64z" fill-rule="evenodd"/></svg>