<?xml version="1.0" standalone="no"?><!-- Generator: Gravit.io --><svg xmlns="http://www.w3.org/2000/svg" xmlns:xlink="http://www.w3.org/1999/xlink" width="96" height="96"><path d=" M 32.5 15.5 L 36 14.1 L 36 12 C 36 9.9 36.8 7.8 38.3 6.3 C 39.8 4.8 41.9 4 44 4 L 52 4 C 54.1 4 56.2 4.8 57.7 6.3 C 59.2 7.8 60 9.9 60 12 L 60 14.1 L 63.5 15.5 L 65 14.1 C 65 14.1 65 14.1 65 14.1 C 66.5 12.6 68.5 11.7 70.6 11.7 C 72.7 11.7 74.8 12.6 76.3 14.1 C 76.3 14.1 76.3 14.1 76.3 14.1 L 81.9 19.7 C 81.9 19.7 81.9 19.7 81.9 19.7 C 83.4 21.2 84.3 23.3 84.3 25.4 C 84.3 27.5 83.4 29.5 81.9 31 C 81.9 31 81.9 31 81.9 31 L 80.5 32.5 L 81.9 36 L 84 36 C 86.1 36 88.2 36.8 89.7 38.3 C 91.2 39.8 92 41.9 92 44 L 92 52 C 92 54.1 91.2 56.2 89.7 57.7 C 88.2 59.2 86.1 60 84 60 L 81.9 60 L 80.5 63.5 L 81.9 65 C 81.9 65 81.9 65 81.9 65 C 83.4 66.5 84.3 68.5 84.3 70.6 C 84.3 72.7 83.4 74.8 81.9 76.3 C 81.9 76.3 81.9 76.3 81.9 76.3 L 76.3 81.9 C 76.3 81.9 76.3 81.9 76.3 81.9 C 74.8 83.4 72.7 84.3 70.6 84.3 C 68.5 84.3 66.5 83.4 65 81.9 C 65 81.9 65 81.9 65 81.9 L 63.5 80.5 L 60 81.9 L 60 84 C 60 86.1 59.2 88.2 57.7 89.7 C 56.2 91.2 54.1 92 52 92 L 44 92 C 41.9 92 39.8 91.2 38.3 89.7 C 36.8 88.2 36 86.1 36 84 L 36 81.9 L 32.5 80.5 L 31 81.9 C 31 81.9 31 81.9 31 81.9 C 29.5 83.4 27.5 84.3 25.4 84.3 C 23.3 84.3 21.2 83.4 19.7 81.9 C 19.7 81.9 19.7 81.9 19.7 81.9 L 14.1 76.3 C 14.1 76.3 14.1 76.3 14.1 76.3 C 12.6 74.8 11.7 72.7 11.7 70.6 C 11.7 68.5 12.6 66.5 14.1 65 C 14.1 65 14.1 65 14.1 65 L 15.5 63.5 L 14.1 60 L 12.4 60 C 10.2 60 8 59.1 6.5 57.5 C 4.9 56 4 53.8 4 51.6 L 4 44.4 C 4 42.2 4.9 40 6.5 38.5 C 8 36.9 10.2 36 12.4 36 L 14.1 36 L 15.5 32.5 L 14.3 31.3 C 14.3 31.3 14.3 31.3 14.3 31.3 C 12.8 29.7 11.9 27.6 11.9 25.4 C 11.9 23.1 12.8 21 14.3 19.4 C 14.3 19.4 14.3 19.4 14.3 19.4 L 19.4 14.3 C 19.4 14.3 19.4 14.3 19.4 14.3 C 21 12.8 23.1 11.9 25.4 11.9 C 27.6 11.9 29.7 12.8 31.3 14.3 C 31.3 14.3 31.3 14.3 31.3 14.3 L 32.5 15.5 Z  M 33.8 23.9 C 36 22.5 38.5 21.5 41 20.9 C 42.8 20.4 44 18.8 44 17 L 44 12 L 52 12 L 52 17 C 52 18.8 53.2 20.4 55 20.9 C 57.5 21.5 60 22.5 62.2 23.9 C 63.8 24.8 65.8 24.5 67.1 23.3 L 70.6 19.7 L 76.3 25.4 L 72.7 28.9 C 71.5 30.2 71.2 32.2 72.1 33.8 C 73.5 36 74.5 38.5 75.1 41 C 75.6 42.8 77.2 44 79 44 L 84 44 L 84 52 L 79 52 C 77.2 52 75.6 53.2 75.1 55 C 74.5 57.5 73.5 60 72.1 62.2 C 71.2 63.8 71.5 65.8 72.7 67.1 L 76.3 70.6 L 70.6 76.3 L 67.1 72.7 C 65.8 71.5 63.8 71.2 62.2 72.1 C 60 73.5 57.5 74.5 55 75.1 C 53.2 75.6 52 77.2 52 79 L 52 84 L 44 84 L 44 79 C 44 77.2 42.8 75.6 41 75.1 C 38.5 74.5 36 73.5 33.8 72.1 C 32.2 71.2 30.2 71.5 28.9 72.7 L 25.4 76.3 L 19.7 70.6 L 23.3 67.1 C 24.5 65.8 24.8 63.8 23.9 62.2 C 22.5 60 21.5 57.5 20.9 55 C 20.4 53.2 18.8 52 17 52 L 12.4 52 C 12.2 52 12 51.8 12 51.6 L 12 44.4 C 12 44.3 12 44.2 12.1 44.1 C 12.2 44 12.3 44 12.4 44 L 17 44 C 18.8 44 20.4 42.8 20.9 41 C 21.5 38.5 22.5 36 23.9 33.8 C 24.8 32.2 24.5 30.2 23.3 28.9 L 20 25.7 C 19.9 25.6 19.9 25.5 19.9 25.4 C 19.9 25.3 19.9 25.2 20 25.1 L 25.1 20 C 25.2 19.9 25.3 19.9 25.4 19.9 C 25.5 19.9 25.6 19.9 25.7 20 L 28.9 23.3 C 30.2 24.5 32.2 24.8 33.8 23.9 Z  M 33 48 C 33 44 34.6 40.2 37.4 37.4 C 40.2 34.6 44 33 48 33 C 52 33 55.8 34.6 58.6 37.4 C 61.4 40.2 63 44 63 48 C 63 52 61.4 55.8 58.6 58.6 C 55.8 61.4 52 63 48 63 C 44 63 40.2 61.4 37.4 58.6 C 34.6 55.8 33 52 33 48 Z  M 41 48 C 41 46.1 41.7 44.4 43.1 43.1 C 44.4 41.7 46.1 41 48 41 C 49.9 41 51.6 41.7 52.9 43.1 C 54.3 44.4 55 46.1 55 48 C 55 49.9 54.3 51.6 52.9 52.9 C 51.6 54.3 49.9 55 48 55 C 46.1 55 44.4 54.3 43.1 52.9 C 41.7 51.6 41 49.9 41 48 Z " fill-rule="evenodd" fill="#454545" stroke="none"/><mask id="_mask_z9hhTqcuWQoROS2BUMDzG14VOo2BeTZO"><path d=" M 32.5 15.5 L 36 14.1 L 36 12 C 36 9.9 36.8 7.8 38.3 6.3 C 39.8 4.8 41.9 4 44 4 L 52 4 C 54.1 4 56.2 4.8 57.7 6.3 C 59.2 7.8 60 9.9 60 12 L 60 14.1 L 63.5 15.5 L 65 14.1 C 65 14.1 65 14.1 65 14.1 C 66.5 12.6 68.5 11.7 70.6 11.7 C 72.7 11.7 74.8 12.6 76.3 14.1 C 76.3 14.1 76.3 14.1 76.3 14.1 L 81.9 19.7 C 81.9 19.7 81.9 19.7 81.9 19.7 C 83.4 21.2 84.3 23.3 84.3 25.4 C 84.3 27.5 83.4 29.5 81.9 31 C 81.9 31 81.9 31 81.9 31 L 80.5 32.5 L 81.9 36 L 84 36 C 86.1 36 88.2 36.8 89.7 38.3 C 91.2 39.8 92 41.9 92 44 L 92 52 C 92 54.1 91.2 56.2 89.7 57.7 C 88.2 59.2 86.1 60 84 60 L 81.9 60 L 80.5 63.5 L 81.9 65 C 81.9 65 81.9 65 81.9 65 C 83.4 66.5 84.3 68.5 84.3 70.6 C 84.3 72.7 83.4 74.8 81.9 76.3 C 81.9 76.3 81.9 76.3 81.9 76.3 L 76.3 81.9 C 76.3 81.9 76.3 81.9 76.3 81.9 C 74.8 83.4 72.7 84.3 70.6 84.3 C 68.5 84.3 66.5 83.4 65 81.9 C 65 81.9 65 81.9 65 81.9 L 63.5 80.5 L 60 81.9 L 60 84 C 60 86.1 59.2 88.2 57.7 89.7 C 56.2 91.2 54.1 92 52 92 L 44 92 C 41.9 92 39.8 91.2 38.3 89.7 C 36.8 88.2 36 86.1 36 84 L 36 81.9 L 32.5 80.5 L 31 81.9 C 31 81.9 31 81.9 31 81.9 C 29.5 83.4 27.5 84.3 25.4 84.3 C 23.3 84.3 21.2 83.4 19.7 81.9 C 19.7 81.9 19.7 81.9 19.7 81.9 L 14.1 76.3 C 14.1 76.3 14.1 76.3 14.1 76.3 C 12.6 74.8 11.7 72.7 11.7 70.6 C 11.7 68.5 12.6 66.5 14.1 65 C 14.1 65 14.1 65 14.1 65 L 15.5 63.5 L 14.1 60 L 12.4 60 C 10.2 60 8 59.1 6.5 57.5 C 4.9 56 4 53.8 4 51.6 L 4 44.4 C 4 42.2 4.9 40 6.5 38.5 C 8 36.9 10.2 36 12.4 36 L 14.1 36 L 15.5 32.5 L 14.3 31.3 C 14.3 31.3 14.3 31.3 14.3 31.3 C 12.8 29.7 11.9 27.6 11.9 25.4 C 11.9 23.1 12.8 21 14.3 19.4 C 14.3 19.4 14.3 19.4 14.3 19.4 L 19.4 14.3 C 19.4 14.3 19.4 14.3 19.4 14.3 C 21 12.8 23.1 11.9 25.4 11.9 C 27.6 11.9 29.7 12.8 31.3 14.3 C 31.3 14.3 31.3 14.3 31.3 14.3 L 32.5 15.5 Z  M 33.8 23.9 C 36 22.5 38.5 21.5 41 20.9 C 42.8 20.4 44 18.8 44 17 L 44 12 L 52 12 L 52 17 C 52 18.8 53.2 20.4 55 20.9 C 57.5 21.5 60 22.5 62.2 23.9 C 63.8 24.8 65.8 24.5 67.1 23.3 L 70.6 19.7 L 76.3 25.4 L 72.7 28.9 C 71.5 30.2 71.2 32.2 72.1 33.8 C 73.5 36 74.5 38.5 75.1 41 C 75.6 42.8 77.2 44 79 44 L 84 44 L 84 52 L 79 52 C 77.2 52 75.6 53.2 75.1 55 C 74.5 57.5 73.5 60 72.1 62.2 C 71.2 63.8 71.5 65.8 72.7 67.1 L 76.3 70.6 L 70.6 76.3 L 67.1 72.7 C 65.8 71.5 63.8 71.2 62.2 72.1 C 60 73.5 57.5 74.5 55 75.1 C 53.2 75.6 52 77.2 52 79 L 52 84 L 44 84 L 44 79 C 44 77.2 42.8 75.6 41 75.1 C 38.5 74.5 36 73.5 33.8 72.1 C 32.2 71.2 30.2 71.5 28.9 72.7 L 25.4 76.3 L 19.7 70.6 L 23.3 67.1 C 24.5 65.8 24.8 63.8 23.9 62.2 C 22.5 60 21.5 57.5 20.9 55 C 20.4 53.2 18.8 52 17 52 L 12.4 52 C 12.2 52 12 51.8 12 51.6 L 12 44.4 C 12 44.3 12 44.2 12.1 44.1 C 12.2 44 12.3 44 12.4 44 L 17 44 C 18.8 44 20.4 42.8 20.9 41 C 21.5 38.5 22.5 36 23.9 33.8 C 24.8 32.2 24.5 30.2 23.3 28.9 L 20 25.7 C 19.9 25.6 19.9 25.5 19.9 25.4 C 19.9 25.3 19.9 25.2 20 25.1 L 25.1 20 C 25.2 19.9 25.3 19.9 25.4 19.9 C 25.5 19.9 25.6 19.9 25.7 20 L 28.9 23.3 C 30.2 24.5 32.2 24.8 33.8 23.9 Z  M 33 48 C 33 44 34.6 40.2 37.4 37.4 C 40.2 34.6 44 33 48 33 C 52 33 55.8 34.6 58.6 37.4 C 61.4 40.2 63 44 63 48 C 63 52 61.4 55.8 58.6 58.6 C 55.8 61.4 52 63 48 63 C 44 63 40.2 61.4 37.4 58.6 C 34.6 55.8 33 52 33 48 Z  M 41 48 C 41 46.1 41.7 44.4 43.1 43.1 C 44.4 41.7 46.1 41 48 41 C 49.9 41 51.6 41.7 52.9 43.1 C 54.3 44.4 55 46.1 55 48 C 55 49.9 54.3 51.6 52.9 52.9 C 51.6 54.3 49.9 55 48 55 C 46.1 55 44.4 54.3 43.1 52.9 C 41.7 51.6 41 49.9 41 48 Z " fill-rule="evenodd" fill="white" stroke="none"/></mask><path d=" M 32.5 15.5 L 36 14.1 L 36 12 C 36 9.9 36.8 7.8 38.3 6.3 C 39.8 4.8 41.9 4 44 4 L 52 4 C 54.1 4 56.2 4.8 57.7 6.3 C 59.2 7.8 60 9.9 60 12 L 60 14.1 L 63.5 15.5 L 65 14.1 C 65 14.1 65 14.1 65 14.1 C 66.5 12.6 68.5 11.7 70.6 11.7 C 72.7 11.7 74.8 12.6 76.3 14.1 C 76.3 14.1 76.3 14.1 76.3 14.1 L 81.9 19.7 C 81.9 19.7 81.9 19.7 81.9 19.7 C 83.4 21.2 84.3 23.3 84.3 25.4 C 84.3 27.5 83.4 29.5 81.9 31 C 81.9 31 81.9 31 81.9 31 L 80.5 32.5 L 81.9 36 L 84 36 C 86.1 36 88.2 36.8 89.7 38.3 C 91.2 39.8 92 41.9 92 44 L 92 52 C 92 54.1 91.2 56.2 89.7 57.7 C 88.2 59.2 86.1 60 84 60 L 81.9 60 L 80.5 63.5 L 81.9 65 C 81.9 65 81.9 65 81.9 65 C 83.4 66.5 84.3 68.5 84.3 70.6 C 84.3 72.7 83.4 74.8 81.9 76.3 C 81.9 76.3 81.9 76.3 81.9 76.3 L 76.3 81.9 C 76.3 81.9 76.3 81.9 76.3 81.9 C 74.8 83.4 72.7 84.3 70.6 84.3 C 68.5 84.3 66.5 83.4 65 81.9 C 65 81.9 65 81.9 65 81.9 L 63.5 80.5 L 60 81.9 L 60 84 C 60 86.1 59.2 88.2 57.7 89.7 C 56.2 91.2 54.1 92 52 92 L 44 92 C 41.9 92 39.8 91.2 38.3 89.7 C 36.8 88.2 36 86.1 36 84 L 36 81.9 L 32.5 80.5 L 31 81.9 C 31 81.9 31 81.9 31 81.9 C 29.5 83.4 27.5 84.3 25.4 84.3 C 23.3 84.3 21.2 83.4 19.7 81.9 C 19.7 81.9 19.7 81.9 19.7 81.9 L 14.1 76.3 C 14.1 76.3 14.1 76.3 14.1 76.3 C 12.6 74.8 11.7 72.7 11.7 70.6 C 11.7 68.5 12.6 66.5 14.1 65 C 14.1 65 14.1 65 14.1 65 L 15.5 63.5 L 14.1 60 L 12.4 60 C 10.2 60 8 59.1 6.5 57.5 C 4.9 56 4 53.8 4 51.6 L 4 44.4 C 4 42.2 4.9 40 6.5 38.5 C 8 36.9 10.2 36 12.4 36 L 14.1 36 L 15.5 32.5 L 14.3 31.3 C 14.3 31.3 14.3 31.3 14.3 31.3 C 12.8 29.7 11.9 27.6 11.9 25.4 C 11.9 23.1 12.8 21 14.3 19.4 C 14.3 19.4 14.3 19.4 14.3 19.4 L 19.4 14.3 C 19.4 14.3 19.4 14.3 19.4 14.3 C 21 12.8 23.1 11.9 25.4 11.9 C 27.6 11.9 29.7 12.8 31.3 14.3 C 31.3 14.3 31.3 14.3 31.3 14.3 L 32.5 15.5 Z  M 33.8 23.9 C 36 22.5 38.5 21.5 41 20.9 C 42.8 20.4 44 18.8 44 17 L 44 12 L 52 12 L 52 17 C 52 18.8 53.2 20.4 55 20.9 C 57.5 21.5 60 22.5 62.2 23.9 C 63.8 24.8 65.8 24.5 67.1 23.3 L 70.6 19.7 L 76.3 25.4 L 72.7 28.9 C 71.5 30.2 71.2 32.2 72.1 33.8 C 73.5 36 74.5 38.5 75.1 41 C 75.6 42.8 77.2 44 79 44 L 84 44 L 84 52 L 79 52 C 77.2 52 75.6 53.2 75.1 55 C 74.5 57.5 73.5 60 72.1 62.2 C 71.2 63.8 71.5 65.8 72.7 67.1 L 76.3 70.6 L 70.6 76.3 L 67.1 72.7 C 65.8 71.5 63.8 71.2 62.2 72.1 C 60 73.5 57.5 74.5 55 75.1 C 53.2 75.6 52 77.2 52 79 L 52 84 L 44 84 L 44 79 C 44 77.2 42.8 75.6 41 75.1 C 38.5 74.5 36 73.5 33.8 72.1 C 32.2 71.2 30.2 71.5 28.9 72.7 L 25.4 76.3 L 19.7 70.6 L 23.3 67.1 C 24.5 65.8 24.8 63.8 23.9 62.2 C 22.5 60 21.5 57.5 20.9 55 C 20.4 53.2 18.8 52 17 52 L 12.4 52 C 12.2 52 12 51.8 12 51.6 L 12 44.4 C 12 44.3 12 44.2 12.1 44.1 C 12.2 44 12.3 44 12.4 44 L 17 44 C 18.8 44 20.4 42.8 20.9 41 C 21.5 38.5 22.5 36 23.9 33.8 C 24.8 32.2 24.5 30.2 23.3 28.9 L 20 25.7 C 19.9 25.6 19.9 25.5 19.9 25.4 C 19.9 25.3 19.9 25.2 20 25.1 L 25.1 20 C 25.2 19.9 25.3 19.9 25.4 19.9 C 25.5 19.9 25.6 19.9 25.7 20 L 28.9 23.3 C 30.2 24.5 32.2 24.8 33.8 23.9 Z  M 33 48 C 33 44 34.6 40.2 37.4 37.4 C 40.2 34.6 44 33 48 33 C 52 33 55.8 34.6 58.6 37.4 C 61.4 40.2 63 44 63 48 C 63 52 61.4 55.8 58.6 58.6 C 55.8 61.4 52 63 48 63 C 44 63 40.2 61.4 37.4 58.6 C 34.6 55.8 33 52 33 48 Z  M 41 48 C 41 46.1 41.7 44.4 43.1 43.1 C 44.4 41.7 46.1 41 48 41 C 49.9 41 51.6 41.7 52.9 43.1 C 54.3 44.4 55 46.1 55 48 C 55 49.9 54.3 51.6 52.9 52.9 C 51.6 54.3 49.9 55 48 55 C 46.1 55 44.4 54.3 43.1 52.9 C 41.7 51.6 41 49.9 41 48 Z " fill-rule="evenodd" fill="none" stroke="none" stroke-width="16" mask="url(#_mask_z9hhTqcuWQoROS2BUMDzG14VOo2BeTZO)"/></svg>