<?xml version="1.0" standalone="no"?><!-- Generator: Gravit.io --><svg xmlns="http://www.w3.org/2000/svg" xmlns:xlink="http://www.w3.org/1999/xlink" width="96" height="96"><path d=" M 4 48 C 4 36.3 8.6 25.1 16.9 16.9 C 25.1 8.6 36.3 4 48 4 C 59.7 4 70.9 8.6 79.1 16.9 C 87.4 25.1 92 36.3 92 48 C 92 59.7 87.4 70.9 79.1 79.1 C 70.9 87.4 59.7 92 48 92 C 36.3 92 25.1 87.4 16.9 79.1 C 8.6 70.9 4 59.7 4 48 Z  M 12 48 C 12 38.5 15.8 29.3 22.5 22.5 C 29.3 15.8 38.5 12 48 12 C 57.5 12 66.7 15.8 73.5 22.5 C 80.2 29.3 84 38.5 84 48 C 84 57.5 80.2 66.7 73.5 73.5 C 66.7 80.2 57.5 84 48 84 C 38.5 84 29.3 80.2 22.5 73.5 C 15.8 66.7 12 57.5 12 48 Z  M 56 40 L 47.7 44.1 C 46.2 44.9 44.9 46.2 44.1 47.7 L 40 56 L 48.3 51.9 C 49.8 51.1 51.1 49.8 51.9 48.3 L 56 40 Z  M 59.9 29.1 L 44.1 37 C 41 38.5 38.5 41 37 44.1 L 29.1 59.9 L 29.049391542265383 60.068694859115396 C 28.41502508622815 62.183249712572824 28.840978458 64.840978458 30 66 L 30 66 C 31.159021542 67.15902154199999 33.816750287427176 67.58497491377184 35.93130514088461 66.95060845773462 L 36.1 66.9 L 51.9 59 C 55 57.5 57.5 55 59 51.9 L 66.9 36.1 L 66.95060845773462 35.93130514088461 C 67.58497491377184 33.816750287427176 67.15902154199999 31.159021542 66 30 L 66 30 C 64.840978458 28.840978458 62.183249712572824 28.41502508622815 60.068694859115396 29.049391542265383 L 59.9 29.1 Z " fill-rule="evenodd" fill="#454545" stroke="none"/><mask id="_mask_kfPKDsuybJGD0RLNnst0eTApBBGV6pTi"><path d=" M 4 48 C 4 36.3 8.6 25.1 16.9 16.9 C 25.1 8.6 36.3 4 48 4 C 59.7 4 70.9 8.6 79.1 16.9 C 87.4 25.1 92 36.3 92 48 C 92 59.7 87.4 70.9 79.1 79.1 C 70.9 87.4 59.7 92 48 92 C 36.3 92 25.1 87.4 16.9 79.1 C 8.6 70.9 4 59.7 4 48 Z  M 12 48 C 12 38.5 15.8 29.3 22.5 22.5 C 29.3 15.8 38.5 12 48 12 C 57.5 12 66.7 15.8 73.5 22.5 C 80.2 29.3 84 38.5 84 48 C 84 57.5 80.2 66.7 73.5 73.5 C 66.7 80.2 57.5 84 48 84 C 38.5 84 29.3 80.2 22.5 73.5 C 15.8 66.7 12 57.5 12 48 Z  M 56 40 L 47.7 44.1 C 46.2 44.9 44.9 46.2 44.1 47.7 L 40 56 L 48.3 51.9 C 49.8 51.1 51.1 49.8 51.9 48.3 L 56 40 Z  M 59.9 29.1 L 44.1 37 C 41 38.5 38.5 41 37 44.1 L 29.1 59.9 L 29.049391542265383 60.068694859115396 C 28.41502508622815 62.183249712572824 28.840978458 64.840978458 30 66 L 30 66 C 31.159021542 67.15902154199999 33.816750287427176 67.58497491377184 35.93130514088461 66.95060845773462 L 36.1 66.9 L 51.9 59 C 55 57.5 57.5 55 59 51.9 L 66.9 36.1 L 66.95060845773462 35.93130514088461 C 67.58497491377184 33.816750287427176 67.15902154199999 31.159021542 66 30 L 66 30 C 64.840978458 28.840978458 62.183249712572824 28.41502508622815 60.068694859115396 29.049391542265383 L 59.9 29.1 Z " fill-rule="evenodd" fill="white" stroke="none"/></mask><path d=" M 4 48 C 4 36.3 8.6 25.1 16.9 16.9 C 25.1 8.6 36.3 4 48 4 C 59.7 4 70.9 8.6 79.1 16.9 C 87.4 25.1 92 36.3 92 48 C 92 59.7 87.4 70.9 79.1 79.1 C 70.9 87.4 59.7 92 48 92 C 36.3 92 25.1 87.4 16.9 79.1 C 8.6 70.9 4 59.7 4 48 Z  M 12 48 C 12 38.5 15.8 29.3 22.5 22.5 C 29.3 15.8 38.5 12 48 12 C 57.5 12 66.7 15.8 73.5 22.5 C 80.2 29.3 84 38.5 84 48 C 84 57.5 80.2 66.7 73.5 73.5 C 66.7 80.2 57.5 84 48 84 C 38.5 84 29.3 80.2 22.5 73.5 C 15.8 66.7 12 57.5 12 48 Z  M 56 40 L 47.7 44.1 C 46.2 44.9 44.9 46.2 44.1 47.7 L 40 56 L 48.3 51.9 C 49.8 51.1 51.1 49.8 51.9 48.3 L 56 40 Z  M 59.9 29.1 L 44.1 37 C 41 38.5 38.5 41 37 44.1 L 29.1 59.9 L 29.049391542265383 60.068694859115396 C 28.41502508622815 62.183249712572824 28.840978458 64.840978458 30 66 L 30 66 C 31.159021542 67.15902154199999 33.816750287427176 67.58497491377184 35.93130514088461 66.95060845773462 L 36.1 66.9 L 51.9 59 C 55 57.5 57.5 55 59 51.9 L 66.9 36.1 L 66.95060845773462 35.93130514088461 C 67.58497491377184 33.816750287427176 67.15902154199999 31.159021542 66 30 L 66 30 C 64.840978458 28.840978458 62.183249712572824 28.41502508622815 60.068694859115396 29.049391542265383 L 59.9 29.1 Z " fill-rule="evenodd" fill="none" stroke="none" stroke-width="16" mask="url(#_mask_kfPKDsuybJGD0RLNnst0eTApBBGV6pTi)"/></svg>