<svg xmlns="http://www.w3.org/2000/svg" width="96" height="96"><path d="M31.6 8h48.8c2 0 3.9.8 5.4 2.2 1.4 1.5 2.2 3.4 2.2 5.4v48.8c0 2-.8 3.9-2.2 5.4-1.5 1.4-3.4 2.2-5.4 2.2H31.6c-2 0-3.9-.8-5.4-2.2-1.4-1.5-2.2-3.4-2.2-5.4V15.6c0-2 .8-3.9 2.2-5.4C27.7 8.8 29.6 8 31.6 8zM80 64H32V16h48v48zM68 80c1.1 0 2.1.4 2.8 1.2.8.7 1.2 1.7 1.2 2.8 0 1.1-.4 2.1-1.2 2.8-.7.8-1.7 1.2-2.8 1.2H15.6c-2 0-3.9-.8-5.4-2.2C8.8 84.3 8 82.4 8 80.4V28c0-1.1.4-2.1 1.2-2.8.7-.8 1.7-1.2 2.8-1.2 1.1 0 2.1.4 2.8 1.2.8.7 1.2 1.7 1.2 2.8v52h52zm-52 0" fill-rule="evenodd" fill="#454545"/></svg>