<svg xmlns="http://www.w3.org/2000/svg" width="96" height="96"><path d="M65.6 76c-2.9 2.6-6.2 4.6-9.8 5.9-4 1.4-8.3 2.1-12.5 2.1-4.2 0-8.4-.7-12.4-2.1-3.6-1.3-7-3.3-9.8-5.9-2.9-2.5-5.3-5.6-7.2-9-2.4-4.5-4.2-9.2-5.5-14.1 0-.2-.2-1.9-.2-2.1 0-1.8.8-3.6 2.2-4.9 1.3-1.2 3.1-1.9 4.9-1.9h56c1.8 0 3.6.7 4.9 1.9 1.4 1.3 2.2 3.1 2.2 4.9q0 .2-.056 1.2H81.1c1.6-.1 3.2.4 4.4 1.4 1.3 1 2.1 2.5 2.3 4.1 0 .5 0 1.1-.2 1.6l-.6 2-5.3 9.4c-1.9 3.4-5.5 5.5-9.4 5.5h-6.7zm7.1-9a63.451 63.451 0 0 0 3.201-7H78.5l-3.7 6.6c-.5.8-1.5 1.4-2.5 1.4q.212-.663.4-1zM16.5 52c1 3.9 2.6 7.6 4.5 11.2 1.4 2.6 3.2 4.9 5.4 6.9 2.1 1.8 4.5 3.3 7.1 4.2 3.2 1.1 6.5 1.7 9.8 1.7 3.3 0 6.6-.6 9.8-1.7 2.6-.9 5-2.4 7.1-4.2 2.2-2 4-4.3 5.4-6.9 1.9-3.6 3.5-7.3 4.5-11.2H16.5zM28 32c0 1.1-.4 2.1-1.2 2.8-.7.8-1.7 1.2-2.8 1.2-1.1 0-2.1-.4-2.8-1.2-.8-.7-1.2-1.7-1.2-2.8v-8c0-1.1.4-2.1 1.2-2.8.7-.8 1.7-1.2 2.8-1.2 1.1 0 2.1.4 2.8 1.2.8.7 1.2 1.7 1.2 2.8v8zm16-8c0 1.1-.4 2.1-1.2 2.8-.7.8-1.7 1.2-2.8 1.2-1.1 0-2.1-.4-2.8-1.2-.8-.7-1.2-1.7-1.2-2.8v-8c0-1.1.4-2.1 1.2-2.8.7-.8 1.7-1.2 2.8-1.2 1.1 0 2.1.4 2.8 1.2.8.7 1.2 1.7 1.2 2.8v8zm16 8c0 1.1-.4 2.1-1.2 2.8-.7.8-1.7 1.2-2.8 1.2-1.1 0-2.1-.4-2.8-1.2-.8-.7-1.2-1.7-1.2-2.8v-8c0-1.1.4-2.1 1.2-2.8.7-.8 1.7-1.2 2.8-1.2 1.1 0 2.1.4 2.8 1.2.8.7 1.2 1.7 1.2 2.8v8z" fill-rule="evenodd"/></svg>