<?xml version="1.0" standalone="no"?><!-- Generator: Gravit.io --><svg xmlns="http://www.w3.org/2000/svg" xmlns:xlink="http://www.w3.org/1999/xlink" width="96" height="96"><path d=" M 65.6 76 C 62.70000000000001 78.6 59.4 80.6 55.800000000000004 81.9 C 51.800000000000004 83.3 47.50000000000001 84 43.300000000000004 84 C 39.1 84 34.900000000000006 83.3 30.900000000000006 81.9 C 27.300000000000004 80.6 23.900000000000006 78.6 21.100000000000005 76 C 18.200000000000003 73.5 15.800000000000004 70.4 13.900000000000006 67 C 11.500000000000004 62.5 9.700000000000005 57.8 8.400000000000004 52.9 L 8.400000000000004 52.9 C 8.400000000000004 52.7 8.200000000000005 51 8.200000000000005 50.8 C 8.200000000000005 49 9.000000000000004 47.2 10.400000000000004 45.9 C 11.700000000000003 44.7 13.500000000000004 44 15.300000000000004 44 L 43.300000000000004 44 L 71.30000000000001 44 C 73.1 44 74.9 44.7 76.20000000000002 45.9 C 77.6 47.2 78.4 49 78.4 50.8 Q 78.4 51 78.34444444444 52 L 81.1 52 C 82.70000000000002 51.9 84.30000000000001 52.4 85.5 53.4 C 86.80000000000001 54.4 87.6 55.9 87.80000000000001 57.5 C 87.80000000000001 58 87.80000000000001 58.6 87.6 59.1 L 87 61.1 L 81.70000000000002 70.5 C 79.80000000000001 73.9 76.20000000000002 76 72.30000000000001 76 L 65.6 76 Z  M 72.70000000000002 67 C 73.9170161427462 64.71809473235086 74.97974808843983 62.38476139901753 75.90123516752001 60 L 78.5 60 L 74.80000000000001 66.6 C 74.30000000000001 67.4 73.30000000000001 68 72.30000000000001 68 Q 72.51152595676112 67.33726934053276 72.70000000000002 67 Z  M 16.500000000000004 52 C 17.500000000000004 55.9 19.100000000000005 59.6 21.000000000000004 63.2 C 22.400000000000006 65.8 24.200000000000003 68.1 26.400000000000006 70.1 C 28.500000000000007 71.9 30.900000000000006 73.4 33.50000000000001 74.3 C 36.7 75.4 40.00000000000001 76 43.300000000000004 76 C 46.6 76 49.900000000000006 75.4 53.1 74.3 C 55.7 73.4 58.1 71.9 60.20000000000001 70.1 C 62.4 68.1 64.20000000000002 65.8 65.6 63.2 C 67.5 59.6 69.1 55.9 70.1 52 L 43.300000000000004 52 L 16.500000000000004 52 L 16.500000000000004 52 Z  M 28 32 C 28 33.1 27.6 34.1 26.8 34.8 C 26.1 35.6 25.1 36 24 36 C 22.9 36 21.9 35.6 21.2 34.8 C 20.4 34.1 20 33.1 20 32 L 20 24 C 20 22.9 20.4 21.9 21.2 21.2 C 21.9 20.4 22.9 20 24 20 C 25.1 20 26.1 20.4 26.8 21.2 C 27.6 21.9 28 22.9 28 24 L 28 32 Z  M 44 24 C 44 25.1 43.6 26.1 42.8 26.8 C 42.1 27.6 41.1 28 40 28 C 38.9 28 37.9 27.6 37.2 26.8 C 36.4 26.1 36 25.1 36 24 L 36 16 C 36 14.9 36.4 13.9 37.2 13.2 C 37.9 12.4 38.9 12 40 12 C 41.1 12 42.1 12.4 42.8 13.2 C 43.6 13.9 44 14.9 44 16 L 44 24 Z  M 60 32 C 60 33.1 59.6 34.1 58.8 34.8 C 58.1 35.6 57.1 36 56 36 C 54.9 36 53.9 35.6 53.2 34.8 C 52.4 34.1 52 33.1 52 32 L 52 24 C 52 22.9 52.4 21.9 53.2 21.2 C 53.9 20.4 54.9 20 56 20 C 57.1 20 58.1 20.4 58.8 21.2 C 59.6 21.9 60 22.9 60 24 L 60 32 Z " fill-rule="evenodd" fill="#454545" stroke="none"/><mask id="_mask_QShdMKqCTKvyfk9nWV6MUONKt8SHtkOg"><path d=" M 65.6 76 C 62.70000000000001 78.6 59.4 80.6 55.800000000000004 81.9 C 51.800000000000004 83.3 47.50000000000001 84 43.300000000000004 84 C 39.1 84 34.900000000000006 83.3 30.900000000000006 81.9 C 27.300000000000004 80.6 23.900000000000006 78.6 21.100000000000005 76 C 18.200000000000003 73.5 15.800000000000004 70.4 13.900000000000006 67 C 11.500000000000004 62.5 9.700000000000005 57.8 8.400000000000004 52.9 L 8.400000000000004 52.9 C 8.400000000000004 52.7 8.200000000000005 51 8.200000000000005 50.8 C 8.200000000000005 49 9.000000000000004 47.2 10.400000000000004 45.9 C 11.700000000000003 44.7 13.500000000000004 44 15.300000000000004 44 L 43.300000000000004 44 L 71.30000000000001 44 C 73.1 44 74.9 44.7 76.20000000000002 45.9 C 77.6 47.2 78.4 49 78.4 50.8 Q 78.4 51 78.34444444444 52 L 81.1 52 C 82.70000000000002 51.9 84.30000000000001 52.4 85.5 53.4 C 86.80000000000001 54.4 87.6 55.9 87.80000000000001 57.5 C 87.80000000000001 58 87.80000000000001 58.6 87.6 59.1 L 87 61.1 L 81.70000000000002 70.5 C 79.80000000000001 73.9 76.20000000000002 76 72.30000000000001 76 L 65.6 76 Z  M 72.70000000000002 67 C 73.9170161427462 64.71809473235086 74.97974808843983 62.38476139901753 75.90123516752001 60 L 78.5 60 L 74.80000000000001 66.6 C 74.30000000000001 67.4 73.30000000000001 68 72.30000000000001 68 Q 72.51152595676112 67.33726934053276 72.70000000000002 67 Z  M 16.500000000000004 52 C 17.500000000000004 55.9 19.100000000000005 59.6 21.000000000000004 63.2 C 22.400000000000006 65.8 24.200000000000003 68.1 26.400000000000006 70.1 C 28.500000000000007 71.9 30.900000000000006 73.4 33.50000000000001 74.3 C 36.7 75.4 40.00000000000001 76 43.300000000000004 76 C 46.6 76 49.900000000000006 75.4 53.1 74.3 C 55.7 73.4 58.1 71.9 60.20000000000001 70.1 C 62.4 68.1 64.20000000000002 65.8 65.6 63.2 C 67.5 59.6 69.1 55.9 70.1 52 L 43.300000000000004 52 L 16.500000000000004 52 L 16.500000000000004 52 Z  M 28 32 C 28 33.1 27.6 34.1 26.8 34.8 C 26.1 35.6 25.1 36 24 36 C 22.9 36 21.9 35.6 21.2 34.8 C 20.4 34.1 20 33.1 20 32 L 20 24 C 20 22.9 20.4 21.9 21.2 21.2 C 21.9 20.4 22.9 20 24 20 C 25.1 20 26.1 20.4 26.8 21.2 C 27.6 21.9 28 22.9 28 24 L 28 32 Z  M 44 24 C 44 25.1 43.6 26.1 42.8 26.8 C 42.1 27.6 41.1 28 40 28 C 38.9 28 37.9 27.6 37.2 26.8 C 36.4 26.1 36 25.1 36 24 L 36 16 C 36 14.9 36.4 13.9 37.2 13.2 C 37.9 12.4 38.9 12 40 12 C 41.1 12 42.1 12.4 42.8 13.2 C 43.6 13.9 44 14.9 44 16 L 44 24 Z  M 60 32 C 60 33.1 59.6 34.1 58.8 34.8 C 58.1 35.6 57.1 36 56 36 C 54.9 36 53.9 35.6 53.2 34.8 C 52.4 34.1 52 33.1 52 32 L 52 24 C 52 22.9 52.4 21.9 53.2 21.2 C 53.9 20.4 54.9 20 56 20 C 57.1 20 58.1 20.4 58.8 21.2 C 59.6 21.9 60 22.9 60 24 L 60 32 Z " fill-rule="evenodd" fill="white" stroke="none"/></mask><path d=" M 65.6 76 C 62.70000000000001 78.6 59.4 80.6 55.800000000000004 81.9 C 51.800000000000004 83.3 47.50000000000001 84 43.300000000000004 84 C 39.1 84 34.900000000000006 83.3 30.900000000000006 81.9 C 27.300000000000004 80.6 23.900000000000006 78.6 21.100000000000005 76 C 18.200000000000003 73.5 15.800000000000004 70.4 13.900000000000006 67 C 11.500000000000004 62.5 9.700000000000005 57.8 8.400000000000004 52.9 L 8.400000000000004 52.9 C 8.400000000000004 52.7 8.200000000000005 51 8.200000000000005 50.8 C 8.200000000000005 49 9.000000000000004 47.2 10.400000000000004 45.9 C 11.700000000000003 44.7 13.500000000000004 44 15.300000000000004 44 L 43.300000000000004 44 L 71.30000000000001 44 C 73.1 44 74.9 44.7 76.20000000000002 45.9 C 77.6 47.2 78.4 49 78.4 50.8 Q 78.4 51 78.34444444444 52 L 81.1 52 C 82.70000000000002 51.9 84.30000000000001 52.4 85.5 53.4 C 86.80000000000001 54.4 87.6 55.9 87.80000000000001 57.5 C 87.80000000000001 58 87.80000000000001 58.6 87.6 59.1 L 87 61.1 L 81.70000000000002 70.5 C 79.80000000000001 73.9 76.20000000000002 76 72.30000000000001 76 L 65.6 76 Z  M 72.70000000000002 67 C 73.9170161427462 64.71809473235086 74.97974808843983 62.38476139901753 75.90123516752001 60 L 78.5 60 L 74.80000000000001 66.6 C 74.30000000000001 67.4 73.30000000000001 68 72.30000000000001 68 Q 72.51152595676112 67.33726934053276 72.70000000000002 67 Z  M 16.500000000000004 52 C 17.500000000000004 55.9 19.100000000000005 59.6 21.000000000000004 63.2 C 22.400000000000006 65.8 24.200000000000003 68.1 26.400000000000006 70.1 C 28.500000000000007 71.9 30.900000000000006 73.4 33.50000000000001 74.3 C 36.7 75.4 40.00000000000001 76 43.300000000000004 76 C 46.6 76 49.900000000000006 75.4 53.1 74.3 C 55.7 73.4 58.1 71.9 60.20000000000001 70.1 C 62.4 68.1 64.20000000000002 65.8 65.6 63.2 C 67.5 59.6 69.1 55.9 70.1 52 L 43.300000000000004 52 L 16.500000000000004 52 L 16.500000000000004 52 Z  M 28 32 C 28 33.1 27.6 34.1 26.8 34.8 C 26.1 35.6 25.1 36 24 36 C 22.9 36 21.9 35.6 21.2 34.8 C 20.4 34.1 20 33.1 20 32 L 20 24 C 20 22.9 20.4 21.9 21.2 21.2 C 21.9 20.4 22.9 20 24 20 C 25.1 20 26.1 20.4 26.8 21.2 C 27.6 21.9 28 22.9 28 24 L 28 32 Z  M 44 24 C 44 25.1 43.6 26.1 42.8 26.8 C 42.1 27.6 41.1 28 40 28 C 38.9 28 37.9 27.6 37.2 26.8 C 36.4 26.1 36 25.1 36 24 L 36 16 C 36 14.9 36.4 13.9 37.2 13.2 C 37.9 12.4 38.9 12 40 12 C 41.1 12 42.1 12.4 42.8 13.2 C 43.6 13.9 44 14.9 44 16 L 44 24 Z  M 60 32 C 60 33.1 59.6 34.1 58.8 34.8 C 58.1 35.6 57.1 36 56 36 C 54.9 36 53.9 35.6 53.2 34.8 C 52.4 34.1 52 33.1 52 32 L 52 24 C 52 22.9 52.4 21.9 53.2 21.2 C 53.9 20.4 54.9 20 56 20 C 57.1 20 58.1 20.4 58.8 21.2 C 59.6 21.9 60 22.9 60 24 L 60 32 Z " fill-rule="evenodd" fill="none" stroke="none" stroke-width="16" mask="url(#_mask_QShdMKqCTKvyfk9nWV6MUONKt8SHtkOg)"/></svg>