<svg xmlns="http://www.w3.org/2000/svg" style="isolation:isolate" width="96" height="96"><path d="M63.996 56V12.2c-.2-2 .5-4 1.8-5.6 1.4-1.5 3.2-2.5 5.3-2.6 4.8.1 9.4 2.4 12.3 6.3 3.1 3.9 4.7 8.8 4.6 13.7v28c0 2.1-.8 4.2-2.3 5.7-1.5 1.5-3.6 2.3-5.7 2.3h-8v28c0 1.1-.4 2.1-1.2 2.8-.7.8-1.7 1.2-2.8 1.2-1.1 0-2.1-.4-2.8-1.2-.8-.7-1.2-1.7-1.2-2.8V56m8-4h8V23.9c.1-3.2-1-6.3-2.9-8.8-1.3-1.6-3.1-2.7-5.1-3V52zM16 20V8c0-1.1-.4-2.1-1.2-2.8C14.1 4.4 13.1 4 12 4c-1.1 0-2.1.4-2.8 1.2C8.4 5.9 8 6.9 8 8v28c0 4 2.2 7.6 5.8 9.4L24 50.5V88c0 1.1.4 2.1 1.2 2.8.7.8 1.7 1.2 2.8 1.2 1.1 0 2.1-.4 2.8-1.2.8-.7 1.2-1.7 1.2-2.8V50.5l10.2-5.1C45.8 43.6 48 40 48 36V8c0-1.1-.4-2.1-1.2-2.8C46.1 4.4 45.1 4 44 4c-1.1 0-2.1.4-2.8 1.2-.8.7-1.2 1.7-1.2 2.8v12h-8V8c0-1.1-.4-2.1-1.2-2.8C30.1 4.4 29.1 4 28 4c-1.1 0-2.1.4-2.8 1.2-.8.7-1.2 1.7-1.2 2.8v12h-8zm12 23.5l-10.6-5.3c-.9-.4-1.4-1.3-1.4-2.2v-8h24v8c0 .9-.5 1.8-1.4 2.2L28 43.5zm4 7z" fill-rule="evenodd"/></svg>