<svg xmlns="http://www.w3.org/2000/svg" width="96" height="96"><path d="M4 28c.2-3.4 2.2-6.5 5.2-8.2 2.8-1.8 6.1-3.3 9.5-4.1C28.2 13 38.1 11.8 48 12c9.9-.2 19.8 1 29.3 3.7 3.4.8 6.7 2.3 9.6 4.2 3 1.7 4.9 4.7 5.1 8.1-.2 3.4-2.1 6.4-5.1 8.1-2.9 1.9-6.2 3.4-9.6 4.2C67.8 43 57.9 44.2 48 44c-9.9.2-19.8-1-29.3-3.7-3.4-.8-6.7-2.3-9.6-4.2-3-1.7-4.9-4.7-5.1-8.1zm8.1 0c.2-.5.5-.9 1-1.2 2.4-1.6 5-2.7 7.7-3.4 8.8-2.5 18-3.6 27.2-3.4 9.2-.2 18.4.9 27.2 3.4 2.7.7 5.3 1.8 7.6 3.4.5.2.9.7 1.1 1.2-.2.5-.6 1-1.1 1.2-2.3 1.6-4.9 2.7-7.6 3.4-8.8 2.5-18 3.6-27.2 3.4-9.2.2-18.4-.9-27.2-3.4-2.7-.7-5.3-1.8-7.6-3.4-.5-.2-.9-.7-1.1-1.2zm35.8 28h.2c9.2.2 18.3-.9 27.1-3.4 2.7-.7 5.3-1.8 7.6-3.4.7-.3 1.1-.9 1.2-1.7.1-1 .7-2 1.5-2.6.8-.7 1.9-1 3-.9 1 .1 2 .7 2.6 1.5.7.8 1 1.9.9 3-.4 3.2-2.3 6-5.1 7.6-2.9 1.9-6.2 3.4-9.6 4.2C67.8 63 57.9 64.2 48 64c-9.9.2-19.8-1-29.3-3.7-3.4-.8-6.7-2.3-9.6-4.2-2.8-1.6-4.7-4.4-5.1-7.6-.1-1.1.2-2.2.9-3 .6-.8 1.6-1.4 2.6-1.5 1.1-.1 2.2.2 3 .9.8.6 1.4 1.6 1.5 2.6.1.8.5 1.4 1.2 1.7 2.3 1.6 4.9 2.7 7.6 3.4 8.8 2.5 17.9 3.6 27.1 3.4h.2M84 67.5c.1-1 .7-2 1.5-2.6.8-.7 1.9-1 3-.9 1 .1 2 .7 2.6 1.5.7.8 1 1.9.9 3-.4 3.2-2.3 6-5.1 7.6-2.9 1.9-6.2 3.4-9.6 4.2C67.8 83 57.9 84.2 48 84c-9.9.2-19.8-1-29.3-3.7-3.4-.8-6.7-2.3-9.6-4.2-2.8-1.6-4.7-4.4-5.1-7.6-.1-1.1.2-2.2.9-3 .6-.8 1.6-1.4 2.6-1.5 1.1-.1 2.2.2 3 .9.8.6 1.4 1.6 1.5 2.6.1.8.5 1.4 1.2 1.7 2.3 1.6 4.9 2.7 7.6 3.4 8.8 2.5 18 3.6 27.2 3.4 9.2.2 18.4-.9 27.2-3.4 2.7-.7 5.3-1.8 7.6-3.4.7-.3 1.1-.9 1.2-1.7z" fill-rule="evenodd" fill="#454545"/></svg>