<svg xmlns="http://www.w3.org/2000/svg" style="isolation:isolate" width="96" height="96"><path d="M4.2 77.1c.2 1 .9 1.9 1.9 2.4 5.6 3.1 11.6 5.4 17.9 6.8 7.9 1.8 15.9 2.7 24 2.7s16.1-.9 24-2.7c6.3-1.4 12.3-3.7 17.9-6.8 1-.5 1.7-1.4 1.9-2.4.143-.477.2-1.883.2-2.1q-.013-55.399-.047-55.59c-.377-3.154-2.227-5.909-5.053-7.51-2.9-1.9-6.2-3.4-9.6-4.2C67.8 5 57.9 3.8 48 4c-9.9-.2-19.8 1-29.3 3.7-3.4.8-6.7 2.3-9.5 4.1-2.824 1.6-4.762 4.442-5.152 7.605Q4.014 19.597 4 75c0 .217.057 1.623.2 2.1zm7.8-3.48a56.605 56.605 0 0 0 13.8 4.88C33.1 80.2 40.5 81 48 81s14.9-.8 22.2-2.5A56.605 56.605 0 0 0 84 73.62V55.404A66.418 66.418 0 0 1 72 59.3C64.1 61.1 56.1 62 48 62s-16.1-.9-24-2.7a66.418 66.418 0 0 1-12-3.896V73.62zM12.1 20c.2-.5.5-.9 1-1.2 2.4-1.6 5-2.7 7.7-3.4 8.8-2.5 18-3.6 27.2-3.4 9.2-.2 18.4.9 27.2 3.4 2.7.7 5.3 1.8 7.6 3.4.5.2.9.7 1.1 1.2-.2.5-.6 1-1.1 1.2-2.3 1.6-4.9 2.7-7.6 3.4-8.8 2.5-18 3.6-27.2 3.4-9.2.2-18.4-.9-27.2-3.4-2.7-.7-5.3-1.8-7.6-3.4-.5-.2-.9-.7-1.1-1.2zM12 46.62a56.605 56.605 0 0 0 13.8 4.88C33.1 53.2 40.5 54 48 54s14.9-.8 22.2-2.5A56.605 56.605 0 0 0 84 46.62V29.793c-2.124 1.096-4.39 1.963-6.7 2.507C67.8 35 57.9 36.2 48 36c-9.9.2-19.8-1-29.3-3.7-2.31-.544-4.576-1.41-6.7-2.507V46.62z" fill-rule="evenodd"/></svg>