<?xml version="1.0" standalone="no"?><!-- Generator: Gravit.io --><svg xmlns="http://www.w3.org/2000/svg" xmlns:xlink="http://www.w3.org/1999/xlink" width="96" height="96"><path d=" M 44 80 L 44 72 L 12 72 C 9.9 72 7.8 71.2 6.3 69.7 C 4.8 68.2 4 66.1 4 64 L 4 16 C 4 13.9 4.8 11.8 6.3 10.3 C 7.8 8.8 9.9 8 12 8 L 84 8 C 86.1 8 88.2 8.8 89.7 10.3 C 91.2 11.8 92 13.9 92 16 L 92 64 C 92 66.1 91.2 68.2 89.7 69.7 C 88.2 71.2 86.1 72 84 72 L 52 72 L 52 80 L 64 80 C 65.1 80 66.1 80.4 66.8 81.2 C 67.6 81.9 68 82.9 68 84 C 68 85.1 67.6 86.1 66.8 86.8 C 66.1 87.6 65.1 88 64 88 L 48 88 L 32 88 C 30.9 88 29.9 87.6 29.2 86.8 C 28.4 86.1 28 85.1 28 84 C 28 82.9 28.4 81.9 29.2 81.2 C 29.9 80.4 30.9 80 32 80 L 44 80 Z  M 12 16 L 12 64 L 48 64 L 84 64 L 84 16 L 12 16 L 12 16 Z " fill-rule="evenodd" fill="#454545" stroke="none"/><mask id="_mask_dZZU0w4nwy1FKB9juOESJK0S1EW5oqhU"><path d=" M 44 80 L 44 72 L 12 72 C 9.9 72 7.8 71.2 6.3 69.7 C 4.8 68.2 4 66.1 4 64 L 4 16 C 4 13.9 4.8 11.8 6.3 10.3 C 7.8 8.8 9.9 8 12 8 L 84 8 C 86.1 8 88.2 8.8 89.7 10.3 C 91.2 11.8 92 13.9 92 16 L 92 64 C 92 66.1 91.2 68.2 89.7 69.7 C 88.2 71.2 86.1 72 84 72 L 52 72 L 52 80 L 64 80 C 65.1 80 66.1 80.4 66.8 81.2 C 67.6 81.9 68 82.9 68 84 C 68 85.1 67.6 86.1 66.8 86.8 C 66.1 87.6 65.1 88 64 88 L 48 88 L 32 88 C 30.9 88 29.9 87.6 29.2 86.8 C 28.4 86.1 28 85.1 28 84 C 28 82.9 28.4 81.9 29.2 81.2 C 29.9 80.4 30.9 80 32 80 L 44 80 Z  M 12 16 L 12 64 L 48 64 L 84 64 L 84 16 L 12 16 L 12 16 Z " fill-rule="evenodd" fill="white" stroke="none"/></mask><path d=" M 44 80 L 44 72 L 12 72 C 9.9 72 7.8 71.2 6.3 69.7 C 4.8 68.2 4 66.1 4 64 L 4 16 C 4 13.9 4.8 11.8 6.3 10.3 C 7.8 8.8 9.9 8 12 8 L 84 8 C 86.1 8 88.2 8.8 89.7 10.3 C 91.2 11.8 92 13.9 92 16 L 92 64 C 92 66.1 91.2 68.2 89.7 69.7 C 88.2 71.2 86.1 72 84 72 L 52 72 L 52 80 L 64 80 C 65.1 80 66.1 80.4 66.8 81.2 C 67.6 81.9 68 82.9 68 84 C 68 85.1 67.6 86.1 66.8 86.8 C 66.1 87.6 65.1 88 64 88 L 48 88 L 32 88 C 30.9 88 29.9 87.6 29.2 86.8 C 28.4 86.1 28 85.1 28 84 C 28 82.9 28.4 81.9 29.2 81.2 C 29.9 80.4 30.9 80 32 80 L 44 80 Z  M 12 16 L 12 64 L 48 64 L 84 64 L 84 16 L 12 16 L 12 16 Z " fill-rule="evenodd" fill="none" stroke="none" stroke-width="16" mask="url(#_mask_dZZU0w4nwy1FKB9juOESJK0S1EW5oqhU)"/></svg>