<svg xmlns="http://www.w3.org/2000/svg" style="isolation:isolate" width="96" height="96"><path d="M13.102 26.45H29v-12H17c-.5 0-1 .4-1.1.9l-2.798 11.1zm23.898 0h22v-12H37v12zm30 0h15.898L80.1 15.35c-.1-.5-.6-.9-1.1-.9H67v12zm13.145 8H65.98l-9.958 33.172L80.145 34.45zm-22.524 0H38.38L48 66.55l9.621-32.1zm-27.6 0H15.855l24.124 33.172-9.958-33.172zM79 6.45H17c-4.2 0-7.8 2.9-8.9 6.9L5 25.85q-.2 2.2-.2 2.3c-.1 2.8.7 5.5 2.2 7.8q.1 0 35.4 48.6c1.2 1.8 3.3 3 5.6 3s4.4-1.2 5.6-3q35.3-48.6 35.4-48.6c1.5-2.3 2.3-5 2.2-7.8q0-.1-.2-2.3l-3.1-12.5c-1.1-4-4.7-6.9-8.9-6.9z" fill-rule="evenodd"/></svg>