<svg xmlns="http://www.w3.org/2000/svg" style="isolation:isolate" width="96" height="96"><path d="M12 20h16c2.1 0 4.2.8 5.7 2.3 1.5 1.5 2.3 3.6 2.3 5.7v8c0 2.1-.8 4.2-2.3 5.7-1.5 1.5-3.6 2.3-5.7 2.3H13.602l.098.1c2.8 2.9 5.5 6 8 9.2 2.1 2.8 4.1 5.7 5.8 8.7 1.4 2.6 2.7 5.2 3.9 8 1.2 2.9 2.3 5.9 3.3 9 .1.6.7 1 1.3 1h24c.6 0 1.2-.4 1.3-1 1-3.1 2.1-6.1 3.3-9 1.2-2.8 2.5-5.4 3.9-8 1.7-3 3.7-5.9 5.8-8.7a117.145 117.145 0 0 1 8.098-9.3H68c-2.1 0-4.2-.8-5.7-2.3-1.5-1.5-2.3-3.6-2.3-5.7v-8c0-2.1.8-4.2 2.3-5.7 1.5-1.5 3.6-2.3 5.7-2.3h16v-4H12v4zm0 16h16v-8H12v8zM4 16c0-2.1.8-4.2 2.3-5.7C7.8 8.8 9.9 8 12 8h72c2.1 0 4.2.8 5.7 2.3 1.5 1.5 2.3 3.6 2.3 5.7v24c0 3.6-1.4 7.1-3.9 9.7-2.7 2.6-5.1 5.5-7.4 8.5-2 2.4-3.7 5-5.2 7.8-1.3 2.3-2.5 4.6-3.5 7.1-1.2 2.7-2.2 5.4-3 8.2-1.2 4-4.9 6.7-9 6.7H36c-4.1 0-7.8-2.7-9-6.7-.8-2.8-1.8-5.5-3-8.2-1-2.5-2.2-4.8-3.5-7.1-1.5-2.8-3.2-5.4-5.2-7.8-2.3-3-4.7-5.9-7.4-8.5C5.4 47.1 4 43.6 4 40V16zm80 20H68v-8h16v8z" fill-rule="evenodd"/></svg>