<svg xmlns="http://www.w3.org/2000/svg" style="isolation:isolate" width="96" height="96"><path d="M48 13.7L13.7 48 48 82.3 82.3 48 48 13.7zM42.3 8L8 42.3c-1.5 1.5-2.3 3.6-2.3 5.7s.8 4.2 2.3 5.7L42.3 88c1.5 1.5 3.6 2.3 5.7 2.3s4.2-.8 5.7-2.3L88 53.7c1.5-1.5 2.3-3.6 2.3-5.7s-.8-4.2-2.3-5.7L53.7 8c-1.5-1.5-3.6-2.3-5.7-2.3s-4.2.8-5.7 2.3zm8.077 28H44c-2.1 0-4.2.8-5.7 2.3-1.5 1.5-2.3 3.6-2.3 5.7v20c0 1.1.4 2.1 1.2 2.8.7.8 1.7 1.2 2.8 1.2 1.1 0 2.1-.4 2.8-1.2.8-.7 1.2-1.7 1.2-2.8V44h6.377L49.2 45.2c-.8.7-1.2 1.7-1.2 2.8 0 1.1.4 2.1 1.2 2.8.7.8 1.7 1.2 2.8 1.2 1.1 0 2.1-.4 2.8-1.2l7.2-7.1q1.5-2.142 1.5-3.7 0-1.558-1.5-3.7l-7.2-7.1c-.7-.8-1.7-1.2-2.8-1.2-1.1 0-2.1.4-2.8 1.2-.8.7-1.2 1.7-1.2 2.8 0 1.1.4 2.1 1.2 2.8l1.177 1.2z" fill-rule="evenodd"/></svg>