<?xml version="1.0" standalone="no"?><!-- Generator: Gravit.io --><svg xmlns="http://www.w3.org/2000/svg" xmlns:xlink="http://www.w3.org/1999/xlink" width="96" height="96"><path d=" M 64 63.25 C 62.900000000000006 63.25 61.900000000000006 62.849999999999994 61.20000000000001 62.05 C 60.400000000000006 61.349999999999994 60.00000000000001 60.35 60.00000000000001 59.25 C 60.00000000000001 58.15 60.400000000000006 57.15 61.20000000000001 56.45 C 61.900000000000006 55.65 62.9 55.25 64 55.25 L 72 55.25 L 72 15.25 L 24 15.250000000000004 L 24 55.25000000000001 L 32 55.25000000000001 C 33.1 55.25000000000001 34.10000000000001 55.650000000000006 34.800000000000004 56.45000000000001 C 35.60000000000001 57.150000000000006 36.00000000000001 58.150000000000006 36.00000000000001 59.25000000000001 C 36.00000000000001 60.35000000000001 35.60000000000001 61.349999999999994 34.800000000000004 62.05 C 34.10000000000001 62.849999999999994 33.10000000000001 63.25 32.00000000000001 63.25 L 24 63.25 C 21.900000000000006 63.25 19.799999999999997 62.45 18.299999999999997 60.95000000000001 C 16.799999999999997 59.45000000000001 16 57.35000000000001 16 55.25000000000001 L 16 15.250000000000004 C 16 13.150000000000006 16.799999999999997 11.050000000000006 18.299999999999997 9.550000000000006 C 19.799999999999997 8.050000000000006 21.900000000000006 7.250000000000005 24 7.2500000000000036 L 72 7.250000000000002 C 74.1 7.250000000000002 76.2 8.050000000000002 77.7 9.550000000000002 C 79.2 11.050000000000002 80 13.150000000000002 80 15.25 L 80 55.25 C 80 57.35 79.2 59.45 77.7 60.95 C 76.2 62.45 74.10000000000001 63.25 72 63.25 L 64 63.25 Z  M 52.00000000000001 75.62692307692 L 52 45.25 C 52 44.15 51.6 43.15 50.8 42.45 C 50.1 41.65 49.1 41.25 48 41.25 C 46.9 41.25 45.9 41.65 45.2 42.45 C 44.4 43.15 44 44.15 44 45.25 L 44.00000000000001 75.62692307692 L 42.800000000000004 74.45 C 42.10000000000001 73.65 41.10000000000001 73.25 40.00000000000001 73.25 C 38.900000000000006 73.25 37.900000000000006 73.65 37.20000000000001 74.45 C 36.400000000000006 75.15 36.00000000000001 76.15 36.00000000000001 77.25 C 36.00000000000001 78.35 36.400000000000006 79.35 37.20000000000001 80.05 L 44.300000000000004 87.25 Q 46.4418782806429 88.75 48.00000000000001 88.75 Q 49.55812171935712 88.75 51.70000000000001 87.25 L 58.800000000000004 80.05 C 59.60000000000001 79.35 60.00000000000001 78.35 60.00000000000001 77.25 C 60.00000000000001 76.15 59.60000000000001 75.15 58.800000000000004 74.45 C 58.10000000000001 73.65 57.10000000000001 73.25 56.00000000000001 73.25 C 54.900000000000006 73.25 53.900000000000006 73.65 53.20000000000001 74.45 L 52.00000000000001 75.62692307692 Z " fill-rule="evenodd" fill="#454545" stroke="none"/><mask id="_mask_gpwavWGj50gomYOrQOoHukEJDqYtKvVL"><path d=" M 64 63.25 C 62.900000000000006 63.25 61.900000000000006 62.849999999999994 61.20000000000001 62.05 C 60.400000000000006 61.349999999999994 60.00000000000001 60.35 60.00000000000001 59.25 C 60.00000000000001 58.15 60.400000000000006 57.15 61.20000000000001 56.45 C 61.900000000000006 55.65 62.9 55.25 64 55.25 L 72 55.25 L 72 15.25 L 24 15.250000000000004 L 24 55.25000000000001 L 32 55.25000000000001 C 33.1 55.25000000000001 34.10000000000001 55.650000000000006 34.800000000000004 56.45000000000001 C 35.60000000000001 57.150000000000006 36.00000000000001 58.150000000000006 36.00000000000001 59.25000000000001 C 36.00000000000001 60.35000000000001 35.60000000000001 61.349999999999994 34.800000000000004 62.05 C 34.10000000000001 62.849999999999994 33.10000000000001 63.25 32.00000000000001 63.25 L 24 63.25 C 21.900000000000006 63.25 19.799999999999997 62.45 18.299999999999997 60.95000000000001 C 16.799999999999997 59.45000000000001 16 57.35000000000001 16 55.25000000000001 L 16 15.250000000000004 C 16 13.150000000000006 16.799999999999997 11.050000000000006 18.299999999999997 9.550000000000006 C 19.799999999999997 8.050000000000006 21.900000000000006 7.250000000000005 24 7.2500000000000036 L 72 7.250000000000002 C 74.1 7.250000000000002 76.2 8.050000000000002 77.7 9.550000000000002 C 79.2 11.050000000000002 80 13.150000000000002 80 15.25 L 80 55.25 C 80 57.35 79.2 59.45 77.7 60.95 C 76.2 62.45 74.10000000000001 63.25 72 63.25 L 64 63.25 Z  M 52.00000000000001 75.62692307692 L 52 45.25 C 52 44.15 51.6 43.15 50.8 42.45 C 50.1 41.65 49.1 41.25 48 41.25 C 46.9 41.25 45.9 41.65 45.2 42.45 C 44.4 43.15 44 44.15 44 45.25 L 44.00000000000001 75.62692307692 L 42.800000000000004 74.45 C 42.10000000000001 73.65 41.10000000000001 73.25 40.00000000000001 73.25 C 38.900000000000006 73.25 37.900000000000006 73.65 37.20000000000001 74.45 C 36.400000000000006 75.15 36.00000000000001 76.15 36.00000000000001 77.25 C 36.00000000000001 78.35 36.400000000000006 79.35 37.20000000000001 80.05 L 44.300000000000004 87.25 Q 46.4418782806429 88.75 48.00000000000001 88.75 Q 49.55812171935712 88.75 51.70000000000001 87.25 L 58.800000000000004 80.05 C 59.60000000000001 79.35 60.00000000000001 78.35 60.00000000000001 77.25 C 60.00000000000001 76.15 59.60000000000001 75.15 58.800000000000004 74.45 C 58.10000000000001 73.65 57.10000000000001 73.25 56.00000000000001 73.25 C 54.900000000000006 73.25 53.900000000000006 73.65 53.20000000000001 74.45 L 52.00000000000001 75.62692307692 Z " fill-rule="evenodd" fill="white" stroke="none"/></mask><path d=" M 64 63.25 C 62.900000000000006 63.25 61.900000000000006 62.849999999999994 61.20000000000001 62.05 C 60.400000000000006 61.349999999999994 60.00000000000001 60.35 60.00000000000001 59.25 C 60.00000000000001 58.15 60.400000000000006 57.15 61.20000000000001 56.45 C 61.900000000000006 55.65 62.9 55.25 64 55.25 L 72 55.25 L 72 15.25 L 24 15.250000000000004 L 24 55.25000000000001 L 32 55.25000000000001 C 33.1 55.25000000000001 34.10000000000001 55.650000000000006 34.800000000000004 56.45000000000001 C 35.60000000000001 57.150000000000006 36.00000000000001 58.150000000000006 36.00000000000001 59.25000000000001 C 36.00000000000001 60.35000000000001 35.60000000000001 61.349999999999994 34.800000000000004 62.05 C 34.10000000000001 62.849999999999994 33.10000000000001 63.25 32.00000000000001 63.25 L 24 63.25 C 21.900000000000006 63.25 19.799999999999997 62.45 18.299999999999997 60.95000000000001 C 16.799999999999997 59.45000000000001 16 57.35000000000001 16 55.25000000000001 L 16 15.250000000000004 C 16 13.150000000000006 16.799999999999997 11.050000000000006 18.299999999999997 9.550000000000006 C 19.799999999999997 8.050000000000006 21.900000000000006 7.250000000000005 24 7.2500000000000036 L 72 7.250000000000002 C 74.1 7.250000000000002 76.2 8.050000000000002 77.7 9.550000000000002 C 79.2 11.050000000000002 80 13.150000000000002 80 15.25 L 80 55.25 C 80 57.35 79.2 59.45 77.7 60.95 C 76.2 62.45 74.10000000000001 63.25 72 63.25 L 64 63.25 Z  M 52.00000000000001 75.62692307692 L 52 45.25 C 52 44.15 51.6 43.15 50.8 42.45 C 50.1 41.65 49.1 41.25 48 41.25 C 46.9 41.25 45.9 41.65 45.2 42.45 C 44.4 43.15 44 44.15 44 45.25 L 44.00000000000001 75.62692307692 L 42.800000000000004 74.45 C 42.10000000000001 73.65 41.10000000000001 73.25 40.00000000000001 73.25 C 38.900000000000006 73.25 37.900000000000006 73.65 37.20000000000001 74.45 C 36.400000000000006 75.15 36.00000000000001 76.15 36.00000000000001 77.25 C 36.00000000000001 78.35 36.400000000000006 79.35 37.20000000000001 80.05 L 44.300000000000004 87.25 Q 46.4418782806429 88.75 48.00000000000001 88.75 Q 49.55812171935712 88.75 51.70000000000001 87.25 L 58.800000000000004 80.05 C 59.60000000000001 79.35 60.00000000000001 78.35 60.00000000000001 77.25 C 60.00000000000001 76.15 59.60000000000001 75.15 58.800000000000004 74.45 C 58.10000000000001 73.65 57.10000000000001 73.25 56.00000000000001 73.25 C 54.900000000000006 73.25 53.900000000000006 73.65 53.20000000000001 74.45 L 52.00000000000001 75.62692307692 Z " fill-rule="evenodd" fill="none" stroke="none" stroke-width="16" mask="url(#_mask_gpwavWGj50gomYOrQOoHukEJDqYtKvVL)"/></svg>