<svg xmlns="http://www.w3.org/2000/svg" width="96" height="96"><path d="M75.5 39.2c2.9 4.8 4.5 10.3 4.5 16 0 8.4-3.4 16.6-9.4 22.6S56.5 87.2 48 87.2c-8.5 0-16.6-3.4-22.6-9.4S16 63.6 16 55.2c0-5.7 1.6-11.2 4.5-16 6.2-10.1 13.5-19.5 21.8-28 1.5-1.5 3.6-2.4 5.7-2.4s4.2.9 5.7 2.4c8.3 8.5 15.6 17.9 21.8 28zM24 55.2c0-4.2 1.1-8.3 3.3-11.8 5.9-9.6 12.8-18.5 20.7-26.5 7.9 8 14.8 16.9 20.7 26.5C70.9 46.9 72 51 72 55.2c0 6.3-2.5 12.4-7 16.9-4.5 4.5-10.6 7.1-17 7.1s-12.5-2.6-17-7.1-7-10.6-7-16.9z" fill-rule="evenodd" fill="#454545"/></svg>