<?xml version="1.0" standalone="no"?><!-- Generator: Gravit.io --><svg xmlns="http://www.w3.org/2000/svg" xmlns:xlink="http://www.w3.org/1999/xlink" width="96" height="96"><path d=" M 75.5 39.2 C 78.4 44 80 49.5 80 55.2 C 80 63.6 76.6 71.8 70.6 77.8 C 64.6 83.8 56.5 87.2 48 87.2 L 48 87.2 C 39.5 87.2 31.4 83.8 25.4 77.8 C 19.4 71.8 16 63.6 16 55.2 C 16 49.5 17.6 44 20.5 39.2 C 26.7 29.1 34 19.7 42.3 11.2 C 43.8 9.7 45.9 8.8 48 8.8 C 50.1 8.8 52.2 9.7 53.7 11.2 C 62 19.7 69.3 29.1 75.5 39.2 Z  M 24 55.2 C 24 51 25.1 46.9 27.3 43.4 C 33.2 33.8 40.1 24.9 48 16.9 C 55.9 24.9 62.8 33.8 68.7 43.4 C 70.9 46.9 72 51 72 55.2 C 72 61.5 69.5 67.6 65 72.1 C 60.5 76.6 54.4 79.2 48 79.2 L 48 79.2 C 41.6 79.2 35.5 76.6 31 72.1 C 26.5 67.6 24 61.5 24 55.2 Z " fill-rule="evenodd" fill="#454545" stroke="none"/><mask id="_mask_P5vLBGNZMcbf6n4sYWuwhqK6yFBSQ1Ts"><path d=" M 75.5 39.2 C 78.4 44 80 49.5 80 55.2 C 80 63.6 76.6 71.8 70.6 77.8 C 64.6 83.8 56.5 87.2 48 87.2 L 48 87.2 C 39.5 87.2 31.4 83.8 25.4 77.8 C 19.4 71.8 16 63.6 16 55.2 C 16 49.5 17.6 44 20.5 39.2 C 26.7 29.1 34 19.7 42.3 11.2 C 43.8 9.7 45.9 8.8 48 8.8 C 50.1 8.8 52.2 9.7 53.7 11.2 C 62 19.7 69.3 29.1 75.5 39.2 Z  M 24 55.2 C 24 51 25.1 46.9 27.3 43.4 C 33.2 33.8 40.1 24.9 48 16.9 C 55.9 24.9 62.8 33.8 68.7 43.4 C 70.9 46.9 72 51 72 55.2 C 72 61.5 69.5 67.6 65 72.1 C 60.5 76.6 54.4 79.2 48 79.2 L 48 79.2 C 41.6 79.2 35.5 76.6 31 72.1 C 26.5 67.6 24 61.5 24 55.2 Z " fill-rule="evenodd" fill="white" stroke="none"/></mask><path d=" M 75.5 39.2 C 78.4 44 80 49.5 80 55.2 C 80 63.6 76.6 71.8 70.6 77.8 C 64.6 83.8 56.5 87.2 48 87.2 L 48 87.2 C 39.5 87.2 31.4 83.8 25.4 77.8 C 19.4 71.8 16 63.6 16 55.2 C 16 49.5 17.6 44 20.5 39.2 C 26.7 29.1 34 19.7 42.3 11.2 C 43.8 9.7 45.9 8.8 48 8.8 C 50.1 8.8 52.2 9.7 53.7 11.2 C 62 19.7 69.3 29.1 75.5 39.2 Z  M 24 55.2 C 24 51 25.1 46.9 27.3 43.4 C 33.2 33.8 40.1 24.9 48 16.9 C 55.9 24.9 62.8 33.8 68.7 43.4 C 70.9 46.9 72 51 72 55.2 C 72 61.5 69.5 67.6 65 72.1 C 60.5 76.6 54.4 79.2 48 79.2 L 48 79.2 C 41.6 79.2 35.5 76.6 31 72.1 C 26.5 67.6 24 61.5 24 55.2 Z " fill-rule="evenodd" fill="none" stroke="none" stroke-width="16" mask="url(#_mask_P5vLBGNZMcbf6n4sYWuwhqK6yFBSQ1Ts)"/></svg>