<?xml version="1.0" standalone="no"?><!-- Generator: Gravit.io --><svg xmlns="http://www.w3.org/2000/svg" xmlns:xlink="http://www.w3.org/1999/xlink" width="96" height="96"><path d=" M 75 43.8 C 75.5 46.6 77 49.2 79.2 50.9 C 83.3 54.4 86.1 59.2 87.2 64.5 C 87.2 64.7 87.4 67.3 87.4 67.5 C 86.7 76.6 81.2 84.7 72.9 88.6 C 64.1 93.1 54.3 95.4 44.3 95.2 C 36.4 95.3 28.5 93.8 21.1 90.8 C 14 88 8.2 82.8 4.7 76 C 3.1 72.8 2.2 69.2 1.9 65.6 C 1.6 61.3 1.9 57 2.8 52.8 C 3.5 49.1 4.6 45.4 6.1 41.9 C 8 37.1 10.3 32.5 12.8 28 C 13 27.6 15.113264163466349 23.276792846525794 17.7 23.5 C 20.44990834356615 23.737287165165228 21.5 28.8 21.6 29.4 C 22.4 33 23.6 36.4 25.4 39.6 C 26.4 41.3 27.8 42.8 29.5 43.9 C 32.8 46.1 36.7 47.3 40.7 47.3 C 46.3 47.5 51.7 44.6 54.5 39.7 L 55 38.1 C 54.6 36.5 53.7 35.1 52.4 34.1 C 48.7 30.8 46.3 26.2 45.8 21.2 C 45.9 18.6 46.5 15.9 47.7 13.6 C 51 6.4 57.9 1.5 65.8 0.8 C 69.9 0.9 73.8 2 77.3 3.8 C 80.3 5.9 82.8 8.5 84.6 11.6 C 85.7 13.4 86.2 15.3 86.4 17.4 L 92.7 22.3 L 95.3 26.5 L 92.2 29.7 C 91.8 30.1 82.1 34.3 78.5 37.1 C 76.9 38.4 74.5 40.99999999999999 75 43.8 Z  M 16.2 38.8 C 16.9 40.4 17.6 42 18.5 43.5 C 20.1 46.3 22.3 48.8 25.1 50.6 C 29.7 53.6 35.1 55.3 40.6 55.3 C 49.3 55.5 57.5 50.9 61.8 43.2 C 61.9 42.9 63.1 38.2 63 37.6 C 62.5 33.9 60.5 30.4 57.6 28 C 55.6 26.2 54.2 23.6 53.9 20.9 C 53.9 19.5 54.3 18.2 54.9 17 C 56.9 12.5 61.2 9.4 66.1 8.8 C 68.6 9 71 9.6 73.2 10.7 C 75 12 76.6 13.7 77.7 15.7 C 78.3 16.6 78.5 17.7 78.3 18.7 C 78.1 20.1 78.7 21.5 79.8 22.4 L 83.1 25 C 79.7 26.6 76.5 28.5 73.6 30.9 C 70.6 33.2 68.4 36.5 67.4 40.2 C 67.4 40.4 66.9 44 67 44.4 C 67.6 49.4 70.2 53.9 74.1 57.1 C 76.7 59.4 78.5 62.4 79.3 65.8 L 79.4 67.1 C 78.9 73.3 75 78.8 69.4 81.4 C 61.7 85.4 53.1 87.4 44.4 87.2 C 37.4 87.3 30.5 86 24.1 83.3 C 18.8 81.3 14.5 77.5 11.9 72.5 C 10.8 70.1 10.1 67.6 9.9 65 C 9.6 61.4 9.9 57.9 10.6 54.4 C 11.3 51.2 12.2 48 13.5 44.9 C 14.3 42.8 15.2 40.8 16.2 38.8 Z " fill-rule="evenodd" fill="#454545" stroke="none"/><mask id="_mask_qlqq2HrD7zWMXNFqp05WCBkTDstaH6Z3"><path d=" M 75 43.8 C 75.5 46.6 77 49.2 79.2 50.9 C 83.3 54.4 86.1 59.2 87.2 64.5 C 87.2 64.7 87.4 67.3 87.4 67.5 C 86.7 76.6 81.2 84.7 72.9 88.6 C 64.1 93.1 54.3 95.4 44.3 95.2 C 36.4 95.3 28.5 93.8 21.1 90.8 C 14 88 8.2 82.8 4.7 76 C 3.1 72.8 2.2 69.2 1.9 65.6 C 1.6 61.3 1.9 57 2.8 52.8 C 3.5 49.1 4.6 45.4 6.1 41.9 C 8 37.1 10.3 32.5 12.8 28 C 13 27.6 15.113264163466349 23.276792846525794 17.7 23.5 C 20.44990834356615 23.737287165165228 21.5 28.8 21.6 29.4 C 22.4 33 23.6 36.4 25.4 39.6 C 26.4 41.3 27.8 42.8 29.5 43.9 C 32.8 46.1 36.7 47.3 40.7 47.3 C 46.3 47.5 51.7 44.6 54.5 39.7 L 55 38.1 C 54.6 36.5 53.7 35.1 52.4 34.1 C 48.7 30.8 46.3 26.2 45.8 21.2 C 45.9 18.6 46.5 15.9 47.7 13.6 C 51 6.4 57.9 1.5 65.8 0.8 C 69.9 0.9 73.8 2 77.3 3.8 C 80.3 5.9 82.8 8.5 84.6 11.6 C 85.7 13.4 86.2 15.3 86.4 17.4 L 92.7 22.3 L 95.3 26.5 L 92.2 29.7 C 91.8 30.1 82.1 34.3 78.5 37.1 C 76.9 38.4 74.5 40.99999999999999 75 43.8 Z  M 16.2 38.8 C 16.9 40.4 17.6 42 18.5 43.5 C 20.1 46.3 22.3 48.8 25.1 50.6 C 29.7 53.6 35.1 55.3 40.6 55.3 C 49.3 55.5 57.5 50.9 61.8 43.2 C 61.9 42.9 63.1 38.2 63 37.6 C 62.5 33.9 60.5 30.4 57.6 28 C 55.6 26.2 54.2 23.6 53.9 20.9 C 53.9 19.5 54.3 18.2 54.9 17 C 56.9 12.5 61.2 9.4 66.1 8.8 C 68.6 9 71 9.6 73.2 10.7 C 75 12 76.6 13.7 77.7 15.7 C 78.3 16.6 78.5 17.7 78.3 18.7 C 78.1 20.1 78.7 21.5 79.8 22.4 L 83.1 25 C 79.7 26.6 76.5 28.5 73.6 30.9 C 70.6 33.2 68.4 36.5 67.4 40.2 C 67.4 40.4 66.9 44 67 44.4 C 67.6 49.4 70.2 53.9 74.1 57.1 C 76.7 59.4 78.5 62.4 79.3 65.8 L 79.4 67.1 C 78.9 73.3 75 78.8 69.4 81.4 C 61.7 85.4 53.1 87.4 44.4 87.2 C 37.4 87.3 30.5 86 24.1 83.3 C 18.8 81.3 14.5 77.5 11.9 72.5 C 10.8 70.1 10.1 67.6 9.9 65 C 9.6 61.4 9.9 57.9 10.6 54.4 C 11.3 51.2 12.2 48 13.5 44.9 C 14.3 42.8 15.2 40.8 16.2 38.8 Z " fill-rule="evenodd" fill="white" stroke="none"/></mask><path d=" M 75 43.8 C 75.5 46.6 77 49.2 79.2 50.9 C 83.3 54.4 86.1 59.2 87.2 64.5 C 87.2 64.7 87.4 67.3 87.4 67.5 C 86.7 76.6 81.2 84.7 72.9 88.6 C 64.1 93.1 54.3 95.4 44.3 95.2 C 36.4 95.3 28.5 93.8 21.1 90.8 C 14 88 8.2 82.8 4.7 76 C 3.1 72.8 2.2 69.2 1.9 65.6 C 1.6 61.3 1.9 57 2.8 52.8 C 3.5 49.1 4.6 45.4 6.1 41.9 C 8 37.1 10.3 32.5 12.8 28 C 13 27.6 15.113264163466349 23.276792846525794 17.7 23.5 C 20.44990834356615 23.737287165165228 21.5 28.8 21.6 29.4 C 22.4 33 23.6 36.4 25.4 39.6 C 26.4 41.3 27.8 42.8 29.5 43.9 C 32.8 46.1 36.7 47.3 40.7 47.3 C 46.3 47.5 51.7 44.6 54.5 39.7 L 55 38.1 C 54.6 36.5 53.7 35.1 52.4 34.1 C 48.7 30.8 46.3 26.2 45.8 21.2 C 45.9 18.6 46.5 15.9 47.7 13.6 C 51 6.4 57.9 1.5 65.8 0.8 C 69.9 0.9 73.8 2 77.3 3.8 C 80.3 5.9 82.8 8.5 84.6 11.6 C 85.7 13.4 86.2 15.3 86.4 17.4 L 92.7 22.3 L 95.3 26.5 L 92.2 29.7 C 91.8 30.1 82.1 34.3 78.5 37.1 C 76.9 38.4 74.5 40.99999999999999 75 43.8 Z  M 16.2 38.8 C 16.9 40.4 17.6 42 18.5 43.5 C 20.1 46.3 22.3 48.8 25.1 50.6 C 29.7 53.6 35.1 55.3 40.6 55.3 C 49.3 55.5 57.5 50.9 61.8 43.2 C 61.9 42.9 63.1 38.2 63 37.6 C 62.5 33.9 60.5 30.4 57.6 28 C 55.6 26.2 54.2 23.6 53.9 20.9 C 53.9 19.5 54.3 18.2 54.9 17 C 56.9 12.5 61.2 9.4 66.1 8.8 C 68.6 9 71 9.6 73.2 10.7 C 75 12 76.6 13.7 77.7 15.7 C 78.3 16.6 78.5 17.7 78.3 18.7 C 78.1 20.1 78.7 21.5 79.8 22.4 L 83.1 25 C 79.7 26.6 76.5 28.5 73.6 30.9 C 70.6 33.2 68.4 36.5 67.4 40.2 C 67.4 40.4 66.9 44 67 44.4 C 67.6 49.4 70.2 53.9 74.1 57.1 C 76.7 59.4 78.5 62.4 79.3 65.8 L 79.4 67.1 C 78.9 73.3 75 78.8 69.4 81.4 C 61.7 85.4 53.1 87.4 44.4 87.2 C 37.4 87.3 30.5 86 24.1 83.3 C 18.8 81.3 14.5 77.5 11.9 72.5 C 10.8 70.1 10.1 67.6 9.9 65 C 9.6 61.4 9.9 57.9 10.6 54.4 C 11.3 51.2 12.2 48 13.5 44.9 C 14.3 42.8 15.2 40.8 16.2 38.8 Z " fill-rule="evenodd" fill="none" stroke="none" stroke-width="16" mask="url(#_mask_qlqq2HrD7zWMXNFqp05WCBkTDstaH6Z3)"/></svg>