<svg xmlns="http://www.w3.org/2000/svg" width="96" height="96"><path d="M75 43.8c.5 2.8 2 5.4 4.2 7.1 4.1 3.5 6.9 8.3 8 13.6 0 .2.2 2.8.2 3-.7 9.1-6.2 17.2-14.5 21.1-8.8 4.5-18.6 6.8-28.6 6.6-7.9.1-15.8-1.4-23.2-4.4C14 88 8.2 82.8 4.7 76c-1.6-3.2-2.5-6.8-2.8-10.4-.3-4.3 0-8.6.9-12.8.7-3.7 1.8-7.4 3.3-10.9 1.9-4.8 4.2-9.4 6.7-13.9.2-.4 2.313-4.723 4.9-4.5 2.75.237 3.8 5.3 3.9 5.9.8 3.6 2 7 3.8 10.2 1 1.7 2.4 3.2 4.1 4.3 3.3 2.2 7.2 3.4 11.2 3.4 5.6.2 11-2.7 13.8-7.6l.5-1.6c-.4-1.6-1.3-3-2.6-4-3.7-3.3-6.1-7.9-6.6-12.9.1-2.6.7-5.3 1.9-7.6C51 6.4 57.9 1.5 65.8.8c4.1.1 8 1.2 11.5 3 3 2.1 5.5 4.7 7.3 7.8 1.1 1.8 1.6 3.7 1.8 5.8l6.3 4.9 2.6 4.2-3.1 3.2c-.4.4-10.1 4.6-13.7 7.4-1.6 1.3-4 3.9-3.5 6.7zm-58.8-5c.7 1.6 1.4 3.2 2.3 4.7 1.6 2.8 3.8 5.3 6.6 7.1 4.6 3 10 4.7 15.5 4.7 8.7.2 16.9-4.4 21.2-12.1.1-.3 1.3-5 1.2-5.6-.5-3.7-2.5-7.2-5.4-9.6-2-1.8-3.4-4.4-3.7-7.1 0-1.4.4-2.7 1-3.9 2-4.5 6.3-7.6 11.2-8.2 2.5.2 4.9.8 7.1 1.9 1.8 1.3 3.4 3 4.5 5 .6.9.8 2 .6 3-.2 1.4.4 2.8 1.5 3.7l3.3 2.6c-3.4 1.6-6.6 3.5-9.5 5.9-3 2.3-5.2 5.6-6.2 9.3 0 .2-.5 3.8-.4 4.2.6 5 3.2 9.5 7.1 12.7 2.6 2.3 4.4 5.3 5.2 8.7l.1 1.3c-.5 6.2-4.4 11.7-10 14.3-7.7 4-16.3 6-25 5.8-7 .1-13.9-1.2-20.3-3.9-5.3-2-9.6-5.8-12.2-10.8-1.1-2.4-1.8-4.9-2-7.5-.3-3.6 0-7.1.7-10.6.7-3.2 1.6-6.4 2.9-9.5.8-2.1 1.7-4.1 2.7-6.1z" fill-rule="evenodd" fill="#454545"/></svg>