<svg xmlns="http://www.w3.org/2000/svg" style="isolation:isolate" width="96" height="96"><path d="M77.3 18.2c.5 1 .5 2.1.1 3-.4 1-1.2 1.8-2.2 2.2-1 .4-2.1.4-3 .1-1-.4-1.8-1.2-2.2-2.2-3-7-9.8-11.8-17.4-12.2-5.2.2-10.3 1.7-14.7 4.6-7.2 4.2-11.6 12-11.6 20.3 0 4.2 1.2 8.4 3.4 12 1.1 1.8 2.6 3.3 4.2 4.6.1 0 5 4.5 5.1 4.7 3.8 5.4 5.8 11.8 5.9 18.3 0 3.3.8 6.5 2.1 9.5 1.8 2.4 5.165 3.627 8.95 3.75 3.223.105 6.15-.55 7.95-2.25 1.1-2 1.8-4.3 1.9-6.6.4-4.7 1.9-9.2 4.5-13.1.6-.9 1.6-1.5 2.6-1.7 1-.2 2.1 0 3 .6.9.6 1.5 1.5 1.7 2.6.2 1 0 2.1-.6 3-1.9 2.7-2.9 5.8-3.2 9.1-.2 3.9-1.4 7.7-3.5 11-3.4 3.9-8.534 5.524-14.6 5.35-6.778-.194-13.6-3.45-15.6-7.65s-3.1-8.8-3.2-13.5c0-4.8-1.5-9.5-4.2-13.4L29 56.9c-2.4-1.9-4.5-4.1-6.1-6.6-3-4.9-4.6-10.6-4.6-16.3 0-11.1 5.9-21.4 15.3-27.1 5.7-3.7 12.3-5.6 19.1-5.8 10.8.4 20.4 7.1 24.6 17.1zM64.3 36c1.1.1 2.1.6 2.7 1.4.7.8 1.1 1.9 1 2.9-.1 1.1-.6 2.1-1.4 2.7-.8.7-1.9 1.1-2.9 1-3.7-.3-6.8-2.6-8.2-6-.9-2.6-1.4-5.3-1.4-8 0-1.8-.2-3.6-.8-5.2q-.3-.6-3-1.2c-2.2-.1-4.3.7-6 2.2-1.6 1.5-2.6 3.6-2.7 5.8.1 1.9.9 3.7 2.2 5 2 2.1 4.2 3.9 6.6 5.4 2.4 1.4 4.5 3.3 6.2 5.6 2.1 3.7 3.4 7.8 3.9 12 .1 1-.2 2.1-.9 2.9-.7.8-1.6 1.4-2.7 1.5-1 .1-2.1-.2-2.9-.9-.8-.7-1.4-1.6-1.5-2.7-.3-2.9-1.2-5.8-2.6-8.4-1-1.3-2.3-2.4-3.7-3.2-2.9-1.8-5.6-4.1-8.1-6.6-2.8-2.8-4.4-6.6-4.5-10.7.1-4.3 2-8.5 5.2-11.5s7.5-4.6 11.9-4.4h.1l1.9.1c3.7.5 6.8 2.8 8.1 6.2.9 2.6 1.3 5.4 1.3 8.1 0 1.7.3 3.4.8 5.1.3.5.8.9 1.4.9z" fill-rule="evenodd" fill="#454545"/></svg>