<svg xmlns="http://www.w3.org/2000/svg" style="isolation:isolate" width="96" height="96"><path d="M64.279 46.594c1-.1 2.1.3 2.8 1 .8.7 1.3 1.7 1.4 2.8 0 1-.4 2.1-1.1 2.9-.7.7-1.7 1.2-2.7 1.3h-1.5c-2.7-.4-5.1-1.8-6.8-4-1.6-2.1-2.4-4.8-2.1-7.5 0-3.4.9-6.9 2.6-10-1.5-1.9-3.7-3.1-6.1-3.3-1.4.1-2.7.7-3.7 1.7-1.5 2-2.2 4.4-2.1 6.9.1 3.7.9 7.4 2.2 10.9 2.1 5.4 4.8 10.6 8.1 15.4.6.9.8 2 .6 3-.2 1-.8 2-1.7 2.6-.9.5-1.9.8-3 .6-1-.2-1.9-.8-2.5-1.7-3.6-5.3-6.6-11-8.9-17-1.7-4.3-2.6-8.9-2.8-13.5-.2-4.4 1.2-8.7 3.9-12.2 2.5-3 6.2-4.7 10.1-4.7 7.1.4 13.2 5.4 15 12.3-2.5 2.5-3.8 6-3.7 9.6-.3 1.2.5 2.5 1.7 2.9h.3zm12.4-26.7c.5.9.6 2 .4 3-.3 1-1 1.9-1.9 2.4-1 .5-2.1.7-3.1.4-1-.3-1.9-1-2.4-1.9-4.5-8-12.8-13.1-21.9-13.4-5.4 0-10.6 2.3-14.2 6.4-4.7 6-7.1 13.5-6.7 21.1l.4 7c.9 11.6 5.7 22.5 13.5 31 5 5.8 12.1 9.3 19.7 9.7 4.1.2 7.7-2.5 8.9-6.4.2-1 .9-1.9 1.9-2.4.9-.5 2-.6 3-.3 1 .2 1.9.9 2.4 1.9.5.9.6 2 .3 3-2.1 7.5-9.1 12.5-16.9 12.2-9.7-.5-18.8-5-25.2-12.4-9-9.8-14.5-22.4-15.6-35.6v-.2l-.4-7c-.5-9.7 2.5-19.2 8.5-26.8 5.2-5.9 12.7-9.2 20.5-9.2 12 .4 22.9 7 28.8 17.5z" fill-rule="evenodd"/></svg>