<?xml version="1.0" standalone="no"?><!-- Generator: Gravit.io --><svg xmlns="http://www.w3.org/2000/svg" xmlns:xlink="http://www.w3.org/1999/xlink" width="96" height="96"><path d=" M 36 16 C 37.1 16 38.300000000000004 16.200000000000003 39 17 C 39.800000000000004 17.700000000000003 40 18.9 40 20 C 40 21.1 39.800000000000004 22.3 39 23 C 38.300000000000004 23.8 37.1 24 36 24 L 16 24 L 16 80 L 71.85 80.15 L 72 60 C 72 58.9 72.19999999999999 57.699999999999996 73 57 C 73.69999999999999 56.199999999999996 74.9 56 76 56 C 77.1 56 78.29999999999998 56.199999999999996 79 57 C 79.79999999999998 57.699999999999996 80 58.9 80 60 L 80 80 C 80 82.1 79.05000000000001 84.35 77.55000000000001 85.85 C 76.05000000000001 87.35 74.1 88 72 88 L 16 88 C 13.899999999999999 88 11.650000000000002 87.35 10.150000000000002 85.85 C 8.650000000000002 84.35 8 82.1 8 80 L 8 24 C 8 21.9 8.650000000000002 19.95 10.150000000000002 18.45 C 11.650000000000002 16.95 13.899999999999999 16 16 16 L 36 16 Z  M 73.55000000000001 12.149999999999999 L 83.85 22.45 C 83.85 22.45 83.85 22.45 83.85 22.45 C 85.35 23.95 86.15 26.049999999999997 86.15 28.15 C 86.15 30.25 85.35 32.349999999999994 83.85 33.849999999999994 C 83.85 33.849999999999994 83.85 33.849999999999994 83.85 33.849999999999994 L 57.550000000000004 60.15 C 54.95 62.75 51.45 64.15 47.85 64.15 L 31.85 64.15 L 31.85 48.15 C 31.85 44.55 33.25 41.05 35.85 38.449999999999996 L 62.15 12.149999999999999 C 62.15 12.149999999999999 62.15 12.149999999999999 62.15 12.149999999999999 C 63.65 10.649999999999999 65.75 9.849999999999998 67.85 9.849999999999998 C 69.94999999999999 9.849999999999998 72.05000000000001 10.649999999999999 73.55000000000001 12.149999999999999 C 73.55000000000001 12.149999999999999 73.55000000000001 12.149999999999999 73.55000000000001 12.149999999999999 Z  M 67.85 17.849999999999998 L 78.15 28.15 L 51.85 54.449999999999996 C 50.75 55.55 49.35 56.15 47.85 56.15 L 39.85 56.15 L 39.85 48.15 C 39.85 46.65 40.45 45.25 41.550000000000004 44.15 L 67.85 17.849999999999998 Z " fill-rule="evenodd" fill="#454545" stroke="none"/><mask id="_mask_Fo04I1lGblminzMQn1J02deSbpMVpp1o"><path d=" M 36 16 C 37.1 16 38.300000000000004 16.200000000000003 39 17 C 39.800000000000004 17.700000000000003 40 18.9 40 20 C 40 21.1 39.800000000000004 22.3 39 23 C 38.300000000000004 23.8 37.1 24 36 24 L 16 24 L 16 80 L 71.85 80.15 L 72 60 C 72 58.9 72.19999999999999 57.699999999999996 73 57 C 73.69999999999999 56.199999999999996 74.9 56 76 56 C 77.1 56 78.29999999999998 56.199999999999996 79 57 C 79.79999999999998 57.699999999999996 80 58.9 80 60 L 80 80 C 80 82.1 79.05000000000001 84.35 77.55000000000001 85.85 C 76.05000000000001 87.35 74.1 88 72 88 L 16 88 C 13.899999999999999 88 11.650000000000002 87.35 10.150000000000002 85.85 C 8.650000000000002 84.35 8 82.1 8 80 L 8 24 C 8 21.9 8.650000000000002 19.95 10.150000000000002 18.45 C 11.650000000000002 16.95 13.899999999999999 16 16 16 L 36 16 Z  M 73.55000000000001 12.149999999999999 L 83.85 22.45 C 83.85 22.45 83.85 22.45 83.85 22.45 C 85.35 23.95 86.15 26.049999999999997 86.15 28.15 C 86.15 30.25 85.35 32.349999999999994 83.85 33.849999999999994 C 83.85 33.849999999999994 83.85 33.849999999999994 83.85 33.849999999999994 L 57.550000000000004 60.15 C 54.95 62.75 51.45 64.15 47.85 64.15 L 31.85 64.15 L 31.85 48.15 C 31.85 44.55 33.25 41.05 35.85 38.449999999999996 L 62.15 12.149999999999999 C 62.15 12.149999999999999 62.15 12.149999999999999 62.15 12.149999999999999 C 63.65 10.649999999999999 65.75 9.849999999999998 67.85 9.849999999999998 C 69.94999999999999 9.849999999999998 72.05000000000001 10.649999999999999 73.55000000000001 12.149999999999999 C 73.55000000000001 12.149999999999999 73.55000000000001 12.149999999999999 73.55000000000001 12.149999999999999 Z  M 67.85 17.849999999999998 L 78.15 28.15 L 51.85 54.449999999999996 C 50.75 55.55 49.35 56.15 47.85 56.15 L 39.85 56.15 L 39.85 48.15 C 39.85 46.65 40.45 45.25 41.550000000000004 44.15 L 67.85 17.849999999999998 Z " fill-rule="evenodd" fill="white" stroke="none"/></mask><path d=" M 36 16 C 37.1 16 38.300000000000004 16.200000000000003 39 17 C 39.800000000000004 17.700000000000003 40 18.9 40 20 C 40 21.1 39.800000000000004 22.3 39 23 C 38.300000000000004 23.8 37.1 24 36 24 L 16 24 L 16 80 L 71.85 80.15 L 72 60 C 72 58.9 72.19999999999999 57.699999999999996 73 57 C 73.69999999999999 56.199999999999996 74.9 56 76 56 C 77.1 56 78.29999999999998 56.199999999999996 79 57 C 79.79999999999998 57.699999999999996 80 58.9 80 60 L 80 80 C 80 82.1 79.05000000000001 84.35 77.55000000000001 85.85 C 76.05000000000001 87.35 74.1 88 72 88 L 16 88 C 13.899999999999999 88 11.650000000000002 87.35 10.150000000000002 85.85 C 8.650000000000002 84.35 8 82.1 8 80 L 8 24 C 8 21.9 8.650000000000002 19.95 10.150000000000002 18.45 C 11.650000000000002 16.95 13.899999999999999 16 16 16 L 36 16 Z  M 73.55000000000001 12.149999999999999 L 83.85 22.45 C 83.85 22.45 83.85 22.45 83.85 22.45 C 85.35 23.95 86.15 26.049999999999997 86.15 28.15 C 86.15 30.25 85.35 32.349999999999994 83.85 33.849999999999994 C 83.85 33.849999999999994 83.85 33.849999999999994 83.85 33.849999999999994 L 57.550000000000004 60.15 C 54.95 62.75 51.45 64.15 47.85 64.15 L 31.85 64.15 L 31.85 48.15 C 31.85 44.55 33.25 41.05 35.85 38.449999999999996 L 62.15 12.149999999999999 C 62.15 12.149999999999999 62.15 12.149999999999999 62.15 12.149999999999999 C 63.65 10.649999999999999 65.75 9.849999999999998 67.85 9.849999999999998 C 69.94999999999999 9.849999999999998 72.05000000000001 10.649999999999999 73.55000000000001 12.149999999999999 C 73.55000000000001 12.149999999999999 73.55000000000001 12.149999999999999 73.55000000000001 12.149999999999999 Z  M 67.85 17.849999999999998 L 78.15 28.15 L 51.85 54.449999999999996 C 50.75 55.55 49.35 56.15 47.85 56.15 L 39.85 56.15 L 39.85 48.15 C 39.85 46.65 40.45 45.25 41.550000000000004 44.15 L 67.85 17.849999999999998 Z " fill-rule="evenodd" fill="none" stroke="none" stroke-width="16" mask="url(#_mask_Fo04I1lGblminzMQn1J02deSbpMVpp1o)"/></svg>