<svg xmlns="http://www.w3.org/2000/svg" width="96" height="96"><path d="M36 16c1.1 0 2.3.2 3 1 .8.7 1 1.9 1 3s-.2 2.3-1 3c-.7.8-1.9 1-3 1H16v56l55.85.15L72 60c0-1.1.2-2.3 1-3 .7-.8 1.9-1 3-1s2.3.2 3 1c.8.7 1 1.9 1 3v20c0 2.1-.95 4.35-2.45 5.85C76.05 87.35 74.1 88 72 88H16c-2.1 0-4.35-.65-5.85-2.15S8 82.1 8 80V24c0-2.1.65-4.05 2.15-5.55S13.9 16 16 16h20zm37.55-3.85l10.3 10.3c1.5 1.5 2.3 3.6 2.3 5.7s-.8 4.2-2.3 5.7l-26.3 26.3c-2.6 2.6-6.1 4-9.7 4h-16v-16c0-3.6 1.4-7.1 4-9.7l26.3-26.3c1.5-1.5 3.6-2.3 5.7-2.3s4.2.8 5.7 2.3zm-5.7 5.7l10.3 10.3-26.3 26.3c-1.1 1.1-2.5 1.7-4 1.7h-8v-8c0-1.5.6-2.9 1.7-4l26.3-26.3z" fill-rule="evenodd" fill="#454545"/></svg>