<svg xmlns="http://www.w3.org/2000/svg" width="96" height="96"><path d="M19.1 57.7l-.4 3.8c0 4.2 1.7 8.2 4.7 11.1 2.9 3 6.9 4.7 11.1 4.7l3.8-.4c1-.1 2.1.3 3 1C45.9 81.8 51.9 84 58 84c6.9 0 13.5-2.7 18.4-7.6C81.3 71.5 84 64.9 84 58c0-6.1-2.2-12-6.1-16.7 1.8-3 2.8-6.5 2.8-10 0-5.1-2.1-10-5.7-13.6C71.4 14 66.5 12 61.3 12c-5 0-9.9 2-13.5 5.5-.7.8-1.8 1.2-2.8 1.2h-.4c-2 0-3.9 1-5 2.8-.6 1-1.7 1.7-2.9 1.8-1.2.1-2.4-.3-3.3-1.1-2.3-2.3-5.5-3.5-8.7-3.5-3.4 0-6.6 1.3-9 3.7-2.4 2.4-3.7 5.6-3.7 8.9 0 3.5 1.4 6.7 3.9 9.1.9.9 1.3 2.2 1.1 3.4l-.6 4.5c.1 2.4.8 4.8 2.1 6.9.5.8.7 1.7.6 2.5zm24.3-47c-2.8.3-5.5 1.4-7.7 3.2-3.3-2.1-7.1-3.2-11-3.2-5.5 0-10.8 2.1-14.6 6C6.2 20.6 4 25.9 4 31.3c0 4.9 1.7 9.6 4.9 13.3l-.4 2.9c0 .1-.1.3-.1.5 0 3.6.9 7 2.6 10.2l-.3 2.7v.4c0 6.4 2.5 12.5 7 17s10.6 7 17 7h.4l2.4-.2C43.4 89.6 50.6 92 58 92c9 0 17.7-3.6 24-10 6.4-6.3 10-15 10-24 0-6.2-1.7-12.3-4.9-17.6 1-2.9 1.6-6 1.6-9.1 0-7.2-2.9-14.2-8-19.3-5.2-5.1-12.1-8-19.4-8-6.6 0-12.9 2.4-17.9 6.7zM32 48c0-4.2 1.7-8.3 4.7-11.3S43.8 32 48 32c4.2 0 8.3 1.7 11.3 4.7S64 43.8 64 48c0 4.2-1.7 8.3-4.7 11.3S52.2 64 48 64c-4.2 0-8.3-1.7-11.3-4.7S32 52.2 32 48zm8 0c0-2.1.8-4.2 2.3-5.7 1.5-1.5 3.6-2.3 5.7-2.3s4.2.8 5.7 2.3c1.5 1.5 2.3 3.6 2.3 5.7s-.8 4.2-2.3 5.7C52.2 55.2 50.1 56 48 56s-4.2-.8-5.7-2.3C40.8 52.2 40 50.1 40 48z" fill-rule="evenodd" fill="#454545"/></svg>