<?xml version="1.0" standalone="no"?><!-- Generator: Gravit.io --><svg xmlns="http://www.w3.org/2000/svg" xmlns:xlink="http://www.w3.org/1999/xlink" width="96" height="96"><path d=" M 16 55.9 C 16.3 45.4 19.4 35.2 24.8 26.1 C 27.2 21.6 30.5 17.4 34.4 13.8 C 38.1 10.3 42.9 8.2 48 8 C 53.1 8.2 57.9 10.3 61.6 13.8 C 65.5 17.4 68.8 21.6 71.3 26.2 C 76.7 35.2 79.7 45.5 80 55.9 C 80 64.4 76.7 72.6 70.7 78.6 C 64.6 84.6 56.5 88 48 88 C 39.5 88 31.4 84.6 25.3 78.6 C 19.3 72.6 16 64.4 16 55.9 Z  M 24 56.1 C 24.3 47 26.9 38.1 31.6 30.3 C 33.8 26.2 36.5 22.6 39.8 19.6 C 42 17.5 44.9 16.2 48 16 C 51.1 16.2 54 17.5 56.2 19.6 C 59.5 22.6 62.2 26.2 64.3 30.2 C 69 38 71.7 46.9 72 56.1 C 72 62.4 69.4 68.5 64.9 73 C 60.5 77.5 54.4 80 48 80 C 41.6 80 35.5 77.5 31.1 73 C 26.6 68.5 24 62.4 24 56.1 Z " fill-rule="evenodd" fill="#454545" stroke="none"/><mask id="_mask_5cHUIUnvbZUFWLV1Jsdu7YAWujzszY03"><path d=" M 16 55.9 C 16.3 45.4 19.4 35.2 24.8 26.1 C 27.2 21.6 30.5 17.4 34.4 13.8 C 38.1 10.3 42.9 8.2 48 8 C 53.1 8.2 57.9 10.3 61.6 13.8 C 65.5 17.4 68.8 21.6 71.3 26.2 C 76.7 35.2 79.7 45.5 80 55.9 C 80 64.4 76.7 72.6 70.7 78.6 C 64.6 84.6 56.5 88 48 88 C 39.5 88 31.4 84.6 25.3 78.6 C 19.3 72.6 16 64.4 16 55.9 Z  M 24 56.1 C 24.3 47 26.9 38.1 31.6 30.3 C 33.8 26.2 36.5 22.6 39.8 19.6 C 42 17.5 44.9 16.2 48 16 C 51.1 16.2 54 17.5 56.2 19.6 C 59.5 22.6 62.2 26.2 64.3 30.2 C 69 38 71.7 46.9 72 56.1 C 72 62.4 69.4 68.5 64.9 73 C 60.5 77.5 54.4 80 48 80 C 41.6 80 35.5 77.5 31.1 73 C 26.6 68.5 24 62.4 24 56.1 Z " fill-rule="evenodd" fill="white" stroke="none"/></mask><path d=" M 16 55.9 C 16.3 45.4 19.4 35.2 24.8 26.1 C 27.2 21.6 30.5 17.4 34.4 13.8 C 38.1 10.3 42.9 8.2 48 8 C 53.1 8.2 57.9 10.3 61.6 13.8 C 65.5 17.4 68.8 21.6 71.3 26.2 C 76.7 35.2 79.7 45.5 80 55.9 C 80 64.4 76.7 72.6 70.7 78.6 C 64.6 84.6 56.5 88 48 88 C 39.5 88 31.4 84.6 25.3 78.6 C 19.3 72.6 16 64.4 16 55.9 Z  M 24 56.1 C 24.3 47 26.9 38.1 31.6 30.3 C 33.8 26.2 36.5 22.6 39.8 19.6 C 42 17.5 44.9 16.2 48 16 C 51.1 16.2 54 17.5 56.2 19.6 C 59.5 22.6 62.2 26.2 64.3 30.2 C 69 38 71.7 46.9 72 56.1 C 72 62.4 69.4 68.5 64.9 73 C 60.5 77.5 54.4 80 48 80 C 41.6 80 35.5 77.5 31.1 73 C 26.6 68.5 24 62.4 24 56.1 Z " fill-rule="evenodd" fill="none" stroke="none" stroke-width="16" mask="url(#_mask_5cHUIUnvbZUFWLV1Jsdu7YAWujzszY03)"/></svg>