<svg xmlns="http://www.w3.org/2000/svg" width="96" height="96"><path d="M16 55.9c.3-10.5 3.4-20.7 8.8-29.8 2.4-4.5 5.7-8.7 9.6-12.3C38.1 10.3 42.9 8.2 48 8c5.1.2 9.9 2.3 13.6 5.8 3.9 3.6 7.2 7.8 9.7 12.4 5.4 9 8.4 19.3 8.7 29.7 0 8.5-3.3 16.7-9.3 22.7-6.1 6-14.2 9.4-22.7 9.4s-16.6-3.4-22.7-9.4c-6-6-9.3-14.2-9.3-22.7zm8 .2c.3-9.1 2.9-18 7.6-25.8 2.2-4.1 4.9-7.7 8.2-10.7 2.2-2.1 5.1-3.4 8.2-3.6 3.1.2 6 1.5 8.2 3.6 3.3 3 6 6.6 8.1 10.6C69 38 71.7 46.9 72 56.1c0 6.3-2.6 12.4-7.1 16.9-4.4 4.5-10.5 7-16.9 7-6.4 0-12.5-2.5-16.9-7-4.5-4.5-7.1-10.6-7.1-16.9z" fill-rule="evenodd" fill="#454545"/></svg>