<svg xmlns="http://www.w3.org/2000/svg" width="96" height="96"><path d="M37.3 12c1.1 0 2.1.4 2.9 1.2.7.7 1.1 1.7 1.1 2.8 0 1.1-.4 2.1-1.1 2.8-.8.8-1.8 1.2-2.9 1.2H20v56h56V58.7c0-1.1.4-2.1 1.2-2.9.7-.7 1.7-1.1 2.8-1.1 1.1 0 2.1.4 2.8 1.1.8.8 1.2 1.8 1.2 2.9V76c0 2.1-.8 4.2-2.3 5.7-1.5 1.5-3.6 2.3-5.7 2.3H20c-2.1 0-4.2-.8-5.7-2.3-1.5-1.5-2.3-3.6-2.3-5.7V20c0-2.1.8-4.2 2.3-5.7 1.5-1.5 3.6-2.3 5.7-2.3h17.3zM76 25.6V40c0 1.1.4 2.1 1.2 2.8.7.8 1.7 1.2 2.8 1.2 1.1 0 2.1-.4 2.8-1.2.8-.7 1.2-1.7 1.2-2.8V20c0-2.1-.8-4.2-2.3-5.7-1.5-1.5-3.6-2.3-5.7-2.3H56c-1.1 0-2.1.4-2.8 1.2-.8.7-1.2 1.7-1.2 2.8 0 1.1.4 2.1 1.2 2.8.7.8 1.7 1.2 2.8 1.2h14.4L45.2 45.2c-.8.7-1.2 1.7-1.2 2.8 0 1.1.4 2.1 1.2 2.8.7.8 1.7 1.2 2.8 1.2 1.1 0 2.1-.4 2.8-1.2L76 25.6z" fill-rule="evenodd" fill="#454545"/></svg>