<?xml version="1.0" standalone="no"?><!-- Generator: Gravit.io --><svg xmlns="http://www.w3.org/2000/svg" xmlns:xlink="http://www.w3.org/1999/xlink" width="96" height="96"><path d=" M 37.3 12 C 38.4 12 39.4 12.4 40.2 13.2 C 40.9 13.9 41.3 14.9 41.3 16 C 41.3 17.1 40.9 18.1 40.2 18.8 C 39.4 19.6 38.4 20 37.3 20 L 20 20 L 20 76 L 76 76 L 76 58.7 C 76 57.6 76.4 56.6 77.2 55.8 C 77.9 55.1 78.9 54.7 80 54.7 C 81.1 54.7 82.1 55.1 82.8 55.8 C 83.6 56.6 84 57.6 84 58.7 L 84 76 C 84 78.1 83.2 80.2 81.7 81.7 C 80.2 83.2 78.1 84 76 84 L 20 84 C 17.9 84 15.8 83.2 14.3 81.7 C 12.8 80.2 12 78.1 12 76 L 12 20 C 12 17.9 12.8 15.8 14.3 14.3 C 15.8 12.8 17.9 12 20 12 L 37.3 12 Z  M 76 25.6 L 76 40 C 76 41.1 76.4 42.1 77.2 42.8 C 77.9 43.6 78.9 44 80 44 C 81.1 44 82.1 43.6 82.8 42.8 C 83.6 42.1 84 41.1 84 40 L 84 20 C 84 17.9 83.2 15.8 81.7 14.3 C 80.2 12.8 78.1 12 76 12 L 56 12 C 54.9 12 53.9 12.4 53.2 13.2 C 52.4 13.9 52 14.9 52 16 C 52 17.1 52.4 18.1 53.2 18.8 C 53.9 19.6 54.9 20 56 20 L 70.4 20 L 45.2 45.2 C 44.4 45.9 44 46.9 44 48 C 44 49.1 44.4 50.1 45.2 50.8 C 45.9 51.6 46.9 52 48 52 C 49.1 52 50.1 51.6 50.8 50.8 L 76 25.6 Z " fill-rule="evenodd" fill="#454545" stroke="none"/><mask id="_mask_IaZOwt8boQtZmGvlrLlWB1NbuIfexJM8"><path d=" M 37.3 12 C 38.4 12 39.4 12.4 40.2 13.2 C 40.9 13.9 41.3 14.9 41.3 16 C 41.3 17.1 40.9 18.1 40.2 18.8 C 39.4 19.6 38.4 20 37.3 20 L 20 20 L 20 76 L 76 76 L 76 58.7 C 76 57.6 76.4 56.6 77.2 55.8 C 77.9 55.1 78.9 54.7 80 54.7 C 81.1 54.7 82.1 55.1 82.8 55.8 C 83.6 56.6 84 57.6 84 58.7 L 84 76 C 84 78.1 83.2 80.2 81.7 81.7 C 80.2 83.2 78.1 84 76 84 L 20 84 C 17.9 84 15.8 83.2 14.3 81.7 C 12.8 80.2 12 78.1 12 76 L 12 20 C 12 17.9 12.8 15.8 14.3 14.3 C 15.8 12.8 17.9 12 20 12 L 37.3 12 Z  M 76 25.6 L 76 40 C 76 41.1 76.4 42.1 77.2 42.8 C 77.9 43.6 78.9 44 80 44 C 81.1 44 82.1 43.6 82.8 42.8 C 83.6 42.1 84 41.1 84 40 L 84 20 C 84 17.9 83.2 15.8 81.7 14.3 C 80.2 12.8 78.1 12 76 12 L 56 12 C 54.9 12 53.9 12.4 53.2 13.2 C 52.4 13.9 52 14.9 52 16 C 52 17.1 52.4 18.1 53.2 18.8 C 53.9 19.6 54.9 20 56 20 L 70.4 20 L 45.2 45.2 C 44.4 45.9 44 46.9 44 48 C 44 49.1 44.4 50.1 45.2 50.8 C 45.9 51.6 46.9 52 48 52 C 49.1 52 50.1 51.6 50.8 50.8 L 76 25.6 Z " fill-rule="evenodd" fill="white" stroke="none"/></mask><path d=" M 37.3 12 C 38.4 12 39.4 12.4 40.2 13.2 C 40.9 13.9 41.3 14.9 41.3 16 C 41.3 17.1 40.9 18.1 40.2 18.8 C 39.4 19.6 38.4 20 37.3 20 L 20 20 L 20 76 L 76 76 L 76 58.7 C 76 57.6 76.4 56.6 77.2 55.8 C 77.9 55.1 78.9 54.7 80 54.7 C 81.1 54.7 82.1 55.1 82.8 55.8 C 83.6 56.6 84 57.6 84 58.7 L 84 76 C 84 78.1 83.2 80.2 81.7 81.7 C 80.2 83.2 78.1 84 76 84 L 20 84 C 17.9 84 15.8 83.2 14.3 81.7 C 12.8 80.2 12 78.1 12 76 L 12 20 C 12 17.9 12.8 15.8 14.3 14.3 C 15.8 12.8 17.9 12 20 12 L 37.3 12 Z  M 76 25.6 L 76 40 C 76 41.1 76.4 42.1 77.2 42.8 C 77.9 43.6 78.9 44 80 44 C 81.1 44 82.1 43.6 82.8 42.8 C 83.6 42.1 84 41.1 84 40 L 84 20 C 84 17.9 83.2 15.8 81.7 14.3 C 80.2 12.8 78.1 12 76 12 L 56 12 C 54.9 12 53.9 12.4 53.2 13.2 C 52.4 13.9 52 14.9 52 16 C 52 17.1 52.4 18.1 53.2 18.8 C 53.9 19.6 54.9 20 56 20 L 70.4 20 L 45.2 45.2 C 44.4 45.9 44 46.9 44 48 C 44 49.1 44.4 50.1 45.2 50.8 C 45.9 51.6 46.9 52 48 52 C 49.1 52 50.1 51.6 50.8 50.8 L 76 25.6 Z " fill-rule="evenodd" fill="none" stroke="none" stroke-width="16" mask="url(#_mask_IaZOwt8boQtZmGvlrLlWB1NbuIfexJM8)"/></svg>