<svg xmlns="http://www.w3.org/2000/svg" width="96" height="96"><path d="M7.7 42.4c6.4-7 13.8-13 22-17.6C35.3 21.7 41.6 20 48 20s12.7 1.7 18.3 4.8c8.2 4.6 15.6 10.6 22 17.6 1.4 1.5 2.1 3.5 2.1 5.6 0 2.1-.7 4.1-2.1 5.6-6.4 7-13.8 13-22 17.6C60.7 74.3 54.4 76 48 76s-12.7-1.7-18.3-4.8c-8.2-4.6-15.6-10.6-22-17.6-1.4-1.5-2.1-3.5-2.1-5.6 0-2.1.7-4.1 2.1-5.6zm6 5.3c5.7-6.3 12.5-11.7 20-15.9C38 29.3 43 28 48 28s10 1.3 14.3 3.8c7.5 4.2 14.3 9.6 20 15.9.1.1.1.2.1.3 0 .1 0 .2-.1.3-5.7 6.3-12.5 11.7-20 15.9C58 66.7 53 68 48 68s-10-1.3-14.3-3.8c-7.5-4.2-14.3-9.6-20-15.9-.1-.1-.1-.2-.1-.3 0-.1 0-.2.1-.3zM36 48c0-3.2 1.3-6.2 3.5-8.5 2.3-2.2 5.3-3.5 8.5-3.5s6.2 1.3 8.5 3.5c2.2 2.3 3.5 5.3 3.5 8.5s-1.3 6.2-3.5 8.5C54.2 58.7 51.2 60 48 60s-6.2-1.3-8.5-3.5C37.3 54.2 36 51.2 36 48zm8 0c0-1.1.4-2.1 1.2-2.8.7-.8 1.7-1.2 2.8-1.2 1.1 0 2.1.4 2.8 1.2.8.7 1.2 1.7 1.2 2.8 0 1.1-.4 2.1-1.2 2.8-.7.8-1.7 1.2-2.8 1.2-1.1 0-2.1-.4-2.8-1.2-.8-.7-1.2-1.7-1.2-2.8z" fill-rule="evenodd" fill="#454545"/></svg>