<svg xmlns="http://www.w3.org/2000/svg" width="96" height="96"><path d="M44 45.7l-6.7 6.7-2.2 1.2c-.9.5-1.9.6-2.9.3-2.8-.7-4.6-3.4-4.2-6.3V16h-8v60h56V45.7l-6.7 6.7-2.2 1.2c-.9.5-1.9.6-2.9.3-2.8-.7-4.6-3.4-4.2-6.3v-1.9l-6.7 6.7-2.2 1.2c-.9.5-1.9.6-2.9.3-2.8-.7-4.6-3.4-4.2-6.3v-1.9zm-8-3.4V16c0-2.1-.8-4.2-2.3-5.7C32.2 8.8 30.1 8 28 8h-8c-2.1 0-4.2.8-5.7 2.3-1.5 1.5-2.3 3.6-2.3 5.7v60c0 2.1.8 4.2 2.3 5.7 1.5 1.5 3.6 2.3 5.7 2.3h56c2.1 0 4.2-.8 5.7-2.3 1.5-1.5 2.3-3.6 2.3-5.7V40.4c.4-2.9-1.4-5.6-4.2-6.3-1-.3-2-.2-2.9.3l-2.2 1.2-6.7 6.7v-1.9c.4-2.9-1.4-5.6-4.2-6.3-1-.3-2-.2-2.9.3l-2.2 1.2-6.7 6.7v-1.9c.4-2.9-1.4-5.6-4.2-6.3-1-.3-2-.2-2.9.3l-2.2 1.2-6.7 6.7z" fill-rule="evenodd" fill="#454545"/></svg>