<?xml version="1.0" standalone="no"?><!-- Generator: Gravit.io --><svg xmlns="http://www.w3.org/2000/svg" xmlns:xlink="http://www.w3.org/1999/xlink" width="96" height="96"><path d=" M 44 45.7 L 37.3 52.4 L 35.1 53.6 C 34.2 54.1 33.2 54.2 32.2 53.9 C 29.4 53.2 27.6 50.5 28 47.6 L 28 16 L 20 16 L 20 76 L 76 76 L 76 45.7 L 69.3 52.4 L 67.1 53.6 C 66.2 54.1 65.2 54.2 64.2 53.9 C 61.4 53.2 59.6 50.5 60 47.6 L 60 45.7 L 53.3 52.4 L 51.1 53.6 C 50.2 54.1 49.2 54.2 48.2 53.9 C 45.4 53.2 43.6 50.5 44 47.6 L 44 45.7 Z  M 36 42.3 L 36 16 C 36 13.9 35.2 11.8 33.7 10.3 C 32.2 8.8 30.1 8 28 8 L 20 8 C 17.9 8 15.8 8.8 14.3 10.3 C 12.8 11.8 12 13.9 12 16 L 12 76 C 12 78.1 12.8 80.2 14.3 81.7 C 15.8 83.2 17.9 84 20 84 L 76 84 C 78.1 84 80.2 83.2 81.7 81.7 C 83.2 80.2 84 78.1 84 76 L 84 40.4 C 84.4 37.5 82.6 34.8 79.8 34.1 C 78.8 33.8 77.8 33.9 76.9 34.4 L 74.7 35.6 L 68 42.3 L 68 40.4 C 68.4 37.5 66.6 34.8 63.8 34.1 C 62.8 33.8 61.8 33.9 60.9 34.4 L 58.7 35.6 L 52 42.3 L 52 40.4 C 52.4 37.5 50.6 34.8 47.8 34.1 C 46.8 33.8 45.8 33.9 44.9 34.4 L 42.7 35.6 L 36 42.3 Z " fill-rule="evenodd" fill="#454545" stroke="none"/><mask id="_mask_x71Y6oOYWWmYUeJoYsvWCGr9DsB3qdkv"><path d=" M 44 45.7 L 37.3 52.4 L 35.1 53.6 C 34.2 54.1 33.2 54.2 32.2 53.9 C 29.4 53.2 27.6 50.5 28 47.6 L 28 16 L 20 16 L 20 76 L 76 76 L 76 45.7 L 69.3 52.4 L 67.1 53.6 C 66.2 54.1 65.2 54.2 64.2 53.9 C 61.4 53.2 59.6 50.5 60 47.6 L 60 45.7 L 53.3 52.4 L 51.1 53.6 C 50.2 54.1 49.2 54.2 48.2 53.9 C 45.4 53.2 43.6 50.5 44 47.6 L 44 45.7 Z  M 36 42.3 L 36 16 C 36 13.9 35.2 11.8 33.7 10.3 C 32.2 8.8 30.1 8 28 8 L 20 8 C 17.9 8 15.8 8.8 14.3 10.3 C 12.8 11.8 12 13.9 12 16 L 12 76 C 12 78.1 12.8 80.2 14.3 81.7 C 15.8 83.2 17.9 84 20 84 L 76 84 C 78.1 84 80.2 83.2 81.7 81.7 C 83.2 80.2 84 78.1 84 76 L 84 40.4 C 84.4 37.5 82.6 34.8 79.8 34.1 C 78.8 33.8 77.8 33.9 76.9 34.4 L 74.7 35.6 L 68 42.3 L 68 40.4 C 68.4 37.5 66.6 34.8 63.8 34.1 C 62.8 33.8 61.8 33.9 60.9 34.4 L 58.7 35.6 L 52 42.3 L 52 40.4 C 52.4 37.5 50.6 34.8 47.8 34.1 C 46.8 33.8 45.8 33.9 44.9 34.4 L 42.7 35.6 L 36 42.3 Z " fill-rule="evenodd" fill="white" stroke="none"/></mask><path d=" M 44 45.7 L 37.3 52.4 L 35.1 53.6 C 34.2 54.1 33.2 54.2 32.2 53.9 C 29.4 53.2 27.6 50.5 28 47.6 L 28 16 L 20 16 L 20 76 L 76 76 L 76 45.7 L 69.3 52.4 L 67.1 53.6 C 66.2 54.1 65.2 54.2 64.2 53.9 C 61.4 53.2 59.6 50.5 60 47.6 L 60 45.7 L 53.3 52.4 L 51.1 53.6 C 50.2 54.1 49.2 54.2 48.2 53.9 C 45.4 53.2 43.6 50.5 44 47.6 L 44 45.7 Z  M 36 42.3 L 36 16 C 36 13.9 35.2 11.8 33.7 10.3 C 32.2 8.8 30.1 8 28 8 L 20 8 C 17.9 8 15.8 8.8 14.3 10.3 C 12.8 11.8 12 13.9 12 16 L 12 76 C 12 78.1 12.8 80.2 14.3 81.7 C 15.8 83.2 17.9 84 20 84 L 76 84 C 78.1 84 80.2 83.2 81.7 81.7 C 83.2 80.2 84 78.1 84 76 L 84 40.4 C 84.4 37.5 82.6 34.8 79.8 34.1 C 78.8 33.8 77.8 33.9 76.9 34.4 L 74.7 35.6 L 68 42.3 L 68 40.4 C 68.4 37.5 66.6 34.8 63.8 34.1 C 62.8 33.8 61.8 33.9 60.9 34.4 L 58.7 35.6 L 52 42.3 L 52 40.4 C 52.4 37.5 50.6 34.8 47.8 34.1 C 46.8 33.8 45.8 33.9 44.9 34.4 L 42.7 35.6 L 36 42.3 Z " fill-rule="evenodd" fill="none" stroke="none" stroke-width="16" mask="url(#_mask_x71Y6oOYWWmYUeJoYsvWCGr9DsB3qdkv)"/></svg>