<svg xmlns="http://www.w3.org/2000/svg" width="96" height="96"><path d="M19.8 1h32c3.6 0 7.1 1.6 9.6 4.3l18.9 21.3c2.4 2.7 3.7 6.1 3.7 9.7v50.9c0 2.1-.8 4-2.3 5.5-1.5 1.5-3.4 2.3-5.5 2.3H19.8c-2.1 0-4-.8-5.5-2.3-1.5-1.5-2.3-3.4-2.3-5.5V8.8c0-2.1.8-4 2.3-5.5C15.8 1.8 17.7 1 19.8 1zm.2 8h31.8c1.4 0 2.7.6 3.6 1.6l19 21.3c1 1.2 1.6 2.8 1.6 4.3V87H20V9zm24 11c0-1.1.4-2.1 1.2-2.8.7-.8 1.7-1.2 2.8-1.2 1.1 0 2.1.4 2.8 1.2.8.7 1.2 1.7 1.2 2.8v12h12c1.1 0 2.1.4 2.8 1.2.8.7 1.2 1.7 1.2 2.8 0 1.1-.4 2.1-1.2 2.8-.7.8-1.7 1.2-2.8 1.2H52c-2.1 0-4.2-.8-5.7-2.3-1.5-1.5-2.3-3.6-2.3-5.7V20zm19.282 29.555q2.614.936 2.614 2.496 0 .507-.468 1.911L57.94 75.607q-.078.273-.273.663-.196.39-1.034 1.034-.839.643-1.989.643-1.15 0-1.989-.644-.838-.643-1.111-1.267L46.98 62.581q-4.33 12.792-4.407 13.026-.078.234-.352.663-.273.429-.623.78-.897.897-2.145.897t-2.048-.585q-.8-.585-1.072-1.17l-.273-.585-7.527-21.645q-.43-1.287-.43-1.911 0-1.56 2.614-2.457 1.13-.39 2.047-.39.916 0 1.404.624.488.624.878 1.911l4.29 13.026 4.25-12.831q.546-1.638 1.99-2.262.624-.273 1.618-.273.995 0 1.852.643.859.644 1.093 1.268l4.484 13.533 4.29-13.104q.313-.897.508-1.326.195-.429.721-.838.526-.41 1.306-.41t1.834.39z" fill-rule="evenodd" fill="#454545" stroke="rgba(0,0,0,0)" stroke-linecap="square"/></svg>