<?xml version="1.0" standalone="no"?><!-- Generator: Gravit.io --><svg xmlns="http://www.w3.org/2000/svg" xmlns:xlink="http://www.w3.org/1999/xlink" width="96" height="96"><path d=" M 19.8 1 L 51.8 1 C 55.4 1 58.9 2.6 61.4 5.3 L 80.3 26.6 C 82.7 29.3 84 32.7 84 36.3 L 84 87.2 C 84 89.3 83.2 91.2 81.7 92.7 C 80.2 94.2 78.3 95 76.2 95 L 19.8 95 C 17.7 95 15.8 94.2 14.3 92.7 C 12.8 91.2 12 89.3 12 87.2 L 12 8.8 C 12 6.7 12.8 4.8 14.3 3.3 C 15.8 1.8 17.7 1 19.8 1 Z  M 20 9 L 51.8 9 C 53.2 9 54.5 9.6 55.4 10.6 L 74.4 31.9 C 75.4 33.1 76 34.7 76 36.2 L 76 87 L 20 87 L 20 9 Z  M 44 20 C 44 18.9 44.4 17.9 45.2 17.2 C 45.9 16.4 46.9 16 48 16 C 49.1 16 50.1 16.4 50.8 17.2 C 51.6 17.9 52 18.9 52 20 L 52 32 L 64 32 C 65.1 32 66.1 32.4 66.8 33.2 C 67.6 33.9 68 34.9 68 36 C 68 37.1 67.6 38.1 66.8 38.8 C 66.1 39.6 65.1 40 64 40 L 52 40 C 49.9 40 47.8 39.2 46.3 37.7 C 44.8 36.2 44 34.1 44 32 L 44 20 Z  M 51.6995 63.516999999999996 L 59.5385 72.136 Q 60.8645 73.618 60.8645 74.632 Q 60.8645 75.646 59.363 77.011 Q 57.8615 78.376 56.828 78.376 Q 55.7945 78.376 54.429500000000004 76.816 L 47.0195 68.314 L 39.6095 76.816 Q 38.2055 78.376 37.211 78.376 Q 36.216499999999996 78.376 34.676 76.9915 Q 33.1355 75.607 33.1355 74.632 Q 33.1355 73.657 34.5005 72.136 L 42.3395 63.516999999999996 L 34.5005 54.897999999999996 Q 33.1355 53.455 33.1355 52.440999999999995 Q 33.1355 51.42699999999999 34.6565 50.0425 Q 36.177499999999995 48.658 37.211 48.658 Q 38.2445 48.658 39.6095 50.217999999999996 L 47.0195 58.72 L 54.429500000000004 50.217999999999996 Q 55.8335 48.658 56.828 48.658 Q 57.8225 48.658 59.3435 50.022999999999996 Q 60.8645 51.388 60.8645 52.440999999999995 Q 60.8645 53.494 59.5385 54.897999999999996 L 51.6995 63.516999999999996 Z " fill-rule="evenodd" fill="#454545" stroke-width="1" stroke="rgba(0,0,0,0)" stroke-linejoin="miter" stroke-linecap="square"/></svg>