<svg xmlns="http://www.w3.org/2000/svg" style="isolation:isolate" width="96" height="96"><path d="M76 36v52H20V8h32v20c0 2.1.8 4.2 2.3 5.7 1.5 1.5 3.6 2.3 5.7 2.3h16zm-1.7-8L60 13.7V28h14.3zM12 8v80c0 2.1.8 4.2 2.3 5.7 1.5 1.5 3.6 2.3 5.7 2.3h56c2.1 0 4.2-.8 5.7-2.3 1.5-1.5 2.3-3.6 2.3-5.7V32c0-3.6-1.4-7.1-4-9.7L61.7 4c-2.6-2.6-6.1-4-9.7-4H20c-2.1 0-4.2.8-5.7 2.3C12.8 3.8 12 5.9 12 8zm57.243 61.37c-.047-.347-.327-.783-.626-1.075-.858-.844-2.743-1.287-5.615-1.327-1.947-.02-4.288.15-6.752.496-1.102-.633-2.239-1.327-3.13-2.164-2.403-2.24-4.404-5.35-5.657-8.773.082-.32.15-.599.218-.885 0 0 1.348-7.677.994-10.277a2.986 2.986 0 0 0-.177-.735l-.116-.3c-.367-.85-1.089-1.749-2.219-1.701l-.667-.02h-.013c-1.266 0-2.287.646-2.56 1.606-.816 3.022.028 7.548 1.56 13.4l-.395.954c-1.096 2.681-2.471 5.377-3.683 7.752l-.156.306c-1.28 2.498-2.437 4.622-3.492 6.419l-1.082.571c-.082.041-1.94 1.028-2.375 1.287-3.696 2.212-6.146 4.716-6.555 6.704-.129.64-.034 1.45.627 1.824l1.048.53c.456.225.939.34 1.429.34 2.634 0 5.69-3.28 9.903-10.63 4.86-1.58 10.4-2.9 15.253-3.621 3.695 2.076 8.242 3.525 11.114 3.525.51 0 .953-.047 1.307-.143.551-.15 1.014-.462 1.3-.884.558-.837.667-1.995.517-3.179zM29.277 82.31c.477-1.314 2.382-3.914 5.193-6.214.177-.143.613-.552 1.008-.933-2.94 4.69-4.907 6.555-6.2 7.147zm16.648-38.34c.844 0 1.327 2.13 1.368 4.132.041 2-.429 3.403-1.007 4.444-.483-1.538-.715-3.96-.715-5.547 0 0-.034-3.028.354-3.028zm-4.968 27.32a167.831 167.831 0 0 0 1.83-3.348c1.532-2.893 2.498-5.152 3.213-7.01 1.43 2.6 3.213 4.812 5.302 6.581.266.218.545.443.83.667-4.253.837-7.936 1.865-11.175 3.11zm26.836-.238c-.258.157-1 .252-1.476.252-1.539 0-3.451-.7-6.126-1.851a39.327 39.327 0 0 1 2.818-.116c1.545 0 2-.007 3.518.381 1.511.388 1.532 1.171 1.266 1.334z" fill-rule="evenodd" stroke="rgba(0,0,0,0)"/></svg>