<svg xmlns="http://www.w3.org/2000/svg" width="96" height="96"><path d="M19.8 1h32c3.6 0 7.1 1.6 9.6 4.3l18.9 21.3c2.4 2.7 3.7 6.1 3.7 9.7v50.9c0 2.1-.8 4-2.3 5.5-1.5 1.5-3.4 2.3-5.5 2.3H19.8c-2.1 0-4-.8-5.5-2.3-1.5-1.5-2.3-3.4-2.3-5.5V8.8c0-2.1.8-4 2.3-5.5C15.8 1.8 17.7 1 19.8 1zm.2 8h31.8c1.4 0 2.7.6 3.6 1.6l19 21.3c1 1.2 1.6 2.8 1.6 4.3V87H20V9zm24 11c0-1.1.4-2.1 1.2-2.8.7-.8 1.7-1.2 2.8-1.2 1.1 0 2.1.4 2.8 1.2.8.7 1.2 1.7 1.2 2.8v12h12c1.1 0 2.1.4 2.8 1.2.8.7 1.2 1.7 1.2 2.8 0 1.1-.4 2.1-1.2 2.8-.7.8-1.7 1.2-2.8 1.2H52c-2.1 0-4.2-.8-5.7-2.3-1.5-1.5-2.3-3.6-2.3-5.7V20zm13.335 35.171l.507 1.033q.507 1.034.507 3.569t-1.014 4.583q-1.014 2.047-2.613 3.256-3.237 2.496-6.708 2.496h-4.875v4.407q0 .897-.059 1.346-.058.448-.37 1.033-.546 1.053-3.042 1.053-2.73 0-3.198-1.443-.234-.663-.234-2.028V52.831q0-.897.059-1.346.058-.448.37-1.033.546-1.053 3.042-1.053h8.346q3.432 0 6.669 2.496 1.599 1.209 2.613 3.276zm-9.282 8.034q1.17 0 2.301-.858 1.131-.858 1.131-2.574 0-1.716-1.131-2.594-1.131-.877-2.34-.877h-4.875v6.903h4.914z" fill-rule="evenodd" fill="#454545" stroke="rgba(0,0,0,0)" stroke-linecap="square"/></svg>