<svg xmlns="http://www.w3.org/2000/svg" width="96" height="96"><path d="M19.8 1h32c3.6 0 7.1 1.6 9.6 4.3l18.9 21.3c2.4 2.7 3.7 6.1 3.7 9.7v50.9c0 2.1-.8 4-2.3 5.5-1.5 1.5-3.4 2.3-5.5 2.3H19.8c-2.1 0-4-.8-5.5-2.3-1.5-1.5-2.3-3.4-2.3-5.5V8.8c0-2.1.8-4 2.3-5.5C15.8 1.8 17.7 1 19.8 1zm.2 8h31.8c1.4 0 2.7.6 3.6 1.6l19 21.3c1 1.2 1.6 2.8 1.6 4.3V87H20V9zm24 11c0-1.1.4-2.1 1.2-2.8.7-.8 1.7-1.2 2.8-1.2 1.1 0 2.1.4 2.8 1.2.8.7 1.2 1.7 1.2 2.8v12h12c1.1 0 2.1.4 2.8 1.2.8.7 1.2 1.7 1.2 2.8 0 1.1-.4 2.1-1.2 2.8-.7.8-1.7 1.2-2.8 1.2H52c-2.1 0-4.2-.8-5.7-2.3-1.5-1.5-2.3-3.6-2.3-5.7V20zm7.7 43.517l7.838 8.619q1.327 1.482 1.327 2.496t-1.502 2.379q-1.502 1.365-2.535 1.365-1.034 0-2.398-1.56l-7.41-8.502-7.41 8.502q-1.404 1.56-2.399 1.56-.995 0-2.535-1.385-1.54-1.384-1.54-2.359 0-.975 1.364-2.496l7.84-8.619-7.84-8.619q-1.364-1.443-1.364-2.457 0-1.014 1.52-2.399 1.521-1.384 2.555-1.384 1.034 0 2.398 1.56l7.41 8.502 7.41-8.502q1.404-1.56 2.399-1.56.994 0 2.515 1.365 1.521 1.365 1.521 2.418 0 1.053-1.325 2.457l-7.84 8.619z" fill-rule="evenodd" fill="#454545" stroke="rgba(0,0,0,0)" stroke-linecap="square"/></svg>