<svg xmlns="http://www.w3.org/2000/svg" style="isolation:isolate" width="96" height="96"><path d="M76 36v52H20V8h32v20c0 2.1.8 4.2 2.3 5.7 1.5 1.5 3.6 2.3 5.7 2.3h16zm-1.7-8L60 13.7V28h14.3zM12 8v80c0 2.1.8 4.2 2.3 5.7 1.5 1.5 3.6 2.3 5.7 2.3h56c2.1 0 4.2-.8 5.7-2.3 1.5-1.5 2.3-3.6 2.3-5.7V32c0-3.6-1.4-7.1-4-9.7L61.7 4c-2.6-2.6-6.1-4-9.7-4H20c-2.1 0-4.2.8-5.7 2.3C12.8 3.8 12 5.9 12 8zm36 59.6l11.2 11.2c.7.8 1.7 1.2 2.8 1.2 1.1 0 2.1-.4 2.8-1.2.8-.7 1.2-1.7 1.2-2.8 0-1.1-.4-2.1-1.2-2.8L53.6 62l11.2-11.2c.8-.7 1.2-1.7 1.2-2.8 0-1.1-.4-2.1-1.2-2.8-.7-.8-1.7-1.2-2.8-1.2-1.1 0-2.1.4-2.8 1.2L48 56.4 36.8 45.2c-.7-.8-1.7-1.2-2.8-1.2-1.1 0-2.1.4-2.8 1.2-.8.7-1.2 1.7-1.2 2.8 0 1.1.4 2.1 1.2 2.8L42.4 62 31.2 73.2c-.8.7-1.2 1.7-1.2 2.8 0 1.1.4 2.1 1.2 2.8.7.8 1.7 1.2 2.8 1.2 1.1 0 2.1-.4 2.8-1.2L48 67.6z" fill-rule="evenodd" fill="#454545"/></svg>