<svg xmlns="http://www.w3.org/2000/svg" style="isolation:isolate" width="96" height="96"><path d="M76 36v52H20V8h32v20c0 2.1.8 4.2 2.3 5.7 1.5 1.5 3.6 2.3 5.7 2.3h16zm-1.7-8L60 13.7V28h14.3zM12 8v80c0 2.1.8 4.2 2.3 5.7 1.5 1.5 3.6 2.3 5.7 2.3h56c2.1 0 4.2-.8 5.7-2.3 1.5-1.5 2.3-3.6 2.3-5.7V32c0-3.6-1.4-7.1-4-9.7L61.7 4c-2.6-2.6-6.1-4-9.7-4H20c-2.1 0-4.2.8-5.7 2.3C12.8 3.8 12 5.9 12 8zm43.5 57.7L60.1 47c.3-1 .9-1.9 1.8-2.4 1-.6 2-.7 3.1-.5 1 .3 1.9.9 2.4 1.8.6 1 .7 2 .5 3.1L61 76.6c-.2 2.8-2.4 4.9-5.1 5.2-2.6-.2-4.7-2.2-5.1-4.7L48 68.6l-2.8 8.5c-.4 2.5-2.5 4.5-5.1 4.7-2.7-.3-4.9-2.4-5.1-5.2L28.1 49c-.2-1.1-.1-2.1.5-3.1.5-.9 1.4-1.5 2.4-1.8 1.1-.2 2.1-.1 3.1.5.9.5 1.5 1.4 1.8 2.4l4.6 18.7 2.3-6.8c.5-2.6 2.6-4.5 5.2-4.7 2.6.2 4.7 2.1 5.2 4.7l2.3 6.8z" fill-rule="evenodd"/></svg>