<?xml version="1.0" standalone="no"?><!-- Generator: Gravit.io --><svg xmlns="http://www.w3.org/2000/svg" xmlns:xlink="http://www.w3.org/1999/xlink" style="isolation:isolate" width="96" height="96"><path d=" M 76 36 L 76 88 L 20 88 L 20 8 L 20 8 L 52 8 L 52 28 C 52 30.1 52.8 32.2 54.3 33.7 C 55.8 35.2 57.9 36 60 36 L 76 36 Z  M 74.3 28 L 60 13.7 L 60 28 L 74.3 28 Z  M 12 8 L 12 88 C 12 90.1 12.8 92.2 14.3 93.7 C 15.8 95.2 17.9 96 20 96 L 76 96 C 78.1 96 80.2 95.2 81.7 93.7 C 83.2 92.2 84 90.1 84 88 L 84 32 C 84 28.4 82.6 24.9 80 22.3 L 61.7 4 C 59.1 1.4 55.6 0 52 0 L 20 0 C 17.9 0 15.8 0.8 14.3 2.3 C 12.8 3.8 12 5.9 12 8 L 12 8 Z " fill-rule="evenodd" fill="rgb(69,69,69)" stroke="none"/><mask id="_mask_idMJnerBMpoBLy3r15kklUTWEbactMt0"><path d=" M 76 36 L 76 88 L 20 88 L 20 8 L 20 8 L 52 8 L 52 28 C 52 30.1 52.8 32.2 54.3 33.7 C 55.8 35.2 57.9 36 60 36 L 76 36 Z  M 74.3 28 L 60 13.7 L 60 28 L 74.3 28 Z  M 12 8 L 12 88 C 12 90.1 12.8 92.2 14.3 93.7 C 15.8 95.2 17.9 96 20 96 L 76 96 C 78.1 96 80.2 95.2 81.7 93.7 C 83.2 92.2 84 90.1 84 88 L 84 32 C 84 28.4 82.6 24.9 80 22.3 L 61.7 4 C 59.1 1.4 55.6 0 52 0 L 20 0 C 17.9 0 15.8 0.8 14.3 2.3 C 12.8 3.8 12 5.9 12 8 L 12 8 Z " fill-rule="evenodd" fill="white" stroke="none"/></mask><path d=" M 76 36 L 76 88 L 20 88 L 20 8 L 20 8 L 52 8 L 52 28 C 52 30.1 52.8 32.2 54.3 33.7 C 55.8 35.2 57.9 36 60 36 L 76 36 Z  M 74.3 28 L 60 13.7 L 60 28 L 74.3 28 Z  M 12 8 L 12 88 C 12 90.1 12.8 92.2 14.3 93.7 C 15.8 95.2 17.9 96 20 96 L 76 96 C 78.1 96 80.2 95.2 81.7 93.7 C 83.2 92.2 84 90.1 84 88 L 84 32 C 84 28.4 82.6 24.9 80 22.3 L 61.7 4 C 59.1 1.4 55.6 0 52 0 L 20 0 C 17.9 0 15.8 0.8 14.3 2.3 C 12.8 3.8 12 5.9 12 8 L 12 8 Z " fill-rule="evenodd" fill="none" stroke="none" stroke-width="16" mask="url(#_mask_idMJnerBMpoBLy3r15kklUTWEbactMt0)"/></svg>