<?xml version="1.0" standalone="no"?><!-- Generator: Gravit.io --><svg xmlns="http://www.w3.org/2000/svg" xmlns:xlink="http://www.w3.org/1999/xlink" width="96" height="96"><path d=" M 70.19999999999999 44.89052498068887 C 69.69999999999999 46.59052498068887 68.9 48.19052498068887 67.80000000000001 49.59052498068887 C 66.69999999999999 51.09052498068887 65.4 52.29052498068887 63.9 53.39052498068887 C 62.50000000000001 54.29052498068887 61 54.99052498068887 59.300000000000004 55.29052498068887 C 59.2 55.39052498068887 57.9 55.49052498068887 57.800000000000004 55.49052498068887 C 56 55.49052498068887 54.4 54.79052498068887 53.2 53.59052498068887 C 52 52.39052498068887 51.300000000000004 50.69052498068887 51.300000000000004 48.99052498068887 C 51.300000000000004 48.89052498068887 51.4 47.59052498068887 51.4 47.49052498068887 C 52.1 43.89052498068887 52.300000000000004 40.29052498068887 52 36.59052498068887 C 51.800000000000004 33.890524980688866 51.1 31.290524980688872 50 28.89052498068887 C 48.9 26.59052498068887 47.6 24.59052498068887 45.9 22.790524980688872 C 45 21.69052498068887 43.9 20.69052498068887 42.9 19.790524980688872 C 42.9 20.19052498068887 42.9 25.39052498068887 42.6 27.69052498068887 C 42.1 31.49052498068887 40.6 35.09052498068887 38.2 38.09052498068887 C 36.1 40.39052498068887 33.800000000000004 42.49052498068887 31.200000000000003 44.29052498068887 C 28.8 45.99052498068887 26.6 48.09052498068887 24.700000000000003 50.29052498068887 C 22.6 52.99052498068887 21.200000000000003 56.19052498068887 20.6 59.49052498068887 C 20.700000000000003 62.49052498068887 21.1 65.49052498068886 22 68.29052498068887 C 22.6 70.19052498068888 23.5 71.89052498068887 24.700000000000003 73.49052498068886 C 25.900000000000002 74.89052498068887 27.3 76.09052498068888 29 76.89052498068887 C 31.200000000000003 78.09052498068888 33.7 78.89052498068887 36.2 79.19052498068888 C 37.2 79.39052498068887 38.2 79.99052498068886 38.800000000000004 80.79052498068887 C 39.4 81.69052498068888 39.7 82.69052498068888 39.6 83.79052498068887 C 39.4 84.79052498068887 38.800000000000004 85.79052498068887 38 86.39052498068887 C 37.1 86.99052498068886 36.1 87.29052498068887 35 87.19052498068888 C 31.6 86.69052498068888 28.3 85.59052498068888 25.3 83.99052498068886 C 22.700000000000003 82.69052498068888 20.400000000000002 80.79052498068887 18.5 78.49052498068886 C 16.6 76.19052498068888 15.200000000000003 73.49052498068886 14.3 70.59052498068888 C 13.200000000000001 66.79052498068887 12.600000000000001 62.89052498068887 12.600000000000001 58.89052498068887 C 13.400000000000002 53.89052498068887 15.400000000000002 49.19052498068887 18.5 45.29052498068887 C 20.900000000000002 42.39052498068887 23.6 39.89052498068887 26.6 37.79052498068887 C 28.6 36.39052498068887 30.4 34.79052498068887 32.1 32.890524980688866 C 33.5 31.09052498068887 34.4 28.99052498068887 34.6 26.69052498068887 C 34.9 24.790524980688872 35 22.99052498068887 34.9 21.09052498068887 Q 34.9 19.290524980688872 34.300000000000004 14.79052498068887 C 34.1 13.39052498068887 34.5 11.990524980688871 35.4 10.89052498068887 C 36.2 9.79052498068887 37.5 8.990524980688871 38.9 8.79052498068887 C 39.5 8.79052498068887 40.2 8.79052498068887 40.800000000000004 9.09052498068887 Q 42.9 9.89052498068887 43.1 9.990524980688871 C 46.300000000000004 12.09052498068887 49.2 14.59052498068887 51.800000000000004 17.39052498068887 C 54 19.790524980688872 55.9 22.49052498068887 57.2 25.49052498068887 C 58.7 28.790524980688872 59.7 32.29052498068887 60 35.89052498068887 C 60.300000000000004 39.49052498068887 60.2 42.99052498068887 59.7 46.59052498068887 C 60.300000000000004 46.09052498068887 60.9 45.49052498068887 61.4 44.79052498068887 C 62.00000000000001 43.99052498068887 62.4 43.09052498068887 62.6 42.09052498068887 Q 62.800000000000004 40.99052498068887 62.4 37.69052498068887 C 62.00000000000001 35.19052498068887 63.6 32.69052498068887 66.19999999999999 32.19052498068887 C 67.1 31.99052498068887 68.1 32.09052498068887 69 32.59052498068887 Q 71 33.79052498068887 71.30000000000001 33.990524980688875 C 73.69999999999999 36.29052498068887 75.9 38.99052498068887 77.80000000000001 41.89052498068887 C 79.4 44.39052498068887 80.6 47.19052498068887 81.4 50.09052498068887 C 82.6 53.89052498068887 83.30000000000001 57.89052498068887 83.4 61.89052498068887 C 83.30000000000001 67.69052498068888 81.4 73.29052498068887 77.69999999999999 77.69052498068888 C 76.19999999999999 79.59052498068888 74.4 81.19052498068888 72.4 82.39052498068887 C 69.4 84.19052498068888 66.19999999999999 85.79052498068887 63.00000000000001 86.99052498068886 C 62.00000000000001 87.29052498068887 60.9 87.29052498068887 59.9 86.79052498068887 C 58.9 86.39052498068887 58.2 85.59052498068888 57.800000000000004 84.59052498068888 C 57.5 83.59052498068888 57.5 82.49052498068886 58 81.49052498068886 C 58.4 80.49052498068886 59.2 79.79052498068887 60.2 79.39052498068887 C 63.00000000000001 78.39052498068887 65.69999999999999 77.09052498068888 68.19999999999999 75.59052498068888 C 69.4 74.79052498068887 70.6 73.79052498068887 71.5 72.69052498068888 C 74 69.69052498068888 75.30000000000001 65.89052498068887 75.4 61.99052498068887 C 75.30000000000001 58.69052498068887 74.69999999999999 55.49052498068887 73.80000000000001 52.29052498068887 C 73.19999999999999 50.09052498068887 72.19999999999999 48.09052498068887 71 46.19052498068887 C 70.69999999999999 45.69052498068887 70.4 45.29052498068887 70.19999999999999 44.89052498068887 Z " fill="#454545" stroke="none"/><mask id="_mask_Yj8wlIW73obdM0EUili5GqV8rBYc0b3Z"><path d=" M 70.19999999999999 44.89052498068887 C 69.69999999999999 46.59052498068887 68.9 48.19052498068887 67.80000000000001 49.59052498068887 C 66.69999999999999 51.09052498068887 65.4 52.29052498068887 63.9 53.39052498068887 C 62.50000000000001 54.29052498068887 61 54.99052498068887 59.300000000000004 55.29052498068887 C 59.2 55.39052498068887 57.9 55.49052498068887 57.800000000000004 55.49052498068887 C 56 55.49052498068887 54.4 54.79052498068887 53.2 53.59052498068887 C 52 52.39052498068887 51.300000000000004 50.69052498068887 51.300000000000004 48.99052498068887 C 51.300000000000004 48.89052498068887 51.4 47.59052498068887 51.4 47.49052498068887 C 52.1 43.89052498068887 52.300000000000004 40.29052498068887 52 36.59052498068887 C 51.800000000000004 33.890524980688866 51.1 31.290524980688872 50 28.89052498068887 C 48.9 26.59052498068887 47.6 24.59052498068887 45.9 22.790524980688872 C 45 21.69052498068887 43.9 20.69052498068887 42.9 19.790524980688872 C 42.9 20.19052498068887 42.9 25.39052498068887 42.6 27.69052498068887 C 42.1 31.49052498068887 40.6 35.09052498068887 38.2 38.09052498068887 C 36.1 40.39052498068887 33.800000000000004 42.49052498068887 31.200000000000003 44.29052498068887 C 28.8 45.99052498068887 26.6 48.09052498068887 24.700000000000003 50.29052498068887 C 22.6 52.99052498068887 21.200000000000003 56.19052498068887 20.6 59.49052498068887 C 20.700000000000003 62.49052498068887 21.1 65.49052498068886 22 68.29052498068887 C 22.6 70.19052498068888 23.5 71.89052498068887 24.700000000000003 73.49052498068886 C 25.900000000000002 74.89052498068887 27.3 76.09052498068888 29 76.89052498068887 C 31.200000000000003 78.09052498068888 33.7 78.89052498068887 36.2 79.19052498068888 C 37.2 79.39052498068887 38.2 79.99052498068886 38.800000000000004 80.79052498068887 C 39.4 81.69052498068888 39.7 82.69052498068888 39.6 83.79052498068887 C 39.4 84.79052498068887 38.800000000000004 85.79052498068887 38 86.39052498068887 C 37.1 86.99052498068886 36.1 87.29052498068887 35 87.19052498068888 C 31.6 86.69052498068888 28.3 85.59052498068888 25.3 83.99052498068886 C 22.700000000000003 82.69052498068888 20.400000000000002 80.79052498068887 18.5 78.49052498068886 C 16.6 76.19052498068888 15.200000000000003 73.49052498068886 14.3 70.59052498068888 C 13.200000000000001 66.79052498068887 12.600000000000001 62.89052498068887 12.600000000000001 58.89052498068887 C 13.400000000000002 53.89052498068887 15.400000000000002 49.19052498068887 18.5 45.29052498068887 C 20.900000000000002 42.39052498068887 23.6 39.89052498068887 26.6 37.79052498068887 C 28.6 36.39052498068887 30.4 34.79052498068887 32.1 32.890524980688866 C 33.5 31.09052498068887 34.4 28.99052498068887 34.6 26.69052498068887 C 34.9 24.790524980688872 35 22.99052498068887 34.9 21.09052498068887 Q 34.9 19.290524980688872 34.300000000000004 14.79052498068887 C 34.1 13.39052498068887 34.5 11.990524980688871 35.4 10.89052498068887 C 36.2 9.79052498068887 37.5 8.990524980688871 38.9 8.79052498068887 C 39.5 8.79052498068887 40.2 8.79052498068887 40.800000000000004 9.09052498068887 Q 42.9 9.89052498068887 43.1 9.990524980688871 C 46.300000000000004 12.09052498068887 49.2 14.59052498068887 51.800000000000004 17.39052498068887 C 54 19.790524980688872 55.9 22.49052498068887 57.2 25.49052498068887 C 58.7 28.790524980688872 59.7 32.29052498068887 60 35.89052498068887 C 60.300000000000004 39.49052498068887 60.2 42.99052498068887 59.7 46.59052498068887 C 60.300000000000004 46.09052498068887 60.9 45.49052498068887 61.4 44.79052498068887 C 62.00000000000001 43.99052498068887 62.4 43.09052498068887 62.6 42.09052498068887 Q 62.800000000000004 40.99052498068887 62.4 37.69052498068887 C 62.00000000000001 35.19052498068887 63.6 32.69052498068887 66.19999999999999 32.19052498068887 C 67.1 31.99052498068887 68.1 32.09052498068887 69 32.59052498068887 Q 71 33.79052498068887 71.30000000000001 33.990524980688875 C 73.69999999999999 36.29052498068887 75.9 38.99052498068887 77.80000000000001 41.89052498068887 C 79.4 44.39052498068887 80.6 47.19052498068887 81.4 50.09052498068887 C 82.6 53.89052498068887 83.30000000000001 57.89052498068887 83.4 61.89052498068887 C 83.30000000000001 67.69052498068888 81.4 73.29052498068887 77.69999999999999 77.69052498068888 C 76.19999999999999 79.59052498068888 74.4 81.19052498068888 72.4 82.39052498068887 C 69.4 84.19052498068888 66.19999999999999 85.79052498068887 63.00000000000001 86.99052498068886 C 62.00000000000001 87.29052498068887 60.9 87.29052498068887 59.9 86.79052498068887 C 58.9 86.39052498068887 58.2 85.59052498068888 57.800000000000004 84.59052498068888 C 57.5 83.59052498068888 57.5 82.49052498068886 58 81.49052498068886 C 58.4 80.49052498068886 59.2 79.79052498068887 60.2 79.39052498068887 C 63.00000000000001 78.39052498068887 65.69999999999999 77.09052498068888 68.19999999999999 75.59052498068888 C 69.4 74.79052498068887 70.6 73.79052498068887 71.5 72.69052498068888 C 74 69.69052498068888 75.30000000000001 65.89052498068887 75.4 61.99052498068887 C 75.30000000000001 58.69052498068887 74.69999999999999 55.49052498068887 73.80000000000001 52.29052498068887 C 73.19999999999999 50.09052498068887 72.19999999999999 48.09052498068887 71 46.19052498068887 C 70.69999999999999 45.69052498068887 70.4 45.29052498068887 70.19999999999999 44.89052498068887 Z " fill="white" stroke="none"/></mask><path d=" M 70.19999999999999 44.89052498068887 C 69.69999999999999 46.59052498068887 68.9 48.19052498068887 67.80000000000001 49.59052498068887 C 66.69999999999999 51.09052498068887 65.4 52.29052498068887 63.9 53.39052498068887 C 62.50000000000001 54.29052498068887 61 54.99052498068887 59.300000000000004 55.29052498068887 C 59.2 55.39052498068887 57.9 55.49052498068887 57.800000000000004 55.49052498068887 C 56 55.49052498068887 54.4 54.79052498068887 53.2 53.59052498068887 C 52 52.39052498068887 51.300000000000004 50.69052498068887 51.300000000000004 48.99052498068887 C 51.300000000000004 48.89052498068887 51.4 47.59052498068887 51.4 47.49052498068887 C 52.1 43.89052498068887 52.300000000000004 40.29052498068887 52 36.59052498068887 C 51.800000000000004 33.890524980688866 51.1 31.290524980688872 50 28.89052498068887 C 48.9 26.59052498068887 47.6 24.59052498068887 45.9 22.790524980688872 C 45 21.69052498068887 43.9 20.69052498068887 42.9 19.790524980688872 C 42.9 20.19052498068887 42.9 25.39052498068887 42.6 27.69052498068887 C 42.1 31.49052498068887 40.6 35.09052498068887 38.2 38.09052498068887 C 36.1 40.39052498068887 33.800000000000004 42.49052498068887 31.200000000000003 44.29052498068887 C 28.8 45.99052498068887 26.6 48.09052498068887 24.700000000000003 50.29052498068887 C 22.6 52.99052498068887 21.200000000000003 56.19052498068887 20.6 59.49052498068887 C 20.700000000000003 62.49052498068887 21.1 65.49052498068886 22 68.29052498068887 C 22.6 70.19052498068888 23.5 71.89052498068887 24.700000000000003 73.49052498068886 C 25.900000000000002 74.89052498068887 27.3 76.09052498068888 29 76.89052498068887 C 31.200000000000003 78.09052498068888 33.7 78.89052498068887 36.2 79.19052498068888 C 37.2 79.39052498068887 38.2 79.99052498068886 38.800000000000004 80.79052498068887 C 39.4 81.69052498068888 39.7 82.69052498068888 39.6 83.79052498068887 C 39.4 84.79052498068887 38.800000000000004 85.79052498068887 38 86.39052498068887 C 37.1 86.99052498068886 36.1 87.29052498068887 35 87.19052498068888 C 31.6 86.69052498068888 28.3 85.59052498068888 25.3 83.99052498068886 C 22.700000000000003 82.69052498068888 20.400000000000002 80.79052498068887 18.5 78.49052498068886 C 16.6 76.19052498068888 15.200000000000003 73.49052498068886 14.3 70.59052498068888 C 13.200000000000001 66.79052498068887 12.600000000000001 62.89052498068887 12.600000000000001 58.89052498068887 C 13.400000000000002 53.89052498068887 15.400000000000002 49.19052498068887 18.5 45.29052498068887 C 20.900000000000002 42.39052498068887 23.6 39.89052498068887 26.6 37.79052498068887 C 28.6 36.39052498068887 30.4 34.79052498068887 32.1 32.890524980688866 C 33.5 31.09052498068887 34.4 28.99052498068887 34.6 26.69052498068887 C 34.9 24.790524980688872 35 22.99052498068887 34.9 21.09052498068887 Q 34.9 19.290524980688872 34.300000000000004 14.79052498068887 C 34.1 13.39052498068887 34.5 11.990524980688871 35.4 10.89052498068887 C 36.2 9.79052498068887 37.5 8.990524980688871 38.9 8.79052498068887 C 39.5 8.79052498068887 40.2 8.79052498068887 40.800000000000004 9.09052498068887 Q 42.9 9.89052498068887 43.1 9.990524980688871 C 46.300000000000004 12.09052498068887 49.2 14.59052498068887 51.800000000000004 17.39052498068887 C 54 19.790524980688872 55.9 22.49052498068887 57.2 25.49052498068887 C 58.7 28.790524980688872 59.7 32.29052498068887 60 35.89052498068887 C 60.300000000000004 39.49052498068887 60.2 42.99052498068887 59.7 46.59052498068887 C 60.300000000000004 46.09052498068887 60.9 45.49052498068887 61.4 44.79052498068887 C 62.00000000000001 43.99052498068887 62.4 43.09052498068887 62.6 42.09052498068887 Q 62.800000000000004 40.99052498068887 62.4 37.69052498068887 C 62.00000000000001 35.19052498068887 63.6 32.69052498068887 66.19999999999999 32.19052498068887 C 67.1 31.99052498068887 68.1 32.09052498068887 69 32.59052498068887 Q 71 33.79052498068887 71.30000000000001 33.990524980688875 C 73.69999999999999 36.29052498068887 75.9 38.99052498068887 77.80000000000001 41.89052498068887 C 79.4 44.39052498068887 80.6 47.19052498068887 81.4 50.09052498068887 C 82.6 53.89052498068887 83.30000000000001 57.89052498068887 83.4 61.89052498068887 C 83.30000000000001 67.69052498068888 81.4 73.29052498068887 77.69999999999999 77.69052498068888 C 76.19999999999999 79.59052498068888 74.4 81.19052498068888 72.4 82.39052498068887 C 69.4 84.19052498068888 66.19999999999999 85.79052498068887 63.00000000000001 86.99052498068886 C 62.00000000000001 87.29052498068887 60.9 87.29052498068887 59.9 86.79052498068887 C 58.9 86.39052498068887 58.2 85.59052498068888 57.800000000000004 84.59052498068888 C 57.5 83.59052498068888 57.5 82.49052498068886 58 81.49052498068886 C 58.4 80.49052498068886 59.2 79.79052498068887 60.2 79.39052498068887 C 63.00000000000001 78.39052498068887 65.69999999999999 77.09052498068888 68.19999999999999 75.59052498068888 C 69.4 74.79052498068887 70.6 73.79052498068887 71.5 72.69052498068888 C 74 69.69052498068888 75.30000000000001 65.89052498068887 75.4 61.99052498068887 C 75.30000000000001 58.69052498068887 74.69999999999999 55.49052498068887 73.80000000000001 52.29052498068887 C 73.19999999999999 50.09052498068887 72.19999999999999 48.09052498068887 71 46.19052498068887 C 70.69999999999999 45.69052498068887 70.4 45.29052498068887 70.19999999999999 44.89052498068887 Z " fill="none" stroke="none" stroke-width="16" mask="url(#_mask_Yj8wlIW73obdM0EUili5GqV8rBYc0b3Z)"/></svg>