<svg xmlns="http://www.w3.org/2000/svg" style="isolation:isolate" width="96" height="96"><path d="M14.207 62.173L34.43 82.396l.07-9.687q.769-3.21 2.193-4.597c1.863-1.814 4.1-2.404 6.364-1.98 7.07 1.132 14.283 1.132 21.354-.141 4.03-.778 7.85-2.475 10.96-5.162l1.273-1.131a35.484 35.484 0 0 0 8.768-24.466c.142-4.243-.353-8.556-1.343-12.657a14.284 14.284 0 0 0-3.182-6.86c-1.91-1.626-4.243-2.686-6.718-3.181-4.242-.99-8.556-1.485-12.798-1.344a35.484 35.484 0 0 0-24.466 8.768l-1.132 1.273c-2.687 3.111-4.384 6.93-5.161 10.96-1.273 7.071-1.273 14.284-.142 21.355.424 2.263-.165 4.5-1.98 6.364q-1.386 1.424-4.596 2.192l-9.687.07zm8.202-8.061H9.984c-1.104 0-2.875.195-3.952.435q-1.604.358-2.715 2.11-1.582 2.496.428 5.727c.584.937 1.69 2.332 2.471 3.112l24.89 24.89c.781.78 2.176 1.888 3.113 2.471q3.23 2.01 5.726.428 1.752-1.11 2.11-2.715c.24-1.077.436-2.848.436-3.952V74.193c7.778 1.132 15.556.99 23.264-.353 5.515-.99 10.606-3.394 14.92-7 0 0 1.767-1.627 1.838-1.698 7.283-8.273 11.172-18.95 10.819-29.91a49.108 49.108 0 0 0-1.485-14.354c-.778-4.03-2.546-7.779-5.303-10.82-3.04-2.757-6.86-4.595-10.89-5.373-4.667-1.132-9.404-1.626-14.283-1.414-10.96-.354-21.638 3.535-29.91 10.818-.072.071-1.698 1.839-1.698 1.839-3.606 4.313-6.01 9.404-7 14.92-1.344 7.707-1.485 15.485-.354 23.264zm41.507-32.74a4.002 4.002 0 0 1 5.657 0 4.002 4.002 0 0 1 0 5.657 4.002 4.002 0 0 1-5.657 0 4.002 4.002 0 0 1 0-5.656z" fill-rule="evenodd" stroke="rgba(0,0,0,0)" stroke-linecap="square"/></svg>