<svg xmlns="http://www.w3.org/2000/svg" width="96" height="96"><path d="M8 12c0-1.1.4-2.1 1.2-2.8C9.9 8.4 10.9 8 12 8c1.1 0 2.1.4 2.8 1.2.8.7 1.2 1.7 1.2 2.8v72c0 1.1-.4 2.1-1.2 2.8-.7.8-1.7 1.2-2.8 1.2-1.1 0-2.1-.4-2.8-1.2C8.4 86.1 8 85.1 8 84V12zm18.9 5.9c-1-.3-1.8-1-2.4-1.9-.5-.9-.6-2-.4-3.1.3-1 1-1.8 1.9-2.4.9-.5 2-.6 3.1-.4 3 .9 6.1 1.6 9.3 2.2 1.9.3 3.8.6 5.8.7l1.6.1c3.1-.2 6.1-.6 9.1-1.5 3.7-1 7.4-1.5 11.2-1.7h.2l1.8.1h.1c2.3.1 4.6.4 6.8.8 2.1.3 4.2.7 6.2 1.3 4 1.1 6.8 4.7 6.8 8.9v31.9c0 1.9-.6 3.7-1.9 5-1.3 1.3-3 2.1-4.8 2.2-.3 0-.5 0-.7-.1l-1-.1c-.2 0-.3-.1-.5-.1-1.8-.5-3.6-.9-5.4-1.2-1.9-.3-3.9-.5-5.9-.6l-1.6-.1c-3.1.2-6.1.6-9.1 1.5-3.7 1-7.4 1.5-11.2 1.7h-.2l-1.8-.1h-.1c-2.3-.1-4.6-.4-6.9-.9-3.4-.6-6.7-1.3-10-2.2-1-.3-1.8-1-2.4-1.9-.5-.9-.6-2-.4-3.1.3-1 1-1.8 1.9-2.4.9-.5 2-.6 3.1-.4 3 .9 6.1 1.6 9.3 2.2 1.9.3 3.8.6 5.8.7l1.6.1c3.1-.2 6.1-.6 9.1-1.5 3.7-1 7.4-1.5 11.2-1.7h.2l1.8.1h.1c2.3.1 4.6.4 6.8.8 1.7.2 3.4.6 5 1V21c0-.6-.4-1-.9-1.2-1.8-.5-3.6-.9-5.4-1.2-1.9-.3-3.9-.5-5.9-.6l-1.6-.1c-3.1.2-6.1.6-9.1 1.5-3.7 1-7.4 1.5-11.2 1.7h-.2l-1.8-.1h-.1c-2.3-.1-4.6-.4-6.9-.9-3.4-.6-6.7-1.3-10-2.2z" fill-rule="evenodd"/></svg>