<?xml version="1.0" standalone="no"?><!-- Generator: Gravit.io --><svg xmlns="http://www.w3.org/2000/svg" xmlns:xlink="http://www.w3.org/1999/xlink" width="96" height="96"><path d=" M 20 16 L 32 16 C 36 16 39.6 18.2 41.4 21.8 L 41.8 22.6 C 42.2 23.5 43.1 24 44 24 L 76 24 C 78.1 24 80.2 24.8 81.7 26.3 C 83.2 27.8 84 29.9 84 32 L 84 72 C 84 74.1 83.2 76.2 81.7 77.7 C 80.2 79.2 78.1 80 76 80 L 20 80 C 17.9 80 15.8 79.2 14.3 77.7 C 12.8 76.2 12 74.1 12 72 L 12 24 C 12 21.9 12.8 19.8 14.3 18.3 C 15.8 16.8 17.9 16 20 16 Z  M 20 24 L 32 24 C 32.9 24 33.8 24.5 34.2 25.4 L 34.6 26.2 C 36.4 29.8 40 32 44 32 L 76 32 L 76 72 L 20 72 L 20 24 Z " fill-rule="evenodd" fill="#454545" stroke="none"/><mask id="_mask_VxVo8Tj3yvucjg7FwZyGaBwq6ehQJaeL"><path d=" M 20 16 L 32 16 C 36 16 39.6 18.2 41.4 21.8 L 41.8 22.6 C 42.2 23.5 43.1 24 44 24 L 76 24 C 78.1 24 80.2 24.8 81.7 26.3 C 83.2 27.8 84 29.9 84 32 L 84 72 C 84 74.1 83.2 76.2 81.7 77.7 C 80.2 79.2 78.1 80 76 80 L 20 80 C 17.9 80 15.8 79.2 14.3 77.7 C 12.8 76.2 12 74.1 12 72 L 12 24 C 12 21.9 12.8 19.8 14.3 18.3 C 15.8 16.8 17.9 16 20 16 Z  M 20 24 L 32 24 C 32.9 24 33.8 24.5 34.2 25.4 L 34.6 26.2 C 36.4 29.8 40 32 44 32 L 76 32 L 76 72 L 20 72 L 20 24 Z " fill-rule="evenodd" fill="white" stroke="none"/></mask><path d=" M 20 16 L 32 16 C 36 16 39.6 18.2 41.4 21.8 L 41.8 22.6 C 42.2 23.5 43.1 24 44 24 L 76 24 C 78.1 24 80.2 24.8 81.7 26.3 C 83.2 27.8 84 29.9 84 32 L 84 72 C 84 74.1 83.2 76.2 81.7 77.7 C 80.2 79.2 78.1 80 76 80 L 20 80 C 17.9 80 15.8 79.2 14.3 77.7 C 12.8 76.2 12 74.1 12 72 L 12 24 C 12 21.9 12.8 19.8 14.3 18.3 C 15.8 16.8 17.9 16 20 16 Z  M 20 24 L 32 24 C 32.9 24 33.8 24.5 34.2 25.4 L 34.6 26.2 C 36.4 29.8 40 32 44 32 L 76 32 L 76 72 L 20 72 L 20 24 Z " fill-rule="evenodd" fill="none" stroke="none" stroke-width="16" mask="url(#_mask_VxVo8Tj3yvucjg7FwZyGaBwq6ehQJaeL)"/></svg>