<svg xmlns="http://www.w3.org/2000/svg" style="isolation:isolate" width="96" height="96"><path d="M13.762 48L12 19.9c0-3.2 1.3-6.2 3.6-8.4C17.8 9.2 20.8 8 24 8s6.2 1.2 8.4 3.5c2.3 2.2 3.6 5.2 3.6 8.4L34.238 48H13.762zm.645 8c.339 2.01.877 3.99 1.593 5.9.4 1.1 1.2 2.1 2.2 2.8 1.7 1.2 3.7 1.8 5.8 1.9 2.1-.1 4.1-.7 5.8-1.9 1-.7 1.8-1.7 2.2-2.8a31.964 31.964 0 0 0 1.593-5.9H14.407zM24 0C18.7 0 13.6 2.1 9.9 5.9 6.1 9.6 4 14.7 4 20v.2l2 32c.2 4.3 1 8.5 2.5 12.5 1 2.7 2.9 5 5.3 6.6 3 2.1 6.5 3.2 10.2 3.3 3.7-.1 7.2-1.2 10.2-3.3 2.4-1.6 4.3-3.9 5.3-6.6 1.5-4 2.3-8.2 2.5-12.5l2-32V20c0-5.3-2.1-10.4-5.9-14.1C34.4 2.1 29.3 0 24 0zm33.762 69.4L56 41.3c0-3.2 1.3-6.2 3.6-8.4 2.2-2.3 5.2-3.5 8.4-3.5s6.2 1.2 8.4 3.5c2.3 2.2 3.6 5.2 3.6 8.4l-1.762 28.1H57.762zm.645 8c.339 2.01.877 3.99 1.593 5.9.4 1.1 1.2 2.1 2.2 2.8 1.7 1.2 3.7 1.8 5.8 1.9 2.1-.1 4.1-.7 5.8-1.9 1-.7 1.8-1.7 2.2-2.8a31.964 31.964 0 0 0 1.593-5.9H58.407zM68 21.4c-5.3 0-10.4 2.1-14.1 5.9C50.1 31 48 36.1 48 41.4v.2l2 32c.2 4.3 1 8.5 2.5 12.5 1 2.7 2.9 5 5.3 6.6 3 2.1 6.5 3.2 10.2 3.3 3.7-.1 7.2-1.2 10.2-3.3 2.4-1.6 4.3-3.9 5.3-6.6 1.5-4 2.3-8.2 2.5-12.5l2-32v-.2c0-5.3-2.1-10.4-5.9-14.1-3.7-3.8-8.8-5.9-14.1-5.9z" fill-rule="evenodd"/></svg>