<?xml version="1.0" standalone="no"?><!-- Generator: Gravit.io --><svg xmlns="http://www.w3.org/2000/svg" xmlns:xlink="http://www.w3.org/1999/xlink" width="96" height="96"><path d=" M 12 53 C 12 54.1 11.6 55.1 10.8 55.8 C 10.1 56.6 9.1 57 8 57 C 6.9 57 5.9 56.6 5.2 55.8 C 4.4 55.1 4 54.1 4 53 C 4 41.3 8.6 30.1 16.9 21.9 C 25.1 13.6 36.3 9 48 9 C 59.7 9 70.9 13.6 79.1 21.9 C 87.4 30.1 92 41.3 92 53 C 92 54.1 91.6 55.1 90.8 55.8 C 90.1 56.6 89.1 57 88 57 C 86.9 57 85.9 56.6 85.2 55.8 C 84.4 55.1 84 54.1 84 53 C 84 43.5 80.2 34.3 73.5 27.5 C 66.7 20.8 57.5 17 48 17 C 38.5 17 29.3 20.8 22.5 27.5 C 15.8 34.3 12 43.5 12 53 Z  M 44 51.44693885187 C 40.70187459326953 52.194787178810735 37.66662978866521 53.86165415713281 35.3 56.3 C 31.9 59.6 30 64.2 30 69 L 30 69 C 30 73.8 31.9 78.4 35.3 81.7 C 38.6 85.1 43.2 87 48 87 C 52.8 87 57.4 85.1 60.7 81.7 C 64.1 78.4 66 73.8 66 69 C 66 64.2 64.1 59.6 60.7 56.3 C 58.333370211334795 53.86165415713282 55.29812540673049 52.19478717881075 52 51.44693885187 L 52 38 C 52 35.79233992 50.20766008 34 48 34 C 45.79233992 34 44 35.79233992 44 38 L 44 51.44693885187 Z  M 38 69 C 38 71.7 39.1 74.2 40.9 76.1 C 42.8 77.9 45.3 79 48 79 C 50.7 79 53.2 77.9 55.1 76.1 C 56.9 74.2 58 71.7 58 69 C 58 66.3 56.9 63.8 55.1 61.9 C 53.2 60.1 50.7 59 48 59 C 45.3 59 42.8 60.1 40.9 61.9 C 39.1 63.8 38 66.3 38 69 L 38 69 Z " fill-rule="evenodd" fill="#454545" stroke="none"/><mask id="_mask_Ax4c8ctcJu91w0d2YeiqL6ADQ3Kce4yM"><path d=" M 12 53 C 12 54.1 11.6 55.1 10.8 55.8 C 10.1 56.6 9.1 57 8 57 C 6.9 57 5.9 56.6 5.2 55.8 C 4.4 55.1 4 54.1 4 53 C 4 41.3 8.6 30.1 16.9 21.9 C 25.1 13.6 36.3 9 48 9 C 59.7 9 70.9 13.6 79.1 21.9 C 87.4 30.1 92 41.3 92 53 C 92 54.1 91.6 55.1 90.8 55.8 C 90.1 56.6 89.1 57 88 57 C 86.9 57 85.9 56.6 85.2 55.8 C 84.4 55.1 84 54.1 84 53 C 84 43.5 80.2 34.3 73.5 27.5 C 66.7 20.8 57.5 17 48 17 C 38.5 17 29.3 20.8 22.5 27.5 C 15.8 34.3 12 43.5 12 53 Z  M 44 51.44693885187 C 40.70187459326953 52.194787178810735 37.66662978866521 53.86165415713281 35.3 56.3 C 31.9 59.6 30 64.2 30 69 L 30 69 C 30 73.8 31.9 78.4 35.3 81.7 C 38.6 85.1 43.2 87 48 87 C 52.8 87 57.4 85.1 60.7 81.7 C 64.1 78.4 66 73.8 66 69 C 66 64.2 64.1 59.6 60.7 56.3 C 58.333370211334795 53.86165415713282 55.29812540673049 52.19478717881075 52 51.44693885187 L 52 38 C 52 35.79233992 50.20766008 34 48 34 C 45.79233992 34 44 35.79233992 44 38 L 44 51.44693885187 Z  M 38 69 C 38 71.7 39.1 74.2 40.9 76.1 C 42.8 77.9 45.3 79 48 79 C 50.7 79 53.2 77.9 55.1 76.1 C 56.9 74.2 58 71.7 58 69 C 58 66.3 56.9 63.8 55.1 61.9 C 53.2 60.1 50.7 59 48 59 C 45.3 59 42.8 60.1 40.9 61.9 C 39.1 63.8 38 66.3 38 69 L 38 69 Z " fill-rule="evenodd" fill="white" stroke="none"/></mask><path d=" M 12 53 C 12 54.1 11.6 55.1 10.8 55.8 C 10.1 56.6 9.1 57 8 57 C 6.9 57 5.9 56.6 5.2 55.8 C 4.4 55.1 4 54.1 4 53 C 4 41.3 8.6 30.1 16.9 21.9 C 25.1 13.6 36.3 9 48 9 C 59.7 9 70.9 13.6 79.1 21.9 C 87.4 30.1 92 41.3 92 53 C 92 54.1 91.6 55.1 90.8 55.8 C 90.1 56.6 89.1 57 88 57 C 86.9 57 85.9 56.6 85.2 55.8 C 84.4 55.1 84 54.1 84 53 C 84 43.5 80.2 34.3 73.5 27.5 C 66.7 20.8 57.5 17 48 17 C 38.5 17 29.3 20.8 22.5 27.5 C 15.8 34.3 12 43.5 12 53 Z  M 44 51.44693885187 C 40.70187459326953 52.194787178810735 37.66662978866521 53.86165415713281 35.3 56.3 C 31.9 59.6 30 64.2 30 69 L 30 69 C 30 73.8 31.9 78.4 35.3 81.7 C 38.6 85.1 43.2 87 48 87 C 52.8 87 57.4 85.1 60.7 81.7 C 64.1 78.4 66 73.8 66 69 C 66 64.2 64.1 59.6 60.7 56.3 C 58.333370211334795 53.86165415713282 55.29812540673049 52.19478717881075 52 51.44693885187 L 52 38 C 52 35.79233992 50.20766008 34 48 34 C 45.79233992 34 44 35.79233992 44 38 L 44 51.44693885187 Z  M 38 69 C 38 71.7 39.1 74.2 40.9 76.1 C 42.8 77.9 45.3 79 48 79 C 50.7 79 53.2 77.9 55.1 76.1 C 56.9 74.2 58 71.7 58 69 C 58 66.3 56.9 63.8 55.1 61.9 C 53.2 60.1 50.7 59 48 59 C 45.3 59 42.8 60.1 40.9 61.9 C 39.1 63.8 38 66.3 38 69 L 38 69 Z " fill-rule="evenodd" fill="none" stroke="none" stroke-width="16" mask="url(#_mask_Ax4c8ctcJu91w0d2YeiqL6ADQ3Kce4yM)"/></svg>