<svg xmlns="http://www.w3.org/2000/svg" width="96" height="96"><path d="M12 53c0 1.1-.4 2.1-1.2 2.8-.7.8-1.7 1.2-2.8 1.2-1.1 0-2.1-.4-2.8-1.2C4.4 55.1 4 54.1 4 53c0-11.7 4.6-22.9 12.9-31.1C25.1 13.6 36.3 9 48 9c11.7 0 22.9 4.6 31.1 12.9C87.4 30.1 92 41.3 92 53c0 1.1-.4 2.1-1.2 2.8-.7.8-1.7 1.2-2.8 1.2-1.1 0-2.1-.4-2.8-1.2-.8-.7-1.2-1.7-1.2-2.8 0-9.5-3.8-18.7-10.5-25.5C66.7 20.8 57.5 17 48 17s-18.7 3.8-25.5 10.5C15.8 34.3 12 43.5 12 53zm32-1.553c-3.298.748-6.333 2.415-8.7 4.853C31.9 59.6 30 64.2 30 69c0 4.8 1.9 9.4 5.3 12.7C38.6 85.1 43.2 87 48 87c4.8 0 9.4-1.9 12.7-5.3C64.1 78.4 66 73.8 66 69c0-4.8-1.9-9.4-5.3-12.7-2.367-2.438-5.402-4.105-8.7-4.853V38c0-2.208-1.792-4-4-4s-4 1.792-4 4v13.447zM38 69c0 2.7 1.1 5.2 2.9 7.1 1.9 1.8 4.4 2.9 7.1 2.9 2.7 0 5.2-1.1 7.1-2.9 1.8-1.9 2.9-4.4 2.9-7.1 0-2.7-1.1-5.2-2.9-7.1-1.9-1.8-4.4-2.9-7.1-2.9-2.7 0-5.2 1.1-7.1 2.9-1.8 1.9-2.9 4.4-2.9 7.1z" fill-rule="evenodd" fill="#454545"/></svg>