<svg xmlns="http://www.w3.org/2000/svg" width="96" height="96"><path d="M18.595 27.217c.22.402.36.842.405 1.283.6 5.7 1.9 11.4 3.7 16.8 1 3 2.5 5.8 4.4 8.2 1.6 2 3.4 3.8 5.4 5.3 2.4 1.9 5 3.5 7.7 4.9 3.3 1.6 5.4 5.1 5.4 8.8v.2l-.1.6-1.194 10.508c1.223.127 2.456.192 3.694.192 8.168 0 16.114-2.81 22.504-7.855L68 73.7c-1.4-1.5-3.2-2.5-5.1-3.2l-4.4-1.4c-3.4-1.2-6.3-3.7-7.9-6.9-1.4-3-2-6.3-1.5-9.6.4-3 2-5.7 4.4-7.7 2-1.7 4.2-3.2 6.5-4.4 2.2-1.3 4.5-2.3 7-3.1 1.4-.4 2.5-1.4 3.2-2.8l5.08-10.159A36.482 36.482 0 0 0 73.5 22.5a34.884 34.884 0 0 0-5.954-4.721 4.002 4.002 0 0 1-.246.421L53.7 38.7c-1.1 1.9-3.1 3.2-5.3 3.2-2.7-.2-5-2.3-5.4-5l-1.8-7c-.6-2.1-1.5-4-2.8-5.7l-6.355-8.473A36.588 36.588 0 0 0 22.5 22.5a34.948 34.948 0 0 0-3.905 4.717zm17.803 54.857L37.5 72.6l.1-.3c-.1-.6-.4-1.2-1-1.5-3.2-1.6-6.2-3.5-9-5.7-2.5-1.9-4.8-4.1-6.7-6.6-2.6-3.2-4.5-6.8-5.8-10.7a85.263 85.263 0 0 1-2.207-7.661A34.783 34.783 0 0 0 12 48c0 9.5 3.8 18.7 10.5 25.5a36.603 36.603 0 0 0 13.898 8.574zm46.711-60.6c.109.114.203.24.28.375C88.972 29.343 92 38.507 92 48c0 11.7-4.6 22.9-12.9 31.1C70.9 87.4 59.7 92 48 92c-11.7 0-22.9-4.6-31.1-12.9C8.6 70.9 4 59.7 4 48c0-11.7 4.6-22.9 12.9-31.1C25.1 8.6 36.3 4 48 4c11.7 0 22.9 4.6 31.1 12.9a42.068 42.068 0 0 1 4.01 4.574zm-2.735 10.778L77.4 38.2c-1.7 3.3-4.5 5.7-8 6.8-1.9.7-3.7 1.5-5.5 2.5-1.9 1-3.7 2.2-5.4 3.6-.8.7-1.3 1.6-1.5 2.7-.2 1.6.1 3.3.8 4.8.7 1.4 1.8 2.4 3.3 2.9l4.4 1.4c3.1 1.1 5.9 2.8 8.2 5.1l2.445 2.504C81.19 64.114 84 56.168 84 48a36.209 36.209 0 0 0-3.626-15.748zM39.94 12.919A35.916 35.916 0 0 1 48 12c4.264 0 8.468.766 12.422 2.216L49.6 30.4l-.7-2.6c-.8-3-2.2-5.9-4.1-8.4l-4.86-6.481z" fill-rule="evenodd"/></svg>