<?xml version="1.0" standalone="no"?><!-- Generator: Gravit.io --><svg xmlns="http://www.w3.org/2000/svg" xmlns:xlink="http://www.w3.org/1999/xlink" width="96" height="96"><path d=" M 18.59520374468 27.21677784802 C 18.814850896811755 27.61890951704965 18.95594547585248 28.059454758524826 19 28.5 C 19.6 34.2 20.9 39.9 22.7 45.3 C 23.7 48.3 25.2 51.1 27.1 53.5 C 28.7 55.5 30.5 57.3 32.5 58.8 C 34.9 60.7 37.5 62.3 40.2 63.7 C 43.5 65.3 45.6 68.8 45.6 72.5 C 45.6 72.5 45.6 72.6 45.6 72.7 L 45.5 73.3 L 44.3058650325 83.80838771397 C 45.5290500719381 83.93546528713755 46.7619776130929 84 48 84 C 56.16809325102655 84 64.1144100565435 81.190831690212 70.50416780449 76.14454476152 L 70.50416780449 76.14454476152 L 68 73.7 C 66.6 72.2 64.8 71.2 62.9 70.5 L 58.5 69.1 C 55.1 67.9 52.2 65.4 50.6 62.2 C 49.2 59.2 48.6 55.9 49.1 52.6 C 49.5 49.6 51.1 46.9 53.5 44.9 C 55.5 43.2 57.7 41.7 60 40.5 C 62.2 39.2 64.5 38.2 67 37.4 C 68.4 37 69.5 36 70.2 34.6 L 75.2793278684 24.44134426319 C 74.7113642325609 23.7749078056985 74.11801949056286 23.127243662063805 73.5 22.5 C 71.67850886519022 20.70529549952566 69.68481202341553 19.118672894967254 67.54640669469 17.77884660011 C 67.47451178570402 17.92179123071728 67.39195334734535 18.062069978981974 67.3 18.2 L 53.7 38.7 C 52.6 40.6 50.6 41.9 48.4 41.9 C 45.7 41.7 43.4 39.6 43 36.9 L 41.2 29.9 C 40.6 27.8 39.7 25.9 38.4 24.2 L 32.04493536696 15.72658048927 C 28.5505642004264 17.4432305841583 25.31904473322549 19.722411806969003 22.5 22.5 C 21.05633234628693 23.9652149321267 19.747307402613835 25.541858313941653 18.59520374468 27.21677784802 Z  M 36.39835735418 82.07412675408 L 37.5 72.6 L 37.6 72.3 C 37.5 71.7 37.2 71.1 36.6 70.8 C 33.4 69.2 30.4 67.3 27.6 65.1 C 25.1 63.2 22.8 61 20.9 58.5 C 18.3 55.3 16.4 51.7 15.1 47.8 C 14.250280448717948 45.293327323717946 13.508864394810542 42.73250289874858 12.89276592548 40.1385141226 C 12.29809747535855 42.70194964571925 12 45.33920781725337 12 48 C 12 57.5 15.8 66.7 22.5 73.5 C 26.457787060285014 77.39958430939848 31.2285885711527 80.31677615767622 36.39835735418 82.07412675408 Z  M 83.10908873712 21.47379020895 C 83.217958693054 21.587531213199107 83.31205895745009 21.71318078624159 83.38862220902 21.84904584392 C 88.9718194859897 29.34339726107464 92 38.50712360260197 92 48 C 92 59.7 87.4 70.9 79.1 79.1 C 70.9 87.4 59.7 92 48 92 C 36.3 92 25.1 87.4 16.9 79.1 C 8.6 70.9 4 59.7 4 48 C 4 36.3 8.6 25.1 16.9 16.9 C 25.1 8.6 36.3 4 48 4 C 59.7 4 70.9 8.6 79.1 16.9 C 80.55334200229495 18.335831857688994 81.89324009386486 19.86364526461451 83.10908873712 21.47379020895 L 83.10908873712 21.47379020895 Z  M 80.37417046754 32.25165906493 L 77.4 38.2 C 75.7 41.5 72.9 43.9 69.4 45 C 67.5 45.7 65.7 46.5 63.9 47.5 C 62 48.5 60.2 49.7 58.5 51.1 C 57.7 51.8 57.2 52.7 57 53.8 C 56.8 55.4 57.1 57.1 57.8 58.6 C 58.5 60 59.6 61 61.1 61.5 L 65.5 62.9 C 68.6 64 71.4 65.7 73.7 68 L 76.14454476152 70.50416780449 C 81.190831690212 64.1144100565435 84 56.16809325102655 84 48 C 84 42.51592032783816 82.73367874313185 37.13181338648171 80.37417046754 32.25165906493 L 80.37417046754 32.25165906493 Z  M 39.93917825772 12.91890434362 C 42.56821604766473 12.313407187470151 45.27173668748486 12 48 12 C 52.26444246292732 12 56.468434611662005 12.765703979773374 60.42202821387 14.21570555403 L 49.6 30.4 L 48.9 27.8 C 48.1 24.8 46.7 21.9 44.8 19.4 L 39.93917825772 12.91890434362 L 39.93917825772 12.91890434362 Z " fill-rule="evenodd" fill="#454545" stroke="none"/><mask id="_mask_ZW3pArAM4m9I09FxGQCyyML7gBMNIhUl"><path d=" M 18.59520374468 27.21677784802 C 18.814850896811755 27.61890951704965 18.95594547585248 28.059454758524826 19 28.5 C 19.6 34.2 20.9 39.9 22.7 45.3 C 23.7 48.3 25.2 51.1 27.1 53.5 C 28.7 55.5 30.5 57.3 32.5 58.8 C 34.9 60.7 37.5 62.3 40.2 63.7 C 43.5 65.3 45.6 68.8 45.6 72.5 C 45.6 72.5 45.6 72.6 45.6 72.7 L 45.5 73.3 L 44.3058650325 83.80838771397 C 45.5290500719381 83.93546528713755 46.7619776130929 84 48 84 C 56.16809325102655 84 64.1144100565435 81.190831690212 70.50416780449 76.14454476152 L 70.50416780449 76.14454476152 L 68 73.7 C 66.6 72.2 64.8 71.2 62.9 70.5 L 58.5 69.1 C 55.1 67.9 52.2 65.4 50.6 62.2 C 49.2 59.2 48.6 55.9 49.1 52.6 C 49.5 49.6 51.1 46.9 53.5 44.9 C 55.5 43.2 57.7 41.7 60 40.5 C 62.2 39.2 64.5 38.2 67 37.4 C 68.4 37 69.5 36 70.2 34.6 L 75.2793278684 24.44134426319 C 74.7113642325609 23.7749078056985 74.11801949056286 23.127243662063805 73.5 22.5 C 71.67850886519022 20.70529549952566 69.68481202341553 19.118672894967254 67.54640669469 17.77884660011 C 67.47451178570402 17.92179123071728 67.39195334734535 18.062069978981974 67.3 18.2 L 53.7 38.7 C 52.6 40.6 50.6 41.9 48.4 41.9 C 45.7 41.7 43.4 39.6 43 36.9 L 41.2 29.9 C 40.6 27.8 39.7 25.9 38.4 24.2 L 32.04493536696 15.72658048927 C 28.5505642004264 17.4432305841583 25.31904473322549 19.722411806969003 22.5 22.5 C 21.05633234628693 23.9652149321267 19.747307402613835 25.541858313941653 18.59520374468 27.21677784802 Z  M 36.39835735418 82.07412675408 L 37.5 72.6 L 37.6 72.3 C 37.5 71.7 37.2 71.1 36.6 70.8 C 33.4 69.2 30.4 67.3 27.6 65.1 C 25.1 63.2 22.8 61 20.9 58.5 C 18.3 55.3 16.4 51.7 15.1 47.8 C 14.250280448717948 45.293327323717946 13.508864394810542 42.73250289874858 12.89276592548 40.1385141226 C 12.29809747535855 42.70194964571925 12 45.33920781725337 12 48 C 12 57.5 15.8 66.7 22.5 73.5 C 26.457787060285014 77.39958430939848 31.2285885711527 80.31677615767622 36.39835735418 82.07412675408 Z  M 83.10908873712 21.47379020895 C 83.217958693054 21.587531213199107 83.31205895745009 21.71318078624159 83.38862220902 21.84904584392 C 88.9718194859897 29.34339726107464 92 38.50712360260197 92 48 C 92 59.7 87.4 70.9 79.1 79.1 C 70.9 87.4 59.7 92 48 92 C 36.3 92 25.1 87.4 16.9 79.1 C 8.6 70.9 4 59.7 4 48 C 4 36.3 8.6 25.1 16.9 16.9 C 25.1 8.6 36.3 4 48 4 C 59.7 4 70.9 8.6 79.1 16.9 C 80.55334200229495 18.335831857688994 81.89324009386486 19.86364526461451 83.10908873712 21.47379020895 L 83.10908873712 21.47379020895 Z  M 80.37417046754 32.25165906493 L 77.4 38.2 C 75.7 41.5 72.9 43.9 69.4 45 C 67.5 45.7 65.7 46.5 63.9 47.5 C 62 48.5 60.2 49.7 58.5 51.1 C 57.7 51.8 57.2 52.7 57 53.8 C 56.8 55.4 57.1 57.1 57.8 58.6 C 58.5 60 59.6 61 61.1 61.5 L 65.5 62.9 C 68.6 64 71.4 65.7 73.7 68 L 76.14454476152 70.50416780449 C 81.190831690212 64.1144100565435 84 56.16809325102655 84 48 C 84 42.51592032783816 82.73367874313185 37.13181338648171 80.37417046754 32.25165906493 L 80.37417046754 32.25165906493 Z  M 39.93917825772 12.91890434362 C 42.56821604766473 12.313407187470151 45.27173668748486 12 48 12 C 52.26444246292732 12 56.468434611662005 12.765703979773374 60.42202821387 14.21570555403 L 49.6 30.4 L 48.9 27.8 C 48.1 24.8 46.7 21.9 44.8 19.4 L 39.93917825772 12.91890434362 L 39.93917825772 12.91890434362 Z " fill-rule="evenodd" fill="white" stroke="none"/></mask><path d=" M 18.59520374468 27.21677784802 C 18.814850896811755 27.61890951704965 18.95594547585248 28.059454758524826 19 28.5 C 19.6 34.2 20.9 39.9 22.7 45.3 C 23.7 48.3 25.2 51.1 27.1 53.5 C 28.7 55.5 30.5 57.3 32.5 58.8 C 34.9 60.7 37.5 62.3 40.2 63.7 C 43.5 65.3 45.6 68.8 45.6 72.5 C 45.6 72.5 45.6 72.6 45.6 72.7 L 45.5 73.3 L 44.3058650325 83.80838771397 C 45.5290500719381 83.93546528713755 46.7619776130929 84 48 84 C 56.16809325102655 84 64.1144100565435 81.190831690212 70.50416780449 76.14454476152 L 70.50416780449 76.14454476152 L 68 73.7 C 66.6 72.2 64.8 71.2 62.9 70.5 L 58.5 69.1 C 55.1 67.9 52.2 65.4 50.6 62.2 C 49.2 59.2 48.6 55.9 49.1 52.6 C 49.5 49.6 51.1 46.9 53.5 44.9 C 55.5 43.2 57.7 41.7 60 40.5 C 62.2 39.2 64.5 38.2 67 37.4 C 68.4 37 69.5 36 70.2 34.6 L 75.2793278684 24.44134426319 C 74.7113642325609 23.7749078056985 74.11801949056286 23.127243662063805 73.5 22.5 C 71.67850886519022 20.70529549952566 69.68481202341553 19.118672894967254 67.54640669469 17.77884660011 C 67.47451178570402 17.92179123071728 67.39195334734535 18.062069978981974 67.3 18.2 L 53.7 38.7 C 52.6 40.6 50.6 41.9 48.4 41.9 C 45.7 41.7 43.4 39.6 43 36.9 L 41.2 29.9 C 40.6 27.8 39.7 25.9 38.4 24.2 L 32.04493536696 15.72658048927 C 28.5505642004264 17.4432305841583 25.31904473322549 19.722411806969003 22.5 22.5 C 21.05633234628693 23.9652149321267 19.747307402613835 25.541858313941653 18.59520374468 27.21677784802 Z  M 36.39835735418 82.07412675408 L 37.5 72.6 L 37.6 72.3 C 37.5 71.7 37.2 71.1 36.6 70.8 C 33.4 69.2 30.4 67.3 27.6 65.1 C 25.1 63.2 22.8 61 20.9 58.5 C 18.3 55.3 16.4 51.7 15.1 47.8 C 14.250280448717948 45.293327323717946 13.508864394810542 42.73250289874858 12.89276592548 40.1385141226 C 12.29809747535855 42.70194964571925 12 45.33920781725337 12 48 C 12 57.5 15.8 66.7 22.5 73.5 C 26.457787060285014 77.39958430939848 31.2285885711527 80.31677615767622 36.39835735418 82.07412675408 Z  M 83.10908873712 21.47379020895 C 83.217958693054 21.587531213199107 83.31205895745009 21.71318078624159 83.38862220902 21.84904584392 C 88.9718194859897 29.34339726107464 92 38.50712360260197 92 48 C 92 59.7 87.4 70.9 79.1 79.1 C 70.9 87.4 59.7 92 48 92 C 36.3 92 25.1 87.4 16.9 79.1 C 8.6 70.9 4 59.7 4 48 C 4 36.3 8.6 25.1 16.9 16.9 C 25.1 8.6 36.3 4 48 4 C 59.7 4 70.9 8.6 79.1 16.9 C 80.55334200229495 18.335831857688994 81.89324009386486 19.86364526461451 83.10908873712 21.47379020895 L 83.10908873712 21.47379020895 Z  M 80.37417046754 32.25165906493 L 77.4 38.2 C 75.7 41.5 72.9 43.9 69.4 45 C 67.5 45.7 65.7 46.5 63.9 47.5 C 62 48.5 60.2 49.7 58.5 51.1 C 57.7 51.8 57.2 52.7 57 53.8 C 56.8 55.4 57.1 57.1 57.8 58.6 C 58.5 60 59.6 61 61.1 61.5 L 65.5 62.9 C 68.6 64 71.4 65.7 73.7 68 L 76.14454476152 70.50416780449 C 81.190831690212 64.1144100565435 84 56.16809325102655 84 48 C 84 42.51592032783816 82.73367874313185 37.13181338648171 80.37417046754 32.25165906493 L 80.37417046754 32.25165906493 Z  M 39.93917825772 12.91890434362 C 42.56821604766473 12.313407187470151 45.27173668748486 12 48 12 C 52.26444246292732 12 56.468434611662005 12.765703979773374 60.42202821387 14.21570555403 L 49.6 30.4 L 48.9 27.8 C 48.1 24.8 46.7 21.9 44.8 19.4 L 39.93917825772 12.91890434362 L 39.93917825772 12.91890434362 Z " fill-rule="evenodd" fill="none" stroke="none" stroke-width="16" mask="url(#_mask_ZW3pArAM4m9I09FxGQCyyML7gBMNIhUl)"/></svg>