<svg xmlns="http://www.w3.org/2000/svg" style="isolation:isolate" width="96" height="96"><path d="M10.9 33c0-8 3.1-15.6 8.7-21.2C25.3 6.2 32.9 3 40.9 3c7.9 0 15.6 3.2 21.2 8.8 5.6 5.6 8.8 13.2 8.8 21.2s-3.2 15.6-8.8 21.2C56.5 59.8 48.8 63 40.9 63c-8 0-15.6-3.2-21.3-8.8C14 48.6 10.9 41 10.9 33zm8 0c0-5.8 2.3-11.4 6.4-15.6C29.4 13.3 35 11 40.9 11c5.8 0 11.4 2.3 15.5 6.4 4.1 4.2 6.5 9.8 6.5 15.6 0 5.8-2.4 11.4-6.5 15.6-4.1 4.1-9.7 6.4-15.5 6.4-5.9 0-11.5-2.3-15.6-6.4-4.1-4.2-6.4-9.8-6.4-15.6zM40 88v-9.751c-10.844-.53-21.202-5.145-29-12.849-.7-.8-1.1-1.8-1.1-2.8 0-1.1.4-2.1 1.1-2.9.8-.7 1.8-1.1 2.9-1.1 1 0 2 .4 2.8 1.1 6.7 6.8 15.9 10.6 25.4 10.6 9.6 0 18.8-3.8 25.5-10.6 6.7-6.7 10.5-15.9 10.5-25.4 0-9.6-3.8-18.7-10.5-25.5-.7-.7-1.2-1.7-1.2-2.8 0-1.1.5-2.1 1.2-2.8.8-.8 1.8-1.2 2.8-1.2 1.1 0 2.1.4 2.9 1.2 8.2 8.2 12.8 19.4 12.8 31.1 0 11.6-4.6 22.8-12.8 31.1-6.892 6.809-15.783 11.205-25.3 12.5V88h12c1.1 0 2.1.4 2.8 1.2.8.7 1.2 1.7 1.2 2.8 0 1.1-.4 2.1-1.2 2.8-.7.8-1.7 1.2-2.8 1.2H28c-1.1 0-2.1-.4-2.8-1.2-.8-.7-1.2-1.7-1.2-2.8 0-1.1.4-2.1 1.2-2.8.7-.8 1.7-1.2 2.8-1.2h12z" fill-rule="evenodd"/></svg>