<svg xmlns="http://www.w3.org/2000/svg" style="isolation:isolate" width="96" height="96"><path d="M16 43.334v16.463c0 1 .4 2 1 2.7 4 4.3 8.7 7.8 14 10.2 5.4 2.2 11.2 3.2 17 3.1 5.8.1 11.6-.9 17-3.1 5.3-2.4 10-5.9 14-10.2.6-.7 1-1.7 1-2.7V43.334l4-1.59v10.053c0 1.1.4 2.1 1.2 2.8.7.8 1.7 1.2 2.8 1.2 1.1 0 2.1-.4 2.8-1.2.8-.7 1.2-1.7 1.2-2.8V35.05c-.143-.801-.586-1.516-1.2-2.053q-.558-.638-2.4-1.4l-37.5-14.9q-1.752-.5-2.9-.5t-2.9.5l-37.5 14.9q-4.3 1.854-4.3 4.2 0 2.345 4.3 4.2l8.4 3.337zm8 3.179v11.684c2.9 3 6.4 5.4 10.2 7.2 4.4 1.7 9.1 2.5 13.8 2.4 4.7.1 9.4-.7 13.8-2.4 3.8-1.8 7.3-4.2 10.2-7.2V46.513l-21.1 8.384q-1.752.5-2.9.5t-2.9-.5L24 46.513zm-5.2-10.716l28.4-11.4q.485-.1.8-.1.315 0 .8.1l28.4 11.4-28.4 11.4q-.485.1-.8.1-.315 0-.8-.1l-28.4-11.4z" fill-rule="evenodd"/></svg>