<svg xmlns="http://www.w3.org/2000/svg" width="96" height="96"><path d="M12 4h24c2.1 0 4.2.8 5.7 2.3C43.2 7.8 44 9.9 44 12v24c0 2.1-.8 4.2-2.3 5.7-1.5 1.5-3.6 2.3-5.7 2.3H12c-2.1 0-4.2-.8-5.7-2.3C4.8 40.2 4 38.1 4 36V12c0-2.1.8-4.2 2.3-5.7C7.8 4.8 9.9 4 12 4zm0 8h24v24H12V12zm0 40h24c2.1 0 4.2.8 5.7 2.3 1.5 1.5 2.3 3.6 2.3 5.7v24c0 2.1-.8 4.2-2.3 5.7-1.5 1.5-3.6 2.3-5.7 2.3H12c-2.1 0-4.2-.8-5.7-2.3C4.8 88.2 4 86.1 4 84V60c0-2.1.8-4.2 2.3-5.7C7.8 52.8 9.9 52 12 52zm0 8h24v24H12V60zM60 4h24c2.1 0 4.2.8 5.7 2.3C91.2 7.8 92 9.9 92 12v24c0 2.1-.8 4.2-2.3 5.7-1.5 1.5-3.6 2.3-5.7 2.3H60c-2.1 0-4.2-.8-5.7-2.3-1.5-1.5-2.3-3.6-2.3-5.7V12c0-2.1.8-4.2 2.3-5.7C55.8 4.8 57.9 4 60 4zm0 8h24v24H60V12zm0 40h24c2.1 0 4.2.8 5.7 2.3 1.5 1.5 2.3 3.6 2.3 5.7v24c0 2.1-.8 4.2-2.3 5.7-1.5 1.5-3.6 2.3-5.7 2.3H60c-2.1 0-4.2-.8-5.7-2.3-1.5-1.5-2.3-3.6-2.3-5.7V60c0-2.1.8-4.2 2.3-5.7 1.5-1.5 3.6-2.3 5.7-2.3zm0 8h24v24H60V60z" fill-rule="evenodd"/></svg>