<svg xmlns="http://www.w3.org/2000/svg" style="isolation:isolate" width="96" height="96"><path d="M12.08 38.481c.628-8.063 5.025-15.53 11.92-19.875 7.2-4.5 15.5-6.8 24-6.6 8.5-.2 16.8 2.1 24 6.7 6.895 4.345 11.292 11.722 11.92 19.775a14.79 14.79 0 0 1 2.38 1.825c3.4 3 5.5 7.2 5.7 11.7-.2 4.5-2.3 8.7-5.7 11.7a15.601 15.601 0 0 1-2.3 1.786v10.514c0 2.1-.8 4.2-2.3 5.7-1.5 1.5-3.6 2.3-5.7 2.3H20c-2.1 0-4.2-.8-5.7-2.3-1.5-1.5-2.3-3.6-2.3-5.7V65.492a15.601 15.601 0 0 1-2.3-1.786c-3.4-3-5.5-7.2-5.7-11.7.2-4.5 2.3-8.7 5.7-11.7a14.786 14.786 0 0 1 2.38-1.825zm8.526-2.5c1.104-4.389 3.901-8.18 7.694-10.575 5.9-3.7 12.7-5.6 19.7-5.4 7-.2 13.8 1.7 19.7 5.4 3.793 2.396 6.59 6.186 7.694 10.576-.463-.019-54.325-.019-54.788 0zM20 68.022c.664.034 55.336.034 56 0v7.985H20v-7.985zm8-24.015v4.5l6.788-4.5H28zm-8 .015v7.785c-.3 3.1 2 6 5.1 6.5.7.1 1.3 0 2-.2l2-.7 20.052-13.4H74.4c2.4-.2 4.6.6 6.4 2.1 1.8 1.5 2.9 3.6 3.2 5.9-.3 2.3-1.4 4.4-3.2 5.9-1.432 1.194-3.118 1.944-4.957 2.1H20.157c-1.839-.156-3.525-.906-4.957-2.1-1.8-1.5-2.9-3.6-3.2-5.9.3-2.3 1.4-4.4 3.2-5.9 1.392-1.16 3.023-1.901 4.8-2.085z" fill-rule="evenodd"/></svg>