<svg xmlns="http://www.w3.org/2000/svg" style="isolation:isolate" width="96" height="96"><path d="M34.6 49V14.5c-.1-2.9 1-5.6 3.1-7.7 2-2.1 4.7-3.3 7.6-3.3 2.9 0 5.7 1.2 7.7 3.3 2 2.1 3.1 4.8 3.1 7.7v18L75 37.9h.1c6 1.8 10.2 7.4 10.2 13.7v.5l-.4 2.8-7 26.4C76.2 87.6 70.5 92 64 92H44c-3.7 0-7.3-1.7-9.6-4.6L12.8 60.5c-1.7-2.2-2.6-4.8-2.6-7.6-.1-2.9 1-5.7 3-7.7 2.2-2.1 5-3.2 8-3.2 2.6 0 5.2.9 7.4 2.5l6 4.5zm6 33.4L19.1 55.5c-.6-.8-.9-1.7-.9-2.7-.1-.7.2-1.4.7-2 .6-.5 1.4-.8 2.2-.8 1 0 1.9.3 2.7.9l9.6 7.2q2.586 1.348 4.3 1.1c3.144-.455 5.2-3.4 4.9-6.5V14.4c-.1-1.5 1.2-2.8 2.7-2.9 1.6.1 2.8 1.4 2.8 2.9v19.1c0 3 1.9 5.6 4.8 6.4l19.9 5.7c2.6.7 4.4 3.1 4.5 5.7l-.2 2.1-6.9 25.8C69.4 82 66.9 84 64 84H44c-1.3 0-2.6-.6-3.4-1.6z" fill-rule="evenodd"/></svg>