<svg xmlns="http://www.w3.org/2000/svg" style="isolation:isolate" width="96" height="96"><path d="M60.894 46.5V81c.1 2.9-1 5.6-3.1 7.7-2 2.1-4.7 3.3-7.6 3.3-2.9 0-5.7-1.2-7.7-3.3-2-2.1-3.1-4.8-3.1-7.7V63l-18.9-5.4h-.1c-6-1.8-10.2-7.4-10.2-13.7v-.5l.4-2.8 7-26.4c1.7-6.3 7.4-10.7 13.9-10.7h20c3.7 0 7.3 1.7 9.6 4.6l21.6 26.9c1.7 2.2 2.6 4.8 2.6 7.6.1 2.9-1 5.7-3 7.7-2.2 2.1-5 3.2-8 3.2-2.6 0-5.2-.9-7.4-2.5l-6-4.5zm-6-33.4l21.5 26.9c.6.8.9 1.7.9 2.7.1.7-.2 1.4-.7 2-.6.5-1.4.8-2.2.8-1 0-1.9-.3-2.7-.9l-9.6-7.2q-2.586-1.348-4.3-1.1c-3.144.455-5.2 3.4-4.9 6.5v38.3c.1 1.5-1.2 2.8-2.7 2.9-1.6-.1-2.8-1.4-2.8-2.9V62c0-3-1.9-5.6-4.8-6.4l-19.9-5.7c-2.6-.7-4.4-3.1-4.5-5.7l.2-2.1 6.9-25.8c.8-2.8 3.3-4.8 6.2-4.8h20c1.3 0 2.6.6 3.4 1.6z" fill-rule="evenodd"/></svg>