<svg xmlns="http://www.w3.org/2000/svg" style="isolation:isolate" width="96" height="96"><path d="M55.649 34.852l19.3.8c2.1.1 4.1.9 5.7 2.3 1.5 1.5 2.418 3.208 2.5 5.6q.041 1.225-.5 3.1l-10.6 29.3c-2.3 6-7.582 10.016-14.4 9.9q-1.259-.022-3.2-.4l-30.8-7.7c-6.3-1.6-10.8-7.3-10.8-13.8v-20c0-3.7 1.7-7.3 4.6-9.6l26.9-21.6c2.2-1.7 4.8-2.6 7.6-2.6 2.9-.1 5.7 1 7.7 3 2.1 2.2 3.2 5 3.2 8 0 2.6-.9 5.2-2.5 7.4l-4.7 6.3zm-33.2 5.7l26.9-21.5c.8-.6 1.7-.9 2.7-.9.7-.1 1.4.2 2 .7.5.6.8 1.4.8 2.2 0 1-.3 1.9-.9 2.7l-7.2 9.6-.9 2.2c-.2.6-.3 1.4-.2 2.1.5 3 3.2 5.2 6.3 5l22.7 1-10.1 29.5c-1.1 2.8-3.7 4.6-6.6 4.7l-2.1-.3-30.3-7.5c-2.7-.7-4.7-3.2-4.7-6.1v-20c0-1.3.6-2.6 1.6-3.4z" fill-rule="evenodd"/></svg>