<svg xmlns="http://www.w3.org/2000/svg" style="isolation:isolate" width="96" height="96"><path d="M46.497 34.603h34.5c2.9-.1 5.6 1 7.7 3.1 2.1 2 3.3 4.7 3.3 7.6 0 2.9-1.2 5.7-3.3 7.7-2.1 2-4.8 3.1-7.7 3.1h-18l-5.4 18.9v.1c-1.8 6-7.4 10.2-13.7 10.2h-.5l-2.8-.4-26.4-7c-6.3-1.7-10.7-7.4-10.7-13.9v-20c0-3.7 1.7-7.3 4.6-9.6l26.9-21.6c2.2-1.7 4.8-2.6 7.6-2.6 2.9-.1 5.7 1 7.7 3 2.1 2.2 3.2 5 3.2 8 0 2.6-.9 5.2-2.5 7.4l-4.5 6zm-33.4 6l26.9-21.5c.8-.6 1.7-.9 2.7-.9.7-.1 1.4.2 2 .7.5.6.8 1.4.8 2.2 0 1-.3 1.9-.9 2.7l-7.2 9.6q-1.348 2.586-1.1 4.3c.455 3.144 3.4 5.2 6.5 4.9h38.3c1.5-.1 2.8 1.2 2.9 2.7-.1 1.6-1.4 2.8-2.9 2.8h-19.1c-3 0-5.6 1.9-6.4 4.8l-5.7 19.9c-.7 2.6-3.1 4.4-5.7 4.5l-2.1-.2-25.8-6.9c-2.8-.8-4.8-3.3-4.8-6.2v-20c0-1.3.6-2.6 1.6-3.4z" fill-rule="evenodd"/></svg>