<svg xmlns="http://www.w3.org/2000/svg" width="96" height="96"><path d="M12.586 60L19.4 12.5c0-.3.3-.5.6-.5h56c.3 0 .6.2.6.5L83.414 60H12.586zM12 68v16h72V68H12zm-.5-56.6L4.6 59.5C4.2 62.3 4 65.1 4 68v16c0 2.1.8 4.2 2.3 5.7C7.8 91.2 9.9 92 12 92h72c2.1 0 4.2-.8 5.7-2.3 1.5-1.5 2.3-3.6 2.3-5.7V68c0-2.9-.2-5.7-.6-8.5l-6.9-48.1C83.9 7.2 80.3 4 76 4H20c-4.3 0-7.9 3.2-8.5 7.4zM72 76c0-2.208 1.792-4 4-4s4 1.792 4 4-1.792 4-4 4-4-1.792-4-4z" fill-rule="evenodd" fill="#454545" stroke="rgba(0,0,0,0)" stroke-linecap="square"/></svg>