<svg xmlns="http://www.w3.org/2000/svg" width="96" height="96"><path d="M76.728 57.991a29.958 29.958 0 0 0-.628-3.1c-1.7-8.4-5.1-16.4-10-23.4-4.2-5.8-10.9-9.3-18.1-9.5-7.2.2-13.9 3.7-18.1 9.5-4.9 7-8.3 15-10 23.4a29.958 29.958 0 0 0-.628 3.1H24c2.1 0 4.2.8 5.7 2.3 1.5 1.5 2.3 3.6 2.3 5.7v8c0 2.1-.8 4.2-2.3 5.7-1.5 1.5-3.6 2.3-5.7 2.3h-7.4a3.486 3.486 0 0 1-.736-.004c-.146 0-.48-.04-.501-.052a3.315 3.315 0 0 1-1.515-.586c-.083-.05-.946-.84-.97-.879-.068-.08-.53-.846-.547-.89a8.043 8.043 0 0 1-.331-.99c-.7-5.1-1.1-10.3-1.1-15.4 0-3.4.4-6.8 1.2-10.1 1.9-9.4 5.7-18.4 11.2-26.3 5.8-7.9 14.9-12.6 24.6-12.8h.2c9.7.2 18.8 4.9 24.6 12.8 5.5 7.9 9.3 16.9 11.2 26.3.8 3.3 1.2 6.7 1.2 10.1 0 5.1-.4 10.3-1.1 15.4-.036.182-.37 1.076-.387 1.121-.078.181-.423.679-.49.758-.025.038-.888.828-.971.879-.44.317-.957.512-1.515.586a3.09 3.09 0 0 1-.501.052 3.486 3.486 0 0 1-.736.004H72c-2.1 0-4.2-.8-5.7-2.3-1.5-1.5-2.3-3.6-2.3-5.7v-8c0-2.1.8-4.2 2.3-5.7 1.5-1.5 3.6-2.3 5.7-2.3h4.728zm.326 8a96.847 96.847 0 0 1-.603 8H72v-8h5.054zm-58.108 0c.087 2.66.294 5.338.603 8H24v-8h-5.054z" fill-rule="evenodd"/></svg>