<svg xmlns="http://www.w3.org/2000/svg" style="isolation:isolate" width="96" height="96"><path d="M12.02 50.547A13.714 13.714 0 0 1 20 48c2.1 0 4.2.8 5.7 2.3 1.5 1.5 2.3 3.6 2.3 5.7v24c0 2.1-.8 4.2-2.3 5.7-1.5 1.5-3.6 2.3-5.7 2.3-3.6 0-7.1-1.4-9.7-4l-4.827-4.921A3.418 3.418 0 0 1 5.2 78.8C4.4 78.1 4 77.1 4 76V52c0-6.8 1.1-13.6 3.2-20 1.7-4.8 4.4-9.2 8-12.8 3.6-3.6 8-6.3 12.8-8C34.4 9.1 41.2 8 48 8c6.8 0 13.6 1.1 20 3.2 4.8 1.7 9.2 4.4 12.8 8 3.6 3.6 6.3 8 8 12.8 2.1 6.4 3.2 13.2 3.2 20v24c0 1.1-.4 2.1-1.2 2.8a3.418 3.418 0 0 1-.273.279L85.7 84c-2.6 2.6-6.1 4-9.7 4-2.1 0-4.2-.8-5.7-2.3-1.5-1.5-2.3-3.6-2.3-5.7V56c0-2.1.8-4.2 2.3-5.7 1.5-1.5 3.6-2.3 5.7-2.3 2.856 0 5.65.881 7.98 2.547-.15-5.414-1.128-10.815-2.78-16.047-1.3-3.6-3.3-6.9-6-9.7a26.254 26.254 0 0 0-7.198-4.933c.022.213-.702 2.633-1.602 3.333-.8.6-1.9.9-2.9.8-2.5-.4-4.9-.6-7.4-.7a109.613 109.613 0 0 0-16.2 0c-2.5.1-4.9.3-7.4.7-1 .1-2.1-.2-2.9-.8-.9-.7-1.624-3.12-1.602-3.333A26.254 26.254 0 0 0 20.8 24.8c-2.7 2.8-4.7 6.1-6 9.7-1.652 5.232-2.63 10.633-2.78 16.047zM12 74.377l4 3.923c1.1 1.1 2.5 1.7 4 1.7V56c-1.5 0-2.9.6-4 1.7l-4 3.923v12.754zm72-12.754v12.754L80 78.3c-1.1 1.1-2.5 1.7-4 1.7V56c1.5 0 2.9.6 4 1.7l4 3.923z" fill-rule="evenodd"/></svg>