<svg xmlns="http://www.w3.org/2000/svg" width="96" height="96"><path d="M48 84.7l.1-.1 30.8-30.8c3.3-3.2 5.1-7.6 5.1-12.2s-1.8-9.1-5.1-12.3c-3.2-3.3-7.7-5.1-12.3-5.1-4.6 0-9 1.8-12.2 5.1L48 35.7l-6.4-6.4c-3.2-3.3-7.6-5.1-12.2-5.1s-9.1 1.8-12.3 5.1C13.8 32.5 12 37 12 41.6c0 4.6 1.8 9 5.1 12.2L48 84.7zm.1 11.2l36.5-36.4c4.7-4.8 7.4-11.2 7.4-17.9 0-6.8-2.7-13.2-7.4-18-4.8-4.7-11.2-7.4-18-7.4-6.7 0-13.1 2.7-17.9 7.4l-.7.7-.7-.7c-4.8-4.7-11.2-7.4-17.9-7.4-6.8 0-13.2 2.7-18 7.4C6.7 28.4 4 34.8 4 41.6c0 6.7 2.7 13.1 7.4 17.9L48 96l.1-.1z" fill-rule="evenodd"/></svg>