<?xml version="1.0" standalone="no"?><!-- Generator: Gravit.io --><svg xmlns="http://www.w3.org/2000/svg" xmlns:xlink="http://www.w3.org/1999/xlink" width="96" height="96"><path d=" M 48 84.69999999999999 L 48.1 84.6 L 48.1 84.6 L 78.9 53.79999999999999 C 82.2 50.59999999999999 84 46.19999999999999 84 41.59999999999999 C 84 36.999999999999986 82.2 32.499999999999986 78.9 29.29999999999999 C 75.7 25.99999999999999 71.2 24.19999999999999 66.6 24.19999999999999 C 62 24.19999999999999 57.6 25.99999999999999 54.4 29.29999999999999 L 48 35.69999999999999 L 41.6 29.29999999999999 C 38.4 25.99999999999999 34 24.19999999999999 29.4 24.19999999999999 C 24.8 24.19999999999999 20.3 25.99999999999999 17.1 29.29999999999999 C 13.8 32.499999999999986 12 36.999999999999986 12 41.59999999999999 C 12 46.19999999999999 13.8 50.59999999999999 17.1 53.79999999999999 L 48 84.69999999999999 Z  M 48.1 95.89999999999999 L 48.1 95.89999999999999 L 84.6 59.499999999999986 C 84.6 59.499999999999986 84.6 59.499999999999986 84.6 59.499999999999986 C 89.3 54.69999999999999 92 48.29999999999999 92 41.59999999999999 C 92 34.79999999999999 89.3 28.399999999999988 84.6 23.599999999999987 C 79.8 18.899999999999988 73.4 16.19999999999999 66.6 16.19999999999999 C 59.9 16.19999999999999 53.5 18.899999999999988 48.7 23.599999999999987 C 48.7 23.599999999999987 48.7 23.599999999999987 48.7 23.599999999999987 L 48 24.29999999999999 L 47.3 23.599999999999987 C 47.3 23.599999999999987 47.3 23.599999999999987 47.3 23.599999999999987 C 42.5 18.899999999999988 36.1 16.19999999999999 29.4 16.19999999999999 C 22.6 16.19999999999999 16.2 18.899999999999988 11.4 23.599999999999987 C 6.7 28.399999999999988 4 34.79999999999999 4 41.59999999999999 C 4 48.29999999999999 6.7 54.69999999999999 11.4 59.499999999999986 C 11.4 59.499999999999986 11.4 59.499999999999986 11.4 59.499999999999986 L 48 95.99999999999999 L 48.1 95.89999999999999 Z " fill-rule="evenodd" fill="#454545" stroke="none"/><mask id="_mask_GUgMpjA5c5G30Qe9XL98c4pywO8aeuCY"><path d=" M 48 84.69999999999999 L 48.1 84.6 L 48.1 84.6 L 78.9 53.79999999999999 C 82.2 50.59999999999999 84 46.19999999999999 84 41.59999999999999 C 84 36.999999999999986 82.2 32.499999999999986 78.9 29.29999999999999 C 75.7 25.99999999999999 71.2 24.19999999999999 66.6 24.19999999999999 C 62 24.19999999999999 57.6 25.99999999999999 54.4 29.29999999999999 L 48 35.69999999999999 L 41.6 29.29999999999999 C 38.4 25.99999999999999 34 24.19999999999999 29.4 24.19999999999999 C 24.8 24.19999999999999 20.3 25.99999999999999 17.1 29.29999999999999 C 13.8 32.499999999999986 12 36.999999999999986 12 41.59999999999999 C 12 46.19999999999999 13.8 50.59999999999999 17.1 53.79999999999999 L 48 84.69999999999999 Z  M 48.1 95.89999999999999 L 48.1 95.89999999999999 L 84.6 59.499999999999986 C 84.6 59.499999999999986 84.6 59.499999999999986 84.6 59.499999999999986 C 89.3 54.69999999999999 92 48.29999999999999 92 41.59999999999999 C 92 34.79999999999999 89.3 28.399999999999988 84.6 23.599999999999987 C 79.8 18.899999999999988 73.4 16.19999999999999 66.6 16.19999999999999 C 59.9 16.19999999999999 53.5 18.899999999999988 48.7 23.599999999999987 C 48.7 23.599999999999987 48.7 23.599999999999987 48.7 23.599999999999987 L 48 24.29999999999999 L 47.3 23.599999999999987 C 47.3 23.599999999999987 47.3 23.599999999999987 47.3 23.599999999999987 C 42.5 18.899999999999988 36.1 16.19999999999999 29.4 16.19999999999999 C 22.6 16.19999999999999 16.2 18.899999999999988 11.4 23.599999999999987 C 6.7 28.399999999999988 4 34.79999999999999 4 41.59999999999999 C 4 48.29999999999999 6.7 54.69999999999999 11.4 59.499999999999986 C 11.4 59.499999999999986 11.4 59.499999999999986 11.4 59.499999999999986 L 48 95.99999999999999 L 48.1 95.89999999999999 Z " fill-rule="evenodd" fill="white" stroke="none"/></mask><path d=" M 48 84.69999999999999 L 48.1 84.6 L 48.1 84.6 L 78.9 53.79999999999999 C 82.2 50.59999999999999 84 46.19999999999999 84 41.59999999999999 C 84 36.999999999999986 82.2 32.499999999999986 78.9 29.29999999999999 C 75.7 25.99999999999999 71.2 24.19999999999999 66.6 24.19999999999999 C 62 24.19999999999999 57.6 25.99999999999999 54.4 29.29999999999999 L 48 35.69999999999999 L 41.6 29.29999999999999 C 38.4 25.99999999999999 34 24.19999999999999 29.4 24.19999999999999 C 24.8 24.19999999999999 20.3 25.99999999999999 17.1 29.29999999999999 C 13.8 32.499999999999986 12 36.999999999999986 12 41.59999999999999 C 12 46.19999999999999 13.8 50.59999999999999 17.1 53.79999999999999 L 48 84.69999999999999 Z  M 48.1 95.89999999999999 L 48.1 95.89999999999999 L 84.6 59.499999999999986 C 84.6 59.499999999999986 84.6 59.499999999999986 84.6 59.499999999999986 C 89.3 54.69999999999999 92 48.29999999999999 92 41.59999999999999 C 92 34.79999999999999 89.3 28.399999999999988 84.6 23.599999999999987 C 79.8 18.899999999999988 73.4 16.19999999999999 66.6 16.19999999999999 C 59.9 16.19999999999999 53.5 18.899999999999988 48.7 23.599999999999987 C 48.7 23.599999999999987 48.7 23.599999999999987 48.7 23.599999999999987 L 48 24.29999999999999 L 47.3 23.599999999999987 C 47.3 23.599999999999987 47.3 23.599999999999987 47.3 23.599999999999987 C 42.5 18.899999999999988 36.1 16.19999999999999 29.4 16.19999999999999 C 22.6 16.19999999999999 16.2 18.899999999999988 11.4 23.599999999999987 C 6.7 28.399999999999988 4 34.79999999999999 4 41.59999999999999 C 4 48.29999999999999 6.7 54.69999999999999 11.4 59.499999999999986 C 11.4 59.499999999999986 11.4 59.499999999999986 11.4 59.499999999999986 L 48 95.99999999999999 L 48.1 95.89999999999999 Z " fill-rule="evenodd" fill="none" stroke="none" stroke-width="16" mask="url(#_mask_GUgMpjA5c5G30Qe9XL98c4pywO8aeuCY)"/></svg>