<svg xmlns="http://www.w3.org/2000/svg" width="96" height="96"><path d="M19.873 25.473l12.198 12.198A18.922 18.922 0 0 0 29 48c0 3.668 1.076 7.282 3.07 10.33L19.874 70.526C14.816 64.133 12 56.177 12 48c0-8.178 2.816-16.133 7.873-22.527zm5.6-5.6l12.198 12.198A18.922 18.922 0 0 1 48 29c3.668 0 7.282 1.076 10.33 3.07l12.197-12.197C64.133 14.816 56.177 12 48 12c-8.178 0-16.133 2.816-22.527 7.873zm50.654 5.6L63.929 37.671A18.922 18.922 0 0 1 67 48c0 3.668-1.076 7.282-3.07 10.33l12.197 12.197C81.184 64.133 84 56.177 84 48c0-8.178-2.816-16.133-7.873-22.527zm-5.6 50.654L58.329 63.929A18.922 18.922 0 0 1 48 67a18.922 18.922 0 0 1-10.33-3.07L25.474 76.126C31.867 81.184 39.823 84 48 84c8.178 0 16.133-2.816 22.527-7.873zM4 48c0 11.7 4.6 22.9 12.9 31.1C25.1 87.4 36.3 92 48 92c11.7 0 22.9-4.6 31.1-12.9C87.4 70.9 92 59.7 92 48c0-11.7-4.6-22.9-12.9-31.1C70.9 8.6 59.7 4 48 4 36.3 4 25.1 8.6 16.9 16.9 8.6 25.1 4 36.3 4 48zm33 0c0 2.9 1.2 5.7 3.2 7.8 2.1 2 4.9 3.2 7.8 3.2 2.9 0 5.7-1.2 7.8-3.2 2-2.1 3.2-4.9 3.2-7.8 0-2.9-1.2-5.7-3.2-7.8-2.1-2-4.9-3.2-7.8-3.2-2.9 0-5.7 1.2-7.8 3.2-2 2.1-3.2 4.9-3.2 7.8z" fill-rule="evenodd"/></svg>