<?xml version="1.0" standalone="no"?><!-- Generator: Gravit.io --><svg xmlns="http://www.w3.org/2000/svg" xmlns:xlink="http://www.w3.org/1999/xlink" width="96" height="96"><path d=" M 19.87328008478 25.47328008478 L 32.07093449556 37.67093449556 C 30.07628073682434 40.71800891121137 29 44.33209743718508 29 48 C 29 51.66790256281492 30.07628073682434 55.28199108878863 32.07093449556 58.32906550444 L 19.87328008478 70.52671991522 C 14.815783911175048 64.13311234912616 12 56.17770553947789 12 48 L 12 48 C 12 39.82229446052211 14.815783911175048 31.866887650873828 19.87328008478 25.47328008478 Z  M 25.47328008478 19.87328008478 L 37.67093449556 32.07093449556 C 40.7180089112114 30.076280736824334 44.33209743718509 29 48 29 C 51.66790256281492 29 55.28199108878863 30.07628073682434 58.32906550444 32.07093449556 L 70.52671991522 19.87328008478 C 64.13311234912616 14.815783911175048 56.17770553947789 12 48 12 C 39.82229446052211 12 31.866887650873828 14.815783911175048 25.47328008478 19.87328008478 Z  M 76.12671991522 25.47328008478 L 63.92906550444 37.67093449556 C 65.92371926317567 40.7180089112114 67 44.33209743718509 67 48 C 67 51.66790256281491 65.92371926317567 55.2819910887886 63.92906550444 58.32906550444 L 76.12671991522 70.52671991522 C 81.18421608882495 64.13311234912616 84 56.17770553947789 84 48 C 84 39.82229446052211 81.18421608882495 31.866887650873828 76.12671991522 25.47328008478 Z  M 70.52671991522 76.12671991522 L 58.32906550444 63.92906550444 C 55.28199108878863 65.92371926317566 51.66790256281492 67 48 67 C 44.33209743718509 67 40.7180089112114 65.92371926317567 37.67093449556 63.92906550444 L 25.47328008478 76.12671991522 C 31.866887650873828 81.18421608882495 39.82229446052211 84 48 84 C 56.17770553947789 84 64.13311234912616 81.18421608882495 70.52671991522 76.12671991522 Z  M 4 48 C 4 59.7 8.6 70.9 16.9 79.1 C 25.1 87.4 36.3 92 48 92 C 59.7 92 70.9 87.4 79.1 79.1 C 87.4 70.9 92 59.7 92 48 C 92 36.3 87.4 25.1 79.1 16.9 C 70.9 8.6 59.7 4 48 4 C 36.3 4 25.1 8.6 16.9 16.9 C 8.6 25.1 4 36.3 4 48 L 4 48 Z  M 37 48 C 37 50.9 38.2 53.7 40.2 55.8 C 42.3 57.8 45.1 59 48 59 C 50.9 59 53.7 57.8 55.8 55.8 C 57.8 53.7 59 50.9 59 48 C 59 45.1 57.8 42.3 55.8 40.2 C 53.7 38.2 50.9 37 48 37 C 45.1 37 42.3 38.2 40.2 40.2 C 38.2 42.3 37 45.1 37 48 L 37 48 Z " fill-rule="evenodd" fill="#454545" stroke="none"/><mask id="_mask_oXNku9m744d50f1m049TdMxIlpU7RUxD"><path d=" M 19.87328008478 25.47328008478 L 32.07093449556 37.67093449556 C 30.07628073682434 40.71800891121137 29 44.33209743718508 29 48 C 29 51.66790256281492 30.07628073682434 55.28199108878863 32.07093449556 58.32906550444 L 19.87328008478 70.52671991522 C 14.815783911175048 64.13311234912616 12 56.17770553947789 12 48 L 12 48 C 12 39.82229446052211 14.815783911175048 31.866887650873828 19.87328008478 25.47328008478 Z  M 25.47328008478 19.87328008478 L 37.67093449556 32.07093449556 C 40.7180089112114 30.076280736824334 44.33209743718509 29 48 29 C 51.66790256281492 29 55.28199108878863 30.07628073682434 58.32906550444 32.07093449556 L 70.52671991522 19.87328008478 C 64.13311234912616 14.815783911175048 56.17770553947789 12 48 12 C 39.82229446052211 12 31.866887650873828 14.815783911175048 25.47328008478 19.87328008478 Z  M 76.12671991522 25.47328008478 L 63.92906550444 37.67093449556 C 65.92371926317567 40.7180089112114 67 44.33209743718509 67 48 C 67 51.66790256281491 65.92371926317567 55.2819910887886 63.92906550444 58.32906550444 L 76.12671991522 70.52671991522 C 81.18421608882495 64.13311234912616 84 56.17770553947789 84 48 C 84 39.82229446052211 81.18421608882495 31.866887650873828 76.12671991522 25.47328008478 Z  M 70.52671991522 76.12671991522 L 58.32906550444 63.92906550444 C 55.28199108878863 65.92371926317566 51.66790256281492 67 48 67 C 44.33209743718509 67 40.7180089112114 65.92371926317567 37.67093449556 63.92906550444 L 25.47328008478 76.12671991522 C 31.866887650873828 81.18421608882495 39.82229446052211 84 48 84 C 56.17770553947789 84 64.13311234912616 81.18421608882495 70.52671991522 76.12671991522 Z  M 4 48 C 4 59.7 8.6 70.9 16.9 79.1 C 25.1 87.4 36.3 92 48 92 C 59.7 92 70.9 87.4 79.1 79.1 C 87.4 70.9 92 59.7 92 48 C 92 36.3 87.4 25.1 79.1 16.9 C 70.9 8.6 59.7 4 48 4 C 36.3 4 25.1 8.6 16.9 16.9 C 8.6 25.1 4 36.3 4 48 L 4 48 Z  M 37 48 C 37 50.9 38.2 53.7 40.2 55.8 C 42.3 57.8 45.1 59 48 59 C 50.9 59 53.7 57.8 55.8 55.8 C 57.8 53.7 59 50.9 59 48 C 59 45.1 57.8 42.3 55.8 40.2 C 53.7 38.2 50.9 37 48 37 C 45.1 37 42.3 38.2 40.2 40.2 C 38.2 42.3 37 45.1 37 48 L 37 48 Z " fill-rule="evenodd" fill="white" stroke="none"/></mask><path d=" M 19.87328008478 25.47328008478 L 32.07093449556 37.67093449556 C 30.07628073682434 40.71800891121137 29 44.33209743718508 29 48 C 29 51.66790256281492 30.07628073682434 55.28199108878863 32.07093449556 58.32906550444 L 19.87328008478 70.52671991522 C 14.815783911175048 64.13311234912616 12 56.17770553947789 12 48 L 12 48 C 12 39.82229446052211 14.815783911175048 31.866887650873828 19.87328008478 25.47328008478 Z  M 25.47328008478 19.87328008478 L 37.67093449556 32.07093449556 C 40.7180089112114 30.076280736824334 44.33209743718509 29 48 29 C 51.66790256281492 29 55.28199108878863 30.07628073682434 58.32906550444 32.07093449556 L 70.52671991522 19.87328008478 C 64.13311234912616 14.815783911175048 56.17770553947789 12 48 12 C 39.82229446052211 12 31.866887650873828 14.815783911175048 25.47328008478 19.87328008478 Z  M 76.12671991522 25.47328008478 L 63.92906550444 37.67093449556 C 65.92371926317567 40.7180089112114 67 44.33209743718509 67 48 C 67 51.66790256281491 65.92371926317567 55.2819910887886 63.92906550444 58.32906550444 L 76.12671991522 70.52671991522 C 81.18421608882495 64.13311234912616 84 56.17770553947789 84 48 C 84 39.82229446052211 81.18421608882495 31.866887650873828 76.12671991522 25.47328008478 Z  M 70.52671991522 76.12671991522 L 58.32906550444 63.92906550444 C 55.28199108878863 65.92371926317566 51.66790256281492 67 48 67 C 44.33209743718509 67 40.7180089112114 65.92371926317567 37.67093449556 63.92906550444 L 25.47328008478 76.12671991522 C 31.866887650873828 81.18421608882495 39.82229446052211 84 48 84 C 56.17770553947789 84 64.13311234912616 81.18421608882495 70.52671991522 76.12671991522 Z  M 4 48 C 4 59.7 8.6 70.9 16.9 79.1 C 25.1 87.4 36.3 92 48 92 C 59.7 92 70.9 87.4 79.1 79.1 C 87.4 70.9 92 59.7 92 48 C 92 36.3 87.4 25.1 79.1 16.9 C 70.9 8.6 59.7 4 48 4 C 36.3 4 25.1 8.6 16.9 16.9 C 8.6 25.1 4 36.3 4 48 L 4 48 Z  M 37 48 C 37 50.9 38.2 53.7 40.2 55.8 C 42.3 57.8 45.1 59 48 59 C 50.9 59 53.7 57.8 55.8 55.8 C 57.8 53.7 59 50.9 59 48 C 59 45.1 57.8 42.3 55.8 40.2 C 53.7 38.2 50.9 37 48 37 C 45.1 37 42.3 38.2 40.2 40.2 C 38.2 42.3 37 45.1 37 48 L 37 48 Z " fill-rule="evenodd" fill="none" stroke="none" stroke-width="16" mask="url(#_mask_oXNku9m744d50f1m049TdMxIlpU7RUxD)"/></svg>