<svg xmlns="http://www.w3.org/2000/svg" width="96" height="96"><path d="M19.963 35.753V79.9h56V35.753L49.463 16.9q-.895-.4-1.5-.4-.606 0-1.5.4l-26.5 18.853zm64 5.692V79.9c0 2.1-.8 4.2-2.3 5.7-1.5 1.5-3.6 2.3-5.7 2.3h-56c-2.1 0-4.2-.8-5.7-2.3-1.5-1.5-2.3-3.6-2.3-5.7V41.445l-5.7 4.055c-.8.7-1.9.9-3 .7-1-.2-1.9-.7-2.6-1.6-.6-.9-.8-1.9-.6-3 .1-1 .7-2 1.6-2.6l41.3-29.4q2.962-1.5 5-1.5 2.037 0 5 1.5l41.3 29.4c.9.6 1.5 1.6 1.6 2.6.2 1.1 0 2.1-.6 3-.7.9-1.6 1.4-2.6 1.6-1.1.2-2.2 0-3-.7l-5.7-4.055z" fill-rule="evenodd"/></svg>