<?xml version="1.0" standalone="no"?><!-- Generator: Gravit.io --><svg xmlns="http://www.w3.org/2000/svg" xmlns:xlink="http://www.w3.org/1999/xlink" width="96" height="96"><path d=" M 19.962500572204583 35.75323383084999 L 19.962500572204583 79.89999999999999 L 75.96250057220459 79.89999999999999 L 75.96250057220459 35.75323383084999 L 49.46250057220458 16.89999999999999 Q 48.56835145381479 16.499999999999993 47.96250057220458 16.499999999999993 Q 47.356649690594374 16.499999999999993 46.46250057220458 16.89999999999999 L 19.962500572204583 35.75323383084999 Z  M 83.96250057220459 41.44477611939999 L 83.96250057220459 79.89999999999999 C 83.96250057220459 81.99999999999999 83.16250057220458 84.1 81.66250057220458 85.6 C 80.16250057220458 87.1 78.06250057220458 87.89999999999999 75.96250057220459 87.89999999999999 L 19.962500572204583 87.89999999999999 C 17.86250057220458 87.89999999999999 15.762500572204583 87.1 14.262500572204583 85.6 C 12.762500572204583 84.1 11.962500572204583 81.99999999999999 11.962500572204583 79.89999999999999 L 11.962500572204583 41.44477611939999 L 6.262500572204583 45.49999999999999 C 5.462500572204583 46.19999999999999 4.362500572204583 46.39999999999999 3.2625005722045826 46.19999999999999 C 2.2625005722045826 45.99999999999999 1.3625005722045826 45.49999999999999 0.6625005722045827 44.599999999999994 C 0.06250057220458274 43.69999999999999 -0.13749942779541727 42.69999999999999 0.06250057220458274 41.599999999999994 C 0.16250057220458275 40.599999999999994 0.7625005722045828 39.599999999999994 1.6625005722045827 38.99999999999999 L 42.96250057220458 9.59999999999999 Q 45.92526863348256 8.09999999999999 47.96250057220458 8.09999999999999 Q 49.999732510926606 8.09999999999999 52.96250057220458 9.59999999999999 L 94.26250057220457 38.99999999999999 C 95.16250057220458 39.599999999999994 95.76250057220457 40.599999999999994 95.8625005722046 41.599999999999994 C 96.06250057220458 42.69999999999999 95.8625005722046 43.69999999999999 95.26250057220457 44.599999999999994 C 94.56250057220458 45.49999999999999 93.66250057220458 45.99999999999999 92.66250057220458 46.19999999999999 C 91.56250057220458 46.39999999999999 90.46250057220459 46.19999999999999 89.66250057220458 45.49999999999999 L 83.96250057220459 41.44477611939999 Z " fill-rule="evenodd" fill="#454545" stroke="none"/><mask id="_mask_f8DlQew2eUMdFdFWlmrOY6vMICbuWTbX"><path d=" M 19.962500572204583 35.75323383084999 L 19.962500572204583 79.89999999999999 L 75.96250057220459 79.89999999999999 L 75.96250057220459 35.75323383084999 L 49.46250057220458 16.89999999999999 Q 48.56835145381479 16.499999999999993 47.96250057220458 16.499999999999993 Q 47.356649690594374 16.499999999999993 46.46250057220458 16.89999999999999 L 19.962500572204583 35.75323383084999 Z  M 83.96250057220459 41.44477611939999 L 83.96250057220459 79.89999999999999 C 83.96250057220459 81.99999999999999 83.16250057220458 84.1 81.66250057220458 85.6 C 80.16250057220458 87.1 78.06250057220458 87.89999999999999 75.96250057220459 87.89999999999999 L 19.962500572204583 87.89999999999999 C 17.86250057220458 87.89999999999999 15.762500572204583 87.1 14.262500572204583 85.6 C 12.762500572204583 84.1 11.962500572204583 81.99999999999999 11.962500572204583 79.89999999999999 L 11.962500572204583 41.44477611939999 L 6.262500572204583 45.49999999999999 C 5.462500572204583 46.19999999999999 4.362500572204583 46.39999999999999 3.2625005722045826 46.19999999999999 C 2.2625005722045826 45.99999999999999 1.3625005722045826 45.49999999999999 0.6625005722045827 44.599999999999994 C 0.06250057220458274 43.69999999999999 -0.13749942779541727 42.69999999999999 0.06250057220458274 41.599999999999994 C 0.16250057220458275 40.599999999999994 0.7625005722045828 39.599999999999994 1.6625005722045827 38.99999999999999 L 42.96250057220458 9.59999999999999 Q 45.92526863348256 8.09999999999999 47.96250057220458 8.09999999999999 Q 49.999732510926606 8.09999999999999 52.96250057220458 9.59999999999999 L 94.26250057220457 38.99999999999999 C 95.16250057220458 39.599999999999994 95.76250057220457 40.599999999999994 95.8625005722046 41.599999999999994 C 96.06250057220458 42.69999999999999 95.8625005722046 43.69999999999999 95.26250057220457 44.599999999999994 C 94.56250057220458 45.49999999999999 93.66250057220458 45.99999999999999 92.66250057220458 46.19999999999999 C 91.56250057220458 46.39999999999999 90.46250057220459 46.19999999999999 89.66250057220458 45.49999999999999 L 83.96250057220459 41.44477611939999 Z " fill-rule="evenodd" fill="white" stroke="none"/></mask><path d=" M 19.962500572204583 35.75323383084999 L 19.962500572204583 79.89999999999999 L 75.96250057220459 79.89999999999999 L 75.96250057220459 35.75323383084999 L 49.46250057220458 16.89999999999999 Q 48.56835145381479 16.499999999999993 47.96250057220458 16.499999999999993 Q 47.356649690594374 16.499999999999993 46.46250057220458 16.89999999999999 L 19.962500572204583 35.75323383084999 Z  M 83.96250057220459 41.44477611939999 L 83.96250057220459 79.89999999999999 C 83.96250057220459 81.99999999999999 83.16250057220458 84.1 81.66250057220458 85.6 C 80.16250057220458 87.1 78.06250057220458 87.89999999999999 75.96250057220459 87.89999999999999 L 19.962500572204583 87.89999999999999 C 17.86250057220458 87.89999999999999 15.762500572204583 87.1 14.262500572204583 85.6 C 12.762500572204583 84.1 11.962500572204583 81.99999999999999 11.962500572204583 79.89999999999999 L 11.962500572204583 41.44477611939999 L 6.262500572204583 45.49999999999999 C 5.462500572204583 46.19999999999999 4.362500572204583 46.39999999999999 3.2625005722045826 46.19999999999999 C 2.2625005722045826 45.99999999999999 1.3625005722045826 45.49999999999999 0.6625005722045827 44.599999999999994 C 0.06250057220458274 43.69999999999999 -0.13749942779541727 42.69999999999999 0.06250057220458274 41.599999999999994 C 0.16250057220458275 40.599999999999994 0.7625005722045828 39.599999999999994 1.6625005722045827 38.99999999999999 L 42.96250057220458 9.59999999999999 Q 45.92526863348256 8.09999999999999 47.96250057220458 8.09999999999999 Q 49.999732510926606 8.09999999999999 52.96250057220458 9.59999999999999 L 94.26250057220457 38.99999999999999 C 95.16250057220458 39.599999999999994 95.76250057220457 40.599999999999994 95.8625005722046 41.599999999999994 C 96.06250057220458 42.69999999999999 95.8625005722046 43.69999999999999 95.26250057220457 44.599999999999994 C 94.56250057220458 45.49999999999999 93.66250057220458 45.99999999999999 92.66250057220458 46.19999999999999 C 91.56250057220458 46.39999999999999 90.46250057220459 46.19999999999999 89.66250057220458 45.49999999999999 L 83.96250057220459 41.44477611939999 Z " fill-rule="evenodd" fill="none" stroke="none" stroke-width="16" mask="url(#_mask_f8DlQew2eUMdFdFWlmrOY6vMICbuWTbX)"/></svg>