<svg xmlns="http://www.w3.org/2000/svg" style="isolation:isolate" width="96" height="96"><path d="M29.675 12A19.404 19.404 0 0 1 33.9 5.9C37.6 2.1 42.7 0 48 0c5.3 0 10.4 2.1 14.1 5.9a19.404 19.404 0 0 1 4.225 6.1H68c4.2 0 8.3 1.7 11.3 4.7S84 23.8 84 28v40c0 4.2-1.7 8.3-4.7 11.3S72.2 84 68 84h-1.675a19.404 19.404 0 0 1-4.225 6.1C58.4 93.9 53.3 96 48 96c-5.3 0-10.4-2.1-14.1-5.9a19.404 19.404 0 0 1-4.225-6.1H28c-4.2 0-8.3-1.7-11.3-4.7S12 72.2 12 68V28c0-4.2 1.7-8.3 4.7-11.3S23.8 12 28 12h1.675zM28 20v56c-2.1 0-4.2-.8-5.7-2.3-1.5-1.5-2.3-3.6-2.3-5.7V28c0-2.1.8-4.2 2.3-5.7 1.5-1.5 3.6-2.3 5.7-2.3zm40 0v56c2.1 0 4.2-.8 5.7-2.3 1.5-1.5 2.3-3.6 2.3-5.7V28c0-2.1-.8-4.2-2.3-5.7-1.5-1.5-3.6-2.3-5.7-2.3zM48 8c3.2 0 6.2 1.3 8.5 3.5 2.2 2.3 3.5 5.3 3.5 8.5v56c0 3.2-1.3 6.2-3.5 8.5-2.3 2.2-5.3 3.5-8.5 3.5s-6.2-1.3-8.5-3.5C37.3 82.2 36 79.2 36 76V20c0-3.2 1.3-6.2 3.5-8.5C41.8 9.3 44.8 8 48 8zm2.2 36.5c2.3.9 3.7 3.2 3.6 5.6-.3 2.7-1 5.3-2.2 7.7-.5.9-.8 1.8-1.1 2.7 1.1.4 2.1 1.1 2.8 2 1.3 1.5 2 3.5 1.8 5.5-.2 1.4-.5 2.6-.9 3.9-.8 2-1.6 4-2.7 5.9-.4 1-1.3 1.7-2.3 2-1 .3-2.1.2-3-.3-1-.4-1.7-1.3-2-2.3-.3-1-.2-2.1.3-3 .8-1.7 1.5-3.4 2.2-5.1l.3-1.2c-2.9-.5-4.9-3.1-4.8-6 .3-2.7 1-5.3 2.2-7.7.5-.9.8-1.8 1.1-2.8-2.3-1.1-3.6-3.4-3.5-5.9.3-2.8.9-5.5 2.1-8 .3-.8.6-1.6.8-2.4-.8-.5-1.4-1.1-1.9-1.8-1-1.6-1.4-3.4-1.3-5.2.1-1.3.3-2.5.6-3.7.6-2 1.2-3.9 2-5.9.4-.9 1.1-1.7 2.1-2.2 1-.4 2.1-.4 3.1 0 .9.4 1.7 1.1 2.2 2.1.4 1 .4 2.1 0 3.1-.6 1.6-1.2 3.3-1.7 5l-.3 1.8c2.3.8 3.7 3.1 3.5 5.5-.2 2.4-.8 4.8-1.8 7-.6 1.1-.9 2.4-1.2 3.7z" fill-rule="evenodd"/></svg>