<svg xmlns="http://www.w3.org/2000/svg" style="isolation:isolate" width="96" height="96"><path d="M52 68h10.7c2.1 0 4.1-.8 5.6-2.3 1.5-1.5 2.4-3.6 2.4-5.7V26.7c0-6-2.4-11.8-6.7-16.1C59.8 6.4 54 4 48 4s-11.8 2.4-16 6.6c-4.3 4.3-6.7 10.1-6.7 16.1V60c0 2.1.9 4.2 2.4 5.7s3.5 2.3 5.6 2.3H44v20c0 1.1.4 2.1 1.2 2.8.7.8 1.7 1.2 2.8 1.2 1.1 0 2.1-.4 2.8-1.2.8-.7 1.2-1.7 1.2-2.8V68zm10.7-8V26.7c0-3.9-1.6-7.7-4.3-10.4A14.6 14.6 0 0 0 48 12c-3.9 0-7.6 1.5-10.4 4.3-2.7 2.7-4.3 6.5-4.3 10.4V60h29.4z" fill-rule="evenodd"/></svg>