<svg xmlns="http://www.w3.org/2000/svg" width="96" height="96"><path d="M12 4h72c2.1 0 4.2.8 5.7 2.3C91.2 7.8 92 9.9 92 12v72c0 2.1-.8 4.2-2.3 5.7-1.5 1.5-3.6 2.3-5.7 2.3H12c-2.1 0-4.2-.8-5.7-2.3C4.8 88.2 4 86.1 4 84V12c0-2.1.8-4.2 2.3-5.7C7.8 4.8 9.9 4 12 4zm0 8h72v72H12V12zm4 16c0-3.2 1.3-6.2 3.5-8.5 2.3-2.2 5.3-3.5 8.5-3.5s6.2 1.3 8.5 3.5c2.2 2.3 3.5 5.3 3.5 8.5s-1.3 6.2-3.5 8.5C34.2 38.7 31.2 40 28 40s-6.2-1.3-8.5-3.5C17.3 34.2 16 31.2 16 28zm8 0c0-1.1.4-2.1 1.2-2.8.7-.8 1.7-1.2 2.8-1.2 1.1 0 2.1.4 2.8 1.2.8.7 1.2 1.7 1.2 2.8 0 1.1-.4 2.1-1.2 2.8-.7.8-1.7 1.2-2.8 1.2-1.1 0-2.1-.4-2.8-1.2-.8-.7-1.2-1.7-1.2-2.8zm35.4 26.3L41.7 72c-1.5 1.5-3.6 2.3-5.7 2.3s-4.2-.8-5.7-2.3L28 69.7l-5.2 5.1c-.7.8-1.7 1.2-2.8 1.2-1.1 0-2.1-.4-2.8-1.2-.8-.7-1.2-1.7-1.2-2.8 0-1.1.4-2.1 1.2-2.8l5.1-5.2c1.5-1.5 3.6-2.3 5.7-2.3s4.2.8 5.7 2.3l2.3 2.3 18.9-18.8 3-1.4c.6-.2 1.1-.3 1.7-.3 2.5.1 4.7 1.3 6 3.3l13.7 20.7c.6.9.8 1.9.6 3-.2 1-.8 1.9-1.7 2.5-.9.6-1.9.8-3 .6-1-.2-1.9-.8-2.5-1.7L59.4 54.3z" fill-rule="evenodd" fill="#454545"/></svg>