<?xml version="1.0" standalone="no"?><!-- Generator: Gravit.io --><svg xmlns="http://www.w3.org/2000/svg" xmlns:xlink="http://www.w3.org/1999/xlink" width="96" height="96"><path d=" M 12 4 L 84 4 C 86.1 4 88.2 4.8 89.7 6.3 C 91.2 7.8 92 9.9 92 12 L 92 84 C 92 86.1 91.2 88.2 89.7 89.7 C 88.2 91.2 86.1 92 84 92 L 12 92 C 9.9 92 7.8 91.2 6.3 89.7 C 4.8 88.2 4 86.1 4 84 L 4 12 C 4 9.9 4.8 7.8 6.3 6.3 C 7.8 4.8 9.9 4 12 4 Z  M 12 12 L 84 12 L 84 84 L 12 84 L 12 12 Z  M 16 28 C 16 24.8 17.3 21.8 19.5 19.5 C 21.8 17.3 24.8 16 28 16 C 31.2 16 34.2 17.3 36.5 19.5 C 38.7 21.8 40 24.8 40 28 C 40 31.2 38.7 34.2 36.5 36.5 C 34.2 38.7 31.2 40 28 40 C 24.8 40 21.8 38.7 19.5 36.5 C 17.3 34.2 16 31.2 16 28 Z  M 24 28 C 24 26.9 24.4 25.9 25.2 25.2 C 25.9 24.4 26.9 24 28 24 C 29.1 24 30.1 24.4 30.8 25.2 C 31.6 25.9 32 26.9 32 28 C 32 29.1 31.6 30.1 30.8 30.8 C 30.1 31.6 29.1 32 28 32 C 26.9 32 25.9 31.6 25.2 30.8 C 24.4 30.1 24 29.1 24 28 Z  M 59.4 54.3 L 41.7 72 C 41.7 72 41.7 72 41.7 72 C 40.2 73.5 38.1 74.3 36 74.3 C 33.9 74.3 31.8 73.5 30.3 72 C 30.3 72 30.3 72 30.3 72 L 28 69.7 L 22.8 74.8 C 22.1 75.6 21.1 76 20 76 C 18.9 76 17.9 75.6 17.2 74.8 C 16.4 74.1 16 73.1 16 72 C 16 70.9 16.4 69.9 17.2 69.2 L 22.3 64 C 22.3 64 22.3 64 22.3 64 C 23.8 62.5 25.9 61.7 28 61.7 C 30.1 61.7 32.2 62.5 33.7 64 C 33.7 64 33.7 64 33.7 64 L 36 66.3 L 54.9 47.5 L 57.9 46.1 C 58.5 45.9 59 45.8 59.6 45.8 C 62.1 45.9 64.3 47.1 65.6 49.1 L 79.3 69.8 C 79.9 70.7 80.1 71.7 79.9 72.8 C 79.7 73.8 79.1 74.7 78.2 75.3 C 77.3 75.9 76.3 76.1 75.2 75.9 C 74.2 75.7 73.3 75.1 72.7 74.2 L 59.4 54.3 Z " fill-rule="evenodd" fill="#454545" stroke="none"/><mask id="_mask_drlcNvTlkOVOxwE4JZuigR8NImTLeRXf"><path d=" M 12 4 L 84 4 C 86.1 4 88.2 4.8 89.7 6.3 C 91.2 7.8 92 9.9 92 12 L 92 84 C 92 86.1 91.2 88.2 89.7 89.7 C 88.2 91.2 86.1 92 84 92 L 12 92 C 9.9 92 7.8 91.2 6.3 89.7 C 4.8 88.2 4 86.1 4 84 L 4 12 C 4 9.9 4.8 7.8 6.3 6.3 C 7.8 4.8 9.9 4 12 4 Z  M 12 12 L 84 12 L 84 84 L 12 84 L 12 12 Z  M 16 28 C 16 24.8 17.3 21.8 19.5 19.5 C 21.8 17.3 24.8 16 28 16 C 31.2 16 34.2 17.3 36.5 19.5 C 38.7 21.8 40 24.8 40 28 C 40 31.2 38.7 34.2 36.5 36.5 C 34.2 38.7 31.2 40 28 40 C 24.8 40 21.8 38.7 19.5 36.5 C 17.3 34.2 16 31.2 16 28 Z  M 24 28 C 24 26.9 24.4 25.9 25.2 25.2 C 25.9 24.4 26.9 24 28 24 C 29.1 24 30.1 24.4 30.8 25.2 C 31.6 25.9 32 26.9 32 28 C 32 29.1 31.6 30.1 30.8 30.8 C 30.1 31.6 29.1 32 28 32 C 26.9 32 25.9 31.6 25.2 30.8 C 24.4 30.1 24 29.1 24 28 Z  M 59.4 54.3 L 41.7 72 C 41.7 72 41.7 72 41.7 72 C 40.2 73.5 38.1 74.3 36 74.3 C 33.9 74.3 31.8 73.5 30.3 72 C 30.3 72 30.3 72 30.3 72 L 28 69.7 L 22.8 74.8 C 22.1 75.6 21.1 76 20 76 C 18.9 76 17.9 75.6 17.2 74.8 C 16.4 74.1 16 73.1 16 72 C 16 70.9 16.4 69.9 17.2 69.2 L 22.3 64 C 22.3 64 22.3 64 22.3 64 C 23.8 62.5 25.9 61.7 28 61.7 C 30.1 61.7 32.2 62.5 33.7 64 C 33.7 64 33.7 64 33.7 64 L 36 66.3 L 54.9 47.5 L 57.9 46.1 C 58.5 45.9 59 45.8 59.6 45.8 C 62.1 45.9 64.3 47.1 65.6 49.1 L 79.3 69.8 C 79.9 70.7 80.1 71.7 79.9 72.8 C 79.7 73.8 79.1 74.7 78.2 75.3 C 77.3 75.9 76.3 76.1 75.2 75.9 C 74.2 75.7 73.3 75.1 72.7 74.2 L 59.4 54.3 Z " fill-rule="evenodd" fill="white" stroke="none"/></mask><path d=" M 12 4 L 84 4 C 86.1 4 88.2 4.8 89.7 6.3 C 91.2 7.8 92 9.9 92 12 L 92 84 C 92 86.1 91.2 88.2 89.7 89.7 C 88.2 91.2 86.1 92 84 92 L 12 92 C 9.9 92 7.8 91.2 6.3 89.7 C 4.8 88.2 4 86.1 4 84 L 4 12 C 4 9.9 4.8 7.8 6.3 6.3 C 7.8 4.8 9.9 4 12 4 Z  M 12 12 L 84 12 L 84 84 L 12 84 L 12 12 Z  M 16 28 C 16 24.8 17.3 21.8 19.5 19.5 C 21.8 17.3 24.8 16 28 16 C 31.2 16 34.2 17.3 36.5 19.5 C 38.7 21.8 40 24.8 40 28 C 40 31.2 38.7 34.2 36.5 36.5 C 34.2 38.7 31.2 40 28 40 C 24.8 40 21.8 38.7 19.5 36.5 C 17.3 34.2 16 31.2 16 28 Z  M 24 28 C 24 26.9 24.4 25.9 25.2 25.2 C 25.9 24.4 26.9 24 28 24 C 29.1 24 30.1 24.4 30.8 25.2 C 31.6 25.9 32 26.9 32 28 C 32 29.1 31.6 30.1 30.8 30.8 C 30.1 31.6 29.1 32 28 32 C 26.9 32 25.9 31.6 25.2 30.8 C 24.4 30.1 24 29.1 24 28 Z  M 59.4 54.3 L 41.7 72 C 41.7 72 41.7 72 41.7 72 C 40.2 73.5 38.1 74.3 36 74.3 C 33.9 74.3 31.8 73.5 30.3 72 C 30.3 72 30.3 72 30.3 72 L 28 69.7 L 22.8 74.8 C 22.1 75.6 21.1 76 20 76 C 18.9 76 17.9 75.6 17.2 74.8 C 16.4 74.1 16 73.1 16 72 C 16 70.9 16.4 69.9 17.2 69.2 L 22.3 64 C 22.3 64 22.3 64 22.3 64 C 23.8 62.5 25.9 61.7 28 61.7 C 30.1 61.7 32.2 62.5 33.7 64 C 33.7 64 33.7 64 33.7 64 L 36 66.3 L 54.9 47.5 L 57.9 46.1 C 58.5 45.9 59 45.8 59.6 45.8 C 62.1 45.9 64.3 47.1 65.6 49.1 L 79.3 69.8 C 79.9 70.7 80.1 71.7 79.9 72.8 C 79.7 73.8 79.1 74.7 78.2 75.3 C 77.3 75.9 76.3 76.1 75.2 75.9 C 74.2 75.7 73.3 75.1 72.7 74.2 L 59.4 54.3 Z " fill-rule="evenodd" fill="none" stroke="none" stroke-width="16" mask="url(#_mask_drlcNvTlkOVOxwE4JZuigR8NImTLeRXf)"/></svg>