<?xml version="1.0" standalone="no"?><!-- Generator: Gravit.io --><svg xmlns="http://www.w3.org/2000/svg" xmlns:xlink="http://www.w3.org/1999/xlink" width="96" height="96"><path d=" M 4 48 C 4 36.3 8.6 25.1 16.9 16.9 C 25.1 8.6 36.3 4 48 4 C 59.7 4 70.9 8.6 79.1 16.9 C 87.4 25.1 92 36.3 92 48 C 92 59.7 87.4 70.9 79.1 79.1 C 70.9 87.4 59.7 92 48 92 C 36.3 92 25.1 87.4 16.9 79.1 C 8.6 70.9 4 59.7 4 48 Z  M 12 48 C 12 38.5 15.8 29.3 22.5 22.5 C 29.3 15.8 38.5 12 48 12 C 57.5 12 66.7 15.8 73.5 22.5 C 80.2 29.3 84 38.5 84 48 C 84 57.5 80.2 66.7 73.5 73.5 C 66.7 80.2 57.5 84 48 84 C 38.5 84 29.3 80.2 22.5 73.5 C 15.8 66.7 12 57.5 12 48 Z  M 44 48 C 44 46.9 44.4 45.9 45.2 45.2 C 45.9 44.4 46.9 44 48 44 C 49.1 44 50.1 44.4 50.8 45.2 C 51.6 45.9 52 46.9 52 48 L 52 64 C 52 65.1 51.6 66.1 50.8 66.8 C 50.1 67.6 49.1 68 48 68 C 46.9 68 45.9 67.6 45.2 66.8 C 44.4 66.1 44 65.1 44 64 L 44 48 Z  M 44 32 C 44 29.79233988198995 45.792339881989946 28 48 28 C 50.20766011801005 28 52 29.79233988198995 52 32 C 52 34.20766011801005 50.207660118010054 36 48 36 C 45.79233988198995 36 44 34.207660118010054 44 32 Z " fill-rule="evenodd" fill="#454545" stroke="none"/><mask id="_mask_ysE1H9jetWogHXtWr3oQJ4XbbJdZhygl"><path d=" M 4 48 C 4 36.3 8.6 25.1 16.9 16.9 C 25.1 8.6 36.3 4 48 4 C 59.7 4 70.9 8.6 79.1 16.9 C 87.4 25.1 92 36.3 92 48 C 92 59.7 87.4 70.9 79.1 79.1 C 70.9 87.4 59.7 92 48 92 C 36.3 92 25.1 87.4 16.9 79.1 C 8.6 70.9 4 59.7 4 48 Z  M 12 48 C 12 38.5 15.8 29.3 22.5 22.5 C 29.3 15.8 38.5 12 48 12 C 57.5 12 66.7 15.8 73.5 22.5 C 80.2 29.3 84 38.5 84 48 C 84 57.5 80.2 66.7 73.5 73.5 C 66.7 80.2 57.5 84 48 84 C 38.5 84 29.3 80.2 22.5 73.5 C 15.8 66.7 12 57.5 12 48 Z  M 44 48 C 44 46.9 44.4 45.9 45.2 45.2 C 45.9 44.4 46.9 44 48 44 C 49.1 44 50.1 44.4 50.8 45.2 C 51.6 45.9 52 46.9 52 48 L 52 64 C 52 65.1 51.6 66.1 50.8 66.8 C 50.1 67.6 49.1 68 48 68 C 46.9 68 45.9 67.6 45.2 66.8 C 44.4 66.1 44 65.1 44 64 L 44 48 Z  M 44 32 C 44 29.79233988198995 45.792339881989946 28 48 28 C 50.20766011801005 28 52 29.79233988198995 52 32 C 52 34.20766011801005 50.207660118010054 36 48 36 C 45.79233988198995 36 44 34.207660118010054 44 32 Z " fill-rule="evenodd" fill="white" stroke="none"/></mask><path d=" M 4 48 C 4 36.3 8.6 25.1 16.9 16.9 C 25.1 8.6 36.3 4 48 4 C 59.7 4 70.9 8.6 79.1 16.9 C 87.4 25.1 92 36.3 92 48 C 92 59.7 87.4 70.9 79.1 79.1 C 70.9 87.4 59.7 92 48 92 C 36.3 92 25.1 87.4 16.9 79.1 C 8.6 70.9 4 59.7 4 48 Z  M 12 48 C 12 38.5 15.8 29.3 22.5 22.5 C 29.3 15.8 38.5 12 48 12 C 57.5 12 66.7 15.8 73.5 22.5 C 80.2 29.3 84 38.5 84 48 C 84 57.5 80.2 66.7 73.5 73.5 C 66.7 80.2 57.5 84 48 84 C 38.5 84 29.3 80.2 22.5 73.5 C 15.8 66.7 12 57.5 12 48 Z  M 44 48 C 44 46.9 44.4 45.9 45.2 45.2 C 45.9 44.4 46.9 44 48 44 C 49.1 44 50.1 44.4 50.8 45.2 C 51.6 45.9 52 46.9 52 48 L 52 64 C 52 65.1 51.6 66.1 50.8 66.8 C 50.1 67.6 49.1 68 48 68 C 46.9 68 45.9 67.6 45.2 66.8 C 44.4 66.1 44 65.1 44 64 L 44 48 Z  M 44 32 C 44 29.79233988198995 45.792339881989946 28 48 28 C 50.20766011801005 28 52 29.79233988198995 52 32 C 52 34.20766011801005 50.207660118010054 36 48 36 C 45.79233988198995 36 44 34.207660118010054 44 32 Z " fill-rule="evenodd" fill="none" stroke="none" stroke-width="16" mask="url(#_mask_ysE1H9jetWogHXtWr3oQJ4XbbJdZhygl)"/></svg>