<svg xmlns="http://www.w3.org/2000/svg" style="isolation:isolate" width="96" height="96"><path d="M40 36c-1.1 0-2.1-.4-2.8-1.2-.8-.7-1.2-1.7-1.2-2.8 0-1.1.4-2.1 1.2-2.8.7-.8 1.7-1.2 2.8-1.2h24c1.1 0 2.1.4 2.8 1.2.8.7 1.2 1.7 1.2 2.8 0 1.1-.4 2.1-1.2 2.8-.7.8-1.7 1.2-2.8 1.2H40zm0-12c-1.1 0-2.1-.4-2.8-1.2-.8-.7-1.2-1.7-1.2-2.8 0-1.1.4-2.1 1.2-2.8.7-.8 1.7-1.2 2.8-1.2h24c1.1 0 2.1.4 2.8 1.2.8.7 1.2 1.7 1.2 2.8 0 1.1-.4 2.1-1.2 2.8-.7.8-1.7 1.2-2.8 1.2H40zm-16-4c0-2.208 1.792-4 4-4s4 1.792 4 4-1.792 4-4 4-4-1.792-4-4zm-4 15.366L48 54.3l28-18.934V12H20v23.366zm-8-5.106l-.9-.36c-.7-.2-1.4-.3-2-.2-3.2.5-5.4 3.4-5.1 6.5V84c0 2.1.8 4.2 2.3 5.7C7.8 91.2 9.9 92 12 92h72c2.1 0 4.2-.8 5.7-2.3 1.5-1.5 2.3-3.6 2.3-5.7V36.2c.3-3.1-1.9-6-5.1-6.5-.6-.1-1.3 0-2 .2l-.9.36V12c0-2.1-.8-4.2-2.3-5.7C80.2 4.8 78.1 4 76 4H20c-2.1 0-4.2.8-5.7 2.3C12.8 7.8 12 9.9 12 12v18.26zm0 9.24V84h72V39.5L51.4 61.7q-2.027.9-3.4.9-1.373 0-3.4-.9L12 39.5z" fill-rule="evenodd"/></svg>