<svg xmlns="http://www.w3.org/2000/svg" style="isolation:isolate" width="96" height="96"><path d="M83.525 57.213q5.013-5.729 3.4-9.2c-1.226-2.642-4.8-4-6.3-4h-32c-3.9 0-7.6-2.2-9.4-5.7-1.5-2.9-3.5-5.5-6-7.7-1.5-1.3-2.995-2.062-5.2-2.6-5.815-1.42-11.5 2.2-14.2 5.8-3.3 4-5.2 9-5.2 14.2 0 5.2 1.9 10.2 5.2 14.2 2.7 3.6 6.356 6.2 11.4 6.1 3.32-.067 6.5-1.6 8-2.9 2.5-2.1 4.5-4.7 6-7.6 1.1-2.3 3.3-3.8 5.9-4 .6 0 3.001.648 4.6 1.7q1.315.864 2.9 2.8l2.3-2.3c1.5-1.5 3.6-2.3 5.7-2.3s4.2.8 5.7 2.3l2.3 2.3 2.3-2.3c1.5-1.5 3.6-2.3 5.7-2.3s4.2.8 5.7 2.3l1.2 1.2zm-37.9 5.5l1.3 1.3c1.5 1.5 3.6 2.3 5.7 2.3s4.2-.8 5.7-2.3l2.3-2.3 2.3 2.3c1.5 1.5 3.6 2.3 5.7 2.3s4.2-.8 5.7-2.3l2.3-2.3q4.122 4.722 7.5 4.4 2.77-.264 5.9-4 5.862-7.423 5.3-12.8c-.298-2.862-.953-4.54-2.6-6.9-3.057-4.381-8.5-6.4-12.1-6.4h-32c-1 0-1.8-.5-2.3-1.4-1.9-3.8-4.6-7.2-7.8-10-2.6-2.3-5.23-3.652-9.1-4.5-8.983-1.97-17.7 3.2-21.9 8.7-4.4 5.4-6.9 12.2-6.9 19.2s2.5 13.8 6.9 19.2c4.2 5.5 9.934 9.199 17.7 9.1 5.532-.071 10.7-2.6 13.3-4.9 2.8-2.5 5.3-5.4 7.1-8.7z" fill-rule="evenodd"/></svg>