<svg xmlns="http://www.w3.org/2000/svg" width="96" height="96"><path d="M69.73 60.656l-2.4 3.9c-1.1 2.1-3.2 3.4-5.6 3.5-2.3-.1-4.4-1.4-5.5-3.5q-3.7-6.8-5.3-6.2c-1.6.6-2.9 1.7-3.8 3.2-2.5 4.2-5.8 7.8-9.8 10.8-3 2.2-4.9 3.6-11.6 3.7-6.7.1-13.1-2.7-17.5-7.8-4.5-5.8-6.8-12.9-6.5-20.2-.3-7.3 2-14.5 6.5-20.3 4.4-5 10.027-8.053 17.5-7.8 4.761.161 7.6.9 11.6 3.8s7.3 6.6 9.8 10.8c.6.9 1.6 1.5 2.6 1.5h37.9c1.6-.1 3.2.4 4.4 1.4 1.3 1 2.1 2.5 2.2 4.1.1.5.1 1.1-.1 1.6l-.5 1.9-10.4 19.2c-1 2.2-3.1 3.6-5.6 3.7-2.3 0-4.4-1.3-5.4-3.4l-2.5-3.9zm-8-2.3l-2.5-4.1c-1.7-2.6-4.6-4.2-7.7-4.1q-.2 0-3.4.7c-3.3 1.2-6.1 3.5-7.9 6.5-1.9 3.4-4.5 6.2-7.6 8.5q-2.25 1.842-7 2.2c-4.3.1-8.4-1.7-11.3-4.9-3.3-4.3-4.9-9.7-4.6-15.1-.3-5.5 1.3-10.8 4.6-15.2 2.9-3.2 7-4.9 11.3-4.9q4.785.183 7 2.2c3.1 2.3 5.7 5.2 7.6 8.5 2 3.3 5.7 5.4 9.5 5.4h35.3l-7.5 14-2.2-3.6c-1.1-2.1-3.2-3.4-5.6-3.4-2.3 0-4.4 1.3-5.5 3.4l-2.5 3.9z" fill-rule="evenodd"/></svg>