<?xml version="1.0" standalone="no"?><!-- Generator: Gravit.io --><svg xmlns="http://www.w3.org/2000/svg" xmlns:xlink="http://www.w3.org/1999/xlink" width="96" height="96"><path d=" M 69.73017671934392 60.65602191681522 L 67.33017671934391 64.55602191681523 C 66.23017671934392 66.65602191681522 64.13017671934392 67.95602191681523 61.73017671934392 68.05602191681523 C 59.43017671934392 67.95602191681523 57.33017671934392 66.65602191681522 56.23017671934392 64.55602191681523 Q 52.53017671934392 57.756021916815214 50.93017671934392 58.35602191681522 C 49.33017671934392 58.95602191681522 48.03017671934392 60.056021916815226 47.13017671934392 61.556021916815226 C 44.63017671934392 65.75602191681523 41.33017671934392 69.35602191681522 37.33017671934392 72.35602191681522 C 34.33017671934392 74.55602191681523 32.43017671934392 75.95602191681523 25.73017671934392 76.05602191681523 C 19.03017671934392 76.15602191681522 12.63017671934392 73.35602191681522 8.23017671934392 68.25602191681523 C 3.7301767193439206 62.45602191681522 1.4301767193439203 55.35602191681522 1.7301767193439204 48.056021916815226 C 1.4301767193439203 40.75602191681523 3.7301767193439206 33.556021916815226 8.23017671934392 27.75602191681522 C 12.63017671934392 22.75602191681522 18.257191732404944 19.702695041850152 25.73017671934392 19.95602191681522 C 30.4912072561806 20.117416190939693 33.33017671934392 20.85602191681522 37.33017671934392 23.75602191681522 C 41.33017671934392 26.656021916815224 44.63017671934392 30.356021916815223 47.13017671934392 34.556021916815226 C 47.73017671934392 35.45602191681522 48.73017671934392 36.056021916815226 49.73017671934392 36.056021916815226 L 87.63017671934392 36.056021916815226 C 89.23017671934392 35.95602191681522 90.83017671934391 36.45602191681522 92.03017671934393 37.45602191681522 C 93.33017671934391 38.45602191681522 94.13017671934392 39.95602191681522 94.23017671934392 41.556021916815226 C 94.33017671934391 42.056021916815226 94.33017671934391 42.65602191681522 94.13017671934392 43.15602191681522 L 93.63017671934392 45.056021916815226 L 83.23017671934392 64.25602191681523 C 82.23017671934392 66.45602191681523 80.13017671934392 67.85602191681522 77.63017671934392 67.95602191681523 C 75.33017671934391 67.95602191681523 73.23017671934392 66.65602191681522 72.23017671934392 64.55602191681523 L 69.73017671934392 60.65602191681522 Z  M 61.73017671934392 58.35602191681522 Q 59.23017671934392 54.25602191681523 59.23017671934392 54.25602191681523 C 57.53017671934392 51.65602191681522 54.63017671934392 50.056021916815226 51.53017671934392 50.15602191681522 Q 51.33017671934392 50.15602191681522 48.13017671934392 50.85602191681522 C 44.83017671934392 52.056021916815226 42.03017671934392 54.35602191681522 40.23017671934392 57.35602191681522 C 38.33017671934392 60.75602191681523 35.73017671934392 63.556021916815226 32.63017671934392 65.85602191681522 Q 30.380305856003726 67.69843616507198 25.630176719343922 68.05602191681523 C 21.33017671934392 68.15602191681522 17.23017671934392 66.35602191681522 14.330176719343921 63.15602191681522 C 11.03017671934392 58.85602191681522 9.43017671934392 53.45602191681522 9.73017671934392 48.056021916815226 C 9.43017671934392 42.556021916815226 11.03017671934392 37.25602191681523 14.330176719343921 32.85602191681522 C 17.23017671934392 29.656021916815224 21.33017671934392 27.95602191681522 25.630176719343922 27.95602191681522 Q 30.415191061907937 28.138612669701597 32.63017671934392 30.156021916815224 C 35.73017671934392 32.45602191681522 38.33017671934392 35.35602191681522 40.23017671934392 38.65602191681522 C 42.23017671934392 41.95602191681522 45.93017671934392 44.056021916815226 49.73017671934392 44.056021916815226 L 85.03017671934393 44.056021916815226 L 77.53017671934393 58.056021916815226 L 75.33017671934391 54.45602191681522 C 74.23017671934392 52.35602191681522 72.13017671934392 51.056021916815226 69.73017671934392 51.056021916815226 C 67.43017671934393 51.056021916815226 65.33017671934391 52.35602191681522 64.23017671934392 54.45602191681522 L 61.73017671934392 58.35602191681522 Z " fill-rule="evenodd" fill="#454545" stroke="none"/><mask id="_mask_hhCyqzSWdRChAgYrRank6GwvAc1KG4zd"><path d=" M 69.73017671934392 60.65602191681522 L 67.33017671934391 64.55602191681523 C 66.23017671934392 66.65602191681522 64.13017671934392 67.95602191681523 61.73017671934392 68.05602191681523 C 59.43017671934392 67.95602191681523 57.33017671934392 66.65602191681522 56.23017671934392 64.55602191681523 Q 52.53017671934392 57.756021916815214 50.93017671934392 58.35602191681522 C 49.33017671934392 58.95602191681522 48.03017671934392 60.056021916815226 47.13017671934392 61.556021916815226 C 44.63017671934392 65.75602191681523 41.33017671934392 69.35602191681522 37.33017671934392 72.35602191681522 C 34.33017671934392 74.55602191681523 32.43017671934392 75.95602191681523 25.73017671934392 76.05602191681523 C 19.03017671934392 76.15602191681522 12.63017671934392 73.35602191681522 8.23017671934392 68.25602191681523 C 3.7301767193439206 62.45602191681522 1.4301767193439203 55.35602191681522 1.7301767193439204 48.056021916815226 C 1.4301767193439203 40.75602191681523 3.7301767193439206 33.556021916815226 8.23017671934392 27.75602191681522 C 12.63017671934392 22.75602191681522 18.257191732404944 19.702695041850152 25.73017671934392 19.95602191681522 C 30.4912072561806 20.117416190939693 33.33017671934392 20.85602191681522 37.33017671934392 23.75602191681522 C 41.33017671934392 26.656021916815224 44.63017671934392 30.356021916815223 47.13017671934392 34.556021916815226 C 47.73017671934392 35.45602191681522 48.73017671934392 36.056021916815226 49.73017671934392 36.056021916815226 L 87.63017671934392 36.056021916815226 C 89.23017671934392 35.95602191681522 90.83017671934391 36.45602191681522 92.03017671934393 37.45602191681522 C 93.33017671934391 38.45602191681522 94.13017671934392 39.95602191681522 94.23017671934392 41.556021916815226 C 94.33017671934391 42.056021916815226 94.33017671934391 42.65602191681522 94.13017671934392 43.15602191681522 L 93.63017671934392 45.056021916815226 L 83.23017671934392 64.25602191681523 C 82.23017671934392 66.45602191681523 80.13017671934392 67.85602191681522 77.63017671934392 67.95602191681523 C 75.33017671934391 67.95602191681523 73.23017671934392 66.65602191681522 72.23017671934392 64.55602191681523 L 69.73017671934392 60.65602191681522 Z  M 61.73017671934392 58.35602191681522 Q 59.23017671934392 54.25602191681523 59.23017671934392 54.25602191681523 C 57.53017671934392 51.65602191681522 54.63017671934392 50.056021916815226 51.53017671934392 50.15602191681522 Q 51.33017671934392 50.15602191681522 48.13017671934392 50.85602191681522 C 44.83017671934392 52.056021916815226 42.03017671934392 54.35602191681522 40.23017671934392 57.35602191681522 C 38.33017671934392 60.75602191681523 35.73017671934392 63.556021916815226 32.63017671934392 65.85602191681522 Q 30.380305856003726 67.69843616507198 25.630176719343922 68.05602191681523 C 21.33017671934392 68.15602191681522 17.23017671934392 66.35602191681522 14.330176719343921 63.15602191681522 C 11.03017671934392 58.85602191681522 9.43017671934392 53.45602191681522 9.73017671934392 48.056021916815226 C 9.43017671934392 42.556021916815226 11.03017671934392 37.25602191681523 14.330176719343921 32.85602191681522 C 17.23017671934392 29.656021916815224 21.33017671934392 27.95602191681522 25.630176719343922 27.95602191681522 Q 30.415191061907937 28.138612669701597 32.63017671934392 30.156021916815224 C 35.73017671934392 32.45602191681522 38.33017671934392 35.35602191681522 40.23017671934392 38.65602191681522 C 42.23017671934392 41.95602191681522 45.93017671934392 44.056021916815226 49.73017671934392 44.056021916815226 L 85.03017671934393 44.056021916815226 L 77.53017671934393 58.056021916815226 L 75.33017671934391 54.45602191681522 C 74.23017671934392 52.35602191681522 72.13017671934392 51.056021916815226 69.73017671934392 51.056021916815226 C 67.43017671934393 51.056021916815226 65.33017671934391 52.35602191681522 64.23017671934392 54.45602191681522 L 61.73017671934392 58.35602191681522 Z " fill-rule="evenodd" fill="white" stroke="none"/></mask><path d=" M 69.73017671934392 60.65602191681522 L 67.33017671934391 64.55602191681523 C 66.23017671934392 66.65602191681522 64.13017671934392 67.95602191681523 61.73017671934392 68.05602191681523 C 59.43017671934392 67.95602191681523 57.33017671934392 66.65602191681522 56.23017671934392 64.55602191681523 Q 52.53017671934392 57.756021916815214 50.93017671934392 58.35602191681522 C 49.33017671934392 58.95602191681522 48.03017671934392 60.056021916815226 47.13017671934392 61.556021916815226 C 44.63017671934392 65.75602191681523 41.33017671934392 69.35602191681522 37.33017671934392 72.35602191681522 C 34.33017671934392 74.55602191681523 32.43017671934392 75.95602191681523 25.73017671934392 76.05602191681523 C 19.03017671934392 76.15602191681522 12.63017671934392 73.35602191681522 8.23017671934392 68.25602191681523 C 3.7301767193439206 62.45602191681522 1.4301767193439203 55.35602191681522 1.7301767193439204 48.056021916815226 C 1.4301767193439203 40.75602191681523 3.7301767193439206 33.556021916815226 8.23017671934392 27.75602191681522 C 12.63017671934392 22.75602191681522 18.257191732404944 19.702695041850152 25.73017671934392 19.95602191681522 C 30.4912072561806 20.117416190939693 33.33017671934392 20.85602191681522 37.33017671934392 23.75602191681522 C 41.33017671934392 26.656021916815224 44.63017671934392 30.356021916815223 47.13017671934392 34.556021916815226 C 47.73017671934392 35.45602191681522 48.73017671934392 36.056021916815226 49.73017671934392 36.056021916815226 L 87.63017671934392 36.056021916815226 C 89.23017671934392 35.95602191681522 90.83017671934391 36.45602191681522 92.03017671934393 37.45602191681522 C 93.33017671934391 38.45602191681522 94.13017671934392 39.95602191681522 94.23017671934392 41.556021916815226 C 94.33017671934391 42.056021916815226 94.33017671934391 42.65602191681522 94.13017671934392 43.15602191681522 L 93.63017671934392 45.056021916815226 L 83.23017671934392 64.25602191681523 C 82.23017671934392 66.45602191681523 80.13017671934392 67.85602191681522 77.63017671934392 67.95602191681523 C 75.33017671934391 67.95602191681523 73.23017671934392 66.65602191681522 72.23017671934392 64.55602191681523 L 69.73017671934392 60.65602191681522 Z  M 61.73017671934392 58.35602191681522 Q 59.23017671934392 54.25602191681523 59.23017671934392 54.25602191681523 C 57.53017671934392 51.65602191681522 54.63017671934392 50.056021916815226 51.53017671934392 50.15602191681522 Q 51.33017671934392 50.15602191681522 48.13017671934392 50.85602191681522 C 44.83017671934392 52.056021916815226 42.03017671934392 54.35602191681522 40.23017671934392 57.35602191681522 C 38.33017671934392 60.75602191681523 35.73017671934392 63.556021916815226 32.63017671934392 65.85602191681522 Q 30.380305856003726 67.69843616507198 25.630176719343922 68.05602191681523 C 21.33017671934392 68.15602191681522 17.23017671934392 66.35602191681522 14.330176719343921 63.15602191681522 C 11.03017671934392 58.85602191681522 9.43017671934392 53.45602191681522 9.73017671934392 48.056021916815226 C 9.43017671934392 42.556021916815226 11.03017671934392 37.25602191681523 14.330176719343921 32.85602191681522 C 17.23017671934392 29.656021916815224 21.33017671934392 27.95602191681522 25.630176719343922 27.95602191681522 Q 30.415191061907937 28.138612669701597 32.63017671934392 30.156021916815224 C 35.73017671934392 32.45602191681522 38.33017671934392 35.35602191681522 40.23017671934392 38.65602191681522 C 42.23017671934392 41.95602191681522 45.93017671934392 44.056021916815226 49.73017671934392 44.056021916815226 L 85.03017671934393 44.056021916815226 L 77.53017671934393 58.056021916815226 L 75.33017671934391 54.45602191681522 C 74.23017671934392 52.35602191681522 72.13017671934392 51.056021916815226 69.73017671934392 51.056021916815226 C 67.43017671934393 51.056021916815226 65.33017671934391 52.35602191681522 64.23017671934392 54.45602191681522 L 61.73017671934392 58.35602191681522 Z " fill-rule="evenodd" fill="none" stroke="none" stroke-width="16" mask="url(#_mask_hhCyqzSWdRChAgYrRank6GwvAc1KG4zd)"/></svg>