<?xml version="1.0" standalone="no"?><!-- Generator: Gravit.io --><svg xmlns="http://www.w3.org/2000/svg" xmlns:xlink="http://www.w3.org/1999/xlink" width="96" height="96"><path d=" M 16.5 24 L 79.5 24 C 81.8 24 83.9 24.9 85.5 26.5 C 87.1 28.1 88 30.2 88 32.5 L 88 71.5 C 88 73.8 87.1 75.9 85.5 77.5 C 83.9 79.1 81.8 80 79.5 80 L 16.5 80 C 14.2 80 12.1 79.1 10.5 77.5 C 8.9 75.9 8 73.8 8 71.5 L 8 32.5 C 8 30.2 8.9 28.1 10.5 26.5 C 12.1 24.9 14.2 24 16.5 24 Z  M 16.5 32 L 79.5 32 C 79.8 32 80 32.2 80 32.5 L 80 71.5 C 80 71.8 79.8 72 79.5 72 L 16.5 72 C 16.3 72 16.2 72 16.1 71.9 C 16 71.8 16 71.7 16 71.5 L 16 32.5 C 16 32.2 16.2 32 16.5 32 Z  M 4 96 C 2.9 96 1.9 95.6 1.2 94.8 C 0.4 94.1 0 93.1 0 92 C 0 90.9 0.4 89.9 1.2 89.2 C 1.9 88.4 2.9 88 4 88 L 92 88 C 93.1 88 94.1 88.4 94.8 89.2 C 95.6 89.9 96 90.9 96 92 C 96 93.1 95.6 94.1 94.8 94.8 C 94.1 95.6 93.1 96 92 96 L 4 96 Z " fill-rule="evenodd" fill="#454545" stroke="none"/><mask id="_mask_SrlsrRJR67fJfDGHkMKkmfH9XC2mJ5kW"><path d=" M 16.5 24 L 79.5 24 C 81.8 24 83.9 24.9 85.5 26.5 C 87.1 28.1 88 30.2 88 32.5 L 88 71.5 C 88 73.8 87.1 75.9 85.5 77.5 C 83.9 79.1 81.8 80 79.5 80 L 16.5 80 C 14.2 80 12.1 79.1 10.5 77.5 C 8.9 75.9 8 73.8 8 71.5 L 8 32.5 C 8 30.2 8.9 28.1 10.5 26.5 C 12.1 24.9 14.2 24 16.5 24 Z  M 16.5 32 L 79.5 32 C 79.8 32 80 32.2 80 32.5 L 80 71.5 C 80 71.8 79.8 72 79.5 72 L 16.5 72 C 16.3 72 16.2 72 16.1 71.9 C 16 71.8 16 71.7 16 71.5 L 16 32.5 C 16 32.2 16.2 32 16.5 32 Z  M 4 96 C 2.9 96 1.9 95.6 1.2 94.8 C 0.4 94.1 0 93.1 0 92 C 0 90.9 0.4 89.9 1.2 89.2 C 1.9 88.4 2.9 88 4 88 L 92 88 C 93.1 88 94.1 88.4 94.8 89.2 C 95.6 89.9 96 90.9 96 92 C 96 93.1 95.6 94.1 94.8 94.8 C 94.1 95.6 93.1 96 92 96 L 4 96 Z " fill-rule="evenodd" fill="white" stroke="none"/></mask><path d=" M 16.5 24 L 79.5 24 C 81.8 24 83.9 24.9 85.5 26.5 C 87.1 28.1 88 30.2 88 32.5 L 88 71.5 C 88 73.8 87.1 75.9 85.5 77.5 C 83.9 79.1 81.8 80 79.5 80 L 16.5 80 C 14.2 80 12.1 79.1 10.5 77.5 C 8.9 75.9 8 73.8 8 71.5 L 8 32.5 C 8 30.2 8.9 28.1 10.5 26.5 C 12.1 24.9 14.2 24 16.5 24 Z  M 16.5 32 L 79.5 32 C 79.8 32 80 32.2 80 32.5 L 80 71.5 C 80 71.8 79.8 72 79.5 72 L 16.5 72 C 16.3 72 16.2 72 16.1 71.9 C 16 71.8 16 71.7 16 71.5 L 16 32.5 C 16 32.2 16.2 32 16.5 32 Z  M 4 96 C 2.9 96 1.9 95.6 1.2 94.8 C 0.4 94.1 0 93.1 0 92 C 0 90.9 0.4 89.9 1.2 89.2 C 1.9 88.4 2.9 88 4 88 L 92 88 C 93.1 88 94.1 88.4 94.8 89.2 C 95.6 89.9 96 90.9 96 92 C 96 93.1 95.6 94.1 94.8 94.8 C 94.1 95.6 93.1 96 92 96 L 4 96 Z " fill-rule="evenodd" fill="none" stroke="none" stroke-width="16" mask="url(#_mask_SrlsrRJR67fJfDGHkMKkmfH9XC2mJ5kW)"/></svg>