<svg xmlns="http://www.w3.org/2000/svg" width="96" height="96"><path d="M7.6 72.05c-.9-.4-1.7-1.2-2.2-2.1-.4-1-.4-2.1 0-3.1.3-1 1.1-1.8 2.1-2.2.9-.4 2-.5 3-.1l34.9 13.4q1.635.4 2.7.4 1.065 0 2.7-.4l34.8-13.4c1-.4 2.1-.3 3.1.1s1.7 1.2 2.1 2.2c.4 1 .4 2.1-.1 3.1-.4.9-1.2 1.7-2.2 2.1l-35.6 13.7q-2.9.8-4.8.8t-4.8-.8L7.6 72.05zm-.1-19.9c-1-.3-1.8-1.1-2.3-2.1-.4-.9-.4-2 0-3 .3-1 1.1-1.8 2.1-2.3.9-.4 2-.4 3 0l34.9 13.4q1.635.4 2.7.4 1.065 0 2.7-.4l34.9-13.4c1-.4 2.1-.4 3 0 1 .5 1.8 1.3 2.1 2.3.4 1 .4 2.1 0 3-.5 1-1.3 1.8-2.3 2.1l-35.6 13.7q-2.9.8-4.8.8t-4.8-.8L7.5 52.15zm11.6-24.4l26.3 10.5q1.567.5 2.6.5 1.033 0 2.6-.5l26.3-10.5-26.2-9.8q-1.628-.5-2.7-.5-1.072 0-2.7.5l-26.2 9.8zm-9.4 4l33.5 14.3q2.9.8 4.8.8t4.8-.8l33.5-14.3q4.529-1.798 4.5-4.2-.029-2.376-4.5-4.1l-33.5-13.3q-2.907-.7-4.8-.7-1.893 0-4.8.7L9.7 23.45q-4.471 1.724-4.5 4.1-.029 2.402 4.5 4.2z" fill-rule="evenodd" fill="#454545"/></svg>