<svg xmlns="http://www.w3.org/2000/svg" width="96" height="96"><path d="M41.409 80.461A35.633 35.633 0 0 0 55.8 84h.2-.2.1c6.6.3 13.1-.8 19.2-3.3 6-2.9 11-7.5 14.3-13.2 2.2-3.6 3.4-7.7 3.4-11.9.1-6.4-.8-12.7-2.7-18.8-1.4-4.6-3.1-9-5.1-13.4C82.1 17.1 79 11 75.5 5c-1-2.1-3.1-3.5-5.4-3.6-2.5.1-4.7 1.7-5.6 4-2.2 5.1-5.3 9.8-9.2 13.7-2.3 1.8-4.9 3.1-7.7 3.7-6.3 1.9-12.3 4.7-17.8 8.3-6.2 3.9-10 10.8-10.1 18.1.5 9 4.5 17.6 11.2 23.6a30.83 30.83 0 0 0 3.027 2.825A68.042 68.042 0 0 1 9.4 84c-1 .2-2 .7-2.6 1.6-.6.8-.9 1.9-.8 3 .2 1 .7 2 1.6 2.6.8.6 1.9.9 3 .8a76.728 76.728 0 0 0 30.809-11.539zm7.638-5.631A28.737 28.737 0 0 0 56.1 76h.1c5.3.2 10.7-.6 15.7-2.6 4.5-2.2 8.2-5.7 10.6-10 1.5-2.4 2.3-5.1 2.3-7.9.1-5.5-.7-11.1-2.4-16.4-1.3-4.2-2.8-8.3-4.7-12.4-2.3-5-4.8-9.9-7.5-14.8-2.5 4.9-5.7 9.3-9.6 13.2-3.2 2.6-6.9 4.4-10.9 5.4-5.5 1.7-10.8 4.2-15.6 7.3-3.8 2.5-6.2 6.7-6.4 11.3.4 6.9 3.6 13.4 8.8 18a27.204 27.204 0 0 0 4.51 3.85 66.822 66.822 0 0 0 6.49-5.55c8.7-9.7 14.7-21.6 17.6-34.3.2-1 .9-1.9 1.8-2.5.9-.5 2-.7 3-.5 1 .2 1.9.9 2.5 1.8.5.9.7 2 .5 3C69.7 47 63 60.1 53.3 71a71.684 71.684 0 0 1-4.253 3.83zM56.1 76H56h.1z" fill-rule="evenodd" fill="#454545"/></svg>