<svg xmlns="http://www.w3.org/2000/svg" style="isolation:isolate" width="96" height="96"><path d="M22.55 57.437a27.794 27.794 0 0 1-3.15-7.29c-.7-2.4-1-4.8-1.1-7.3.7-8.7 4.7-16.9 11.2-22.6 3.4-3.3 7.5-5.5 12-6.6 5-1.4 10.2-2 15.3-2 4.5 0 8.9.4 13.2 1.3 1.7 0 3.4.6 4.9 1.5.9 1.5 1.5 3.2 1.5 4.9.9 4.3 1.3 8.7 1.3 13.2 0 5.1-.6 10.3-2 15.3-1.1 4.5-3.3 8.6-6.6 12-5.7 6.5-13.9 10.5-22.6 11.2-2.5-.1-4.9-.4-7.3-1.1a27.977 27.977 0 0 1-11.417-6.235C28.27 63.069 36.1 54.148 40 50.848c6.2-5.4 12.6-10.5 19.3-15.2.9-.6 1.5-1.6 1.6-2.6.2-1.1 0-2.1-.6-3-.6-.9-1.6-1.5-2.6-1.6-1.1-.2-2.1 0-3 .6-6.9 4.9-13.6 10.2-20 15.7-4.2 3.7-11.97 12.457-12.15 12.689zm-4.95 6.992a35.585 35.585 0 0 1-5.9-12.181c-.9-3.1-1.4-6.4-1.4-9.6.7-10.9 5.7-21.1 13.8-28.3 4.3-4.1 9.7-7 15.4-8.5 5.7-1.5 11.5-2.2 17.4-2.2 4.7 0 9.4.4 14.1 1.3 3.5.3 6.8 1.6 9.6 3.8 2.2 2.8 3.5 6.1 3.8 9.6.9 4.7 1.3 9.4 1.3 14.1 0 5.9-.7 11.7-2.2 17.4-1.5 5.7-4.4 11.1-8.5 15.4-7.2 8.1-17.4 13.1-28.3 13.8-3.2 0-6.5-.5-9.6-1.4a35.73 35.73 0 0 1-13.777-7.154c-.827 1.487-1.569 3.07-2.123 4.654-.7 2.1-1.1 4.3-1.2 6.6 0 1.8.2 3.6.8 5.3.3 1 .3 2.1-.2 3.1-.5.9-1.3 1.7-2.3 2-1 .3-2.1.3-3.1-.2-.9-.5-1.7-1.3-2-2.3-.9-2.7-1.3-5.4-1.2-8.2.1-3.1.7-6.1 1.7-9 .9-2.5 3.731-7.748 3.899-8.02z" fill-rule="evenodd"/></svg>