<?xml version="1.0" standalone="no"?><!-- Generator: Gravit.io --><svg xmlns="http://www.w3.org/2000/svg" xmlns:xlink="http://www.w3.org/1999/xlink" width="96" height="96"><path d=" M 41.40874700045 80.4613357679 C 45.87440633239114 82.62440981339275 50.78016666388138 83.8397925531026 55.8 84 C 55.9 84 55.9 84 55.9 84 L 55.9 84 C 55.9 84 55.9 84 56 84 L 55.8 84 C 55.8 84 55.9 84 55.9 84 C 62.5 84.3 69 83.2 75.1 80.7 C 81.1 77.8 86.1 73.2 89.4 67.5 C 91.6 63.9 92.8 59.8 92.8 55.6 C 92.9 49.2 92 42.9 90.1 36.8 C 88.7 32.2 87 27.8 85 23.4 C 82.1 17.1 79 11 75.5 5 C 74.5 2.9 72.4 1.5 70.1 1.4 C 67.6 1.5 65.4 3.1 64.5 5.4 C 62.3 10.5 59.2 15.2 55.3 19.1 C 53 20.9 50.4 22.2 47.6 22.8 C 41.3 24.7 35.3 27.5 29.8 31.1 C 23.6 35 19.8 41.9 19.7 49.2 C 20.2 58.2 24.2 66.8 30.9 72.8 C 31.852737155511292 73.811367134312 32.85918484874399 74.76043004486715 33.92710711457 75.62542933269 C 26.42083817113126 79.93307122294085 18.11171989043226 82.79003890410664 9.4 84 C 8.4 84.2 7.4 84.7 6.8 85.6 C 6.2 86.4 5.9 87.5 6 88.6 C 6.2 89.6 6.7 90.6 7.6 91.2 C 8.4 91.8 9.5 92.1 10.6 92 C 21.6349159890758 90.42358343013203 32.153083750943715 86.45133417048203 41.40874700045 80.4613357679 Z  M 49.0473446438 74.82998550619 C 51.31513269823693 75.50498783855616 53.68157170276801 75.90326286811072 56.1 76 C 56.1 76 56.1 76 56.2 76 C 61.5 76.2 66.9 75.4 71.9 73.4 C 76.4 71.2 80.1 67.7 82.5 63.4 C 84 61 84.8 58.3 84.8 55.5 C 84.9 50 84.1 44.4 82.4 39.1 C 81.1 34.9 79.6 30.8 77.7 26.7 C 75.4 21.7 72.9 16.8 70.2 11.9 L 70.2 11.9 C 67.7 16.8 64.5 21.2 60.6 25.1 C 57.4 27.7 53.7 29.5 49.7 30.5 C 44.2 32.2 38.9 34.7 34.1 37.8 C 30.3 40.3 27.9 44.5 27.7 49.1 C 28.1 56 31.3 62.5 36.5 67.1 C 37.87129405511285 68.55195841129596 39.379952586681554 69.8448632182746 41.00922161242 70.94909697254 C 43.27948838374097 69.24855852694967 45.44628742630346 67.39447086483992 47.5 65.4 C 56.2 55.7 62.2 43.8 65.1 31.1 C 65.3 30.1 66 29.2 66.9 28.6 C 67.8 28.1 68.9 27.9 69.9 28.1 C 70.9 28.3 71.8 29 72.4 29.9 C 72.9 30.8 73.1 31.9 72.9 32.9 C 69.7 47 63 60.1 53.3 71 C 51.93045596331195 72.33412479435991 50.51351884582237 73.61388693721217 49.0473446438 74.82998550619 Z  M 56.1 76 L 56 76 C 56 76 56 76 56.1 76 L 56.1 76 Z " fill-rule="evenodd" fill="#454545" stroke="none"/><mask id="_mask_KDbKfBXEOSsQbP9DGOYlPVDuH9wifa1R"><path d=" M 41.40874700045 80.4613357679 C 45.87440633239114 82.62440981339275 50.78016666388138 83.8397925531026 55.8 84 C 55.9 84 55.9 84 55.9 84 L 55.9 84 C 55.9 84 55.9 84 56 84 L 55.8 84 C 55.8 84 55.9 84 55.9 84 C 62.5 84.3 69 83.2 75.1 80.7 C 81.1 77.8 86.1 73.2 89.4 67.5 C 91.6 63.9 92.8 59.8 92.8 55.6 C 92.9 49.2 92 42.9 90.1 36.8 C 88.7 32.2 87 27.8 85 23.4 C 82.1 17.1 79 11 75.5 5 C 74.5 2.9 72.4 1.5 70.1 1.4 C 67.6 1.5 65.4 3.1 64.5 5.4 C 62.3 10.5 59.2 15.2 55.3 19.1 C 53 20.9 50.4 22.2 47.6 22.8 C 41.3 24.7 35.3 27.5 29.8 31.1 C 23.6 35 19.8 41.9 19.7 49.2 C 20.2 58.2 24.2 66.8 30.9 72.8 C 31.852737155511292 73.811367134312 32.85918484874399 74.76043004486715 33.92710711457 75.62542933269 C 26.42083817113126 79.93307122294085 18.11171989043226 82.79003890410664 9.4 84 C 8.4 84.2 7.4 84.7 6.8 85.6 C 6.2 86.4 5.9 87.5 6 88.6 C 6.2 89.6 6.7 90.6 7.6 91.2 C 8.4 91.8 9.5 92.1 10.6 92 C 21.6349159890758 90.42358343013203 32.153083750943715 86.45133417048203 41.40874700045 80.4613357679 Z  M 49.0473446438 74.82998550619 C 51.31513269823693 75.50498783855616 53.68157170276801 75.90326286811072 56.1 76 C 56.1 76 56.1 76 56.2 76 C 61.5 76.2 66.9 75.4 71.9 73.4 C 76.4 71.2 80.1 67.7 82.5 63.4 C 84 61 84.8 58.3 84.8 55.5 C 84.9 50 84.1 44.4 82.4 39.1 C 81.1 34.9 79.6 30.8 77.7 26.7 C 75.4 21.7 72.9 16.8 70.2 11.9 L 70.2 11.9 C 67.7 16.8 64.5 21.2 60.6 25.1 C 57.4 27.7 53.7 29.5 49.7 30.5 C 44.2 32.2 38.9 34.7 34.1 37.8 C 30.3 40.3 27.9 44.5 27.7 49.1 C 28.1 56 31.3 62.5 36.5 67.1 C 37.87129405511285 68.55195841129596 39.379952586681554 69.8448632182746 41.00922161242 70.94909697254 C 43.27948838374097 69.24855852694967 45.44628742630346 67.39447086483992 47.5 65.4 C 56.2 55.7 62.2 43.8 65.1 31.1 C 65.3 30.1 66 29.2 66.9 28.6 C 67.8 28.1 68.9 27.9 69.9 28.1 C 70.9 28.3 71.8 29 72.4 29.9 C 72.9 30.8 73.1 31.9 72.9 32.9 C 69.7 47 63 60.1 53.3 71 C 51.93045596331195 72.33412479435991 50.51351884582237 73.61388693721217 49.0473446438 74.82998550619 Z  M 56.1 76 L 56 76 C 56 76 56 76 56.1 76 L 56.1 76 Z " fill-rule="evenodd" fill="white" stroke="none"/></mask><path d=" M 41.40874700045 80.4613357679 C 45.87440633239114 82.62440981339275 50.78016666388138 83.8397925531026 55.8 84 C 55.9 84 55.9 84 55.9 84 L 55.9 84 C 55.9 84 55.9 84 56 84 L 55.8 84 C 55.8 84 55.9 84 55.9 84 C 62.5 84.3 69 83.2 75.1 80.7 C 81.1 77.8 86.1 73.2 89.4 67.5 C 91.6 63.9 92.8 59.8 92.8 55.6 C 92.9 49.2 92 42.9 90.1 36.8 C 88.7 32.2 87 27.8 85 23.4 C 82.1 17.1 79 11 75.5 5 C 74.5 2.9 72.4 1.5 70.1 1.4 C 67.6 1.5 65.4 3.1 64.5 5.4 C 62.3 10.5 59.2 15.2 55.3 19.1 C 53 20.9 50.4 22.2 47.6 22.8 C 41.3 24.7 35.3 27.5 29.8 31.1 C 23.6 35 19.8 41.9 19.7 49.2 C 20.2 58.2 24.2 66.8 30.9 72.8 C 31.852737155511292 73.811367134312 32.85918484874399 74.76043004486715 33.92710711457 75.62542933269 C 26.42083817113126 79.93307122294085 18.11171989043226 82.79003890410664 9.4 84 C 8.4 84.2 7.4 84.7 6.8 85.6 C 6.2 86.4 5.9 87.5 6 88.6 C 6.2 89.6 6.7 90.6 7.6 91.2 C 8.4 91.8 9.5 92.1 10.6 92 C 21.6349159890758 90.42358343013203 32.153083750943715 86.45133417048203 41.40874700045 80.4613357679 Z  M 49.0473446438 74.82998550619 C 51.31513269823693 75.50498783855616 53.68157170276801 75.90326286811072 56.1 76 C 56.1 76 56.1 76 56.2 76 C 61.5 76.2 66.9 75.4 71.9 73.4 C 76.4 71.2 80.1 67.7 82.5 63.4 C 84 61 84.8 58.3 84.8 55.5 C 84.9 50 84.1 44.4 82.4 39.1 C 81.1 34.9 79.6 30.8 77.7 26.7 C 75.4 21.7 72.9 16.8 70.2 11.9 L 70.2 11.9 C 67.7 16.8 64.5 21.2 60.6 25.1 C 57.4 27.7 53.7 29.5 49.7 30.5 C 44.2 32.2 38.9 34.7 34.1 37.8 C 30.3 40.3 27.9 44.5 27.7 49.1 C 28.1 56 31.3 62.5 36.5 67.1 C 37.87129405511285 68.55195841129596 39.379952586681554 69.8448632182746 41.00922161242 70.94909697254 C 43.27948838374097 69.24855852694967 45.44628742630346 67.39447086483992 47.5 65.4 C 56.2 55.7 62.2 43.8 65.1 31.1 C 65.3 30.1 66 29.2 66.9 28.6 C 67.8 28.1 68.9 27.9 69.9 28.1 C 70.9 28.3 71.8 29 72.4 29.9 C 72.9 30.8 73.1 31.9 72.9 32.9 C 69.7 47 63 60.1 53.3 71 C 51.93045596331195 72.33412479435991 50.51351884582237 73.61388693721217 49.0473446438 74.82998550619 Z  M 56.1 76 L 56 76 C 56 76 56 76 56.1 76 L 56.1 76 Z " fill-rule="evenodd" fill="none" stroke="none" stroke-width="16" mask="url(#_mask_KDbKfBXEOSsQbP9DGOYlPVDuH9wifa1R)"/></svg>