<svg xmlns="http://www.w3.org/2000/svg" width="96" height="96"><path d="M66 51.026l-5.4-.701c-3.8-.502-6.6-3.71-6.7-7.62q0-.1.2-1.403l5.5-26.566L30 45.212l5.4.702c3.8.5 6.6 3.709 6.7 7.619q0 .1-.2 1.403l-5.5 26.566L66 51.026zM26.702 91.612q.339 3.347 2.898 4.226 2.024.694 3.616-.325c.93-.596 2.309-1.721 3.079-2.512L74.9 53.332l1.2-2.306c.4-.701.5-1.604.3-2.506-.4-2.807-2.8-4.812-5.7-4.912l-7.71-1.066a.92.92 0 0 1-.785-1.116L69.09 8.574c.226-1.08.32-2.85.208-3.948Q68.96 1.28 66.4.401q-2.024-.695-3.616.325c-.93.595-2.309 1.72-3.079 2.511l-37.21 38.236c-.77.791-1.809 2.228-2.318 3.207l-.277.532c-.4.702-.5 1.604-.3 2.506.4 2.807 2.8 4.812 5.7 4.912l7.708.977c.547.07.9.565.787 1.105L26.91 87.664c-.226 1.081-.319 2.85-.207 3.948z" fill-rule="evenodd" fill="#454545"/></svg>