<svg xmlns="http://www.w3.org/2000/svg" width="96" height="96"><path d="M52.243 38.1c-.778.778-1.768 1.203-2.829 1.132-1.06.07-2.05-.354-2.828-1.131-.778-.778-1.202-1.768-1.132-2.829-.07-1.06.354-2.05 1.132-2.828L48 31.029 31.03 14.06 14.059 31.03 31.029 48l1.415-1.414c.777-.778 1.767-1.202 2.828-1.132 1.06-.07 2.05.354 2.829 1.132.777.778 1.202 1.768 1.13 2.828.072 1.06-.353 2.05-1.13 2.829l-1.415 1.414c-1.485 1.485-3.535 2.404-5.657 2.404-2.12 0-4.171-.92-5.656-2.404L8.402 36.687C6.917 35.2 5.998 33.15 5.998 31.028c0-2.12.92-4.171 2.404-5.656l16.97-16.971c1.486-1.485 3.536-2.404 5.657-2.404 2.122 0 4.172.92 5.657 2.404l16.97 16.97c1.486 1.486 2.405 3.536 2.405 5.657 0 2.122-.92 4.172-2.404 5.657L52.243 38.1zm11.313 11.314c-.777.778-1.767 1.202-2.828 1.132-1.06.07-2.05-.354-2.829-1.132-.777-.778-1.202-1.768-1.13-2.828-.072-1.06.353-2.05 1.13-2.829l1.415-1.414c1.485-1.485 3.535-2.404 5.657-2.404 2.12 0 4.171.92 5.656 2.404l16.971 16.97c1.485 1.486 2.404 3.536 2.404 5.658 0 2.12-.92 4.171-2.404 5.656l-16.97 16.971c-1.486 1.485-3.536 2.404-5.657 2.404-2.122 0-4.172-.92-5.657-2.404l-16.97-16.97c-1.486-1.486-2.405-3.536-2.405-5.657 0-2.122.92-4.172 2.404-5.657l1.414-1.415c.778-.777 1.768-1.202 2.829-1.13 1.06-.072 2.05.353 2.828 1.13.778.778 1.202 1.768 1.132 2.829.07 1.06-.354 2.05-1.132 2.828L48 64.971l16.97 16.97 16.971-16.97L64.971 48l-1.415 1.414zm-29.698-9.9c-.778-.777-1.202-1.767-1.132-2.828-.07-1.06.354-2.05 1.132-2.828.778-.778 1.768-1.202 2.828-1.132 1.061-.07 2.05.354 2.829 1.132l22.627 22.627c.778.778 1.202 1.768 1.132 2.829.07 1.06-.354 2.05-1.132 2.828-.778.778-1.768 1.202-2.828 1.132-1.061.07-2.05-.354-2.829-1.132L33.858 39.515z" fill-rule="evenodd" fill="#454545"/></svg>