<svg xmlns="http://www.w3.org/2000/svg" style="isolation:isolate" width="96" height="96"><path d="M48 20c-1.1 0-2.1-.4-2.8-1.2-.8-.7-1.2-1.7-1.2-2.8 0-1.1.4-2.1 1.2-2.8.7-.8 1.7-1.2 2.8-1.2h32c1.1 0 2.1.4 2.8 1.2.8.7 1.2 1.7 1.2 2.8 0 1.1-.4 2.1-1.2 2.8-.7.8-1.7 1.2-2.8 1.2H48zm0 32c-1.1 0-2.1-.4-2.8-1.2-.8-.7-1.2-1.7-1.2-2.8 0-1.1.4-2.1 1.2-2.8.7-.8 1.7-1.2 2.8-1.2h32c1.1 0 2.1.4 2.8 1.2.8.7 1.2 1.7 1.2 2.8 0 1.1-.4 2.1-1.2 2.8-.7.8-1.7 1.2-2.8 1.2H48zm32 24c1.1 0 2.1.4 2.8 1.2.8.7 1.2 1.7 1.2 2.8 0 1.1-.4 2.1-1.2 2.8-.7.8-1.7 1.2-2.8 1.2H48c-1.1 0-2.1-.4-2.8-1.2-.8-.7-1.2-1.7-1.2-2.8 0-1.1.4-2.1 1.2-2.8.7-.8 1.7-1.2 2.8-1.2h32zM12 12c-1.1 0-2.1-.4-2.8-1.2C8.4 10.1 8 9.1 8 8c0-1.1.4-2.1 1.2-2.8C9.9 4.4 10.9 4 12 4c2.1 0 4.2.8 5.7 2.3C19.2 7.8 20 9.9 20 12v12c0 1.1-.4 2.1-1.2 2.8-.7.8-1.7 1.2-2.8 1.2-1.1 0-2.1-.4-2.8-1.2-.8-.7-1.2-1.7-1.2-2.8V12zm6.8 40H20c1.1 0 2.1.4 2.8 1.2.8.7 1.2 1.7 1.2 2.8 0 1.1-.4 2.1-1.2 2.8-.7.8-1.7 1.2-2.8 1.2h-6.6c-2.9.4-5.6-1.4-6.3-4.2-.3-1-.2-2 .3-2.9q5.9-6.8 6.2-7.1l-2 .2c-1.1.1-2.2-.2-3-.8-.8-.6-1.4-1.6-1.6-2.6-.1-1.1.2-2.2.8-3 .6-.8 1.6-1.4 2.6-1.6q1.644-.214 2.7-.2c2.396.033 4.3.1 6 1.3 1.8 1.2 2.875 2.906 3.2 5.3.44 3.236-1.5 5.6-3.5 7.6zm-5.1 24H11c-1.1 0-2.1-.4-2.8-1.2C7.4 74.1 7 73.1 7 72c0-1.1.4-2.1 1.2-2.8.7-.8 1.7-1.2 2.8-1.2h5.6q3.5.1 4.9 1.2c1.4 1 2.4 2.6 2.6 4.3 0 2.2-1 4.3-2.6 5.7l-.8.8.8.8c1.6 1.4 2.6 3.5 2.6 5.7-.2 1.7-1.2 3.3-2.6 4.3q-1.4 1.1-4.9 1.2H11c-1.1 0-2.1-.4-2.8-1.2C7.4 90.1 7 89.1 7 88c0-1.1.4-2.1 1.2-2.8.7-.8 1.7-1.2 2.8-1.2h2.7c-.7-1.2-1-2.6-1-4s.3-2.8 1-4z" fill-rule="evenodd"/></svg>