<svg xmlns="http://www.w3.org/2000/svg" width="96" height="96"><path d="M12 48c0 1.1-.4 2.1-1.2 2.8-.7.8-1.7 1.2-2.8 1.2-1.1 0-2.1-.4-2.8-1.2C4.4 50.1 4 49.1 4 48c0-11.7 4.6-22.9 12.9-31.1C25.1 8.6 36.3 4 48 4c11.7 0 22.9 4.6 31.1 12.9C87.4 25.1 92 36.3 92 48c0 11.7-4.6 22.9-12.9 31.1C70.9 87.4 59.7 92 48 92c-1.1 0-2.1-.4-2.8-1.2-.8-.7-1.2-1.7-1.2-2.8 0-1.1.4-2.1 1.2-2.8.7-.8 1.7-1.2 2.8-1.2 9.5 0 18.7-3.8 25.5-10.5C80.2 66.7 84 57.5 84 48s-3.8-18.7-10.5-25.5C66.7 15.8 57.5 12 48 12s-18.7 3.8-25.5 10.5C15.8 29.3 12 38.5 12 48z" fill="#454545"/></svg>