<?xml version="1.0" standalone="no"?><!-- Generator: Gravit.io --><svg xmlns="http://www.w3.org/2000/svg" xmlns:xlink="http://www.w3.org/1999/xlink" width="96" height="96"><path d=" M 23.91286779399 35.0080702108074 L 20 35.0080702108074 L 20 35.0080702108074 C 17.9 35.0080702108074 15.8 35.808070210807394 14.3 37.308070210807394 C 12.8 38.808070210807394 12 40.908070210807395 12 43.0080702108074 L 12 83.0080702108074 C 12 85.1080702108074 12.8 87.20807021080739 14.3 88.70807021080739 C 15.8 90.20807021080739 17.9 91.0080702108074 20 91.0080702108074 L 76 91.0080702108074 C 78.1 91.0080702108074 80.2 90.20807021080739 81.7 88.70807021080739 C 83.2 87.20807021080739 84 85.1080702108074 84 83.0080702108074 L 84 43.0080702108074 C 84 40.908070210807395 83.2 38.808070210807394 81.7 37.308070210807394 C 80.2 35.808070210807394 78.1 35.0080702108074 76 35.0080702108074 L 72.08713220601 35.0080702108074 C 72.16197965104041 28.10018649757226 70.55095789853371 21.329931270815724 67.4 15.208070210807396 C 63.2 8.608070210807396 55.8 4.708070210807397 48 5.0080702108073964 C 40.2 4.708070210807397 32.8 8.608070210807396 28.6 15.208070210807396 C 25.4490421014663 21.329931270815727 23.838020348959592 28.100186497572263 23.91286779399 35.0080702108074 Z  M 31.92951410187 35.0080702108074 L 64.07048589813 35.0080702108074 C 64.15936166675662 29.56343139865995 62.935866367378416 24.09866963360863 60.4 19.208070210807396 C 57.7 15.108070210807398 52.9 12.808070210807397 48 13.008070210807396 C 43.1 12.808070210807397 38.3 15.108070210807398 35.6 19.208070210807396 C 33.064133632621584 24.09866963360863 31.840638333243373 29.56343139865995 31.92951410187 35.0080702108074 Z  M 20 43.0080702108074 L 76 43.0080702108074 L 76 83.0080702108074 L 20 83.0080702108074 L 20 43.0080702108074 L 20 43.0080702108074 Z  M 36 67.0080702108074 C 36 63.808070210807394 36.7 60.6080702108074 38 57.7080702108074 C 38.9 55.7080702108074 40.3 54.1080702108074 42.1 52.808070210807394 C 43.8 51.6080702108074 45.9 51.0080702108074 48 51.0080702108074 C 50.1 51.0080702108074 52.2 51.6080702108074 53.9 52.808070210807394 C 55.7 54.1080702108074 57.1 55.7080702108074 58 57.7080702108074 C 59.3 60.6080702108074 60 63.808070210807394 60 67.0080702108074 C 60 69.1080702108074 59.2 71.20807021080739 57.7 72.70807021080739 C 56.2 74.20807021080739 54.1 75.0080702108074 52 75.0080702108074 L 44 75.0080702108074 C 41.9 75.0080702108074 39.8 74.20807021080739 38.3 72.70807021080739 C 36.8 71.20807021080739 36 69.1080702108074 36 67.0080702108074 Z  M 44 67.0080702108074 C 44 64.90807021080741 44.4 62.908070210807395 45.3 61.0080702108074 C 45.6 60.408070210807395 46 59.808070210807394 46.6 59.408070210807395 C 47 59.2080702108074 47.5 59.0080702108074 48 59.0080702108074 C 48.5 59.0080702108074 49 59.2080702108074 49.4 59.408070210807395 C 50 59.808070210807394 50.4 60.408070210807395 50.7 61.0080702108074 C 51.6 62.908070210807395 52 64.90807021080741 52 67.0080702108074 L 44 67.0080702108074 Z " fill-rule="evenodd" fill="#454545" stroke="none"/><mask id="_mask_VmrlihZNEIk9K3Woswi8Y4wFai4Pgi6t"><path d=" M 23.91286779399 35.0080702108074 L 20 35.0080702108074 L 20 35.0080702108074 C 17.9 35.0080702108074 15.8 35.808070210807394 14.3 37.308070210807394 C 12.8 38.808070210807394 12 40.908070210807395 12 43.0080702108074 L 12 83.0080702108074 C 12 85.1080702108074 12.8 87.20807021080739 14.3 88.70807021080739 C 15.8 90.20807021080739 17.9 91.0080702108074 20 91.0080702108074 L 76 91.0080702108074 C 78.1 91.0080702108074 80.2 90.20807021080739 81.7 88.70807021080739 C 83.2 87.20807021080739 84 85.1080702108074 84 83.0080702108074 L 84 43.0080702108074 C 84 40.908070210807395 83.2 38.808070210807394 81.7 37.308070210807394 C 80.2 35.808070210807394 78.1 35.0080702108074 76 35.0080702108074 L 72.08713220601 35.0080702108074 C 72.16197965104041 28.10018649757226 70.55095789853371 21.329931270815724 67.4 15.208070210807396 C 63.2 8.608070210807396 55.8 4.708070210807397 48 5.0080702108073964 C 40.2 4.708070210807397 32.8 8.608070210807396 28.6 15.208070210807396 C 25.4490421014663 21.329931270815727 23.838020348959592 28.100186497572263 23.91286779399 35.0080702108074 Z  M 31.92951410187 35.0080702108074 L 64.07048589813 35.0080702108074 C 64.15936166675662 29.56343139865995 62.935866367378416 24.09866963360863 60.4 19.208070210807396 C 57.7 15.108070210807398 52.9 12.808070210807397 48 13.008070210807396 C 43.1 12.808070210807397 38.3 15.108070210807398 35.6 19.208070210807396 C 33.064133632621584 24.09866963360863 31.840638333243373 29.56343139865995 31.92951410187 35.0080702108074 Z  M 20 43.0080702108074 L 76 43.0080702108074 L 76 83.0080702108074 L 20 83.0080702108074 L 20 43.0080702108074 L 20 43.0080702108074 Z  M 36 67.0080702108074 C 36 63.808070210807394 36.7 60.6080702108074 38 57.7080702108074 C 38.9 55.7080702108074 40.3 54.1080702108074 42.1 52.808070210807394 C 43.8 51.6080702108074 45.9 51.0080702108074 48 51.0080702108074 C 50.1 51.0080702108074 52.2 51.6080702108074 53.9 52.808070210807394 C 55.7 54.1080702108074 57.1 55.7080702108074 58 57.7080702108074 C 59.3 60.6080702108074 60 63.808070210807394 60 67.0080702108074 C 60 69.1080702108074 59.2 71.20807021080739 57.7 72.70807021080739 C 56.2 74.20807021080739 54.1 75.0080702108074 52 75.0080702108074 L 44 75.0080702108074 C 41.9 75.0080702108074 39.8 74.20807021080739 38.3 72.70807021080739 C 36.8 71.20807021080739 36 69.1080702108074 36 67.0080702108074 Z  M 44 67.0080702108074 C 44 64.90807021080741 44.4 62.908070210807395 45.3 61.0080702108074 C 45.6 60.408070210807395 46 59.808070210807394 46.6 59.408070210807395 C 47 59.2080702108074 47.5 59.0080702108074 48 59.0080702108074 C 48.5 59.0080702108074 49 59.2080702108074 49.4 59.408070210807395 C 50 59.808070210807394 50.4 60.408070210807395 50.7 61.0080702108074 C 51.6 62.908070210807395 52 64.90807021080741 52 67.0080702108074 L 44 67.0080702108074 Z " fill-rule="evenodd" fill="white" stroke="none"/></mask><path d=" M 23.91286779399 35.0080702108074 L 20 35.0080702108074 L 20 35.0080702108074 C 17.9 35.0080702108074 15.8 35.808070210807394 14.3 37.308070210807394 C 12.8 38.808070210807394 12 40.908070210807395 12 43.0080702108074 L 12 83.0080702108074 C 12 85.1080702108074 12.8 87.20807021080739 14.3 88.70807021080739 C 15.8 90.20807021080739 17.9 91.0080702108074 20 91.0080702108074 L 76 91.0080702108074 C 78.1 91.0080702108074 80.2 90.20807021080739 81.7 88.70807021080739 C 83.2 87.20807021080739 84 85.1080702108074 84 83.0080702108074 L 84 43.0080702108074 C 84 40.908070210807395 83.2 38.808070210807394 81.7 37.308070210807394 C 80.2 35.808070210807394 78.1 35.0080702108074 76 35.0080702108074 L 72.08713220601 35.0080702108074 C 72.16197965104041 28.10018649757226 70.55095789853371 21.329931270815724 67.4 15.208070210807396 C 63.2 8.608070210807396 55.8 4.708070210807397 48 5.0080702108073964 C 40.2 4.708070210807397 32.8 8.608070210807396 28.6 15.208070210807396 C 25.4490421014663 21.329931270815727 23.838020348959592 28.100186497572263 23.91286779399 35.0080702108074 Z  M 31.92951410187 35.0080702108074 L 64.07048589813 35.0080702108074 C 64.15936166675662 29.56343139865995 62.935866367378416 24.09866963360863 60.4 19.208070210807396 C 57.7 15.108070210807398 52.9 12.808070210807397 48 13.008070210807396 C 43.1 12.808070210807397 38.3 15.108070210807398 35.6 19.208070210807396 C 33.064133632621584 24.09866963360863 31.840638333243373 29.56343139865995 31.92951410187 35.0080702108074 Z  M 20 43.0080702108074 L 76 43.0080702108074 L 76 83.0080702108074 L 20 83.0080702108074 L 20 43.0080702108074 L 20 43.0080702108074 Z  M 36 67.0080702108074 C 36 63.808070210807394 36.7 60.6080702108074 38 57.7080702108074 C 38.9 55.7080702108074 40.3 54.1080702108074 42.1 52.808070210807394 C 43.8 51.6080702108074 45.9 51.0080702108074 48 51.0080702108074 C 50.1 51.0080702108074 52.2 51.6080702108074 53.9 52.808070210807394 C 55.7 54.1080702108074 57.1 55.7080702108074 58 57.7080702108074 C 59.3 60.6080702108074 60 63.808070210807394 60 67.0080702108074 C 60 69.1080702108074 59.2 71.20807021080739 57.7 72.70807021080739 C 56.2 74.20807021080739 54.1 75.0080702108074 52 75.0080702108074 L 44 75.0080702108074 C 41.9 75.0080702108074 39.8 74.20807021080739 38.3 72.70807021080739 C 36.8 71.20807021080739 36 69.1080702108074 36 67.0080702108074 Z  M 44 67.0080702108074 C 44 64.90807021080741 44.4 62.908070210807395 45.3 61.0080702108074 C 45.6 60.408070210807395 46 59.808070210807394 46.6 59.408070210807395 C 47 59.2080702108074 47.5 59.0080702108074 48 59.0080702108074 C 48.5 59.0080702108074 49 59.2080702108074 49.4 59.408070210807395 C 50 59.808070210807394 50.4 60.408070210807395 50.7 61.0080702108074 C 51.6 62.908070210807395 52 64.90807021080741 52 67.0080702108074 L 44 67.0080702108074 Z " fill-rule="evenodd" fill="none" stroke="none" stroke-width="16" mask="url(#_mask_VmrlihZNEIk9K3Woswi8Y4wFai4Pgi6t)"/></svg>