<svg xmlns="http://www.w3.org/2000/svg" style="isolation:isolate" width="96" height="96"><path d="M20.003 64V51.9c-.1-8.9 2.6-17.7 7.8-25.1 4.6-6.6 12.1-10.6 20.2-10.8 8.1.2 15.6 4.3 20.2 10.9 5.2 7.3 7.9 16.1 7.8 25V64h-8V52.1c.2-6.3-1.3-12.6-4.2-18.2-3.1-5.9-9.1-9.7-15.8-9.9-6.7.2-12.7 4-15.8 10-2.9 5.5-4.4 11.8-4.2 18.1V64h-8zm0 8v8h8v-8h-8zm56 0v8h-8v-8h8zm-48 16h-8c-2.1 0-4.2-.8-5.7-2.3-1.5-1.5-2.3-3.6-2.3-5.7V52c-.2-10.6 3.1-21.1 9.2-29.8 6.2-8.7 16.1-14 26.8-14.2 10.7.2 20.7 5.6 26.8 14.3 6.1 8.7 9.3 19.1 9.2 29.7v28c0 2.1-.8 4.2-2.3 5.7-1.5 1.5-3.6 2.3-5.7 2.3h-8c-2.1 0-4.2-.8-5.7-2.3-1.5-1.5-2.3-3.6-2.3-5.7V51.9c.1-5-1-9.9-3.3-14.3-1.7-3.3-5-5.4-8.7-5.6-3.7.2-7 2.4-8.7 5.7-2.3 4.3-3.4 9.2-3.3 14.2V80c0 2.1-.8 4.2-2.3 5.7-1.5 1.5-3.6 2.3-5.7 2.3z" fill-rule="evenodd"/></svg>