<?xml version="1.0" standalone="no"?><!-- Generator: Gravit.io --><svg xmlns="http://www.w3.org/2000/svg" xmlns:xlink="http://www.w3.org/1999/xlink" width="96" height="96"><path d=" M 52 55.67060982525 C 56.90363453334785 54.85561919323713 61.44976088298837 52.55023911701163 65 49 C 69.5 44.5 72 38.4 72 32 C 72 25.6 69.5 19.5 65 15 C 60.5 10.5 54.4 8 48 8 C 41.6 8 35.5 10.5 31 15 C 26.5 19.5 24 25.6 24 32 L 24 32 C 24 38.4 26.5 44.5 31 49 C 34.550239117011614 52.550239117011614 39.096365466652124 54.85561919323712 44 55.67060982525 L 44 84 C 44 85.1 44.4 86.1 45.2 86.8 C 45.9 87.6 46.9 88 48 88 C 49.1 88 50.1 87.6 50.8 86.8 C 51.6 86.1 52 85.1 52 84 L 52 55.67060982525 Z  M 32 32 C 32 36.2 33.7 40.3 36.7 43.3 C 39.7 46.3 43.8 48 48 48 C 52.2 48 56.3 46.3 59.3 43.3 C 62.3 40.3 64 36.2 64 32 C 64 27.8 62.3 23.7 59.3 20.7 C 56.3 17.7 52.2 16 48 16 C 43.8 16 39.7 17.7 36.7 20.7 C 33.7 23.7 32 27.8 32 32 L 32 32 Z " fill-rule="evenodd" fill="#454545" stroke="none"/><mask id="_mask_Fd46spEuM8Yfb7C4h62jCw2EChnWMiE2"><path d=" M 52 55.67060982525 C 56.90363453334785 54.85561919323713 61.44976088298837 52.55023911701163 65 49 C 69.5 44.5 72 38.4 72 32 C 72 25.6 69.5 19.5 65 15 C 60.5 10.5 54.4 8 48 8 C 41.6 8 35.5 10.5 31 15 C 26.5 19.5 24 25.6 24 32 L 24 32 C 24 38.4 26.5 44.5 31 49 C 34.550239117011614 52.550239117011614 39.096365466652124 54.85561919323712 44 55.67060982525 L 44 84 C 44 85.1 44.4 86.1 45.2 86.8 C 45.9 87.6 46.9 88 48 88 C 49.1 88 50.1 87.6 50.8 86.8 C 51.6 86.1 52 85.1 52 84 L 52 55.67060982525 Z  M 32 32 C 32 36.2 33.7 40.3 36.7 43.3 C 39.7 46.3 43.8 48 48 48 C 52.2 48 56.3 46.3 59.3 43.3 C 62.3 40.3 64 36.2 64 32 C 64 27.8 62.3 23.7 59.3 20.7 C 56.3 17.7 52.2 16 48 16 C 43.8 16 39.7 17.7 36.7 20.7 C 33.7 23.7 32 27.8 32 32 L 32 32 Z " fill-rule="evenodd" fill="white" stroke="none"/></mask><path d=" M 52 55.67060982525 C 56.90363453334785 54.85561919323713 61.44976088298837 52.55023911701163 65 49 C 69.5 44.5 72 38.4 72 32 C 72 25.6 69.5 19.5 65 15 C 60.5 10.5 54.4 8 48 8 C 41.6 8 35.5 10.5 31 15 C 26.5 19.5 24 25.6 24 32 L 24 32 C 24 38.4 26.5 44.5 31 49 C 34.550239117011614 52.550239117011614 39.096365466652124 54.85561919323712 44 55.67060982525 L 44 84 C 44 85.1 44.4 86.1 45.2 86.8 C 45.9 87.6 46.9 88 48 88 C 49.1 88 50.1 87.6 50.8 86.8 C 51.6 86.1 52 85.1 52 84 L 52 55.67060982525 Z  M 32 32 C 32 36.2 33.7 40.3 36.7 43.3 C 39.7 46.3 43.8 48 48 48 C 52.2 48 56.3 46.3 59.3 43.3 C 62.3 40.3 64 36.2 64 32 C 64 27.8 62.3 23.7 59.3 20.7 C 56.3 17.7 52.2 16 48 16 C 43.8 16 39.7 17.7 36.7 20.7 C 33.7 23.7 32 27.8 32 32 L 32 32 Z " fill-rule="evenodd" fill="none" stroke="none" stroke-width="16" mask="url(#_mask_Fd46spEuM8Yfb7C4h62jCw2EChnWMiE2)"/></svg>