<svg xmlns="http://www.w3.org/2000/svg" style="isolation:isolate" width="96" height="96"><path d="M52 47.67A23.894 23.894 0 0 0 65 41c4.5-4.5 7-10.6 7-17s-2.5-12.5-7-17-10.6-7-17-7-12.5 2.5-17 7-7 10.6-7 17 2.5 12.5 7 17a23.894 23.894 0 0 0 13 6.67V68c0 1.1.4 2.1 1.2 2.8.7.8 1.7 1.2 2.8 1.2 1.1 0 2.1-.4 2.8-1.2.8-.7 1.2-1.7 1.2-2.8V47.67zM32 24c0 4.2 1.7 8.3 4.7 11.3S43.8 40 48 40c4.2 0 8.3-1.7 11.3-4.7S64 28.2 64 24c0-4.2-1.7-8.3-4.7-11.3S52.2 8 48 8c-4.2 0-8.3 1.7-11.3 4.7S32 19.8 32 24zm50.9 60l-5.8-23.1c-.1-.5-.6-.9-1.1-.9H64c-1.1 0-2.1-.4-2.8-1.2-.8-.7-1.2-1.7-1.2-2.8 0-1.1.4-2.1 1.2-2.8.7-.8 1.7-1.2 2.8-1.2h12c4.2 0 7.8 2.9 8.9 6.9L91 83.4q.2 1.5.1 1.8c0 1.8-.8 3.6-2.1 4.9-1.4 1.2-3.2 1.9-5 1.9H12c-1.8 0-3.6-.7-5-1.9-1.3-1.3-2.1-3.1-2.1-4.9q-.1-.3.1-1.8l6.1-24.5c1.1-4 4.7-6.9 8.9-6.9h12c1.1 0 2.1.4 2.8 1.2.8.7 1.2 1.7 1.2 2.8 0 1.1-.4 2.1-1.2 2.8-.7.8-1.7 1.2-2.8 1.2H20c-.5 0-1 .4-1.1.9L13.1 84h69.8z" fill-rule="evenodd"/></svg>