<?xml version="1.0" standalone="no"?><!-- Generator: Gravit.io --><svg xmlns="http://www.w3.org/2000/svg" xmlns:xlink="http://www.w3.org/1999/xlink" width="96" height="96"><path d=" M 63.99055043932654 78.435625 L 78.89055043932655 73.5 C 79.59055043932653 73.3 79.99055043932654 72.7 79.99055043932654 72 L 79.99055043932654 17.5 L 79.99055043932654 17.5 L 63.99055043932654 22.70425531915 L 63.99055043932654 78.435625 Z  M 55.99055043932654 78.43780487805 L 39.99055043932654 73.29574468085 L 39.99055043932654 17.56219512195 L 55.99055043932654 22.70425531915 L 55.99055043932654 78.43780487805 Z  M 31.99055043932654 73.29574468085 L 15.99055043932654 78.5 L 15.99055043932654 24 C 15.99055043932654 23.3 16.39055043932654 22.7 17.09055043932654 22.5 L 31.99055043932654 17.564375 L 31.99055043932654 73.29574468085 Z  M 14.49055043932654 14.9 L 31.29055043932654 9.4 Q 34.136083088404 8.7 35.99055043932654 8.7 Q 37.84501779024908 8.7 40.69055043932654 9.4 L 57.09055043932654 14.8 Q 58.848072997053215 15.2 59.99055043932654 15.2 Q 61.133027881599865 15.2 62.89055043932654 14.8 L 79.19055043932654 9.4 Q 81.29055043932654 9.1 81.49055043932654 9.1 C 83.29055043932654 9.2 84.99055043932654 9.9 86.19055043932654 11.3 C 87.39055043932655 12.6 88.09055043932653 14.3 87.99055043932654 16.1 L 87.99055043932654 72 C 87.99055043932654 76.1 85.39055043932655 79.8 81.49055043932654 81.1 L 64.69055043932654 86.6 Q 61.84501779024908 87.3 59.99055043932654 87.3 Q 58.136083088404 87.3 55.29055043932654 86.6 L 38.89055043932654 81.2 Q 37.133027881599865 80.8 35.99055043932654 80.8 Q 34.848072997053215 80.8 33.09055043932654 81.2 L 16.79055043932654 86.6 Q 14.69055043932654 86.9 14.49055043932654 86.9 C 12.69055043932654 86.8 10.99055043932654 86.1 9.790550439326541 84.7 C 8.59055043932654 83.4 7.890550439326541 81.7 7.99055043932654 79.9 L 7.99055043932654 24 C 7.99055043932654 19.9 10.59055043932654 16.2 14.49055043932654 14.9 L 14.49055043932654 14.9 Z " fill-rule="evenodd" fill="#454545" stroke="none"/><mask id="_mask_4hN0Zw5Pws5njAaN7QMJOEqctiia6ais"><path d=" M 63.99055043932654 78.435625 L 78.89055043932655 73.5 C 79.59055043932653 73.3 79.99055043932654 72.7 79.99055043932654 72 L 79.99055043932654 17.5 L 79.99055043932654 17.5 L 63.99055043932654 22.70425531915 L 63.99055043932654 78.435625 Z  M 55.99055043932654 78.43780487805 L 39.99055043932654 73.29574468085 L 39.99055043932654 17.56219512195 L 55.99055043932654 22.70425531915 L 55.99055043932654 78.43780487805 Z  M 31.99055043932654 73.29574468085 L 15.99055043932654 78.5 L 15.99055043932654 24 C 15.99055043932654 23.3 16.39055043932654 22.7 17.09055043932654 22.5 L 31.99055043932654 17.564375 L 31.99055043932654 73.29574468085 Z  M 14.49055043932654 14.9 L 31.29055043932654 9.4 Q 34.136083088404 8.7 35.99055043932654 8.7 Q 37.84501779024908 8.7 40.69055043932654 9.4 L 57.09055043932654 14.8 Q 58.848072997053215 15.2 59.99055043932654 15.2 Q 61.133027881599865 15.2 62.89055043932654 14.8 L 79.19055043932654 9.4 Q 81.29055043932654 9.1 81.49055043932654 9.1 C 83.29055043932654 9.2 84.99055043932654 9.9 86.19055043932654 11.3 C 87.39055043932655 12.6 88.09055043932653 14.3 87.99055043932654 16.1 L 87.99055043932654 72 C 87.99055043932654 76.1 85.39055043932655 79.8 81.49055043932654 81.1 L 64.69055043932654 86.6 Q 61.84501779024908 87.3 59.99055043932654 87.3 Q 58.136083088404 87.3 55.29055043932654 86.6 L 38.89055043932654 81.2 Q 37.133027881599865 80.8 35.99055043932654 80.8 Q 34.848072997053215 80.8 33.09055043932654 81.2 L 16.79055043932654 86.6 Q 14.69055043932654 86.9 14.49055043932654 86.9 C 12.69055043932654 86.8 10.99055043932654 86.1 9.790550439326541 84.7 C 8.59055043932654 83.4 7.890550439326541 81.7 7.99055043932654 79.9 L 7.99055043932654 24 C 7.99055043932654 19.9 10.59055043932654 16.2 14.49055043932654 14.9 L 14.49055043932654 14.9 Z " fill-rule="evenodd" fill="white" stroke="none"/></mask><path d=" M 63.99055043932654 78.435625 L 78.89055043932655 73.5 C 79.59055043932653 73.3 79.99055043932654 72.7 79.99055043932654 72 L 79.99055043932654 17.5 L 79.99055043932654 17.5 L 63.99055043932654 22.70425531915 L 63.99055043932654 78.435625 Z  M 55.99055043932654 78.43780487805 L 39.99055043932654 73.29574468085 L 39.99055043932654 17.56219512195 L 55.99055043932654 22.70425531915 L 55.99055043932654 78.43780487805 Z  M 31.99055043932654 73.29574468085 L 15.99055043932654 78.5 L 15.99055043932654 24 C 15.99055043932654 23.3 16.39055043932654 22.7 17.09055043932654 22.5 L 31.99055043932654 17.564375 L 31.99055043932654 73.29574468085 Z  M 14.49055043932654 14.9 L 31.29055043932654 9.4 Q 34.136083088404 8.7 35.99055043932654 8.7 Q 37.84501779024908 8.7 40.69055043932654 9.4 L 57.09055043932654 14.8 Q 58.848072997053215 15.2 59.99055043932654 15.2 Q 61.133027881599865 15.2 62.89055043932654 14.8 L 79.19055043932654 9.4 Q 81.29055043932654 9.1 81.49055043932654 9.1 C 83.29055043932654 9.2 84.99055043932654 9.9 86.19055043932654 11.3 C 87.39055043932655 12.6 88.09055043932653 14.3 87.99055043932654 16.1 L 87.99055043932654 72 C 87.99055043932654 76.1 85.39055043932655 79.8 81.49055043932654 81.1 L 64.69055043932654 86.6 Q 61.84501779024908 87.3 59.99055043932654 87.3 Q 58.136083088404 87.3 55.29055043932654 86.6 L 38.89055043932654 81.2 Q 37.133027881599865 80.8 35.99055043932654 80.8 Q 34.848072997053215 80.8 33.09055043932654 81.2 L 16.79055043932654 86.6 Q 14.69055043932654 86.9 14.49055043932654 86.9 C 12.69055043932654 86.8 10.99055043932654 86.1 9.790550439326541 84.7 C 8.59055043932654 83.4 7.890550439326541 81.7 7.99055043932654 79.9 L 7.99055043932654 24 C 7.99055043932654 19.9 10.59055043932654 16.2 14.49055043932654 14.9 L 14.49055043932654 14.9 Z " fill-rule="evenodd" fill="none" stroke="none" stroke-width="16" mask="url(#_mask_4hN0Zw5Pws5njAaN7QMJOEqctiia6ais)"/></svg>