<svg xmlns="http://www.w3.org/2000/svg" width="96" height="96"><path d="M63.99 78.436l14.9-4.936c.7-.2 1.1-.8 1.1-1.5V17.5l-16 5.204v55.732zm-8 .002l-16-5.142V17.562l16 5.142v55.734zm-24-5.142l-16 5.204V24c0-.7.4-1.3 1.1-1.5l14.9-4.936v55.732zM14.49 14.9l16.8-5.5q2.846-.7 4.7-.7 1.855 0 4.7.7l16.4 5.4q1.758.4 2.9.4 1.143 0 2.9-.4l16.3-5.4q2.1-.3 2.3-.3c1.8.1 3.5.8 4.7 2.2 1.2 1.3 1.9 3 1.8 4.8V72c0 4.1-2.6 7.8-6.5 9.1l-16.8 5.5q-2.845.7-4.7.7-1.854 0-4.7-.7l-16.4-5.4q-1.757-.4-2.9-.4-1.142 0-2.9.4l-16.3 5.4q-2.1.3-2.3.3c-1.8-.1-3.5-.8-4.7-2.2-1.2-1.3-1.9-3-1.8-4.8V24c0-4.1 2.6-7.8 6.5-9.1z" fill-rule="evenodd"/></svg>