<?xml version="1.0" standalone="no"?><!-- Generator: Gravit.io --><svg xmlns="http://www.w3.org/2000/svg" xmlns:xlink="http://www.w3.org/1999/xlink" width="96" height="96"><path d=" M 9 41 C 9 30.7 13.1 20.7 20.4 13.4 C 27.7 6.1 37.7 2 48 2 C 58.3 2 68.3 6.1 75.6 13.4 C 82.9 20.7 87 30.7 87 41 C 87 45 86.2 49 84.6 52.6 C 82.1 58.2 79 63.4 75.3 68.2 C 72.3 72 69.1 75.6 65.7 79.1 C 60.1 84.7 54.2 90.1 48 95.2 C 42.1 90.3 36.4 85.2 31 79.8 C 27.7 76.5 24.5 73 21.6 69.3 C 17.6 64.3 14.2 58.9 11.6 53 C 9.9 49.3 9 45.2 9 41 Z  M 17 41 C 17 32.8 20.3 24.9 26.1 19.1 C 31.9 13.3 39.8 10 48 10 C 56.2 10 64.1 13.3 69.9 19.1 C 75.7 24.9 79 32.8 79 41 C 79 43.9 78.4 46.8 77.2 49.4 C 75.1 54.4 72.3 59 69 63.3 C 66.2 66.8 63.2 70.2 60.1 73.4 C 56.2 77.3 52.2 81.1 48 84.7 C 44.1 81.3 40.3 77.8 36.6 74.1 C 33.5 71 30.6 67.8 27.8 64.3 C 24.3 59.9 21.3 55 18.9 49.7 C 17.6 47 17 44 17 41 Z  M 32 38 C 32 33.8 33.7 29.7 36.7 26.7 C 39.7 23.7 43.8 22 48 22 C 52.2 22 56.3 23.7 59.3 26.7 C 62.3 29.7 64 33.8 64 38 C 64 42.2 62.3 46.3 59.3 49.3 C 56.3 52.3 52.2 54 48 54 C 43.8 54 39.7 52.3 36.7 49.3 C 33.7 46.3 32 42.2 32 38 Z  M 40 38 C 40 35.9 40.8 33.8 42.3 32.3 C 43.8 30.8 45.9 30 48 30 C 50.1 30 52.2 30.8 53.7 32.3 C 55.2 33.8 56 35.9 56 38 C 56 40.1 55.2 42.2 53.7 43.7 C 52.2 45.2 50.1 46 48 46 C 45.9 46 43.8 45.2 42.3 43.7 C 40.8 42.2 40 40.1 40 38 Z " fill-rule="evenodd" fill="#454545" stroke="none"/><mask id="_mask_3jtEjg86gTAx46uD9ZjArmIgBIrZaILT"><path d=" M 9 41 C 9 30.7 13.1 20.7 20.4 13.4 C 27.7 6.1 37.7 2 48 2 C 58.3 2 68.3 6.1 75.6 13.4 C 82.9 20.7 87 30.7 87 41 C 87 45 86.2 49 84.6 52.6 C 82.1 58.2 79 63.4 75.3 68.2 C 72.3 72 69.1 75.6 65.7 79.1 C 60.1 84.7 54.2 90.1 48 95.2 C 42.1 90.3 36.4 85.2 31 79.8 C 27.7 76.5 24.5 73 21.6 69.3 C 17.6 64.3 14.2 58.9 11.6 53 C 9.9 49.3 9 45.2 9 41 Z  M 17 41 C 17 32.8 20.3 24.9 26.1 19.1 C 31.9 13.3 39.8 10 48 10 C 56.2 10 64.1 13.3 69.9 19.1 C 75.7 24.9 79 32.8 79 41 C 79 43.9 78.4 46.8 77.2 49.4 C 75.1 54.4 72.3 59 69 63.3 C 66.2 66.8 63.2 70.2 60.1 73.4 C 56.2 77.3 52.2 81.1 48 84.7 C 44.1 81.3 40.3 77.8 36.6 74.1 C 33.5 71 30.6 67.8 27.8 64.3 C 24.3 59.9 21.3 55 18.9 49.7 C 17.6 47 17 44 17 41 Z  M 32 38 C 32 33.8 33.7 29.7 36.7 26.7 C 39.7 23.7 43.8 22 48 22 C 52.2 22 56.3 23.7 59.3 26.7 C 62.3 29.7 64 33.8 64 38 C 64 42.2 62.3 46.3 59.3 49.3 C 56.3 52.3 52.2 54 48 54 C 43.8 54 39.7 52.3 36.7 49.3 C 33.7 46.3 32 42.2 32 38 Z  M 40 38 C 40 35.9 40.8 33.8 42.3 32.3 C 43.8 30.8 45.9 30 48 30 C 50.1 30 52.2 30.8 53.7 32.3 C 55.2 33.8 56 35.9 56 38 C 56 40.1 55.2 42.2 53.7 43.7 C 52.2 45.2 50.1 46 48 46 C 45.9 46 43.8 45.2 42.3 43.7 C 40.8 42.2 40 40.1 40 38 Z " fill-rule="evenodd" fill="white" stroke="none"/></mask><path d=" M 9 41 C 9 30.7 13.1 20.7 20.4 13.4 C 27.7 6.1 37.7 2 48 2 C 58.3 2 68.3 6.1 75.6 13.4 C 82.9 20.7 87 30.7 87 41 C 87 45 86.2 49 84.6 52.6 C 82.1 58.2 79 63.4 75.3 68.2 C 72.3 72 69.1 75.6 65.7 79.1 C 60.1 84.7 54.2 90.1 48 95.2 C 42.1 90.3 36.4 85.2 31 79.8 C 27.7 76.5 24.5 73 21.6 69.3 C 17.6 64.3 14.2 58.9 11.6 53 C 9.9 49.3 9 45.2 9 41 Z  M 17 41 C 17 32.8 20.3 24.9 26.1 19.1 C 31.9 13.3 39.8 10 48 10 C 56.2 10 64.1 13.3 69.9 19.1 C 75.7 24.9 79 32.8 79 41 C 79 43.9 78.4 46.8 77.2 49.4 C 75.1 54.4 72.3 59 69 63.3 C 66.2 66.8 63.2 70.2 60.1 73.4 C 56.2 77.3 52.2 81.1 48 84.7 C 44.1 81.3 40.3 77.8 36.6 74.1 C 33.5 71 30.6 67.8 27.8 64.3 C 24.3 59.9 21.3 55 18.9 49.7 C 17.6 47 17 44 17 41 Z  M 32 38 C 32 33.8 33.7 29.7 36.7 26.7 C 39.7 23.7 43.8 22 48 22 C 52.2 22 56.3 23.7 59.3 26.7 C 62.3 29.7 64 33.8 64 38 C 64 42.2 62.3 46.3 59.3 49.3 C 56.3 52.3 52.2 54 48 54 C 43.8 54 39.7 52.3 36.7 49.3 C 33.7 46.3 32 42.2 32 38 Z  M 40 38 C 40 35.9 40.8 33.8 42.3 32.3 C 43.8 30.8 45.9 30 48 30 C 50.1 30 52.2 30.8 53.7 32.3 C 55.2 33.8 56 35.9 56 38 C 56 40.1 55.2 42.2 53.7 43.7 C 52.2 45.2 50.1 46 48 46 C 45.9 46 43.8 45.2 42.3 43.7 C 40.8 42.2 40 40.1 40 38 Z " fill-rule="evenodd" fill="none" stroke="none" stroke-width="16" mask="url(#_mask_3jtEjg86gTAx46uD9ZjArmIgBIrZaILT)"/></svg>