<svg xmlns="http://www.w3.org/2000/svg" width="96" height="96"><path d="M62.527 27.873L78.4 12H72c-1.1 0-2.1-.4-2.8-1.2-.8-.7-1.2-1.7-1.2-2.8 0-1.1.4-2.1 1.2-2.8.7-.8 1.7-1.2 2.8-1.2h12c2.1 0 4.2.8 5.7 2.3C91.2 7.8 92 9.9 92 12v12c0 1.1-.4 2.1-1.2 2.8-.7.8-1.7 1.2-2.8 1.2-1.1 0-2.1-.4-2.8-1.2-.8-.7-1.2-1.7-1.2-2.8v-6.4L68.127 33.473C73.184 39.867 76 47.823 76 56c0 9.5-3.8 18.7-10.5 25.5C58.7 88.2 49.5 92 40 92s-18.7-3.8-25.5-10.5C7.8 74.7 4 65.5 4 56s3.8-18.7 10.5-25.5C21.3 23.8 30.5 20 40 20c8.178 0 16.133 2.816 22.527 7.873zM12 56c0-7.4 3-14.5 8.2-19.8C25.5 31 32.6 28 40 28s14.5 3 19.8 8.2C65 41.5 68 48.6 68 56s-3 14.5-8.2 19.8C54.5 81 47.4 84 40 84s-14.5-3-19.8-8.2C15 70.5 12 63.4 12 56z" fill-rule="evenodd" fill="#454545"/></svg>