<svg xmlns="http://www.w3.org/2000/svg" style="isolation:isolate" width="96" height="96"><path d="M12.617 52H12c-2.1 0-4.2-.8-5.7-2.3C4.8 48.2 4 46.1 4 44v-8c0-2.1.8-4.2 2.3-5.7C7.8 28.8 9.9 28 12 28h32c1.7 0 3.4-.6 4.8-1.6l26-19.5q1.235-.682 2.1-.9c.874-.22 1.5-.3 2.3-.2 3 .6 5.1 3.4 4.8 6.5v55.4c.3 3.1-1.8 5.9-4.8 6.5-.8.1-1.426.02-2.3-.2q-.865-.218-2.1-.9l-26-19.5c-1.4-1-3.1-1.6-4.8-1.6h-7.078L42.9 75.4q.2 1.6.2 1.8c0 1.8-.8 3.6-2.2 4.9-1.3 1.2-3.1 1.9-5 1.9H28c-4.2 0-7.8-2.8-8.9-6.9L12.617 52zm8.316 0h7.682L34.8 76H28c-.5 0-1-.4-1.1-.9L20.933 52zM76 64V16L53.6 32.8C50.8 34.9 47.5 36 44 36H12v8h32c3.5 0 6.8 1.1 9.6 3.2L76 64z" fill-rule="evenodd"/></svg>