<svg xmlns="http://www.w3.org/2000/svg" width="96" height="96"><path d="M52 75.78A30.632 30.632 0 0 0 71.7 65.1c5.6-7.2 8.6-16.1 8.3-25.2 0-1.1-.5-2.1-1.3-2.8-.7-.7-1.8-1.1-2.8-1.1-1.1 0-2.1.5-2.8 1.3-.7.7-1.1 1.8-1.1 2.8.2 7.2-2.1 14.3-6.5 20-4.4 5.1-10.8 8-17.5 7.9-6.7.1-13.1-2.8-17.5-7.9-4.4-5.7-6.7-12.8-6.5-20 0-1-.4-2.1-1.1-2.8-.7-.8-1.7-1.3-2.8-1.3-1 0-2.1.4-2.8 1.1-.8.7-1.3 1.7-1.3 2.8-.3 9.1 2.7 18 8.3 25.2A30.632 30.632 0 0 0 44 75.78V88c0 1.1.4 2.1 1.2 2.8.7.8 1.7 1.2 2.8 1.2 1.1 0 2.1-.4 2.8-1.2.8-.7 1.2-1.7 1.2-2.8V75.78zM48 4c4.2 0 8.3 1.7 11.3 4.7S64 15.8 64 20v24c0 4.2-1.7 8.3-4.7 11.3S52.2 60 48 60c-4.2 0-8.3-1.7-11.3-4.7S32 48.2 32 44V20c0-4.2 1.7-8.3 4.7-11.3S43.8 4 48 4zm0 8c2.1 0 4.2.8 5.7 2.3 1.5 1.5 2.3 3.6 2.3 5.7v24c0 2.1-.8 4.2-2.3 5.7-1.5 1.5-3.6 2.3-5.7 2.3s-4.2-.8-5.7-2.3C40.8 48.2 40 46.1 40 44V20c0-2.1.8-4.2 2.3-5.7 1.5-1.5 3.6-2.3 5.7-2.3z" fill-rule="evenodd" fill="#454545"/></svg>