<?xml version="1.0" standalone="no"?><!-- Generator: Gravit.io --><svg xmlns="http://www.w3.org/2000/svg" xmlns:xlink="http://www.w3.org/1999/xlink" width="96" height="96"><path d=" M 52 75.77931906914 C 59.60994978630987 74.85238971994939 66.67180473249492 71.06565540212468 71.7 65.1 C 77.3 57.9 80.3 49 80 39.9 C 80 38.8 79.5 37.8 78.7 37.1 C 78 36.4 76.9 36 75.9 36 C 74.8 36 73.8 36.5 73.1 37.3 C 72.4 38 72 39.1 72 40.1 C 72.2 47.3 69.9 54.4 65.5 60.1 C 61.1 65.2 54.7 68.1 48 68 C 41.3 68.1 34.9 65.2 30.5 60.1 C 26.1 54.4 23.8 47.3 24 40.1 C 24 39.1 23.6 38 22.9 37.3 C 22.2 36.5 21.2 36 20.1 36 C 19.1 36 18 36.4 17.3 37.1 C 16.5 37.8 16 38.8 16 39.9 C 15.7 49 18.7 57.9 24.3 65.1 C 29.328195267505084 71.06565540212466 36.390050213690124 74.85238971994939 44 75.77931906914 L 44 88 C 44 89.1 44.4 90.1 45.2 90.8 C 45.9 91.6 46.9 92 48 92 C 49.1 92 50.1 91.6 50.8 90.8 C 51.6 90.1 52 89.1 52 88 L 52 75.77931906914 Z  M 48 4 C 52.2 4 56.3 5.7 59.3 8.7 C 62.3 11.7 64 15.8 64 20 L 64 44 C 64 48.2 62.3 52.3 59.3 55.3 C 56.3 58.3 52.2 60 48 60 C 43.8 60 39.7 58.3 36.7 55.3 C 33.7 52.3 32 48.2 32 44 L 32 20 C 32 15.8 33.7 11.7 36.7 8.7 C 39.7 5.7 43.8 4 48 4 Z  M 48 12 C 50.1 12 52.2 12.8 53.7 14.3 C 55.2 15.8 56 17.9 56 20 L 56 44 C 56 46.1 55.2 48.2 53.7 49.7 C 52.2 51.2 50.1 52 48 52 C 45.9 52 43.8 51.2 42.3 49.7 C 40.8 48.2 40 46.1 40 44 L 40 20 C 40 17.9 40.8 15.8 42.3 14.3 C 43.8 12.8 45.9 12 48 12 Z " fill-rule="evenodd" fill="#454545" stroke="none"/><mask id="_mask_7La2GMHM7sAkabajoOtT3jE2JiCilnVk"><path d=" M 52 75.77931906914 C 59.60994978630987 74.85238971994939 66.67180473249492 71.06565540212468 71.7 65.1 C 77.3 57.9 80.3 49 80 39.9 C 80 38.8 79.5 37.8 78.7 37.1 C 78 36.4 76.9 36 75.9 36 C 74.8 36 73.8 36.5 73.1 37.3 C 72.4 38 72 39.1 72 40.1 C 72.2 47.3 69.9 54.4 65.5 60.1 C 61.1 65.2 54.7 68.1 48 68 C 41.3 68.1 34.9 65.2 30.5 60.1 C 26.1 54.4 23.8 47.3 24 40.1 C 24 39.1 23.6 38 22.9 37.3 C 22.2 36.5 21.2 36 20.1 36 C 19.1 36 18 36.4 17.3 37.1 C 16.5 37.8 16 38.8 16 39.9 C 15.7 49 18.7 57.9 24.3 65.1 C 29.328195267505084 71.06565540212466 36.390050213690124 74.85238971994939 44 75.77931906914 L 44 88 C 44 89.1 44.4 90.1 45.2 90.8 C 45.9 91.6 46.9 92 48 92 C 49.1 92 50.1 91.6 50.8 90.8 C 51.6 90.1 52 89.1 52 88 L 52 75.77931906914 Z  M 48 4 C 52.2 4 56.3 5.7 59.3 8.7 C 62.3 11.7 64 15.8 64 20 L 64 44 C 64 48.2 62.3 52.3 59.3 55.3 C 56.3 58.3 52.2 60 48 60 C 43.8 60 39.7 58.3 36.7 55.3 C 33.7 52.3 32 48.2 32 44 L 32 20 C 32 15.8 33.7 11.7 36.7 8.7 C 39.7 5.7 43.8 4 48 4 Z  M 48 12 C 50.1 12 52.2 12.8 53.7 14.3 C 55.2 15.8 56 17.9 56 20 L 56 44 C 56 46.1 55.2 48.2 53.7 49.7 C 52.2 51.2 50.1 52 48 52 C 45.9 52 43.8 51.2 42.3 49.7 C 40.8 48.2 40 46.1 40 44 L 40 20 C 40 17.9 40.8 15.8 42.3 14.3 C 43.8 12.8 45.9 12 48 12 Z " fill-rule="evenodd" fill="white" stroke="none"/></mask><path d=" M 52 75.77931906914 C 59.60994978630987 74.85238971994939 66.67180473249492 71.06565540212468 71.7 65.1 C 77.3 57.9 80.3 49 80 39.9 C 80 38.8 79.5 37.8 78.7 37.1 C 78 36.4 76.9 36 75.9 36 C 74.8 36 73.8 36.5 73.1 37.3 C 72.4 38 72 39.1 72 40.1 C 72.2 47.3 69.9 54.4 65.5 60.1 C 61.1 65.2 54.7 68.1 48 68 C 41.3 68.1 34.9 65.2 30.5 60.1 C 26.1 54.4 23.8 47.3 24 40.1 C 24 39.1 23.6 38 22.9 37.3 C 22.2 36.5 21.2 36 20.1 36 C 19.1 36 18 36.4 17.3 37.1 C 16.5 37.8 16 38.8 16 39.9 C 15.7 49 18.7 57.9 24.3 65.1 C 29.328195267505084 71.06565540212466 36.390050213690124 74.85238971994939 44 75.77931906914 L 44 88 C 44 89.1 44.4 90.1 45.2 90.8 C 45.9 91.6 46.9 92 48 92 C 49.1 92 50.1 91.6 50.8 90.8 C 51.6 90.1 52 89.1 52 88 L 52 75.77931906914 Z  M 48 4 C 52.2 4 56.3 5.7 59.3 8.7 C 62.3 11.7 64 15.8 64 20 L 64 44 C 64 48.2 62.3 52.3 59.3 55.3 C 56.3 58.3 52.2 60 48 60 C 43.8 60 39.7 58.3 36.7 55.3 C 33.7 52.3 32 48.2 32 44 L 32 20 C 32 15.8 33.7 11.7 36.7 8.7 C 39.7 5.7 43.8 4 48 4 Z  M 48 12 C 50.1 12 52.2 12.8 53.7 14.3 C 55.2 15.8 56 17.9 56 20 L 56 44 C 56 46.1 55.2 48.2 53.7 49.7 C 52.2 51.2 50.1 52 48 52 C 45.9 52 43.8 51.2 42.3 49.7 C 40.8 48.2 40 46.1 40 44 L 40 20 C 40 17.9 40.8 15.8 42.3 14.3 C 43.8 12.8 45.9 12 48 12 Z " fill-rule="evenodd" fill="none" stroke="none" stroke-width="16" mask="url(#_mask_7La2GMHM7sAkabajoOtT3jE2JiCilnVk)"/></svg>