<?xml version="1.0" standalone="no"?><!-- Generator: Gravit.io --><svg xmlns="http://www.w3.org/2000/svg" xmlns:xlink="http://www.w3.org/1999/xlink" width="96" height="96"><path d=" M 4 48 C 4 36.4 8.6 25.3 16.7 17 C 24.9 8.8 36 4.1 47.6 4 C 49.2 3.7 51 4.1 52.3 5.1 C 53.7 6.2 54.6 7.7 54.8 9.4 C 54.5 12.1 46.0179283425633 22.86568986347838 46.8 32.3 C 47.233336735880535 37.52744063279888 47.21118604956216 41.370848898857076 50.9 45.1 C 54.649472145217906 48.89047259279218 58.58527686114867 48.87580452403171 63.9 49.3 C 73.31289443037338 50.05129167198622 84 41.5 86.7 41.2 C 88.3 41.4 89.9 42.3 90.9 43.7 C 91.9 45.1 92.3 46.8 92 48.5 C 91.9 60 87.2 71.1 79 79.3 C 70.7 87.4 59.6 92 48 92 C 36.3 92 25.1 87.4 16.9 79.1 C 8.6 70.9 4 59.7 4 48 Z  M 45.3 12.1 C 45.3 12.1 45.3 12.1 45.3 12.1 C 41.4 18.1 39.2 25 38.8 32.1 C 38.9 38.9 39.645764922317355 45.411191054586915 45.1 50.9 C 50.58908589094074 56.423880674599936 57.2 57.2 64 57.3 C 71.1 56.9 78 54.7 83.9 50.8 C 83.2 59.8 79.1 68.3 72.4 74.4 C 65.8 80.6 57.1 84 48 84 C 38.5 84 29.3 80.2 22.5 73.5 C 15.8 66.7 12 57.5 12 48 C 12 38.9 15.4 30.2 21.6 23.5 C 27.8 16.9 36.3 12.8 45.3 12.1 Z " fill-rule="evenodd" fill="#454545" stroke="none"/><mask id="_mask_sUmPubFAkrJw2QiypAnbw5Co4eXfY3v8"><path d=" M 4 48 C 4 36.4 8.6 25.3 16.7 17 C 24.9 8.8 36 4.1 47.6 4 C 49.2 3.7 51 4.1 52.3 5.1 C 53.7 6.2 54.6 7.7 54.8 9.4 C 54.5 12.1 46.0179283425633 22.86568986347838 46.8 32.3 C 47.233336735880535 37.52744063279888 47.21118604956216 41.370848898857076 50.9 45.1 C 54.649472145217906 48.89047259279218 58.58527686114867 48.87580452403171 63.9 49.3 C 73.31289443037338 50.05129167198622 84 41.5 86.7 41.2 C 88.3 41.4 89.9 42.3 90.9 43.7 C 91.9 45.1 92.3 46.8 92 48.5 C 91.9 60 87.2 71.1 79 79.3 C 70.7 87.4 59.6 92 48 92 C 36.3 92 25.1 87.4 16.9 79.1 C 8.6 70.9 4 59.7 4 48 Z  M 45.3 12.1 C 45.3 12.1 45.3 12.1 45.3 12.1 C 41.4 18.1 39.2 25 38.8 32.1 C 38.9 38.9 39.645764922317355 45.411191054586915 45.1 50.9 C 50.58908589094074 56.423880674599936 57.2 57.2 64 57.3 C 71.1 56.9 78 54.7 83.9 50.8 C 83.2 59.8 79.1 68.3 72.4 74.4 C 65.8 80.6 57.1 84 48 84 C 38.5 84 29.3 80.2 22.5 73.5 C 15.8 66.7 12 57.5 12 48 C 12 38.9 15.4 30.2 21.6 23.5 C 27.8 16.9 36.3 12.8 45.3 12.1 Z " fill-rule="evenodd" fill="white" stroke="none"/></mask><path d=" M 4 48 C 4 36.4 8.6 25.3 16.7 17 C 24.9 8.8 36 4.1 47.6 4 C 49.2 3.7 51 4.1 52.3 5.1 C 53.7 6.2 54.6 7.7 54.8 9.4 C 54.5 12.1 46.0179283425633 22.86568986347838 46.8 32.3 C 47.233336735880535 37.52744063279888 47.21118604956216 41.370848898857076 50.9 45.1 C 54.649472145217906 48.89047259279218 58.58527686114867 48.87580452403171 63.9 49.3 C 73.31289443037338 50.05129167198622 84 41.5 86.7 41.2 C 88.3 41.4 89.9 42.3 90.9 43.7 C 91.9 45.1 92.3 46.8 92 48.5 C 91.9 60 87.2 71.1 79 79.3 C 70.7 87.4 59.6 92 48 92 C 36.3 92 25.1 87.4 16.9 79.1 C 8.6 70.9 4 59.7 4 48 Z  M 45.3 12.1 C 45.3 12.1 45.3 12.1 45.3 12.1 C 41.4 18.1 39.2 25 38.8 32.1 C 38.9 38.9 39.645764922317355 45.411191054586915 45.1 50.9 C 50.58908589094074 56.423880674599936 57.2 57.2 64 57.3 C 71.1 56.9 78 54.7 83.9 50.8 C 83.2 59.8 79.1 68.3 72.4 74.4 C 65.8 80.6 57.1 84 48 84 C 38.5 84 29.3 80.2 22.5 73.5 C 15.8 66.7 12 57.5 12 48 C 12 38.9 15.4 30.2 21.6 23.5 C 27.8 16.9 36.3 12.8 45.3 12.1 Z " fill-rule="evenodd" fill="none" stroke="none" stroke-width="16" mask="url(#_mask_sUmPubFAkrJw2QiypAnbw5Co4eXfY3v8)"/></svg>