<svg xmlns="http://www.w3.org/2000/svg" width="96" height="96"><path d="M4 48c0-11.6 4.6-22.7 12.7-31C24.9 8.8 36 4.1 47.6 4c1.6-.3 3.4.1 4.7 1.1 1.4 1.1 2.3 2.6 2.5 4.3-.3 2.7-8.782 13.466-8 22.9.433 5.227.411 9.07 4.1 12.8 3.75 3.79 7.685 3.776 13 4.2 9.413.751 20.1-7.8 22.8-8.1 1.6.2 3.2 1.1 4.2 2.5s1.4 3.1 1.1 4.8c-.1 11.5-4.8 22.6-13 30.8C70.7 87.4 59.6 92 48 92c-11.7 0-22.9-4.6-31.1-12.9C8.6 70.9 4 59.7 4 48zm41.3-35.9c-3.9 6-6.1 12.9-6.5 20 .1 6.8.846 13.311 6.3 18.8 5.49 5.524 12.1 6.3 18.9 6.4 7.1-.4 14-2.6 19.9-6.5-.7 9-4.8 17.5-11.5 23.6C65.8 80.6 57.1 84 48 84c-9.5 0-18.7-3.8-25.5-10.5C15.8 66.7 12 57.5 12 48c0-9.1 3.4-17.8 9.6-24.5 6.2-6.6 14.7-10.7 23.7-11.4z" fill-rule="evenodd" fill="#454545"/></svg>