<?xml version="1.0" standalone="no"?><!-- Generator: Gravit.io --><svg xmlns="http://www.w3.org/2000/svg" xmlns:xlink="http://www.w3.org/1999/xlink" width="96" height="96"><path d=" M 68 44 C 68 41.9 67.2 39.8 65.7 38.3 C 64.2 36.8 62.099999999999994 36 60 36 L 20 36 L 20 36 C 17.9 36 15.8 36.8 14.3 38.3 C 12.8 39.8 12 41.9 12 44 L 12 84 C 12 86.1 12.8 88.2 14.3 89.7 C 15.8 91.2 17.9 92 20 92 L 60 92 C 62.099999999999994 92 64.2 91.2 65.7 89.7 C 67.2 88.2 68 86.1 68 84 L 68 83.37151029011 C 72.70914563724479 82.06262203120937 76.82992607248416 78.90270942212436 79.3 74.6 C 82.2 70.3 83.9 65.3 84 60.1 C 84 55.8 82.3 51.7 79.3 48.7 C 76.3 45.7 72.3 44 68 44 Z  M 68 52 L 68 74.80035502239 C 69.86875157656898 73.8133957107155 71.44299881961305 72.27911320957679 72.5 70.4 C 74.7 67.3 75.9 63.7 76 59.9 C 76 57.8 75.1 55.8 73.6 54.3 C 72.1 52.8 70.1 52 68 52 Z  M 20 44 L 60 44 L 60 84 L 20 84 L 20 44 L 20 44 Z  M 28 24 C 28 25.1 27.6 26.1 26.8 26.8 C 26.1 27.6 25.1 28 24 28 C 22.9 28 21.9 27.6 21.2 26.8 C 20.4 26.1 20 25.1 20 24 L 20 16 C 20 14.9 20.4 13.9 21.2 13.2 C 21.9 12.4 22.9 12 24 12 C 25.1 12 26.1 12.4 26.8 13.2 C 27.6 13.9 28 14.9 28 16 L 28 24 Z  M 44 16 C 44 17.1 43.6 18.1 42.8 18.8 C 42.1 19.6 41.1 20 40 20 C 38.9 20 37.9 19.6 37.2 18.8 C 36.4 18.1 36 17.1 36 16 L 36 8 C 36 6.9 36.4 5.9 37.2 5.2 C 37.9 4.4 38.9 4 40 4 C 41.1 4 42.1 4.4 42.8 5.2 C 43.6 5.9 44 6.9 44 8 L 44 16 Z  M 60 24 C 60 25.1 59.6 26.1 58.8 26.8 C 58.1 27.6 57.1 28 56 28 C 54.9 28 53.9 27.6 53.2 26.8 C 52.4 26.1 52 25.1 52 24 L 52 16 C 52 14.9 52.4 13.9 53.2 13.2 C 53.9 12.4 54.9 12 56 12 C 57.1 12 58.1 12.4 58.8 13.2 C 59.6 13.9 60 14.9 60 16 L 60 24 Z " fill-rule="evenodd" fill="#454545" stroke="none"/><mask id="_mask_p33UbV0cihQMwP8EBsuQm0LhGnAe4ELI"><path d=" M 68 44 C 68 41.9 67.2 39.8 65.7 38.3 C 64.2 36.8 62.099999999999994 36 60 36 L 20 36 L 20 36 C 17.9 36 15.8 36.8 14.3 38.3 C 12.8 39.8 12 41.9 12 44 L 12 84 C 12 86.1 12.8 88.2 14.3 89.7 C 15.8 91.2 17.9 92 20 92 L 60 92 C 62.099999999999994 92 64.2 91.2 65.7 89.7 C 67.2 88.2 68 86.1 68 84 L 68 83.37151029011 C 72.70914563724479 82.06262203120937 76.82992607248416 78.90270942212436 79.3 74.6 C 82.2 70.3 83.9 65.3 84 60.1 C 84 55.8 82.3 51.7 79.3 48.7 C 76.3 45.7 72.3 44 68 44 Z  M 68 52 L 68 74.80035502239 C 69.86875157656898 73.8133957107155 71.44299881961305 72.27911320957679 72.5 70.4 C 74.7 67.3 75.9 63.7 76 59.9 C 76 57.8 75.1 55.8 73.6 54.3 C 72.1 52.8 70.1 52 68 52 Z  M 20 44 L 60 44 L 60 84 L 20 84 L 20 44 L 20 44 Z  M 28 24 C 28 25.1 27.6 26.1 26.8 26.8 C 26.1 27.6 25.1 28 24 28 C 22.9 28 21.9 27.6 21.2 26.8 C 20.4 26.1 20 25.1 20 24 L 20 16 C 20 14.9 20.4 13.9 21.2 13.2 C 21.9 12.4 22.9 12 24 12 C 25.1 12 26.1 12.4 26.8 13.2 C 27.6 13.9 28 14.9 28 16 L 28 24 Z  M 44 16 C 44 17.1 43.6 18.1 42.8 18.8 C 42.1 19.6 41.1 20 40 20 C 38.9 20 37.9 19.6 37.2 18.8 C 36.4 18.1 36 17.1 36 16 L 36 8 C 36 6.9 36.4 5.9 37.2 5.2 C 37.9 4.4 38.9 4 40 4 C 41.1 4 42.1 4.4 42.8 5.2 C 43.6 5.9 44 6.9 44 8 L 44 16 Z  M 60 24 C 60 25.1 59.6 26.1 58.8 26.8 C 58.1 27.6 57.1 28 56 28 C 54.9 28 53.9 27.6 53.2 26.8 C 52.4 26.1 52 25.1 52 24 L 52 16 C 52 14.9 52.4 13.9 53.2 13.2 C 53.9 12.4 54.9 12 56 12 C 57.1 12 58.1 12.4 58.8 13.2 C 59.6 13.9 60 14.9 60 16 L 60 24 Z " fill-rule="evenodd" fill="white" stroke="none"/></mask><path d=" M 68 44 C 68 41.9 67.2 39.8 65.7 38.3 C 64.2 36.8 62.099999999999994 36 60 36 L 20 36 L 20 36 C 17.9 36 15.8 36.8 14.3 38.3 C 12.8 39.8 12 41.9 12 44 L 12 84 C 12 86.1 12.8 88.2 14.3 89.7 C 15.8 91.2 17.9 92 20 92 L 60 92 C 62.099999999999994 92 64.2 91.2 65.7 89.7 C 67.2 88.2 68 86.1 68 84 L 68 83.37151029011 C 72.70914563724479 82.06262203120937 76.82992607248416 78.90270942212436 79.3 74.6 C 82.2 70.3 83.9 65.3 84 60.1 C 84 55.8 82.3 51.7 79.3 48.7 C 76.3 45.7 72.3 44 68 44 Z  M 68 52 L 68 74.80035502239 C 69.86875157656898 73.8133957107155 71.44299881961305 72.27911320957679 72.5 70.4 C 74.7 67.3 75.9 63.7 76 59.9 C 76 57.8 75.1 55.8 73.6 54.3 C 72.1 52.8 70.1 52 68 52 Z  M 20 44 L 60 44 L 60 84 L 20 84 L 20 44 L 20 44 Z  M 28 24 C 28 25.1 27.6 26.1 26.8 26.8 C 26.1 27.6 25.1 28 24 28 C 22.9 28 21.9 27.6 21.2 26.8 C 20.4 26.1 20 25.1 20 24 L 20 16 C 20 14.9 20.4 13.9 21.2 13.2 C 21.9 12.4 22.9 12 24 12 C 25.1 12 26.1 12.4 26.8 13.2 C 27.6 13.9 28 14.9 28 16 L 28 24 Z  M 44 16 C 44 17.1 43.6 18.1 42.8 18.8 C 42.1 19.6 41.1 20 40 20 C 38.9 20 37.9 19.6 37.2 18.8 C 36.4 18.1 36 17.1 36 16 L 36 8 C 36 6.9 36.4 5.9 37.2 5.2 C 37.9 4.4 38.9 4 40 4 C 41.1 4 42.1 4.4 42.8 5.2 C 43.6 5.9 44 6.9 44 8 L 44 16 Z  M 60 24 C 60 25.1 59.6 26.1 58.8 26.8 C 58.1 27.6 57.1 28 56 28 C 54.9 28 53.9 27.6 53.2 26.8 C 52.4 26.1 52 25.1 52 24 L 52 16 C 52 14.9 52.4 13.9 53.2 13.2 C 53.9 12.4 54.9 12 56 12 C 57.1 12 58.1 12.4 58.8 13.2 C 59.6 13.9 60 14.9 60 16 L 60 24 Z " fill-rule="evenodd" fill="none" stroke="none" stroke-width="16" mask="url(#_mask_p33UbV0cihQMwP8EBsuQm0LhGnAe4ELI)"/></svg>