<?xml version="1.0" standalone="no"?><!-- Generator: Gravit.io --><svg xmlns="http://www.w3.org/2000/svg" xmlns:xlink="http://www.w3.org/1999/xlink" width="96" height="96"><path d=" M 79.99527521966327 52.986251408150125 L 79.99527521966327 16.946586198760123 L 41.09527521966327 29.946586198760123 C 40.39527521966327 30.146586198760122 39.99527521966327 30.746586198760124 39.99527521966327 31.446586198760123 L 39.99527521966327 75.44658619876012 C 39.89527521966327 79.24658619876013 37.79527521966327 82.64658619876013 34.59527521966327 84.54658619876011 C 31.39527521966327 86.54658619876011 27.69527521966327 87.54658619876011 23.99527521966327 87.44658619876012 C 20.29527521966327 87.54658619876011 16.59527521966327 86.54658619876011 13.39527521966327 84.54658619876011 C 10.19527521966327 82.64658619876013 8.09527521966327 79.24658619876013 7.99527521966327 75.44658619876012 C 8.19527521966327 71.64658619876013 10.19527521966327 68.24658619876013 13.49527521966327 66.34658619876012 C 16.59527521966327 64.34658619876012 20.29527521966327 63.34658619876012 23.99527521966327 63.44658619876012 C 26.72917635772542 63.3726969788125 29.463077495787577 63.89936560955642 31.99527521966327 64.98625140815012 L 31.99527521966327 31.446586198760123 C 31.99527521966327 27.34658619876012 34.59527521966327 23.646586198760122 38.49527521966327 22.34658619876012 L 79.19527521966327 8.846586198760123 Q 80.68277521966327 8.546586198760123 81.49527521966327 8.546586198760123 C 83.29527521966327 8.646586198760122 84.99527521966327 9.346586198760123 86.19527521966327 10.746586198760124 C 87.39527521966328 12.046586198760123 88.09527521966326 13.746586198760124 87.99527521966327 15.546586198760123 L 87.99527521966327 62.44658619876012 C 87.99527521966327 62.60770372717964 87.99066025816713 63.27121766190645 87.99527521966327 63.44658619876012 C 87.89527521966328 67.24658619876013 85.79527521966327 70.64658619876013 82.59527521966326 72.54658619876011 C 79.39527521966328 74.54658619876011 75.69527521966327 75.54658619876011 71.99527521966327 75.44658619876012 C 68.29527521966327 75.54658619876011 64.59527521966328 74.54658619876011 61.39527521966327 72.54658619876011 C 58.19527521966327 70.64658619876013 56.09527521966327 67.24658619876013 55.99527521966327 63.44658619876012 L 55.99527521966327 63.44658619876012 C 56.19527521966327 59.646586198760126 58.19527521966327 56.24658619876012 61.49527521966327 54.34658619876012 C 64.59527521966328 52.34658619876012 68.29527521966327 51.34658619876012 71.99527521966327 51.44658619876012 C 74.72917635772542 51.3726969788125 77.46307749578757 51.89936560955642 79.99527521966327 52.986251408150125 Z  M 63.99527521966327 63.44658619876012 C 64.19527521966327 62.546586198760124 64.69527521966327 61.74658619876012 65.49527521966327 61.24658619876012 C 67.49527521966327 59.94658619876012 69.69527521966327 59.34658619876012 71.99527521966327 59.44658619876012 C 74.29527521966327 59.34658619876012 76.49527521966327 59.94658619876012 78.39527521966328 61.24658619876012 C 79.29527521966327 61.646586198760126 79.79527521966327 62.546586198760124 79.99527521966327 63.44658619876012 C 79.79527521966327 64.34658619876012 79.29527521966327 65.24658619876013 78.39527521966328 65.64658619876013 C 76.49527521966327 66.94658619876012 74.29527521966327 67.54658619876011 71.99527521966327 67.44658619876012 C 69.69527521966327 67.54658619876011 67.49527521966327 66.94658619876012 65.59527521966328 65.64658619876013 C 64.69527521966327 65.24658619876013 64.19527521966327 64.34658619876012 63.99527521966327 63.44658619876012 L 63.99527521966327 63.44658619876012 Z  M 15.99527521966327 75.44658619876012 C 16.19527521966327 76.34658619876012 16.69527521966327 77.24658619876013 17.59527521966327 77.64658619876013 C 19.49527521966327 78.94658619876012 21.69527521966327 79.54658619876011 23.99527521966327 79.44658619876012 C 26.29527521966327 79.54658619876011 28.49527521966327 78.94658619876012 30.39527521966327 77.64658619876013 C 31.29527521966327 77.24658619876013 31.79527521966327 76.34658619876012 31.99527521966327 75.44658619876012 C 31.79527521966327 74.54658619876011 31.29527521966327 73.64658619876013 30.39527521966327 73.24658619876013 C 28.49527521966327 71.94658619876012 26.29527521966327 71.34658619876012 23.99527521966327 71.44658619876012 C 21.69527521966327 71.34658619876012 19.49527521966327 71.94658619876012 17.49527521966327 73.24658619876013 C 16.69527521966327 73.74658619876013 16.19527521966327 74.54658619876011 15.99527521966327 75.44658619876012 L 15.99527521966327 75.44658619876012 Z " fill-rule="evenodd" fill="#454545" stroke="none"/><mask id="_mask_U0ep6XFkD1KP7jzLcey1VsoxTc1ZakzJ"><path d=" M 79.99527521966327 52.986251408150125 L 79.99527521966327 16.946586198760123 L 41.09527521966327 29.946586198760123 C 40.39527521966327 30.146586198760122 39.99527521966327 30.746586198760124 39.99527521966327 31.446586198760123 L 39.99527521966327 75.44658619876012 C 39.89527521966327 79.24658619876013 37.79527521966327 82.64658619876013 34.59527521966327 84.54658619876011 C 31.39527521966327 86.54658619876011 27.69527521966327 87.54658619876011 23.99527521966327 87.44658619876012 C 20.29527521966327 87.54658619876011 16.59527521966327 86.54658619876011 13.39527521966327 84.54658619876011 C 10.19527521966327 82.64658619876013 8.09527521966327 79.24658619876013 7.99527521966327 75.44658619876012 C 8.19527521966327 71.64658619876013 10.19527521966327 68.24658619876013 13.49527521966327 66.34658619876012 C 16.59527521966327 64.34658619876012 20.29527521966327 63.34658619876012 23.99527521966327 63.44658619876012 C 26.72917635772542 63.3726969788125 29.463077495787577 63.89936560955642 31.99527521966327 64.98625140815012 L 31.99527521966327 31.446586198760123 C 31.99527521966327 27.34658619876012 34.59527521966327 23.646586198760122 38.49527521966327 22.34658619876012 L 79.19527521966327 8.846586198760123 Q 80.68277521966327 8.546586198760123 81.49527521966327 8.546586198760123 C 83.29527521966327 8.646586198760122 84.99527521966327 9.346586198760123 86.19527521966327 10.746586198760124 C 87.39527521966328 12.046586198760123 88.09527521966326 13.746586198760124 87.99527521966327 15.546586198760123 L 87.99527521966327 62.44658619876012 C 87.99527521966327 62.60770372717964 87.99066025816713 63.27121766190645 87.99527521966327 63.44658619876012 C 87.89527521966328 67.24658619876013 85.79527521966327 70.64658619876013 82.59527521966326 72.54658619876011 C 79.39527521966328 74.54658619876011 75.69527521966327 75.54658619876011 71.99527521966327 75.44658619876012 C 68.29527521966327 75.54658619876011 64.59527521966328 74.54658619876011 61.39527521966327 72.54658619876011 C 58.19527521966327 70.64658619876013 56.09527521966327 67.24658619876013 55.99527521966327 63.44658619876012 L 55.99527521966327 63.44658619876012 C 56.19527521966327 59.646586198760126 58.19527521966327 56.24658619876012 61.49527521966327 54.34658619876012 C 64.59527521966328 52.34658619876012 68.29527521966327 51.34658619876012 71.99527521966327 51.44658619876012 C 74.72917635772542 51.3726969788125 77.46307749578757 51.89936560955642 79.99527521966327 52.986251408150125 Z  M 63.99527521966327 63.44658619876012 C 64.19527521966327 62.546586198760124 64.69527521966327 61.74658619876012 65.49527521966327 61.24658619876012 C 67.49527521966327 59.94658619876012 69.69527521966327 59.34658619876012 71.99527521966327 59.44658619876012 C 74.29527521966327 59.34658619876012 76.49527521966327 59.94658619876012 78.39527521966328 61.24658619876012 C 79.29527521966327 61.646586198760126 79.79527521966327 62.546586198760124 79.99527521966327 63.44658619876012 C 79.79527521966327 64.34658619876012 79.29527521966327 65.24658619876013 78.39527521966328 65.64658619876013 C 76.49527521966327 66.94658619876012 74.29527521966327 67.54658619876011 71.99527521966327 67.44658619876012 C 69.69527521966327 67.54658619876011 67.49527521966327 66.94658619876012 65.59527521966328 65.64658619876013 C 64.69527521966327 65.24658619876013 64.19527521966327 64.34658619876012 63.99527521966327 63.44658619876012 L 63.99527521966327 63.44658619876012 Z  M 15.99527521966327 75.44658619876012 C 16.19527521966327 76.34658619876012 16.69527521966327 77.24658619876013 17.59527521966327 77.64658619876013 C 19.49527521966327 78.94658619876012 21.69527521966327 79.54658619876011 23.99527521966327 79.44658619876012 C 26.29527521966327 79.54658619876011 28.49527521966327 78.94658619876012 30.39527521966327 77.64658619876013 C 31.29527521966327 77.24658619876013 31.79527521966327 76.34658619876012 31.99527521966327 75.44658619876012 C 31.79527521966327 74.54658619876011 31.29527521966327 73.64658619876013 30.39527521966327 73.24658619876013 C 28.49527521966327 71.94658619876012 26.29527521966327 71.34658619876012 23.99527521966327 71.44658619876012 C 21.69527521966327 71.34658619876012 19.49527521966327 71.94658619876012 17.49527521966327 73.24658619876013 C 16.69527521966327 73.74658619876013 16.19527521966327 74.54658619876011 15.99527521966327 75.44658619876012 L 15.99527521966327 75.44658619876012 Z " fill-rule="evenodd" fill="white" stroke="none"/></mask><path d=" M 79.99527521966327 52.986251408150125 L 79.99527521966327 16.946586198760123 L 41.09527521966327 29.946586198760123 C 40.39527521966327 30.146586198760122 39.99527521966327 30.746586198760124 39.99527521966327 31.446586198760123 L 39.99527521966327 75.44658619876012 C 39.89527521966327 79.24658619876013 37.79527521966327 82.64658619876013 34.59527521966327 84.54658619876011 C 31.39527521966327 86.54658619876011 27.69527521966327 87.54658619876011 23.99527521966327 87.44658619876012 C 20.29527521966327 87.54658619876011 16.59527521966327 86.54658619876011 13.39527521966327 84.54658619876011 C 10.19527521966327 82.64658619876013 8.09527521966327 79.24658619876013 7.99527521966327 75.44658619876012 C 8.19527521966327 71.64658619876013 10.19527521966327 68.24658619876013 13.49527521966327 66.34658619876012 C 16.59527521966327 64.34658619876012 20.29527521966327 63.34658619876012 23.99527521966327 63.44658619876012 C 26.72917635772542 63.3726969788125 29.463077495787577 63.89936560955642 31.99527521966327 64.98625140815012 L 31.99527521966327 31.446586198760123 C 31.99527521966327 27.34658619876012 34.59527521966327 23.646586198760122 38.49527521966327 22.34658619876012 L 79.19527521966327 8.846586198760123 Q 80.68277521966327 8.546586198760123 81.49527521966327 8.546586198760123 C 83.29527521966327 8.646586198760122 84.99527521966327 9.346586198760123 86.19527521966327 10.746586198760124 C 87.39527521966328 12.046586198760123 88.09527521966326 13.746586198760124 87.99527521966327 15.546586198760123 L 87.99527521966327 62.44658619876012 C 87.99527521966327 62.60770372717964 87.99066025816713 63.27121766190645 87.99527521966327 63.44658619876012 C 87.89527521966328 67.24658619876013 85.79527521966327 70.64658619876013 82.59527521966326 72.54658619876011 C 79.39527521966328 74.54658619876011 75.69527521966327 75.54658619876011 71.99527521966327 75.44658619876012 C 68.29527521966327 75.54658619876011 64.59527521966328 74.54658619876011 61.39527521966327 72.54658619876011 C 58.19527521966327 70.64658619876013 56.09527521966327 67.24658619876013 55.99527521966327 63.44658619876012 L 55.99527521966327 63.44658619876012 C 56.19527521966327 59.646586198760126 58.19527521966327 56.24658619876012 61.49527521966327 54.34658619876012 C 64.59527521966328 52.34658619876012 68.29527521966327 51.34658619876012 71.99527521966327 51.44658619876012 C 74.72917635772542 51.3726969788125 77.46307749578757 51.89936560955642 79.99527521966327 52.986251408150125 Z  M 63.99527521966327 63.44658619876012 C 64.19527521966327 62.546586198760124 64.69527521966327 61.74658619876012 65.49527521966327 61.24658619876012 C 67.49527521966327 59.94658619876012 69.69527521966327 59.34658619876012 71.99527521966327 59.44658619876012 C 74.29527521966327 59.34658619876012 76.49527521966327 59.94658619876012 78.39527521966328 61.24658619876012 C 79.29527521966327 61.646586198760126 79.79527521966327 62.546586198760124 79.99527521966327 63.44658619876012 C 79.79527521966327 64.34658619876012 79.29527521966327 65.24658619876013 78.39527521966328 65.64658619876013 C 76.49527521966327 66.94658619876012 74.29527521966327 67.54658619876011 71.99527521966327 67.44658619876012 C 69.69527521966327 67.54658619876011 67.49527521966327 66.94658619876012 65.59527521966328 65.64658619876013 C 64.69527521966327 65.24658619876013 64.19527521966327 64.34658619876012 63.99527521966327 63.44658619876012 L 63.99527521966327 63.44658619876012 Z  M 15.99527521966327 75.44658619876012 C 16.19527521966327 76.34658619876012 16.69527521966327 77.24658619876013 17.59527521966327 77.64658619876013 C 19.49527521966327 78.94658619876012 21.69527521966327 79.54658619876011 23.99527521966327 79.44658619876012 C 26.29527521966327 79.54658619876011 28.49527521966327 78.94658619876012 30.39527521966327 77.64658619876013 C 31.29527521966327 77.24658619876013 31.79527521966327 76.34658619876012 31.99527521966327 75.44658619876012 C 31.79527521966327 74.54658619876011 31.29527521966327 73.64658619876013 30.39527521966327 73.24658619876013 C 28.49527521966327 71.94658619876012 26.29527521966327 71.34658619876012 23.99527521966327 71.44658619876012 C 21.69527521966327 71.34658619876012 19.49527521966327 71.94658619876012 17.49527521966327 73.24658619876013 C 16.69527521966327 73.74658619876013 16.19527521966327 74.54658619876011 15.99527521966327 75.44658619876012 L 15.99527521966327 75.44658619876012 Z " fill-rule="evenodd" fill="none" stroke="none" stroke-width="16" mask="url(#_mask_U0ep6XFkD1KP7jzLcey1VsoxTc1ZakzJ)"/></svg>