<svg xmlns="http://www.w3.org/2000/svg" width="96" height="96"><path d="M79.995 52.986v-36.04l-38.9 13c-.7.2-1.1.8-1.1 1.5v44c-.1 3.8-2.2 7.2-5.4 9.1-3.2 2-6.9 3-10.6 2.9-3.7.1-7.4-.9-10.6-2.9-3.2-1.9-5.3-5.3-5.4-9.1.2-3.8 2.2-7.2 5.5-9.1 3.1-2 6.8-3 10.5-2.9a19.002 19.002 0 0 1 8 1.54v-33.54c0-4.1 2.6-7.8 6.5-9.1l40.7-13.5q1.488-.3 2.3-.3c1.8.1 3.5.8 4.7 2.2 1.2 1.3 1.9 3 1.8 4.8v46.9c0 .162-.004.825 0 1-.1 3.8-2.2 7.2-5.4 9.1-3.2 2-6.9 3-10.6 2.9-3.7.1-7.4-.9-10.6-2.9-3.2-1.9-5.3-5.3-5.4-9.1.2-3.8 2.2-7.2 5.5-9.1 3.1-2 6.8-3 10.5-2.9a19.002 19.002 0 0 1 8 1.54zm-16 10.46c.2-.9.7-1.7 1.5-2.2 2-1.3 4.2-1.9 6.5-1.8 2.3-.1 4.5.5 6.4 1.8.9.4 1.4 1.3 1.6 2.2-.2.9-.7 1.8-1.6 2.2-1.9 1.3-4.1 1.9-6.4 1.8-2.3.1-4.5-.5-6.4-1.8-.9-.4-1.4-1.3-1.6-2.2zm-48 12c.2.9.7 1.8 1.6 2.2 1.9 1.3 4.1 1.9 6.4 1.8 2.3.1 4.5-.5 6.4-1.8.9-.4 1.4-1.3 1.6-2.2-.2-.9-.7-1.8-1.6-2.2-1.9-1.3-4.1-1.9-6.4-1.8-2.3-.1-4.5.5-6.5 1.8-.8.5-1.3 1.3-1.5 2.2z" fill-rule="evenodd"/></svg>