<svg xmlns="http://www.w3.org/2000/svg" style="isolation:isolate" width="96" height="96"><path d="M34 68c-1.1 0-2.1-.4-2.8-1.2-.8-.7-1.2-1.7-1.2-2.8 0-1.1.4-2.1 1.2-2.8.7-.8 1.7-1.2 2.8-1.2h40c1.1 0 2.1.4 2.8 1.2.8.7 1.2 1.7 1.2 2.8 0 1.1-.4 2.1-1.2 2.8-.7.8-1.7 1.2-2.8 1.2H34zm40-24c1.1 0 2.1.4 2.8 1.2.8.7 1.2 1.7 1.2 2.8 0 1.1-.4 2.1-1.2 2.8-.7.8-1.7 1.2-2.8 1.2H64c-1.1 0-2.1-.4-2.8-1.2-.8-.7-1.2-1.7-1.2-2.8 0-1.1.4-2.1 1.2-2.8.7-.8 1.7-1.2 2.8-1.2h10zm0-16c1.1 0 2.1.4 2.8 1.2.8.7 1.2 1.7 1.2 2.8 0 1.1-.4 2.1-1.2 2.8-.7.8-1.7 1.2-2.8 1.2H64c-1.1 0-2.1-.4-2.8-1.2-.8-.7-1.2-1.7-1.2-2.8 0-1.1.4-2.1 1.2-2.8.7-.8 1.7-1.2 2.8-1.2h10zm-26 8H36v8h12v-8zm0-8H36c-2.1 0-4.2.8-5.7 2.3-1.5 1.5-2.3 3.6-2.3 5.7v8c0 2.1.8 4.2 2.3 5.7 1.5 1.5 3.6 2.3 5.7 2.3h12c2.1 0 4.2-.8 5.7-2.3 1.5-1.5 2.3-3.6 2.3-5.7v-8c0-2.1-.8-4.2-2.3-5.7-1.5-1.5-3.6-2.3-5.7-2.3zm36 52q4.004-.604 5.7-2.3c1.696-1.696 2.3-3.6 2.3-5.7V24c0-2.1-.8-4.2-2.3-5.7-1.5-1.5-3.6-2.3-5.7-2.3H24c-2.1 0-4 .607-5.7 2.3q-1.827 1.82-2.3 6.195a29.96 29.96 0 0 0-2.3.505c-1.5.4-2.9 1-4.2 1.7-1.6 1-3 2.3-4 4C4.5 32.3 4 34.1 4 36v32c0 2.3.7 4.5 2 6.4 1.3 1.9 3.1 3.4 5.2 4.3q1.574.555 4.8 1.171L84 80zm-68-8.203V32.702q-1.686.256-2.5.898-.867.684-1.5 2.4v32q.583 2.103 1.6 2.9.787.617 2.4.897zM84 72V24H24v47.985L84 72z" fill-rule="evenodd"/></svg>