<svg xmlns="http://www.w3.org/2000/svg" style="isolation:isolate" width="96" height="96"><path d="M73 53.8l-11.8 4.5c-.7.3-1.2 1-1.2 1.7v10.2l11.8-4.5c.7-.3 1.2-1 1.2-1.7V53.8zm-.8-8.2l-13.9 5.2C54.5 52.3 52 55.9 52 60v11.9c-.1 1.7.5 3.4 1.7 4.7 1.2 1.3 2.8 2.1 4.5 2.2q.4 0 2.6-.4l13.9-5.2c3.8-1.5 6.3-5.1 6.3-9.2V52.1c.1-1.7-.5-3.4-1.7-4.7-1.2-1.3-2.8-2.1-4.5-2.2q-.4 0-2.6.4zM17.9 20.332L45.4 9.4q1.567-.5 2.6-.5 1.033 0 2.6.5l27.5 10.932L50.6 31.6q-1.567.5-2.6.5-1.033 0-2.6-.5L17.9 20.332zm-5.9 6.22V72c0 .8.5 1.5 1.2 1.8l32.2 12.8q1.567.5 2.6.5 1.033 0 2.6-.5l32.2-12.8c.7-.3 1.2-1 1.2-1.8V26.553L52.8 39.4q-2.9.8-4.8.8t-4.8-.8L12 26.553zM43.2 1.6l-33 13.2C6.5 16.3 4 20 4 24v48c0 4 2.5 7.7 6.2 9.2l33 13.2q2.9.8 4.8.8t4.8-.8l33-13.2C89.5 79.7 92 76 92 72V24c0-4-2.5-7.7-6.2-9.2l-33-13.2Q49.9.8 48 .8t-4.8.8z" fill-rule="evenodd"/></svg>