<svg xmlns="http://www.w3.org/2000/svg" width="96" height="96"><path d="M40.226 13.846l2.828-2.829c5.233-5.232 12.374-8.131 19.8-8.202 7.424.07 14.565 2.97 19.798 8.202 5.233 5.233 8.132 12.375 8.202 19.8-.07 7.424-2.97 14.566-8.202 19.798l-2.828 2.829L48.71 84.557l-2.829 2.828c-3.747 3.748-8.838 5.869-14.142 5.798-5.303.071-10.394-2.05-14.142-5.798-3.747-3.748-5.869-8.839-5.798-14.142-.07-5.303 2.05-10.395 5.798-14.142l2.829-2.829 26.87-26.87 2.828-2.828c2.263-2.263 5.303-3.465 8.485-3.536 3.182.071 6.223 1.273 8.486 3.536 2.262 2.263 3.465 5.303 3.535 8.485-.07 3.182-1.273 6.223-3.535 8.485l-2.829 2.829L34.57 76.07c-.778.778-1.768 1.202-2.829 1.132-1.06.07-2.05-.354-2.828-1.132-.778-.778-1.202-1.767-1.131-2.828-.071-1.06.353-2.05 1.13-2.829l29.7-29.698 2.828-2.828c.778-.778 1.202-1.768 1.131-2.829.07-1.06-.353-2.05-1.131-2.828s-1.768-1.202-2.829-1.132c-1.06-.07-2.05.354-2.828 1.132l-2.828 2.828-26.87 26.87-2.829 2.829c-2.263 2.262-3.465 5.303-3.535 8.485.07 3.182 1.272 6.222 3.535 8.485 2.263 2.263 5.303 3.465 8.485 3.536 3.182-.071 6.223-1.273 8.486-3.536l2.828-2.828 31.113-31.113 2.828-2.828c3.748-3.748 5.87-8.84 5.798-14.143.071-5.303-2.05-10.394-5.798-14.142-3.747-3.747-8.839-5.869-14.142-5.798-5.303-.07-10.394 2.05-14.142 5.798l-2.829 2.829-33.94 33.94c-.778.779-1.768 1.203-2.83 1.132-1.06.07-2.05-.353-2.827-1.131-.778-.778-1.203-1.768-1.132-2.829-.07-1.06.354-2.05 1.132-2.828l33.94-33.941z"/></svg>