<svg xmlns="http://www.w3.org/2000/svg" style="isolation:isolate" width="96" height="96"><path d="M38.538 51.862L14.1 35.6l69.5-23.2-23.2 69.5-16.262-24.438L66.8 34.8c.8-.7 1.2-1.7 1.2-2.8 0-1.1-.4-2.1-1.2-2.8-.7-.8-1.7-1.2-2.8-1.2-1.1 0-2.1.4-2.8 1.2L38.538 51.862zM85.1 3.5l1.4-.3c.3 0 .5-.1.8-.1 1.4 0 2.9.6 3.9 1.7 1.1 1 1.7 2.5 1.7 3.9 0 .3-.1.5-.1.8l-.3 1.4-25.7 77.3c-.6 2.6-2.9 4.5-5.5 4.7-2.2-.1-4.2-1.3-5.3-3.2L36.1 59.9 6.3 40c-1.9-1.1-3.1-3.1-3.2-5.3.2-2.6 2.1-4.9 4.7-5.5L85.1 3.5z" fill-rule="evenodd"/></svg>