<svg xmlns="http://www.w3.org/2000/svg" width="96" height="96"><path d="M12 4h72c2.1 0 4.2.8 5.7 2.3C91.2 7.8 92 9.9 92 12v72c0 2.1-.8 4.2-2.3 5.7-1.5 1.5-3.6 2.3-5.7 2.3H12c-2.1 0-4.2-.8-5.7-2.3C4.8 88.2 4 86.1 4 84V12c0-2.1.8-4.2 2.3-5.7C7.8 4.8 9.9 4 12 4zm0 8h72v72H12V12zm16 44V28c0-2.1.8-4.2 2.3-5.7 1.5-1.5 3.6-2.3 5.7-2.3h16c3.4 0 6.7 1 9.6 2.9 1.2.8 2.2 1.8 3.2 3 1 1.3 2 2.7 2.8 4.3 1.6 3 2.4 6.4 2.5 9.8-.1 3.4-.9 6.8-2.5 9.8-.8 1.6-1.8 3-2.8 4.3-1 1.2-2 2.2-3.2 3C58.7 59 55.4 60 52 60H36v12c0 1.1-.4 2.1-1.2 2.8-.7.8-1.7 1.2-2.8 1.2-1.1 0-2.1-.4-2.8-1.2-.8-.7-1.2-1.7-1.2-2.8V56m8-4h16c1.8 0 4.69-.833 6.6-2.9.904-.978 1.3-1.9 1.8-2.9 1.1-1.9 1.6-4 1.7-6.2-.1-2.2-.6-4.3-1.7-6.2-.5-1-1.1-2-1.8-2.9-.5-.5-1-1-1.5-1.3-1.5-1.1-3.3-1.6-5.1-1.6H36v24z" fill-rule="evenodd"/></svg>