<svg xmlns="http://www.w3.org/2000/svg" width="96" height="96"><path d="M47.7 86.215h.6-.6c-5.5.4-11.1-1.2-15.6-4.4-3.9-3.5-6.2-8.6-6.1-13.8.5-3.8 2.1-7.4 4.7-10.4q.1-.2 5.2-8l3.9-8.3c.1-.1.1-.2.1-.3 1.4-3.4 3.1-6.8 5-10 .6-1.3 1.7-2.3 3.1-2.7 1.4.4 2.5 1.4 3.1 2.7 1.9 3.2 3.6 6.6 5 10 0 .1 0 .2.1.3l3.9 8.3q5.1 7.8 5.2 8c2.6 3 4.2 6.6 4.7 10.6 0 5.2-2.2 10.1-6.1 13.6-4.5 3.2-10.1 4.8-15.6 4.4m-.3 8c-7.5.5-14.9-1.7-20.9-6.2-5.8-5-9.2-12.4-9.1-20.1.6-5.8 2.8-11.1 6.5-15.4l4.4-6.8 3.6-7.7c1.5-3.7 3.3-7.4 5.4-10.8 1.9-3.9 5.7-6.5 10.1-7 4.4.5 8.2 3.1 10.1 7 2.1 3.4 3.9 7.1 5.4 10.8l3.6 7.7 4.4 6.8c3.7 4.3 5.9 9.6 6.5 15.2.1 7.8-3.2 15.2-9.1 20.3-6 4.5-13.4 6.7-20.9 6.2zm2.8-77.7c-.7.8-1.7 1.2-2.8 1.2-1.1 0-2.1-.4-2.8-1.2-.8-.7-1.2-1.7-1.2-2.8 0-1.1.4-2.1 1.2-2.8l8-8c.7-.8 1.7-1.2 2.8-1.2 1.1 0 2.1.4 2.8 1.2.8.7 1.2 1.7 1.2 2.8 0 1.1-.4 2.1-1.2 2.8l-8 8z" fill-rule="evenodd" fill="#454545"/></svg>