<svg xmlns="http://www.w3.org/2000/svg" style="isolation:isolate" width="96" height="96"><path d="M52 36.697V15.83L70.2 46.1l.6 2.4-.4 1.8-8.2 16.3C60.8 69.5 60 72.7 60 76v8H36v-8c0-3.3-.8-6.5-2.2-9.4l-8.2-16.3-.4-1.8.6-2.4L44 15.829v20.868a12.731 12.731 0 0 0-4.5 2.803C37.3 41.8 36 44.8 36 48s1.3 6.2 3.5 8.5c2.3 2.2 5.3 3.5 8.5 3.5s6.2-1.3 8.5-3.5c2.2-2.3 3.5-5.3 3.5-8.5s-1.3-6.2-3.5-8.5a12.731 12.731 0 0 0-4.5-2.803zM48 4c3.9 0 7.5 2 9.5 5.4L77.7 43q1.308 3.17 1.3 5.3-.007 1.837-1 4.6l-8.6 17.3C68.5 72 68 74 68 76v8c0 2.1-.8 4.2-2.3 5.7-1.5 1.5-3.6 2.3-5.7 2.3H36c-2.1 0-4.2-.8-5.7-2.3-1.5-1.5-2.3-3.6-2.3-5.7v-8c0-2-.5-4-1.4-5.8L18 52.9q-.993-2.763-1-4.6-.008-2.13 1.3-5.3L38.5 9.4C40.5 6 44.1 4 48 4zm-4 44c0 1.1.4 2.1 1.2 2.8.7.8 1.7 1.2 2.8 1.2 1.1 0 2.1-.4 2.8-1.2.8-.7 1.2-1.7 1.2-2.8 0-1.1-.4-2.1-1.2-2.8-.7-.8-1.7-1.2-2.8-1.2-1.1 0-2.1.4-2.8 1.2-.8.7-1.2 1.7-1.2 2.8zm0 32c-1.1 0-2.1-.4-2.8-1.2-.8-.7-1.2-1.7-1.2-2.8 0-1.1.4-2.1 1.2-2.8.7-.8 1.7-1.2 2.8-1.2h8c1.1 0 2.1.4 2.8 1.2.8.7 1.2 1.7 1.2 2.8 0 1.1-.4 2.1-1.2 2.8-.7.8-1.7 1.2-2.8 1.2h-8z" fill-rule="evenodd"/></svg>