<svg xmlns="http://www.w3.org/2000/svg" style="isolation:isolate" width="96" height="96"><path d="M17.567 61.462l39.598-39.598 16.971 16.97-39.598 39.599-16.97-16.971zm-3.224 8.089l-2.998 15.104 15.104-2.998-12.106-12.106zm48.48-53.344l5.656-5.657 16.97 16.97-5.656 5.658-16.97-16.97zm-11.314 0L11.91 55.805a16.88 16.88 0 0 0-4.667 8.768L2.506 87.837q-.156 3.238 1.131 4.526 1.288 1.287 4.526 1.13l23.264-4.737a16.88 16.88 0 0 0 8.768-4.667l50.912-50.911c1.485-1.485 2.404-3.536 2.404-5.657s-.92-4.172-2.404-5.657L74.136 4.894c-1.485-1.486-3.536-2.405-5.657-2.405s-4.172.92-5.657 2.404l-5.657 5.657-2.828-2.828c-1.485-1.485-3.536-2.404-5.657-2.404s-4.172.919-5.657 2.404L23.224 27.52c-.777.778-1.202 1.768-1.131 2.828-.07 1.06.354 2.05 1.131 2.829.778.778 1.768 1.202 2.829 1.131 1.06.07 2.05-.353 2.828-1.131l19.8-19.8 2.828 2.83z" fill-rule="evenodd"/></svg>