<svg xmlns="http://www.w3.org/2000/svg" width="96" height="96"><path d="M65.422 17.85L78.15 30.578a7.493 7.493 0 0 1 2.192 5.303c0 1.98-.778 3.89-2.122 5.233l-.777.778c-1.98 1.555-3.89 3.182-5.657 4.95L60.472 58.155c-1.06 1.061-1.626 2.475-1.626 4.03q.256 2.351 0 3.82-.168.963-.707 2.403c-.283.99-.92 1.768-1.839 2.263-2.475 1.485-5.367.573-7.424-1.485l-5.374-5.374c-.213-.212-.495-.212-.708 0L24.268 78.237c-.848 1.132-2.121 1.839-3.606 2.05-1.344.213-2.758-.211-3.89-1.06-.848-1.131-1.272-2.545-1.06-3.889.212-1.485.92-2.758 2.05-3.606l14.426-18.526c.212-.213.212-.495 0-.708l-5.374-5.374c-2.037-2.036-2.97-4.95-1.485-7.424.495-.92 1.273-1.556 2.263-1.839q1.44-.539 2.404-.707 1.468-.256 3.818 0c1.556 0 2.97-.565 4.03-1.626l11.314-11.314c1.768-1.768 3.395-3.677 4.95-5.657l.778-.777c1.343-1.344 3.253-2.122 5.233-2.122 1.98 0 3.889.778 5.303 2.192zM50.997 59.994l-1.839-1.839c-2.545-2.545-6.364-3.252-9.616-1.697 1.555-3.252.848-7.07-1.697-9.616l-1.839-1.839c2.829-.424 5.445-1.768 7.496-3.818L54.815 29.87q1.91-1.91 5.304-6.01l12.02 12.02c-2.12 1.698-4.1 3.395-6.01 5.304L54.815 52.498c-2.05 2.051-3.394 4.667-3.818 7.496zM72.139 35.88" fill-rule="evenodd" fill="#454545"/></svg>