<?xml version="1.0" standalone="no"?><!-- Generator: Gravit.io --><svg xmlns="http://www.w3.org/2000/svg" xmlns:xlink="http://www.w3.org/1999/xlink" width="96" height="96"><path d=" M 81.4 53.5 L 52 71.1 L 21.1 89 L 19.1 89.6 C 18.6 89.7 18 89.8 17.4 89.7 C 15.9 89.5 14.4 88.7 13.4 87.5 C 12.4 86.2 11.9 84.7 12 83.1 L 12 48 L 12 12.9 C 11.9 11.3 12.4 9.8 13.4 8.5 C 14.4 7.3 15.9 6.5 17.4 6.3 C 18 6.2 18.6 6.3 19.1 6.4 L 21.1 7 L 52 24.9 L 81.4 42.5 C 83.5 43.5 84.9 45.6 85 48 C 84.9 50.4 83.5 52.5 81.4 53.5 Z  M 20 15.7 L 48 31.8 L 76 48 L 48 64.2 L 20 80.3 L 20 48 L 20 15.7 Z " fill-rule="evenodd" fill="#454545" stroke="none"/><mask id="_mask_keavdAOz8YUYb1osdR8bDApASfGEGkTT"><path d=" M 81.4 53.5 L 52 71.1 L 21.1 89 L 19.1 89.6 C 18.6 89.7 18 89.8 17.4 89.7 C 15.9 89.5 14.4 88.7 13.4 87.5 C 12.4 86.2 11.9 84.7 12 83.1 L 12 48 L 12 12.9 C 11.9 11.3 12.4 9.8 13.4 8.5 C 14.4 7.3 15.9 6.5 17.4 6.3 C 18 6.2 18.6 6.3 19.1 6.4 L 21.1 7 L 52 24.9 L 81.4 42.5 C 83.5 43.5 84.9 45.6 85 48 C 84.9 50.4 83.5 52.5 81.4 53.5 Z  M 20 15.7 L 48 31.8 L 76 48 L 48 64.2 L 20 80.3 L 20 48 L 20 15.7 Z " fill-rule="evenodd" fill="white" stroke="none"/></mask><path d=" M 81.4 53.5 L 52 71.1 L 21.1 89 L 19.1 89.6 C 18.6 89.7 18 89.8 17.4 89.7 C 15.9 89.5 14.4 88.7 13.4 87.5 C 12.4 86.2 11.9 84.7 12 83.1 L 12 48 L 12 12.9 C 11.9 11.3 12.4 9.8 13.4 8.5 C 14.4 7.3 15.9 6.5 17.4 6.3 C 18 6.2 18.6 6.3 19.1 6.4 L 21.1 7 L 52 24.9 L 81.4 42.5 C 83.5 43.5 84.9 45.6 85 48 C 84.9 50.4 83.5 52.5 81.4 53.5 Z  M 20 15.7 L 48 31.8 L 76 48 L 48 64.2 L 20 80.3 L 20 48 L 20 15.7 Z " fill-rule="evenodd" fill="none" stroke="none" stroke-width="16" mask="url(#_mask_keavdAOz8YUYb1osdR8bDApASfGEGkTT)"/></svg>