<svg xmlns="http://www.w3.org/2000/svg" style="isolation:isolate" width="96" height="96"><path d="M28 65.536a19.002 19.002 0 0 0-8-1.54c-3.7-.1-7.4.9-10.5 2.9-3.3 1.9-5.3 5.3-5.5 9.1.1 3.8 2.2 7.2 5.4 9.1 3.2 2 6.9 3 10.6 2.9 3.7.1 7.4-.9 10.6-2.9 3.2-1.9 5.3-5.3 5.4-9.1v-64c0-1.1-.4-2.1-1.2-2.8-.7-.8-1.7-1.2-2.8-1.2-1.1 0-2.1.4-2.8 1.2-.8.7-1.2 1.7-1.2 2.8v53.54zm-16 10.46c.2.9.7 1.8 1.6 2.2 1.9 1.3 4.1 1.9 6.4 1.8 2.3.1 4.5-.5 6.4-1.8.9-.4 1.4-1.3 1.6-2.2-.2-.9-.7-1.8-1.6-2.2-1.9-1.3-4.1-1.9-6.4-1.8-2.3-.1-4.5.5-6.5 1.8-.8.5-1.3 1.3-1.5 2.2zM48 20c-1.1 0-2.1-.4-2.8-1.2-.8-.7-1.2-1.7-1.2-2.8 0-1.1.4-2.1 1.2-2.8.7-.8 1.7-1.2 2.8-1.2h40c1.1 0 2.1.4 2.8 1.2.8.7 1.2 1.7 1.2 2.8 0 1.1-.4 2.1-1.2 2.8-.7.8-1.7 1.2-2.8 1.2H48zm0 24c-1.1 0-2.1-.4-2.8-1.2-.8-.7-1.2-1.7-1.2-2.8 0-1.1.4-2.1 1.2-2.8.7-.8 1.7-1.2 2.8-1.2h40c1.1 0 2.1.4 2.8 1.2.8.7 1.2 1.7 1.2 2.8 0 1.1-.4 2.1-1.2 2.8-.7.8-1.7 1.2-2.8 1.2H48zm0 24c-1.1 0-2.1-.4-2.8-1.2-.8-.7-1.2-1.7-1.2-2.8 0-1.1.4-2.1 1.2-2.8.7-.8 1.7-1.2 2.8-1.2h40c1.1 0 2.1.4 2.8 1.2.8.7 1.2 1.7 1.2 2.8 0 1.1-.4 2.1-1.2 2.8-.7.8-1.7 1.2-2.8 1.2H48z" fill-rule="evenodd"/></svg>