<?xml version="1.0" standalone="no"?><!-- Generator: Gravit.io --><svg xmlns="http://www.w3.org/2000/svg" xmlns:xlink="http://www.w3.org/1999/xlink" width="96" height="96"><path d=" M 44.00867076802 44.00867076802 L 44.00867076802 17.17786374294 C 44.00867076802283 14.872037991696539 45.79712544710674 13 48 13 C 50.20287455289326 13 51.99132923197717 14.872037991696539 51.99132923198 17.17786374294 L 51.99132923198 44.00867076802 L 78.82213625706 44.00867076802 C 81.12796200830346 44.00867076802284 83 45.797125447106744 83 48 C 83 50.20287455289327 81.12796200830346 51.991329231977176 78.82213625706 51.99132923198 L 51.99132923198 51.99132923198 L 51.99132923198 78.82213625706 C 51.991329231977154 81.12796200830346 50.20287455289325 83 48 83 C 45.79712544710672 83 44.00867076802282 81.12796200830346 44.00867076802 78.82213625706 L 44.00867076802 51.99132923198 L 17.17786374294 51.99132923198 C 14.872037991696539 51.99132923197716 13 50.202874552893256 13 48 C 13 45.79712544710673 14.872037991696539 44.008670768022824 17.17786374294 44.00867076802 L 44.00867076802 44.00867076802 Z " fill="#454545" stroke-width="1" stroke="rgba(0,0,0,0)" stroke-linejoin="miter" stroke-linecap="square"/></svg>