<svg xmlns="http://www.w3.org/2000/svg" width="96" height="96"><path d="M76 76h8c2.1 0 4.2-.8 5.7-2.3 1.5-1.5 2.3-3.6 2.3-5.7V40c0-2.1-.8-4.2-2.3-5.7-1.5-1.5-3.6-2.3-5.7-2.3H68V16c0-2.1-.8-4.2-2.3-5.7C64.2 8.8 62.1 8 60 8H36c-2.1 0-4.2.8-5.7 2.3-1.5 1.5-2.3 3.6-2.3 5.7v16H12c-2.1 0-4.2.8-5.7 2.3C4.8 35.8 4 37.9 4 40v28c0 2.1.8 4.2 2.3 5.7C7.8 75.2 9.9 76 12 76h8c0 2.1.8 4.2 2.3 5.7 1.5 1.5 3.6 2.3 5.7 2.3h40c2.1 0 4.2-.8 5.7-2.3 1.5-1.5 2.3-3.6 2.3-5.7zm-8-8H28v8h40v-8zm-8-36V16H36v16h24zm16 36c0-2.1-.8-4.2-2.3-5.7-1.5-1.5-3.6-2.3-5.7-2.3H28c-2.1 0-4.2.8-5.7 2.3-1.5 1.5-2.3 3.6-2.3 5.7h-8V40h72v28h-8z" fill-rule="evenodd" fill="#454545"/></svg>