<?xml version="1.0" standalone="no"?><!-- Generator: Gravit.io --><svg xmlns="http://www.w3.org/2000/svg" xmlns:xlink="http://www.w3.org/1999/xlink" width="96" height="96"><path d=" M 76 76 L 84 76 C 86.1 76 88.2 75.2 89.7 73.7 C 91.2 72.2 92 70.1 92 68 L 92 40 C 92 37.9 91.2 35.8 89.7 34.3 C 88.2 32.8 86.1 32 84 32 L 68 32 L 68 16 C 68 13.9 67.2 11.8 65.7 10.3 C 64.2 8.8 62.1 8 60 8 L 36 8 C 33.9 8 31.8 8.8 30.3 10.3 C 28.8 11.8 28 13.9 28 16 L 28 32 L 28 32 L 12 32 C 9.9 32 7.8 32.8 6.3 34.3 C 4.8 35.8 4 37.9 4 40 L 4 68 C 4 70.1 4.8 72.2 6.3 73.7 C 7.8 75.2 9.9 76 12 76 L 20 76 C 20 78.1 20.8 80.2 22.3 81.7 C 23.8 83.2 25.9 84 28 84 L 68 84 C 70.1 84 72.2 83.2 73.7 81.7 C 75.2 80.2 76 78.1 76 76 Z  M 68 68 L 28 68 L 28 76 L 68 76 L 68 72 L 68 68 Z  M 60 32 L 60 16 L 36 16 L 36 32 L 60 32 L 60 32 Z  M 76 68 C 76 65.9 75.2 63.8 73.7 62.3 C 72.2 60.8 70.1 60 68 60 L 28 60 C 25.9 60 23.8 60.8 22.3 62.3 C 20.800000000000313 63.799999999999685 20.000000000000334 65.89999999999912 20 68 L 12 68 L 12 40 L 28 40 L 36 40 L 60 40 L 68 40 L 84 40 L 84 68 L 76 68 L 76 68 Z " fill-rule="evenodd" fill="#454545" stroke="none"/><mask id="_mask_nJaGV1K8ZytH0gDE0laM6p6lzeJbYglf"><path d=" M 76 76 L 84 76 C 86.1 76 88.2 75.2 89.7 73.7 C 91.2 72.2 92 70.1 92 68 L 92 40 C 92 37.9 91.2 35.8 89.7 34.3 C 88.2 32.8 86.1 32 84 32 L 68 32 L 68 16 C 68 13.9 67.2 11.8 65.7 10.3 C 64.2 8.8 62.1 8 60 8 L 36 8 C 33.9 8 31.8 8.8 30.3 10.3 C 28.8 11.8 28 13.9 28 16 L 28 32 L 28 32 L 12 32 C 9.9 32 7.8 32.8 6.3 34.3 C 4.8 35.8 4 37.9 4 40 L 4 68 C 4 70.1 4.8 72.2 6.3 73.7 C 7.8 75.2 9.9 76 12 76 L 20 76 C 20 78.1 20.8 80.2 22.3 81.7 C 23.8 83.2 25.9 84 28 84 L 68 84 C 70.1 84 72.2 83.2 73.7 81.7 C 75.2 80.2 76 78.1 76 76 Z  M 68 68 L 28 68 L 28 76 L 68 76 L 68 72 L 68 68 Z  M 60 32 L 60 16 L 36 16 L 36 32 L 60 32 L 60 32 Z  M 76 68 C 76 65.9 75.2 63.8 73.7 62.3 C 72.2 60.8 70.1 60 68 60 L 28 60 C 25.9 60 23.8 60.8 22.3 62.3 C 20.800000000000313 63.799999999999685 20.000000000000334 65.89999999999912 20 68 L 12 68 L 12 40 L 28 40 L 36 40 L 60 40 L 68 40 L 84 40 L 84 68 L 76 68 L 76 68 Z " fill-rule="evenodd" fill="white" stroke="none"/></mask><path d=" M 76 76 L 84 76 C 86.1 76 88.2 75.2 89.7 73.7 C 91.2 72.2 92 70.1 92 68 L 92 40 C 92 37.9 91.2 35.8 89.7 34.3 C 88.2 32.8 86.1 32 84 32 L 68 32 L 68 16 C 68 13.9 67.2 11.8 65.7 10.3 C 64.2 8.8 62.1 8 60 8 L 36 8 C 33.9 8 31.8 8.8 30.3 10.3 C 28.8 11.8 28 13.9 28 16 L 28 32 L 28 32 L 12 32 C 9.9 32 7.8 32.8 6.3 34.3 C 4.8 35.8 4 37.9 4 40 L 4 68 C 4 70.1 4.8 72.2 6.3 73.7 C 7.8 75.2 9.9 76 12 76 L 20 76 C 20 78.1 20.8 80.2 22.3 81.7 C 23.8 83.2 25.9 84 28 84 L 68 84 C 70.1 84 72.2 83.2 73.7 81.7 C 75.2 80.2 76 78.1 76 76 Z  M 68 68 L 28 68 L 28 76 L 68 76 L 68 72 L 68 68 Z  M 60 32 L 60 16 L 36 16 L 36 32 L 60 32 L 60 32 Z  M 76 68 C 76 65.9 75.2 63.8 73.7 62.3 C 72.2 60.8 70.1 60 68 60 L 28 60 C 25.9 60 23.8 60.8 22.3 62.3 C 20.800000000000313 63.799999999999685 20.000000000000334 65.89999999999912 20 68 L 12 68 L 12 40 L 28 40 L 36 40 L 60 40 L 68 40 L 84 40 L 84 68 L 76 68 L 76 68 Z " fill-rule="evenodd" fill="none" stroke="none" stroke-width="16" mask="url(#_mask_nJaGV1K8ZytH0gDE0laM6p6lzeJbYglf)"/></svg>