<?xml version="1.0" standalone="no"?><!-- Generator: Gravit.io --><svg xmlns="http://www.w3.org/2000/svg" xmlns:xlink="http://www.w3.org/1999/xlink" width="96" height="96"><path d=" M 20 67.7 C 18.6 68 17.2 68.1 15.8 68 C 12.7 67.9 9.7 66.5 7.5 64.3 C 5.3 62.1 4.1 59.1 4 56 C 4.1 52.9 5.3 49.9 7.5 47.7 C 9.7 45.5 12.7 44.1 15.8 44 C 17.2 43.9 18.6 44 20 44.3 L 20 28 C 20 25.9 20.8 23.8 22.3 22.3 C 23.8 20.8 25.9 20 28 20 L 44.3 20 C 44 18.6 43.9 17.2 44 15.8 C 44.1 12.7 45.5 9.7 47.7 7.5 C 49.9 5.3 52.9 4.1 56 4 C 59.1 4.1 62.1 5.3 64.3 7.5 C 66.5 9.7 67.9 12.7 68 15.8 C 68.1 17.2 68 18.6 67.7 20 L 84 20 C 86.1 20 88.2 20.8 89.7 22.3 C 91.2 23.8 92 25.9 92 28 L 92 47.7 Q 90.5 51.3 87.7 52 C 86.8 52.2 85.8 52.1 84.9 51.7 Q 81.1564137639435 50.934849616794 79.2 52 C 77.44423218011012 52.95591065685759 76 54.00087873773131 76 56 C 76 57.99912126226869 77.44423218011012 59.04408934314241 79.2 60 Q 81.1564137639435 61.065150383206 84.9 60.3 C 85.8 59.9 86.8 59.8 87.7 60 Q 90.5 60.7 92 64.3 L 92 84 C 92 86.1 91.2 88.2 89.7 89.7 C 88.2 91.2 86.1 92 84 92 L 64.3 92 Q 60.7 90.5 60 87.7 C 59.8 86.8 59.9 85.8 60.3 84.9 Q 61.065150383206 81.1564137639435 60 79.2 C 59.04408934314241 77.44423218011012 57.99912126226869 76 56 76 C 54.00087873773131 76 52.95591065685759 77.44423218011012 52 79.2 Q 50.934849616794 81.1564137639435 51.7 84.9 C 52.1 85.8 52.2 86.8 52 87.7 Q 51.3 90.5 47.7 92 L 28 92 C 25.9 92 23.8 91.2 22.3 89.7 C 20.8 88.2 20 86.1 20 84 L 20 67.7 Z  M 67.7 84 C 68 82.6 68.1 81.2 68 79.8 C 67.9 76.7 66.5 73.7 64.3 71.5 C 62.1 69.3 59.1 68.1 56 68 C 52.9 68.1 49.9 69.3 47.7 71.5 C 45.5 73.7 44.1 76.7 44 79.8 C 43.9 81.2 44 82.6 44.3 84 L 28 84 L 28 64.3 Q 26.5 60.7 23.7 60 C 22.8 59.8 21.8 59.9 20.9 60.3 Q 17.1564137639435 61.065150383205996 15.2 60 C 13.444232180110124 59.04408934314241 12 57.99912126226869 12 56 C 12 54.00087873773131 13.444232180110124 52.95591065685759 15.2 52 Q 17.1564137639435 50.934849616794 20.9 51.7 C 21.8 52.1 22.8 52.2 23.7 52 Q 26.5 51.3 28 47.7 L 28 28 L 47.7 28 Q 51.3 26.5 52 23.7 C 52.2 22.8 52.1 21.8 51.7 20.9 Q 50.98073274856898 17.23677300215331 52 15.3 C 52.94248217882627 13.50913108274736 53.97627637725669 12.005180244921757 56 12 C 57.999114712813224 11.994882747958922 59.04408934314241 13.444232180110124 60 15.2 Q 61.065150383205996 17.1564137639435 60.3 20.9 C 59.9 21.8 59.8 22.8 60 23.7 Q 60.7 26.5 64.3 28 L 84 28 L 84 44.3 C 82.6 44 81.2 43.9 79.8 44 C 76.7 44.1 73.7 45.5 71.5 47.7 C 69.3 49.9 68.1 52.9 68 56 C 68.1 59.1 69.3 62.1 71.5 64.3 C 73.7 66.5 76.7 67.9 79.8 68 C 81.2 68.1 82.6 68 84 67.7 L 84 84 L 67.7 84 Z " fill-rule="evenodd" fill="#454545" stroke="none"/><mask id="_mask_r5YrU6KxHaIWjgWJAutmMgokSYuHYxQf"><path d=" M 20 67.7 C 18.6 68 17.2 68.1 15.8 68 C 12.7 67.9 9.7 66.5 7.5 64.3 C 5.3 62.1 4.1 59.1 4 56 C 4.1 52.9 5.3 49.9 7.5 47.7 C 9.7 45.5 12.7 44.1 15.8 44 C 17.2 43.9 18.6 44 20 44.3 L 20 28 C 20 25.9 20.8 23.8 22.3 22.3 C 23.8 20.8 25.9 20 28 20 L 44.3 20 C 44 18.6 43.9 17.2 44 15.8 C 44.1 12.7 45.5 9.7 47.7 7.5 C 49.9 5.3 52.9 4.1 56 4 C 59.1 4.1 62.1 5.3 64.3 7.5 C 66.5 9.7 67.9 12.7 68 15.8 C 68.1 17.2 68 18.6 67.7 20 L 84 20 C 86.1 20 88.2 20.8 89.7 22.3 C 91.2 23.8 92 25.9 92 28 L 92 47.7 Q 90.5 51.3 87.7 52 C 86.8 52.2 85.8 52.1 84.9 51.7 Q 81.1564137639435 50.934849616794 79.2 52 C 77.44423218011012 52.95591065685759 76 54.00087873773131 76 56 C 76 57.99912126226869 77.44423218011012 59.04408934314241 79.2 60 Q 81.1564137639435 61.065150383206 84.9 60.3 C 85.8 59.9 86.8 59.8 87.7 60 Q 90.5 60.7 92 64.3 L 92 84 C 92 86.1 91.2 88.2 89.7 89.7 C 88.2 91.2 86.1 92 84 92 L 64.3 92 Q 60.7 90.5 60 87.7 C 59.8 86.8 59.9 85.8 60.3 84.9 Q 61.065150383206 81.1564137639435 60 79.2 C 59.04408934314241 77.44423218011012 57.99912126226869 76 56 76 C 54.00087873773131 76 52.95591065685759 77.44423218011012 52 79.2 Q 50.934849616794 81.1564137639435 51.7 84.9 C 52.1 85.8 52.2 86.8 52 87.7 Q 51.3 90.5 47.7 92 L 28 92 C 25.9 92 23.8 91.2 22.3 89.7 C 20.8 88.2 20 86.1 20 84 L 20 67.7 Z  M 67.7 84 C 68 82.6 68.1 81.2 68 79.8 C 67.9 76.7 66.5 73.7 64.3 71.5 C 62.1 69.3 59.1 68.1 56 68 C 52.9 68.1 49.9 69.3 47.7 71.5 C 45.5 73.7 44.1 76.7 44 79.8 C 43.9 81.2 44 82.6 44.3 84 L 28 84 L 28 64.3 Q 26.5 60.7 23.7 60 C 22.8 59.8 21.8 59.9 20.9 60.3 Q 17.1564137639435 61.065150383205996 15.2 60 C 13.444232180110124 59.04408934314241 12 57.99912126226869 12 56 C 12 54.00087873773131 13.444232180110124 52.95591065685759 15.2 52 Q 17.1564137639435 50.934849616794 20.9 51.7 C 21.8 52.1 22.8 52.2 23.7 52 Q 26.5 51.3 28 47.7 L 28 28 L 47.7 28 Q 51.3 26.5 52 23.7 C 52.2 22.8 52.1 21.8 51.7 20.9 Q 50.98073274856898 17.23677300215331 52 15.3 C 52.94248217882627 13.50913108274736 53.97627637725669 12.005180244921757 56 12 C 57.999114712813224 11.994882747958922 59.04408934314241 13.444232180110124 60 15.2 Q 61.065150383205996 17.1564137639435 60.3 20.9 C 59.9 21.8 59.8 22.8 60 23.7 Q 60.7 26.5 64.3 28 L 84 28 L 84 44.3 C 82.6 44 81.2 43.9 79.8 44 C 76.7 44.1 73.7 45.5 71.5 47.7 C 69.3 49.9 68.1 52.9 68 56 C 68.1 59.1 69.3 62.1 71.5 64.3 C 73.7 66.5 76.7 67.9 79.8 68 C 81.2 68.1 82.6 68 84 67.7 L 84 84 L 67.7 84 Z " fill-rule="evenodd" fill="white" stroke="none"/></mask><path d=" M 20 67.7 C 18.6 68 17.2 68.1 15.8 68 C 12.7 67.9 9.7 66.5 7.5 64.3 C 5.3 62.1 4.1 59.1 4 56 C 4.1 52.9 5.3 49.9 7.5 47.7 C 9.7 45.5 12.7 44.1 15.8 44 C 17.2 43.9 18.6 44 20 44.3 L 20 28 C 20 25.9 20.8 23.8 22.3 22.3 C 23.8 20.8 25.9 20 28 20 L 44.3 20 C 44 18.6 43.9 17.2 44 15.8 C 44.1 12.7 45.5 9.7 47.7 7.5 C 49.9 5.3 52.9 4.1 56 4 C 59.1 4.1 62.1 5.3 64.3 7.5 C 66.5 9.7 67.9 12.7 68 15.8 C 68.1 17.2 68 18.6 67.7 20 L 84 20 C 86.1 20 88.2 20.8 89.7 22.3 C 91.2 23.8 92 25.9 92 28 L 92 47.7 Q 90.5 51.3 87.7 52 C 86.8 52.2 85.8 52.1 84.9 51.7 Q 81.1564137639435 50.934849616794 79.2 52 C 77.44423218011012 52.95591065685759 76 54.00087873773131 76 56 C 76 57.99912126226869 77.44423218011012 59.04408934314241 79.2 60 Q 81.1564137639435 61.065150383206 84.9 60.3 C 85.8 59.9 86.8 59.8 87.7 60 Q 90.5 60.7 92 64.3 L 92 84 C 92 86.1 91.2 88.2 89.7 89.7 C 88.2 91.2 86.1 92 84 92 L 64.3 92 Q 60.7 90.5 60 87.7 C 59.8 86.8 59.9 85.8 60.3 84.9 Q 61.065150383206 81.1564137639435 60 79.2 C 59.04408934314241 77.44423218011012 57.99912126226869 76 56 76 C 54.00087873773131 76 52.95591065685759 77.44423218011012 52 79.2 Q 50.934849616794 81.1564137639435 51.7 84.9 C 52.1 85.8 52.2 86.8 52 87.7 Q 51.3 90.5 47.7 92 L 28 92 C 25.9 92 23.8 91.2 22.3 89.7 C 20.8 88.2 20 86.1 20 84 L 20 67.7 Z  M 67.7 84 C 68 82.6 68.1 81.2 68 79.8 C 67.9 76.7 66.5 73.7 64.3 71.5 C 62.1 69.3 59.1 68.1 56 68 C 52.9 68.1 49.9 69.3 47.7 71.5 C 45.5 73.7 44.1 76.7 44 79.8 C 43.9 81.2 44 82.6 44.3 84 L 28 84 L 28 64.3 Q 26.5 60.7 23.7 60 C 22.8 59.8 21.8 59.9 20.9 60.3 Q 17.1564137639435 61.065150383205996 15.2 60 C 13.444232180110124 59.04408934314241 12 57.99912126226869 12 56 C 12 54.00087873773131 13.444232180110124 52.95591065685759 15.2 52 Q 17.1564137639435 50.934849616794 20.9 51.7 C 21.8 52.1 22.8 52.2 23.7 52 Q 26.5 51.3 28 47.7 L 28 28 L 47.7 28 Q 51.3 26.5 52 23.7 C 52.2 22.8 52.1 21.8 51.7 20.9 Q 50.98073274856898 17.23677300215331 52 15.3 C 52.94248217882627 13.50913108274736 53.97627637725669 12.005180244921757 56 12 C 57.999114712813224 11.994882747958922 59.04408934314241 13.444232180110124 60 15.2 Q 61.065150383205996 17.1564137639435 60.3 20.9 C 59.9 21.8 59.8 22.8 60 23.7 Q 60.7 26.5 64.3 28 L 84 28 L 84 44.3 C 82.6 44 81.2 43.9 79.8 44 C 76.7 44.1 73.7 45.5 71.5 47.7 C 69.3 49.9 68.1 52.9 68 56 C 68.1 59.1 69.3 62.1 71.5 64.3 C 73.7 66.5 76.7 67.9 79.8 68 C 81.2 68.1 82.6 68 84 67.7 L 84 84 L 67.7 84 Z " fill-rule="evenodd" fill="none" stroke="none" stroke-width="16" mask="url(#_mask_r5YrU6KxHaIWjgWJAutmMgokSYuHYxQf)"/></svg>