<?xml version="1.0" standalone="no"?><!-- Generator: Gravit.io --><svg xmlns="http://www.w3.org/2000/svg" xmlns:xlink="http://www.w3.org/1999/xlink" width="96" height="96"><path d=" M 4 48 C 4 36.3 8.6 25.1 16.9 16.9 C 25.1 8.6 36.3 4 48 4 C 59.7 4 70.9 8.6 79.1 16.9 C 87.4 25.1 92 36.3 92 48 C 92 59.7 87.4 70.9 79.1 79.1 C 70.9 87.4 59.7 92 48 92 C 36.3 92 25.1 87.4 16.9 79.1 C 8.6 70.9 4 59.7 4 48 Z  M 12 48 C 12 38.5 15.8 29.3 22.5 22.5 C 29.3 15.8 38.5 12 48 12 C 57.5 12 66.7 15.8 73.5 22.5 C 80.2 29.3 84 38.5 84 48 C 84 57.5 80.2 66.7 73.5 73.5 C 66.7 80.2 57.5 84 48 84 C 38.5 84 29.3 80.2 22.5 73.5 C 15.8 66.7 12 57.5 12 48 Z  M 28 48 C 28 42.7 30.1 37.6 33.9 33.9 C 37.6 30.1 42.7 28 48 28 C 53.3 28 58.4 30.1 62.1 33.9 C 65.9 37.6 68 42.7 68 48 C 68 53.3 65.9 58.4 62.1 62.1 C 58.4 65.9 53.3 68 48 68 C 42.7 68 37.6 65.9 33.9 62.1 C 30.1 58.4 28 53.3 28 48 Z  M 36 48 C 36 44.8 37.3 41.8 39.5 39.5 C 41.8 37.3 44.8 36 48 36 C 51.2 36 54.2 37.3 56.5 39.5 C 58.7 41.8 60 44.8 60 48 C 60 51.2 58.7 54.2 56.5 56.5 C 54.2 58.7 51.2 60 48 60 C 44.8 60 41.8 58.7 39.5 56.5 C 37.3 54.2 36 51.2 36 48 Z " fill-rule="evenodd" fill="#454545" stroke="none"/><mask id="_mask_ZIDBlSOmE2ghS1hKe2yQrNEkbaMHsPWX"><path d=" M 4 48 C 4 36.3 8.6 25.1 16.9 16.9 C 25.1 8.6 36.3 4 48 4 C 59.7 4 70.9 8.6 79.1 16.9 C 87.4 25.1 92 36.3 92 48 C 92 59.7 87.4 70.9 79.1 79.1 C 70.9 87.4 59.7 92 48 92 C 36.3 92 25.1 87.4 16.9 79.1 C 8.6 70.9 4 59.7 4 48 Z  M 12 48 C 12 38.5 15.8 29.3 22.5 22.5 C 29.3 15.8 38.5 12 48 12 C 57.5 12 66.7 15.8 73.5 22.5 C 80.2 29.3 84 38.5 84 48 C 84 57.5 80.2 66.7 73.5 73.5 C 66.7 80.2 57.5 84 48 84 C 38.5 84 29.3 80.2 22.5 73.5 C 15.8 66.7 12 57.5 12 48 Z  M 28 48 C 28 42.7 30.1 37.6 33.9 33.9 C 37.6 30.1 42.7 28 48 28 C 53.3 28 58.4 30.1 62.1 33.9 C 65.9 37.6 68 42.7 68 48 C 68 53.3 65.9 58.4 62.1 62.1 C 58.4 65.9 53.3 68 48 68 C 42.7 68 37.6 65.9 33.9 62.1 C 30.1 58.4 28 53.3 28 48 Z  M 36 48 C 36 44.8 37.3 41.8 39.5 39.5 C 41.8 37.3 44.8 36 48 36 C 51.2 36 54.2 37.3 56.5 39.5 C 58.7 41.8 60 44.8 60 48 C 60 51.2 58.7 54.2 56.5 56.5 C 54.2 58.7 51.2 60 48 60 C 44.8 60 41.8 58.7 39.5 56.5 C 37.3 54.2 36 51.2 36 48 Z " fill-rule="evenodd" fill="white" stroke="none"/></mask><path d=" M 4 48 C 4 36.3 8.6 25.1 16.9 16.9 C 25.1 8.6 36.3 4 48 4 C 59.7 4 70.9 8.6 79.1 16.9 C 87.4 25.1 92 36.3 92 48 C 92 59.7 87.4 70.9 79.1 79.1 C 70.9 87.4 59.7 92 48 92 C 36.3 92 25.1 87.4 16.9 79.1 C 8.6 70.9 4 59.7 4 48 Z  M 12 48 C 12 38.5 15.8 29.3 22.5 22.5 C 29.3 15.8 38.5 12 48 12 C 57.5 12 66.7 15.8 73.5 22.5 C 80.2 29.3 84 38.5 84 48 C 84 57.5 80.2 66.7 73.5 73.5 C 66.7 80.2 57.5 84 48 84 C 38.5 84 29.3 80.2 22.5 73.5 C 15.8 66.7 12 57.5 12 48 Z  M 28 48 C 28 42.7 30.1 37.6 33.9 33.9 C 37.6 30.1 42.7 28 48 28 C 53.3 28 58.4 30.1 62.1 33.9 C 65.9 37.6 68 42.7 68 48 C 68 53.3 65.9 58.4 62.1 62.1 C 58.4 65.9 53.3 68 48 68 C 42.7 68 37.6 65.9 33.9 62.1 C 30.1 58.4 28 53.3 28 48 Z  M 36 48 C 36 44.8 37.3 41.8 39.5 39.5 C 41.8 37.3 44.8 36 48 36 C 51.2 36 54.2 37.3 56.5 39.5 C 58.7 41.8 60 44.8 60 48 C 60 51.2 58.7 54.2 56.5 56.5 C 54.2 58.7 51.2 60 48 60 C 44.8 60 41.8 58.7 39.5 56.5 C 37.3 54.2 36 51.2 36 48 Z " fill-rule="evenodd" fill="none" stroke="none" stroke-width="16" mask="url(#_mask_ZIDBlSOmE2ghS1hKe2yQrNEkbaMHsPWX)"/></svg>