<svg xmlns="http://www.w3.org/2000/svg" width="96" height="96"><path d="M83.997 55.147V40c0-1.1.4-2.1 1.2-2.8.7-.8 1.7-1.2 2.8-1.2 1.1 0 2.1.4 2.8 1.2.8.7 1.2 1.7 1.2 2.8v22c0 1.6-.6 3.1-1.8 4.2-1.1 1.2-2.6 1.8-4.2 1.8h-22c-1.1 0-2.1-.4-2.8-1.2-.8-.7-1.2-1.7-1.2-2.8 0-1.1.4-2.1 1.2-2.8.7-.8 1.7-1.2 2.8-1.2h13.688c-2.263-3.024-4.681-5.956-7.288-8.7-2.7-2.9-5.7-5.6-8.9-7.9-3.4-2.4-7.1-4.3-11-5.7-3.4-1.1-6.9-1.7-10.5-1.7-3.4 0-6.8.7-9.9 2-2.9 1.2-5.6 3-7.7 5.3-2.2 2.3-4.1 4.9-5.5 7.8-2.1 4.4-3.8 9.1-5 13.9-.3 1-.9 1.9-1.8 2.4-1 .6-2 .7-3.1.5-1-.3-1.9-.9-2.4-1.8-.6-1-.7-2-.5-3.1 1.4-5.3 3.2-10.5 5.7-15.4 1.7-3.6 4-6.9 6.8-9.8 2.9-3.1 6.5-5.6 10.4-7.2 4.1-1.7 8.6-2.6 13-2.6s8.9.7 13.1 2.2c4.6 1.6 9 3.8 13.1 6.7 3.6 2.6 7 5.6 10.1 9a111.715 111.715 0 0 1 7.7 9.247z" fill="#454545"/></svg>