<svg xmlns="http://www.w3.org/2000/svg" width="96" height="96"><path d="M25.681 48H56c5.3 0 10.4 2.1 14.1 5.9C73.9 57.6 76 62.7 76 68v8c0 1.1.4 2.1 1.2 2.8.7.8 1.7 1.2 2.8 1.2 1.1 0 2.1-.4 2.8-1.2.8-.7 1.2-1.7 1.2-2.8v-8c0-7.4-3-14.5-8.2-19.8C70.5 43 63.4 40 56 40H25.681L42.8 22.8c.8-.7 1.2-1.7 1.2-2.8 0-1.1-.4-2.1-1.2-2.8-.7-.8-1.7-1.2-2.8-1.2-1.1 0-2.1.4-2.8 1.2L14 40.3q-1.5 2.142-1.5 3.7 0 1.558 1.5 3.7l23.2 23.1c.7.8 1.7 1.2 2.8 1.2 1.1 0 2.1-.4 2.8-1.2.8-.7 1.2-1.7 1.2-2.8 0-1.1-.4-2.1-1.2-2.8L25.681 48z" fill="#454545"/></svg>