<?xml version="1.0" standalone="no"?><!-- Generator: Gravit.io --><svg xmlns="http://www.w3.org/2000/svg" xmlns:xlink="http://www.w3.org/1999/xlink" width="96" height="96"><path d=" M 25.68113207547 48 L 56 48 C 61.3 48 66.4 50.1 70.1 53.9 C 73.9 57.6 76 62.7 76 68 L 76 76 C 76 77.1 76.4 78.1 77.2 78.8 C 77.9 79.6 78.9 80 80 80 C 81.1 80 82.1 79.6 82.8 78.8 C 83.6 78.1 84 77.1 84 76 L 84 68 C 84 60.6 81 53.5 75.8 48.2 C 70.5 43 63.4 40 56 40 L 25.68113207547 40 L 42.8 22.8 C 43.6 22.1 44 21.1 44 20 C 44 18.9 43.6 17.9 42.8 17.2 C 42.1 16.4 41.1 16 40 16 C 38.9 16 37.9 16.4 37.2 17.2 L 14 40.3 Q 12.5 42.44187828064289 12.5 44 Q 12.5 45.55812171935711 14 47.7 L 37.2 70.8 C 37.9 71.6 38.9 72 40 72 C 41.1 72 42.1 71.6 42.8 70.8 C 43.6 70.1 44 69.1 44 68 C 44 66.9 43.6 65.9 42.8 65.2 L 25.68113207547 48 Z " fill="#454545" stroke="none"/><mask id="_mask_LsSm4tZiMMm2WCzZQZO1YRu3nTl6pvr0"><path d=" M 25.68113207547 48 L 56 48 C 61.3 48 66.4 50.1 70.1 53.9 C 73.9 57.6 76 62.7 76 68 L 76 76 C 76 77.1 76.4 78.1 77.2 78.8 C 77.9 79.6 78.9 80 80 80 C 81.1 80 82.1 79.6 82.8 78.8 C 83.6 78.1 84 77.1 84 76 L 84 68 C 84 60.6 81 53.5 75.8 48.2 C 70.5 43 63.4 40 56 40 L 25.68113207547 40 L 42.8 22.8 C 43.6 22.1 44 21.1 44 20 C 44 18.9 43.6 17.9 42.8 17.2 C 42.1 16.4 41.1 16 40 16 C 38.9 16 37.9 16.4 37.2 17.2 L 14 40.3 Q 12.5 42.44187828064289 12.5 44 Q 12.5 45.55812171935711 14 47.7 L 37.2 70.8 C 37.9 71.6 38.9 72 40 72 C 41.1 72 42.1 71.6 42.8 70.8 C 43.6 70.1 44 69.1 44 68 C 44 66.9 43.6 65.9 42.8 65.2 L 25.68113207547 48 Z " fill="white" stroke="none"/></mask><path d=" M 25.68113207547 48 L 56 48 C 61.3 48 66.4 50.1 70.1 53.9 C 73.9 57.6 76 62.7 76 68 L 76 76 C 76 77.1 76.4 78.1 77.2 78.8 C 77.9 79.6 78.9 80 80 80 C 81.1 80 82.1 79.6 82.8 78.8 C 83.6 78.1 84 77.1 84 76 L 84 68 C 84 60.6 81 53.5 75.8 48.2 C 70.5 43 63.4 40 56 40 L 25.68113207547 40 L 42.8 22.8 C 43.6 22.1 44 21.1 44 20 C 44 18.9 43.6 17.9 42.8 17.2 C 42.1 16.4 41.1 16 40 16 C 38.9 16 37.9 16.4 37.2 17.2 L 14 40.3 Q 12.5 42.44187828064289 12.5 44 Q 12.5 45.55812171935711 14 47.7 L 37.2 70.8 C 37.9 71.6 38.9 72 40 72 C 41.1 72 42.1 71.6 42.8 70.8 C 43.6 70.1 44 69.1 44 68 C 44 66.9 43.6 65.9 42.8 65.2 L 25.68113207547 48 Z " fill="none" stroke="none" stroke-width="16" mask="url(#_mask_LsSm4tZiMMm2WCzZQZO1YRu3nTl6pvr0)"/></svg>