<svg xmlns="http://www.w3.org/2000/svg" width="96" height="96"><path d="M37.681 48H68c5.3 0 10.4 2.1 14.1 5.9C85.9 57.6 88 62.7 88 68v8c0 1.1.4 2.1 1.2 2.8.7.8 1.7 1.2 2.8 1.2 1.1 0 2.1-.4 2.8-1.2.8-.7 1.2-1.7 1.2-2.8v-8c0-7.4-3-14.5-8.2-19.8C82.5 43 75.4 40 68 40H37.681L54.8 22.8c.8-.7 1.2-1.7 1.2-2.8 0-1.1-.4-2.1-1.2-2.8-.7-.8-1.7-1.2-2.8-1.2-1.1 0-2.1.4-2.8 1.2L26 40.3q-1.5 2.142-1.5 3.7 0 1.558 1.5 3.7l23.2 23.1c.7.8 1.7 1.2 2.8 1.2 1.1 0 2.1-.4 2.8-1.2.8-.7 1.2-1.7 1.2-2.8 0-1.1-.4-2.1-1.2-2.8L37.681 48zM25.2 70.8L2 47.7Q.5 45.558.5 44q0-1.558 1.5-3.7l23.2-23.1c.7-.8 1.7-1.2 2.8-1.2 1.1 0 2.1.4 2.8 1.2.8.7 1.2 1.7 1.2 2.8 0 1.1-.4 2.1-1.2 2.8L9.7 44l21.1 21.2c.8.7 1.2 1.7 1.2 2.8 0 1.1-.4 2.1-1.2 2.8-.7.8-1.7 1.2-2.8 1.2-1.1 0-2.1-.4-2.8-1.2z" fill-rule="evenodd"/></svg>