<?xml version="1.0" standalone="no"?><!-- Generator: Gravit.io --><svg xmlns="http://www.w3.org/2000/svg" xmlns:xlink="http://www.w3.org/1999/xlink" width="96" height="96"><path d=" M 37.68113207547 48 L 68 48 C 73.3 48 78.4 50.1 82.1 53.9 C 85.9 57.6 88 62.7 88 68 L 88 76 C 88 77.1 88.4 78.1 89.2 78.8 C 89.9 79.6 90.9 80 92 80 C 93.1 80 94.1 79.6 94.8 78.8 C 95.6 78.1 96 77.1 96 76 L 96 68 C 96 60.6 93 53.5 87.8 48.2 C 82.5 43 75.4 40 68 40 L 37.68113207547 40 L 54.8 22.8 C 55.6 22.1 56 21.1 56 20 C 56 18.9 55.6 17.9 54.8 17.2 C 54.1 16.4 53.1 16 52 16 C 50.9 16 49.9 16.4 49.2 17.2 L 26 40.3 Q 24.5 42.44187828064289 24.5 44 Q 24.5 45.55812171935711 26 47.7 L 49.2 70.8 C 49.9 71.6 50.9 72 52 72 C 53.1 72 54.1 71.6 54.8 70.8 C 55.6 70.1 56 69.1 56 68 C 56 66.9 55.6 65.9 54.8 65.2 L 37.68113207547 48 Z  M 25.2 70.8 L 2 47.7 Q 0.5 45.55812171935711 0.5 44 Q 0.5 42.44187828064289 2 40.3 L 25.2 17.2 C 25.9 16.4 26.9 16 28 16 C 29.1 16 30.1 16.4 30.8 17.2 C 31.6 17.9 32 18.9 32 20 C 32 21.1 31.6 22.1 30.8 22.8 L 9.7 44 L 30.8 65.2 C 31.6 65.9 32 66.9 32 68 C 32 69.1 31.6 70.1 30.8 70.8 C 30.1 71.6 29.1 72 28 72 C 26.9 72 25.9 71.6 25.2 70.8 Z " fill-rule="evenodd" fill="#454545" stroke="none"/><mask id="_mask_8gVrZbw7TkOKr3UZhqI84vVpB7lRN3CL"><path d=" M 37.68113207547 48 L 68 48 C 73.3 48 78.4 50.1 82.1 53.9 C 85.9 57.6 88 62.7 88 68 L 88 76 C 88 77.1 88.4 78.1 89.2 78.8 C 89.9 79.6 90.9 80 92 80 C 93.1 80 94.1 79.6 94.8 78.8 C 95.6 78.1 96 77.1 96 76 L 96 68 C 96 60.6 93 53.5 87.8 48.2 C 82.5 43 75.4 40 68 40 L 37.68113207547 40 L 54.8 22.8 C 55.6 22.1 56 21.1 56 20 C 56 18.9 55.6 17.9 54.8 17.2 C 54.1 16.4 53.1 16 52 16 C 50.9 16 49.9 16.4 49.2 17.2 L 26 40.3 Q 24.5 42.44187828064289 24.5 44 Q 24.5 45.55812171935711 26 47.7 L 49.2 70.8 C 49.9 71.6 50.9 72 52 72 C 53.1 72 54.1 71.6 54.8 70.8 C 55.6 70.1 56 69.1 56 68 C 56 66.9 55.6 65.9 54.8 65.2 L 37.68113207547 48 Z  M 25.2 70.8 L 2 47.7 Q 0.5 45.55812171935711 0.5 44 Q 0.5 42.44187828064289 2 40.3 L 25.2 17.2 C 25.9 16.4 26.9 16 28 16 C 29.1 16 30.1 16.4 30.8 17.2 C 31.6 17.9 32 18.9 32 20 C 32 21.1 31.6 22.1 30.8 22.8 L 9.7 44 L 30.8 65.2 C 31.6 65.9 32 66.9 32 68 C 32 69.1 31.6 70.1 30.8 70.8 C 30.1 71.6 29.1 72 28 72 C 26.9 72 25.9 71.6 25.2 70.8 Z " fill-rule="evenodd" fill="white" stroke="none"/></mask><path d=" M 37.68113207547 48 L 68 48 C 73.3 48 78.4 50.1 82.1 53.9 C 85.9 57.6 88 62.7 88 68 L 88 76 C 88 77.1 88.4 78.1 89.2 78.8 C 89.9 79.6 90.9 80 92 80 C 93.1 80 94.1 79.6 94.8 78.8 C 95.6 78.1 96 77.1 96 76 L 96 68 C 96 60.6 93 53.5 87.8 48.2 C 82.5 43 75.4 40 68 40 L 37.68113207547 40 L 54.8 22.8 C 55.6 22.1 56 21.1 56 20 C 56 18.9 55.6 17.9 54.8 17.2 C 54.1 16.4 53.1 16 52 16 C 50.9 16 49.9 16.4 49.2 17.2 L 26 40.3 Q 24.5 42.44187828064289 24.5 44 Q 24.5 45.55812171935711 26 47.7 L 49.2 70.8 C 49.9 71.6 50.9 72 52 72 C 53.1 72 54.1 71.6 54.8 70.8 C 55.6 70.1 56 69.1 56 68 C 56 66.9 55.6 65.9 54.8 65.2 L 37.68113207547 48 Z  M 25.2 70.8 L 2 47.7 Q 0.5 45.55812171935711 0.5 44 Q 0.5 42.44187828064289 2 40.3 L 25.2 17.2 C 25.9 16.4 26.9 16 28 16 C 29.1 16 30.1 16.4 30.8 17.2 C 31.6 17.9 32 18.9 32 20 C 32 21.1 31.6 22.1 30.8 22.8 L 9.7 44 L 30.8 65.2 C 31.6 65.9 32 66.9 32 68 C 32 69.1 31.6 70.1 30.8 70.8 C 30.1 71.6 29.1 72 28 72 C 26.9 72 25.9 71.6 25.2 70.8 Z " fill-rule="evenodd" fill="none" stroke="none" stroke-width="16" mask="url(#_mask_8gVrZbw7TkOKr3UZhqI84vVpB7lRN3CL)"/></svg>