<svg xmlns="http://www.w3.org/2000/svg" width="96" height="96"><path d="M66.111 16.876C60.635 13.716 54.385 12 48 12c-9.5 0-18.7 3.8-25.5 10.5C15.8 29.3 12 38.5 12 48s3.8 18.7 10.5 25.5c.308.303.62.6.938.892l42.673-57.516zm6.45 4.732c.318.291.631.589.939.892C80.2 29.3 84 38.5 84 48s-3.8 18.7-10.5 25.5C66.7 80.2 57.5 84 48 84c-6.385 0-12.635-1.717-18.111-4.876l42.673-57.516zM4 48c0-11.7 4.6-22.9 12.9-31.1C25.1 8.6 36.3 4 48 4c11.7 0 22.9 4.6 31.1 12.9C87.4 25.1 92 36.3 92 48c0 11.7-4.6 22.9-12.9 31.1C70.9 87.4 59.7 92 48 92c-11.7 0-22.9-4.6-31.1-12.9C8.6 70.9 4 59.7 4 48z" fill-rule="evenodd"/></svg>