<?xml version="1.0" standalone="no"?><!-- Generator: Gravit.io --><svg xmlns="http://www.w3.org/2000/svg" xmlns:xlink="http://www.w3.org/1999/xlink" width="96" height="96"><path d=" M 66.11098979892 16.87649201015 C 60.634571818000175 13.71658141528027 54.38504570170852 12 48 12 C 38.5 12 29.3 15.8 22.5 22.5 C 15.8 29.3 12 38.5 12 48 L 12 48 C 12 57.5 15.8 66.7 22.5 73.5 C 22.807858023906327 73.80333070002536 23.12063524657823 74.10071736820896 23.43813679846 74.39207648903 L 66.11098979892 16.87649201015 Z  M 72.56186320154 21.60792351097 C 72.87936475342177 21.899282631791042 73.19214197609368 22.19666929997465 73.5 22.5 C 80.2 29.3 84 38.5 84 48 C 84 57.5 80.2 66.7 73.5 73.5 C 66.7 80.2 57.5 84 48 84 C 41.61495429829148 84 35.36542818199983 82.28341858471973 29.88901020108 79.12350798985 L 72.56186320154 21.60792351097 Z  M 4 48 C 4 36.3 8.6 25.1 16.9 16.9 C 25.1 8.6 36.3 4 48 4 C 59.7 4 70.9 8.6 79.1 16.9 C 87.4 25.1 92 36.3 92 48 C 92 59.7 87.4 70.9 79.1 79.1 C 70.9 87.4 59.7 92 48 92 C 36.3 92 25.1 87.4 16.9 79.1 C 8.6 70.9 4 59.7 4 48 L 4 48 Z " fill-rule="evenodd" fill="rgb(69,69,69)" stroke="none"/><mask id="_mask_5vZOxgjMyT15BE2Cm0Se0sziImr7ePuU"><path d=" M 66.11098979892 16.87649201015 C 60.634571818000175 13.71658141528027 54.38504570170852 12 48 12 C 38.5 12 29.3 15.8 22.5 22.5 C 15.8 29.3 12 38.5 12 48 L 12 48 C 12 57.5 15.8 66.7 22.5 73.5 C 22.807858023906327 73.80333070002536 23.12063524657823 74.10071736820896 23.43813679846 74.39207648903 L 66.11098979892 16.87649201015 Z  M 72.56186320154 21.60792351097 C 72.87936475342177 21.899282631791042 73.19214197609368 22.19666929997465 73.5 22.5 C 80.2 29.3 84 38.5 84 48 C 84 57.5 80.2 66.7 73.5 73.5 C 66.7 80.2 57.5 84 48 84 C 41.61495429829148 84 35.36542818199983 82.28341858471973 29.88901020108 79.12350798985 L 72.56186320154 21.60792351097 Z  M 4 48 C 4 36.3 8.6 25.1 16.9 16.9 C 25.1 8.6 36.3 4 48 4 C 59.7 4 70.9 8.6 79.1 16.9 C 87.4 25.1 92 36.3 92 48 C 92 59.7 87.4 70.9 79.1 79.1 C 70.9 87.4 59.7 92 48 92 C 36.3 92 25.1 87.4 16.9 79.1 C 8.6 70.9 4 59.7 4 48 L 4 48 Z " fill-rule="evenodd" fill="white" stroke="none"/></mask><path d=" M 66.11098979892 16.87649201015 C 60.634571818000175 13.71658141528027 54.38504570170852 12 48 12 C 38.5 12 29.3 15.8 22.5 22.5 C 15.8 29.3 12 38.5 12 48 L 12 48 C 12 57.5 15.8 66.7 22.5 73.5 C 22.807858023906327 73.80333070002536 23.12063524657823 74.10071736820896 23.43813679846 74.39207648903 L 66.11098979892 16.87649201015 Z  M 72.56186320154 21.60792351097 C 72.87936475342177 21.899282631791042 73.19214197609368 22.19666929997465 73.5 22.5 C 80.2 29.3 84 38.5 84 48 C 84 57.5 80.2 66.7 73.5 73.5 C 66.7 80.2 57.5 84 48 84 C 41.61495429829148 84 35.36542818199983 82.28341858471973 29.88901020108 79.12350798985 L 72.56186320154 21.60792351097 Z  M 4 48 C 4 36.3 8.6 25.1 16.9 16.9 C 25.1 8.6 36.3 4 48 4 C 59.7 4 70.9 8.6 79.1 16.9 C 87.4 25.1 92 36.3 92 48 C 92 59.7 87.4 70.9 79.1 79.1 C 70.9 87.4 59.7 92 48 92 C 36.3 92 25.1 87.4 16.9 79.1 C 8.6 70.9 4 59.7 4 48 L 4 48 Z " fill-rule="evenodd" fill="none" stroke="none" stroke-width="16" mask="url(#_mask_5vZOxgjMyT15BE2Cm0Se0sziImr7ePuU)"/></svg>