<svg xmlns="http://www.w3.org/2000/svg" width="96" height="96"><path d="M51.944 53.52l15 8.7 15.6 9 2 .6c.5.2 1.1.2 1.7.2 1.5-.2 3-1 4-2.3 1-1.2 1.5-2.8 1.4-4.4v-34.7c.1-1.6-.4-3.1-1.4-4.4-1-1.2-2.5-2-4-2.2-.6-.1-1.2 0-1.7.2l-2 .6-15.6 9-15 8.6c-2.1 1.1-3.5 3.2-3.6 5.6.1 2.3 1.5 4.5 3.6 5.5zm31.7-20.1l-12.7 7.3-12.6 7.3 12.6 7.3 12.7 7.3v-29.2zm-79.7 20.1l15 8.7 15.6 9 2 .6c.5.2 1.1.2 1.7.2 1.5-.2 3-1 4-2.3 1-1.2 1.5-2.8 1.4-4.4v-34.7c.1-1.6-.4-3.1-1.4-4.4-1-1.2-2.5-2-4-2.2-.6-.1-1.2 0-1.7.2l-2 .6-15.6 9-15 8.6c-2.1 1.1-3.5 3.2-3.6 5.6.1 2.3 1.5 4.5 3.6 5.5zm31.7-20.1l-12.7 7.3-12.6 7.3 12.6 7.3 12.7 7.3v-29.2z" fill-rule="evenodd" fill="#454545"/></svg>