<?xml version="1.0" standalone="no"?><!-- Generator: Gravit.io --><svg xmlns="http://www.w3.org/2000/svg" xmlns:xlink="http://www.w3.org/1999/xlink" width="96" height="96"><path d=" M 28.039551861422844 9.95904600363636 L 67.96044813857716 9.95904600363636 C 70.05629519312775 9.95904600363636 72.15214224767837 10.75904600363636 73.64917585807164 12.25904600363636 C 75.14620946846493 13.75904600363636 75.94462739400802 15.75904600363636 75.94462739400802 17.95904600363636 L 75.94462739400802 89.55904600363635 C 76.34383635677956 92.35904600363637 74.54739602430762 95.15904600363636 71.75293328490682 95.85904600363637 C 70.75491087797796 96.15904600363636 69.7568884710491 95.95904600363636 68.85866830481314 95.45904600363636 L 66.66301900956965 94.35904600363637 L 48 75.55904600363635 L 29.33698099043036 94.35904600363637 L 27.14133169518687 95.45904600363636 C 26.243111528950898 95.95904600363636 25.24508912202204 96.15904600363636 24.247066715093183 95.85904600363637 C 21.45260397569238 95.15904600363636 19.656163643220438 92.35904600363637 20.05537260599198 89.55904600363635 L 20.05537260599198 17.95904600363636 C 20.05537260599198 15.75904600363636 20.85379053153507 13.75904600363636 22.350824141928353 12.25904600363636 C 23.84785775232164 10.75904600363636 25.94370480687224 9.95904600363636 28.039551861422844 9.95904600363636 Z  M 67.96044813857716 84.25904600363636 L 53.688727719494494 69.95904600363636 C 53.688727719494494 69.95904600363636 53.688727719494494 69.95904600363636 53.688727719494494 69.95904600363636 C 52.191694109101206 68.45904600363636 50.0958470545506 67.55904600363635 48 67.55904600363635 C 45.9041529454494 67.55904600363635 43.808305890898794 68.45904600363636 42.311272280505506 69.95904600363636 C 42.311272280505506 69.95904600363636 42.311272280505506 69.95904600363636 42.311272280505506 69.95904600363636 L 28.039551861422844 84.25904600363636 L 28.039551861422844 17.95904600363636 L 67.96044813857716 17.95904600363636 L 67.96044813857716 84.25904600363636 Z " fill-rule="evenodd" fill="#454545" stroke="none"/><mask id="_mask_y4E4WQwQkcVyb8mvWoIXQNXm9AXX2jy9"><path d=" M 28.039551861422844 9.95904600363636 L 67.96044813857716 9.95904600363636 C 70.05629519312775 9.95904600363636 72.15214224767837 10.75904600363636 73.64917585807164 12.25904600363636 C 75.14620946846493 13.75904600363636 75.94462739400802 15.75904600363636 75.94462739400802 17.95904600363636 L 75.94462739400802 89.55904600363635 C 76.34383635677956 92.35904600363637 74.54739602430762 95.15904600363636 71.75293328490682 95.85904600363637 C 70.75491087797796 96.15904600363636 69.7568884710491 95.95904600363636 68.85866830481314 95.45904600363636 L 66.66301900956965 94.35904600363637 L 48 75.55904600363635 L 29.33698099043036 94.35904600363637 L 27.14133169518687 95.45904600363636 C 26.243111528950898 95.95904600363636 25.24508912202204 96.15904600363636 24.247066715093183 95.85904600363637 C 21.45260397569238 95.15904600363636 19.656163643220438 92.35904600363637 20.05537260599198 89.55904600363635 L 20.05537260599198 17.95904600363636 C 20.05537260599198 15.75904600363636 20.85379053153507 13.75904600363636 22.350824141928353 12.25904600363636 C 23.84785775232164 10.75904600363636 25.94370480687224 9.95904600363636 28.039551861422844 9.95904600363636 Z  M 67.96044813857716 84.25904600363636 L 53.688727719494494 69.95904600363636 C 53.688727719494494 69.95904600363636 53.688727719494494 69.95904600363636 53.688727719494494 69.95904600363636 C 52.191694109101206 68.45904600363636 50.0958470545506 67.55904600363635 48 67.55904600363635 C 45.9041529454494 67.55904600363635 43.808305890898794 68.45904600363636 42.311272280505506 69.95904600363636 C 42.311272280505506 69.95904600363636 42.311272280505506 69.95904600363636 42.311272280505506 69.95904600363636 L 28.039551861422844 84.25904600363636 L 28.039551861422844 17.95904600363636 L 67.96044813857716 17.95904600363636 L 67.96044813857716 84.25904600363636 Z " fill-rule="evenodd" fill="white" stroke="none"/></mask><path d=" M 28.039551861422844 9.95904600363636 L 67.96044813857716 9.95904600363636 C 70.05629519312775 9.95904600363636 72.15214224767837 10.75904600363636 73.64917585807164 12.25904600363636 C 75.14620946846493 13.75904600363636 75.94462739400802 15.75904600363636 75.94462739400802 17.95904600363636 L 75.94462739400802 89.55904600363635 C 76.34383635677956 92.35904600363637 74.54739602430762 95.15904600363636 71.75293328490682 95.85904600363637 C 70.75491087797796 96.15904600363636 69.7568884710491 95.95904600363636 68.85866830481314 95.45904600363636 L 66.66301900956965 94.35904600363637 L 48 75.55904600363635 L 29.33698099043036 94.35904600363637 L 27.14133169518687 95.45904600363636 C 26.243111528950898 95.95904600363636 25.24508912202204 96.15904600363636 24.247066715093183 95.85904600363637 C 21.45260397569238 95.15904600363636 19.656163643220438 92.35904600363637 20.05537260599198 89.55904600363635 L 20.05537260599198 17.95904600363636 C 20.05537260599198 15.75904600363636 20.85379053153507 13.75904600363636 22.350824141928353 12.25904600363636 C 23.84785775232164 10.75904600363636 25.94370480687224 9.95904600363636 28.039551861422844 9.95904600363636 Z  M 67.96044813857716 84.25904600363636 L 53.688727719494494 69.95904600363636 C 53.688727719494494 69.95904600363636 53.688727719494494 69.95904600363636 53.688727719494494 69.95904600363636 C 52.191694109101206 68.45904600363636 50.0958470545506 67.55904600363635 48 67.55904600363635 C 45.9041529454494 67.55904600363635 43.808305890898794 68.45904600363636 42.311272280505506 69.95904600363636 C 42.311272280505506 69.95904600363636 42.311272280505506 69.95904600363636 42.311272280505506 69.95904600363636 L 28.039551861422844 84.25904600363636 L 28.039551861422844 17.95904600363636 L 67.96044813857716 17.95904600363636 L 67.96044813857716 84.25904600363636 Z " fill-rule="evenodd" fill="none" stroke="none" stroke-width="16" mask="url(#_mask_y4E4WQwQkcVyb8mvWoIXQNXm9AXX2jy9)"/></svg>