<svg xmlns="http://www.w3.org/2000/svg" style="isolation:isolate" width="96" height="96"><path d="M37.208 26.096a35.492 35.492 0 0 1 2.899-3.748 89.08 89.08 0 0 1 4.95-5.374 68.76 68.76 0 0 1 11.172-9.051A45.858 45.858 0 0 1 66.977 2.69C70.512 1.56 74.118.781 77.795.64c3.819-.283 7.637 0 11.314.707.424.141 2.543.704 3.677 1.838 1.135 1.135 1.697 3.253 1.839 3.677.707 3.677.99 7.496.707 11.314-.142 3.677-.92 7.283-2.05 10.819a45.858 45.858 0 0 1-5.234 10.748 68.76 68.76 0 0 1-9.05 11.172 89.08 89.08 0 0 1-5.374 4.95 39.34 39.34 0 0 1-3.819 2.97l3.465 12.657c.99 3.818-.07 7.849-2.828 10.606l-10.96 10.96c-1.486 2.193-4.455 3.041-6.86 1.91-1.202-.637-2.05-1.768-2.262-3.111l1.414-14.85c.283-1.98.07-4.03-.566-5.94l-.636-2.05-25.88 8.061q-3.673.711-5.091-.707-1.419-1.419-.708-5.091l8.132-25.951-2.05-.636c-1.91-.637-3.96-.849-5.94-.566L4.185 45.54c-1.343-.212-2.474-1.06-3.11-2.263-1.132-2.404-.354-5.303 1.909-6.859l10.96-10.96c2.757-2.758 6.788-3.818 10.606-2.828l12.658 3.465zM86.917 9.055c.495 2.898.637 5.727.424 8.626a31.078 31.078 0 0 1-1.697 8.768c-.99 3.111-2.475 6.152-4.242 8.91-2.334 3.606-5.02 6.859-8.061 9.9a75.08 75.08 0 0 1-4.95 4.525c-1.202 1.06-4.596 3.606-4.667 3.677-1.697 1.697-2.475 4.172-1.838 6.646l3.606 13.506c.283.99.07 2.05-.707 2.829l-5.657 5.656.566-3.96a22.126 22.126 0 0 0-.849-9.616q-.831-3.602-2.192-5.445c-.21-.284-.354-.495-.566-.707-1.555-1.555-3.889-2.192-6.01-1.485l-.07-.07L28.51 67.46l6.647-21.637c.707-2.121.07-4.455-1.485-6.01-.212-.213-.423-.356-.707-.566q-1.843-1.36-5.445-2.192a22.126 22.126 0 0 0-9.616-.849l-3.96.566 5.657-5.657c.707-.707 1.838-.99 2.828-.707l13.435 3.677.07-.07c2.334.636 4.88-.072 6.648-1.84.07-.07 2.545-3.393 3.606-4.595a76.786 76.786 0 0 1 4.525-4.95c3.04-3.04 6.294-5.728 9.9-8.061 2.757-1.768 5.798-3.253 8.91-4.243A31.078 31.078 0 0 1 78.29 8.63c2.9-.212 8.627.424 8.627.424zM59.2 19.801c2.262-2.262 5.303-3.464 8.485-3.535 3.182.07 6.222 1.273 8.485 3.535 2.263 2.263 3.465 5.304 3.536 8.486-.071 3.182-1.273 6.222-3.536 8.485-2.263 2.263-5.303 3.465-8.485 3.535-3.182-.07-6.223-1.272-8.485-3.535-2.263-2.263-3.465-5.303-3.536-8.485.07-3.182 1.273-6.223 3.536-8.486zm5.656 5.657c.778-.778 1.768-1.202 2.829-1.131 1.06-.07 2.05.353 2.828 1.131s1.202 1.768 1.132 2.829c.07 1.06-.354 2.05-1.132 2.828-.778.778-1.768 1.202-2.828 1.131-1.06.071-2.05-.353-2.829-1.13-.777-.779-1.202-1.769-1.131-2.83-.07-1.06.354-2.05 1.131-2.828z" fill-rule="evenodd"/></svg>