<svg xmlns="http://www.w3.org/2000/svg" width="96" height="96"><path d="M6.386 50.095l13.806-13.807a13.634 13.634 0 0 1 9.656-4.01l3.243.003c1.55.002 2.96-.56 4.017-1.617l22.54-22.541a13.634 13.634 0 0 1 9.656-4.01l14.525.013c2.115.002 4.16.92 5.642 2.403 1.482 1.482 2.4 3.527 2.403 5.642l.013 14.525a13.634 13.634 0 0 1-4.01 9.655l-22.54 22.54c-1.057 1.057-1.62 2.467-1.618 4.018l.003 3.243a13.634 13.634 0 0 1-4.01 9.656L45.905 89.614c-1.76 2.325-4.932 2.957-7.401 1.474-.917-.494-1.553-1.27-1.836-2.258l-.716-11.845c-.001-1.552-.566-2.962-1.625-4.02L23.036 61.672c-1.059-1.059-2.47-1.624-4.02-1.625L7.17 59.332c-.987-.283-1.764-.919-2.258-1.836-1.483-2.469-.851-5.641 1.474-7.401zm9.379 1.912l10.073-10.073c1.056-1.057 2.466-1.62 4.017-1.618l3.243.003a13.634 13.634 0 0 0 9.656-4.01l22.54-22.54c1.057-1.057 2.467-1.62 4.018-1.619l14.524.014.014 14.524c0 1.551-.562 2.96-1.618 4.017L59.69 53.246a13.634 13.634 0 0 0-4.01 9.656l.003 3.243c.001 1.551-.561 2.96-1.618 4.017L43.993 80.235l-.003-3.243a13.685 13.685 0 0 0-4.028-9.663L28.671 56.038a13.685 13.685 0 0 0-9.663-4.028l-3.243-.003zm52.358-29.775a3.99 3.99 0 0 1 5.64.005 3.99 3.99 0 0 1 .005 5.64 3.99 3.99 0 0 1-5.64-.005 3.99 3.99 0 0 1-.005-5.64z" fill-rule="evenodd" fill="#454545"/></svg>