<svg xmlns="http://www.w3.org/2000/svg" width="96" height="96"><path d="M74.58 42.244A32.028 32.028 0 0 0 65.707 25.4c-6-6-14.1-9.4-22.6-9.4-8.5 0-16.6 3.4-22.6 9.4s-9.4 14.1-9.4 22.6c0 8.5 3.4 16.6 9.4 22.6s14.1 9.4 22.6 9.4c1.1 0 2.1.4 2.8 1.2.8.7 1.2 1.7 1.2 2.8 0 1.1-.4 2.1-1.2 2.8-.7.8-1.7 1.2-2.8 1.2-10.6 0-20.8-4.2-28.3-11.7-7.5-7.5-11.7-17.7-11.7-28.3 0-10.6 4.2-20.8 11.7-28.3 7.5-7.5 17.7-11.7 28.3-11.7 10.6 0 20.8 4.2 28.3 11.7a39.985 39.985 0 0 1 10.872 20.193l2.928-7.293c.3-.9 1.1-1.7 2.1-2.1 1-.5 2.1-.5 3.1-.1.9.4 1.7 1.2 2.1 2.2.5.9.5 2 .1 3l-6 14.8c-.9 2.6-3.4 4.4-6.1 4.6-.6 0-1.1-.1-1.7-.3l-2.5-.9-13.1-10.3c-.8-.7-1.4-1.6-1.5-2.7-.1-1 .2-2.1.8-2.9.7-.9 1.6-1.4 2.7-1.5 1.1-.2 2.1.1 3 .8l6.375 5.044z" fill="#454545"/></svg>