<?xml version="1.0" standalone="no"?><!-- Generator: Gravit.io --><svg xmlns="http://www.w3.org/2000/svg" xmlns:xlink="http://www.w3.org/1999/xlink" width="96" height="96"><path d=" M 18 42 C 16.9 42 15.9 41.6 15.2 40.8 C 14.4 40.1 14 39.1 14 38 C 14 36.9 14.4 35.9 15.2 35.2 C 15.9 34.4 16.9 34 18 34 C 29.7 34 40.9 38.6 49.1 46.9 C 57.4 55.1 62 66.3 62 78 C 62 79.1 61.6 80.1 60.8 80.8 C 60.1 81.6 59.1 82 58 82 C 56.9 82 55.9 81.6 55.2 80.8 C 54.4 80.1 54 79.1 54 78 C 54 68.5 50.2 59.3 43.5 52.5 C 36.7 45.8 27.5 42 18 42 Z  M 18 22 C 16.9 22 15.9 21.6 15.2 20.8 C 14.4 20.1 14 19.1 14 18 C 14 16.9 14.4 15.899999999999999 15.2 15.2 C 15.9 14.399999999999999 16.9 14 18 14 C 35 14 51.3 20.7 63.3 32.7 C 75.3 44.7 82 61 82 78 C 82 79.1 81.6 80.1 80.8 80.8 C 80.1 81.6 79.1 82 78 82 C 76.9 82 75.9 81.6 75.2 80.8 C 74.4 80.1 74 79.1 74 78 C 74 63.2 68.1 48.9 57.6 38.4 C 47.1 27.9 32.8 22 18 22 Z  M 14 70 C 14 66.8 15.3 63.8 17.5 61.5 C 19.8 59.3 22.8 58 26 58 C 29.2 58 32.2 59.3 34.5 61.5 C 36.7 63.8 38 66.8 38 70 C 38 73.2 36.7 76.2 34.5 78.5 C 32.2 80.7 29.2 82 26 82 C 22.8 82 19.8 80.7 17.5 78.5 C 15.3 76.2 14 73.2 14 70 Z  M 22 70 C 22 68.9 22.4 67.9 23.2 67.2 C 23.9 66.4 24.9 66 26 66 C 27.1 66 28.1 66.4 28.8 67.2 C 29.6 67.9 30 68.9 30 70 C 30 71.1 29.6 72.1 28.8 72.8 C 28.1 73.6 27.1 74 26 74 C 24.9 74 23.9 73.6 23.2 72.8 C 22.4 72.1 22 71.1 22 70 Z " fill-rule="evenodd" fill="#454545" stroke="none"/><mask id="_mask_6e7LRaxSCmbC57B4ALRhngqtl6AnP3h1"><path d=" M 18 42 C 16.9 42 15.9 41.6 15.2 40.8 C 14.4 40.1 14 39.1 14 38 C 14 36.9 14.4 35.9 15.2 35.2 C 15.9 34.4 16.9 34 18 34 C 29.7 34 40.9 38.6 49.1 46.9 C 57.4 55.1 62 66.3 62 78 C 62 79.1 61.6 80.1 60.8 80.8 C 60.1 81.6 59.1 82 58 82 C 56.9 82 55.9 81.6 55.2 80.8 C 54.4 80.1 54 79.1 54 78 C 54 68.5 50.2 59.3 43.5 52.5 C 36.7 45.8 27.5 42 18 42 Z  M 18 22 C 16.9 22 15.9 21.6 15.2 20.8 C 14.4 20.1 14 19.1 14 18 C 14 16.9 14.4 15.899999999999999 15.2 15.2 C 15.9 14.399999999999999 16.9 14 18 14 C 35 14 51.3 20.7 63.3 32.7 C 75.3 44.7 82 61 82 78 C 82 79.1 81.6 80.1 80.8 80.8 C 80.1 81.6 79.1 82 78 82 C 76.9 82 75.9 81.6 75.2 80.8 C 74.4 80.1 74 79.1 74 78 C 74 63.2 68.1 48.9 57.6 38.4 C 47.1 27.9 32.8 22 18 22 Z  M 14 70 C 14 66.8 15.3 63.8 17.5 61.5 C 19.8 59.3 22.8 58 26 58 C 29.2 58 32.2 59.3 34.5 61.5 C 36.7 63.8 38 66.8 38 70 C 38 73.2 36.7 76.2 34.5 78.5 C 32.2 80.7 29.2 82 26 82 C 22.8 82 19.8 80.7 17.5 78.5 C 15.3 76.2 14 73.2 14 70 Z  M 22 70 C 22 68.9 22.4 67.9 23.2 67.2 C 23.9 66.4 24.9 66 26 66 C 27.1 66 28.1 66.4 28.8 67.2 C 29.6 67.9 30 68.9 30 70 C 30 71.1 29.6 72.1 28.8 72.8 C 28.1 73.6 27.1 74 26 74 C 24.9 74 23.9 73.6 23.2 72.8 C 22.4 72.1 22 71.1 22 70 Z " fill-rule="evenodd" fill="white" stroke="none"/></mask><path d=" M 18 42 C 16.9 42 15.9 41.6 15.2 40.8 C 14.4 40.1 14 39.1 14 38 C 14 36.9 14.4 35.9 15.2 35.2 C 15.9 34.4 16.9 34 18 34 C 29.7 34 40.9 38.6 49.1 46.9 C 57.4 55.1 62 66.3 62 78 C 62 79.1 61.6 80.1 60.8 80.8 C 60.1 81.6 59.1 82 58 82 C 56.9 82 55.9 81.6 55.2 80.8 C 54.4 80.1 54 79.1 54 78 C 54 68.5 50.2 59.3 43.5 52.5 C 36.7 45.8 27.5 42 18 42 Z  M 18 22 C 16.9 22 15.9 21.6 15.2 20.8 C 14.4 20.1 14 19.1 14 18 C 14 16.9 14.4 15.899999999999999 15.2 15.2 C 15.9 14.399999999999999 16.9 14 18 14 C 35 14 51.3 20.7 63.3 32.7 C 75.3 44.7 82 61 82 78 C 82 79.1 81.6 80.1 80.8 80.8 C 80.1 81.6 79.1 82 78 82 C 76.9 82 75.9 81.6 75.2 80.8 C 74.4 80.1 74 79.1 74 78 C 74 63.2 68.1 48.9 57.6 38.4 C 47.1 27.9 32.8 22 18 22 Z  M 14 70 C 14 66.8 15.3 63.8 17.5 61.5 C 19.8 59.3 22.8 58 26 58 C 29.2 58 32.2 59.3 34.5 61.5 C 36.7 63.8 38 66.8 38 70 C 38 73.2 36.7 76.2 34.5 78.5 C 32.2 80.7 29.2 82 26 82 C 22.8 82 19.8 80.7 17.5 78.5 C 15.3 76.2 14 73.2 14 70 Z  M 22 70 C 22 68.9 22.4 67.9 23.2 67.2 C 23.9 66.4 24.9 66 26 66 C 27.1 66 28.1 66.4 28.8 67.2 C 29.6 67.9 30 68.9 30 70 C 30 71.1 29.6 72.1 28.8 72.8 C 28.1 73.6 27.1 74 26 74 C 24.9 74 23.9 73.6 23.2 72.8 C 22.4 72.1 22 71.1 22 70 Z " fill-rule="evenodd" fill="none" stroke="none" stroke-width="16" mask="url(#_mask_6e7LRaxSCmbC57B4ALRhngqtl6AnP3h1)"/></svg>