<?xml version="1.0" standalone="no"?><!-- Generator: Gravit.io --><svg xmlns="http://www.w3.org/2000/svg" xmlns:xlink="http://www.w3.org/1999/xlink" width="96" height="96"><path d=" M 24 16 L 16 16 L 16 16 L 16 80 L 20 80 L 20 64 C 20 61.9 20.8 59.8 22.3 58.3 C 23.8 56.8 25.9 56 28 56 L 68 56 C 70.1 56 72.2 56.8 73.7 58.3 C 75.2 59.8 76 61.9 76 64 L 76 80 L 80 80 L 80 32.5 C 80 31.2 79.4 29.9 78.4 29 L 64.8 17.6 C 64.54418790878634 17.40322146829719 64.27675928041096 17.221931652810028 64 17.05765447696 L 64 32 C 64 34.1 63.2 36.2 61.7 37.7 C 60.2 39.2 58.1 40 56 40 L 32 40 C 29.9 40 27.8 39.2 26.3 37.7 C 24.8 36.2 24 34.1 24 32 L 24 16 Z  M 32 16 L 56 16 L 56 32 L 32 32 L 32 16 Z  M 68 80 L 28 80 L 28 64 L 68 64 L 68 80 Z  M 16 8 L 60.3 8 C 63.8 8 67.2 9.2 69.9 11.5 L 83.5 22.9 C 86.3 25.2 88 28.8 88 32.5 L 88 80 C 88 82.1 87.2 84.2 85.7 85.7 C 84.2 87.2 82.1 88 80 88 L 72 88 L 24 88 L 16 88 C 13.9 88 11.8 87.2 10.3 85.7 C 8.8 84.2 8 82.1 8 80 L 8 16 C 8 13.9 8.8 11.8 10.3 10.3 C 11.8 8.8 13.9 8 16 8 L 16 8 Z " fill-rule="evenodd" fill="#454545" stroke="none"/><mask id="_mask_0fwOtEVjdn2cnoCGJRTSaMdw3hhit9mQ"><path d=" M 24 16 L 16 16 L 16 16 L 16 80 L 20 80 L 20 64 C 20 61.9 20.8 59.8 22.3 58.3 C 23.8 56.8 25.9 56 28 56 L 68 56 C 70.1 56 72.2 56.8 73.7 58.3 C 75.2 59.8 76 61.9 76 64 L 76 80 L 80 80 L 80 32.5 C 80 31.2 79.4 29.9 78.4 29 L 64.8 17.6 C 64.54418790878634 17.40322146829719 64.27675928041096 17.221931652810028 64 17.05765447696 L 64 32 C 64 34.1 63.2 36.2 61.7 37.7 C 60.2 39.2 58.1 40 56 40 L 32 40 C 29.9 40 27.8 39.2 26.3 37.7 C 24.8 36.2 24 34.1 24 32 L 24 16 Z  M 32 16 L 56 16 L 56 32 L 32 32 L 32 16 Z  M 68 80 L 28 80 L 28 64 L 68 64 L 68 80 Z  M 16 8 L 60.3 8 C 63.8 8 67.2 9.2 69.9 11.5 L 83.5 22.9 C 86.3 25.2 88 28.8 88 32.5 L 88 80 C 88 82.1 87.2 84.2 85.7 85.7 C 84.2 87.2 82.1 88 80 88 L 72 88 L 24 88 L 16 88 C 13.9 88 11.8 87.2 10.3 85.7 C 8.8 84.2 8 82.1 8 80 L 8 16 C 8 13.9 8.8 11.8 10.3 10.3 C 11.8 8.8 13.9 8 16 8 L 16 8 Z " fill-rule="evenodd" fill="white" stroke="none"/></mask><path d=" M 24 16 L 16 16 L 16 16 L 16 80 L 20 80 L 20 64 C 20 61.9 20.8 59.8 22.3 58.3 C 23.8 56.8 25.9 56 28 56 L 68 56 C 70.1 56 72.2 56.8 73.7 58.3 C 75.2 59.8 76 61.9 76 64 L 76 80 L 80 80 L 80 32.5 C 80 31.2 79.4 29.9 78.4 29 L 64.8 17.6 C 64.54418790878634 17.40322146829719 64.27675928041096 17.221931652810028 64 17.05765447696 L 64 32 C 64 34.1 63.2 36.2 61.7 37.7 C 60.2 39.2 58.1 40 56 40 L 32 40 C 29.9 40 27.8 39.2 26.3 37.7 C 24.8 36.2 24 34.1 24 32 L 24 16 Z  M 32 16 L 56 16 L 56 32 L 32 32 L 32 16 Z  M 68 80 L 28 80 L 28 64 L 68 64 L 68 80 Z  M 16 8 L 60.3 8 C 63.8 8 67.2 9.2 69.9 11.5 L 83.5 22.9 C 86.3 25.2 88 28.8 88 32.5 L 88 80 C 88 82.1 87.2 84.2 85.7 85.7 C 84.2 87.2 82.1 88 80 88 L 72 88 L 24 88 L 16 88 C 13.9 88 11.8 87.2 10.3 85.7 C 8.8 84.2 8 82.1 8 80 L 8 16 C 8 13.9 8.8 11.8 10.3 10.3 C 11.8 8.8 13.9 8 16 8 L 16 8 Z " fill-rule="evenodd" fill="none" stroke="none" stroke-width="16" mask="url(#_mask_0fwOtEVjdn2cnoCGJRTSaMdw3hhit9mQ)"/></svg>