<svg xmlns="http://www.w3.org/2000/svg" width="96" height="96"><path d="M52.85 38.543l13.42 18.714a19.784 19.784 0 0 1 11.539-.379c5.119 1.372 9.502 4.72 12.092 9.348 2.713 4.558 3.421 10.028 2.05 15.147-1.372 5.12-4.72 9.502-9.349 12.092-4.557 2.713-10.027 3.422-15.146 2.05-5.12-1.372-9.502-4.72-12.093-9.348-2.713-4.558-3.421-10.027-2.05-15.147a19.784 19.784 0 0 1 6.098-9.803L48 45.304 36.589 61.217a19.784 19.784 0 0 1 6.097 9.803c1.372 5.12.664 10.59-2.05 15.147-2.59 4.628-6.972 7.976-12.092 9.348-5.12 1.372-10.589.663-15.146-2.05-4.628-2.59-7.977-6.973-9.349-12.092-1.371-5.12-.663-10.59 2.05-15.147 2.59-4.628 6.973-7.976 12.092-9.348a19.784 19.784 0 0 1 11.54.379l13.42-18.714-24.203-32.75c-.592-.883-.72-1.953-.434-3.015.284-1.063.93-1.925 1.883-2.394.884-.592 1.953-.72 3.016-.435 1.062.285 1.924.93 2.394 1.884L48 31.781 70.193 1.833c.47-.954 1.332-1.6 2.394-1.884 1.063-.285 2.132-.157 3.016.435.954.469 1.599 1.331 1.883 2.394.285 1.062.158 2.132-.434 3.015l-24.203 32.75zm8.19 34.547c.828-3.091 2.86-5.653 5.58-7.305 2.792-1.53 6.026-2.009 9.117-1.18 3.09.828 5.652 2.86 7.304 5.58 1.53 2.791 2.01 6.025 1.181 9.116-.828 3.091-2.86 5.653-5.58 7.305-2.791 1.53-6.026 2.009-9.117 1.18-3.09-.828-5.652-2.86-7.304-5.58-1.53-2.791-2.01-6.025-1.181-9.116zm-26.082 0c.828 3.09.349 6.325-1.18 9.116-1.653 2.72-4.214 4.752-7.305 5.58-3.091.829-6.326.35-9.117-1.18-2.72-1.652-4.752-4.214-5.58-7.305-.828-3.09-.35-6.325 1.18-9.116 1.653-2.72 4.214-4.752 7.305-5.58 3.091-.829 6.325-.35 9.116 1.18 2.72 1.652 4.753 4.214 5.581 7.305z" fill-rule="evenodd"/></svg>