<?xml version="1.0" standalone="no"?><!-- Generator: Gravit.io --><svg xmlns="http://www.w3.org/2000/svg" xmlns:xlink="http://www.w3.org/1999/xlink" width="96" height="96"><path d=" M 52.84912517603 38.54252521933849 L 66.26963656413 57.25679273369849 C 69.96017830517502 55.98957478386179 73.9821965933145 55.85277284159684 77.80850859324 56.878030051968494 C 82.92791547256785 58.249770991008624 87.31061719192681 61.59819235623852 89.90103037781 66.22634096301849 C 92.61391805082592 70.78377889167544 93.32238515601009 76.25352060046498 91.95064421697 81.3729274797985 C 90.57890327792337 86.4923343591291 87.23048191269348 90.87503607848808 82.60233330592 93.46544926436849 C 78.04489537725657 96.17833693738717 72.57515366846701 96.88680404257136 67.45574678913 95.51506310352849 C 62.33633990980289 94.14332216448463 57.95363819044393 90.79490079925475 55.36322500456 86.1667521924785 C 52.65033733154483 81.60931426381782 51.941870226360635 76.13957255502828 53.3136111654 71.02016567569848 C 54.33886837577242 67.1938536757749 56.46835147713067 63.77908463489302 59.41106528434 61.216590708338494 L 59.41106528434 61.216590708338494 L 48 45.304400615178494 L 36.58893471566 61.216590708338494 L 36.58893471566 61.216590708338494 C 39.53164852286933 63.77908463489302 41.66113162422758 67.1938536757749 42.6863888346 71.02016567569848 C 44.058129773639365 76.13957255502828 43.34966266845517 81.60931426381782 40.63677499544 86.1667521924785 C 38.04636180955607 90.79490079925475 33.66366009019711 94.14332216448463 28.54425321087 95.51506310352849 C 23.42484633153299 96.88680404257136 17.955104622743434 96.17833693738717 13.39766669408 93.46544926436849 C 8.769518087306523 90.87503607848808 5.421096722076626 86.4923343591291 4.04935578303 81.3729274797985 C 2.6776148439899146 76.25352060046498 3.386081949174084 70.78377889167544 6.09896962219 66.22634096301849 C 8.68938280807319 61.59819235623852 13.072084527432153 58.249770991008624 18.19149140676 56.878030051968494 C 22.017803406685502 55.85277284159684 26.039821694824973 55.98957478386179 29.73036343587 57.25679273369849 L 43.15087482397 38.54252521933849 L 18.94800805535 5.792773796008492 C 18.356440725890387 4.909570481522898 18.228889440477282 3.840117037192824 18.51359039009 2.7775986282784926 C 18.798291339702825 1.7150802193568744 19.443480715320973 0.8526820111088131 20.39739470792 0.3835891687884925 C 21.28059802240836 -0.20797816067100783 22.350051466738435 -0.33552944608411295 23.41256987566 -0.050828496471507556 C 24.475088284574383 0.2338724531414318 25.337486492822443 0.8790618287595802 25.80657933514 1.8329758213584926 L 48 31.780649823488496 L 70.19342066486 1.8329758213584926 C 70.6625135071776 0.8790618287595713 71.52491171542565 0.2338724531414229 72.58743012434 -0.050828496471507556 C 73.6499485332616 -0.33552944608412183 74.71940197759167 -0.2079781606710167 75.60260529208 0.3835891687884925 C 76.55651928467906 0.8526820111088043 77.20170866029721 1.7150802193568655 77.48640960991 2.7775986282784926 C 77.77111055952275 3.8401170371928153 77.64355927410965 4.9095704815228896 77.05199194465 5.792773796008492 L 52.84912517603 38.54252521933849 Z  M 61.04101777572 73.0907180365185 C 61.86923872004461 69.99975539239136 63.901399429527956 67.43844267215744 66.6217200511 65.7862151709185 C 69.41275135079012 64.25646215681797 72.64699358829058 63.77721571794975 75.73795623242 64.60543666227849 C 78.82891887654063 65.43365760660589 81.39023159677457 67.46581831608921 83.04245909801 70.18613893765848 C 84.57221211211403 72.97717023735137 85.05145855098226 76.21141247485184 84.22323760665 79.30237511897849 C 83.39501666232613 82.3933377631019 81.36285595284278 84.95465048333583 78.64253533127 86.60687798457849 C 75.85150403158062 88.13663099867529 72.61726179408014 88.61587743754353 69.52629914996 87.78765649321849 C 66.4353365058301 86.9594355488874 63.874023785596165 84.92727483940405 62.22179628436 82.2069542178285 C 60.692043270256704 79.41592291814189 60.21279683138848 76.18168068064139 61.04101777572 73.0907180365185 L 61.04101777572 73.0907180365185 Z  M 34.95898222428 73.0907180365185 C 35.78720316861152 76.18168068064139 35.307956729743296 79.41592291814189 33.77820371564 82.2069542178285 C 32.125976214403835 84.92727483940405 29.564663494169906 86.9594355488874 26.47370085004 87.78765649321849 C 23.382738205919864 88.61587743754353 20.148495968419383 88.13663099867529 17.35746466873 86.60687798457849 C 14.637144047157221 84.95465048333583 12.604983337673879 82.3933377631019 11.77676239335 79.30237511897849 C 10.948541449017746 76.21141247485184 11.42778788788597 72.97717023735137 12.95754090199 70.18613893765848 C 14.60976840322543 67.46581831608921 17.171081123459373 65.43365760660589 20.26204376758 64.60543666227849 C 23.353006411709416 63.77721571794975 26.587248649209883 64.25646215681797 29.3782799489 65.7862151709185 C 32.098600570472044 67.43844267215744 34.13076127995539 69.99975539239136 34.95898222428 73.0907180365185 L 34.95898222428 73.0907180365185 Z " fill-rule="evenodd" fill="#454545" stroke="none"/><mask id="_mask_YEOJi8OipdZ3ZKR3RZorNoSHnIxTTrRe"><path d=" M 52.84912517603 38.54252521933849 L 66.26963656413 57.25679273369849 C 69.96017830517502 55.98957478386179 73.9821965933145 55.85277284159684 77.80850859324 56.878030051968494 C 82.92791547256785 58.249770991008624 87.31061719192681 61.59819235623852 89.90103037781 66.22634096301849 C 92.61391805082592 70.78377889167544 93.32238515601009 76.25352060046498 91.95064421697 81.3729274797985 C 90.57890327792337 86.4923343591291 87.23048191269348 90.87503607848808 82.60233330592 93.46544926436849 C 78.04489537725657 96.17833693738717 72.57515366846701 96.88680404257136 67.45574678913 95.51506310352849 C 62.33633990980289 94.14332216448463 57.95363819044393 90.79490079925475 55.36322500456 86.1667521924785 C 52.65033733154483 81.60931426381782 51.941870226360635 76.13957255502828 53.3136111654 71.02016567569848 C 54.33886837577242 67.1938536757749 56.46835147713067 63.77908463489302 59.41106528434 61.216590708338494 L 59.41106528434 61.216590708338494 L 48 45.304400615178494 L 36.58893471566 61.216590708338494 L 36.58893471566 61.216590708338494 C 39.53164852286933 63.77908463489302 41.66113162422758 67.1938536757749 42.6863888346 71.02016567569848 C 44.058129773639365 76.13957255502828 43.34966266845517 81.60931426381782 40.63677499544 86.1667521924785 C 38.04636180955607 90.79490079925475 33.66366009019711 94.14332216448463 28.54425321087 95.51506310352849 C 23.42484633153299 96.88680404257136 17.955104622743434 96.17833693738717 13.39766669408 93.46544926436849 C 8.769518087306523 90.87503607848808 5.421096722076626 86.4923343591291 4.04935578303 81.3729274797985 C 2.6776148439899146 76.25352060046498 3.386081949174084 70.78377889167544 6.09896962219 66.22634096301849 C 8.68938280807319 61.59819235623852 13.072084527432153 58.249770991008624 18.19149140676 56.878030051968494 C 22.017803406685502 55.85277284159684 26.039821694824973 55.98957478386179 29.73036343587 57.25679273369849 L 43.15087482397 38.54252521933849 L 18.94800805535 5.792773796008492 C 18.356440725890387 4.909570481522898 18.228889440477282 3.840117037192824 18.51359039009 2.7775986282784926 C 18.798291339702825 1.7150802193568744 19.443480715320973 0.8526820111088131 20.39739470792 0.3835891687884925 C 21.28059802240836 -0.20797816067100783 22.350051466738435 -0.33552944608411295 23.41256987566 -0.050828496471507556 C 24.475088284574383 0.2338724531414318 25.337486492822443 0.8790618287595802 25.80657933514 1.8329758213584926 L 48 31.780649823488496 L 70.19342066486 1.8329758213584926 C 70.6625135071776 0.8790618287595713 71.52491171542565 0.2338724531414229 72.58743012434 -0.050828496471507556 C 73.6499485332616 -0.33552944608412183 74.71940197759167 -0.2079781606710167 75.60260529208 0.3835891687884925 C 76.55651928467906 0.8526820111088043 77.20170866029721 1.7150802193568655 77.48640960991 2.7775986282784926 C 77.77111055952275 3.8401170371928153 77.64355927410965 4.9095704815228896 77.05199194465 5.792773796008492 L 52.84912517603 38.54252521933849 Z  M 61.04101777572 73.0907180365185 C 61.86923872004461 69.99975539239136 63.901399429527956 67.43844267215744 66.6217200511 65.7862151709185 C 69.41275135079012 64.25646215681797 72.64699358829058 63.77721571794975 75.73795623242 64.60543666227849 C 78.82891887654063 65.43365760660589 81.39023159677457 67.46581831608921 83.04245909801 70.18613893765848 C 84.57221211211403 72.97717023735137 85.05145855098226 76.21141247485184 84.22323760665 79.30237511897849 C 83.39501666232613 82.3933377631019 81.36285595284278 84.95465048333583 78.64253533127 86.60687798457849 C 75.85150403158062 88.13663099867529 72.61726179408014 88.61587743754353 69.52629914996 87.78765649321849 C 66.4353365058301 86.9594355488874 63.874023785596165 84.92727483940405 62.22179628436 82.2069542178285 C 60.692043270256704 79.41592291814189 60.21279683138848 76.18168068064139 61.04101777572 73.0907180365185 L 61.04101777572 73.0907180365185 Z  M 34.95898222428 73.0907180365185 C 35.78720316861152 76.18168068064139 35.307956729743296 79.41592291814189 33.77820371564 82.2069542178285 C 32.125976214403835 84.92727483940405 29.564663494169906 86.9594355488874 26.47370085004 87.78765649321849 C 23.382738205919864 88.61587743754353 20.148495968419383 88.13663099867529 17.35746466873 86.60687798457849 C 14.637144047157221 84.95465048333583 12.604983337673879 82.3933377631019 11.77676239335 79.30237511897849 C 10.948541449017746 76.21141247485184 11.42778788788597 72.97717023735137 12.95754090199 70.18613893765848 C 14.60976840322543 67.46581831608921 17.171081123459373 65.43365760660589 20.26204376758 64.60543666227849 C 23.353006411709416 63.77721571794975 26.587248649209883 64.25646215681797 29.3782799489 65.7862151709185 C 32.098600570472044 67.43844267215744 34.13076127995539 69.99975539239136 34.95898222428 73.0907180365185 L 34.95898222428 73.0907180365185 Z " fill-rule="evenodd" fill="white" stroke="none"/></mask><path d=" M 52.84912517603 38.54252521933849 L 66.26963656413 57.25679273369849 C 69.96017830517502 55.98957478386179 73.9821965933145 55.85277284159684 77.80850859324 56.878030051968494 C 82.92791547256785 58.249770991008624 87.31061719192681 61.59819235623852 89.90103037781 66.22634096301849 C 92.61391805082592 70.78377889167544 93.32238515601009 76.25352060046498 91.95064421697 81.3729274797985 C 90.57890327792337 86.4923343591291 87.23048191269348 90.87503607848808 82.60233330592 93.46544926436849 C 78.04489537725657 96.17833693738717 72.57515366846701 96.88680404257136 67.45574678913 95.51506310352849 C 62.33633990980289 94.14332216448463 57.95363819044393 90.79490079925475 55.36322500456 86.1667521924785 C 52.65033733154483 81.60931426381782 51.941870226360635 76.13957255502828 53.3136111654 71.02016567569848 C 54.33886837577242 67.1938536757749 56.46835147713067 63.77908463489302 59.41106528434 61.216590708338494 L 59.41106528434 61.216590708338494 L 48 45.304400615178494 L 36.58893471566 61.216590708338494 L 36.58893471566 61.216590708338494 C 39.53164852286933 63.77908463489302 41.66113162422758 67.1938536757749 42.6863888346 71.02016567569848 C 44.058129773639365 76.13957255502828 43.34966266845517 81.60931426381782 40.63677499544 86.1667521924785 C 38.04636180955607 90.79490079925475 33.66366009019711 94.14332216448463 28.54425321087 95.51506310352849 C 23.42484633153299 96.88680404257136 17.955104622743434 96.17833693738717 13.39766669408 93.46544926436849 C 8.769518087306523 90.87503607848808 5.421096722076626 86.4923343591291 4.04935578303 81.3729274797985 C 2.6776148439899146 76.25352060046498 3.386081949174084 70.78377889167544 6.09896962219 66.22634096301849 C 8.68938280807319 61.59819235623852 13.072084527432153 58.249770991008624 18.19149140676 56.878030051968494 C 22.017803406685502 55.85277284159684 26.039821694824973 55.98957478386179 29.73036343587 57.25679273369849 L 43.15087482397 38.54252521933849 L 18.94800805535 5.792773796008492 C 18.356440725890387 4.909570481522898 18.228889440477282 3.840117037192824 18.51359039009 2.7775986282784926 C 18.798291339702825 1.7150802193568744 19.443480715320973 0.8526820111088131 20.39739470792 0.3835891687884925 C 21.28059802240836 -0.20797816067100783 22.350051466738435 -0.33552944608411295 23.41256987566 -0.050828496471507556 C 24.475088284574383 0.2338724531414318 25.337486492822443 0.8790618287595802 25.80657933514 1.8329758213584926 L 48 31.780649823488496 L 70.19342066486 1.8329758213584926 C 70.6625135071776 0.8790618287595713 71.52491171542565 0.2338724531414229 72.58743012434 -0.050828496471507556 C 73.6499485332616 -0.33552944608412183 74.71940197759167 -0.2079781606710167 75.60260529208 0.3835891687884925 C 76.55651928467906 0.8526820111088043 77.20170866029721 1.7150802193568655 77.48640960991 2.7775986282784926 C 77.77111055952275 3.8401170371928153 77.64355927410965 4.9095704815228896 77.05199194465 5.792773796008492 L 52.84912517603 38.54252521933849 Z  M 61.04101777572 73.0907180365185 C 61.86923872004461 69.99975539239136 63.901399429527956 67.43844267215744 66.6217200511 65.7862151709185 C 69.41275135079012 64.25646215681797 72.64699358829058 63.77721571794975 75.73795623242 64.60543666227849 C 78.82891887654063 65.43365760660589 81.39023159677457 67.46581831608921 83.04245909801 70.18613893765848 C 84.57221211211403 72.97717023735137 85.05145855098226 76.21141247485184 84.22323760665 79.30237511897849 C 83.39501666232613 82.3933377631019 81.36285595284278 84.95465048333583 78.64253533127 86.60687798457849 C 75.85150403158062 88.13663099867529 72.61726179408014 88.61587743754353 69.52629914996 87.78765649321849 C 66.4353365058301 86.9594355488874 63.874023785596165 84.92727483940405 62.22179628436 82.2069542178285 C 60.692043270256704 79.41592291814189 60.21279683138848 76.18168068064139 61.04101777572 73.0907180365185 L 61.04101777572 73.0907180365185 Z  M 34.95898222428 73.0907180365185 C 35.78720316861152 76.18168068064139 35.307956729743296 79.41592291814189 33.77820371564 82.2069542178285 C 32.125976214403835 84.92727483940405 29.564663494169906 86.9594355488874 26.47370085004 87.78765649321849 C 23.382738205919864 88.61587743754353 20.148495968419383 88.13663099867529 17.35746466873 86.60687798457849 C 14.637144047157221 84.95465048333583 12.604983337673879 82.3933377631019 11.77676239335 79.30237511897849 C 10.948541449017746 76.21141247485184 11.42778788788597 72.97717023735137 12.95754090199 70.18613893765848 C 14.60976840322543 67.46581831608921 17.171081123459373 65.43365760660589 20.26204376758 64.60543666227849 C 23.353006411709416 63.77721571794975 26.587248649209883 64.25646215681797 29.3782799489 65.7862151709185 C 32.098600570472044 67.43844267215744 34.13076127995539 69.99975539239136 34.95898222428 73.0907180365185 L 34.95898222428 73.0907180365185 Z " fill-rule="evenodd" fill="none" stroke="none" stroke-width="16" mask="url(#_mask_YEOJi8OipdZ3ZKR3RZorNoSHnIxTTrRe)"/></svg>