<?xml version="1.0" standalone="no"?><!-- Generator: Gravit.io --><svg xmlns="http://www.w3.org/2000/svg" xmlns:xlink="http://www.w3.org/1999/xlink" width="96" height="96"><path d=" M 68.12671991522 62.52671991522 C 73.18421608882495 56.13311234912618 76 48.17770553947789 76 40 C 76 30.5 72.2 21.3 65.5 14.5 C 58.7 7.8 49.5 4 40 4 C 30.5 4 21.3 7.8 14.5 14.5 C 7.8 21.3 4 30.5 4 40 L 4 40 C 4 49.5 7.8 58.7 14.5 65.5 C 21.3 72.2 30.5 76 40 76 C 48.17770553947789 76 56.13311234912618 73.18421608882495 62.52671991522 68.12671991522 L 85.2 90.8 C 85.9 91.6 86.9 92 88 92 C 89.1 92 90.1 91.6 90.8 90.8 C 91.6 90.1 92 89.1 92 88 C 92 86.9 91.6 85.9 90.8 85.2 L 68.12671991522 62.52671991522 Z  M 12 40 C 12 47.4 15 54.5 20.2 59.8 C 25.5 65 32.6 68 40 68 C 47.4 68 54.5 65 59.8 59.8 C 65 54.5 68 47.4 68 40 C 68 32.6 65 25.5 59.8 20.2 C 54.5 15 47.4 12 40 12 C 32.6 12 25.5 15 20.2 20.2 C 15 25.5 12 32.6 12 40 L 12 40 Z " fill-rule="evenodd" fill="#454545" stroke="none"/><mask id="_mask_THeF6ypFq26HlWGOS23TPEu4THXfeeMR"><path d=" M 68.12671991522 62.52671991522 C 73.18421608882495 56.13311234912618 76 48.17770553947789 76 40 C 76 30.5 72.2 21.3 65.5 14.5 C 58.7 7.8 49.5 4 40 4 C 30.5 4 21.3 7.8 14.5 14.5 C 7.8 21.3 4 30.5 4 40 L 4 40 C 4 49.5 7.8 58.7 14.5 65.5 C 21.3 72.2 30.5 76 40 76 C 48.17770553947789 76 56.13311234912618 73.18421608882495 62.52671991522 68.12671991522 L 85.2 90.8 C 85.9 91.6 86.9 92 88 92 C 89.1 92 90.1 91.6 90.8 90.8 C 91.6 90.1 92 89.1 92 88 C 92 86.9 91.6 85.9 90.8 85.2 L 68.12671991522 62.52671991522 Z  M 12 40 C 12 47.4 15 54.5 20.2 59.8 C 25.5 65 32.6 68 40 68 C 47.4 68 54.5 65 59.8 59.8 C 65 54.5 68 47.4 68 40 C 68 32.6 65 25.5 59.8 20.2 C 54.5 15 47.4 12 40 12 C 32.6 12 25.5 15 20.2 20.2 C 15 25.5 12 32.6 12 40 L 12 40 Z " fill-rule="evenodd" fill="white" stroke="none"/></mask><path d=" M 68.12671991522 62.52671991522 C 73.18421608882495 56.13311234912618 76 48.17770553947789 76 40 C 76 30.5 72.2 21.3 65.5 14.5 C 58.7 7.8 49.5 4 40 4 C 30.5 4 21.3 7.8 14.5 14.5 C 7.8 21.3 4 30.5 4 40 L 4 40 C 4 49.5 7.8 58.7 14.5 65.5 C 21.3 72.2 30.5 76 40 76 C 48.17770553947789 76 56.13311234912618 73.18421608882495 62.52671991522 68.12671991522 L 85.2 90.8 C 85.9 91.6 86.9 92 88 92 C 89.1 92 90.1 91.6 90.8 90.8 C 91.6 90.1 92 89.1 92 88 C 92 86.9 91.6 85.9 90.8 85.2 L 68.12671991522 62.52671991522 Z  M 12 40 C 12 47.4 15 54.5 20.2 59.8 C 25.5 65 32.6 68 40 68 C 47.4 68 54.5 65 59.8 59.8 C 65 54.5 68 47.4 68 40 C 68 32.6 65 25.5 59.8 20.2 C 54.5 15 47.4 12 40 12 C 32.6 12 25.5 15 20.2 20.2 C 15 25.5 12 32.6 12 40 L 12 40 Z " fill-rule="evenodd" fill="none" stroke="none" stroke-width="16" mask="url(#_mask_THeF6ypFq26HlWGOS23TPEu4THXfeeMR)"/></svg>