<svg xmlns="http://www.w3.org/2000/svg" width="96" height="96"><path d="M36.798 41.955A15.91 15.91 0 0 1 38 48c0 2.08-.417 4.136-1.202 6.045l24.075 12.84c.54-.776 1.15-1.509 1.827-2.185 3-3 7.1-4.7 11.3-4.7 4.2 0 8.3 1.7 11.3 4.7S90 71.8 90 76c0 4.2-1.7 8.3-4.7 11.3S78.2 92 74 92c-4.2 0-8.3-1.7-11.3-4.7S58 80.2 58 76c0-.528.027-1.055.08-1.577L31.964 60.494A16.045 16.045 0 0 1 22 64c-4.2 0-8.3-1.7-11.3-4.7S6 52.2 6 48c0-4.2 1.7-8.3 4.7-11.3S17.8 32 22 32c3.606 0 7.138 1.253 9.964 3.506L58.08 21.577A15.622 15.622 0 0 1 58 20c0-4.2 1.7-8.3 4.7-11.3S69.8 4 74 4c4.2 0 8.3 1.7 11.3 4.7S90 15.8 90 20c0 4.2-1.7 8.3-4.7 11.3S78.2 36 74 36c-4.2 0-8.3-1.7-11.3-4.7a16.003 16.003 0 0 1-1.827-2.186l-24.075 12.84zM74 28c-2.1 0-4.2-.8-5.7-2.3-1.5-1.5-2.3-3.6-2.3-5.7s.8-4.2 2.3-5.7c1.5-1.5 3.6-2.3 5.7-2.3s4.2.8 5.7 2.3c1.5 1.5 2.3 3.6 2.3 5.7s-.8 4.2-2.3 5.7C78.2 27.2 76.1 28 74 28zM22 56c2.1 0 4.2-.8 5.7-2.3 1.5-1.5 2.3-3.6 2.3-5.7s-.8-4.2-2.3-5.7C26.2 40.8 24.1 40 22 40s-4.2.8-5.7 2.3C14.8 43.8 14 45.9 14 48s.8 4.2 2.3 5.7c1.5 1.5 3.6 2.3 5.7 2.3zm52 28c2.1 0 4.2-.8 5.7-2.3 1.5-1.5 2.3-3.6 2.3-5.7s-.8-4.2-2.3-5.7C78.2 68.8 76.1 68 74 68s-4.2.8-5.7 2.3C66.8 71.8 66 73.9 66 76s.8 4.2 2.3 5.7c1.5 1.5 3.6 2.3 5.7 2.3z" fill-rule="evenodd" fill="#454545"/></svg>