<?xml version="1.0" standalone="no"?><!-- Generator: Gravit.io --><svg xmlns="http://www.w3.org/2000/svg" xmlns:xlink="http://www.w3.org/1999/xlink" width="96" height="96"><path d=" M 36.79758301398 41.95462239255 C 37.582995792893584 43.8642258769631 38 45.91984810886077 38 48 C 38 50.08015189113923 37.582995792893584 52.1357741230369 36.79758301398 54.04537760745 L 60.87341500391 66.88582133542 C 61.41311462647217 66.10892411382541 62.02350515440549 65.37649484559451 62.7 64.7 C 65.7 61.7 69.8 60 74 60 C 78.2 60 82.3 61.7 85.3 64.7 C 88.3 67.7 90 71.8 90 76 C 90 80.2 88.3 84.3 85.3 87.3 C 82.3 90.3 78.2 92 74 92 C 69.8 92 65.7 90.3 62.7 87.3 C 59.7 84.3 58 80.2 58 76 C 58 75.47194737711827 58.02687229440504 74.94547547743684 58.07982192604 74.42257169389 L 31.96366662828 60.49395553508 C 29.138036870674263 62.746941881547414 25.605873085879853 64 22 64 C 17.8 64 13.7 62.3 10.7 59.3 C 7.7 56.3 6 52.2 6 48 C 6 43.8 7.7 39.7 10.7 36.7 C 13.7 33.7 17.8 32 22 32 C 25.605873085879853 32 29.138036870674263 33.253058118452586 31.96366662828 35.50604446492 L 58.07982192604 21.57742830611 C 58.02687229440504 21.054524522563153 58 20.528052622881724 58 20 C 58 15.8 59.7 11.7 62.7 8.7 C 65.7 5.7 69.8 4 74 4 C 78.2 4 82.3 5.7 85.3 8.7 C 88.3 11.7 90 15.8 90 20 C 90 24.2 88.3 28.3 85.3 31.299999999999997 C 82.3 34.3 78.2 36 74 36 C 69.8 36 65.7 34.3 62.7 31.299999999999997 C 62.02350515440549 30.623505154405485 61.41311462647217 29.891075886174583 60.87341500391 29.11417866458 L 60.87341500391 29.11417866458 L 36.79758301398 41.95462239255 Z  M 74 28 C 71.9 28 69.8 27.2 68.3 25.7 C 66.8 24.2 66 22.1 66 20 C 66 17.9 66.8 15.8 68.3 14.3 C 69.8 12.8 71.9 12 74 12 C 76.1 12 78.2 12.8 79.7 14.3 C 81.2 15.8 82 17.9 82 20 C 82 22.1 81.2 24.2 79.7 25.7 C 78.2 27.2 76.1 28 74 28 L 74 28 Z  M 22 56 C 24.1 56 26.2 55.2 27.7 53.7 C 29.2 52.2 30 50.1 30 48 C 30 45.9 29.2 43.8 27.7 42.3 C 26.2 40.8 24.1 40 22 40 C 19.9 40 17.8 40.8 16.3 42.3 C 14.8 43.8 14 45.9 14 48 C 14 50.1 14.8 52.2 16.3 53.7 C 17.8 55.2 19.9 56 22 56 L 22 56 Z  M 74 84 C 76.1 84 78.2 83.2 79.7 81.7 C 81.2 80.2 82 78.1 82 76 C 82 73.9 81.2 71.8 79.7 70.3 C 78.2 68.8 76.1 68 74 68 C 71.9 68 69.8 68.8 68.3 70.3 C 66.8 71.8 66 73.9 66 76 C 66 78.1 66.8 80.2 68.3 81.7 C 69.8 83.2 71.9 84 74 84 L 74 84 Z " fill-rule="evenodd" fill="#454545" stroke="none"/><mask id="_mask_vuIqBGKd0sevsy8Z5pJJEkrLPEF4QAos"><path d=" M 36.79758301398 41.95462239255 C 37.582995792893584 43.8642258769631 38 45.91984810886077 38 48 C 38 50.08015189113923 37.582995792893584 52.1357741230369 36.79758301398 54.04537760745 L 60.87341500391 66.88582133542 C 61.41311462647217 66.10892411382541 62.02350515440549 65.37649484559451 62.7 64.7 C 65.7 61.7 69.8 60 74 60 C 78.2 60 82.3 61.7 85.3 64.7 C 88.3 67.7 90 71.8 90 76 C 90 80.2 88.3 84.3 85.3 87.3 C 82.3 90.3 78.2 92 74 92 C 69.8 92 65.7 90.3 62.7 87.3 C 59.7 84.3 58 80.2 58 76 C 58 75.47194737711827 58.02687229440504 74.94547547743684 58.07982192604 74.42257169389 L 31.96366662828 60.49395553508 C 29.138036870674263 62.746941881547414 25.605873085879853 64 22 64 C 17.8 64 13.7 62.3 10.7 59.3 C 7.7 56.3 6 52.2 6 48 C 6 43.8 7.7 39.7 10.7 36.7 C 13.7 33.7 17.8 32 22 32 C 25.605873085879853 32 29.138036870674263 33.253058118452586 31.96366662828 35.50604446492 L 58.07982192604 21.57742830611 C 58.02687229440504 21.054524522563153 58 20.528052622881724 58 20 C 58 15.8 59.7 11.7 62.7 8.7 C 65.7 5.7 69.8 4 74 4 C 78.2 4 82.3 5.7 85.3 8.7 C 88.3 11.7 90 15.8 90 20 C 90 24.2 88.3 28.3 85.3 31.299999999999997 C 82.3 34.3 78.2 36 74 36 C 69.8 36 65.7 34.3 62.7 31.299999999999997 C 62.02350515440549 30.623505154405485 61.41311462647217 29.891075886174583 60.87341500391 29.11417866458 L 60.87341500391 29.11417866458 L 36.79758301398 41.95462239255 Z  M 74 28 C 71.9 28 69.8 27.2 68.3 25.7 C 66.8 24.2 66 22.1 66 20 C 66 17.9 66.8 15.8 68.3 14.3 C 69.8 12.8 71.9 12 74 12 C 76.1 12 78.2 12.8 79.7 14.3 C 81.2 15.8 82 17.9 82 20 C 82 22.1 81.2 24.2 79.7 25.7 C 78.2 27.2 76.1 28 74 28 L 74 28 Z  M 22 56 C 24.1 56 26.2 55.2 27.7 53.7 C 29.2 52.2 30 50.1 30 48 C 30 45.9 29.2 43.8 27.7 42.3 C 26.2 40.8 24.1 40 22 40 C 19.9 40 17.8 40.8 16.3 42.3 C 14.8 43.8 14 45.9 14 48 C 14 50.1 14.8 52.2 16.3 53.7 C 17.8 55.2 19.9 56 22 56 L 22 56 Z  M 74 84 C 76.1 84 78.2 83.2 79.7 81.7 C 81.2 80.2 82 78.1 82 76 C 82 73.9 81.2 71.8 79.7 70.3 C 78.2 68.8 76.1 68 74 68 C 71.9 68 69.8 68.8 68.3 70.3 C 66.8 71.8 66 73.9 66 76 C 66 78.1 66.8 80.2 68.3 81.7 C 69.8 83.2 71.9 84 74 84 L 74 84 Z " fill-rule="evenodd" fill="white" stroke="none"/></mask><path d=" M 36.79758301398 41.95462239255 C 37.582995792893584 43.8642258769631 38 45.91984810886077 38 48 C 38 50.08015189113923 37.582995792893584 52.1357741230369 36.79758301398 54.04537760745 L 60.87341500391 66.88582133542 C 61.41311462647217 66.10892411382541 62.02350515440549 65.37649484559451 62.7 64.7 C 65.7 61.7 69.8 60 74 60 C 78.2 60 82.3 61.7 85.3 64.7 C 88.3 67.7 90 71.8 90 76 C 90 80.2 88.3 84.3 85.3 87.3 C 82.3 90.3 78.2 92 74 92 C 69.8 92 65.7 90.3 62.7 87.3 C 59.7 84.3 58 80.2 58 76 C 58 75.47194737711827 58.02687229440504 74.94547547743684 58.07982192604 74.42257169389 L 31.96366662828 60.49395553508 C 29.138036870674263 62.746941881547414 25.605873085879853 64 22 64 C 17.8 64 13.7 62.3 10.7 59.3 C 7.7 56.3 6 52.2 6 48 C 6 43.8 7.7 39.7 10.7 36.7 C 13.7 33.7 17.8 32 22 32 C 25.605873085879853 32 29.138036870674263 33.253058118452586 31.96366662828 35.50604446492 L 58.07982192604 21.57742830611 C 58.02687229440504 21.054524522563153 58 20.528052622881724 58 20 C 58 15.8 59.7 11.7 62.7 8.7 C 65.7 5.7 69.8 4 74 4 C 78.2 4 82.3 5.7 85.3 8.7 C 88.3 11.7 90 15.8 90 20 C 90 24.2 88.3 28.3 85.3 31.299999999999997 C 82.3 34.3 78.2 36 74 36 C 69.8 36 65.7 34.3 62.7 31.299999999999997 C 62.02350515440549 30.623505154405485 61.41311462647217 29.891075886174583 60.87341500391 29.11417866458 L 60.87341500391 29.11417866458 L 36.79758301398 41.95462239255 Z  M 74 28 C 71.9 28 69.8 27.2 68.3 25.7 C 66.8 24.2 66 22.1 66 20 C 66 17.9 66.8 15.8 68.3 14.3 C 69.8 12.8 71.9 12 74 12 C 76.1 12 78.2 12.8 79.7 14.3 C 81.2 15.8 82 17.9 82 20 C 82 22.1 81.2 24.2 79.7 25.7 C 78.2 27.2 76.1 28 74 28 L 74 28 Z  M 22 56 C 24.1 56 26.2 55.2 27.7 53.7 C 29.2 52.2 30 50.1 30 48 C 30 45.9 29.2 43.8 27.7 42.3 C 26.2 40.8 24.1 40 22 40 C 19.9 40 17.8 40.8 16.3 42.3 C 14.8 43.8 14 45.9 14 48 C 14 50.1 14.8 52.2 16.3 53.7 C 17.8 55.2 19.9 56 22 56 L 22 56 Z  M 74 84 C 76.1 84 78.2 83.2 79.7 81.7 C 81.2 80.2 82 78.1 82 76 C 82 73.9 81.2 71.8 79.7 70.3 C 78.2 68.8 76.1 68 74 68 C 71.9 68 69.8 68.8 68.3 70.3 C 66.8 71.8 66 73.9 66 76 C 66 78.1 66.8 80.2 68.3 81.7 C 69.8 83.2 71.9 84 74 84 L 74 84 Z " fill-rule="evenodd" fill="none" stroke="none" stroke-width="16" mask="url(#_mask_vuIqBGKd0sevsy8Z5pJJEkrLPEF4QAos)"/></svg>