<svg xmlns="http://www.w3.org/2000/svg" style="isolation:isolate" width="96" height="96"><path d="M.6 78.2c-.5-.9-.7-2-.5-3.1.2-1 .9-1.9 1.7-2.5.9-.5 2-.7 3.1-.5 1 .2 1.9.9 2.5 1.7 1.2 2.1 2.9 3.8 4.9 5.1 1 .7 2.3 1.1 3.5 1.1 2-.3 3.8-1.2 5.2-2.7 2.9-3.1 6.8-5 11-5.3 4.2.3 8.1 2.2 10.9 5.3 1.4 1.4 3.2 2.4 5.1 2.7 1.9-.3 3.7-1.3 5.1-2.7 2.8-3.1 6.7-5 10.9-5.3 4.2.3 8.2 2.2 11 5.3 1.4 1.5 3.2 2.4 5.2 2.7 1.2 0 2.4-.4 3.4-1.1 2-1.3 3.7-3.1 5-5.1.6-.9 1.5-1.5 2.6-1.7 1-.2 2.1 0 3 .5.9.6 1.5 1.5 1.7 2.6.2 1 0 2.1-.5 3-2 2.9-4.4 5.4-7.3 7.4-2.5 1.6-5.4 2.4-8.3 2.4-4.1-.4-7.9-2.2-10.6-5.2-1.4-1.5-3.2-2.5-5.2-2.8-1.9.3-3.7 1.3-5.1 2.7-2.8 3.1-6.7 5-10.9 5.3-4.2-.3-8.1-2.2-10.9-5.3-1.4-1.4-3.2-2.4-5.1-2.7-2 .3-3.8 1.3-5.1 2.7-2.8 3-6.6 4.9-10.7 5.3-3 0-5.9-.8-8.3-2.5C5 83.6 2.5 81.1.6 78.2zm18.3-47.1c-3.4.9-5.8 3.9-5.8 7.4q0 .3.3 2.3l5.5 16.7c1.3 3.9 5 6.5 9.1 6.5h40c4.1 0 7.8-2.6 9.1-6.5l5.5-16.7q.3-2 .3-2.3c0-3.5-2.4-6.5-5.8-7.4q-1.363-.509-1.4-.6l-6.5-16.3C67.7 10.5 64 8 60 8H36c-4 0-7.7 2.5-9.2 6.2l-6.5 16.3q-.037.091-1.4.6zm10.833-2.697L43.4 25l4.6-.5 4.6.5 13.667 3.403L61.8 17.2c-.3-.7-1-1.2-1.8-1.2H36c-.8 0-1.5.5-1.8 1.2l-4.467 11.203zM21.2 38.8l23.6-5.9 3.2-.3 3.2.3 23.6 5.9-5.3 16.1c-.2.7-.8 1.1-1.5 1.1H28c-.7 0-1.3-.4-1.5-1.1l-5.3-16.1z" fill-rule="evenodd"/></svg>