<?xml version="1.0" standalone="no"?><!-- Generator: Gravit.io --><svg xmlns="http://www.w3.org/2000/svg" xmlns:xlink="http://www.w3.org/1999/xlink" width="96" height="96"><path d=" M 63.25 32 C 63.25 33.1 62.849999999999994 34.1 62.05 34.8 C 61.349999999999994 35.6 60.35 36 59.25 36 C 58.15 36 57.15 35.6 56.45 34.8 C 55.65 34.1 55.25 33.1 55.25 32 L 55.25 24 L 15.25 24 L 15.25 72 L 55.25 72 L 55.25 64 C 55.25 62.9 55.65 61.9 56.45 61.2 C 57.15 60.4 58.15 60 59.25 60 C 60.35 60 61.349999999999994 60.4 62.05 61.2 C 62.849999999999994 61.9 63.25 62.9 63.25 64 L 63.25 72 C 63.25 74.1 62.45 76.2 60.95 77.7 C 59.45 79.2 57.35 80 55.25 80 L 15.25 80 C 13.15 80 11.05 79.2 9.55 77.7 C 8.05 76.2 7.25 74.1 7.25 72 L 7.25 24 C 7.25 21.9 8.05 19.8 9.55 18.3 C 11.05 16.8 13.15 16 15.25 16 L 55.25 16 C 57.35 16 59.45 16.8 60.95 18.3 C 62.45 19.8 63.25 21.9 63.25 24 L 63.25 32 Z  M 75.62692307692 44 L 45.25 44 C 44.15 44 43.15 44.4 42.45 45.2 C 41.65 45.9 41.25 46.9 41.25 48 C 41.25 49.1 41.65 50.1 42.45 50.8 C 43.15 51.6 44.15 52 45.25 52 L 75.62692307692 52 L 74.45 53.2 C 73.65 53.9 73.25 54.9 73.25 56 C 73.25 57.1 73.65 58.1 74.45 58.8 C 75.15 59.6 76.15 60 77.25 60 C 78.35 60 79.35 59.6 80.05 58.8 L 87.25 51.7 Q 88.75 49.55812171935711 88.75 48 Q 88.75 46.44187828064289 87.25 44.3 L 80.05 37.2 C 79.35 36.4 78.35 36 77.25 36 C 76.15 36 75.15 36.4 74.45 37.2 C 73.65 37.9 73.25 38.9 73.25 40 C 73.25 41.1 73.65 42.1 74.45 42.8 L 75.62692307692 44 Z " fill-rule="evenodd" fill="#454545" stroke="none"/><mask id="_mask_ACGH4AJF5SJFxLMoJiDMJNt9plfPoMWt"><path d=" M 63.25 32 C 63.25 33.1 62.849999999999994 34.1 62.05 34.8 C 61.349999999999994 35.6 60.35 36 59.25 36 C 58.15 36 57.15 35.6 56.45 34.8 C 55.65 34.1 55.25 33.1 55.25 32 L 55.25 24 L 15.25 24 L 15.25 72 L 55.25 72 L 55.25 64 C 55.25 62.9 55.65 61.9 56.45 61.2 C 57.15 60.4 58.15 60 59.25 60 C 60.35 60 61.349999999999994 60.4 62.05 61.2 C 62.849999999999994 61.9 63.25 62.9 63.25 64 L 63.25 72 C 63.25 74.1 62.45 76.2 60.95 77.7 C 59.45 79.2 57.35 80 55.25 80 L 15.25 80 C 13.15 80 11.05 79.2 9.55 77.7 C 8.05 76.2 7.25 74.1 7.25 72 L 7.25 24 C 7.25 21.9 8.05 19.8 9.55 18.3 C 11.05 16.8 13.15 16 15.25 16 L 55.25 16 C 57.35 16 59.45 16.8 60.95 18.3 C 62.45 19.8 63.25 21.9 63.25 24 L 63.25 32 Z  M 75.62692307692 44 L 45.25 44 C 44.15 44 43.15 44.4 42.45 45.2 C 41.65 45.9 41.25 46.9 41.25 48 C 41.25 49.1 41.65 50.1 42.45 50.8 C 43.15 51.6 44.15 52 45.25 52 L 75.62692307692 52 L 74.45 53.2 C 73.65 53.9 73.25 54.9 73.25 56 C 73.25 57.1 73.65 58.1 74.45 58.8 C 75.15 59.6 76.15 60 77.25 60 C 78.35 60 79.35 59.6 80.05 58.8 L 87.25 51.7 Q 88.75 49.55812171935711 88.75 48 Q 88.75 46.44187828064289 87.25 44.3 L 80.05 37.2 C 79.35 36.4 78.35 36 77.25 36 C 76.15 36 75.15 36.4 74.45 37.2 C 73.65 37.9 73.25 38.9 73.25 40 C 73.25 41.1 73.65 42.1 74.45 42.8 L 75.62692307692 44 Z " fill-rule="evenodd" fill="white" stroke="none"/></mask><path d=" M 63.25 32 C 63.25 33.1 62.849999999999994 34.1 62.05 34.8 C 61.349999999999994 35.6 60.35 36 59.25 36 C 58.15 36 57.15 35.6 56.45 34.8 C 55.65 34.1 55.25 33.1 55.25 32 L 55.25 24 L 15.25 24 L 15.25 72 L 55.25 72 L 55.25 64 C 55.25 62.9 55.65 61.9 56.45 61.2 C 57.15 60.4 58.15 60 59.25 60 C 60.35 60 61.349999999999994 60.4 62.05 61.2 C 62.849999999999994 61.9 63.25 62.9 63.25 64 L 63.25 72 C 63.25 74.1 62.45 76.2 60.95 77.7 C 59.45 79.2 57.35 80 55.25 80 L 15.25 80 C 13.15 80 11.05 79.2 9.55 77.7 C 8.05 76.2 7.25 74.1 7.25 72 L 7.25 24 C 7.25 21.9 8.05 19.8 9.55 18.3 C 11.05 16.8 13.15 16 15.25 16 L 55.25 16 C 57.35 16 59.45 16.8 60.95 18.3 C 62.45 19.8 63.25 21.9 63.25 24 L 63.25 32 Z  M 75.62692307692 44 L 45.25 44 C 44.15 44 43.15 44.4 42.45 45.2 C 41.65 45.9 41.25 46.9 41.25 48 C 41.25 49.1 41.65 50.1 42.45 50.8 C 43.15 51.6 44.15 52 45.25 52 L 75.62692307692 52 L 74.45 53.2 C 73.65 53.9 73.25 54.9 73.25 56 C 73.25 57.1 73.65 58.1 74.45 58.8 C 75.15 59.6 76.15 60 77.25 60 C 78.35 60 79.35 59.6 80.05 58.8 L 87.25 51.7 Q 88.75 49.55812171935711 88.75 48 Q 88.75 46.44187828064289 87.25 44.3 L 80.05 37.2 C 79.35 36.4 78.35 36 77.25 36 C 76.15 36 75.15 36.4 74.45 37.2 C 73.65 37.9 73.25 38.9 73.25 40 C 73.25 41.1 73.65 42.1 74.45 42.8 L 75.62692307692 44 Z " fill-rule="evenodd" fill="none" stroke="none" stroke-width="16" mask="url(#_mask_ACGH4AJF5SJFxLMoJiDMJNt9plfPoMWt)"/></svg>