<?xml version="1.0" standalone="no"?><!-- Generator: Gravit.io --><svg xmlns="http://www.w3.org/2000/svg" xmlns:xlink="http://www.w3.org/1999/xlink" width="96" height="96"><path d=" M 68.25 32 C 68.25 33.1 67.85 34.1 67.05 34.8 C 66.35 35.6 65.35 36 64.25 36 C 63.15 36 62.15 35.6 61.45 34.8 C 60.65 34.1 60.25 33.1 60.25 32 L 60.25 24 L 20.25 24 L 20.25 72 L 60.25 72 L 60.25 64 C 60.25 62.9 60.65 61.9 61.45 61.2 C 62.15 60.4 63.15 60 64.25 60 C 65.35 60 66.35 60.4 67.05 61.2 C 67.85 61.9 68.25 62.9 68.25 64 L 68.25 72 C 68.25 74.1 67.45 76.2 65.95 77.7 C 64.45 79.2 62.35 80 60.25 80 L 20.25 80 C 18.15 80 16.05 79.2 14.55 77.7 C 13.05 76.2 12.25 74.1 12.25 72 L 12.25 24 C 12.25 21.9 13.05 19.8 14.55 18.3 C 16.05 16.8 18.15 16 20.25 16 L 60.25 16 C 62.35 16 64.45 16.8 65.95 18.3 C 67.45 19.8 68.25 21.9 68.25 24 L 68.25 32 Z  M 49.373076923080006 44 L 79.75 44 C 80.85 44 81.85 44.4 82.55 45.2 C 83.35 45.9 83.75 46.9 83.75 48 C 83.75 49.1 83.35 50.1 82.55 50.8 C 81.85 51.6 80.85 52 79.75 52 L 49.373076923080006 52 L 50.55 53.2 C 51.349999999999994 53.9 51.75 54.9 51.75 56 C 51.75 57.1 51.349999999999994 58.1 50.55 58.8 C 49.849999999999994 59.6 48.849999999999994 60 47.75 60 C 46.650000000000006 60 45.650000000000006 59.6 44.95 58.8 L 37.75 51.7 Q 36.25 49.55812171935711 36.25 48 Q 36.25 46.44187828064289 37.75 44.3 L 44.95 37.2 C 45.650000000000006 36.4 46.650000000000006 36 47.75 36 C 48.849999999999994 36 49.849999999999994 36.4 50.55 37.2 C 51.349999999999994 37.9 51.75 38.9 51.75 40 C 51.75 41.1 51.349999999999994 42.1 50.55 42.8 L 49.373076923080006 44 Z " fill-rule="evenodd" fill="#454545" stroke="none"/><mask id="_mask_x7klsPn7gClo0EAdi5R3Ii3xA1wrU463"><path d=" M 68.25 32 C 68.25 33.1 67.85 34.1 67.05 34.8 C 66.35 35.6 65.35 36 64.25 36 C 63.15 36 62.15 35.6 61.45 34.8 C 60.65 34.1 60.25 33.1 60.25 32 L 60.25 24 L 20.25 24 L 20.25 72 L 60.25 72 L 60.25 64 C 60.25 62.9 60.65 61.9 61.45 61.2 C 62.15 60.4 63.15 60 64.25 60 C 65.35 60 66.35 60.4 67.05 61.2 C 67.85 61.9 68.25 62.9 68.25 64 L 68.25 72 C 68.25 74.1 67.45 76.2 65.95 77.7 C 64.45 79.2 62.35 80 60.25 80 L 20.25 80 C 18.15 80 16.05 79.2 14.55 77.7 C 13.05 76.2 12.25 74.1 12.25 72 L 12.25 24 C 12.25 21.9 13.05 19.8 14.55 18.3 C 16.05 16.8 18.15 16 20.25 16 L 60.25 16 C 62.35 16 64.45 16.8 65.95 18.3 C 67.45 19.8 68.25 21.9 68.25 24 L 68.25 32 Z  M 49.373076923080006 44 L 79.75 44 C 80.85 44 81.85 44.4 82.55 45.2 C 83.35 45.9 83.75 46.9 83.75 48 C 83.75 49.1 83.35 50.1 82.55 50.8 C 81.85 51.6 80.85 52 79.75 52 L 49.373076923080006 52 L 50.55 53.2 C 51.349999999999994 53.9 51.75 54.9 51.75 56 C 51.75 57.1 51.349999999999994 58.1 50.55 58.8 C 49.849999999999994 59.6 48.849999999999994 60 47.75 60 C 46.650000000000006 60 45.650000000000006 59.6 44.95 58.8 L 37.75 51.7 Q 36.25 49.55812171935711 36.25 48 Q 36.25 46.44187828064289 37.75 44.3 L 44.95 37.2 C 45.650000000000006 36.4 46.650000000000006 36 47.75 36 C 48.849999999999994 36 49.849999999999994 36.4 50.55 37.2 C 51.349999999999994 37.9 51.75 38.9 51.75 40 C 51.75 41.1 51.349999999999994 42.1 50.55 42.8 L 49.373076923080006 44 Z " fill-rule="evenodd" fill="white" stroke="none"/></mask><path d=" M 68.25 32 C 68.25 33.1 67.85 34.1 67.05 34.8 C 66.35 35.6 65.35 36 64.25 36 C 63.15 36 62.15 35.6 61.45 34.8 C 60.65 34.1 60.25 33.1 60.25 32 L 60.25 24 L 20.25 24 L 20.25 72 L 60.25 72 L 60.25 64 C 60.25 62.9 60.65 61.9 61.45 61.2 C 62.15 60.4 63.15 60 64.25 60 C 65.35 60 66.35 60.4 67.05 61.2 C 67.85 61.9 68.25 62.9 68.25 64 L 68.25 72 C 68.25 74.1 67.45 76.2 65.95 77.7 C 64.45 79.2 62.35 80 60.25 80 L 20.25 80 C 18.15 80 16.05 79.2 14.55 77.7 C 13.05 76.2 12.25 74.1 12.25 72 L 12.25 24 C 12.25 21.9 13.05 19.8 14.55 18.3 C 16.05 16.8 18.15 16 20.25 16 L 60.25 16 C 62.35 16 64.45 16.8 65.95 18.3 C 67.45 19.8 68.25 21.9 68.25 24 L 68.25 32 Z  M 49.373076923080006 44 L 79.75 44 C 80.85 44 81.85 44.4 82.55 45.2 C 83.35 45.9 83.75 46.9 83.75 48 C 83.75 49.1 83.35 50.1 82.55 50.8 C 81.85 51.6 80.85 52 79.75 52 L 49.373076923080006 52 L 50.55 53.2 C 51.349999999999994 53.9 51.75 54.9 51.75 56 C 51.75 57.1 51.349999999999994 58.1 50.55 58.8 C 49.849999999999994 59.6 48.849999999999994 60 47.75 60 C 46.650000000000006 60 45.650000000000006 59.6 44.95 58.8 L 37.75 51.7 Q 36.25 49.55812171935711 36.25 48 Q 36.25 46.44187828064289 37.75 44.3 L 44.95 37.2 C 45.650000000000006 36.4 46.650000000000006 36 47.75 36 C 48.849999999999994 36 49.849999999999994 36.4 50.55 37.2 C 51.349999999999994 37.9 51.75 38.9 51.75 40 C 51.75 41.1 51.349999999999994 42.1 50.55 42.8 L 49.373076923080006 44 Z " fill-rule="evenodd" fill="none" stroke="none" stroke-width="16" mask="url(#_mask_x7klsPn7gClo0EAdi5R3Ii3xA1wrU463)"/></svg>