<svg xmlns="http://www.w3.org/2000/svg" width="96" height="96"><path d="M68.202 53.534l-27.27 15.668-27.668 15.966-1.983.595a3.183 3.183 0 0 1-1.686.198c-1.487-.198-2.975-.992-3.966-2.182-.992-1.289-1.488-2.875-1.389-4.363V16.644c-.099-1.587.397-3.173 1.389-4.363A6.073 6.073 0 0 1 9.595 10c.595 0 1.19 0 1.686.198l1.983.595L40.932 26.76l27.27 15.767c2.083.992 3.471 3.174 3.57 5.455-.099 2.38-1.487 4.462-3.57 5.553zM12.174 19.322L36.965 33.7l24.89 14.28-24.89 14.379-24.791 14.28V19.322zm71.598-5.1c0-1.16.4-2.216 1.2-2.955.7-.845 1.7-1.267 2.8-1.267 1.1 0 2.1.422 2.8 1.267.8.739 1.2 1.794 1.2 2.955v67.556c0 1.16-.4 2.216-1.2 2.955-.7.845-1.7 1.267-2.8 1.267-1.1 0-2.1-.422-2.8-1.267-.8-.739-1.2-1.794-1.2-2.955V14.222z" fill-rule="evenodd" fill="#454545"/></svg>