<?xml version="1.0" standalone="no"?><!-- Generator: Gravit.io --><svg xmlns="http://www.w3.org/2000/svg" xmlns:xlink="http://www.w3.org/1999/xlink" width="96" height="96"><path d=" M 32 29.37307692308 L 33.2 30.55 C 33.9 31.35 34.9 31.75 36 31.75 C 37.1 31.75 38.1 31.35 38.8 30.55 C 39.6 29.85 40 28.85 40 27.75 C 40 26.65 39.6 25.65 38.8 24.95 L 31.7 17.75 Q 29.558121719357107 16.25 28 16.25 Q 26.441878280642893 16.25 24.3 17.75 L 17.2 24.95 C 16.4 25.65 16 26.65 16 27.75 C 16 28.85 16.4 29.85 17.2 30.55 C 17.9 31.35 18.9 31.75 20 31.75 C 21.1 31.75 22.1 31.35 22.8 30.55 L 24 29.37307692308 L 24 75.75 C 24 76.85 24.4 77.85 25.2 78.55 C 25.9 79.35 26.9 79.75 28 79.75 C 29.1 79.75 30.1 79.35 30.8 78.55 C 31.6 77.85 32 76.85 32 75.75 L 32 29.37307692308 Z  M 72 66.62692307692001 L 73.2 65.45 C 73.9 64.65 74.9 64.25 76 64.25 C 77.1 64.25 78.1 64.65 78.8 65.45 C 79.6 66.15 80 67.15 80 68.25 C 80 69.35 79.6 70.35 78.8 71.05 L 71.7 78.25 Q 69.5581217193571 79.75 68 79.75 Q 66.4418782806429 79.75 64.3 78.25 L 57.2 71.05 C 56.4 70.35 56 69.35 56 68.25 C 56 67.15 56.4 66.15 57.2 65.45 C 57.9 64.65 58.9 64.25 60 64.25 C 61.1 64.25 62.1 64.65 62.8 65.45 L 64 66.62692307692001 L 64 20.25 C 64 19.150000000000006 64.4 18.150000000000006 65.2 17.450000000000003 C 65.9 16.650000000000006 66.9 16.25 68 16.25 C 69.1 16.25 70.1 16.650000000000006 70.8 17.450000000000003 C 71.6 18.150000000000006 72 19.150000000000006 72 20.25 L 72 66.62692307692001 Z " fill-rule="evenodd" fill="#454545" stroke="none"/><mask id="_mask_YvKZ8IMHpBA8I0fpxkhwIZZViZoAFNzc"><path d=" M 32 29.37307692308 L 33.2 30.55 C 33.9 31.35 34.9 31.75 36 31.75 C 37.1 31.75 38.1 31.35 38.8 30.55 C 39.6 29.85 40 28.85 40 27.75 C 40 26.65 39.6 25.65 38.8 24.95 L 31.7 17.75 Q 29.558121719357107 16.25 28 16.25 Q 26.441878280642893 16.25 24.3 17.75 L 17.2 24.95 C 16.4 25.65 16 26.65 16 27.75 C 16 28.85 16.4 29.85 17.2 30.55 C 17.9 31.35 18.9 31.75 20 31.75 C 21.1 31.75 22.1 31.35 22.8 30.55 L 24 29.37307692308 L 24 75.75 C 24 76.85 24.4 77.85 25.2 78.55 C 25.9 79.35 26.9 79.75 28 79.75 C 29.1 79.75 30.1 79.35 30.8 78.55 C 31.6 77.85 32 76.85 32 75.75 L 32 29.37307692308 Z  M 72 66.62692307692001 L 73.2 65.45 C 73.9 64.65 74.9 64.25 76 64.25 C 77.1 64.25 78.1 64.65 78.8 65.45 C 79.6 66.15 80 67.15 80 68.25 C 80 69.35 79.6 70.35 78.8 71.05 L 71.7 78.25 Q 69.5581217193571 79.75 68 79.75 Q 66.4418782806429 79.75 64.3 78.25 L 57.2 71.05 C 56.4 70.35 56 69.35 56 68.25 C 56 67.15 56.4 66.15 57.2 65.45 C 57.9 64.65 58.9 64.25 60 64.25 C 61.1 64.25 62.1 64.65 62.8 65.45 L 64 66.62692307692001 L 64 20.25 C 64 19.150000000000006 64.4 18.150000000000006 65.2 17.450000000000003 C 65.9 16.650000000000006 66.9 16.25 68 16.25 C 69.1 16.25 70.1 16.650000000000006 70.8 17.450000000000003 C 71.6 18.150000000000006 72 19.150000000000006 72 20.25 L 72 66.62692307692001 Z " fill-rule="evenodd" fill="white" stroke="none"/></mask><path d=" M 32 29.37307692308 L 33.2 30.55 C 33.9 31.35 34.9 31.75 36 31.75 C 37.1 31.75 38.1 31.35 38.8 30.55 C 39.6 29.85 40 28.85 40 27.75 C 40 26.65 39.6 25.65 38.8 24.95 L 31.7 17.75 Q 29.558121719357107 16.25 28 16.25 Q 26.441878280642893 16.25 24.3 17.75 L 17.2 24.95 C 16.4 25.65 16 26.65 16 27.75 C 16 28.85 16.4 29.85 17.2 30.55 C 17.9 31.35 18.9 31.75 20 31.75 C 21.1 31.75 22.1 31.35 22.8 30.55 L 24 29.37307692308 L 24 75.75 C 24 76.85 24.4 77.85 25.2 78.55 C 25.9 79.35 26.9 79.75 28 79.75 C 29.1 79.75 30.1 79.35 30.8 78.55 C 31.6 77.85 32 76.85 32 75.75 L 32 29.37307692308 Z  M 72 66.62692307692001 L 73.2 65.45 C 73.9 64.65 74.9 64.25 76 64.25 C 77.1 64.25 78.1 64.65 78.8 65.45 C 79.6 66.15 80 67.15 80 68.25 C 80 69.35 79.6 70.35 78.8 71.05 L 71.7 78.25 Q 69.5581217193571 79.75 68 79.75 Q 66.4418782806429 79.75 64.3 78.25 L 57.2 71.05 C 56.4 70.35 56 69.35 56 68.25 C 56 67.15 56.4 66.15 57.2 65.45 C 57.9 64.65 58.9 64.25 60 64.25 C 61.1 64.25 62.1 64.65 62.8 65.45 L 64 66.62692307692001 L 64 20.25 C 64 19.150000000000006 64.4 18.150000000000006 65.2 17.450000000000003 C 65.9 16.650000000000006 66.9 16.25 68 16.25 C 69.1 16.25 70.1 16.650000000000006 70.8 17.450000000000003 C 71.6 18.150000000000006 72 19.150000000000006 72 20.25 L 72 66.62692307692001 Z " fill-rule="evenodd" fill="none" stroke="none" stroke-width="16" mask="url(#_mask_YvKZ8IMHpBA8I0fpxkhwIZZViZoAFNzc)"/></svg>