<svg xmlns="http://www.w3.org/2000/svg" style="isolation:isolate" width="96" height="96"><path d="M66.274 79.029C60.76 82.249 54.45 84 48 84c-9.5 0-18.7-3.8-25.5-10.5C15.8 66.7 12 57.5 12 48s3.8-18.7 10.5-25.5c5.84-5.754 13.45-9.37 21.5-10.275V49.3l22.274 29.729zM83.775 44c-.906-8.05-4.521-15.66-10.275-21.5-5.84-5.754-13.45-9.37-21.5-10.275V44h31.775zm0 8c-.906 8.05-4.521 15.66-10.275 21.5-.264.26-.531.516-.802.767L55.979 52h27.796zM4 48c0-11.7 4.6-22.9 12.9-31.1C25.1 8.6 36.3 4 48 4c11.7 0 22.9 4.6 31.1 12.9C87.4 25.1 92 36.3 92 48c0 11.7-4.6 22.9-12.9 31.1C70.9 87.4 59.7 92 48 92c-11.7 0-22.9-4.6-31.1-12.9C8.6 70.9 4 59.7 4 48z" fill-rule="evenodd"/></svg>