<svg xmlns="http://www.w3.org/2000/svg" style="isolation:isolate" width="96" height="96"><path d="M4 12c0-1.1.4-2.1 1.2-2.8C5.9 8.4 6.9 8 8 8c1.1 0 2.1.4 2.8 1.2.8.7 1.2 1.7 1.2 2.8v68h76c1.1 0 2.1.4 2.8 1.2.8.7 1.2 1.7 1.2 2.8 0 1.1-.4 2.1-1.2 2.8-.7.8-1.7 1.2-2.8 1.2H12c-2.1 0-4.2-.8-5.7-2.3C4.8 84.2 4 82.1 4 80V12zm79.7 17.5L69.3 65.6c-.8 2.5-3.1 4.3-5.7 4.4-2.1-.1-4.1-1.1-5.3-2.9l-18.7-25-.1.1-12.7 12.6c-.7.8-1.7 1.2-2.8 1.2-1.1 0-2.1-.4-2.8-1.2-.8-.7-1.2-1.7-1.2-2.8 0-1.1.4-2.1 1.2-2.8l13.7-13.7 3.2-1.4c.5-.2 1-.4 1.6-.3 2.4 0 4.5 1.1 5.9 3l17.3 23.1 13.4-33.4c.4-1 1.1-1.8 2.1-2.2 1-.4 2.1-.4 3.1 0s1.8 1.1 2.2 2.1c.4 1 .4 2.1 0 3.1z" fill-rule="evenodd"/></svg>