<?xml version="1.0" standalone="no"?><!-- Generator: Gravit.io --><svg xmlns="http://www.w3.org/2000/svg" xmlns:xlink="http://www.w3.org/1999/xlink" width="96" height="96"><path d=" M 12 28 L 20 28 C 22.1 28 24.2 28.8 25.7 30.3 C 27.2 31.8 28 33.9 28 36 L 28 76 C 28 78.1 27.2 80.2 25.7 81.7 C 24.2 83.2 22.1 84 20 84 L 12 84 C 9.9 84 7.8 83.2 6.3 81.7 C 4.8 80.2 4 78.1 4 76 L 4 36 C 4 33.9 4.8 31.8 6.3 30.3 C 7.8 28.8 9.9 28 12 28 Z  M 12 36 L 20 36 L 20 76 L 12 76 L 12 36 Z  M 44 12 L 52 12 C 54.1 12 56.2 12.8 57.7 14.3 C 59.2 15.8 60 17.9 60 20 L 60 76 C 60 78.1 59.2 80.2 57.7 81.7 C 56.2 83.2 54.1 84 52 84 L 44 84 C 41.9 84 39.8 83.2 38.3 81.7 C 36.8 80.2 36 78.1 36 76 L 36 20 C 36 17.9 36.8 15.8 38.3 14.3 C 39.8 12.8 41.9 12 44 12 Z  M 44 20 L 52 20 L 52 76 L 44 76 L 44 20 Z  M 76 44 L 84 44 C 86.1 44 88.2 44.8 89.7 46.3 C 91.2 47.8 92 49.9 92 52 L 92 76 C 92 78.1 91.2 80.2 89.7 81.7 C 88.2 83.2 86.1 84 84 84 L 76 84 C 73.9 84 71.8 83.2 70.3 81.7 C 68.8 80.2 68 78.1 68 76 L 68 52 C 68 49.9 68.8 47.8 70.3 46.3 C 71.8 44.8 73.9 44 76 44 Z  M 76 52 L 84 52 L 84 76 L 76 76 L 76 52 Z " fill-rule="evenodd" fill="#454545" stroke="none"/><mask id="_mask_jv9ryxUC0MHB9yk6xEngVPGI7DKO3xWz"><path d=" M 12 28 L 20 28 C 22.1 28 24.2 28.8 25.7 30.3 C 27.2 31.8 28 33.9 28 36 L 28 76 C 28 78.1 27.2 80.2 25.7 81.7 C 24.2 83.2 22.1 84 20 84 L 12 84 C 9.9 84 7.8 83.2 6.3 81.7 C 4.8 80.2 4 78.1 4 76 L 4 36 C 4 33.9 4.8 31.8 6.3 30.3 C 7.8 28.8 9.9 28 12 28 Z  M 12 36 L 20 36 L 20 76 L 12 76 L 12 36 Z  M 44 12 L 52 12 C 54.1 12 56.2 12.8 57.7 14.3 C 59.2 15.8 60 17.9 60 20 L 60 76 C 60 78.1 59.2 80.2 57.7 81.7 C 56.2 83.2 54.1 84 52 84 L 44 84 C 41.9 84 39.8 83.2 38.3 81.7 C 36.8 80.2 36 78.1 36 76 L 36 20 C 36 17.9 36.8 15.8 38.3 14.3 C 39.8 12.8 41.9 12 44 12 Z  M 44 20 L 52 20 L 52 76 L 44 76 L 44 20 Z  M 76 44 L 84 44 C 86.1 44 88.2 44.8 89.7 46.3 C 91.2 47.8 92 49.9 92 52 L 92 76 C 92 78.1 91.2 80.2 89.7 81.7 C 88.2 83.2 86.1 84 84 84 L 76 84 C 73.9 84 71.8 83.2 70.3 81.7 C 68.8 80.2 68 78.1 68 76 L 68 52 C 68 49.9 68.8 47.8 70.3 46.3 C 71.8 44.8 73.9 44 76 44 Z  M 76 52 L 84 52 L 84 76 L 76 76 L 76 52 Z " fill-rule="evenodd" fill="white" stroke="none"/></mask><path d=" M 12 28 L 20 28 C 22.1 28 24.2 28.8 25.7 30.3 C 27.2 31.8 28 33.9 28 36 L 28 76 C 28 78.1 27.2 80.2 25.7 81.7 C 24.2 83.2 22.1 84 20 84 L 12 84 C 9.9 84 7.8 83.2 6.3 81.7 C 4.8 80.2 4 78.1 4 76 L 4 36 C 4 33.9 4.8 31.8 6.3 30.3 C 7.8 28.8 9.9 28 12 28 Z  M 12 36 L 20 36 L 20 76 L 12 76 L 12 36 Z  M 44 12 L 52 12 C 54.1 12 56.2 12.8 57.7 14.3 C 59.2 15.8 60 17.9 60 20 L 60 76 C 60 78.1 59.2 80.2 57.7 81.7 C 56.2 83.2 54.1 84 52 84 L 44 84 C 41.9 84 39.8 83.2 38.3 81.7 C 36.8 80.2 36 78.1 36 76 L 36 20 C 36 17.9 36.8 15.8 38.3 14.3 C 39.8 12.8 41.9 12 44 12 Z  M 44 20 L 52 20 L 52 76 L 44 76 L 44 20 Z  M 76 44 L 84 44 C 86.1 44 88.2 44.8 89.7 46.3 C 91.2 47.8 92 49.9 92 52 L 92 76 C 92 78.1 91.2 80.2 89.7 81.7 C 88.2 83.2 86.1 84 84 84 L 76 84 C 73.9 84 71.8 83.2 70.3 81.7 C 68.8 80.2 68 78.1 68 76 L 68 52 C 68 49.9 68.8 47.8 70.3 46.3 C 71.8 44.8 73.9 44 76 44 Z  M 76 52 L 84 52 L 84 76 L 76 76 L 76 52 Z " fill-rule="evenodd" fill="none" stroke="none" stroke-width="16" mask="url(#_mask_jv9ryxUC0MHB9yk6xEngVPGI7DKO3xWz)"/></svg>