<svg xmlns="http://www.w3.org/2000/svg" style="isolation:isolate" width="96" height="96"><path d="M36 48h24c2.1 0 4.2.8 5.7 2.3 1.5 1.5 2.3 3.6 2.3 5.7v8c0 2.1-.8 4.2-2.3 5.7-1.5 1.5-3.6 2.3-5.7 2.3H36c-2.1 0-4.2-.8-5.7-2.3-1.5-1.5-2.3-3.6-2.3-5.7v-8c0-2.1.8-4.2 2.3-5.7 1.5-1.5 3.6-2.3 5.7-2.3zm0 8h24v8H36v-8zm40-16.767a9.46 9.46 0 0 1-1.9-1.033c-.8-.6-1.5-1.2-2.1-1.8-.6.6-1.3 1.2-2.1 1.8-1.7 1.2-3.8 1.8-5.9 1.8-2.1 0-4.2-.6-5.9-1.8-.8-.6-1.5-1.2-2.1-1.8-.6.6-1.3 1.2-2.1 1.8-1.7 1.2-3.8 1.8-5.9 1.8-2.1 0-4.2-.6-5.9-1.8-.8-.6-1.5-1.2-2.1-1.8-.6.6-1.3 1.2-2.1 1.8-1.7 1.2-3.8 1.8-5.9 1.8-2.1 0-4.2-.6-5.9-1.8-.8-.6-1.5-1.2-2.1-1.8-.6.6-1.3 1.2-2.1 1.8a9.46 9.46 0 0 1-1.9 1.033V80h56V39.233zm8 0a9.46 9.46 0 0 0 1.9-1.033c1.8-1.3 3.2-2.9 4.1-4.9.1-.3 1.1-3.064 1.1-5.1q0-2.036-1.1-5.1l-4.6-9.3C83.6 10.2 80 8 76 8H20c-4 0-7.6 2.2-9.4 5.8L6 23.1q-1.1 3.064-1.1 5.1c0 2.036 1 4.8 1.1 5.1.9 2 2.3 3.6 4.1 4.9a9.46 9.46 0 0 0 1.9 1.033V80c0 2.1.8 4.2 2.3 5.7 1.5 1.5 3.6 2.3 5.7 2.3h56c2.1 0 4.2-.8 5.7-2.3 1.5-1.5 2.3-3.6 2.3-5.7V39.233zM17.8 17.4l-4.2 8.3q-1.16 3.203-.1 4.7c.67.945 1.342 1.597 2.5 1.6 1.234.004 2.3-1.3 2.6-1.8.8-2.3 3-3.9 5.4-4.1 2.4.2 4.6 1.8 5.4 4.1.3.5 1.366 1.8 2.6 1.8s2.3-1.3 2.6-1.8c.8-2.3 3-3.9 5.4-4.1 2.4.2 4.6 1.8 5.4 4.1.3.5 1.366 1.8 2.6 1.8s2.3-1.3 2.6-1.8c.8-2.3 3-3.9 5.4-4.1 2.4.2 4.6 1.8 5.4 4.1.3.5 1.366 1.8 2.6 1.8s2.3-1.3 2.6-1.8c.8-2.3 3-3.9 5.4-4.1 2.4.2 4.6 1.8 5.4 4.1.3.5 1.366 1.804 2.6 1.8 1.158-.003 1.83-.655 2.5-1.6q1.06-1.497-.1-4.7l-4.2-8.3c-.4-.9-1.3-1.4-2.2-1.4H20c-.9 0-1.8.5-2.2 1.4z" fill-rule="evenodd"/></svg>