<svg xmlns="http://www.w3.org/2000/svg" style="isolation:isolate" width="96" height="96"><path d="M28 84h40V40c0-1.9.7-3.8 2.1-5.2 1.3-1.4 3.2-2.2 5.1-2.2q.2 0 5.7.8c.3 0 .6-.2.7-.6l5.2-14.6L71.2 12h-9.3c-2 2.2-4.3 4.2-6.8 5.8C53 19.2 50.5 20 48 20s-5-.8-7.1-2.2c-2.5-1.6-4.8-3.6-6.8-5.8h-9.3L9.2 18.2l5.2 14.6c.1.4.4.6.7.6q5.5-.8 5.7-.8c1.9 0 3.8.8 5.1 2.2 1.4 1.4 2.1 3.3 2.1 5.2v44zm48-43.3q4.6.7 4.7.7c3.7 0 7.1-2.3 8.4-5.8l5.4-14.8q.4-2.2.4-2.4c0-3.3-2-6.3-5.1-7.6L72.8 4H60c-1.2 0-2.4.6-3.1 1.5-1.8 2.2-3.9 4.1-6.2 5.7-.8.5-1.7.8-2.7.8-1 0-1.9-.3-2.7-.8-2.3-1.6-4.4-3.5-6.2-5.7C38.4 4.6 37.2 4 36 4H23.2l-17 6.8c-3.1 1.3-5.1 4.3-5.1 7.6q0 .2.4 2.4l5.4 14.8c1.3 3.5 4.7 5.8 8.4 5.8q.1 0 4.7-.7V84c0 2.1.8 4.2 2.3 5.7 1.5 1.5 3.6 2.3 5.7 2.3h40c2.1 0 4.2-.8 5.7-2.3 1.5-1.5 2.3-3.6 2.3-5.7V40.7z" fill-rule="evenodd"/></svg>