<svg xmlns="http://www.w3.org/2000/svg" width="96" height="96"><path d="M19.1 30.7l2.1 1.6c1 .7 2.456 1.104 4.1 1q.879-.056 2.2-.5 1.3-.1 1.4-.1c1.9 0 3.7.8 5.1 2.2 1.3 1.4 2 3.2 2 5.1v32h24V40c0-1.9.7-3.7 2-5.1 1.4-1.4 3.2-2.2 5.1-2.2q.1 0 1.4.1 1.9.5 3.1.5c1.2 0 2.2-.3 3.2-1l2.1-1.6-4.9-5c-1.1-1.1-2.5-1.7-4-1.7h-8c-2 0-4 .5-5.8 1.4l-1.3.6q-2.948 1-4.9 1-1.952 0-4.9-1l-1.3-.6C40 24.5 38 24 36 24h-8c-1.5 0-2.9.6-4 1.7l-4.9 5zM28 40.9V72c0 2.1.8 4.2 2.3 5.7 1.5 1.5 3.6 2.3 5.7 2.3h24c2.1 0 4.2-.8 5.7-2.3 1.5-1.5 2.3-3.6 2.3-5.7V40.9l1.5.3q1.7.1 1.8.1c3 .1 5.8-.8 8.2-2.5q.1-.1 2.8-2.2c1.8-1.4 2.9-3.5 3-5.9 0-.5-.2-1.1-.4-1.6q-.723-2.017-1.4-3.2-1.604-2.802-5.8-5.9c-2.6-2.6-6.1-4-9.7-4h-8c-3.3 0-6.5.8-9.4 2.2q-1.55.7-2.6.7t-2.6-.7C42.5 16.8 39.3 16 36 16h-8c-3.6 0-7.1 1.4-9.7 4q-4.196 3.098-5.8 5.9-.677 1.183-1.4 3.2c-.2.5-.4 1.1-.4 1.6.1 2.4 1.2 4.5 3 5.9q2.7 2.1 2.8 2.2c2.4 1.7 5.2 2.6 8.2 2.5q.1 0 1.8-.1l1.5-.3z" fill-rule="evenodd" fill="#454545"/></svg>