<?xml version="1.0" standalone="no"?><!-- Generator: Gravit.io --><svg xmlns="http://www.w3.org/2000/svg" xmlns:xlink="http://www.w3.org/1999/xlink" width="96" height="96"><path d=" M 84 11.7 L 84 84.3 C 84 86.3 83.2 88.3 81.7 89.7 C 80.3 91.2 78.3 92 76.3 92 L 19.7 92 C 17.7 92 15.7 91.2 14.3 89.7 C 12.8 88.3 12 86.3 12 84.3 L 12 11.7 C 12 9.7 12.8 7.7 14.3 6.3 C 15.7 4.8 17.7 4 19.7 4 L 76.3 4 C 78.3 4 80.3 4.8 81.7 6.3 C 83.2 7.7 84 9.7 84 11.7 Z  M 76 12 L 76 84 L 20 84 L 20 12 L 76 12 Z  M 44 74 C 44 71.79233988198995 45.792339881989946 70 48 70 C 50.20766011801005 70 52 71.79233988198995 52 74 C 52 76.20766011801005 50.207660118010054 78 48 78 C 45.79233988198995 78 44 76.20766011801005 44 74 Z " fill-rule="evenodd" fill="#454545" stroke="none"/><mask id="_mask_YrdmKzvjVbhSqEMaBgT9VHPxOS72sJOh"><path d=" M 84 11.7 L 84 84.3 C 84 86.3 83.2 88.3 81.7 89.7 C 80.3 91.2 78.3 92 76.3 92 L 19.7 92 C 17.7 92 15.7 91.2 14.3 89.7 C 12.8 88.3 12 86.3 12 84.3 L 12 11.7 C 12 9.7 12.8 7.7 14.3 6.3 C 15.7 4.8 17.7 4 19.7 4 L 76.3 4 C 78.3 4 80.3 4.8 81.7 6.3 C 83.2 7.7 84 9.7 84 11.7 Z  M 76 12 L 76 84 L 20 84 L 20 12 L 76 12 Z  M 44 74 C 44 71.79233988198995 45.792339881989946 70 48 70 C 50.20766011801005 70 52 71.79233988198995 52 74 C 52 76.20766011801005 50.207660118010054 78 48 78 C 45.79233988198995 78 44 76.20766011801005 44 74 Z " fill-rule="evenodd" fill="white" stroke="none"/></mask><path d=" M 84 11.7 L 84 84.3 C 84 86.3 83.2 88.3 81.7 89.7 C 80.3 91.2 78.3 92 76.3 92 L 19.7 92 C 17.7 92 15.7 91.2 14.3 89.7 C 12.8 88.3 12 86.3 12 84.3 L 12 11.7 C 12 9.7 12.8 7.7 14.3 6.3 C 15.7 4.8 17.7 4 19.7 4 L 76.3 4 C 78.3 4 80.3 4.8 81.7 6.3 C 83.2 7.7 84 9.7 84 11.7 Z  M 76 12 L 76 84 L 20 84 L 20 12 L 76 12 Z  M 44 74 C 44 71.79233988198995 45.792339881989946 70 48 70 C 50.20766011801005 70 52 71.79233988198995 52 74 C 52 76.20766011801005 50.207660118010054 78 48 78 C 45.79233988198995 78 44 76.20766011801005 44 74 Z " fill-rule="evenodd" fill="none" stroke="none" stroke-width="16" mask="url(#_mask_YrdmKzvjVbhSqEMaBgT9VHPxOS72sJOh)"/></svg>