<svg xmlns="http://www.w3.org/2000/svg" width="96" height="96"><path d="M76 8H52c-1.5 0-2.9.6-4 1.7L13.7 44 40 70.3 74.3 36c1.1-1.1 1.7-2.5 1.7-4V8zm0-8H52c-3.6 0-7.1 1.4-9.7 4L8 38.3c-1.5 1.5-2.3 3.6-2.3 5.7s.8 4.2 2.3 5.7L34.3 76c1.5 1.5 3.6 2.3 5.7 2.3s4.2-.8 5.7-2.3L80 41.7c2.6-2.6 4-6.1 4-9.7V8c0-2.1-.8-4.2-2.3-5.7C80.2.8 78.1 0 76 0zM60 20c0-2.208 1.792-4 4-4s4 1.792 4 4-1.792 4-4 4-4-1.792-4-4zM5.2 64.5c-.8-.7-1.2-1.7-1.2-2.8 0-1.1.4-2.1 1.2-2.8.7-.8 1.7-1.2 2.8-1.2 1.1 0 2.1.4 2.8 1.2L40 88l43.2-43.1c.7-.8 1.7-1.2 2.8-1.2 1.1 0 2.1.4 2.8 1.2.8.7 1.2 1.7 1.2 2.8 0 1.1-.4 2.1-1.2 2.8L45.7 93.7C44.2 95.2 42.1 96 40 96s-4.2-.8-5.7-2.3L5.2 64.5z" fill-rule="evenodd" fill="#454545"/></svg>