<svg xmlns="http://www.w3.org/2000/svg" width="96" height="96"><path d="M48 8c-1.4 0-2.8.2-4.2.5-.7.1-2.312.72-3.1 1.9q-.439.657-.7 1.9V56c0 1.1-.4 2.1-1.2 2.9-2.2 2.1-4 4.7-5.3 7.5-1 2-1.5 4.3-1.5 6.5.2 3.9 1.9 7.5 4.7 10.1 3 3.1 7 4.9 11.3 5 4.3-.1 8.3-1.9 11.3-4.9 2.8-2.6 4.5-6.3 4.7-10.2 0-2.3-.5-4.6-1.5-6.6-1.3-2.8-3.1-5.3-5.3-7.4-.8-.8-1.2-1.8-1.2-2.9V12.3c-.1-.7-.261-1.243-.7-1.9-.788-1.18-2.4-1.8-3.1-1.9-1.4-.3-2.8-.5-4.2-.5zm0-8c-2 0-4 .2-5.9.6-1.5.4-3 1-4.3 1.8-1.6.9-2.9 2.2-3.9 3.8-1 1.6-1.6 3.4-1.9 5.3v42.9c-2.3 2.5-4.3 5.4-5.8 8.6-1.4 3.1-2.2 6.6-2.2 10.1.2 6 2.8 11.6 7.2 15.7 4.4 4.5 10.5 7.1 16.8 7.2 6.3-.1 12.4-2.7 16.8-7.2 4.4-4 7-9.7 7.2-15.7 0-3.6-.8-7.1-2.3-10.3-1.4-3.1-3.4-5.9-5.7-8.4V11.5c-.3-1.9-.9-3.7-1.9-5.3-.9-1.5-2.3-2.9-3.8-3.8-1.4-.8-2.8-1.4-4.4-1.8C52 .2 50 0 48 0z" fill-rule="evenodd" fill="#454545"/></svg>