<?xml version="1.0" standalone="no"?><!-- Generator: Gravit.io --><svg xmlns="http://www.w3.org/2000/svg" xmlns:xlink="http://www.w3.org/1999/xlink" width="96" height="96"><path d=" M 48 8 C 46.6 8 45.2 8.2 43.8 8.5 C 43.1 8.6 41.4877313596919 9.219765817485841 40.7 10.4 Q 40.26131343317962 11.057270876931577 40 12.3 L 40 56 C 40 57.1 39.6 58.1 38.8 58.9 C 36.6 61 34.8 63.6 33.5 66.4 C 32.5 68.4 32 70.7 32 72.9 C 32.2 76.8 33.9 80.4 36.7 83 C 39.7 86.1 43.7 87.9 48 88 C 52.3 87.9 56.3 86.1 59.3 83.1 C 62.1 80.5 63.8 76.8 64 72.9 C 64 70.6 63.5 68.3 62.5 66.3 C 61.2 63.5 59.4 61 57.2 58.9 C 56.4 58.1 56 57.1 56 56 L 56 12.3 C 55.9 11.6 55.738686566820384 11.057270876931575 55.3 10.4 C 54.51226864030809 9.219765817485843 52.9 8.6 52.2 8.5 C 50.8 8.2 49.4 8 48 8 Z  M 48 0 C 46 0 44 0.2 42.1 0.6 C 40.6 1 39.1 1.6 37.8 2.4 C 36.2 3.3 34.9 4.6 33.9 6.2 C 32.9 7.8 32.3 9.6 32 11.5 Q 32 11.7 32 54.4 C 29.7 56.9 27.7 59.8 26.2 63 C 24.8 66.1 24 69.6 24 73.1 C 24.2 79.1 26.8 84.7 31.2 88.8 C 35.6 93.3 41.7 95.9 48 96 C 54.3 95.9 60.4 93.3 64.8 88.8 C 69.2 84.8 71.8 79.1 72 73.1 C 72 69.5 71.2 66 69.7 62.8 C 68.3 59.7 66.3 56.9 64 54.4 Q 64 11.7 64 11.5 C 63.7 9.6 63.1 7.8 62.1 6.2 C 61.2 4.7 59.8 3.3 58.3 2.4 C 56.9 1.6 55.5 1 53.9 0.6 C 52 0.2 50 0 48 0 Z " fill-rule="evenodd" fill="#454545" stroke="none"/><mask id="_mask_UCeOLm7teOjW2j9as1gfknmjHYTTP8u4"><path d=" M 48 8 C 46.6 8 45.2 8.2 43.8 8.5 C 43.1 8.6 41.4877313596919 9.219765817485841 40.7 10.4 Q 40.26131343317962 11.057270876931577 40 12.3 L 40 56 C 40 57.1 39.6 58.1 38.8 58.9 C 36.6 61 34.8 63.6 33.5 66.4 C 32.5 68.4 32 70.7 32 72.9 C 32.2 76.8 33.9 80.4 36.7 83 C 39.7 86.1 43.7 87.9 48 88 C 52.3 87.9 56.3 86.1 59.3 83.1 C 62.1 80.5 63.8 76.8 64 72.9 C 64 70.6 63.5 68.3 62.5 66.3 C 61.2 63.5 59.4 61 57.2 58.9 C 56.4 58.1 56 57.1 56 56 L 56 12.3 C 55.9 11.6 55.738686566820384 11.057270876931575 55.3 10.4 C 54.51226864030809 9.219765817485843 52.9 8.6 52.2 8.5 C 50.8 8.2 49.4 8 48 8 Z  M 48 0 C 46 0 44 0.2 42.1 0.6 C 40.6 1 39.1 1.6 37.8 2.4 C 36.2 3.3 34.9 4.6 33.9 6.2 C 32.9 7.8 32.3 9.6 32 11.5 Q 32 11.7 32 54.4 C 29.7 56.9 27.7 59.8 26.2 63 C 24.8 66.1 24 69.6 24 73.1 C 24.2 79.1 26.8 84.7 31.2 88.8 C 35.6 93.3 41.7 95.9 48 96 C 54.3 95.9 60.4 93.3 64.8 88.8 C 69.2 84.8 71.8 79.1 72 73.1 C 72 69.5 71.2 66 69.7 62.8 C 68.3 59.7 66.3 56.9 64 54.4 Q 64 11.7 64 11.5 C 63.7 9.6 63.1 7.8 62.1 6.2 C 61.2 4.7 59.8 3.3 58.3 2.4 C 56.9 1.6 55.5 1 53.9 0.6 C 52 0.2 50 0 48 0 Z " fill-rule="evenodd" fill="white" stroke="none"/></mask><path d=" M 48 8 C 46.6 8 45.2 8.2 43.8 8.5 C 43.1 8.6 41.4877313596919 9.219765817485841 40.7 10.4 Q 40.26131343317962 11.057270876931577 40 12.3 L 40 56 C 40 57.1 39.6 58.1 38.8 58.9 C 36.6 61 34.8 63.6 33.5 66.4 C 32.5 68.4 32 70.7 32 72.9 C 32.2 76.8 33.9 80.4 36.7 83 C 39.7 86.1 43.7 87.9 48 88 C 52.3 87.9 56.3 86.1 59.3 83.1 C 62.1 80.5 63.8 76.8 64 72.9 C 64 70.6 63.5 68.3 62.5 66.3 C 61.2 63.5 59.4 61 57.2 58.9 C 56.4 58.1 56 57.1 56 56 L 56 12.3 C 55.9 11.6 55.738686566820384 11.057270876931575 55.3 10.4 C 54.51226864030809 9.219765817485843 52.9 8.6 52.2 8.5 C 50.8 8.2 49.4 8 48 8 Z  M 48 0 C 46 0 44 0.2 42.1 0.6 C 40.6 1 39.1 1.6 37.8 2.4 C 36.2 3.3 34.9 4.6 33.9 6.2 C 32.9 7.8 32.3 9.6 32 11.5 Q 32 11.7 32 54.4 C 29.7 56.9 27.7 59.8 26.2 63 C 24.8 66.1 24 69.6 24 73.1 C 24.2 79.1 26.8 84.7 31.2 88.8 C 35.6 93.3 41.7 95.9 48 96 C 54.3 95.9 60.4 93.3 64.8 88.8 C 69.2 84.8 71.8 79.1 72 73.1 C 72 69.5 71.2 66 69.7 62.8 C 68.3 59.7 66.3 56.9 64 54.4 Q 64 11.7 64 11.5 C 63.7 9.6 63.1 7.8 62.1 6.2 C 61.2 4.7 59.8 3.3 58.3 2.4 C 56.9 1.6 55.5 1 53.9 0.6 C 52 0.2 50 0 48 0 Z " fill-rule="evenodd" fill="none" stroke="none" stroke-width="16" mask="url(#_mask_UCeOLm7teOjW2j9as1gfknmjHYTTP8u4)"/></svg>