<svg xmlns="http://www.w3.org/2000/svg" style="isolation:isolate" width="96" height="96"><path d="M12.495 66.869c.165.019.334.029.505.029h14.52l4.88 9.8c.5.9 1.3 1.7 2.3 2 1 .3 2.1.3 3.1-.2.9-.5 1.7-1.3 2-2.3.3-1 .3-2.1-.2-3.1l-14.1-28.2c-.9-2.3-3.1-3.8-5.5-3.9-2.4.1-4.6 1.6-5.5 3.9L.4 73.098c-.5 1-.5 2.1-.2 3.1s1.1 1.8 2 2.3c1 .5 2.1.5 3.1.2s1.8-1.1 2.3-2l4.895-9.83zm3.97-7.971h7.07L20 51.798l-3.536 7.1zm46.95-4.04c.19.027 16.98.027 17.17 0l7.615 21.34c.4 1 1.1 1.9 2.1 2.3.9.5 2 .5 3 .2 1-.4 1.9-1.1 2.3-2.1.5-.9.5-2 .2-3l-18.6-51.9c-.5-2.6-2.6-4.4-5.2-4.6-2.6.2-4.7 2-5.2 4.6l-18.6 51.9c-.3 1-.3 2.1.2 3 .4 1 1.3 1.7 2.3 2.1 1 .3 2.1.3 3-.2 1-.4 1.7-1.3 2.1-2.3l7.614-21.34zm2.84-7.96h11.49L72 30.798l-5.745 16.1z" fill-rule="evenodd"/></svg>