<svg xmlns="http://www.w3.org/2000/svg" width="96" height="96"><path d="M84.2 46.351l.2-3.7.3-3.6-.1-1.8-1.8-6.7-.9-3-.6-3.8c-.2-2.3-.7-4.7-1.7-6.9-1.3-2.3-3.4-4.3-5.8-5.6l-1.4-1-1.1-.9c-2.2-2.1-5-3.5-8-3.6-3.1.3-6.1 1.2-8.9 2.5-6.9 2.8-14 4.7-21.3 5.7-2.3.2-4.5.4-6.8.4s-4.7-.1-7-.3h-.6c-2.1 0-4 .9-5.5 2.3-1.4 1.4-2.2 3.4-2.2 5.4v27.7c0 2.1.8 4.1 2.3 5.5 1.4 1.5 3.4 2.3 5.5 2.3h.4c.4 0 .8 0 1.2.1 1.1.2 2.1.5 3.2.9 2.4.7 4.6 2 6.4 3.8 1.9 2.3 3.4 4.9 4.3 7.8.9 2.4 1.5 4.9 1.8 7.5l.3 2.3 1.6 5.3v.3c1 2.6 3.4 4.5 6.2 4.9 3.4.3 6.7-.8 9.3-3 1.8-2.2 2.6-5 2.4-7.8v-.8l-.8-5.1-1-7.2c0-1.8.5-3.6 1.3-5.3.1-.1.2-.2.4-.2 7.2-.8 14.4-.8 21.6-.2h.2l.4.1h.1c1.8 0 3.5-.7 4.8-1.9 1.3-1.3 2.1-3 2.1-4.8q0-.2-.1-1.4c0-.1-.2-1.2-.3-1.6-.1-1.5-.3-3-.4-4.6zm-7.4 6.1q-.1-.2-.6-6.7l.3-3.7.2-3.5-1.6-5.7-1.1-3.5q-.7-4.8-.7-5c-.1-1.3-.4-2.6-.8-3.8-.7-1-2.8-2.4-2.9-2.5l-2-1.3q-1.9-1.6-2-1.7c-.6-.7-1.4-1.1-2.3-1.3-1.9.3-3.8.9-5.6 1.8-7.6 3.1-15.6 5.3-23.7 6.4-2.5.2-5.1.4-7.6.4s-4.9-.1-7.4-.3q-.1 0 0 0-.1 27.2 0 27.2c1 0 1.9.1 2.9.2 1.4.3 2.8.7 4.2 1.2 3.7 1.1 7.1 3.2 9.8 6.1 2.6 3 4.6 6.6 5.9 10.4 1.2 3 1.9 6.1 2.3 9.3l.2 1.6 1.2 4.2c.8-.1 1.5-.3 2.1-.7.3-.5.4-1 .3-1.5v-.9l-.7-4.5-1-7.6c0-.2-.1-.3-.1-.5 0-3.1.7-6.2 2.1-9.1 1.3-2.6 3.8-4.4 6.8-4.7 7.2-.7 14.5-.8 21.8-.3zm-31.3 29.8" fill-rule="evenodd" fill="#454545"/></svg>