<?xml version="1.0" standalone="no"?><!-- Generator: Gravit.io --><svg xmlns="http://www.w3.org/2000/svg" xmlns:xlink="http://www.w3.org/1999/xlink" width="96" height="96"><path d=" M 75.2 48 L 78.9 50.5 C 82.1 52.6 84 56.2 84 60 L 84 68 C 84 70.1 83.2 72.2 81.7 73.7 C 80.2 75.2 78.1 76 76 76 L 20 76 C 17.9 76 15.8 75.2 14.3 73.7 C 12.8 72.2 12 70.1 12 68 L 12 60 C 12 56.2 13.9 52.6 17.1 50.5 L 20.8 48 L 17.1 45.5 C 13.9 43.4 12 39.8 12 36 L 12 28 C 12 25.9 12.8 23.8 14.3 22.3 C 15.8 20.8 17.9 20 20 20 L 76 20 C 78.1 20 80.2 20.8 81.7 22.3 C 83.2 23.8 84 25.9 84 28 L 84 36 C 84 39.8 82.1 43.4 78.9 45.5 L 75.2 48 Z  M 20 28 L 76 28 L 76 36 C 76 37.2 75.4 38.2 74.5 38.9 L 69.2 42.4 C 67.2 43.6 66 45.7 65.9 48 C 66 50.3 67.2 52.4 69.2 53.6 L 74.5 57.1 C 75.4 57.8 76 58.8 76 60 L 76 68 L 20 68 L 20 60 C 20 58.8 20.6 57.8 21.5 57.1 L 26.8 53.6 C 28.8 52.4 30 50.3 30.1 48 C 30 45.7 28.8 43.6 26.8 42.4 L 21.5 38.9 C 20.6 38.2 20 37.2 20 36 L 20 28 Z " fill-rule="evenodd" fill="#454545" stroke="none"/><mask id="_mask_wlhtsSWFX0N2lI9zzcrLAUHH54CzlI8l"><path d=" M 75.2 48 L 78.9 50.5 C 82.1 52.6 84 56.2 84 60 L 84 68 C 84 70.1 83.2 72.2 81.7 73.7 C 80.2 75.2 78.1 76 76 76 L 20 76 C 17.9 76 15.8 75.2 14.3 73.7 C 12.8 72.2 12 70.1 12 68 L 12 60 C 12 56.2 13.9 52.6 17.1 50.5 L 20.8 48 L 17.1 45.5 C 13.9 43.4 12 39.8 12 36 L 12 28 C 12 25.9 12.8 23.8 14.3 22.3 C 15.8 20.8 17.9 20 20 20 L 76 20 C 78.1 20 80.2 20.8 81.7 22.3 C 83.2 23.8 84 25.9 84 28 L 84 36 C 84 39.8 82.1 43.4 78.9 45.5 L 75.2 48 Z  M 20 28 L 76 28 L 76 36 C 76 37.2 75.4 38.2 74.5 38.9 L 69.2 42.4 C 67.2 43.6 66 45.7 65.9 48 C 66 50.3 67.2 52.4 69.2 53.6 L 74.5 57.1 C 75.4 57.8 76 58.8 76 60 L 76 68 L 20 68 L 20 60 C 20 58.8 20.6 57.8 21.5 57.1 L 26.8 53.6 C 28.8 52.4 30 50.3 30.1 48 C 30 45.7 28.8 43.6 26.8 42.4 L 21.5 38.9 C 20.6 38.2 20 37.2 20 36 L 20 28 Z " fill-rule="evenodd" fill="white" stroke="none"/></mask><path d=" M 75.2 48 L 78.9 50.5 C 82.1 52.6 84 56.2 84 60 L 84 68 C 84 70.1 83.2 72.2 81.7 73.7 C 80.2 75.2 78.1 76 76 76 L 20 76 C 17.9 76 15.8 75.2 14.3 73.7 C 12.8 72.2 12 70.1 12 68 L 12 60 C 12 56.2 13.9 52.6 17.1 50.5 L 20.8 48 L 17.1 45.5 C 13.9 43.4 12 39.8 12 36 L 12 28 C 12 25.9 12.8 23.8 14.3 22.3 C 15.8 20.8 17.9 20 20 20 L 76 20 C 78.1 20 80.2 20.8 81.7 22.3 C 83.2 23.8 84 25.9 84 28 L 84 36 C 84 39.8 82.1 43.4 78.9 45.5 L 75.2 48 Z  M 20 28 L 76 28 L 76 36 C 76 37.2 75.4 38.2 74.5 38.9 L 69.2 42.4 C 67.2 43.6 66 45.7 65.9 48 C 66 50.3 67.2 52.4 69.2 53.6 L 74.5 57.1 C 75.4 57.8 76 58.8 76 60 L 76 68 L 20 68 L 20 60 C 20 58.8 20.6 57.8 21.5 57.1 L 26.8 53.6 C 28.8 52.4 30 50.3 30.1 48 C 30 45.7 28.8 43.6 26.8 42.4 L 21.5 38.9 C 20.6 38.2 20 37.2 20 36 L 20 28 Z " fill-rule="evenodd" fill="none" stroke="none" stroke-width="16" mask="url(#_mask_wlhtsSWFX0N2lI9zzcrLAUHH54CzlI8l)"/></svg>