<svg xmlns="http://www.w3.org/2000/svg" width="96" height="96"><path d="M75.2 48l3.7 2.5c3.2 2.1 5.1 5.7 5.1 9.5v8c0 2.1-.8 4.2-2.3 5.7-1.5 1.5-3.6 2.3-5.7 2.3H20c-2.1 0-4.2-.8-5.7-2.3-1.5-1.5-2.3-3.6-2.3-5.7v-8c0-3.8 1.9-7.4 5.1-9.5l3.7-2.5-3.7-2.5C13.9 43.4 12 39.8 12 36v-8c0-2.1.8-4.2 2.3-5.7 1.5-1.5 3.6-2.3 5.7-2.3h56c2.1 0 4.2.8 5.7 2.3 1.5 1.5 2.3 3.6 2.3 5.7v8c0 3.8-1.9 7.4-5.1 9.5L75.2 48zM20 28h56v8c0 1.2-.6 2.2-1.5 2.9l-5.3 3.5c-2 1.2-3.2 3.3-3.3 5.6.1 2.3 1.3 4.4 3.3 5.6l5.3 3.5c.9.7 1.5 1.7 1.5 2.9v8H20v-8c0-1.2.6-2.2 1.5-2.9l5.3-3.5c2-1.2 3.2-3.3 3.3-5.6-.1-2.3-1.3-4.4-3.3-5.6l-5.3-3.5c-.9-.7-1.5-1.7-1.5-2.9v-8z" fill-rule="evenodd" fill="#454545"/></svg>