<svg xmlns="http://www.w3.org/2000/svg" style="isolation:isolate" width="96" height="96"><path d="M68 20H28c-7.4 0-14.5 3-19.8 8.2C3 33.5 0 40.6 0 48s3 14.5 8.2 19.8C13.5 73 20.6 76 28 76h40c7.4 0 14.5-3 19.8-8.2C93 62.5 96 55.4 96 48s-3-14.5-8.2-19.8C82.5 23 75.4 20 68 20zm0 8H28c-5.3 0-10.4 2.1-14.1 5.9C10.1 37.6 8 42.7 8 48c0 5.3 2.1 10.4 5.9 14.1C17.6 65.9 22.7 68 28 68h40c5.3 0 10.4-2.1 14.1-5.9C85.9 58.4 88 53.3 88 48c0-5.3-2.1-10.4-5.9-14.1C78.4 30.1 73.3 28 68 28zm16 20c0-4.2-1.7-8.3-4.7-11.3S72.2 32 68 32c-4.2 0-8.3 1.7-11.3 4.7S52 43.8 52 48c0 4.2 1.7 8.3 4.7 11.3S63.8 64 68 64c4.2 0 8.3-1.7 11.3-4.7S84 52.2 84 48zm-8 0c0-2.1-.8-4.2-2.3-5.7-1.5-1.5-3.6-2.3-5.7-2.3s-4.2.8-5.7 2.3C60.8 43.8 60 45.9 60 48s.8 4.2 2.3 5.7c1.5 1.5 3.6 2.3 5.7 2.3s4.2-.8 5.7-2.3c1.5-1.5 2.3-3.6 2.3-5.7z" fill-rule="evenodd"/></svg>