<svg xmlns="http://www.w3.org/2000/svg" style="isolation:isolate" width="96" height="96"><path d="M65.469 12a25.205 25.205 0 0 0-1.779 4.1c-2.6 7.7-3.9 15.8-3.7 23.9q-.027 1.086 0 44h-48V40c0-4.3.5-8.5 1.4-12.7 1.1-4.8 2.6-9.5 4.6-14 .4-.8 1.2-1.3 2-1.3h45.479zm10.99-7.976c2.912.23 5.527 1.698 7.331 3.976 2 2.4 3.5 5.1 4.5 8.1 2.6 7.7 3.9 15.8 3.7 23.9.2 8.1-1.1 16.2-3.7 23.9-1 3-2.5 5.7-4.5 8.1-1.9 2.4-4.7 3.9-7.8 4-3.1-.1-6.1-1.6-8-4q-.067-.08 0 12c0 2.1-.8 4.2-2.3 5.7-1.5 1.5-3.6 2.3-5.7 2.3h-48c-2.1 0-4.2-.8-5.7-2.3-1.5-1.5-2.3-3.6-2.3-5.7V40c0-4.9.5-9.7 1.6-14.5 1.2-5.3 2.9-10.5 5.1-15.5 1.6-3.6 5.3-6 9.3-6q56.315.008 56.47.024zM67.99 43.361c.17 6.145 1.27 12.185 3.3 17.939.7 2.1 1.8 4 3.2 5.7.3.5.9.9 1.5 1 .6-.1 1.2-.5 1.5-1 1.4-1.7 2.5-3.6 3.2-5.7 2.4-6.8 3.5-14 3.3-21.3.2-7.3-.9-14.5-3.3-21.3-.7-2.1-1.8-4-3.2-5.7-.3-.5-.9-.9-1.5-1-.6.1-1.2.5-1.5 1-1.4 1.7-2.5 3.6-3.2 5.7-2.4 6.8-3.5 14.1-3.3 21.3v3.361zm4-7.361c0-1.1.4-2.1 1.2-2.8.7-.8 1.7-1.2 2.8-1.2 1.1 0 2.1.4 2.8 1.2.8.7 1.2 1.7 1.2 2.8v8c0 1.1-.4 2.1-1.2 2.8-.7.8-1.7 1.2-2.8 1.2-1.1 0-2.1-.4-2.8-1.2-.8-.7-1.2-1.7-1.2-2.8v-8z" fill-rule="evenodd"/></svg>