<svg xmlns="http://www.w3.org/2000/svg" style="isolation:isolate" width="96" height="96"><path d="M70.334 59.665L83.6 86.198c.5 1 .5 2.1.2 3.1s-1.1 1.8-2 2.3c-1 .5-2.1.5-3.1.2s-1.8-1.1-2.3-2l-.9-1.8h-55l-.9 1.8c-.5.9-1.3 1.7-2.3 2-1 .3-2.1.3-3.1-.2-.9-.5-1.7-1.3-2-2.3-.3-1-.3-2.1.2-3.1l13.266-26.533a7.86 7.86 0 0 1-3.366-1.967c-1.5-1.5-2.3-3.6-2.3-5.7v-40c0-2.1.8-4.2 2.3-5.7 1.5-1.5 3.6-2.3 5.7-2.3h40c2.1 0 4.2.8 5.7 2.3 1.5 1.5 2.3 3.6 2.3 5.7v40c0 2.1-.8 4.2-2.3 5.7a7.86 7.86 0 0 1-3.366 1.967zM28 51.998v-40h4v16c0 2.1.8 4.2 2.3 5.7 1.5 1.5 3.6 2.3 5.7 2.3h16c2.1 0 4.2-.8 5.7-2.3 1.5-1.5 2.3-3.6 2.3-5.7v-16h4v40H28zm33.5 8l2 4h-31l2-4h27zm-5.5-16c0 2.207 1.792 4 4 4s4-1.793 4-4c0-2.208-1.792-4-4-4s-4 1.792-4 4zm-24 0c0 2.207 1.792 4 4 4s4-1.793 4-4c0-2.208-1.792-4-4-4s-4 1.792-4 4zm39.5 36l-4-8h-39l-4 8h47zm-31.5-68v16h16v-16H40z" fill-rule="evenodd"/></svg>