<svg xmlns="http://www.w3.org/2000/svg" width="96" height="96"><path d="M23.913 35.008H20c-2.1 0-4.2.8-5.7 2.3-1.5 1.5-2.3 3.6-2.3 5.7v40c0 2.1.8 4.2 2.3 5.7 1.5 1.5 3.6 2.3 5.7 2.3h56c2.1 0 4.2-.8 5.7-2.3 1.5-1.5 2.3-3.6 2.3-5.7v-40c0-2.1-.8-4.2-2.3-5.7-1.5-1.5-3.6-2.3-5.7-2.3H31.93c-.09-5.445 1.134-10.91 3.67-15.8 2.7-4.1 7.5-6.4 12.4-6.2 5-.3 9.8 2.2 12.6 6.4.5.9 1.4 1.5 2.5 1.7 1 .2 2.1 0 3-.5.9-.6 1.5-1.5 1.7-2.6.2-1 0-2.1-.5-3-4.3-6.4-11.6-10.3-19.3-10-7.8-.3-15.2 3.6-19.4 10.2a42.188 42.188 0 0 0-4.687 19.8zm-3.913 8v40h56v-40H20zm16 24c0-3.2.7-6.4 2-9.3.9-2 2.3-3.6 4.1-4.9 1.7-1.2 3.8-1.8 5.9-1.8 2.1 0 4.2.6 5.9 1.8 1.8 1.3 3.2 2.9 4.1 4.9 1.3 2.9 2 6.1 2 9.3 0 2.1-.8 4.2-2.3 5.7-1.5 1.5-3.6 2.3-5.7 2.3h-8c-2.1 0-4.2-.8-5.7-2.3-1.5-1.5-2.3-3.6-2.3-5.7zm8 0c0-2.1.4-4.1 1.3-6 .3-.6.7-1.2 1.3-1.6.4-.2.9-.4 1.4-.4.5 0 1 .2 1.4.4.6.4 1 1 1.3 1.6.9 1.9 1.3 3.9 1.3 6h-8z" fill-rule="evenodd" fill="#454545"/></svg>