<?xml version="1.0" standalone="no"?><!-- Generator: Gravit.io --><svg xmlns="http://www.w3.org/2000/svg" xmlns:xlink="http://www.w3.org/1999/xlink" width="96" height="96"><path d=" M 75 79.40000557754635 Q 73.7 76.00000557754635 72.8 74.70000557754635 C 71.9 73.40000557754635 70.8 72.20000557754635 69.6 71.20000557754635 Q 67.8 69.90000557754635 62.6 67.70000557754635 C 62.6 67.70000557754635 62.5 67.70000557754635 62.5 67.70000557754635 C 57.9 65.80000557754634 53 64.80000557754634 48 64.70000557754635 C 43 64.80000557754634 38.1 65.80000557754634 33.5 67.70000557754635 C 33.5 67.70000557754635 33.4 67.70000557754635 33.4 67.70000557754635 Q 28.2 69.90000557754635 26.4 71.20000557754635 C 25.2 72.20000557754635 24.1 73.40000557754635 23.2 74.70000557754635 Q 22.3 76.00000557754635 21 79.40000557754635 C 26 80.90000557754635 31 82.10000557754634 36.1 83.00000557754635 C 40.1 83.70000557754635 44 84.00000557754635 48 84.00000557754635 C 52 84.00000557754635 55.9 83.70000557754635 59.9 83.00000557754635 C 65 82.10000557754634 70 80.90000557754635 75 79.40000557754635 Z  M 65.5 60.300005577546344 C 59.9 58.00000557754635 54 56.800005577546344 48 56.70000557754635 C 42 56.800005577546344 36.1 58.00000557754635 30.5 60.300005577546344 Q 24 63.00000557754635 21.6 64.80000557754634 C 19.6 66.40000557754635 17.9 68.20000557754635 16.6 70.20000557754635 C 15.2 72.30000557754634 14.1 74.60000557754634 13.3 77.00000557754635 C 13.3 77.20000557754635 13 79.10000557754634 13 79.30000557754634 C 13 82.80000557754634 15.3 86.00000557754635 18.6 87.00000557754635 C 23.9 88.70000557754635 29.3 89.90000557754635 34.8 90.90000557754635 C 39.1 91.60000557754634 43.6 92.00000557754635 48 92.00000557754635 C 52.4 92.00000557754635 56.9 91.60000557754634 61.2 90.90000557754635 C 66.7 89.90000557754635 72.1 88.70000557754635 77.4 87.00000557754635 C 80.7 86.00000557754635 83 82.80000557754634 83 79.30000557754634 C 83 79.10000557754634 82.7 77.20000557754635 82.7 77.00000557754635 C 81.9 74.60000557754634 80.8 72.30000557754634 79.4 70.20000557754635 C 78.1 68.20000557754635 76.4 66.40000557754635 74.4 64.80000557754634 Q 72 63.00000557754635 65.5 60.300005577546344 Z  M 28 28.100005577546348 C 27.536289852045847 20.55562608209153 27.975747242309005 14.764050704009115 33.4 9.500005577546347 C 37.769422259060654 5.25963607860411 41.91127551258289 4.004304631115236 48 4.000005577546347 C 53.988340161756 3.995777402138292 58.04238785366553 5.192518249204916 62.4 9.300005577546347 C 67.97078961229775 14.551034575300747 68.46117186619128 20.458387754756743 68 28.100005577546348 C 67.58307724539306 35.00841562138334 65.1 39.800005577546344 61.5 44.60000557754635 C 58.1 49.10000557754635 53.7 51.900005577546345 48 52.00000557754635 C 42.3 51.900005577546345 37.9 49.10000557754635 34.5 44.60000557754635 C 30.9 39.800005577546344 28.42459200796055 35.00794850897484 28 28.100005577546348 Z  M 36 27.900005577546345 C 35.57206744948186 22.357481017295886 35.42256288542167 17.494737987586497 39.9 14.200005577546346 C 42.538329115126466 12.258585023440283 44.724482821846465 11.97031545712585 48 12.000005577546347 C 51.38278953223834 12.03066804185556 53.647690680830394 12.400134038240928 56.3 14.500005577546347 C 60.55351851100358 17.867577526492937 60.41515065964791 22.49069781364753 60 27.900005577546345 C 59.618431446201555 32.87174702262099 57.7 36.300005577546344 55.1 39.70000557754635 C 53.2 42.300005577546344 51.2 43.900005577546345 48 44.00000557754635 C 44.8 43.900005577546345 42.8 42.300005577546344 40.9 39.70000557754635 C 38.3 36.300005577546344 36.38384942434212 32.871571445293945 36 27.900005577546345 Z " fill-rule="evenodd" fill="#454545" stroke="none"/><mask id="_mask_FPEzr2cZsuSQdFFcrYjO7u5BZPgLGUw0"><path d=" M 75 79.40000557754635 Q 73.7 76.00000557754635 72.8 74.70000557754635 C 71.9 73.40000557754635 70.8 72.20000557754635 69.6 71.20000557754635 Q 67.8 69.90000557754635 62.6 67.70000557754635 C 62.6 67.70000557754635 62.5 67.70000557754635 62.5 67.70000557754635 C 57.9 65.80000557754634 53 64.80000557754634 48 64.70000557754635 C 43 64.80000557754634 38.1 65.80000557754634 33.5 67.70000557754635 C 33.5 67.70000557754635 33.4 67.70000557754635 33.4 67.70000557754635 Q 28.2 69.90000557754635 26.4 71.20000557754635 C 25.2 72.20000557754635 24.1 73.40000557754635 23.2 74.70000557754635 Q 22.3 76.00000557754635 21 79.40000557754635 C 26 80.90000557754635 31 82.10000557754634 36.1 83.00000557754635 C 40.1 83.70000557754635 44 84.00000557754635 48 84.00000557754635 C 52 84.00000557754635 55.9 83.70000557754635 59.9 83.00000557754635 C 65 82.10000557754634 70 80.90000557754635 75 79.40000557754635 Z  M 65.5 60.300005577546344 C 59.9 58.00000557754635 54 56.800005577546344 48 56.70000557754635 C 42 56.800005577546344 36.1 58.00000557754635 30.5 60.300005577546344 Q 24 63.00000557754635 21.6 64.80000557754634 C 19.6 66.40000557754635 17.9 68.20000557754635 16.6 70.20000557754635 C 15.2 72.30000557754634 14.1 74.60000557754634 13.3 77.00000557754635 C 13.3 77.20000557754635 13 79.10000557754634 13 79.30000557754634 C 13 82.80000557754634 15.3 86.00000557754635 18.6 87.00000557754635 C 23.9 88.70000557754635 29.3 89.90000557754635 34.8 90.90000557754635 C 39.1 91.60000557754634 43.6 92.00000557754635 48 92.00000557754635 C 52.4 92.00000557754635 56.9 91.60000557754634 61.2 90.90000557754635 C 66.7 89.90000557754635 72.1 88.70000557754635 77.4 87.00000557754635 C 80.7 86.00000557754635 83 82.80000557754634 83 79.30000557754634 C 83 79.10000557754634 82.7 77.20000557754635 82.7 77.00000557754635 C 81.9 74.60000557754634 80.8 72.30000557754634 79.4 70.20000557754635 C 78.1 68.20000557754635 76.4 66.40000557754635 74.4 64.80000557754634 Q 72 63.00000557754635 65.5 60.300005577546344 Z  M 28 28.100005577546348 C 27.536289852045847 20.55562608209153 27.975747242309005 14.764050704009115 33.4 9.500005577546347 C 37.769422259060654 5.25963607860411 41.91127551258289 4.004304631115236 48 4.000005577546347 C 53.988340161756 3.995777402138292 58.04238785366553 5.192518249204916 62.4 9.300005577546347 C 67.97078961229775 14.551034575300747 68.46117186619128 20.458387754756743 68 28.100005577546348 C 67.58307724539306 35.00841562138334 65.1 39.800005577546344 61.5 44.60000557754635 C 58.1 49.10000557754635 53.7 51.900005577546345 48 52.00000557754635 C 42.3 51.900005577546345 37.9 49.10000557754635 34.5 44.60000557754635 C 30.9 39.800005577546344 28.42459200796055 35.00794850897484 28 28.100005577546348 Z  M 36 27.900005577546345 C 35.57206744948186 22.357481017295886 35.42256288542167 17.494737987586497 39.9 14.200005577546346 C 42.538329115126466 12.258585023440283 44.724482821846465 11.97031545712585 48 12.000005577546347 C 51.38278953223834 12.03066804185556 53.647690680830394 12.400134038240928 56.3 14.500005577546347 C 60.55351851100358 17.867577526492937 60.41515065964791 22.49069781364753 60 27.900005577546345 C 59.618431446201555 32.87174702262099 57.7 36.300005577546344 55.1 39.70000557754635 C 53.2 42.300005577546344 51.2 43.900005577546345 48 44.00000557754635 C 44.8 43.900005577546345 42.8 42.300005577546344 40.9 39.70000557754635 C 38.3 36.300005577546344 36.38384942434212 32.871571445293945 36 27.900005577546345 Z " fill-rule="evenodd" fill="white" stroke="none"/></mask><path d=" M 75 79.40000557754635 Q 73.7 76.00000557754635 72.8 74.70000557754635 C 71.9 73.40000557754635 70.8 72.20000557754635 69.6 71.20000557754635 Q 67.8 69.90000557754635 62.6 67.70000557754635 C 62.6 67.70000557754635 62.5 67.70000557754635 62.5 67.70000557754635 C 57.9 65.80000557754634 53 64.80000557754634 48 64.70000557754635 C 43 64.80000557754634 38.1 65.80000557754634 33.5 67.70000557754635 C 33.5 67.70000557754635 33.4 67.70000557754635 33.4 67.70000557754635 Q 28.2 69.90000557754635 26.4 71.20000557754635 C 25.2 72.20000557754635 24.1 73.40000557754635 23.2 74.70000557754635 Q 22.3 76.00000557754635 21 79.40000557754635 C 26 80.90000557754635 31 82.10000557754634 36.1 83.00000557754635 C 40.1 83.70000557754635 44 84.00000557754635 48 84.00000557754635 C 52 84.00000557754635 55.9 83.70000557754635 59.9 83.00000557754635 C 65 82.10000557754634 70 80.90000557754635 75 79.40000557754635 Z  M 65.5 60.300005577546344 C 59.9 58.00000557754635 54 56.800005577546344 48 56.70000557754635 C 42 56.800005577546344 36.1 58.00000557754635 30.5 60.300005577546344 Q 24 63.00000557754635 21.6 64.80000557754634 C 19.6 66.40000557754635 17.9 68.20000557754635 16.6 70.20000557754635 C 15.2 72.30000557754634 14.1 74.60000557754634 13.3 77.00000557754635 C 13.3 77.20000557754635 13 79.10000557754634 13 79.30000557754634 C 13 82.80000557754634 15.3 86.00000557754635 18.6 87.00000557754635 C 23.9 88.70000557754635 29.3 89.90000557754635 34.8 90.90000557754635 C 39.1 91.60000557754634 43.6 92.00000557754635 48 92.00000557754635 C 52.4 92.00000557754635 56.9 91.60000557754634 61.2 90.90000557754635 C 66.7 89.90000557754635 72.1 88.70000557754635 77.4 87.00000557754635 C 80.7 86.00000557754635 83 82.80000557754634 83 79.30000557754634 C 83 79.10000557754634 82.7 77.20000557754635 82.7 77.00000557754635 C 81.9 74.60000557754634 80.8 72.30000557754634 79.4 70.20000557754635 C 78.1 68.20000557754635 76.4 66.40000557754635 74.4 64.80000557754634 Q 72 63.00000557754635 65.5 60.300005577546344 Z  M 28 28.100005577546348 C 27.536289852045847 20.55562608209153 27.975747242309005 14.764050704009115 33.4 9.500005577546347 C 37.769422259060654 5.25963607860411 41.91127551258289 4.004304631115236 48 4.000005577546347 C 53.988340161756 3.995777402138292 58.04238785366553 5.192518249204916 62.4 9.300005577546347 C 67.97078961229775 14.551034575300747 68.46117186619128 20.458387754756743 68 28.100005577546348 C 67.58307724539306 35.00841562138334 65.1 39.800005577546344 61.5 44.60000557754635 C 58.1 49.10000557754635 53.7 51.900005577546345 48 52.00000557754635 C 42.3 51.900005577546345 37.9 49.10000557754635 34.5 44.60000557754635 C 30.9 39.800005577546344 28.42459200796055 35.00794850897484 28 28.100005577546348 Z  M 36 27.900005577546345 C 35.57206744948186 22.357481017295886 35.42256288542167 17.494737987586497 39.9 14.200005577546346 C 42.538329115126466 12.258585023440283 44.724482821846465 11.97031545712585 48 12.000005577546347 C 51.38278953223834 12.03066804185556 53.647690680830394 12.400134038240928 56.3 14.500005577546347 C 60.55351851100358 17.867577526492937 60.41515065964791 22.49069781364753 60 27.900005577546345 C 59.618431446201555 32.87174702262099 57.7 36.300005577546344 55.1 39.70000557754635 C 53.2 42.300005577546344 51.2 43.900005577546345 48 44.00000557754635 C 44.8 43.900005577546345 42.8 42.300005577546344 40.9 39.70000557754635 C 38.3 36.300005577546344 36.38384942434212 32.871571445293945 36 27.900005577546345 Z " fill-rule="evenodd" fill="none" stroke="none" stroke-width="16" mask="url(#_mask_FPEzr2cZsuSQdFFcrYjO7u5BZPgLGUw0)"/></svg>