<?xml version="1.0" standalone="no"?><!-- Generator: Gravit.io --><svg xmlns="http://www.w3.org/2000/svg" xmlns:xlink="http://www.w3.org/1999/xlink" width="96" height="96"><path d=" M 88 12 C 89.1 12 90.1 12.4 90.8 13.2 C 91.6 13.9 92 14.9 92 16 C 92 17.1 91.6 18.1 90.8 18.8 C 90.1 19.6 89.1 20 88 20 L 72 20 C 70.9 20 69.9 19.6 69.2 18.8 C 68.4 18.1 68 17.1 68 16 C 68 14.9 68.4 13.9 69.2 13.2 C 69.9 12.4 70.9 12 72 12 L 88 12 Z  M 62 79.40000557754635 Q 60.7 76.00000557754635 59.8 74.70000557754635 C 58.900000000000006 73.40000557754635 57.8 72.20000557754635 56.599999999999994 71.20000557754635 Q 54.8 69.90000557754635 49.6 67.70000557754635 C 49.6 67.70000557754635 49.5 67.70000557754635 49.5 67.70000557754635 C 44.9 65.80000557754634 40 64.80000557754634 35 64.70000557754635 C 30 64.80000557754634 25.1 65.80000557754634 20.5 67.70000557754635 C 20.5 67.70000557754635 20.4 67.70000557754635 20.4 67.70000557754635 Q 15.2 69.90000557754635 13.399999999999999 71.20000557754635 C 12.2 72.20000557754635 11.100000000000001 73.40000557754635 10.2 74.70000557754635 Q 9.3 76.00000557754635 8 79.40000557754635 C 13 80.90000557754635 18 82.10000557754634 23.1 83.00000557754635 C 27.1 83.70000557754635 31 84.00000557754635 35 84.00000557754635 C 39 84.00000557754635 42.9 83.70000557754635 46.9 83.00000557754635 C 52 82.10000557754634 57 80.90000557754635 62 79.40000557754635 Z  M 52.5 60.300005577546344 C 46.9 58.00000557754635 41 56.800005577546344 35 56.70000557754635 C 29 56.800005577546344 23.1 58.00000557754635 17.5 60.300005577546344 Q 11 63.00000557754635 8.600000000000001 64.80000557754634 C 6.600000000000001 66.40000557754635 4.899999999999999 68.20000557754635 3.6000000000000014 70.20000557754635 C 2.1999999999999993 72.30000557754634 1.0999999999999996 74.60000557754634 0.3000000000000007 77.00000557754635 C 0.3000000000000007 77.20000557754635 0 79.10000557754634 0 79.30000557754634 C 0 82.80000557754634 2.3000000000000007 86.00000557754635 5.600000000000001 87.00000557754635 C 10.899999999999999 88.70000557754635 16.3 89.90000557754635 21.799999999999997 90.90000557754635 C 26.1 91.60000557754634 30.6 92.00000557754635 35 92.00000557754635 C 39.4 92.00000557754635 43.9 91.60000557754634 48.2 90.90000557754635 C 53.7 89.90000557754635 59.099999999999994 88.70000557754635 64.4 87.00000557754635 C 67.7 86.00000557754635 70 82.80000557754634 70 79.30000557754634 C 70 79.10000557754634 69.7 77.20000557754635 69.7 77.00000557754635 C 68.9 74.60000557754634 67.8 72.30000557754634 66.4 70.20000557754635 C 65.1 68.20000557754635 63.400000000000006 66.40000557754635 61.400000000000006 64.80000557754634 Q 59 63.00000557754635 52.5 60.300005577546344 Z  M 15 28.100005577546348 C 14.536289852045847 20.55562608209153 14.975747242309005 14.764050704009115 20.4 9.500005577546347 C 24.769422259060654 5.25963607860411 28.91127551258289 4.004304631115236 35 4.000005577546347 C 40.988340161756 3.995777402138292 45.04238785366553 5.192518249204916 49.4 9.300005577546347 C 54.97078961229775 14.551034575300747 55.46117186619128 20.458387754756743 55 28.100005577546348 C 54.583077245393056 35.00841562138334 52.099999999999994 39.800005577546344 48.5 44.60000557754635 C 45.1 49.10000557754635 40.7 51.900005577546345 35 52.00000557754635 C 29.299999999999997 51.900005577546345 24.9 49.10000557754635 21.5 44.60000557754635 C 17.9 39.800005577546344 15.424592007960548 35.00794850897484 15 28.100005577546348 Z  M 23 27.900005577546345 C 22.572067449481857 22.357481017295886 22.42256288542167 17.494737987586497 26.9 14.200005577546346 C 29.538329115126466 12.258585023440283 31.724482821846465 11.97031545712585 35 12.000005577546347 C 38.38278953223834 12.03066804185556 40.647690680830394 12.400134038240928 43.3 14.500005577546347 C 47.55351851100358 17.867577526492937 47.41515065964791 22.49069781364753 47 27.900005577546345 C 46.618431446201555 32.87174702262099 44.7 36.300005577546344 42.1 39.70000557754635 C 40.2 42.300005577546344 38.2 43.900005577546345 35 44.00000557754635 C 31.799999999999997 43.900005577546345 29.799999999999997 42.300005577546344 27.9 39.70000557754635 C 25.299999999999997 36.300005577546344 23.383849424342117 32.871571445293945 23 27.900005577546345 Z " fill-rule="evenodd" fill="#454545" stroke="none"/><mask id="_mask_OAI7HMkX3rA9cr1YczsEwhl0Vo0NpGys"><path d=" M 88 12 C 89.1 12 90.1 12.4 90.8 13.2 C 91.6 13.9 92 14.9 92 16 C 92 17.1 91.6 18.1 90.8 18.8 C 90.1 19.6 89.1 20 88 20 L 72 20 C 70.9 20 69.9 19.6 69.2 18.8 C 68.4 18.1 68 17.1 68 16 C 68 14.9 68.4 13.9 69.2 13.2 C 69.9 12.4 70.9 12 72 12 L 88 12 Z  M 62 79.40000557754635 Q 60.7 76.00000557754635 59.8 74.70000557754635 C 58.900000000000006 73.40000557754635 57.8 72.20000557754635 56.599999999999994 71.20000557754635 Q 54.8 69.90000557754635 49.6 67.70000557754635 C 49.6 67.70000557754635 49.5 67.70000557754635 49.5 67.70000557754635 C 44.9 65.80000557754634 40 64.80000557754634 35 64.70000557754635 C 30 64.80000557754634 25.1 65.80000557754634 20.5 67.70000557754635 C 20.5 67.70000557754635 20.4 67.70000557754635 20.4 67.70000557754635 Q 15.2 69.90000557754635 13.399999999999999 71.20000557754635 C 12.2 72.20000557754635 11.100000000000001 73.40000557754635 10.2 74.70000557754635 Q 9.3 76.00000557754635 8 79.40000557754635 C 13 80.90000557754635 18 82.10000557754634 23.1 83.00000557754635 C 27.1 83.70000557754635 31 84.00000557754635 35 84.00000557754635 C 39 84.00000557754635 42.9 83.70000557754635 46.9 83.00000557754635 C 52 82.10000557754634 57 80.90000557754635 62 79.40000557754635 Z  M 52.5 60.300005577546344 C 46.9 58.00000557754635 41 56.800005577546344 35 56.70000557754635 C 29 56.800005577546344 23.1 58.00000557754635 17.5 60.300005577546344 Q 11 63.00000557754635 8.600000000000001 64.80000557754634 C 6.600000000000001 66.40000557754635 4.899999999999999 68.20000557754635 3.6000000000000014 70.20000557754635 C 2.1999999999999993 72.30000557754634 1.0999999999999996 74.60000557754634 0.3000000000000007 77.00000557754635 C 0.3000000000000007 77.20000557754635 0 79.10000557754634 0 79.30000557754634 C 0 82.80000557754634 2.3000000000000007 86.00000557754635 5.600000000000001 87.00000557754635 C 10.899999999999999 88.70000557754635 16.3 89.90000557754635 21.799999999999997 90.90000557754635 C 26.1 91.60000557754634 30.6 92.00000557754635 35 92.00000557754635 C 39.4 92.00000557754635 43.9 91.60000557754634 48.2 90.90000557754635 C 53.7 89.90000557754635 59.099999999999994 88.70000557754635 64.4 87.00000557754635 C 67.7 86.00000557754635 70 82.80000557754634 70 79.30000557754634 C 70 79.10000557754634 69.7 77.20000557754635 69.7 77.00000557754635 C 68.9 74.60000557754634 67.8 72.30000557754634 66.4 70.20000557754635 C 65.1 68.20000557754635 63.400000000000006 66.40000557754635 61.400000000000006 64.80000557754634 Q 59 63.00000557754635 52.5 60.300005577546344 Z  M 15 28.100005577546348 C 14.536289852045847 20.55562608209153 14.975747242309005 14.764050704009115 20.4 9.500005577546347 C 24.769422259060654 5.25963607860411 28.91127551258289 4.004304631115236 35 4.000005577546347 C 40.988340161756 3.995777402138292 45.04238785366553 5.192518249204916 49.4 9.300005577546347 C 54.97078961229775 14.551034575300747 55.46117186619128 20.458387754756743 55 28.100005577546348 C 54.583077245393056 35.00841562138334 52.099999999999994 39.800005577546344 48.5 44.60000557754635 C 45.1 49.10000557754635 40.7 51.900005577546345 35 52.00000557754635 C 29.299999999999997 51.900005577546345 24.9 49.10000557754635 21.5 44.60000557754635 C 17.9 39.800005577546344 15.424592007960548 35.00794850897484 15 28.100005577546348 Z  M 23 27.900005577546345 C 22.572067449481857 22.357481017295886 22.42256288542167 17.494737987586497 26.9 14.200005577546346 C 29.538329115126466 12.258585023440283 31.724482821846465 11.97031545712585 35 12.000005577546347 C 38.38278953223834 12.03066804185556 40.647690680830394 12.400134038240928 43.3 14.500005577546347 C 47.55351851100358 17.867577526492937 47.41515065964791 22.49069781364753 47 27.900005577546345 C 46.618431446201555 32.87174702262099 44.7 36.300005577546344 42.1 39.70000557754635 C 40.2 42.300005577546344 38.2 43.900005577546345 35 44.00000557754635 C 31.799999999999997 43.900005577546345 29.799999999999997 42.300005577546344 27.9 39.70000557754635 C 25.299999999999997 36.300005577546344 23.383849424342117 32.871571445293945 23 27.900005577546345 Z " fill-rule="evenodd" fill="white" stroke="none"/></mask><path d=" M 88 12 C 89.1 12 90.1 12.4 90.8 13.2 C 91.6 13.9 92 14.9 92 16 C 92 17.1 91.6 18.1 90.8 18.8 C 90.1 19.6 89.1 20 88 20 L 72 20 C 70.9 20 69.9 19.6 69.2 18.8 C 68.4 18.1 68 17.1 68 16 C 68 14.9 68.4 13.9 69.2 13.2 C 69.9 12.4 70.9 12 72 12 L 88 12 Z  M 62 79.40000557754635 Q 60.7 76.00000557754635 59.8 74.70000557754635 C 58.900000000000006 73.40000557754635 57.8 72.20000557754635 56.599999999999994 71.20000557754635 Q 54.8 69.90000557754635 49.6 67.70000557754635 C 49.6 67.70000557754635 49.5 67.70000557754635 49.5 67.70000557754635 C 44.9 65.80000557754634 40 64.80000557754634 35 64.70000557754635 C 30 64.80000557754634 25.1 65.80000557754634 20.5 67.70000557754635 C 20.5 67.70000557754635 20.4 67.70000557754635 20.4 67.70000557754635 Q 15.2 69.90000557754635 13.399999999999999 71.20000557754635 C 12.2 72.20000557754635 11.100000000000001 73.40000557754635 10.2 74.70000557754635 Q 9.3 76.00000557754635 8 79.40000557754635 C 13 80.90000557754635 18 82.10000557754634 23.1 83.00000557754635 C 27.1 83.70000557754635 31 84.00000557754635 35 84.00000557754635 C 39 84.00000557754635 42.9 83.70000557754635 46.9 83.00000557754635 C 52 82.10000557754634 57 80.90000557754635 62 79.40000557754635 Z  M 52.5 60.300005577546344 C 46.9 58.00000557754635 41 56.800005577546344 35 56.70000557754635 C 29 56.800005577546344 23.1 58.00000557754635 17.5 60.300005577546344 Q 11 63.00000557754635 8.600000000000001 64.80000557754634 C 6.600000000000001 66.40000557754635 4.899999999999999 68.20000557754635 3.6000000000000014 70.20000557754635 C 2.1999999999999993 72.30000557754634 1.0999999999999996 74.60000557754634 0.3000000000000007 77.00000557754635 C 0.3000000000000007 77.20000557754635 0 79.10000557754634 0 79.30000557754634 C 0 82.80000557754634 2.3000000000000007 86.00000557754635 5.600000000000001 87.00000557754635 C 10.899999999999999 88.70000557754635 16.3 89.90000557754635 21.799999999999997 90.90000557754635 C 26.1 91.60000557754634 30.6 92.00000557754635 35 92.00000557754635 C 39.4 92.00000557754635 43.9 91.60000557754634 48.2 90.90000557754635 C 53.7 89.90000557754635 59.099999999999994 88.70000557754635 64.4 87.00000557754635 C 67.7 86.00000557754635 70 82.80000557754634 70 79.30000557754634 C 70 79.10000557754634 69.7 77.20000557754635 69.7 77.00000557754635 C 68.9 74.60000557754634 67.8 72.30000557754634 66.4 70.20000557754635 C 65.1 68.20000557754635 63.400000000000006 66.40000557754635 61.400000000000006 64.80000557754634 Q 59 63.00000557754635 52.5 60.300005577546344 Z  M 15 28.100005577546348 C 14.536289852045847 20.55562608209153 14.975747242309005 14.764050704009115 20.4 9.500005577546347 C 24.769422259060654 5.25963607860411 28.91127551258289 4.004304631115236 35 4.000005577546347 C 40.988340161756 3.995777402138292 45.04238785366553 5.192518249204916 49.4 9.300005577546347 C 54.97078961229775 14.551034575300747 55.46117186619128 20.458387754756743 55 28.100005577546348 C 54.583077245393056 35.00841562138334 52.099999999999994 39.800005577546344 48.5 44.60000557754635 C 45.1 49.10000557754635 40.7 51.900005577546345 35 52.00000557754635 C 29.299999999999997 51.900005577546345 24.9 49.10000557754635 21.5 44.60000557754635 C 17.9 39.800005577546344 15.424592007960548 35.00794850897484 15 28.100005577546348 Z  M 23 27.900005577546345 C 22.572067449481857 22.357481017295886 22.42256288542167 17.494737987586497 26.9 14.200005577546346 C 29.538329115126466 12.258585023440283 31.724482821846465 11.97031545712585 35 12.000005577546347 C 38.38278953223834 12.03066804185556 40.647690680830394 12.400134038240928 43.3 14.500005577546347 C 47.55351851100358 17.867577526492937 47.41515065964791 22.49069781364753 47 27.900005577546345 C 46.618431446201555 32.87174702262099 44.7 36.300005577546344 42.1 39.70000557754635 C 40.2 42.300005577546344 38.2 43.900005577546345 35 44.00000557754635 C 31.799999999999997 43.900005577546345 29.799999999999997 42.300005577546344 27.9 39.70000557754635 C 25.299999999999997 36.300005577546344 23.383849424342117 32.871571445293945 23 27.900005577546345 Z " fill-rule="evenodd" fill="none" stroke="none" stroke-width="16" mask="url(#_mask_OAI7HMkX3rA9cr1YczsEwhl0Vo0NpGys)"/></svg>