<?xml version="1.0" standalone="no"?><!-- Generator: Gravit.io --><svg xmlns="http://www.w3.org/2000/svg" xmlns:xlink="http://www.w3.org/1999/xlink" width="96" height="96"><path d=" M 52 71.77528560783 L 52 80 L 56 80 C 57.1 80 58.1 80.4 58.8 81.2 C 59.6 81.9 60 82.9 60 84 C 60 85.1 59.6 86.1 58.8 86.8 C 58.1 87.6 57.1 88 56 88 L 52 88 L 52 92 C 52 93.1 51.6 94.1 50.8 94.8 C 50.1 95.6 49.1 96 48 96 C 46.9 96 45.9 95.6 45.2 94.8 C 44.4 94.1 44 93.1 44 92 L 44 88 L 40 88 C 38.9 88 37.9 87.6 37.2 86.8 C 36.4 86.1 36 85.1 36 84 C 36 82.9 36.4 81.9 37.2 81.2 C 37.9 80.4 38.9 80 40 80 L 44 80 L 44 71.77528560783 C 35.949986941923164 70.86916455018272 28.339923295442834 67.25404207050985 22.5 61.5 C 15.8 54.7 12 45.5 12 36 L 12 36 C 12 26.5 15.8 17.3 22.5 10.5 C 29.3 3.8 38.5 0 48 0 C 57.5 0 66.7 3.8 73.5 10.5 C 80.2 17.3 84 26.5 84 36 C 84 45.5 80.2 54.7 73.5 61.5 C 67.66007670455717 67.25404207050985 60.050013058076836 70.86916455018272 52 71.77528560783 Z  M 20 36 C 20 28.6 23 21.5 28.2 16.2 C 33.5 11 40.6 8 48 8 C 55.4 8 62.5 11 67.8 16.2 C 73 21.5 76 28.6 76 36 C 76 43.4 73 50.5 67.8 55.8 C 62.5 61 55.4 64 48 64 C 40.6 64 33.5 61 28.2 55.8 C 23 50.5 20 43.4 20 36 L 20 36 Z " fill-rule="evenodd" fill="#454545" stroke="none"/><mask id="_mask_NT9HlFVSk2SbqZQcDOPBinzQmIsLrYoo"><path d=" M 52 71.77528560783 L 52 80 L 56 80 C 57.1 80 58.1 80.4 58.8 81.2 C 59.6 81.9 60 82.9 60 84 C 60 85.1 59.6 86.1 58.8 86.8 C 58.1 87.6 57.1 88 56 88 L 52 88 L 52 92 C 52 93.1 51.6 94.1 50.8 94.8 C 50.1 95.6 49.1 96 48 96 C 46.9 96 45.9 95.6 45.2 94.8 C 44.4 94.1 44 93.1 44 92 L 44 88 L 40 88 C 38.9 88 37.9 87.6 37.2 86.8 C 36.4 86.1 36 85.1 36 84 C 36 82.9 36.4 81.9 37.2 81.2 C 37.9 80.4 38.9 80 40 80 L 44 80 L 44 71.77528560783 C 35.949986941923164 70.86916455018272 28.339923295442834 67.25404207050985 22.5 61.5 C 15.8 54.7 12 45.5 12 36 L 12 36 C 12 26.5 15.8 17.3 22.5 10.5 C 29.3 3.8 38.5 0 48 0 C 57.5 0 66.7 3.8 73.5 10.5 C 80.2 17.3 84 26.5 84 36 C 84 45.5 80.2 54.7 73.5 61.5 C 67.66007670455717 67.25404207050985 60.050013058076836 70.86916455018272 52 71.77528560783 Z  M 20 36 C 20 28.6 23 21.5 28.2 16.2 C 33.5 11 40.6 8 48 8 C 55.4 8 62.5 11 67.8 16.2 C 73 21.5 76 28.6 76 36 C 76 43.4 73 50.5 67.8 55.8 C 62.5 61 55.4 64 48 64 C 40.6 64 33.5 61 28.2 55.8 C 23 50.5 20 43.4 20 36 L 20 36 Z " fill-rule="evenodd" fill="white" stroke="none"/></mask><path d=" M 52 71.77528560783 L 52 80 L 56 80 C 57.1 80 58.1 80.4 58.8 81.2 C 59.6 81.9 60 82.9 60 84 C 60 85.1 59.6 86.1 58.8 86.8 C 58.1 87.6 57.1 88 56 88 L 52 88 L 52 92 C 52 93.1 51.6 94.1 50.8 94.8 C 50.1 95.6 49.1 96 48 96 C 46.9 96 45.9 95.6 45.2 94.8 C 44.4 94.1 44 93.1 44 92 L 44 88 L 40 88 C 38.9 88 37.9 87.6 37.2 86.8 C 36.4 86.1 36 85.1 36 84 C 36 82.9 36.4 81.9 37.2 81.2 C 37.9 80.4 38.9 80 40 80 L 44 80 L 44 71.77528560783 C 35.949986941923164 70.86916455018272 28.339923295442834 67.25404207050985 22.5 61.5 C 15.8 54.7 12 45.5 12 36 L 12 36 C 12 26.5 15.8 17.3 22.5 10.5 C 29.3 3.8 38.5 0 48 0 C 57.5 0 66.7 3.8 73.5 10.5 C 80.2 17.3 84 26.5 84 36 C 84 45.5 80.2 54.7 73.5 61.5 C 67.66007670455717 67.25404207050985 60.050013058076836 70.86916455018272 52 71.77528560783 Z  M 20 36 C 20 28.6 23 21.5 28.2 16.2 C 33.5 11 40.6 8 48 8 C 55.4 8 62.5 11 67.8 16.2 C 73 21.5 76 28.6 76 36 C 76 43.4 73 50.5 67.8 55.8 C 62.5 61 55.4 64 48 64 C 40.6 64 33.5 61 28.2 55.8 C 23 50.5 20 43.4 20 36 L 20 36 Z " fill-rule="evenodd" fill="none" stroke="none" stroke-width="16" mask="url(#_mask_NT9HlFVSk2SbqZQcDOPBinzQmIsLrYoo)"/></svg>