<svg xmlns="http://www.w3.org/2000/svg" width="96" height="96"><path d="M52 71.775V80h4c1.1 0 2.1.4 2.8 1.2.8.7 1.2 1.7 1.2 2.8 0 1.1-.4 2.1-1.2 2.8-.7.8-1.7 1.2-2.8 1.2h-4v4c0 1.1-.4 2.1-1.2 2.8-.7.8-1.7 1.2-2.8 1.2-1.1 0-2.1-.4-2.8-1.2-.8-.7-1.2-1.7-1.2-2.8v-4h-4c-1.1 0-2.1-.4-2.8-1.2-.8-.7-1.2-1.7-1.2-2.8 0-1.1.4-2.1 1.2-2.8.7-.8 1.7-1.2 2.8-1.2h4v-8.225c-8.05-.906-15.66-4.521-21.5-10.275C15.8 54.7 12 45.5 12 36s3.8-18.7 10.5-25.5C29.3 3.8 38.5 0 48 0s18.7 3.8 25.5 10.5C80.2 17.3 84 26.5 84 36s-3.8 18.7-10.5 25.5c-5.84 5.754-13.45 9.37-21.5 10.275zM20 36c0-7.4 3-14.5 8.2-19.8C33.5 11 40.6 8 48 8s14.5 3 19.8 8.2C73 21.5 76 28.6 76 36s-3 14.5-8.2 19.8C62.5 61 55.4 64 48 64s-14.5-3-19.8-8.2C23 50.5 20 43.4 20 36z" fill-rule="evenodd" fill="#454545"/></svg>