<svg xmlns="http://www.w3.org/2000/svg" style="isolation:isolate" width="96" height="96"><path d="M12 16h72c2.1 0 4.2.8 5.7 2.3 1.5 1.5 2.3 3.6 2.3 5.7v48c0 2.1-.8 4.2-2.3 5.7-1.5 1.5-3.6 2.3-5.7 2.3H12c-2.1 0-4.2-.8-5.7-2.3C4.8 76.2 4 74.1 4 72V24c0-2.1.8-4.2 2.3-5.7C7.8 16.8 9.9 16 12 16zm0 8h72v48H12V24zm33.835 32A15.992 15.992 0 0 0 48 48c0-4.2-1.7-8.3-4.7-11.3S36.2 32 32 32c-4.2 0-8.3 1.7-11.3 4.7S16 43.8 16 48c0 4.2 1.7 8.3 4.7 11.3S27.8 64 32 64h32c4.2 0 8.3-1.7 11.3-4.7S80 52.2 80 48c0-4.2-1.7-8.3-4.7-11.3S68.2 32 64 32c-4.2 0-8.3 1.7-11.3 4.7S48 43.8 48 48a16 16 0 0 0 2.165 8h-4.33zM24 48c0 2.1.8 4.2 2.3 5.7 1.5 1.5 3.6 2.3 5.7 2.3s4.2-.8 5.7-2.3c1.5-1.5 2.3-3.6 2.3-5.7s-.8-4.2-2.3-5.7C36.2 40.8 34.1 40 32 40s-4.2.8-5.7 2.3C24.8 43.8 24 45.9 24 48zm32 0c0 2.1.8 4.2 2.3 5.7 1.5 1.5 3.6 2.3 5.7 2.3s4.2-.8 5.7-2.3c1.5-1.5 2.3-3.6 2.3-5.7s-.8-4.2-2.3-5.7C68.2 40.8 66.1 40 64 40s-4.2.8-5.7 2.3C56.8 43.8 56 45.9 56 48z" fill-rule="evenodd"/></svg>