<?xml version="1.0" standalone="no"?><!-- Generator: Gravit.io --><svg xmlns="http://www.w3.org/2000/svg" xmlns:xlink="http://www.w3.org/1999/xlink" width="96" height="96"><path d=" M 75.98574881050902 12.3 L 75.98574881050902 83.7 C 76.28574881050902 86.8 74.18574881050903 89.6 71.18574881050903 90.2 C 70.38574881050903 90.3 69.58574881050902 90.3 68.88574881050903 90 L 66.78574881050902 89.1 L 40.78574881050902 69.6 C 39.38574881050902 68.6 37.685748810509025 68 35.98574881050902 68 L 27.985748810509023 68 C 25.88574881050902 68 23.785748810509023 67.2 22.285748810509023 65.7 C 20.785748810509023 64.2 19.985748810509023 62.1 19.985748810509023 60 L 19.985748810509023 36 C 19.985748810509023 33.9 20.785748810509023 31.8 22.285748810509023 30.3 C 23.785748810509023 28.8 25.88574881050902 28 27.985748810509023 28 L 35.98574881050902 28 C 37.685748810509025 28 39.38574881050902 27.4 40.78574881050902 26.4 L 66.78574881050902 6.9 L 68.88574881050903 6 C 69.58574881050902 5.7 70.38574881050903 5.7 71.18574881050903 5.8 C 74.18574881050903 6.4 76.28574881050902 9.2 75.98574881050902 12.3 Z  M 67.98574881050902 16 L 67.98574881050902 80 L 45.585748810509024 63.2 C 42.78574881050902 61.1 39.48574881050902 60 35.98574881050902 60 L 27.985748810509023 60 L 27.985748810509023 36 L 35.98574881050902 36 C 39.48574881050902 36 42.78574881050902 34.9 45.585748810509024 32.8 L 67.98574881050902 16 Z " fill-rule="evenodd" fill="#454545" stroke="none"/><mask id="_mask_AYBgxq6k0gjkmtoh3AcqkDovpD5i5tXT"><path d=" M 75.98574881050902 12.3 L 75.98574881050902 83.7 C 76.28574881050902 86.8 74.18574881050903 89.6 71.18574881050903 90.2 C 70.38574881050903 90.3 69.58574881050902 90.3 68.88574881050903 90 L 66.78574881050902 89.1 L 40.78574881050902 69.6 C 39.38574881050902 68.6 37.685748810509025 68 35.98574881050902 68 L 27.985748810509023 68 C 25.88574881050902 68 23.785748810509023 67.2 22.285748810509023 65.7 C 20.785748810509023 64.2 19.985748810509023 62.1 19.985748810509023 60 L 19.985748810509023 36 C 19.985748810509023 33.9 20.785748810509023 31.8 22.285748810509023 30.3 C 23.785748810509023 28.8 25.88574881050902 28 27.985748810509023 28 L 35.98574881050902 28 C 37.685748810509025 28 39.38574881050902 27.4 40.78574881050902 26.4 L 66.78574881050902 6.9 L 68.88574881050903 6 C 69.58574881050902 5.7 70.38574881050903 5.7 71.18574881050903 5.8 C 74.18574881050903 6.4 76.28574881050902 9.2 75.98574881050902 12.3 Z  M 67.98574881050902 16 L 67.98574881050902 80 L 45.585748810509024 63.2 C 42.78574881050902 61.1 39.48574881050902 60 35.98574881050902 60 L 27.985748810509023 60 L 27.985748810509023 36 L 35.98574881050902 36 C 39.48574881050902 36 42.78574881050902 34.9 45.585748810509024 32.8 L 67.98574881050902 16 Z " fill-rule="evenodd" fill="white" stroke="none"/></mask><path d=" M 75.98574881050902 12.3 L 75.98574881050902 83.7 C 76.28574881050902 86.8 74.18574881050903 89.6 71.18574881050903 90.2 C 70.38574881050903 90.3 69.58574881050902 90.3 68.88574881050903 90 L 66.78574881050902 89.1 L 40.78574881050902 69.6 C 39.38574881050902 68.6 37.685748810509025 68 35.98574881050902 68 L 27.985748810509023 68 C 25.88574881050902 68 23.785748810509023 67.2 22.285748810509023 65.7 C 20.785748810509023 64.2 19.985748810509023 62.1 19.985748810509023 60 L 19.985748810509023 36 C 19.985748810509023 33.9 20.785748810509023 31.8 22.285748810509023 30.3 C 23.785748810509023 28.8 25.88574881050902 28 27.985748810509023 28 L 35.98574881050902 28 C 37.685748810509025 28 39.38574881050902 27.4 40.78574881050902 26.4 L 66.78574881050902 6.9 L 68.88574881050903 6 C 69.58574881050902 5.7 70.38574881050903 5.7 71.18574881050903 5.8 C 74.18574881050903 6.4 76.28574881050902 9.2 75.98574881050902 12.3 Z  M 67.98574881050902 16 L 67.98574881050902 80 L 45.585748810509024 63.2 C 42.78574881050902 61.1 39.48574881050902 60 35.98574881050902 60 L 27.985748810509023 60 L 27.985748810509023 36 L 35.98574881050902 36 C 39.48574881050902 36 42.78574881050902 34.9 45.585748810509024 32.8 L 67.98574881050902 16 Z " fill-rule="evenodd" fill="none" stroke="none" stroke-width="16" mask="url(#_mask_AYBgxq6k0gjkmtoh3AcqkDovpD5i5tXT)"/></svg>