<svg xmlns="http://www.w3.org/2000/svg" width="96" height="96"><path d="M65.996 12.3v71.4c.3 3.1-1.8 5.9-4.8 6.5-.8.1-1.6.1-2.3-.2l-2.1-.9-26-19.5c-1.4-1-3.1-1.6-4.8-1.6h-8c-2.1 0-4.2-.8-5.7-2.3-1.5-1.5-2.3-3.6-2.3-5.7V36c0-2.1.8-4.2 2.3-5.7 1.5-1.5 3.6-2.3 5.7-2.3h8c1.7 0 3.4-.6 4.8-1.6l26-19.5 2.1-.9c.7-.3 1.5-.3 2.3-.2 3 .6 5.1 3.4 4.8 6.5zm-8 3.7v64l-22.4-16.8c-2.8-2.1-6.1-3.2-9.6-3.2h-8V36h8c3.5 0 6.8-1.1 9.6-3.2l22.4-16.8zm15.9 12.2c-1.1 0-2.2-.5-3-1.3-.7-.8-1.2-1.9-1.1-3 0-1.1.5-2.2 1.3-3 .8-.8 1.9-1.2 3-1.1 2.7.4 4.9 1.8 6.3 3.8 1.4 1.9 2.4 4 3.1 6.3 1.8 5.8 2.6 12 2.5 18.1.1 6.1-.7 12.3-2.5 18.1-.7 2.3-1.7 4.4-3.1 6.3-1.4 2-3.6 3.4-6 3.6-1.1.1-2.1-.2-2.9-.9-.9-.7-1.4-1.7-1.5-2.7-.1-1.1.3-2.1.9-3 .7-.8 1.7-1.3 2.7-1.4 1.2-1.4 1.8-2.8 2.2-4.2 1.6-5.1 2.3-10.4 2.2-15.8.1-5.4-.6-10.7-2.2-15.8-.4-1.4-1-2.8-1.9-4z" fill-rule="evenodd" fill="#454545"/></svg>