<svg xmlns="http://www.w3.org/2000/svg" style="isolation:isolate" width="96" height="96"><path d="M52 76V20L29.6 36.8C26.8 38.9 23.5 40 20 40h-8v16h8c3.5 0 6.8 1.1 9.6 3.2L52 76V20v56zM4 40v16c0 2.1.8 4.2 2.3 5.7C7.8 63.2 9.9 64 12 64h8c1.7 0 3.4.6 4.8 1.6l22.3 16.7c1.7 1.4 3.8 2.2 6 2.2 2.1-.2 4-1.3 5.3-2.9 1.3-1.7 1.9-3.8 1.6-5.9V20.3c.3-2.1-.3-4.2-1.6-5.9-1.3-1.6-3.2-2.7-5.3-2.9-2.2 0-4.3.8-6 2.2L24.8 30.4c-1.4 1-3.1 1.6-4.8 1.6h-8c-2.1 0-4.2.8-5.7 2.3C4.8 35.8 4 37.9 4 40zm60.5-6.1c-.5-.9-.6-2-.3-3.1.3-1 1-1.8 1.9-2.3.9-.5 2-.6 3.1-.3 1 .3 1.8 1 2.3 1.9 1.5 2.8 2.6 5.7 3.4 8.7.7 3 1.1 6.1 1.1 9.2 0 3.1-.4 6.2-1.1 9.2-.8 3-1.9 5.9-3.4 8.7-.5.9-1.3 1.6-2.3 1.9-1.1.3-2.2.2-3.1-.3-.9-.5-1.6-1.3-1.9-2.3-.3-1.1-.2-2.2.3-3.1 1.1-2.1 2-4.4 2.6-6.8.6-2.4.9-4.8.9-7.3s-.3-4.9-.9-7.3c-.6-2.4-1.5-4.7-2.6-6.8zm12.2-7.6c-.6-.9-.8-2-.6-3 .2-1.1.7-2 1.6-2.6.9-.6 2-.8 3-.6 1.1.2 2 .7 2.6 1.6 2.8 4.1 5 8.5 6.6 13.2C91.3 39.1 92 43.5 92 48s-.7 8.9-2.1 13.1c-1.6 4.7-3.8 9.1-6.6 13.2-.6.9-1.5 1.4-2.6 1.6-1 .2-2.1 0-3-.6-.9-.6-1.4-1.5-1.6-2.6-.2-1 0-2.1.6-3 2.4-3.4 4.3-7.1 5.6-11.1 1.1-3.4 1.7-7 1.7-10.6 0-3.6-.6-7.2-1.7-10.6-1.3-4-3.2-7.7-5.6-11.1z" fill-rule="evenodd"/></svg>