<svg xmlns="http://www.w3.org/2000/svg" style="isolation:isolate" width="96" height="96"><path d="M52 76V20L29.6 36.8C26.8 38.9 23.5 40 20 40h-8v16h8c3.5 0 6.8 1.1 9.6 3.2L52 76V20v56zM4 40v16c0 2.1.8 4.2 2.3 5.7C7.8 63.2 9.9 64 12 64h8c1.7 0 3.4.6 4.8 1.6l22.3 16.7c1.7 1.4 3.8 2.2 6 2.2 2.1-.2 4-1.3 5.3-2.9 1.3-1.7 1.9-3.8 1.6-5.9V20.3c.3-2.1-.3-4.2-1.6-5.9-1.3-1.6-3.2-2.7-5.3-2.9-2.2 0-4.3.8-6 2.2L24.8 30.4c-1.4 1-3.1 1.6-4.8 1.6h-8c-2.1 0-4.2.8-5.7 2.3C4.8 35.8 4 37.9 4 40zm76 13.6l5.2 5.2c.7.8 1.7 1.2 2.8 1.2 1.1 0 2.1-.4 2.8-1.2.8-.7 1.2-1.7 1.2-2.8 0-1.1-.4-2.1-1.2-2.8L85.6 48l5.2-5.2c.8-.7 1.2-1.7 1.2-2.8 0-1.1-.4-2.1-1.2-2.8-.7-.8-1.7-1.2-2.8-1.2-1.1 0-2.1.4-2.8 1.2L80 42.4l-5.2-5.2c-.7-.8-1.7-1.2-2.8-1.2-1.1 0-2.1.4-2.8 1.2-.8.7-1.2 1.7-1.2 2.8 0 1.1.4 2.1 1.2 2.8l5.2 5.2-5.2 5.2c-.8.7-1.2 1.7-1.2 2.8 0 1.1.4 2.1 1.2 2.8.7.8 1.7 1.2 2.8 1.2 1.1 0 2.1-.4 2.8-1.2l5.2-5.2z" fill-rule="evenodd"/></svg>