<svg xmlns="http://www.w3.org/2000/svg" width="96" height="96"><path d="M58 12.3v71.4c.3 3.1-1.8 5.9-4.8 6.5-.8.1-1.6.1-2.3-.2l-2.1-.9-26-19.5c-1.4-1-3.1-1.6-4.8-1.6h-8c-2.1 0-4.2-.8-5.7-2.3C2.8 64.2 2 62.1 2 60V36c0-2.1.8-4.2 2.3-5.7C5.8 28.8 7.9 28 10 28h8c1.7 0 3.4-.6 4.8-1.6l26-19.5 2.1-.9c.7-.3 1.5-.3 2.3-.2 3 .6 5.1 3.4 4.8 6.5zM50 16v64L27.6 63.2C24.8 61.1 21.5 60 18 60h-8V36h8c3.5 0 6.8-1.1 9.6-3.2L50 16zm15.9 12.2c-1.1 0-2.2-.5-3-1.3-.7-.8-1.2-1.9-1.1-3 0-1.1.5-2.2 1.3-3 .8-.8 1.9-1.2 3-1.1 2.7.4 4.9 1.8 6.3 3.8 1.4 1.9 2.4 4 3.1 6.3 1.8 5.8 2.6 12 2.5 18.1.1 6.1-.7 12.3-2.5 18.1-.7 2.3-1.7 4.4-3.1 6.3-1.4 2-3.6 3.4-6 3.6-1.1.1-2.1-.2-2.9-.9-.9-.7-1.4-1.7-1.5-2.7-.1-1.1.3-2.1.9-3 .7-.8 1.7-1.3 2.7-1.4 1.2-1.4 1.8-2.8 2.2-4.2 1.6-5.1 2.3-10.4 2.2-15.8.1-5.4-.6-10.7-2.2-15.8-.4-1.4-1-2.8-1.9-4zM86 48c-.1-6.7-1.1-13.4-3.2-19.8-.7-2.7-1.8-5.2-3.2-7.6.1-.3-.2-.6-.5-.7-1-.2-1.9-.9-2.5-1.8-.5-.9-.7-1.9-.5-3 .2-1 .9-1.9 1.8-2.5.9-.5 1.9-.7 3-.5 2.8.6 5.2 2.7 6.2 5.4 1.4 2.7 2.6 5.5 3.4 8.4C92.7 33 93.9 40.5 94 48c-.1 7.5-1.3 15-3.5 22.1-.8 2.9-2 5.7-3.4 8.4-1 2.7-3.4 4.8-6.2 5.4-1.1.2-2.1 0-3-.5-.9-.6-1.6-1.5-1.8-2.5-.2-1.1 0-2.1.5-3 .6-.9 1.5-1.6 2.5-1.8.3-.1.6-.4.5-.7 1.4-2.4 2.5-4.9 3.2-7.6 2.1-6.4 3.1-13.1 3.2-19.8z" fill-rule="evenodd" fill="#454545"/></svg>