<svg xmlns="http://www.w3.org/2000/svg" width="96" height="96"><path d="M44 56.944c0 1.1.4 2.1 1.2 2.8.7.8 1.7 1.2 2.8 1.2 1.1 0 2.1-.4 2.8-1.2.8-.7 1.2-1.7 1.2-2.8v-16c0-1.1-.4-2.1-1.2-2.8-.7-.8-1.7-1.2-2.8-1.2-1.1 0-2.1.4-2.8 1.2-.8.7-1.2 1.7-1.2 2.8v16zm0 16c0 2.207 1.792 4 4 4s4-1.793 4-4c0-2.208-1.792-4-4-4s-4 1.792-4 4zm9.5-64l41.5 73 .5 1.9c.1.4.1.9.1 1.4-.2 1.6-1 3.1-2.2 4.2-1.3 1.1-2.9 1.6-4.6 1.5H7.2c-1.7.1-3.3-.4-4.6-1.5-1.2-1.1-2-2.6-2.2-4.2 0-.5 0-1 .1-1.4l.5-1.9 41.5-73c.9-2.3 3.1-3.8 5.5-3.9 2.4.1 4.6 1.6 5.5 3.9zm-44 74l38.5-67.1 38.5 67.1h-77z" fill-rule="evenodd" fill="#454545"/></svg>