<svg xmlns="http://www.w3.org/2000/svg" width="96" height="96"><path d="M42 38c0-1.1.4-2.1 1.2-2.8.7-.8 1.7-1.2 2.8-1.2 1.1 0 2.1.4 2.8 1.2.8.7 1.2 1.7 1.2 2.8v12h4c1.1 0 2.1.4 2.8 1.2.8.7 1.2 1.7 1.2 2.8 0 1.1-.4 2.1-1.2 2.8-.7.8-1.7 1.2-2.8 1.2h-6c-1.6 0-3.1-.6-4.2-1.8-1.2-1.1-1.8-2.6-1.8-4.2V38zM30.39 26.257L35 10.7c1.2-4 4.9-6.7 9-6.7h8c4.1 0 7.8 2.7 9 6.7l4.61 15.557c.759.608 1.49 1.256 2.19 1.943C73 33.5 76 40.6 76 48s-3 14.5-8.2 19.8c-.7.687-1.431 1.335-2.19 1.943L61 85.3c-1.2 4-4.9 6.7-9 6.7h-8c-4.1 0-7.8-2.7-9-6.7l-4.61-15.557A29.137 29.137 0 0 1 28.2 67.8C23 62.5 20 55.4 20 48s3-14.5 8.2-19.8c.7-.687 1.431-1.335 2.19-1.943zm25.381-5.138L53.3 13c-.2-.6-.7-1-1.3-1h-8c-.6 0-1.1.4-1.3 1l-2.471 8.119A27.644 27.644 0 0 1 48 20c2.652 0 5.265.385 7.771 1.119zM28 48c0 5.3 2.1 10.4 5.9 14.1C37.6 65.9 42.7 68 48 68c5.3 0 10.4-2.1 14.1-5.9C65.9 58.4 68 53.3 68 48c0-5.3-2.1-10.4-5.9-14.1C58.4 30.1 53.3 28 48 28c-5.3 0-10.4 2.1-14.1 5.9C30.1 37.6 28 42.7 28 48zm27.771 26.881L53.3 83c-.2.6-.7 1-1.3 1h-8c-.6 0-1.1-.4-1.3-1l-2.471-8.119A27.644 27.644 0 0 0 48 76c2.652 0 5.265-.385 7.771-1.119z" fill-rule="evenodd" fill="#454545"/></svg>