<svg xmlns="http://www.w3.org/2000/svg" style="isolation:isolate" width="96" height="96"><path d="M25.7 57.4c.9.4 1.7 1.2 2.1 2.2.3 1 .3 2.1-.2 3.1-.4.9-1.2 1.7-2.2 2.1-1 .3-2.1.3-3.1-.2C11.2 59.5 4.1 48.4 4 36.2c0-8.5 3.4-16.7 9.4-22.7S27.5 4.1 36 4.1c11.7 0 22.4 6.4 28 16.6l3.4-.5c.2 0 .4-.1.6-.1 6.4 0 12.5 2.6 17 7.1s7 10.6 7 16.9c.1 11.5-8 21.5-19.2 23.8-1 .2-2.1 0-3-.5-.9-.6-1.5-1.5-1.7-2.6-.2-1 0-2.1.5-3 .6-.9 1.5-1.5 2.6-1.7 7.5-1.6 12.9-8.3 12.8-15.9 0-4.2-1.6-8.3-4.6-11.3-2.9-2.9-6.9-4.7-11.1-4.8l-5.9 1c-1.8.3-3.6-.7-4.3-2.4-3.8-8.8-12.5-14.6-22.1-14.6-6.4 0-12.5 2.6-17 7.1s-7 10.6-7 16.9c.1 9.1 5.4 17.4 13.7 21.3zM36 56c0-1.1.4-2.1 1.2-2.8.7-.8 1.7-1.2 2.8-1.2 1.1 0 2.1.4 2.8 1.2.8.7 1.2 1.7 1.2 2.8v8c0 1.1-.4 2.1-1.2 2.8-.7.8-1.7 1.2-2.8 1.2-1.1 0-2.1-.4-2.8-1.2-.8-.7-1.2-1.7-1.2-2.8v-8zm16 0c0-1.1.4-2.1 1.2-2.8.7-.8 1.7-1.2 2.8-1.2 1.1 0 2.1.4 2.8 1.2.8.7 1.2 1.7 1.2 2.8v8c0 1.1-.4 2.1-1.2 2.8-.7.8-1.7 1.2-2.8 1.2-1.1 0-2.1-.4-2.8-1.2-.8-.7-1.2-1.7-1.2-2.8v-8zm8 16c0-1.1.4-2.1 1.2-2.8.7-.8 1.7-1.2 2.8-1.2 1.1 0 2.1.4 2.8 1.2.8.7 1.2 1.7 1.2 2.8v8c0 1.1-.4 2.1-1.2 2.8-.7.8-1.7 1.2-2.8 1.2-1.1 0-2.1-.4-2.8-1.2-.8-.7-1.2-1.7-1.2-2.8v-8zm-16 0c0-1.1.4-2.1 1.2-2.8.7-.8 1.7-1.2 2.8-1.2 1.1 0 2.1.4 2.8 1.2.8.7 1.2 1.7 1.2 2.8v8c0 1.1-.4 2.1-1.2 2.8-.7.8-1.7 1.2-2.8 1.2-1.1 0-2.1-.4-2.8-1.2-.8-.7-1.2-1.7-1.2-2.8v-8zm-16 0c0-1.1.4-2.1 1.2-2.8.7-.8 1.7-1.2 2.8-1.2 1.1 0 2.1.4 2.8 1.2.8.7 1.2 1.7 1.2 2.8v8c0 1.1-.4 2.1-1.2 2.8-.7.8-1.7 1.2-2.8 1.2-1.1 0-2.1-.4-2.8-1.2-.8-.7-1.2-1.7-1.2-2.8v-8z" fill-rule="evenodd"/></svg>