<svg xmlns="http://www.w3.org/2000/svg" style="isolation:isolate" width="96" height="96"><path d="M71.087 80.687A40.092 40.092 0 0 1 48 88a40.092 40.092 0 0 1-23.087-7.313L18.8 86.8c-.7.8-1.7 1.2-2.8 1.2-1.1 0-2.1-.4-2.8-1.2-.8-.7-1.2-1.7-1.2-2.8 0-1.1.4-2.1 1.2-2.8l5.711-5.711A40.05 40.05 0 0 1 8 48c0-10.6 4.2-20.8 11.7-28.3C27.2 12.2 37.4 8 48 8c10.6 0 20.8 4.2 28.3 11.7C83.8 27.2 88 37.4 88 48a40.05 40.05 0 0 1-10.911 27.489L82.8 81.2c.8.7 1.2 1.7 1.2 2.8 0 1.1-.4 2.1-1.2 2.8-.7.8-1.7 1.2-2.8 1.2-1.1 0-2.1-.4-2.8-1.2l-6.113-6.113zM16 48c0 8.5 3.4 16.6 9.4 22.6S39.5 80 48 80c8.5 0 16.6-3.4 22.6-9.4S80 56.5 80 48c0-8.5-3.4-16.6-9.4-22.6S56.5 16 48 16c-8.5 0-16.6 3.4-22.6 9.4S16 39.5 16 48zm16 0c0-4.2 1.7-8.3 4.7-11.3S43.8 32 48 32c4.2 0 8.3 1.7 11.3 4.7S64 43.8 64 48c0 4.2-1.7 8.3-4.7 11.3S52.2 64 48 64c-4.2 0-8.3-1.7-11.3-4.7S32 52.2 32 48zm8 0c0-2.1.8-4.2 2.3-5.7 1.5-1.5 3.6-2.3 5.7-2.3s4.2.8 5.7 2.3c1.5 1.5 2.3 3.6 2.3 5.7s-.8 4.2-2.3 5.7C52.2 55.2 50.1 56 48 56s-4.2-.8-5.7-2.3C40.8 52.2 40 50.1 40 48z" fill-rule="evenodd" fill="#454545"/></svg>