<svg xmlns="http://www.w3.org/2000/svg" width="96" height="96"><path d="M55.25 69.053c.6-.9 1.4-1.6 2.5-1.9 1-.3 2.1-.1 3 .4.9.6 1.6 1.4 1.9 2.5.2 1 .1 2.1-.4 3-3.8 6.4-9.9 11.1-17 13-.2.1-.4.1-.6.1l-6.2.9h-.5c-12.6 0-23.8-8.6-27-20.8-.1-.1-.1-.3-.1-.5l-.9-6.2v-.5c0-12.7 8.6-23.8 20.8-27.1 1-.2 2.1-.1 3 .4.9.6 1.6 1.4 1.9 2.5.2 1 .1 2.1-.4 3-.6.9-1.4 1.6-2.5 1.9-8.6 2.3-14.7 10.1-14.8 19l.8 5.7c2.4 8.5 10.1 14.5 19 14.6l5.6-.8c5-1.4 9.3-4.7 11.9-9.2zm-1.2-36.626v16.526h8c4.1 0 7.8 2.6 9.1 6.5l5.4 16.4c.2.7.8 1.1 1.5 1.1h4c1.1 0 2.1.4 2.8 1.2.8.7 1.2 1.7 1.2 2.8 0 1.1-.4 2.1-1.2 2.8-.7.8-1.7 1.2-2.8 1.2h-4c-4.1 0-7.8-2.6-9.1-6.5l-5.4-16.4c-.2-.7-.8-1.1-1.5-1.1h-8c-2.1 0-4.2-.8-5.7-2.3-1.5-1.5-2.3-3.6-2.3-5.7V32.205a12.188 12.188 0 0 1-4.3-2.652c-2.3-2.3-3.7-5.4-3.7-8.6 0-3.2 1.4-6.3 3.7-8.6 2.4-2.2 5.5-3.5 8.7-3.4 3.2 0 6.3 1.2 8.6 3.4 2.3 2.3 3.6 5.4 3.7 8.6-.1 3.2-1.4 6.3-3.7 8.6a12.167 12.167 0 0 1-5 2.874zm-8-11.474c0-1.1.5-2.1 1.3-2.9.8-.7 1.9-1.1 3-1.1 1.2 0 2.2.4 3 1.1.9.8 1.3 1.8 1.4 2.9-.1 1.1-.5 2.1-1.4 2.9-.8.7-1.8 1.1-3 1.1-1.1 0-2.1-.4-3-1.1-.8-.8-1.3-1.8-1.3-2.9z" fill-rule="evenodd"/></svg>