<?xml version="1.0" standalone="no"?><!-- Generator: Gravit.io --><svg xmlns="http://www.w3.org/2000/svg" xmlns:xlink="http://www.w3.org/1999/xlink" width="96" height="96"><path d=" M 78 62 C 79.1 62 80.1 61.6 80.8 60.8 C 81.6 60.1 82 59.1 82 58 C 82 56.9 81.6 55.9 80.8 55.2 C 80.1 54.4 79.1 54 78 54 C 71.6 54 65.5 56.5 61 61 C 56.5 65.5 54 71.6 54 78 C 54 79.1 54.4 80.1 55.2 80.8 C 55.9 81.6 56.9 82 58 82 C 59.1 82 60.1 81.6 60.8 80.8 C 61.6 80.1 62 79.1 62 78 C 62 73.8 63.7 69.7 66.7 66.7 C 69.7 63.7 73.8 62 78 62 Z  M 78 42 C 79.1 42 80.1 41.6 80.8 40.8 C 81.6 40.1 82 39.1 82 38 C 82 36.9 81.6 35.9 80.8 35.2 C 80.1 34.4 79.1 34 78 34 C 66.3 34 55.1 38.6 46.9 46.9 C 38.6 55.1 34 66.3 34 78 C 34 79.1 34.4 80.1 35.2 80.8 C 35.9 81.6 36.9 82 38 82 C 39.1 82 40.1 81.6 40.8 80.8 C 41.6 80.1 42 79.1 42 78 C 42 68.5 45.8 59.3 52.5 52.5 C 59.3 45.8 68.5 42 78 42 Z  M 78 22 C 79.1 22 80.1 21.6 80.8 20.8 C 81.6 20.1 82 19.1 82 18 C 82 16.9 81.6 15.899999999999999 80.8 15.2 C 80.1 14.399999999999999 79.1 14 78 14 C 61 14 44.7 20.7 32.7 32.7 C 20.700000000000003 44.7 14 61 14 78 C 14 79.1 14.400000000000006 80.1 15.200000000000003 80.8 C 15.900000000000006 81.6 16.900000000000006 82 18 82 C 19.099999999999994 82 20.099999999999994 81.6 20.799999999999997 80.8 C 21.599999999999994 80.1 22 79.1 22 78 C 22 63.2 27.900000000000006 48.9 38.4 38.4 C 48.9 27.9 63.2 22 78 22 Z " fill-rule="evenodd" fill="#454545" stroke="none"/><mask id="_mask_zea8RYpM2Nk2SwsECPIVt0OMEZxBgnbA"><path d=" M 78 62 C 79.1 62 80.1 61.6 80.8 60.8 C 81.6 60.1 82 59.1 82 58 C 82 56.9 81.6 55.9 80.8 55.2 C 80.1 54.4 79.1 54 78 54 C 71.6 54 65.5 56.5 61 61 C 56.5 65.5 54 71.6 54 78 C 54 79.1 54.4 80.1 55.2 80.8 C 55.9 81.6 56.9 82 58 82 C 59.1 82 60.1 81.6 60.8 80.8 C 61.6 80.1 62 79.1 62 78 C 62 73.8 63.7 69.7 66.7 66.7 C 69.7 63.7 73.8 62 78 62 Z  M 78 42 C 79.1 42 80.1 41.6 80.8 40.8 C 81.6 40.1 82 39.1 82 38 C 82 36.9 81.6 35.9 80.8 35.2 C 80.1 34.4 79.1 34 78 34 C 66.3 34 55.1 38.6 46.9 46.9 C 38.6 55.1 34 66.3 34 78 C 34 79.1 34.4 80.1 35.2 80.8 C 35.9 81.6 36.9 82 38 82 C 39.1 82 40.1 81.6 40.8 80.8 C 41.6 80.1 42 79.1 42 78 C 42 68.5 45.8 59.3 52.5 52.5 C 59.3 45.8 68.5 42 78 42 Z  M 78 22 C 79.1 22 80.1 21.6 80.8 20.8 C 81.6 20.1 82 19.1 82 18 C 82 16.9 81.6 15.899999999999999 80.8 15.2 C 80.1 14.399999999999999 79.1 14 78 14 C 61 14 44.7 20.7 32.7 32.7 C 20.700000000000003 44.7 14 61 14 78 C 14 79.1 14.400000000000006 80.1 15.200000000000003 80.8 C 15.900000000000006 81.6 16.900000000000006 82 18 82 C 19.099999999999994 82 20.099999999999994 81.6 20.799999999999997 80.8 C 21.599999999999994 80.1 22 79.1 22 78 C 22 63.2 27.900000000000006 48.9 38.4 38.4 C 48.9 27.9 63.2 22 78 22 Z " fill-rule="evenodd" fill="white" stroke="none"/></mask><path d=" M 78 62 C 79.1 62 80.1 61.6 80.8 60.8 C 81.6 60.1 82 59.1 82 58 C 82 56.9 81.6 55.9 80.8 55.2 C 80.1 54.4 79.1 54 78 54 C 71.6 54 65.5 56.5 61 61 C 56.5 65.5 54 71.6 54 78 C 54 79.1 54.4 80.1 55.2 80.8 C 55.9 81.6 56.9 82 58 82 C 59.1 82 60.1 81.6 60.8 80.8 C 61.6 80.1 62 79.1 62 78 C 62 73.8 63.7 69.7 66.7 66.7 C 69.7 63.7 73.8 62 78 62 Z  M 78 42 C 79.1 42 80.1 41.6 80.8 40.8 C 81.6 40.1 82 39.1 82 38 C 82 36.9 81.6 35.9 80.8 35.2 C 80.1 34.4 79.1 34 78 34 C 66.3 34 55.1 38.6 46.9 46.9 C 38.6 55.1 34 66.3 34 78 C 34 79.1 34.4 80.1 35.2 80.8 C 35.9 81.6 36.9 82 38 82 C 39.1 82 40.1 81.6 40.8 80.8 C 41.6 80.1 42 79.1 42 78 C 42 68.5 45.8 59.3 52.5 52.5 C 59.3 45.8 68.5 42 78 42 Z  M 78 22 C 79.1 22 80.1 21.6 80.8 20.8 C 81.6 20.1 82 19.1 82 18 C 82 16.9 81.6 15.899999999999999 80.8 15.2 C 80.1 14.399999999999999 79.1 14 78 14 C 61 14 44.7 20.7 32.7 32.7 C 20.700000000000003 44.7 14 61 14 78 C 14 79.1 14.400000000000006 80.1 15.200000000000003 80.8 C 15.900000000000006 81.6 16.900000000000006 82 18 82 C 19.099999999999994 82 20.099999999999994 81.6 20.799999999999997 80.8 C 21.599999999999994 80.1 22 79.1 22 78 C 22 63.2 27.900000000000006 48.9 38.4 38.4 C 48.9 27.9 63.2 22 78 22 Z " fill-rule="evenodd" fill="none" stroke="none" stroke-width="16" mask="url(#_mask_zea8RYpM2Nk2SwsECPIVt0OMEZxBgnbA)"/></svg>