<svg xmlns="http://www.w3.org/2000/svg" width="96" height="96"><path d="M62.814 16.464c-2.984-.284-5.967-.284-8.95.285-2.06.355-4.12 1.422-5.684 2.987-1.42 1.423-2.415 3.414-2.628 5.477-.497 3.627-.142 7.255.923 10.74 1.28 3.84.285 7.966-2.557 10.811L19.765 70.947c-1.42 1.423-2.628 3.201-3.338 5.193-.213.64-.435 2.41.497 3.343.932.932 2.7.71 3.339.497 1.989-.71 3.765-1.92 5.185-3.342l24.153-24.184c2.842-2.845 7.033-3.77 10.869-2.489 3.267 1.138 6.89 1.494 10.442 1.067 2.131-.285 4.191-1.352 5.683-2.845a11.662 11.662 0 0 0 3.197-6.046c.426-2.845.497-5.761.142-8.677l-6.18 6.188c-1.492 1.493-3.481 2.347-5.612 2.347-2.131 0-4.263-.854-5.754-2.347l-5.683-5.69c-1.492-1.494-2.344-3.628-2.344-5.762 0-2.134.852-4.125 2.344-5.619l6.109-6.117zm5.115-7.255c-5.115-1.138-10.23-1.28-15.344-.426-3.836.71-7.317 2.489-10.088 5.263-2.7 2.703-4.404 6.26-4.972 10.1-.64 4.765-.142 9.673 1.35 14.296.355.925.07 1.92-.64 2.632L14.083 65.257c-2.274 2.276-3.979 4.98-5.115 7.966-.782 2.063-.995 4.268-.568 6.402.355 2.063 1.35 4.054 2.841 5.548 1.492 1.493 3.48 2.49 5.54 2.845 2.132.427 4.334.213 6.394-.57 2.984-1.137 5.683-2.844 7.956-5.12l24.153-24.183c.64-.64 1.634-.925 2.486-.64 4.618 1.635 9.377 2.133 14.137 1.493 3.978-.569 7.6-2.347 10.371-5.121 2.842-2.845 4.688-6.401 5.328-10.313.923-5.05.71-10.243-.426-15.222-.142-.284-.934-2.662-2.274-3.698q-2.626-2.031-8.453.924l-8.382 8.393-5.683-5.69 8.382-8.393q3.007-5.781.995-8.393c-1.063-1.38-3.481-2.205-3.836-2.276z" fill-rule="evenodd"/></svg>