<svg xmlns="http://www.w3.org/2000/svg" width="96" height="96"><path d="M68.127 62.527C73.184 56.133 76 48.177 76 40c0-9.5-3.8-18.7-10.5-25.5C58.7 7.8 49.5 4 40 4S21.3 7.8 14.5 14.5C7.8 21.3 4 30.5 4 40s3.8 18.7 10.5 25.5C21.3 72.2 30.5 76 40 76c8.178 0 16.133-2.816 22.527-7.873L85.2 90.8c.7.8 1.7 1.2 2.8 1.2 1.1 0 2.1-.4 2.8-1.2.8-.7 1.2-1.7 1.2-2.8 0-1.1-.4-2.1-1.2-2.8L68.127 62.527zM12 40c0 7.4 3 14.5 8.2 19.8C25.5 65 32.6 68 40 68s14.5-3 19.8-8.2C65 54.5 68 47.4 68 40s-3-14.5-8.2-19.8C54.5 15 47.4 12 40 12s-14.5 3-19.8 8.2C15 25.5 12 32.6 12 40zm24-4h-8c-1.1 0-2.1.4-2.8 1.2-.8.7-1.2 1.7-1.2 2.8 0 1.1.4 2.1 1.2 2.8.7.8 1.7 1.2 2.8 1.2h8v8c0 1.1.4 2.1 1.2 2.8.7.8 1.7 1.2 2.8 1.2 1.1 0 2.1-.4 2.8-1.2.8-.7 1.2-1.7 1.2-2.8v-8h8c1.1 0 2.1-.4 2.8-1.2.8-.7 1.2-1.7 1.2-2.8 0-1.1-.4-2.1-1.2-2.8-.7-.8-1.7-1.2-2.8-1.2h-8v-8c0-1.1-.4-2.1-1.2-2.8-.7-.8-1.7-1.2-2.8-1.2-1.1 0-2.1.4-2.8 1.2-.8.7-1.2 1.7-1.2 2.8v8z" fill-rule="evenodd" fill="#454545"/></svg>