<?xml version="1.0" standalone="no"?>
<!DOCTYPE svg PUBLIC "-//W3C//DTD SVG 20010904//EN"
 "http://www.w3.org/TR/2001/REC-SVG-20010904/DTD/svg10.dtd">
<svg version="1.0" xmlns="http://www.w3.org/2000/svg"
 width="700.000000pt" height="700.000000pt" viewBox="0 0 700.000000 700.000000"
 preserveAspectRatio="xMidYMid meet">
<metadata>
Created by potrace 1.11, written by Peter Selinger 2001-2013
</metadata>
<g transform="translate(0.000000,700.000000) scale(0.100000,-0.100000)"
fill="#000000" stroke="none">
<path d="M3380 6933 c-143 -22 -240 -53 -531 -169 -173 -69 -327 -131 -344
-138 -16 -7 -427 -172 -912 -366 -485 -193 -910 -368 -945 -388 -68 -40 -214
-179 -238 -227 -8 -17 -22 -41 -30 -55 -9 -14 -22 -41 -29 -60 -7 -19 -17 -44
-21 -55 -34 -84 -34 -79 -37 -1945 -1 -1229 1 -1852 8 -1885 6 -27 12 -60 15
-73 21 -103 118 -266 207 -347 75 -69 78 -70 149 -109 50 -27 2155 -877 2313
-933 22 -8 54 -20 70 -27 65 -28 112 -45 155 -55 25 -5 68 -15 95 -22 28 -6
106 -13 175 -14 120 -3 183 5 335 43 22 5 490 189 1040 409 550 220 1007 403
1015 406 214 84 441 181 485 208 179 107 309 302 344 514 13 82 13 3628 0
3710 -38 230 -187 438 -384 537 -27 14 -576 236 -1220 493 -643 257 -1185 474
-1203 482 -51 22 -132 42 -257 63 -50 8 -208 10 -255 3z m249 -603 c36 -9 199
-70 361 -134 162 -65 403 -160 535 -213 132 -52 249 -99 260 -104 19 -8 454
-181 595 -236 36 -14 79 -31 95 -38 26 -11 99 -40 195 -77 23 -9 17 -13 -70
-49 -52 -21 -104 -43 -115 -48 -11 -5 -54 -23 -95 -39 -41 -16 -136 -55 -210
-85 -74 -31 -213 -87 -308 -126 -95 -39 -187 -77 -205 -85 -17 -8 -167 -69
-332 -136 -165 -66 -309 -125 -320 -130 -129 -59 -355 -144 -416 -156 -97 -20
-212 -10 -294 25 -11 5 -67 28 -125 51 -58 23 -118 47 -135 55 -16 7 -102 42
-190 78 -88 36 -239 98 -335 137 -96 40 -195 80 -220 90 -75 29 -784 320 -805
330 -11 5 -58 25 -105 44 -78 32 -83 35 -60 44 126 49 903 357 935 371 11 5
63 26 115 46 52 20 104 40 115 45 88 41 824 327 875 340 83 22 174 22 259 0z
m-2475 -1381 c149 -61 312 -128 361 -149 50 -21 441 -182 871 -359 888 -365
887 -365 1119 -364 190 0 270 20 575 144 135 55 254 104 265 109 11 5 191 80
400 166 209 86 391 161 405 167 14 6 27 11 30 11 3 1 52 21 110 45 121 50 163
68 545 226 153 63 281 115 285 115 3 0 5 -753 5 -1672 -1 -1804 2 -1697 -52
-1744 -14 -11 -124 -60 -246 -109 -122 -48 -235 -94 -252 -101 -16 -7 -118
-47 -225 -89 -326 -128 -574 -226 -595 -236 -170 -75 -1094 -432 -1151 -444
-89 -18 -148 -17 -234 5 -51 13 -777 295 -915 355 -16 7 -163 65 -325 130
-162 64 -308 122 -325 129 -16 7 -215 86 -441 176 -227 89 -423 172 -436 184
-55 48 -52 -62 -53 1744 0 919 2 1672 4 1672 3 0 126 -50 275 -111z"/>
<path d="M5410 3699 c-19 -5 -57 -11 -84 -14 -50 -7 -111 -28 -551 -193 -148
-56 -288 -108 -310 -116 -22 -8 -78 -29 -125 -46 -267 -100 -415 -233 -500
-449 -45 -116 -49 -166 -49 -702 0 -458 1 -511 18 -565 42 -140 133 -249 259
-311 93 -45 156 -53 274 -33 85 14 189 49 599 203 272 102 522 198 555 214
200 97 335 266 392 488 20 80 26 1080 6 1155 -30 117 -97 213 -196 283 -95 66
-214 101 -288 86z m-86 -996 c-1 -203 -4 -383 -8 -401 -11 -47 -44 -75 -132
-112 -43 -18 -83 -33 -89 -35 -5 -1 -23 -7 -40 -14 -16 -7 -131 -50 -255 -97
-124 -47 -268 -103 -320 -123 -73 -29 -96 -34 -100 -24 -3 7 -5 178 -5 381 0
395 2 408 53 448 15 12 153 69 307 127 154 59 343 131 420 161 77 30 147 55
155 55 13 1 15 -46 14 -366z"/>
</g>
</svg>
