<svg xmlns="http://www.w3.org/2000/svg" width="96" height="96">
    <path d="M19.873 74.527L13.2 81.2c-.8.7-1.2 1.7-1.2 2.8 0 1.1.4 2.1 1.2 2.8.7.8 1.7 1.2 2.8 1.2 1.1 0 2.1-.4 2.8-1.2l6.673-6.673C31.867 85.184 39.823 88 48 88c8.178 0 16.133-2.816 22.527-7.873L77.2 86.8c.7.8 1.7 1.2 2.8 1.2 1.1 0 2.1-.4 2.8-1.2.8-.7 1.2-1.7 1.2-2.8 0-1.1-.4-2.1-1.2-2.8l-6.673-6.673C81.184 68.133 84 60.177 84 52c0-6-1.5-11.8-4.3-17.1C82.5 32 84 28.1 84 24c0-4.2-1.7-8.3-4.7-11.3S72.2 8 68 8c-6 0-11.5 3.4-14.3 8.7L48 16l-5.7.7C39.5 11.4 34 8 28 8c-4.2 0-8.3 1.7-11.3 4.7S12 19.8 12 24c0 4.1 1.5 8 4.3 10.9C13.5 40.2 12 46 12 52c0 8.178 2.816 16.133 7.873 22.527zM73.5 29.8c1.6-1.5 2.5-3.6 2.5-5.8 0-2.1-.8-4.2-2.3-5.7-1.5-1.5-3.6-2.3-5.7-2.3-3.7 0-6.9 2.5-7.8 6.1-.5 1.9-2.4 3.2-4.4 3L48 24l-7.8 1.1c-2 .2-3.9-1.1-4.4-3-.9-3.6-4.1-6.1-7.8-6.1-2.1 0-4.2.8-5.7 2.3-1.5 1.5-2.3 3.6-2.3 5.7 0 2.2.9 4.3 2.5 5.8q1.6 1.5 4.025 1.886c1.09.173 1.468 1.053.844 1.964Q20 44.4 20 52c0 7.4 3 14.5 8.2 19.8C33.4 77 40.6 80 48 80s14.6-3 19.8-8.2C73 66.5 76 59.4 76 52q0-7.6-7.37-18.35c-.623-.91-.245-1.79.845-1.964Q71.9 31.3 73.5 29.8zM40 36c0-1.1.4-2.1 1.2-2.8.7-.8 1.7-1.2 2.8-1.2 1.1 0 2.1.4 2.8 1.2.8.7 1.2 1.7 1.2 2.8v18.3l6.8 6.9c.8.7 1.2 1.7 1.2 2.8 0 1.1-.4 2.1-1.2 2.8-.7.8-1.7 1.2-2.8 1.2-1.1 0-2.1-.4-2.8-1.2L40 57.7V36z" fill-rule="evenodd" fill="#454545"/>
</svg>
