<svg xmlns="http://www.w3.org/2000/svg" width="96" height="96">
    <path d="M8 16c-1.1 0-2.1-.4-2.8-1.2C4.4 14.1 4 13.1 4 12c0-1.1.4-2.1 1.2-2.8C5.9 8.4 6.9 8 8 8h80c1.1 0 2.1.4 2.8 1.2.8.7 1.2 1.7 1.2 2.8 0 1.1-.4 2.1-1.2 2.8-.7.8-1.7 1.2-2.8 1.2H8zm0 48c-1.1 0-2.1-.4-2.8-1.2C4.4 62.1 4 61.1 4 60c0-1.1.4-2.1 1.2-2.8.7-.8 1.7-1.2 2.8-1.2h80c1.1 0 2.1.4 2.8 1.2.8.7 1.2 1.7 1.2 2.8 0 1.1-.4 2.1-1.2 2.8-.7.8-1.7 1.2-2.8 1.2H8zm16-24c-1.1 0-2.1-.4-2.8-1.2-.8-.7-1.2-1.7-1.2-2.8 0-1.1.4-2.1 1.2-2.8.7-.8 1.7-1.2 2.8-1.2h48c1.1 0 2.1.4 2.8 1.2.8.7 1.2 1.7 1.2 2.8 0 1.1-.4 2.1-1.2 2.8-.7.8-1.7 1.2-2.8 1.2H24zm0 48c-1.1 0-2.1-.4-2.8-1.2-.8-.7-1.2-1.7-1.2-2.8 0-1.1.4-2.1 1.2-2.8.7-.8 1.7-1.2 2.8-1.2h48c1.1 0 2.1.4 2.8 1.2.8.7 1.2 1.7 1.2 2.8 0 1.1-.4 2.1-1.2 2.8-.7.8-1.7 1.2-2.8 1.2H24z" fill-rule="evenodd" fill="#454545"/>
</svg>
