<?xml version="1.0" standalone="no"?><!-- Generator: Gravit.io --><svg xmlns="http://www.w3.org/2000/svg" xmlns:xlink="http://www.w3.org/1999/xlink" width="96" height="96"><path d=" M 79.99855787318984 51.95 C 79.99855787318984 51.95 79.99855787318984 51.95 79.99855787318984 51.85 L 79.99855787318984 51.95 C 80.19855787318983 59.25 77.89855787318984 66.45 73.39855787318984 72.25 C 68.99855787318984 78.05 62.698557873189834 82.15 55.49855787318983 83.95 L 55.09855787318983 83.95 L 51.89855787318983 83.55 L 48.29855787318983 83.05 L 47.698557873189834 83.05 L 44.09855787318983 83.55 L 40.89855787318983 83.95 L 40.39855787318983 83.95 C 33.29855787318983 82.25 26.99855787318983 78.15 22.598557873189833 72.25 C 18.098557873189833 66.45 15.798557873189832 59.35 15.998557873189831 51.95 C 15.598557873189831 46.25 16.298557873189832 40.75 18.098557873189833 35.550000000000004 C 20.098557873189833 31.650000000000002 23.39855787318983 28.550000000000004 27.49855787318983 26.950000000000003 L 28.69855787318983 26.750000000000004 C 30.99855787318983 26.950000000000003 33.198557873189834 27.450000000000003 35.39855787318983 28.35 C 39.39855787318983 29.85 43.698557873189834 30.750000000000004 47.99855787318983 30.950000000000003 C 52.29855787318983 30.750000000000004 56.49855787318983 29.85 60.59855787318983 28.35 C 62.698557873189834 27.450000000000003 64.89855787318984 26.950000000000003 67.19855787318983 26.750000000000004 L 68.49855787318984 26.950000000000003 C 72.49855787318984 28.650000000000002 75.89855787318984 31.750000000000004 77.79855787318982 35.650000000000006 C 79.59855787318983 40.75 80.39855787318984 46.150000000000006 79.99855787318984 51.650000000000006 C 79.99855787318984 51.75 79.99855787318984 51.75 79.99855787318984 51.85 L 79.99855787318984 51.85 M 87.99855787318984 51.75 C 87.99855787318984 51.85 87.99855787318984 51.85 87.99855787318984 51.85 L 87.99855787318984 51.75 C 87.99855787318984 51.85 87.99855787318984 51.95 87.99855787318984 51.95 C 88.19855787318983 61.150000000000006 85.19855787318983 70.05 79.59855787318983 77.35000000000001 C 73.99855787318984 84.55 65.99855787318984 89.65 57.09855787318983 91.75 C 56.89855787318983 91.85000000000001 56.79855787318983 91.85000000000001 56.59855787318983 91.85000000000001 L 54.89855787318983 92.05 L 50.89855787318983 91.45 L 47.99855787318983 91.15 L 45.09855787318983 91.45 L 40.99855787318983 92.05 L 39.39855787318983 91.85000000000001 C 39.29855787318983 91.85000000000001 39.09855787318983 91.85000000000001 38.89855787318983 91.75 C 29.99855787318983 89.75 21.99855787318983 84.65 16.39855787318983 77.35000000000001 C 10.69855787318983 70.15 7.798557873189831 61.150000000000006 7.9985578731898315 51.95 C 7.598557873189831 45.35 8.498557873189831 38.75 10.69855787318983 32.45 C 13.598557873189831 26.450000000000003 18.69855787318983 21.750000000000004 24.99855787318983 19.35 C 25.19855787318983 19.250000000000004 25.49855787318983 19.150000000000002 25.69855787318983 19.150000000000002 L 27.798557873189832 18.750000000000004 C 28.098557873189833 18.750000000000004 28.49855787318983 18.650000000000002 28.798557873189832 18.750000000000004 C 31.99855787318983 18.950000000000003 35.198557873189834 19.650000000000002 38.198557873189834 20.85 C 41.39855787318983 22.050000000000004 44.698557873189834 22.750000000000004 47.99855787318983 22.950000000000003 C 51.29855787318983 22.750000000000004 54.59855787318983 22.050000000000004 57.59855787318983 20.85 C 60.698557873189834 19.650000000000002 63.89855787318983 18.950000000000003 67.09855787318983 18.650000000000002 C 67.39855787318984 18.650000000000002 67.79855787318982 18.650000000000002 68.09855787318983 18.750000000000004 L 70.29855787318982 19.150000000000002 C 70.59855787318983 19.150000000000002 70.79855787318982 19.250000000000004 71.09855787318983 19.35 C 77.29855787318982 21.750000000000004 82.39855787318984 26.450000000000003 85.19855787318983 32.550000000000004 C 87.49855787318984 38.75 88.39855787318984 45.35 87.99855787318984 51.95 M 87.99855787318984 51.85 M 47.99855787318983 91.15 L 47.49855787318983 91.05 L 47.99855787318983 91.05 L 48.49855787318983 91.05 L 47.99855787318983 91.15 Z  M 47.99855787318983 91.05 M 50.79855787318983 18.750000000000004 C 50.09855787318983 19.550000000000004 49.09855787318983 19.950000000000003 47.99855787318983 19.950000000000003 C 46.89855787318983 19.950000000000003 45.89855787318983 19.550000000000004 45.198557873189834 18.750000000000004 C 44.39855787318983 18.050000000000004 43.99855787318983 17.050000000000004 43.99855787318983 15.950000000000003 C 43.99855787318983 14.850000000000003 44.39855787318983 13.850000000000003 45.198557873189834 13.150000000000002 L 53.198557873189834 5.150000000000003 C 53.89855787318983 4.350000000000003 54.89855787318983 3.950000000000003 55.99855787318983 3.950000000000003 C 57.09855787318983 3.950000000000003 58.09855787318983 4.350000000000003 58.79855787318983 5.150000000000003 C 59.59855787318983 5.850000000000003 59.99855787318983 6.850000000000003 59.99855787318983 7.950000000000003 C 59.99855787318983 9.050000000000002 59.59855787318983 10.050000000000002 58.79855787318983 10.750000000000004 L 50.79855787318983 18.750000000000004 Z " fill-rule="evenodd" fill="#454545" stroke="none"/></svg>
