<?xml version="1.0" standalone="no"?><!-- Generator: Gravit.io --><svg xmlns="http://www.w3.org/2000/svg" xmlns:xlink="http://www.w3.org/1999/xlink" width="96" height="96"><path d=" M 12.58607068607 60 L 19.4 12.5 L 19.4 12.5 C 19.4 12.2 19.7 12 20 12 L 76 12 C 76.3 12 76.6 12.2 76.6 12.5 L 83.41392931393 60 L 60 60 C 57.9 60 55.8 60.8 54.3 62.3 C 52.8 63.8 52 65.9 52 68 L 44 68 C 44 65.9 43.2 63.8 41.7 62.3 C 40.2 60.8 38.1 60 36 60 L 12.58607068607 60 Z  M 12 68 L 12 84 L 84 84 L 84 68 L 60 68 C 60 70.1 59.2 72.2 57.7 73.7 C 56.2 75.2 54.1 76 52 76 L 44 76 C 41.9 76 39.8 75.2 38.3 73.7 C 36.8 72.2 36 70.1 36 68 L 12 68 Z  M 4.25465425532 62.59363364362 C 4.333179144424954 61.55656028368794 4.453102836879433 60.52828014184397 4.6 59.5 L 11.5 11.4 L 11.5 11.4 C 12.1 7.2 15.7 4 20 4 L 76 4 C 80.3 4 83.9 7.2 84.5 11.4 L 91.4 59.5 C 91.54689716312058 60.528280141843965 91.66682085557505 61.55656028368793 91.74534574468 62.59363364362 C 91.9183524342887 63.02646242334271 92 66.93381202804747 92 68 L 92 84 C 92 86.1 91.2 88.2 89.7 89.7 C 88.2 91.2 86.1 92 84 92 L 12 92 C 9.9 92 7.8 91.2 6.3 89.7 C 4.8 88.2 4 86.1 4 84 L 4 68 C 4 66.93381202804747 4.081647565711295 63.026462423342714 4.25465425532 62.59363364362 Z " fill-rule="evenodd" fill="#454545" stroke="none"/></svg>
