<?xml version="1.0" standalone="no"?><!-- Generator: Gravit.io --><svg xmlns="http://www.w3.org/2000/svg" xmlns:xlink="http://www.w3.org/1999/xlink" width="96" height="96"><path d=" M 72.44388092737728 66.78702667788491 L 22.720932572580924 17.064078323088545 C 21.943115113275724 16.28626086378334 20.953165619614555 15.861996795071413 19.892505447834733 15.93270747319007 C 18.831845276054914 15.861996795071413 17.84189578239375 16.28626086378334 17.064078323088545 17.064078323088545 C 16.28626086378334 17.84189578239375 15.861996795071413 18.831845276054914 15.93270747319007 19.89250544783473 C 15.861996795071413 20.95316561961456 16.28626086378334 21.943115113275724 17.06407832308854 22.720932572580928 L 66.78702667788491 72.44388092737728 L 42.519922445804255 72.50124996811388 C 41.459262274024425 72.43053928999521 40.46931278036326 72.85480335870713 39.691495321058056 73.63262081801236 C 38.91367786175286 74.41043827731755 38.48941379304093 75.40038777097871 38.56012447115959 76.46104794275854 C 38.48941379304093 77.52170811453834 38.91367786175286 78.51165760819953 39.69149532105806 79.28947506750472 C 40.46931278036326 80.06729252680992 41.459262274024425 80.49155659552184 42.51992244580425 80.4208459174032 L 75.2589664147414 80.49155659552184 Q 77.83416324324 80.03768011058293 78.93592167691145 78.93592167691145 Q 80.0376801105829 77.83416324324 80.49155659552186 75.2589664147414 L 80.4208459174032 42.519922445804255 C 80.49155659552184 41.45926227402443 80.06729252680992 40.46931278036327 79.28947506750472 39.69149532105807 C 78.51165760819953 38.913677861752866 77.52170811453836 38.48941379304094 76.46104794275854 38.5601244711596 C 75.40038777097871 38.48941379304093 74.41043827731755 38.913677861752866 73.63262081801234 39.69149532105806 C 72.85480335870714 40.469312780363275 72.43053928999521 41.45926227402443 72.50124996811387 42.51992244580426 L 72.44388092737728 66.78702667788491 Z " fill="#454545" stroke="none"/></svg>
