<?xml version="1.0" standalone="no"?><!-- Generator: Gravit.io --><svg xmlns="http://www.w3.org/2000/svg" xmlns:xlink="http://www.w3.org/1999/xlink" width="96" height="96"><path d=" M 78.56886792453 44 L 8.25 44 C 7.15 44 6.15 44.4 5.45 45.2 C 4.65 45.9 4.25 46.9 4.25 48 C 4.25 49.1 4.65 50.1 5.45 50.8 C 6.15 51.6 7.15 52 8.25 52 L 78.56886792453 52 L 61.45 69.2 C 60.65 69.9 60.25 70.9 60.25 72 C 60.25 73.1 60.65 74.1 61.45 74.8 C 62.15 75.6 63.15 76 64.25 76 C 65.35 76 66.35 75.6 67.05 74.8 L 90.25 51.7 Q 91.75 49.55812171935711 91.75 48 Q 91.75 46.44187828064289 90.25 44.3 L 67.05 21.2 C 66.35 20.4 65.35 20 64.25 20 C 63.15 20 62.15 20.4 61.45 21.2 C 60.65 21.9 60.25 22.9 60.25 24 C 60.25 25.1 60.65 26.1 61.45 26.8 L 78.56886792453 44 Z " fill="#454545" stroke="none"/></svg>
