<?xml version="1.0" standalone="no"?><!-- Generator: Gravit.io --><svg xmlns="http://www.w3.org/2000/svg" xmlns:xlink="http://www.w3.org/1999/xlink" width="96" height="96"><path d=" M 51.99999999999999 17.431132075470003 L 52 87.75 C 52 88.85000000000001 51.6 89.85000000000001 50.8 90.55 C 50.1 91.35000000000001 49.1 91.75 48 91.75 C 46.9 91.75 45.9 91.35000000000001 45.2 90.55 C 44.4 89.85000000000001 44 88.85000000000001 44 87.75 L 43.99999999999999 17.431132075470003 L 26.799999999999997 34.550000000000004 C 26.099999999999994 35.35000000000001 25.099999999999994 35.75000000000001 24 35.75000000000001 C 22.900000000000006 35.75000000000001 21.900000000000006 35.35000000000001 21.200000000000003 34.550000000000004 C 20.400000000000006 33.85000000000001 20 32.85000000000001 20 31.750000000000007 C 20 30.650000000000006 20.400000000000006 29.650000000000006 21.200000000000003 28.950000000000003 L 44.29999999999999 5.75 Q 46.44187828064288 4.25 47.99999999999999 4.25 Q 49.5581217193571 4.25 51.699999999999996 5.75 L 74.8 28.950000000000003 C 75.6 29.650000000000006 76 30.650000000000006 76 31.75 C 76 32.85 75.6 33.85 74.8 34.55 C 74.1 35.35 73.1 35.75 72 35.75 C 70.89999999999999 35.75 69.89999999999999 35.35 69.19999999999999 34.55 L 51.99999999999999 17.431132075470003 Z " fill="#454545" stroke="none"/></svg>
