<?xml version="1.0" standalone="no"?><!-- Generator: Gravit.io --><svg xmlns="http://www.w3.org/2000/svg" xmlns:xlink="http://www.w3.org/1999/xlink" width="96" height="96"><path d=" M 72.44388092737728 29.629608903002037 L 22.72093257258091 79.35255725779841 C 21.94311511327571 80.13037471710362 20.95316561961454 80.55463878581554 19.89250544783472 80.48392810769688 C 18.8318452760549 80.55463878581554 17.841895782393735 80.13037471710362 17.06407832308853 79.35255725779841 C 16.286260863783326 78.5747397984932 15.861996795071398 77.58479030483204 15.932707473190057 76.52413013305222 C 15.861996795071398 75.4634699612724 16.286260863783326 74.47352046761122 17.064078323088527 73.69570300830603 L 66.78702667788488 23.972754653509668 L 42.51992244580424 23.91538561277308 C 41.45926227402441 23.986096290891737 40.469312780363246 23.561832222179817 39.69149532105804 22.784014762874605 C 38.913677861752845 22.006197303569408 38.48941379304092 21.016247809908236 38.560124471159575 19.955587638128407 C 38.48941379304092 18.894927466348605 38.913677861752845 17.904977972687433 39.69149532105805 17.127160513382222 C 40.469312780363246 16.349343054077025 41.45926227402441 15.925078985365104 42.519922445804234 15.995789663483748 L 75.2589664147414 15.925078985365104 Q 77.83416324323997 16.378955470304035 78.93592167691143 17.4807139039755 Q 80.0376801105829 18.582472337646948 80.49155659552184 21.157669166145553 L 80.42084591740318 53.8967131350827 C 80.49155659552184 54.95737330686252 80.06729252680991 55.947322800523686 79.28947506750471 56.72514025982888 C 78.5116576081995 57.50295771913409 77.52170811453834 57.927221787846015 76.46104794275853 57.85651110972736 C 75.4003877709787 57.92722178784602 74.41043827731752 57.50295771913409 73.63262081801233 56.72514025982889 C 72.85480335870713 55.94732280052368 72.4305392899952 54.95737330686252 72.50124996811385 53.89671313508269 L 72.44388092737728 29.629608903002037 Z " fill="#454545" stroke="none"/></svg>
