<?xml version="1.0" standalone="no"?><!-- Generator: Gravit.io --><svg xmlns="http://www.w3.org/2000/svg" xmlns:xlink="http://www.w3.org/1999/xlink" width="96" height="96"><path d=" M 17.431132075470003 44 L 87.75 44 C 88.85 44 89.85 44.4 90.55 45.2 C 91.35 45.9 91.75 46.9 91.75 48 C 91.75 49.1 91.35 50.1 90.55 50.8 C 89.85 51.6 88.85 52 87.75 52 L 17.431132075470003 52 L 34.55 69.2 C 35.35 69.9 35.75 70.9 35.75 72 C 35.75 73.1 35.35 74.1 34.55 74.8 C 33.85 75.6 32.85 76 31.75 76 C 30.650000000000006 76 29.650000000000006 75.6 28.950000000000003 74.8 L 5.75 51.7 Q 4.25 49.55812171935711 4.25 48 Q 4.25 46.44187828064289 5.75 44.3 L 28.950000000000003 21.2 C 29.650000000000006 20.4 30.650000000000006 20 31.75 20 C 32.85 20 33.85 20.4 34.55 21.2 C 35.35 21.9 35.75 22.9 35.75 24 C 35.75 25.1 35.35 26.1 34.55 26.8 L 17.431132075470003 44 Z " fill="#454545" stroke="none"/></svg>
