<?xml version="1.0" standalone="no"?><!-- Generator: Gravit.io --><svg xmlns="http://www.w3.org/2000/svg" xmlns:xlink="http://www.w3.org/1999/xlink" width="96" height="96"><path d=" M 23.972754653509675 29.629608903002037 L 73.69570300830604 79.35255725779841 C 74.47352046761124 80.13037471710362 75.46346996127241 80.55463878581554 76.52413013305222 80.48392810769688 C 77.58479030483204 80.55463878581554 78.57473979849321 80.13037471710362 79.35255725779842 79.35255725779841 C 80.13037471710362 78.5747397984932 80.55463878581554 77.58479030483204 80.4839281076969 76.52413013305222 C 80.55463878581554 75.4634699612724 80.13037471710362 74.47352046761122 79.35255725779842 73.69570300830603 L 29.629608903002058 23.972754653509668 L 53.896713135082706 23.91538561277308 C 54.957373306862536 23.986096290891737 55.9473228005237 23.561832222179817 56.725140259828905 22.784014762874605 C 57.5029577191341 22.006197303569408 57.92722178784603 21.016247809908236 57.85651110972737 19.955587638128407 C 57.92722178784603 18.894927466348605 57.5029577191341 17.904977972687433 56.7251402598289 17.127160513382222 C 55.9473228005237 16.349343054077025 54.957373306862536 15.925078985365104 53.89671313508271 15.995789663483748 L 21.15766916614556 15.925078985365104 Q 18.58247233764697 16.378955470304035 17.480713903975513 17.4807139039755 Q 16.378955470304057 18.582472337646948 15.925078985365104 21.157669166145553 L 15.995789663483762 53.8967131350827 C 15.925078985365111 54.95737330686252 16.34934305407704 55.947322800523686 17.127160513382236 56.72514025982888 C 17.90497797268744 57.50295771913409 18.894927466348605 57.927221787846015 19.95558763812842 57.85651110972736 C 21.01624780990825 57.92722178784602 22.006197303569415 57.50295771913409 22.78401476287462 56.72514025982889 C 23.56183222217982 55.94732280052368 23.98609629089175 54.95737330686252 23.91538561277309 53.89671313508269 L 23.972754653509675 29.629608903002037 Z " fill="#454545" stroke="none"/></svg>
