<?xml version="1.0" standalone="no"?><!-- Generator: Gravit.io --><svg xmlns="http://www.w3.org/2000/svg" xmlns:xlink="http://www.w3.org/1999/xlink" width="96" height="96"><path d=" M 23.972754653509675 66.78702667788491 L 73.69570300830604 17.064078323088545 C 74.47352046761124 16.28626086378334 75.46346996127241 15.861996795071413 76.52413013305222 15.93270747319007 C 77.58479030483204 15.861996795071413 78.57473979849321 16.28626086378334 79.35255725779842 17.064078323088545 C 80.13037471710362 17.84189578239375 80.55463878581554 18.831845276054914 80.4839281076969 19.89250544783473 C 80.55463878581554 20.95316561961456 80.13037471710362 21.943115113275724 79.35255725779842 22.720932572580928 L 29.629608903002058 72.44388092737728 L 53.896713135082706 72.50124996811388 C 54.957373306862536 72.43053928999521 55.9473228005237 72.85480335870713 56.725140259828905 73.63262081801236 C 57.5029577191341 74.41043827731755 57.92722178784603 75.40038777097871 57.85651110972737 76.46104794275854 C 57.92722178784603 77.52170811453834 57.5029577191341 78.51165760819953 56.7251402598289 79.28947506750472 C 55.9473228005237 80.06729252680992 54.957373306862536 80.49155659552184 53.89671313508271 80.4208459174032 L 21.15766916614556 80.49155659552184 Q 18.58247233764697 80.03768011058293 17.480713903975513 78.93592167691145 Q 16.378955470304057 77.83416324324 15.925078985365104 75.2589664147414 L 15.995789663483762 42.519922445804255 C 15.925078985365111 41.45926227402443 16.34934305407704 40.46931278036327 17.127160513382236 39.69149532105807 C 17.90497797268744 38.913677861752866 18.894927466348605 38.48941379304094 19.95558763812842 38.5601244711596 C 21.01624780990825 38.48941379304093 22.006197303569415 38.913677861752866 22.78401476287462 39.69149532105806 C 23.56183222217982 40.469312780363275 23.98609629089175 41.45926227402443 23.91538561277309 42.51992244580426 L 23.972754653509675 66.78702667788491 Z " fill="#454545" stroke="none"/></svg>
